<?xml version="1.0" encoding="utf-8"?>
<!-- Generator: Adobe Illustrator 26.0.3, SVG Export Plug-In . SVG Version: 6.00 Build 0)  -->
<svg version="1.1" xmlns="http://www.w3.org/2000/svg" xmlns:xlink="http://www.w3.org/1999/xlink" x="0px" y="0px"
	 viewBox="0 0 500 500" style="enable-background:new 0 0 500 500;" xml:space="preserve">
<style type="text/css">
	.st0{fill:#FCD063;}
	.st1{fill:#F7B84E;}
	.st2{fill:#C98E3F;}
	.st3{fill:#AB7934;}
	.st4{fill:#F15642;}
	.st5{fill:#FFFFFF;}
</style>
<path class="st0" d="M24.9,249.9c0,124,100.7,224.6,224.8,224.6c124.2,0,224.8-100.5,224.8-224.6c0-124-100.7-224.6-224.8-224.6
	C125.6,25.3,24.9,125.8,24.9,249.9L24.9,249.9z"/>
<path class="st1" d="M394,77.7c32.7,39,52.5,89.2,52.5,144.1c0,124-100.7,224.6-224.8,224.6c-54.9,0-105.2-19.7-144.3-52.4
	c41.2,49.2,103.1,80.5,172.4,80.5c124.2,0,224.8-100.6,224.8-224.6C474.6,180.7,443.2,118.9,394,77.7L394,77.7z"/>
<path class="st2" d="M326.4,292H173.1c-4.2,0-7.7,3.1-7.7,7c0,42.6,37.8,77.2,84.3,77.2S334,341.6,334,299
	C334.1,295.1,330.6,292,326.4,292L326.4,292z"/>
<path class="st3" d="M333.5,306c0.3-2.3,0.6-4.6,0.6-7c0-3.9-3.4-7-7.7-7H173.1c-4.2,0-7.7,3.1-7.7,7c0,2.4,0.3,4.7,0.6,7H333.5z"/>
<path class="st2" d="M137.3,221.8c0,15.5,12.6,28.1,28.1,28.1s28.1-12.6,28.1-28.1s-12.6-28.1-28.1-28.1S137.3,206.3,137.3,221.8
	L137.3,221.8z"/>
<path class="st3" d="M165.4,207.8c13.1,0,24,9,27.1,21.1c0.6-2.3,1-4.6,1-7c0-15.5-12.6-28.1-28.1-28.1s-28.1,12.6-28.1,28.1
	c0,2.4,0.4,4.8,1,7C141.5,216.7,152.4,207.8,165.4,207.8L165.4,207.8z"/>
<path class="st2" d="M306,221.8c0,15.5,12.6,28.1,28.1,28.1s28.1-12.6,28.1-28.1s-12.6-28.1-28.1-28.1
	C318.5,193.7,306,206.3,306,221.8L306,221.8z"/>
<path class="st1" d="M362.2,270.9c0,11.6,9.4,21.1,21.1,21.1c11.6,0,21.1-9.4,21.1-21.1c0-11.6-9.4-21.1-21.1-21.1
	C371.6,249.9,362.2,259.3,362.2,270.9L362.2,270.9z"/>
<path class="st1" d="M95.2,270.9c0,11.6,9.4,21.1,21.1,21.1c11.6,0,21.1-9.4,21.1-21.1c0-11.6-9.4-21.1-21.1-21.1
	C104.6,249.9,95.2,259.3,95.2,270.9L95.2,270.9z"/>
<path class="st3" d="M334.1,207.8c13.1,0,24,9,27.1,21.1c0.6-2.3,1-4.6,1-7c0-15.5-12.6-28.1-28.1-28.1S306,206.4,306,221.9
	c0,2.4,0.4,4.8,1,7C310.1,216.7,321,207.8,334.1,207.8L334.1,207.8z"/>
<path class="st4" d="M376.2,67.4c0,23.3,18.9,42.1,42.2,42.1c23.3,0,42.2-18.9,42.2-42.1c0-23.3-18.9-42.1-42.2-42.1
	C395.1,25.3,376.2,44.1,376.2,67.4L376.2,67.4z"/>
<path class="st4" d="M320,67.4c0,23.3,18.9,42.1,42.2,42.1c23.3,0,42.2-18.9,42.2-42.1c0-23.3-18.9-42.1-42.2-42.1
	C338.9,25.3,320,44.1,320,67.4L320,67.4z"/>
<path class="st4" d="M320,123.5c0,23.3,18.9,42.1,42.2,42.1c23.3,0,42.2-18.9,42.2-42.1c0-23.3-18.9-42.1-42.2-42.1
	C338.9,81.4,320,100.3,320,123.5L320,123.5z"/>
<path class="st4" d="M376.2,123.5c0,23.3,18.9,42.1,42.2,42.1c23.3,0,42.2-18.9,42.2-42.1c0-23.3-18.9-42.1-42.2-42.1
	C395.1,81.4,376.2,100.3,376.2,123.5L376.2,123.5z"/>
<path class="st5" d="M362.2,95.5c0,15.5,12.6,28.1,28.1,28.1s28.1-12.6,28.1-28.1s-12.6-28.1-28.1-28.1
	C374.8,67.4,362.2,80,362.2,95.5L362.2,95.5z"/>
</svg>
