<?xml version="1.0" encoding="utf-8"?>
<!-- Generator: Adobe Illustrator 26.0.3, SVG Export Plug-In . SVG Version: 6.00 Build 0)  -->
<svg version="1.1" xmlns="http://www.w3.org/2000/svg" xmlns:xlink="http://www.w3.org/1999/xlink" x="0px" y="0px"
	 viewBox="0 0 500 500" enable-background="new 0 0 500 500" xml:space="preserve">
<polygon fill="#FFB55A" points="393.3,88.5 400.6,103.3 416.8,105.7 405.1,117.2 407.9,133.3 393.3,125.7 378.7,133.3 381.5,117.2 
	369.6,105.7 386,103.3 "/>
<path fill-rule="evenodd" clip-rule="evenodd" fill="#FFB55A" d="M408.3,290.4c-95.4,0-172.7-77.3-172.7-172.7
	c0-17.9,2.7-35,7.7-51.2c0.5-1.6-0.9-3.3-2.7-3.1C162,78,102.2,145.8,99.8,228.2c-2.7,98.6,78.2,180.1,177,177.6
	c72.9-1.8,134.6-48.7,158.1-114c0.5-1.6-0.7-3.5-2.6-3.1C424.6,289.9,416.5,290.4,408.3,290.4z"/>
<path fill="#F6F6F6" d="M220.8,286.8c-6.9-23.6-28.7-40.8-54.5-40.8c-31,0-56.2,24.8-56.8,55.7c-14.5,1.7-25.6,14-25.6,28.8
	c0,16.1,13,29,29,29h103.5c20.2,0,36.5-16.4,36.5-36.5C253,304.4,238.9,288.9,220.8,286.8z"/>
</svg>
