<?xml version="1.0" encoding="utf-8"?>
<!-- Generator: Adobe Illustrator 26.0.3, SVG Export Plug-In . SVG Version: 6.00 Build 0)  -->
<svg version="1.1" xmlns="http://www.w3.org/2000/svg" xmlns:xlink="http://www.w3.org/1999/xlink" x="0px" y="0px"
	 viewBox="0 0 500 500" style="enable-background:new 0 0 500 500;" xml:space="preserve">
<style type="text/css">
	.st0{fill:#FCD063;}
	.st1{fill:#F7B84E;}
	.st2{fill:#C98E3F;}
	.st3{fill:#AB7934;}
</style>
<path class="st0" d="M24.9,249.9c0,124,100.7,224.6,224.8,224.6c124.2,0,224.8-100.5,224.8-224.6c0-124-100.7-224.6-224.8-224.6
	C125.6,25.3,24.9,125.8,24.9,249.9L24.9,249.9z"/>
<path class="st1" d="M394,77.7c32.7,39,52.5,89.2,52.5,144.1c0,124-100.7,224.6-224.8,224.6c-54.9,0-105.2-19.7-144.3-52.4
	c41.2,49.2,103.1,80.5,172.4,80.5c124.2,0,224.8-100.6,224.8-224.6C474.6,180.7,443.2,118.9,394,77.7L394,77.7z"/>
<path class="st2" d="M95.2,221.8c0,15.5,12.6,28.1,28.1,28.1s28.1-12.6,28.1-28.1s-12.6-28.1-28.1-28.1S95.2,206.3,95.2,221.8
	L95.2,221.8z"/>
<path class="st3" d="M123.3,207.8c13.1,0,24,9,27.1,21.1c0.6-2.3,1-4.6,1-7c0-15.5-12.6-28.1-28.1-28.1s-28.1,12.6-28.1,28.1
	c0,2.4,0.4,4.8,1,7C99.3,216.7,110.2,207.8,123.3,207.8L123.3,207.8z"/>
<path class="st2" d="M348.1,221.8c0,15.5,12.6,28.1,28.1,28.1s28.1-12.6,28.1-28.1s-12.6-28.1-28.1-28.1S348.1,206.3,348.1,221.8
	L348.1,221.8z"/>
<path class="st3" d="M376.2,207.8c13.1,0,24,9,27.1,21.1c0.6-2.3,1-4.6,1-7c0-15.5-12.6-28.1-28.1-28.1s-28.1,12.6-28.1,28.1
	c0,2.4,0.4,4.8,1,7C352.3,216.7,363.1,207.8,376.2,207.8L376.2,207.8z"/>
<path class="st1" d="M362.2,285c0,11.6,9.4,21.1,21.1,21.1c11.6,0,21.1-9.4,21.1-21.1c0-11.6-9.4-21.1-21.1-21.1
	S362.2,273.3,362.2,285L362.2,285z"/>
<path class="st1" d="M95.2,285c0,11.6,9.4,21.1,21.1,21.1c11.6,0,21.1-9.4,21.1-21.1c0-11.6-9.4-21.1-21.1-21.1S95.2,273.3,95.2,285
	L95.2,285z"/>
<path class="st2" d="M320,299c0,11.6-9.5,21.1-21.1,21.1h-98.4c-11.6,0-21.1-9.5-21.1-21.1s9.5-21.1,21.1-21.1h98.4
	C310.5,277.9,320,287.4,320,299L320,299z"/>
<path class="st3" d="M180.8,292h137.9c-2.9-8.1-10.7-14-19.8-14h-98.4C191.5,277.9,183.7,283.8,180.8,292L180.8,292z"/>
</svg>
