<?xml version="1.0" encoding="utf-8"?>
<!-- Generator: Adobe Illustrator 26.0.3, SVG Export Plug-In . SVG Version: 6.00 Build 0)  -->
<svg version="1.1" xmlns="http://www.w3.org/2000/svg" xmlns:xlink="http://www.w3.org/1999/xlink" x="0px" y="0px"
	 viewBox="0 0 500 500" enable-background="new 0 0 500 500" xml:space="preserve">
<path fill="#4FC0F2" d="M188.6,442l18.3-44.8c2.8-6.9,10.7-10.2,17.6-7.4l0,0c6.9,2.8,10.2,10.7,7.4,17.6l-18.3,44.8
	c-2.8,6.9-10.7,10.2-17.6,7.4l0,0C189.1,456.8,185.8,448.9,188.6,442z"/>
<path fill="#4FC0F2" d="M131.6,442l18.3-44.8c2.8-6.9,10.7-10.2,17.6-7.4l0,0c6.9,2.8,10.2,10.7,7.4,17.6l-18.3,44.8
	c-2.8,6.9-10.7,10.2-17.6,7.4l0,0C132.1,456.8,128.8,448.9,131.6,442z"/>
<path fill="#4FC0F2" d="M245.6,442l18.3-44.8c2.8-6.9,10.7-10.2,17.6-7.4l0,0c6.9,2.8,10.2,10.7,7.4,17.6l-18.3,44.8
	c-2.8,6.9-10.7,10.2-17.6,7.4l0,0C246.1,456.8,242.8,448.9,245.6,442z"/>
<path fill="#4FC0F2" d="M302.7,442l18.3-44.8c2.8-6.9,10.7-10.2,17.6-7.4l0,0c6.9,2.8,10.2,10.7,7.4,17.6l-18.3,44.8
	c-2.8,6.9-10.7,10.2-17.6,7.4l0,0C303.2,456.8,299.9,448.9,302.7,442z"/>
<path fill="#E3E3E3" d="M401.3,188.3c-0.1,0-0.3,0-0.4,0c-4.4-47.3-44.2-84.4-92.6-84.4c-51.4,0-93,41.7-93,93
	c0,49.7,38.9,90.3,88,92.9v0.1h98.1c28.1,0,50.9-22.8,50.9-50.9S429.4,188.3,401.3,188.3z"/>
<g>
	<polygon fill="#FFB55A" points="54.5,150.3 158.2,38.3 270.1,142 166.6,253.9 	"/>
	<rect x="86.1" y="69.9" fill="#FFB55A" width="152.6" height="152.6"/>
	<ellipse fill="#FFCF00" cx="162.4" cy="146" rx="76.4" ry="76.4"/>
</g>
<path fill="#F6F6F6" d="M343.8,214.3c-15-51.2-62.2-88.6-118.3-88.6c-67.3,0-121.9,54-123.2,120.9c-31.3,3.7-55.6,30.3-55.6,62.6
	c0,34.9,28.2,63.1,63.1,63.1h224.7c43.7,0,79.3-35.5,79.3-79.3C413.6,252.4,383.1,218.9,343.8,214.3z"/>
</svg>
