<?xml version="1.0" encoding="utf-8"?>
<!-- Generator: Adobe Illustrator 26.0.3, SVG Export Plug-In . SVG Version: 6.00 Build 0)  -->
<svg version="1.1" xmlns="http://www.w3.org/2000/svg" xmlns:xlink="http://www.w3.org/1999/xlink" x="0px" y="0px"
	 viewBox="0 0 500 500" enable-background="new 0 0 500 500" xml:space="preserve">
<path fill="#E3E3E3" d="M400.2,158.3c-0.1,0-0.3,0-0.4,0c-4.3-46.8-43.7-83.4-91.6-83.4c-50.8,0-92,41.2-92,92
	c0,49.1,38.5,89.3,87,91.9v0.1h97c27.8,0,50.3-22.5,50.3-50.3S428,158.3,400.2,158.3z"/>
<path fill="#F6F6F6" d="M343.3,184c-14.8-50.6-61.6-87.6-117-87.6c-66.5,0-120.6,53.3-121.8,119.6c-31,3.6-55,30-55,61.9
	c0,34.4,27.9,62.3,62.3,62.3H334c43.3,0,78.4-35.1,78.4-78.4C412.4,221.7,382.2,188.6,343.3,184z"/>
<polygon fill-rule="evenodd" clip-rule="evenodd" fill="#F7AD44" points="232.7,327.4 280.1,327.4 209.1,423.6 209.1,359.3 
	168.4,359.3 256,240.8 "/>
<path fill="#4FC0F2" d="M117.3,380l7.4-18.2c2.8-6.9,10.7-10.2,17.6-7.4l0,0c6.9,2.8,10.2,10.7,7.4,17.6l-7.4,18.2
	c-2.8,6.9-10.7,10.2-17.6,7.4l0,0C117.8,394.8,114.5,386.9,117.3,380z"/>
<path fill="#4FC0F2" d="M281.1,406.6l18.3-44.8c2.8-6.9,10.7-10.2,17.6-7.4l0,0c6.9,2.8,10.2,10.7,7.4,17.6l-18.3,44.8
	c-2.8,6.9-10.7,10.2-17.6,7.4l0,0C281.6,421.4,278.3,413.5,281.1,406.6z"/>
</svg>
