<?xml version="1.0" encoding="utf-8"?>
<!-- Generator: Adobe Illustrator 26.0.3, SVG Export Plug-In . SVG Version: 6.00 Build 0)  -->
<svg version="1.1" xmlns="http://www.w3.org/2000/svg" xmlns:xlink="http://www.w3.org/1999/xlink" x="0px" y="0px"
	 viewBox="0 0 500 500" style="enable-background:new 0 0 500 500;" xml:space="preserve">
<style type="text/css">
	.st0{fill:#E3E3E3;}
	.st1{fill:#F6F6F6;}
	.st2{fill:#4FC0F2;}
</style>
<path class="st0" d="M401.3,151c-0.1,0-0.3,0-0.4,0c-4.4-47.3-44.2-84.4-92.6-84.4c-51.4,0-93,41.7-93,93c0,49.7,38.9,90.3,88,92.9
	v0.1h98.1c28.1,0,50.9-22.8,50.9-50.9S429.4,151,401.3,151z"/>
<path class="st1" d="M343.8,177c-15-51.2-62.2-88.6-118.3-88.6c-67.3,0-121.9,54-123.2,120.9C71,213,46.7,239.6,46.7,271.9
	c0,34.9,28.2,63.1,63.1,63.1h224.7c43.7,0,79.3-35.5,79.3-79.3C413.6,215.1,383.1,181.6,343.8,177z"/>
<path class="st2" d="M153.6,437.5L153.6,437.5c-6.8,0-12.4-5.6-12.4-12.4v-59.3c0-6.8,5.6-12.4,12.4-12.4l0,0
	c6.8,0,12.4,5.6,12.4,12.4v59.3C166,432,160.4,437.5,153.6,437.5z"/>
<path class="st2" d="M209.5,414.3L209.5,414.3c-6.8,0-12.4-5.6-12.4-12.4v-36.1c0-6.8,5.6-12.4,12.4-12.4l0,0
	c6.8,0,12.4,5.6,12.4,12.4v36.1C221.9,408.7,216.3,414.3,209.5,414.3z"/>
<path class="st2" d="M265.4,430.7L265.4,430.7c-6.8,0-12.4-5.6-12.4-12.4v-52.5c0-6.8,5.6-12.4,12.4-12.4l0,0
	c6.8,0,12.4,5.6,12.4,12.4v52.5C277.8,425.2,272.3,430.7,265.4,430.7z"/>
<path class="st2" d="M97.7,407.9L97.7,407.9c-6.8,0-12.4-5.6-12.4-12.4v-29.6c0-6.8,5.6-12.4,12.4-12.4l0,0
	c6.8,0,12.4,5.6,12.4,12.4v29.6C110.1,402.3,104.5,407.9,97.7,407.9z"/>
<path class="st2" d="M321.4,403.6L321.4,403.6c-6.8,0-12.4-5.6-12.4-12.4v-25.4c0-6.8,5.6-12.4,12.4-12.4l0,0
	c6.8,0,12.4,5.6,12.4,12.4v25.4C333.8,398,328.2,403.6,321.4,403.6z"/>
<path class="st2" d="M368.3,409.5h-0.8c-6.6,0-12-5.4-12-12v-33.5c0-6.6,5.4-12,12-12h0.8c6.6,0,12,5.4,12,12v33.5
	C380.3,404.1,374.9,409.5,368.3,409.5z"/>
</svg>
