<?xml version="1.0" encoding="utf-8"?>
<!-- Generator: Adobe Illustrator 26.0.3, SVG Export Plug-In . SVG Version: 6.00 Build 0)  -->
<svg version="1.1" xmlns="http://www.w3.org/2000/svg" xmlns:xlink="http://www.w3.org/1999/xlink" x="0px" y="0px"
	 viewBox="0 0 500 500" style="enable-background:new 0 0 500 500;" xml:space="preserve">
<style type="text/css">
	.st0{fill:#4FC0F2;}
	.st1{fill:#E3E3E3;}
	.st2{fill:#F6F6F6;}
</style>
<path class="st0" d="M118.6,407.2l24.2-59.4c1.2-2.9,4.4-4.2,7.3-3.1l0,0c2.9,1.2,4.2,4.4,3.1,7.3L129,411.4
	c-1.2,2.9-4.4,4.2-7.3,3.1l0,0C118.8,413.3,117.4,410.1,118.6,407.2z"/>
<path class="st0" d="M208.7,407.2l24.2-59.4c1.2-2.9,4.4-4.2,7.3-3.1l0,0c2.9,1.2,4.2,4.4,3.1,7.3l-24.2,59.4
	c-1.2,2.9-4.4,4.2-7.3,3.1l0,0C208.9,413.3,207.5,410.1,208.7,407.2z"/>
<path class="st0" d="M298.8,407.2l24.2-59.4c1.2-2.9,4.4-4.2,7.3-3.1l0,0c2.9,1.2,4.2,4.4,3.1,7.3l-24.2,59.4
	c-1.2,2.9-4.4,4.2-7.3,3.1l0,0C299,413.3,297.6,410.1,298.8,407.2z"/>
<path class="st1" d="M401.3,146.3c-0.1,0-0.3,0-0.4,0c-4.4-47.3-44.2-84.4-92.6-84.4c-51.4,0-93,41.7-93,93
	c0,49.7,38.9,90.3,88,92.9v0.1h98.1c28.1,0,50.9-22.8,50.9-50.9S429.4,146.3,401.3,146.3z"/>
<path class="st2" d="M343.8,172.3c-15-51.2-62.2-88.6-118.3-88.6c-67.3,0-121.9,54-123.2,120.9c-31.3,3.7-55.6,30.3-55.6,62.6
	c0,34.9,28.2,63.1,63.1,63.1h224.7c43.7,0,79.3-35.5,79.3-79.3C413.6,210.4,383.1,176.9,343.8,172.3z"/>
</svg>
