<?xml version="1.0" encoding="utf-8"?>
<!-- Generator: Adobe Illustrator 26.0.3, SVG Export Plug-In . SVG Version: 6.00 Build 0)  -->
<svg version="1.1" xmlns="http://www.w3.org/2000/svg" xmlns:xlink="http://www.w3.org/1999/xlink" x="0px" y="0px"
	 viewBox="0 0 500 500" style="enable-background:new 0 0 500 500;" xml:space="preserve">
<style type="text/css">
	.st0{fill:#E6E6E6;}
	.st1{fill:#E3E3E3;}
	.st2{fill:#F6F6F6;}
	.st3{fill:#4FC0F2;}
</style>
<path class="st0" d="M208.3,424.9L208.3,424.9c-4-1.8-5.8-6.4-4-10.4l23.4-53c1.8-4,6.4-5.8,10.4-4l0,0c4,1.8,5.8,6.4,4,10.4
	l-23.4,53C216.9,424.9,212.3,426.7,208.3,424.9z"/>
<path class="st1" d="M401.3,153c-0.1,0-0.3,0-0.4,0c-4.4-47.3-44.2-84.4-92.6-84.4c-51.4,0-93,41.7-93,93c0,49.7,38.9,90.3,88,92.9
	v0.1h98.1c28.1,0,50.9-22.8,50.9-50.9C452.3,175.6,429.4,153,401.3,153z"/>
<path class="st2" d="M343.8,179c-15-51.2-62.2-88.6-118.3-88.6c-67.3,0-121.9,54-123.2,120.9C71,215,46.7,241.6,46.7,273.9
	c0,34.9,28.2,63.1,63.1,63.1h224.7c43.7,0,79.3-35.5,79.3-79.3C413.6,217.1,383.1,183.6,343.8,179z"/>
<path class="st3" d="M147.4,391.1l10.6-25.9c2.8-6.9,10.7-10.2,17.6-7.4l0,0c6.9,2.8,10.2,10.7,7.4,17.6l-10.6,25.9
	c-2.8,6.9-10.7,10.2-17.6,7.4l0,0C147.9,405.7,144.7,398,147.4,391.1z"/>
<path class="st3" d="M259.6,410l18.3-44.8c2.8-6.9,10.7-10.2,17.6-7.4l0,0c6.9,2.8,10.2,10.7,7.4,17.6l-18.3,44.8
	c-2.8,6.9-10.7,10.2-17.6,7.4l0,0C260.1,424.8,256.8,416.9,259.6,410z"/>
<path class="st3" d="M317.7,410l18.3-44.8c2.8-6.9,10.7-10.2,17.6-7.4l0,0c6.9,2.8,10.2,10.7,7.4,17.6l-18.3,44.8
	c-2.8,6.9-10.7,10.2-17.6,7.4l0,0C318.2,424.8,314.9,416.9,317.7,410z"/>
<path class="st3" d="M89.3,391.1l10.6-25.9c2.8-6.9,10.7-10.2,17.6-7.4l0,0c6.9,2.8,10.2,10.7,7.4,17.6l-10.6,25.9
	c-2.8,6.9-10.7,10.2-17.6,7.4l0,0C89.8,405.7,86.6,398,89.3,391.1z"/>
</svg>
