<?xml version="1.0" encoding="utf-8"?>
<!-- Generator: Adobe Illustrator 26.0.3, SVG Export Plug-In . SVG Version: 6.00 Build 0)  -->
<svg version="1.1" xmlns="http://www.w3.org/2000/svg" xmlns:xlink="http://www.w3.org/1999/xlink" x="0px" y="0px"
	 viewBox="0 0 500 500" style="enable-background:new 0 0 500 500;" xml:space="preserve">
<style type="text/css">
	.st0{fill:#E3E3E3;}
	.st1{fill:#F6F6F6;}
	.st2{fill:#4FC0F2;}
</style>
<path class="st0" d="M401.3,153c-0.1,0-0.3,0-0.4,0c-4.4-47.3-44.2-84.4-92.6-84.4c-51.4,0-93,41.7-93,93c0,49.7,38.9,90.3,88,92.9
	v0.1h98.1c28.1,0,50.9-22.8,50.9-50.9S429.4,153,401.3,153z"/>
<path class="st1" d="M343.8,179c-15-51.2-62.2-88.6-118.3-88.6c-67.3,0-121.9,54-123.2,120.9C71,215,46.7,241.6,46.7,273.9
	c0,34.9,28.2,63.1,63.1,63.1h224.7c43.7,0,79.3-35.5,79.3-79.3C413.6,217.1,383.1,183.6,343.8,179z"/>
<path class="st2" d="M135.6,405L135.6,405c-7.4,0-13.5-6.1-13.5-13.5v-29.5c0-7.4,6.1-13.5,13.5-13.5h0c7.4,0,13.5,6.1,13.5,13.5
	v29.5C149.1,398.9,143,405,135.6,405z"/>
<path class="st2" d="M198.7,422.3L198.7,422.3c-7.4,0-13.5-6.1-13.5-13.5v-46.8c0-7.4,6.1-13.5,13.5-13.5h0
	c7.4,0,13.5,6.1,13.5,13.5v46.8C212.2,416.2,206.1,422.3,198.7,422.3z"/>
<path class="st2" d="M261.8,393.8L261.8,393.8c-7.4,0-13.5-6.1-13.5-13.5v-18.4c0-7.4,6.1-13.5,13.5-13.5h0
	c7.4,0,13.5,6.1,13.5,13.5v18.4C275.3,387.8,269.2,393.8,261.8,393.8z"/>
<path class="st2" d="M324.9,410.9L324.9,410.9c-7.4,0-13.5-6.1-13.5-13.5v-35.5c0-7.4,6.1-13.5,13.5-13.5h0
	c7.4,0,13.5,6.1,13.5,13.5v35.5C338.4,404.8,332.4,410.9,324.9,410.9z"/>
</svg>
