<?xml version="1.0" encoding="utf-8"?>
<!-- Generator: Adobe Illustrator 26.0.3, SVG Export Plug-In . SVG Version: 6.00 Build 0)  -->
<svg version="1.1" xmlns="http://www.w3.org/2000/svg" xmlns:xlink="http://www.w3.org/1999/xlink" x="0px" y="0px"
	 viewBox="0 0 500 500" style="enable-background:new 0 0 500 500;" xml:space="preserve">
<style type="text/css">
	.st0{fill:#FCD063;}
	.st1{fill:#F7B84E;}
	.st2{fill:#C98E3F;}
	.st3{fill:#AB7934;}
</style>
<path class="st0" d="M24.9,249.9c0,124,100.7,224.6,224.8,224.6c124.2,0,224.8-100.5,224.8-224.6c0-124-100.7-224.6-224.8-224.6
	C125.6,25.3,24.9,125.8,24.9,249.9L24.9,249.9z"/>
<path class="st1" d="M394,77.7c32.7,39,52.5,89.2,52.5,144.1c0,124-100.7,224.6-224.8,224.6c-54.9,0-105.2-19.7-144.3-52.4
	c41.2,49.2,103.1,80.5,172.4,80.5c124.2,0,224.8-100.6,224.8-224.6C474.6,180.7,443.2,118.9,394,77.7L394,77.7z"/>
<path class="st2" d="M311,348.1c-4,0-8.1-1-11.9-3c-26.3-14.6-72.5-14.6-98.9,0c-10.9,6-25,2.8-31.6-7.1c-6.6-10-3.1-22.9,7.8-28.9
	c41-22.7,105.4-22.7,146.4,0c10.9,6,14.4,19,7.8,28.9C326.4,344.5,318.8,348.1,311,348.1L311,348.1z"/>
<path class="st2" d="M137.3,235.8c0,15.5,12.6,28.1,28.1,28.1s28.1-12.6,28.1-28.1s-12.6-28.1-28.1-28.1S137.3,220.3,137.3,235.8
	L137.3,235.8z"/>
<path class="st2" d="M306,235.8c0,15.5,12.6,28.1,28.1,28.1s28.1-12.6,28.1-28.1s-12.6-28.1-28.1-28.1
	C318.5,207.8,306,220.3,306,235.8L306,235.8z"/>
<path class="st3" d="M176.5,323c41-22.7,105.4-22.7,146.4,0c4.8,2.7,8,6.7,9.7,11.2c3.7-9.3-0.2-19.9-9.7-25.2
	c-41-22.7-105.4-22.7-146.4,0c-9.6,5.3-13.4,15.9-9.7,25.2C168.5,329.7,171.8,325.7,176.5,323L176.5,323z M165.4,221.8
	c13.1,0,24,9,27.1,21.1c0.6-2.3,1-4.6,1-7c0-15.5-12.6-28.1-28.1-28.1s-28.1,12.6-28.1,28.1c0,2.4,0.4,4.8,1,7
	C141.5,230.8,152.4,221.8,165.4,221.8L165.4,221.8z M334.1,221.8c13.1,0,24,9,27.1,21.1c0.6-2.3,1-4.6,1-7
	c0-15.5-12.6-28.1-28.1-28.1S306,220.4,306,235.9c0,2.4,0.4,4.8,1,7C310.1,230.8,321,221.8,334.1,221.8L334.1,221.8z"/>
<path class="st1" d="M362.2,285c0,11.6,9.4,21.1,21.1,21.1c11.6,0,21.1-9.4,21.1-21.1c0-11.6-9.4-21.1-21.1-21.1
	S362.2,273.3,362.2,285L362.2,285z"/>
<path class="st1" d="M95.2,285c0,11.6,9.4,21.1,21.1,21.1c11.6,0,21.1-9.4,21.1-21.1c0-11.6-9.4-21.1-21.1-21.1S95.2,273.3,95.2,285
	L95.2,285z"/>
</svg>
