<?xml version="1.0" encoding="utf-8"?>
<!-- Generator: Adobe Illustrator 26.0.3, SVG Export Plug-In . SVG Version: 6.00 Build 0)  -->
<svg version="1.1" xmlns="http://www.w3.org/2000/svg" xmlns:xlink="http://www.w3.org/1999/xlink" x="0px" y="0px"
	 viewBox="0 0 500 500" style="enable-background:new 0 0 500 500;" xml:space="preserve">
<style type="text/css">
	.st0{fill:#E6E6E6;}
	.st1{fill:#E3E3E3;}
	.st2{fill:#F6F6F6;}
</style>
<path class="st0" d="M187.3,427.6L187.3,427.6c-4-1.8-5.8-6.4-4-10.4l23.4-53c1.8-4,6.4-5.8,10.4-4l0,0c4,1.8,5.8,6.4,4,10.4
	l-23.4,53C196,427.6,191.3,429.4,187.3,427.6z"/>
<circle class="st1" cx="277.1" cy="394" r="22.6"/>
<circle class="st1" cx="127.3" cy="394" r="15.9"/>
<path class="st1" d="M401.3,153.9c-0.1,0-0.3,0-0.4,0c-4.4-47.3-44.2-84.4-92.6-84.4c-51.4,0-93,41.7-93,93
	c0,49.7,38.9,90.3,88,92.9v0.1h98.1c28.1,0,50.9-22.8,50.9-50.9S429.4,153.9,401.3,153.9z"/>
<path class="st2" d="M343.8,179.9c-15-51.2-62.2-88.6-118.3-88.6c-67.3,0-121.9,54-123.2,120.9c-31.3,3.7-55.6,30.3-55.6,62.6
	c0,34.9,28.2,63.1,63.1,63.1h224.7c43.7,0,79.3-35.5,79.3-79.3C413.6,218.1,383.1,184.6,343.8,179.9z"/>
<circle class="st1" cx="352" cy="394" r="22.6"/>
</svg>
