<?xml version="1.0" encoding="utf-8"?>
<!-- Generator: Adobe Illustrator 26.0.3, SVG Export Plug-In . SVG Version: 6.00 Build 0)  -->
<svg version="1.1" xmlns="http://www.w3.org/2000/svg" xmlns:xlink="http://www.w3.org/1999/xlink" x="0px" y="0px"
	 viewBox="0 0 500 500" style="enable-background:new 0 0 500 500;" xml:space="preserve">
<style type="text/css">
	.st0{fill:#4FC0F2;}
	.st1{fill:#E3E3E3;}
	.st2{fill-rule:evenodd;clip-rule:evenodd;fill:#FFB55A;}
	.st3{fill:#F6F6F6;}
</style>
<path class="st0" d="M137.3,416.6l10.6-25.9c2.8-6.9,10.7-10.2,17.6-7.4l0,0c6.9,2.8,10.2,10.7,7.4,17.6l-10.6,25.9
	c-2.8,6.9-10.7,10.2-17.6,7.4l0,0C137.8,431.2,134.6,423.5,137.3,416.6z"/>
<circle class="st1" cx="262.8" cy="412.6" r="22.6"/>
<circle class="st1" cx="334.6" cy="412.6" r="12.6"/>
<path class="st1" d="M401.3,177.7c-0.1,0-0.3,0-0.4,0c-4.4-47.3-44.2-84.4-92.6-84.4c-51.4,0-93,41.7-93,93
	c0,49.7,38.9,90.3,88,92.9v0.1h98.1c28.1,0,50.9-22.8,50.9-50.9S429.4,177.7,401.3,177.7z"/>
<path class="st2" d="M341.1,154.9c-44.5,0-80.5-36-80.5-80.5c0-8.3,1.3-16.3,3.6-23.9c0.2-0.8-0.4-1.6-1.3-1.4
	c-36.6,6.8-64.6,38.5-65.6,76.8c-1.3,46,36.5,84,82.5,82.8c34-0.8,62.7-22.7,73.7-53.1c0.3-0.8-0.4-1.6-1.2-1.5
	C348.7,154.6,344.9,154.9,341.1,154.9z"/>
<path class="st3" d="M343.8,203.7c-15-51.2-62.2-88.6-118.3-88.6c-67.3,0-121.9,54-123.2,120.9c-31.3,3.7-55.6,30.3-55.6,62.6
	c0,34.9,28.2,63.1,63.1,63.1h224.7c43.7,0,79.3-35.5,79.3-79.3C413.6,241.8,383.1,208.3,343.8,203.7z"/>
</svg>
