<?xml version="1.0" encoding="utf-8"?>
<!-- Generator: Adobe Illustrator 26.0.3, SVG Export Plug-In . SVG Version: 6.00 Build 0)  -->
<svg version="1.1" xmlns="http://www.w3.org/2000/svg" xmlns:xlink="http://www.w3.org/1999/xlink" x="0px" y="0px"
	 viewBox="0 0 500 500" style="enable-background:new 0 0 500 500;" xml:space="preserve">
<style type="text/css">
	.st0{fill:#FFDC32;}
	.st1{fill:#E6E6E6;}
</style>
<circle class="st0" cx="250" cy="250" r="166.8"/>
<path class="st1" d="M169.2,192.8H65.6c-6.9,0-12.6-5.7-12.6-12.6l0,0c0-6.9,5.7-12.6,12.6-12.6h103.6c6.9,0,12.6,5.7,12.6,12.6l0,0
	C181.8,187.2,176.1,192.8,169.2,192.8z"/>
<path class="st1" d="M228.2,195.2h-20.6c-6.9,0-12.6-5.7-12.6-12.6l0,0c0-6.9,5.7-12.6,12.6-12.6h20.6c6.9,0,12.6,5.7,12.6,12.6l0,0
	C240.8,189.5,235.1,195.2,228.2,195.2z"/>
<path class="st1" d="M240.2,239H65.6c-6.9,0-12.6-5.7-12.6-12.6l0,0c0-6.9,5.7-12.6,12.6-12.6h174.6c6.9,0,12.6,5.7,12.6,12.6l0,0
	C252.8,233.3,247.1,239,240.2,239z"/>
<path class="st1" d="M331.4,315.1H435c6.9,0,12.6-5.7,12.6-12.6l0,0c0-6.9-5.7-12.6-12.6-12.6H331.4c-6.9,0-12.6,5.7-12.6,12.6l0,0
	C318.9,309.4,324.5,315.1,331.4,315.1z"/>
<path class="st1" d="M272.5,317.5h20.6c6.9,0,12.6-5.7,12.6-12.6l0,0c0-6.9-5.7-12.6-12.6-12.6h-20.6c-6.9,0-12.6,5.7-12.6,12.6l0,0
	C259.9,311.8,265.6,317.5,272.5,317.5z"/>
<path class="st1" d="M260.4,361.2H435c6.9,0,12.6-5.7,12.6-12.6l0,0c0-6.9-5.7-12.6-12.6-12.6H260.4c-6.9,0-12.6,5.7-12.6,12.6l0,0
	C247.9,355.6,253.5,361.2,260.4,361.2z"/>
</svg>
