<?xml version="1.0" encoding="utf-8"?>
<!-- Generator: Adobe Illustrator 26.0.3, SVG Export Plug-In . SVG Version: 6.00 Build 0)  -->
<svg version="1.1" xmlns="http://www.w3.org/2000/svg" xmlns:xlink="http://www.w3.org/1999/xlink" x="0px" y="0px"
	 viewBox="0 0 500 500" style="enable-background:new 0 0 500 500;" xml:space="preserve">
<style type="text/css">
	.st0{fill:#F6F6F6;}
	.st1{fill:#E6E6E6;}
</style>
<path class="st0" d="M363.6,192.6c-15.1-51.6-62.7-89.3-119.3-89.3c-67.9,0-123.1,54.4-124.4,122c-31.6,3.7-56.1,30.5-56.1,63.1
	c0,35.1,28.4,63.5,63.5,63.5H354c44.2,0,80-35.8,80-80C434.1,231.1,403.3,197.1,363.6,192.6z"/>
<path class="st1" d="M355.7,395.8H198.5c-6.9,0-12.6-5.7-12.6-12.6l0,0c0-6.9,5.7-12.6,12.6-12.6h157.2c6.9,0,12.6,5.7,12.6,12.6
	l0,0C368.3,390.1,362.6,395.8,355.7,395.8z"/>
<path class="st1" d="M162.9,395.8h-20.6c-6.9,0-12.6-5.7-12.6-12.6l0,0c0-6.9,5.7-12.6,12.6-12.6h20.6c6.9,0,12.6,5.7,12.6,12.6l0,0
	C175.5,390.1,169.8,395.8,162.9,395.8z"/>
</svg>
