<?xml version="1.0" encoding="utf-8"?>
<!-- Generator: Adobe Illustrator 26.0.3, SVG Export Plug-In . SVG Version: 6.00 Build 0)  -->
<svg version="1.1" id="图层_1" xmlns="http://www.w3.org/2000/svg" xmlns:xlink="http://www.w3.org/1999/xlink" x="0px" y="0px"
	 viewBox="0 0 500 500" style="enable-background:new 0 0 500 500;" xml:space="preserve">
<style type="text/css">
	.st0{fill:#F6F6F6;}
	.st1{fill:#E6E6E6;}
</style>
<path class="st0" d="M364.1,193.1c-15.1-51.6-62.7-89.3-119.3-89.3c-67.9,0-123.1,54.4-124.4,122c-31.6,3.7-56.1,30.5-56.1,63.1
	c0,35.1,28.4,63.5,63.5,63.5h226.7c44.2,0,80-35.8,80-80C434.6,231.6,403.8,197.6,364.1,193.1z"/>
<path class="st1" d="M275.8,435.5H118.5c-6.9,0-12.6-5.7-12.6-12.6l0,0c0-6.9,5.7-12.6,12.6-12.6h157.2c6.9,0,12.6,5.7,12.6,12.6
	l0,0C288.3,429.9,282.7,435.5,275.8,435.5z"/>
<path class="st1" d="M377.2,396.2H220c-6.9,0-12.6-5.7-12.6-12.6l0,0c0-6.9,5.7-12.6,12.6-12.6h157.2c6.9,0,12.6,5.7,12.6,12.6l0,0
	C389.8,390.6,384.1,396.2,377.2,396.2z"/>
<path class="st1" d="M335,435.5h-20.6c-6.9,0-12.6-5.7-12.6-12.6l0,0c0-6.9,5.7-12.6,12.6-12.6H335c6.9,0,12.6,5.7,12.6,12.6l0,0
	C347.6,429.9,341.9,435.5,335,435.5z"/>
<path class="st1" d="M184.4,396.2h-20.6c-6.9,0-12.6-5.7-12.6-12.6l0,0c0-6.9,5.7-12.6,12.6-12.6h20.6c6.9,0,12.6,5.7,12.6,12.6l0,0
	C197,390.6,191.3,396.2,184.4,396.2z"/>
</svg>
