<?xml version="1.0" encoding="utf-8"?>
<!-- Generator: Adobe Illustrator 26.0.3, SVG Export Plug-In . SVG Version: 6.00 Build 0)  -->
<svg version="1.1" xmlns="http://www.w3.org/2000/svg" xmlns:xlink="http://www.w3.org/1999/xlink" x="0px" y="0px"
	 viewBox="0 0 500 500" style="enable-background:new 0 0 500 500;" xml:space="preserve">
<style type="text/css">
	.st0{fill:#F6F6F6;}
	.st1{fill:#E6E6E6;}
</style>
<path class="st0" d="M364.1,175.2c-15.1-51.6-62.7-89.3-119.3-89.3c-67.9,0-123.1,54.4-124.4,122c-31.6,3.7-56.1,30.5-56.1,63.1
	c0,35.1,28.4,63.5,63.5,63.5h226.7c44.2,0,80-35.8,80-80C434.6,213.8,403.8,179.8,364.1,175.2z"/>
<path class="st1" d="M186.8,192.9H83.1c-6.9,0-12.6-5.7-12.6-12.6l0,0c0-6.9,5.7-12.6,12.6-12.6h103.6c6.9,0,12.6,5.7,12.6,12.6l0,0
	C199.3,187.2,193.6,192.9,186.8,192.9z"/>
<path class="st1" d="M245.8,195.2h-20.6c-6.9,0-12.6-5.7-12.6-12.6l0,0c0-6.9,5.7-12.6,12.6-12.6h20.6c6.9,0,12.6,5.7,12.6,12.6l0,0
	C258.3,189.6,252.6,195.2,245.8,195.2z"/>
<path class="st1" d="M377.2,378.5H220c-6.9,0-12.6-5.7-12.6-12.6l0,0c0-6.9,5.7-12.6,12.6-12.6h157.2c6.9,0,12.6,5.7,12.6,12.6l0,0
	C389.8,372.8,384.1,378.5,377.2,378.5z"/>
<path class="st1" d="M286,413H128.8c-6.9,0-12.6-5.7-12.6-12.6l0,0c0-6.9,5.7-12.6,12.6-12.6H286c6.9,0,12.6,5.7,12.6,12.6l0,0
	C298.6,407.3,292.9,413,286,413z"/>
<path class="st1" d="M257.7,239.1H83.1c-6.9,0-12.6-5.7-12.6-12.6l0,0c0-6.9,5.7-12.6,12.6-12.6h174.6c6.9,0,12.6,5.7,12.6,12.6l0,0
	C270.3,233.3,264.6,239.1,257.7,239.1z"/>
<path class="st1" d="M184.4,378.5h-20.6c-6.9,0-12.6-5.7-12.6-12.6l0,0c0-6.9,5.7-12.6,12.6-12.6h20.6c6.9,0,12.6,5.7,12.6,12.6l0,0
	C197,372.8,191.3,378.5,184.4,378.5z"/>
</svg>
