<?xml version="1.0" encoding="utf-8"?>
<!-- Generator: Adobe Illustrator 26.0.3, SVG Export Plug-In . SVG Version: 6.00 Build 0)  -->
<svg version="1.1" xmlns="http://www.w3.org/2000/svg" xmlns:xlink="http://www.w3.org/1999/xlink" x="0px" y="0px"
	 viewBox="0 0 500 500" style="enable-background:new 0 0 500 500;" xml:space="preserve">
<style type="text/css">
	.st0{fill-rule:evenodd;clip-rule:evenodd;fill:#CFD8DC;}
	.st1{fill:#90A4AE;}
	.st2{fill-rule:evenodd;clip-rule:evenodd;fill:#81D4FA;}
	.st3{fill-rule:evenodd;clip-rule:evenodd;fill:#29B6F6;}
</style>
<path class="st0" d="M268.9,282V94.3c0-21.8-17.8-39.6-39.6-39.6l0,0c-22.9,0-41.6,18.7-41.6,41.6V282
	c-27.2,14.5-45.6,43.1-45.6,76.1c0,47.6,38.6,86.2,86.2,86.2s86.2-38.6,86.2-86.2C314.5,325.2,296,296.5,268.9,282z"/>
<path class="st1" d="M268.6,123.9H240c-2.7,0-4.9-2.2-4.9-4.9l0,0c0-2.7,2.2-4.9,4.9-4.9h28.6V123.9z"/>
<path class="st2" d="M251.2,305.7V241h-44.1c-1.1,0-2,0.9-2,2v62.8c-20.2,8.9-34.2,29-34.2,52.4c0,31.6,25.6,57.3,57.3,57.3
	c31.6,0,57.3-25.6,57.3-57.3C285.5,334.7,271.4,314.5,251.2,305.7z"/>
<path class="st1" d="M268.6,183.6H240c-2.7,0-4.9-2.2-4.9-4.9l0,0c0-2.7,2.2-4.9,4.9-4.9h28.6V183.6z"/>
<path class="st3" d="M251.2,305.7V241h-12.8v64.7c20.2,8.9,34.2,29,34.2,52.4c0,29.5-22.2,53.7-50.9,56.9c2.1,0.2,4.2,0.4,6.4,0.4
	c31.6,0,57.3-25.6,57.3-57.3C285.5,334.7,271.4,314.5,251.2,305.7z"/>
<path class="st1" d="M268.6,143.8h-16.1c-2.7,0-4.9-2.2-4.9-4.9l0,0c0-2.7,2.2-4.9,4.9-4.9h16.1V143.8z"/>
<path class="st1" d="M268.6,163.7h-16.1c-2.7,0-4.9-2.2-4.9-4.9l0,0c0-2.7,2.2-4.9,4.9-4.9h16.1V163.7z"/>
<path class="st1" d="M268.6,203.6h-16.1c-2.7,0-4.9-2.2-4.9-4.9l0,0c0-2.7,2.2-4.9,4.9-4.9h16.1V203.6z"/>
<path class="st1" d="M268.6,223.5h-16.1c-2.7,0-4.9-2.2-4.9-4.9l0,0c0-2.7,2.2-4.9,4.9-4.9h16.1V223.5z"/>
<path class="st0" d="M347.8,123.9h-37.9c-5.1,0-9.2-4.1-9.2-9.2l0,0c0-5.1,4.1-9.2,9.2-9.2h37.9c5.1,0,9.2,4.1,9.2,9.2l0,0
	C356.9,119.8,352.8,123.9,347.8,123.9z"/>
</svg>
