<?xml version="1.0" encoding="utf-8"?>
<!-- Generator: Adobe Illustrator 26.0.3, SVG Export Plug-In . SVG Version: 6.00 Build 0)  -->
<svg version="1.1" xmlns="http://www.w3.org/2000/svg" xmlns:xlink="http://www.w3.org/1999/xlink" x="0px" y="0px"
	 viewBox="0 0 500 500" style="enable-background:new 0 0 500 500;" xml:space="preserve">
<style type="text/css">
	.st0{fill:#E3E3E3;}
	.st1{fill:#F6F6F6;}
	.st2{fill:#909090;}
	.st3{fill:none;}
</style>
<path class="st0" d="M401.5,177.1c-0.2,0-0.3,0-0.5,0c-5-54.1-50.5-96.4-105.8-96.4c-58.7,0-106.2,47.6-106.2,106.2
	c0,56.7,44.5,103.1,100.5,106.1v0.2h112c32.1,0,58.1-26,58.1-58.1S433.7,177.1,401.5,177.1z"/>
<path class="st1" d="M381.5,234.9c-17.4-59.4-72.2-102.8-137.3-102.8c-78.1,0-141.6,62.6-143.1,140.4c-36.4,4.3-64.6,35.1-64.6,72.6
	c0,40.4,32.7,73.1,73.1,73.1h260.9c50.8,0,92-41.2,92-92C462.5,279.3,427.2,240.2,381.5,234.9z"/>
<path class="st2" d="M207.3,373.5c-2.2,0-4.3-1.2-5.3-3.2l-25.5-49.1l-13.8,46.5c-0.9,3.2-4.3,5-7.4,4.1c-3.2-0.9-5-4.3-4.1-7.4
	l17.9-60.8c0.7-2.3,2.7-4,5.2-4.3c2.4-0.2,4.8,1,5.9,3.2l25.1,48.3l11.6-46.9c0.8-3.2,4-5.2,7.3-4.4c3.2,0.8,5.2,4,4.4,7.3
	l-15.4,62.4c-0.6,2.4-2.6,4.2-5.1,4.5C207.7,373.5,207.5,373.5,207.3,373.5z"/>
<path class="st2" d="M243.5,373.5c-0.6,0-1.2-0.1-1.8-0.3c-3.2-1-4.9-4.4-3.9-7.5l20.1-63.6c1-3.2,4.4-4.9,7.5-3.9
	c3.2,1,4.9,4.4,3.9,7.5l-20.1,63.6C248.4,371.9,246.1,373.5,243.5,373.5z"/>
<path class="st2" d="M341.9,373.5c-2.3,0-4.6-1.4-5.5-3.7l-21.1-50L291.7,370c-1.4,3-5,4.3-8,2.9s-4.3-5-2.9-8l29.4-62.4
	c1-2.1,3.2-3.5,5.5-3.4c2.4,0,4.5,1.5,5.4,3.7l26.4,62.4c1.3,3.1-0.1,6.6-3.2,7.9C343.5,373.4,342.7,373.5,341.9,373.5z"/>
<g>
	<line class="st3" x1="302.1" y1="342" x2="315.5" y2="342"/>
	<path class="st2" d="M315.5,348h-13.4c-3.3,0-6-2.7-6-6s2.7-6,6-6h13.4c3.3,0,6,2.7,6,6S318.8,348,315.5,348z"/>
</g>
</svg>
