<?xml version="1.0" encoding="utf-8"?>
<!-- Generator: Adobe Illustrator 26.0.3, SVG Export Plug-In . SVG Version: 6.00 Build 0)  -->
<svg version="1.1" id="图层_1" xmlns="http://www.w3.org/2000/svg" xmlns:xlink="http://www.w3.org/1999/xlink" x="0px" y="0px"
	 viewBox="0 0 500 500" style="enable-background:new 0 0 500 500;" xml:space="preserve">
<style type="text/css">
	.st0{fill:url(#SVGID_1_);}
	.st1{fill:url(#SVGID_00000048500896170398310100000000888923288527485594_);}
	.st2{fill:#E6E6E6;}
	.st3{fill:url(#SVGID_00000088102605531712833300000007084751998733203133_);}
	.st4{fill:url(#SVGID_00000078020446196301493870000013942942833681868161_);}
	.st5{fill:url(#SVGID_00000070815139010219205630000006574151750329389979_);}
</style>
<g>
	<g>
		<linearGradient id="SVGID_1_" gradientUnits="userSpaceOnUse" x1="197.1757" y1="49.8416" x2="423.3733" y2="304.2979">
			<stop  offset="0.2459" style="stop-color:#FAFAFA"/>
			<stop  offset="0.4701" style="stop-color:#D2D2D2"/>
			<stop  offset="0.6556" style="stop-color:#B9B9B9"/>
			<stop  offset="0.7664" style="stop-color:#AFAFAF"/>
		</linearGradient>
		<path class="st0" d="M391.8,162.9c-0.1,0-0.3,0-0.4,0c-4.1-44.2-41.2-78.8-86.5-78.8c-48,0-86.9,38.9-86.9,86.9
			c0,46.4,36.4,84.3,82.2,86.8v0.1h91.6c26.2,0,47.5-21.3,47.5-47.5S418.1,162.9,391.8,162.9z"/>
		
			<linearGradient id="SVGID_00000110449434668155952950000001306041338034227330_" gradientUnits="userSpaceOnUse" x1="89.8034" y1="159.6464" x2="351.9724" y2="330.4766">
			<stop  offset="0.1491" style="stop-color:#FAFAFA"/>
			<stop  offset="0.818" style="stop-color:#CBCBCB"/>
		</linearGradient>
		<path style="fill:url(#SVGID_00000110449434668155952950000001306041338034227330_);" d="M338.1,187.3
			c-14-47.8-58.1-82.7-110.5-82.7c-62.8,0-113.9,50.4-115.1,112.9c-29.2,3.4-51.9,28.3-51.9,58.5c0,32.5,26.4,58.9,58.9,58.9h209.8
			c40.9,0,74-33.1,74-74C403.4,222.9,374.9,191.6,338.1,187.3z"/>
	</g>
	<g>
		<path class="st2" d="M200.8,415.2L200.8,415.2c-4-1.8-5.8-6.4-4-10.4l23.4-53c1.8-4,6.4-5.8,10.4-4l0,0c4,1.8,5.8,6.4,4,10.4
			l-23.4,53C209.5,415.1,204.8,416.9,200.8,415.2z"/>
		
			<linearGradient id="SVGID_00000118398578343913736790000004994909398679395006_" gradientUnits="userSpaceOnUse" x1="216.6994" y1="351.5228" x2="215.9622" y2="411.4034" gradientTransform="matrix(-1 0 0 1 500.4937 0)">
			<stop  offset="0" style="stop-color:#FFFFFF"/>
			<stop  offset="9.948106e-02" style="stop-color:#FFFFFF"/>
			<stop  offset="0.8537" style="stop-color:#26B2EF"/>
		</linearGradient>
		<path style="fill:url(#SVGID_00000118398578343913736790000004994909398679395006_);" d="M264,392.6c0,11.2,9.1,20.3,20.3,20.3
			c11.2,0,20.3-9.1,20.3-20.3c0-11.2-20.3-42.7-20.3-42.7S264,381.4,264,392.6z"/>
		
			<linearGradient id="SVGID_00000100349247136565983280000000321497785893214883_" gradientUnits="userSpaceOnUse" x1="148.0976" y1="351.5228" x2="147.3604" y2="411.4034" gradientTransform="matrix(-1 0 0 1 500.4937 0)">
			<stop  offset="0" style="stop-color:#FFFFFF"/>
			<stop  offset="9.948106e-02" style="stop-color:#FFFFFF"/>
			<stop  offset="0.8537" style="stop-color:#26B2EF"/>
		</linearGradient>
		<path style="fill:url(#SVGID_00000100349247136565983280000000321497785893214883_);" d="M332.6,392.6c0,11.2,9.1,20.3,20.3,20.3
			c11.2,0,20.3-9.1,20.3-20.3c0-11.2-20.3-42.7-20.3-42.7S332.6,381.4,332.6,392.6z"/>
		
			<linearGradient id="SVGID_00000122000869303975370500000004743539649130083463_" gradientUnits="userSpaceOnUse" x1="353.903" y1="351.5228" x2="353.1658" y2="411.4034" gradientTransform="matrix(-1 0 0 1 500.4937 0)">
			<stop  offset="0" style="stop-color:#FFFFFF"/>
			<stop  offset="9.948106e-02" style="stop-color:#FFFFFF"/>
			<stop  offset="0.8537" style="stop-color:#26B2EF"/>
		</linearGradient>
		<path style="fill:url(#SVGID_00000122000869303975370500000004743539649130083463_);" d="M126.8,392.6c0,11.2,9.1,20.3,20.3,20.3
			s20.3-9.1,20.3-20.3c0-11.2-20.3-42.7-20.3-42.7S126.8,381.4,126.8,392.6z"/>
	</g>
</g>
</svg>
