<?xml version="1.0" encoding="utf-8"?>
<!-- Generator: Adobe Illustrator 26.0.3, SVG Export Plug-In . SVG Version: 6.00 Build 0)  -->
<svg version="1.1" id="图层_1" xmlns="http://www.w3.org/2000/svg" xmlns:xlink="http://www.w3.org/1999/xlink" x="0px" y="0px"
	 viewBox="0 0 500 500" style="enable-background:new 0 0 500 500;" xml:space="preserve">
<style type="text/css">
	.st0{fill:url(#SVGID_1_);}
	.st1{fill:url(#SVGID_00000016784710509451408930000018354789810852667323_);}
	.st2{fill:url(#SVGID_00000008130458372153820300000009762679255515793068_);}
	.st3{fill:url(#SVGID_00000036244382246689285670000003444881050761554318_);}
	.st4{fill:url(#SVGID_00000136373212609037675120000010940191028254955952_);}
</style>
<g>
	<g>
		<linearGradient id="SVGID_1_" gradientUnits="userSpaceOnUse" x1="194.6612" y1="29.975" x2="431.626" y2="296.5435">
			<stop  offset="0.2459" style="stop-color:#FAFAFA"/>
			<stop  offset="0.4701" style="stop-color:#D2D2D2"/>
			<stop  offset="0.6556" style="stop-color:#B9B9B9"/>
			<stop  offset="0.7664" style="stop-color:#AFAFAF"/>
		</linearGradient>
		<path class="st0" d="M398.6,148.5c-0.1,0-0.3,0-0.4,0c-4.3-46.3-43.2-82.6-90.6-82.6c-50.3,0-91,40.8-91,91
			c0,48.6,38.1,88.3,86.1,90.9v0.1h96c27.5,0,49.8-22.3,49.8-49.8S426.1,148.5,398.6,148.5z"/>
		
			<linearGradient id="SVGID_00000051373217016053140900000014625364202708217258_" gradientUnits="userSpaceOnUse" x1="82.1779" y1="145.0066" x2="356.8263" y2="323.9684">
			<stop  offset="0.1491" style="stop-color:#FAFAFA"/>
			<stop  offset="0.818" style="stop-color:#CBCBCB"/>
		</linearGradient>
		<path style="fill:url(#SVGID_00000051373217016053140900000014625364202708217258_);" d="M342.3,174
			c-14.7-50.1-60.9-86.7-115.7-86.7c-65.8,0-119.3,52.8-120.5,118.3c-30.6,3.6-54.4,29.6-54.4,61.2c0,34.1,27.6,61.7,61.7,61.7
			h219.8c42.8,0,77.6-34.7,77.6-77.6C410.7,211.2,380.8,178.5,342.3,174z"/>
	</g>
	<g>
		
			<linearGradient id="SVGID_00000034771930686464854140000008767746858017192366_" gradientUnits="userSpaceOnUse" x1="251.2181" y1="346.2911" x2="250.164" y2="431.9101" gradientTransform="matrix(-1 0 0 1 500.4937 0)">
			<stop  offset="0" style="stop-color:#FFFFFF"/>
			<stop  offset="9.948106e-02" style="stop-color:#FFFFFF"/>
			<stop  offset="0.8537" style="stop-color:#26B2EF"/>
		</linearGradient>
		<path style="fill:url(#SVGID_00000034771930686464854140000008767746858017192366_);" d="M221,405.1c0,16,13,29,29,29s29-13,29-29
			s-29-61-29-61S221,389.1,221,405.1z"/>
		
			<linearGradient id="SVGID_00000110453994225091983240000004352355028530116995_" gradientUnits="userSpaceOnUse" x1="346.0003" y1="345.6203" x2="345.2631" y2="405.5009" gradientTransform="matrix(-1 0 0 1 500.4937 0)">
			<stop  offset="0" style="stop-color:#FFFFFF"/>
			<stop  offset="9.948106e-02" style="stop-color:#FFFFFF"/>
			<stop  offset="0.8537" style="stop-color:#26B2EF"/>
		</linearGradient>
		<path style="fill:url(#SVGID_00000110453994225091983240000004352355028530116995_);" d="M134.7,386.7c0,11.2,9.1,20.3,20.3,20.3
			s20.3-9.1,20.3-20.3S155,344.1,155,344.1S134.7,375.5,134.7,386.7z"/>
		
			<linearGradient id="SVGID_00000111870572670368882230000003772513428033735089_" gradientUnits="userSpaceOnUse" x1="156.0003" y1="345.6203" x2="155.2631" y2="405.5009" gradientTransform="matrix(-1 0 0 1 500.4937 0)">
			<stop  offset="0" style="stop-color:#FFFFFF"/>
			<stop  offset="9.948106e-02" style="stop-color:#FFFFFF"/>
			<stop  offset="0.8537" style="stop-color:#26B2EF"/>
		</linearGradient>
		<path style="fill:url(#SVGID_00000111870572670368882230000003772513428033735089_);" d="M324.7,386.7c0,11.2,9.1,20.3,20.3,20.3
			s20.3-9.1,20.3-20.3S345,344.1,345,344.1S324.7,375.5,324.7,386.7z"/>
	</g>
</g>
</svg>
