<?xml version="1.0" encoding="utf-8"?>
<!-- Generator: Adobe Illustrator 26.0.3, SVG Export Plug-In . SVG Version: 6.00 Build 0)  -->
<svg version="1.1" id="图层_1" xmlns="http://www.w3.org/2000/svg" xmlns:xlink="http://www.w3.org/1999/xlink" x="0px" y="0px"
	 viewBox="0 0 500 500" style="enable-background:new 0 0 500 500;" xml:space="preserve">
<style type="text/css">
	.st0{fill:url(#SVGID_1_);}
	.st1{fill:url(#SVGID_00000140706643190954190470000006731482636382624694_);}
	.st2{fill:url(#SVGID_00000064343951218547253610000016226140785239442087_);}
	.st3{fill:url(#SVGID_00000000196863184185494220000016273606537664069790_);}
	.st4{fill:url(#SVGID_00000010288017909072497010000004462323388064537766_);}
	.st5{fill:url(#SVGID_00000066475119885521264120000012234752727783912117_);}
</style>
<g>
	<g>
		<linearGradient id="SVGID_1_" gradientUnits="userSpaceOnUse" x1="194.6612" y1="30.5218" x2="431.626" y2="297.0903">
			<stop  offset="0.2459" style="stop-color:#FAFAFA"/>
			<stop  offset="0.4701" style="stop-color:#D2D2D2"/>
			<stop  offset="0.6556" style="stop-color:#B9B9B9"/>
			<stop  offset="0.7664" style="stop-color:#AFAFAF"/>
		</linearGradient>
		<path class="st0" d="M398.6,149c-0.1,0-0.3,0-0.4,0c-4.3-46.3-43.2-82.6-90.6-82.6c-50.3,0-91,40.8-91,91
			c0,48.6,38.1,88.3,86.1,90.9v0.1h96c27.5,0,49.8-22.3,49.8-49.8S426.1,149,398.6,149z"/>
		
			<linearGradient id="SVGID_00000124857928908929489030000013270540822062769340_" gradientUnits="userSpaceOnUse" x1="82.1779" y1="145.5533" x2="356.8263" y2="324.5151">
			<stop  offset="0.1491" style="stop-color:#FAFAFA"/>
			<stop  offset="0.818" style="stop-color:#CBCBCB"/>
		</linearGradient>
		<path style="fill:url(#SVGID_00000124857928908929489030000013270540822062769340_);" d="M342.3,174.5
			c-14.7-50.1-60.9-86.7-115.7-86.7c-65.8,0-119.3,52.8-120.5,118.3c-30.6,3.6-54.4,29.6-54.4,61.2c0,34.1,27.6,61.7,61.7,61.7
			h219.8c42.8,0,77.6-34.7,77.6-77.6C410.7,211.8,380.8,179,342.3,174.5z"/>
	</g>
	<g>
		
			<linearGradient id="SVGID_00000135692759282452785140000014568676788611402397_" gradientUnits="userSpaceOnUse" x1="127.0477" y1="341.2025" x2="125.1499" y2="430.9196">
			<stop  offset="0" style="stop-color:#FFFFFF"/>
			<stop  offset="9.948106e-02" style="stop-color:#FFFFFF"/>
			<stop  offset="0.8537" style="stop-color:#26B2EF"/>
		</linearGradient>
		<polygon style="fill:url(#SVGID_00000135692759282452785140000014568676788611402397_);" points="126,343.8 105.1,388.6 
			126,433.5 147,388.6 		"/>
		
			<linearGradient id="SVGID_00000042734442504364081720000014535433017921441418_" gradientUnits="userSpaceOnUse" x1="209.685" y1="341.2025" x2="207.7871" y2="430.9196">
			<stop  offset="0" style="stop-color:#FFFFFF"/>
			<stop  offset="9.948106e-02" style="stop-color:#FFFFFF"/>
			<stop  offset="0.8537" style="stop-color:#26B2EF"/>
		</linearGradient>
		<polygon style="fill:url(#SVGID_00000042734442504364081720000014535433017921441418_);" points="208.7,343.8 187.8,388.6 
			208.7,433.5 229.6,388.6 		"/>
		
			<linearGradient id="SVGID_00000091722839967814548400000006972908194037887125_" gradientUnits="userSpaceOnUse" x1="292.3222" y1="341.2025" x2="290.4243" y2="430.9196">
			<stop  offset="0" style="stop-color:#FFFFFF"/>
			<stop  offset="9.948106e-02" style="stop-color:#FFFFFF"/>
			<stop  offset="0.8537" style="stop-color:#26B2EF"/>
		</linearGradient>
		<polygon style="fill:url(#SVGID_00000091722839967814548400000006972908194037887125_);" points="291.3,343.8 270.4,388.6 
			291.3,433.5 312.2,388.6 		"/>
		
			<linearGradient id="SVGID_00000113324497064521591290000014636256228531285124_" gradientUnits="userSpaceOnUse" x1="374.9594" y1="341.2025" x2="373.0616" y2="430.9196">
			<stop  offset="0" style="stop-color:#FFFFFF"/>
			<stop  offset="9.948106e-02" style="stop-color:#FFFFFF"/>
			<stop  offset="0.8537" style="stop-color:#26B2EF"/>
		</linearGradient>
		<polygon style="fill:url(#SVGID_00000113324497064521591290000014636256228531285124_);" points="374,343.8 353,388.6 374,433.5 
			394.9,388.6 		"/>
	</g>
</g>
</svg>
