<?xml version="1.0" encoding="utf-8"?>
<!-- Generator: Adobe Illustrator 26.0.3, SVG Export Plug-In . SVG Version: 6.00 Build 0)  -->
<svg version="1.1" id="图层_1" xmlns="http://www.w3.org/2000/svg" xmlns:xlink="http://www.w3.org/1999/xlink" x="0px" y="0px"
	 viewBox="0 0 500 500" style="enable-background:new 0 0 500 500;" xml:space="preserve">
<style type="text/css">
	.st0{fill:url(#SVGID_1_);}
	.st1{fill:url(#SVGID_00000121969437723612238240000013496726080971357359_);}
	.st2{fill:url(#SVGID_00000047048185436838821220000008618516480331815080_);}
	.st3{fill:#E6E6E6;}
	.st4{fill:url(#SVGID_00000119112131994396578960000010054489677765978273_);}
	.st5{fill:url(#SVGID_00000023968021835015817200000011131593216148848573_);}
	.st6{fill:url(#SVGID_00000010279439762472230670000007221737618677719464_);}
</style>
<g>
	<g>
		<linearGradient id="SVGID_1_" gradientUnits="userSpaceOnUse" x1="194.6612" y1="35.8456" x2="431.626" y2="302.4141">
			<stop  offset="0.2459" style="stop-color:#FAFAFA"/>
			<stop  offset="0.4701" style="stop-color:#D2D2D2"/>
			<stop  offset="0.6556" style="stop-color:#B9B9B9"/>
			<stop  offset="0.7664" style="stop-color:#AFAFAF"/>
		</linearGradient>
		<path class="st0" d="M398.6,154.3c-0.1,0-0.3,0-0.4,0c-4.3-46.3-43.2-82.6-90.6-82.6c-50.3,0-91,40.8-91,91
			c0,48.6,38.1,88.3,86.1,90.9v0.1h96c27.5,0,49.8-22.3,49.8-49.8S426.1,154.3,398.6,154.3z"/>
		
			<linearGradient id="SVGID_00000129915179741699706700000002449723412431166111_" gradientUnits="userSpaceOnUse" x1="82.1779" y1="150.8771" x2="356.8263" y2="329.8389">
			<stop  offset="0.1491" style="stop-color:#FAFAFA"/>
			<stop  offset="0.818" style="stop-color:#CBCBCB"/>
		</linearGradient>
		<path style="fill:url(#SVGID_00000129915179741699706700000002449723412431166111_);" d="M342.3,179.8
			c-14.7-50.1-60.9-86.7-115.7-86.7c-65.8,0-119.3,52.8-120.5,118.3c-30.6,3.6-54.4,29.6-54.4,61.2c0,34.1,27.6,61.7,61.7,61.7
			h219.8c42.8,0,77.6-34.7,77.6-77.6C410.7,217.1,380.8,184.4,342.3,179.8z"/>
	</g>
	<g>
		
			<linearGradient id="SVGID_00000048470015567094947630000018255670660559585449_" gradientUnits="userSpaceOnUse" x1="318.1867" y1="361.9273" x2="317.4495" y2="421.8079" gradientTransform="matrix(-1 0 0 1 500.4937 0)">
			<stop  offset="0" style="stop-color:#FFFFFF"/>
			<stop  offset="9.948106e-02" style="stop-color:#FFFFFF"/>
			<stop  offset="0.8537" style="stop-color:#26B2EF"/>
		</linearGradient>
		<path style="fill:url(#SVGID_00000048470015567094947630000018255670660559585449_);" d="M162.5,403c0,11.2,9.1,20.3,20.3,20.3
			s20.3-9.1,20.3-20.3c0-11.2-20.3-42.7-20.3-42.7S162.5,391.8,162.5,403z"/>
		<path class="st3" d="M231.9,425.6L231.9,425.6c-4-1.8-5.8-6.4-4-10.4l23.4-53c1.8-4,6.4-5.8,10.4-4h0c4,1.8,5.8,6.4,4,10.4
			l-23.4,53C240.6,425.5,235.9,427.3,231.9,425.6z"/>
		
			<linearGradient id="SVGID_00000091706115760043899930000015271897999392441012_" gradientUnits="userSpaceOnUse" x1="20.4896" y1="520.5211" x2="90.8693" y2="393.2595" gradientTransform="matrix(-0.9054 -5.866064e-02 -0.2719 -0.6488 488.1357 684.4865)">
			<stop  offset="0" style="stop-color:#FFFFFF"/>
			<stop  offset="9.948106e-02" style="stop-color:#FFFFFF"/>
			<stop  offset="0.8537" style="stop-color:#26B2EF"/>
		</linearGradient>
		<path style="fill:url(#SVGID_00000091706115760043899930000015271897999392441012_);" d="M285.7,400.8l13.4-33
			c4.1-10.2,15.7-15,25.9-10.9h0c10.2,4.1,15,15.7,10.9,25.9l-13.4,33c-4.1,10.2-15.7,15-25.9,10.9h0
			C286.5,422.6,281.6,411,285.7,400.8z"/>
		
			<linearGradient id="SVGID_00000117664832856952291990000013741771676631893643_" gradientUnits="userSpaceOnUse" x1="-52.2014" y1="527.0936" x2="18.1784" y2="399.832" gradientTransform="matrix(-0.9054 -5.866064e-02 -0.2719 -0.6488 488.1357 684.4865)">
			<stop  offset="0" style="stop-color:#FFFFFF"/>
			<stop  offset="9.948106e-02" style="stop-color:#FFFFFF"/>
			<stop  offset="0.8537" style="stop-color:#26B2EF"/>
		</linearGradient>
		<path style="fill:url(#SVGID_00000117664832856952291990000013741771676631893643_);" d="M349.8,400.8l13.4-33
			c4.1-10.2,15.7-15,25.9-10.9h0c10.2,4.1,15,15.7,10.9,25.9l-13.4,33c-4.1,10.2-15.7,15-25.9,10.9h0
			C350.5,422.6,345.6,411,349.8,400.8z"/>
		
			<linearGradient id="SVGID_00000117637218378790996460000000187590884899950245_" gradientUnits="userSpaceOnUse" x1="382.2107" y1="361.9273" x2="381.4735" y2="421.8079" gradientTransform="matrix(-1 0 0 1 500.4937 0)">
			<stop  offset="0" style="stop-color:#FFFFFF"/>
			<stop  offset="9.948106e-02" style="stop-color:#FFFFFF"/>
			<stop  offset="0.8537" style="stop-color:#26B2EF"/>
		</linearGradient>
		<path style="fill:url(#SVGID_00000117637218378790996460000000187590884899950245_);" d="M98.5,403c0,11.2,9.1,20.3,20.3,20.3
			s20.3-9.1,20.3-20.3c0-11.2-20.3-42.7-20.3-42.7S98.5,391.8,98.5,403z"/>
	</g>
</g>
</svg>
