<?xml version="1.0" encoding="utf-8"?>
<!-- Generator: Adobe Illustrator 26.0.3, SVG Export Plug-In . SVG Version: 6.00 Build 0)  -->
<svg version="1.1" id="图层_1" xmlns="http://www.w3.org/2000/svg" xmlns:xlink="http://www.w3.org/1999/xlink" x="0px" y="0px"
	 viewBox="0 0 500 500" style="enable-background:new 0 0 500 500;" xml:space="preserve">
<style type="text/css">
	.st0{fill:url(#SVGID_1_);}
	.st1{fill:url(#SVGID_00000177446081246014168900000009309602685379835068_);}
	.st2{fill:url(#SVGID_00000030487719444463677890000008361800702115695548_);}
	.st3{fill:url(#SVGID_00000051350155285107190800000005695216077092512422_);}
	.st4{fill:url(#SVGID_00000173161341018883136900000002667096386386852016_);}
	.st5{fill:url(#SVGID_00000036944918324217049180000002206756924597224099_);}
	.st6{fill:url(#SVGID_00000165233657565566130870000012868567078233195904_);}
</style>
<g>
	<g>
		<linearGradient id="SVGID_1_" gradientUnits="userSpaceOnUse" x1="194.6612" y1="18.6542" x2="431.626" y2="285.2227">
			<stop  offset="0.2459" style="stop-color:#FAFAFA"/>
			<stop  offset="0.2791" style="stop-color:#EEEEEE"/>
			<stop  offset="0.4458" style="stop-color:#B4B4B4"/>
			<stop  offset="0.5885" style="stop-color:#8A8A8A"/>
			<stop  offset="0.6999" style="stop-color:#707070"/>
			<stop  offset="0.7664" style="stop-color:#666666"/>
		</linearGradient>
		<path class="st0" d="M398.6,137.1c-0.1,0-0.3,0-0.4,0c-4.3-46.3-43.2-82.6-90.6-82.6c-50.3,0-91,40.8-91,91
			c0,48.6,38.1,88.3,86.1,90.9v0.1h96c27.5,0,49.8-22.3,49.8-49.8S426.1,137.1,398.6,137.1z"/>
		
			<linearGradient id="SVGID_00000065067453491085205890000008618901447167133628_" gradientUnits="userSpaceOnUse" x1="82.1779" y1="133.6857" x2="356.8263" y2="312.6476">
			<stop  offset="0.1491" style="stop-color:#FAFAFA"/>
			<stop  offset="1" style="stop-color:#808080"/>
		</linearGradient>
		<path style="fill:url(#SVGID_00000065067453491085205890000008618901447167133628_);" d="M342.3,162.6
			C327.7,112.6,281.4,76,226.6,76c-65.8,0-119.3,52.8-120.5,118.3c-30.6,3.6-54.4,29.6-54.4,61.2c0,34.1,27.6,61.7,61.7,61.7h219.8
			c42.8,0,77.6-34.7,77.6-77.6C410.7,199.9,380.8,167.2,342.3,162.6z"/>
	</g>
	<g>
		
			<linearGradient id="SVGID_00000004519350870577973840000008077718517822903226_" gradientUnits="userSpaceOnUse" x1="193.0746" y1="545.1024" x2="263.4544" y2="417.8408" gradientTransform="matrix(-0.9054 -5.866064e-02 -0.2719 -0.6488 488.1357 684.4865)">
			<stop  offset="0" style="stop-color:#FFFFFF"/>
			<stop  offset="9.948106e-02" style="stop-color:#FFFFFF"/>
			<stop  offset="0.8537" style="stop-color:#26B2EF"/>
		</linearGradient>
		<path style="fill:url(#SVGID_00000004519350870577973840000008077718517822903226_);" d="M122.8,374.7l13.4-33
			c4.1-10.2,15.7-15,25.9-10.9l0,0c10.2,4.1,15,15.7,10.9,25.9l-13.4,33c-4.1,10.2-15.7,15-25.9,10.9l0,0
			C123.5,396.5,118.7,384.9,122.8,374.7z"/>
		
			<linearGradient id="SVGID_00000142868734422836693230000002983735211904265869_" gradientUnits="userSpaceOnUse" x1="45.5792" y1="538.4249" x2="115.9599" y2="411.1614" gradientTransform="matrix(-0.9542 6.118175e-02 -0.1873 -0.8564 452.0618 772.9463)">
			<stop  offset="0" style="stop-color:#FFFFFF"/>
			<stop  offset="9.948106e-02" style="stop-color:#FFFFFF"/>
			<stop  offset="0.8537" style="stop-color:#26B2EF"/>
		</linearGradient>
		<path style="fill:url(#SVGID_00000142868734422836693230000002983735211904265869_);" d="M250.6,406.1l26.2-64.4
			c4.1-10.2,15.7-15,25.9-10.9l0,0c10.2,4.1,15,15.7,10.9,25.9l-26.2,64.4c-4.1,10.2-15.7,15-25.9,10.9l0,0
			C251.4,427.9,246.5,416.3,250.6,406.1z"/>
		<g>
			
				<linearGradient id="SVGID_00000006692582846397320530000005093399729213417358_" gradientUnits="userSpaceOnUse" x1="106.8502" y1="552.8986" x2="177.2299" y2="425.6369" gradientTransform="matrix(-0.9054 -5.866064e-02 -0.2719 -0.6488 488.1357 684.4865)">
				<stop  offset="0" style="stop-color:#FFFFFF"/>
				<stop  offset="9.948106e-02" style="stop-color:#FFFFFF"/>
				<stop  offset="0.8537" style="stop-color:#26B2EF"/>
			</linearGradient>
			<path style="fill:url(#SVGID_00000006692582846397320530000005093399729213417358_);" d="M198.7,374.7l13.4-33
				c4.1-10.2,15.7-15,25.9-10.9l0,0c10.2,4.1,15,15.7,10.9,25.9l-13.4,33c-4.1,10.2-15.7,15-25.9,10.9l0,0
				C199.5,396.5,194.6,384.9,198.7,374.7z"/>
			
				<linearGradient id="SVGID_00000042015248332981995450000007704755469945560471_" gradientUnits="userSpaceOnUse" x1="137.3683" y1="500.0396" x2="207.747" y2="372.7798" gradientTransform="matrix(-0.8541 -0.1845 -0.3608 -0.4309 505.6131 641.6287)">
				<stop  offset="0" style="stop-color:#FFFFFF"/>
				<stop  offset="9.948106e-02" style="stop-color:#FFFFFF"/>
				<stop  offset="0.8537" style="stop-color:#26B2EF"/>
			</linearGradient>
			<path style="fill:url(#SVGID_00000042015248332981995450000007704755469945560471_);" d="M181.1,418L181.1,418
				c4.1-10.2,15.7-15,25.9-10.9l0,0c10.2,4.1,15,15.7,10.9,25.9l0,0c-4.1,10.2-15.7,15-25.9,10.9l0,0
				C181.8,439.8,177,428.2,181.1,418z"/>
		</g>
		
			<linearGradient id="SVGID_00000065752736036134153770000015673784541292410519_" gradientUnits="userSpaceOnUse" x1="-31.0023" y1="552.7087" x2="39.3778" y2="425.4463" gradientTransform="matrix(-0.9266 -6.589472e-03 -0.2352 -0.739 471.3574 725.6301)">
			<stop  offset="0" style="stop-color:#FFFFFF"/>
			<stop  offset="9.948106e-02" style="stop-color:#FFFFFF"/>
			<stop  offset="0.8537" style="stop-color:#26B2EF"/>
		</linearGradient>
		<path style="fill:url(#SVGID_00000065752736036134153770000015673784541292410519_);" d="M321.4,388.4l19-46.6
			c4.1-10.2,15.7-15,25.9-10.9l0,0c10.2,4.1,15,15.7,10.9,25.9l-19,46.6c-4.1,10.2-15.7,15-25.9,10.9l0,0
			C322.1,410.1,317.2,398.6,321.4,388.4z"/>
	</g>
</g>
</svg>
