<?xml version="1.0" encoding="utf-8"?>
<!-- Generator: Adobe Illustrator 26.0.3, SVG Export Plug-In . SVG Version: 6.00 Build 0)  -->
<svg version="1.1" id="图层_1" xmlns="http://www.w3.org/2000/svg" xmlns:xlink="http://www.w3.org/1999/xlink" x="0px" y="0px"
	 viewBox="0 0 500 500" style="enable-background:new 0 0 500 500;" xml:space="preserve">
<style type="text/css">
	.st0{fill:url(#SVGID_1_);}
	.st1{fill:url(#SVGID_00000061444039476083019160000009455795069258713475_);}
	.st2{fill:url(#SVGID_00000039132676875827114150000005512099947613196457_);}
	.st3{fill:url(#SVGID_00000106850398663130829750000000046208946191303316_);}
	.st4{fill:url(#SVGID_00000031188431180601803800000000417308801134565804_);}
	.st5{fill:url(#SVGID_00000013884412823284282090000013928638641458266269_);}
	.st6{fill:url(#SVGID_00000101803794217713083580000014134636563115579574_);}
	.st7{fill:url(#SVGID_00000138568393833998553560000007918571663438961320_);}
	.st8{fill:url(#SVGID_00000013189002545539877360000007065260783101121429_);}
	.st9{fill:url(#SVGID_00000127036215887929894640000017516098047088891035_);}
</style>
<g>
	<g>
		<linearGradient id="SVGID_1_" gradientUnits="userSpaceOnUse" x1="194.6612" y1="4.7542" x2="431.626" y2="271.3228">
			<stop  offset="0.2459" style="stop-color:#FAFAFA"/>
			<stop  offset="0.2791" style="stop-color:#EEEEEE"/>
			<stop  offset="0.4458" style="stop-color:#B4B4B4"/>
			<stop  offset="0.5885" style="stop-color:#8A8A8A"/>
			<stop  offset="0.6999" style="stop-color:#707070"/>
			<stop  offset="0.7664" style="stop-color:#666666"/>
		</linearGradient>
		<path class="st0" d="M398.6,123.2c-0.1,0-0.3,0-0.4,0C393.9,77,355,40.7,307.6,40.7c-50.3,0-91,40.8-91,91
			c0,48.6,38.1,88.3,86.1,90.9v0.1h96c27.5,0,49.8-22.3,49.8-49.8S426.1,123.2,398.6,123.2z"/>
		
			<linearGradient id="SVGID_00000011028493297377420780000002661228719749016213_" gradientUnits="userSpaceOnUse" x1="82.1779" y1="119.7858" x2="356.8263" y2="298.7476">
			<stop  offset="0.1491" style="stop-color:#FAFAFA"/>
			<stop  offset="1" style="stop-color:#808080"/>
		</linearGradient>
		<path style="fill:url(#SVGID_00000011028493297377420780000002661228719749016213_);" d="M342.3,148.7
			c-14.7-50.1-60.9-86.7-115.7-86.7c-65.8,0-119.3,52.8-120.5,118.3C75.4,184,51.6,210,51.6,241.6c0,34.1,27.6,61.7,61.7,61.7h219.8
			c42.8,0,77.6-34.7,77.6-77.6C410.7,186,380.8,153.3,342.3,148.7z"/>
	</g>
	<g>
		
			<linearGradient id="SVGID_00000007429134202913723940000015034318822902993044_" gradientUnits="userSpaceOnUse" x1="-97.8296" y1="556.6603" x2="-17.0443" y2="410.5833" gradientTransform="matrix(-0.8605 0.415 -0.4968 -0.7187 445.5505 738.8374)">
			<stop  offset="0" style="stop-color:#FFFFFF"/>
			<stop  offset="9.948106e-02" style="stop-color:#FFFFFF"/>
			<stop  offset="0.8537" style="stop-color:#26B2EF"/>
		</linearGradient>
		<path style="fill:url(#SVGID_00000007429134202913723940000015034318822902993044_);" d="M235.1,422.4l0-85
			c0-11,8.9-19.9,19.9-19.9h0c11,0,19.9,8.9,19.9,19.9l0,85c0,11-8.9,19.9-19.9,19.9h0C244,442.2,235.1,433.3,235.1,422.4z"/>
		
			<linearGradient id="SVGID_00000018231833696963750360000004210965015180859055_" gradientUnits="userSpaceOnUse" x1="-32.1584" y1="586.2082" x2="23.4472" y2="485.6615" gradientTransform="matrix(-0.8605 0.415 -0.4968 -0.7187 445.5505 738.8374)">
			<stop  offset="0" style="stop-color:#FFFFFF"/>
			<stop  offset="9.948106e-02" style="stop-color:#FFFFFF"/>
			<stop  offset="0.8537" style="stop-color:#26B2EF"/>
		</linearGradient>
		<path style="fill:url(#SVGID_00000018231833696963750360000004210965015180859055_);" d="M163.4,383.5l0-46.1
			c0-11,8.9-19.9,19.9-19.9h0c11,0,19.9,8.9,19.9,19.9l0,46.1c0,11-8.9,19.9-19.9,19.9h0C172.3,403.3,163.4,394.5,163.4,383.5z"/>
		
			<linearGradient id="SVGID_00000026143373374571802520000012178543658126032782_" gradientUnits="userSpaceOnUse" x1="26.9952" y1="482.5047" x2="54.8532" y2="432.1316" gradientTransform="matrix(-0.8605 0.415 -0.4968 -0.7187 445.5505 738.8374)">
			<stop  offset="0" style="stop-color:#FFFFFF"/>
			<stop  offset="9.948106e-02" style="stop-color:#FFFFFF"/>
			<stop  offset="0.8537" style="stop-color:#26B2EF"/>
		</linearGradient>
		<path style="fill:url(#SVGID_00000026143373374571802520000012178543658126032782_);" d="M163.4,433.1v-3.3
			c0-11,8.9-19.9,19.9-19.9h0c11,0,19.9,8.9,19.9,19.9v3.3c0,11-8.9,19.9-19.9,19.9h0C172.3,452.9,163.4,444,163.4,433.1z"/>
		
			<linearGradient id="SVGID_00000110430823177547202680000014530625205116978306_" gradientUnits="userSpaceOnUse" x1="-157.2339" y1="513.9959" x2="-101.6284" y2="413.4492" gradientTransform="matrix(-0.8605 0.415 -0.4968 -0.7187 445.5505 738.8374)">
			<stop  offset="0" style="stop-color:#FFFFFF"/>
			<stop  offset="9.948106e-02" style="stop-color:#FFFFFF"/>
			<stop  offset="0.8537" style="stop-color:#26B2EF"/>
		</linearGradient>
		<path style="fill:url(#SVGID_00000110430823177547202680000014530625205116978306_);" d="M306.9,383.5l0-46.1
			c0-11,8.9-19.9,19.9-19.9h0c11,0,19.9,8.9,19.9,19.9l0,46.1c0,11-8.9,19.9-19.9,19.9h0C315.8,403.3,306.9,394.5,306.9,383.5z"/>
		
			<linearGradient id="SVGID_00000162323300559995293430000008881679083553808045_" gradientUnits="userSpaceOnUse" x1="97.1736" y1="328.6985" x2="96.3193" y2="398.0932">
			<stop  offset="0" style="stop-color:#FFFFFF"/>
			<stop  offset="9.948106e-02" style="stop-color:#FFFFFF"/>
			<stop  offset="0.8537" style="stop-color:#26B2EF"/>
		</linearGradient>
		<path style="fill:url(#SVGID_00000162323300559995293430000008881679083553808045_);" d="M120.1,376.4c0,13-10.5,23.5-23.5,23.5
			s-23.5-10.5-23.5-23.5s23.5-49.5,23.5-49.5S120.1,363.4,120.1,376.4z"/>
		
			<linearGradient id="SVGID_00000114068293841668494840000006491539138341668793_" gradientUnits="userSpaceOnUse" x1="404.0006" y1="328.6985" x2="403.1463" y2="398.0932">
			<stop  offset="0" style="stop-color:#FFFFFF"/>
			<stop  offset="9.948106e-02" style="stop-color:#FFFFFF"/>
			<stop  offset="0.8537" style="stop-color:#26B2EF"/>
		</linearGradient>
		<path style="fill:url(#SVGID_00000114068293841668494840000006491539138341668793_);" d="M426.9,376.4c0,13-10.5,23.5-23.5,23.5
			s-23.5-10.5-23.5-23.5s23.5-49.5,23.5-49.5S426.9,363.4,426.9,376.4z"/>
		
			<linearGradient id="SVGID_00000107548018522519647270000007639892197543662225_" gradientUnits="userSpaceOnUse" x1="380.2637" y1="417.6164" x2="379.7633" y2="458.2654">
			<stop  offset="0" style="stop-color:#FFFFFF"/>
			<stop  offset="9.948106e-02" style="stop-color:#FFFFFF"/>
			<stop  offset="0.8537" style="stop-color:#26B2EF"/>
		</linearGradient>
		<path style="fill:url(#SVGID_00000107548018522519647270000007639892197543662225_);" d="M393.7,445.5c0,7.6-6.2,13.8-13.8,13.8
			c-7.6,0-13.8-6.2-13.8-13.8s13.8-29,13.8-29S393.7,437.9,393.7,445.5z"/>
		
			<linearGradient id="SVGID_00000109730634692631563510000015199198784244107697_" gradientUnits="userSpaceOnUse" x1="120.4241" y1="417.6164" x2="119.9237" y2="458.2654">
			<stop  offset="0" style="stop-color:#FFFFFF"/>
			<stop  offset="9.948106e-02" style="stop-color:#FFFFFF"/>
			<stop  offset="0.8537" style="stop-color:#26B2EF"/>
		</linearGradient>
		<path style="fill:url(#SVGID_00000109730634692631563510000015199198784244107697_);" d="M133.8,445.5c0,7.6-6.2,13.8-13.8,13.8
			c-7.6,0-13.8-6.2-13.8-13.8s13.8-29,13.8-29S133.8,437.9,133.8,445.5z"/>
	</g>
</g>
</svg>
