<?xml version="1.0" encoding="utf-8"?>
<!-- Generator: Adobe Illustrator 26.0.3, SVG Export Plug-In . SVG Version: 6.00 Build 0)  -->
<svg version="1.1" id="图层_1" xmlns="http://www.w3.org/2000/svg" xmlns:xlink="http://www.w3.org/1999/xlink" x="0px" y="0px"
	 viewBox="0 0 500 500" style="enable-background:new 0 0 500 500;" xml:space="preserve">
<style type="text/css">
	.st0{fill:url(#SVGID_1_);}
	.st1{fill:url(#SVGID_00000015314941090743157170000012718732111699074440_);}
	.st2{fill:url(#SVGID_00000080929466301601848580000015491704358953192123_);}
	.st3{fill:url(#SVGID_00000021116680424930270240000011400205174509452427_);}
	.st4{fill:url(#SVGID_00000036974143853671815530000005042997997971245244_);}
	.st5{fill:url(#SVGID_00000119803861866983553740000010796791756025927856_);}
	.st6{fill:url(#SVGID_00000039834988446878716070000015119956166334622866_);}
</style>
<g>
	<g>
		<linearGradient id="SVGID_1_" gradientUnits="userSpaceOnUse" x1="194.9883" y1="10.7871" x2="431.953" y2="277.3556">
			<stop  offset="0.2459" style="stop-color:#FAFAFA"/>
			<stop  offset="0.4701" style="stop-color:#D2D2D2"/>
			<stop  offset="0.6556" style="stop-color:#B9B9B9"/>
			<stop  offset="0.7664" style="stop-color:#AFAFAF"/>
		</linearGradient>
		<path class="st0" d="M398.9,129.3c-0.1,0-0.3,0-0.4,0c-4.3-46.3-43.2-82.6-90.6-82.6c-50.3,0-91,40.8-91,91
			c0,48.6,38.1,88.3,86.1,90.9v0.1h96c27.5,0,49.8-22.3,49.8-49.8S426.4,129.3,398.9,129.3z"/>
		
			<linearGradient id="SVGID_00000038380678313673476290000013069914459393333651_" gradientUnits="userSpaceOnUse" x1="82.505" y1="125.8186" x2="357.1534" y2="304.7805">
			<stop  offset="0.1491" style="stop-color:#FAFAFA"/>
			<stop  offset="0.818" style="stop-color:#CBCBCB"/>
		</linearGradient>
		<path style="fill:url(#SVGID_00000038380678313673476290000013069914459393333651_);" d="M342.6,154.8
			c-14.7-50.1-60.9-86.7-115.7-86.7c-65.8,0-119.3,52.8-120.5,118.3C75.7,190,52,216,52,247.6c0,34.1,27.6,61.7,61.7,61.7h219.8
			c42.8,0,77.6-34.7,77.6-77.6C411,192,381.2,159.3,342.6,154.8z"/>
	</g>
</g>
<g>
	
		<linearGradient id="SVGID_00000183956921962650922360000004742820895170724238_" gradientUnits="userSpaceOnUse" x1="161.6712" y1="348.3666" x2="160.722" y2="425.4714">
		<stop  offset="0" style="stop-color:#FFFFFF"/>
		<stop  offset="9.948106e-02" style="stop-color:#FFFFFF"/>
		<stop  offset="0.8537" style="stop-color:#26B2EF"/>
	</linearGradient>
	<path style="fill:url(#SVGID_00000183956921962650922360000004742820895170724238_);" d="M187.1,401.3c0,14.4-11.7,26.1-26.1,26.1
		c-14.4,0-26.1-11.7-26.1-26.1s26.1-55,26.1-55S187.1,386.9,187.1,401.3z"/>
	
		<linearGradient id="SVGID_00000115481341896533957480000013665694316973305750_" gradientUnits="userSpaceOnUse" x1="239.3442" y1="374.1527" x2="238.395" y2="451.2576">
		<stop  offset="0" style="stop-color:#FFFFFF"/>
		<stop  offset="9.948106e-02" style="stop-color:#FFFFFF"/>
		<stop  offset="0.8537" style="stop-color:#26B2EF"/>
	</linearGradient>
	<path style="fill:url(#SVGID_00000115481341896533957480000013665694316973305750_);" d="M264.8,427.1c0,14.4-11.7,26.1-26.1,26.1
		s-26.1-11.7-26.1-26.1s26.1-55,26.1-55S264.8,412.7,264.8,427.1z"/>
	
		<linearGradient id="SVGID_00000034061330723300584600000004264506109823957652_" gradientUnits="userSpaceOnUse" x1="317.0172" y1="348.3666" x2="316.0679" y2="425.4714">
		<stop  offset="0" style="stop-color:#FFFFFF"/>
		<stop  offset="9.948106e-02" style="stop-color:#FFFFFF"/>
		<stop  offset="0.8537" style="stop-color:#26B2EF"/>
	</linearGradient>
	<path style="fill:url(#SVGID_00000034061330723300584600000004264506109823957652_);" d="M342.5,401.3c0,14.4-11.7,26.1-26.1,26.1
		s-26.1-11.7-26.1-26.1s26.1-55,26.1-55S342.5,386.9,342.5,401.3z"/>
	
		<linearGradient id="SVGID_00000088833761420888025380000000047234461762851218_" gradientUnits="userSpaceOnUse" x1="394.6901" y1="322.8949" x2="393.7409" y2="399.9997">
		<stop  offset="0" style="stop-color:#FFFFFF"/>
		<stop  offset="9.948106e-02" style="stop-color:#FFFFFF"/>
		<stop  offset="0.8537" style="stop-color:#26B2EF"/>
	</linearGradient>
	<path style="fill:url(#SVGID_00000088833761420888025380000000047234461762851218_);" d="M420.1,375.8c0,14.4-11.7,26.1-26.1,26.1
		c-14.4,0-26.1-11.7-26.1-26.1s26.1-55,26.1-55S420.1,361.4,420.1,375.8z"/>
	
		<linearGradient id="SVGID_00000065072787317730284340000014986984166265659046_" gradientUnits="userSpaceOnUse" x1="83.9983" y1="322.8949" x2="83.049" y2="399.9997">
		<stop  offset="0" style="stop-color:#FFFFFF"/>
		<stop  offset="9.948106e-02" style="stop-color:#FFFFFF"/>
		<stop  offset="0.8537" style="stop-color:#26B2EF"/>
	</linearGradient>
	<path style="fill:url(#SVGID_00000065072787317730284340000014986984166265659046_);" d="M109.4,375.8c0,14.4-11.7,26.1-26.1,26.1
		s-26.1-11.7-26.1-26.1s26.1-55,26.1-55S109.4,361.4,109.4,375.8z"/>
</g>
</svg>
