<?xml version="1.0" encoding="utf-8"?>
<!-- Generator: Adobe Illustrator 26.0.3, SVG Export Plug-In . SVG Version: 6.00 Build 0)  -->
<svg version="1.1" id="图层_1" xmlns="http://www.w3.org/2000/svg" xmlns:xlink="http://www.w3.org/1999/xlink" x="0px" y="0px"
	 viewBox="0 0 500 500" style="enable-background:new 0 0 500 500;" xml:space="preserve">
<style type="text/css">
	.st0{fill:url(#SVGID_1_);}
	.st1{fill:url(#SVGID_00000053533292899137884620000003098826645468000171_);}
	.st2{fill:url(#SVGID_00000012468374680793088820000006325987754612622210_);}
	.st3{fill:url(#SVGID_00000002350694878416376640000001567869722573487262_);}
	.st4{fill:#E6E6E6;}
</style>
<g>
	<g>
		<linearGradient id="SVGID_1_" gradientUnits="userSpaceOnUse" x1="194.6612" y1="33.6741" x2="431.626" y2="300.2426">
			<stop  offset="0.2459" style="stop-color:#FAFAFA"/>
			<stop  offset="0.4701" style="stop-color:#D2D2D2"/>
			<stop  offset="0.6556" style="stop-color:#B9B9B9"/>
			<stop  offset="0.7664" style="stop-color:#AFAFAF"/>
		</linearGradient>
		<path class="st0" d="M398.6,152.2c-0.1,0-0.3,0-0.4,0c-4.3-46.3-43.2-82.6-90.6-82.6c-50.3,0-91,40.8-91,91
			c0,48.6,38.1,88.3,86.1,90.9v0.1h96c27.5,0,49.8-22.3,49.8-49.8S426.1,152.2,398.6,152.2z"/>
		
			<linearGradient id="SVGID_00000155846878708703495560000005374068366999255689_" gradientUnits="userSpaceOnUse" x1="82.1779" y1="148.7057" x2="356.8263" y2="327.6675">
			<stop  offset="0.1491" style="stop-color:#FAFAFA"/>
			<stop  offset="0.818" style="stop-color:#CBCBCB"/>
		</linearGradient>
		<path style="fill:url(#SVGID_00000155846878708703495560000005374068366999255689_);" d="M342.3,177.7
			C327.7,127.6,281.4,91,226.6,91c-65.8,0-119.3,52.8-120.5,118.3c-30.6,3.6-54.4,29.6-54.4,61.2c0,34.1,27.6,61.7,61.7,61.7h219.8
			c42.8,0,77.6-34.7,77.6-77.6C410.7,214.9,380.8,182.2,342.3,177.7z"/>
	</g>
	<g>
		
			<linearGradient id="SVGID_00000168833238342341145490000002970078810139604864_" gradientUnits="userSpaceOnUse" x1="157.9458" y1="342.592" x2="156.8918" y2="428.211" gradientTransform="matrix(-1 0 0 1 500.4937 0)">
			<stop  offset="0" style="stop-color:#FFFFFF"/>
			<stop  offset="9.948106e-02" style="stop-color:#FFFFFF"/>
			<stop  offset="0.8537" style="stop-color:#26B2EF"/>
		</linearGradient>
		<path style="fill:url(#SVGID_00000168833238342341145490000002970078810139604864_);" d="M314.3,401.4c0,16,13,29,29,29
			s29-13,29-29s-29-61-29-61S314.3,385.4,314.3,401.4z"/>
		
			<linearGradient id="SVGID_00000116917137781821314890000008058896350702009996_" gradientUnits="userSpaceOnUse" x1="352.9863" y1="355.4505" x2="352.2491" y2="415.3311" gradientTransform="matrix(-1 0 0 1 500.4937 0)">
			<stop  offset="0" style="stop-color:#FFFFFF"/>
			<stop  offset="9.948106e-02" style="stop-color:#FFFFFF"/>
			<stop  offset="0.8537" style="stop-color:#26B2EF"/>
		</linearGradient>
		<path style="fill:url(#SVGID_00000116917137781821314890000008058896350702009996_);" d="M127.7,396.6c0,11.2,9.1,20.3,20.3,20.3
			s20.3-9.1,20.3-20.3S148,353.9,148,353.9S127.7,385.4,127.7,396.6z"/>
		<path class="st4" d="M229.9,419.1L229.9,419.1c-4-1.8-5.8-6.4-4-10.4l23.4-53c1.8-4,6.4-5.8,10.4-4v0c4,1.8,5.8,6.4,4,10.4
			l-23.4,53C238.5,419,233.9,420.9,229.9,419.1z"/>
	</g>
</g>
</svg>
