<?xml version="1.0" encoding="utf-8"?>
<!-- Generator: Adobe Illustrator 26.0.3, SVG Export Plug-In . SVG Version: 6.00 Build 0)  -->
<svg version="1.1" id="图层_1" xmlns="http://www.w3.org/2000/svg" xmlns:xlink="http://www.w3.org/1999/xlink" x="0px" y="0px"
	 viewBox="0 0 500 500" style="enable-background:new 0 0 500 500;" xml:space="preserve">
<style type="text/css">
	.st0{fill:url(#SVGID_1_);}
	.st1{fill:url(#SVGID_00000042718787425515916540000002466076671492710062_);}
	.st2{fill:url(#SVGID_00000040549092101885435720000008088749256257645483_);}
</style>
<g>
	<g>
		<linearGradient id="SVGID_1_" gradientUnits="userSpaceOnUse" x1="101.0046" y1="141.53" x2="375.653" y2="320.4919">
			<stop  offset="0.1491" style="stop-color:#FAFAFA"/>
			<stop  offset="0.818" style="stop-color:#CBCBCB"/>
		</linearGradient>
		<path class="st0" d="M361.1,170.5c-14.7-50.1-60.9-86.7-115.7-86.7c-65.8,0-119.3,52.8-120.5,118.3c-30.6,3.6-54.4,29.6-54.4,61.2
			c0,34.1,27.6,61.7,61.7,61.7H352c42.8,0,77.6-34.7,77.6-77.6C429.5,207.8,399.7,175,361.1,170.5z"/>
	</g>
	<g>
		
			<linearGradient id="SVGID_00000111170707754185711790000015386416507271576705_" gradientUnits="userSpaceOnUse" x1="179.0871" y1="345.0288" x2="178.2328" y2="414.4235">
			<stop  offset="0" style="stop-color:#FFFFFF"/>
			<stop  offset="9.948106e-02" style="stop-color:#FFFFFF"/>
			<stop  offset="0.8537" style="stop-color:#26B2EF"/>
		</linearGradient>
		<path style="fill:url(#SVGID_00000111170707754185711790000015386416507271576705_);" d="M202,392.7c0,13-10.5,23.5-23.5,23.5
			S155,405.7,155,392.7s23.5-49.5,23.5-49.5S202,379.7,202,392.7z"/>
		
			<linearGradient id="SVGID_00000168801545876666502600000013164408651125303482_" gradientUnits="userSpaceOnUse" x1="322.0871" y1="345.0288" x2="321.2328" y2="414.4235">
			<stop  offset="0" style="stop-color:#FFFFFF"/>
			<stop  offset="9.948106e-02" style="stop-color:#FFFFFF"/>
			<stop  offset="0.8537" style="stop-color:#26B2EF"/>
		</linearGradient>
		<path style="fill:url(#SVGID_00000168801545876666502600000013164408651125303482_);" d="M345,392.7c0,13-10.5,23.5-23.5,23.5
			S298,405.7,298,392.7s23.5-49.5,23.5-49.5S345,379.7,345,392.7z"/>
	</g>
</g>
</svg>
