<?xml version="1.0" encoding="utf-8"?>
<!-- Generator: Adobe Illustrator 26.0.3, SVG Export Plug-In . SVG Version: 6.00 Build 0)  -->
<svg version="1.1" id="图层_1" xmlns="http://www.w3.org/2000/svg" xmlns:xlink="http://www.w3.org/1999/xlink" x="0px" y="0px"
	 viewBox="0 0 500 500" style="enable-background:new 0 0 500 500;" xml:space="preserve">
<style type="text/css">
	.st0{fill:url(#SVGID_1_);}
	.st1{fill:url(#SVGID_00000148638238267265931140000008801407545196240558_);}
	.st2{fill:#FFD000;}
	.st3{fill:url(#SVGID_00000170970746706518711060000001691599828177221789_);}
	.st4{fill:url(#SVGID_00000083799503830291347040000010937277803761274542_);}
	.st5{fill:url(#SVGID_00000153697067978385607240000003909005442104262056_);}
	.st6{fill:url(#SVGID_00000127043629841307998890000002593710506451646865_);}
	.st7{fill:url(#SVGID_00000055691544970429387000000011406803735995420565_);}
	.st8{fill:url(#SVGID_00000101785809349123909610000002007679662673959052_);}
</style>
<g>
	
		<linearGradient id="SVGID_1_" gradientUnits="userSpaceOnUse" x1="128.5211" y1="412.8696" x2="198.6914" y2="342.6992" gradientTransform="matrix(1 0 0 -1 0 502)">
		<stop  offset="0" style="stop-color:#F9C30B"/>
		<stop  offset="1" style="stop-color:#FF8800"/>
	</linearGradient>
	<polygon class="st0" points="96,126.8 161,56.6 231.2,121.6 166.2,191.8 	"/>
	
		<linearGradient id="SVGID_00000004534758283627327620000005730790891002136251_" gradientUnits="userSpaceOnUse" x1="131.9516" y1="409.4389" x2="202.9632" y2="338.4276" gradientTransform="matrix(1 0 0 -1 0 502)">
		<stop  offset="0" style="stop-color:#F9C30B"/>
		<stop  offset="1" style="stop-color:#FF8800"/>
	</linearGradient>
	
		<rect x="115.8" y="76.4" style="fill:url(#SVGID_00000004534758283627327620000005730790891002136251_);" width="95.6" height="95.6"/>
	
		<ellipse transform="matrix(8.248051e-02 -0.9966 0.9966 8.248051e-02 26.3195 277.0191)" class="st2" cx="163.6" cy="124.2" rx="47.9" ry="47.9"/>
	<g>
		
			<linearGradient id="SVGID_00000028286220399928244360000014200217547635901628_" gradientUnits="userSpaceOnUse" x1="194.6612" y1="30.2069" x2="431.626" y2="296.7754">
			<stop  offset="0.2459" style="stop-color:#FAFAFA"/>
			<stop  offset="0.4701" style="stop-color:#D2D2D2"/>
			<stop  offset="0.6556" style="stop-color:#B9B9B9"/>
			<stop  offset="0.7664" style="stop-color:#AFAFAF"/>
		</linearGradient>
		<path style="fill:url(#SVGID_00000028286220399928244360000014200217547635901628_);" d="M398.6,148.7c-0.1,0-0.3,0-0.4,0
			c-4.3-46.3-43.2-82.6-90.6-82.6c-50.3,0-91,40.8-91,91c0,48.6,38.1,88.3,86.1,90.9v0.1h96c27.5,0,49.8-22.3,49.8-49.8
			S426.1,148.7,398.6,148.7z"/>
		
			<linearGradient id="SVGID_00000080899054068555428370000003784828935911759524_" gradientUnits="userSpaceOnUse" x1="82.1779" y1="145.2384" x2="356.8263" y2="324.2003">
			<stop  offset="0.1491" style="stop-color:#FAFAFA"/>
			<stop  offset="0.818" style="stop-color:#CBCBCB"/>
		</linearGradient>
		<path style="fill:url(#SVGID_00000080899054068555428370000003784828935911759524_);" d="M342.3,174.2
			c-14.7-50.1-60.9-86.7-115.7-86.7c-65.8,0-119.3,52.8-120.5,118.3c-30.6,3.6-54.4,29.6-54.4,61.2c0,34.1,27.6,61.7,61.7,61.7
			h219.8c42.8,0,77.6-34.7,77.6-77.6C410.7,211.5,380.8,178.7,342.3,174.2z"/>
	</g>
	<g>
		
			<linearGradient id="SVGID_00000165236269814039976970000009291034913633957787_" gradientUnits="userSpaceOnUse" x1="68.8691" y1="540.4293" x2="139.2488" y2="413.1677" gradientTransform="matrix(-0.9054 -5.866064e-02 -0.2719 -0.6488 345.1177 684.4865)">
			<stop  offset="0" style="stop-color:#FFFFFF"/>
			<stop  offset="9.948106e-02" style="stop-color:#FFFFFF"/>
			<stop  offset="0.8537" style="stop-color:#26B2EF"/>
		</linearGradient>
		<path style="fill:url(#SVGID_00000165236269814039976970000009291034913633957787_);" d="M93.5,385.1l13.4-33
			c4.1-10.2,15.7-15,25.9-10.9l0,0c10.2,4.1,15,15.7,10.9,25.9l-13.4,33c-4.1,10.2-15.7,15-25.9,10.9l0,0
			C94.2,406.8,89.4,395.2,93.5,385.1z"/>
		
			<linearGradient id="SVGID_00000139293075729415893880000010867050367651118486_" gradientUnits="userSpaceOnUse" x1="-112.974" y1="554.5852" x2="-42.5933" y2="427.3218" gradientTransform="matrix(-0.9535 5.930829e-02 -0.1886 -0.8531 296.0262 804.8682)">
			<stop  offset="0" style="stop-color:#FFFFFF"/>
			<stop  offset="9.948106e-02" style="stop-color:#FFFFFF"/>
			<stop  offset="0.8537" style="stop-color:#26B2EF"/>
		</linearGradient>
		<path style="fill:url(#SVGID_00000139293075729415893880000010867050367651118486_);" d="M242.3,416l26-63.9
			c4.1-10.2,15.7-15,25.9-10.9l0,0c10.2,4.1,15,15.7,10.9,25.9l-26,63.9c-4.1,10.2-15.7,15-25.9,10.9h0
			C243,437.7,238.1,426.1,242.3,416z"/>
		
			<linearGradient id="SVGID_00000110429512152597624640000015213339970812690591_" gradientUnits="userSpaceOnUse" x1="-32.7498" y1="560.1624" x2="37.6309" y2="432.899" gradientTransform="matrix(-0.9535 5.930829e-02 -0.1886 -0.8531 296.0262 804.8682)">
			<stop  offset="0" style="stop-color:#FFFFFF"/>
			<stop  offset="9.948106e-02" style="stop-color:#FFFFFF"/>
			<stop  offset="0.8537" style="stop-color:#26B2EF"/>
		</linearGradient>
		<path style="fill:url(#SVGID_00000110429512152597624640000015213339970812690591_);" d="M164.7,416l26-63.9
			c4.1-10.2,15.7-15,25.9-10.9l0,0c10.2,4.1,15,15.7,10.9,25.9l-26,63.9c-4.1,10.2-15.7,15-25.9,10.9h0
			C165.5,437.7,160.6,426.1,164.7,416z"/>
		
			<linearGradient id="SVGID_00000144310247346195801690000001433552305300290212_" gradientUnits="userSpaceOnUse" x1="-195.2514" y1="564.3104" x2="-124.8717" y2="437.0487" gradientTransform="matrix(-0.9054 -5.866064e-02 -0.2719 -0.6488 345.1177 684.4865)">
			<stop  offset="0" style="stop-color:#FFFFFF"/>
			<stop  offset="9.948106e-02" style="stop-color:#FFFFFF"/>
			<stop  offset="0.8537" style="stop-color:#26B2EF"/>
		</linearGradient>
		<path style="fill:url(#SVGID_00000144310247346195801690000001433552305300290212_);" d="M326.1,385.1l13.4-33
			c4.1-10.2,15.7-15,25.9-10.9l0,0c10.2,4.1,15,15.7,10.9,25.9l-13.4,33c-4.1,10.2-15.7,15-25.9,10.9l0,0
			C326.9,406.8,322,395.2,326.1,385.1z"/>
	</g>
</g>
</svg>
