<?xml version="1.0" encoding="utf-8"?>
<!-- Generator: Adobe Illustrator 26.0.3, SVG Export Plug-In . SVG Version: 6.00 Build 0)  -->
<svg version="1.1" id="图层_1" xmlns="http://www.w3.org/2000/svg" xmlns:xlink="http://www.w3.org/1999/xlink" x="0px" y="0px"
	 viewBox="0 0 500 500" style="enable-background:new 0 0 500 500;" xml:space="preserve">
<style type="text/css">
	.st0{fill:url(#SVGID_1_);}
	.st1{fill:url(#SVGID_00000142878659380519721250000013459567819585736597_);}
	.st2{fill-rule:evenodd;clip-rule:evenodd;fill:url(#SVGID_00000052804430133256086840000007283260539443353226_);}
	.st3{fill:url(#SVGID_00000127021208249845671680000002675372427865606314_);}
	.st4{fill:url(#SVGID_00000059311445979333104480000010945203544215023514_);}
	.st5{fill:url(#SVGID_00000181056327458218092210000010465885322968116644_);}
	.st6{fill:url(#SVGID_00000143610683299299917790000008109994347993375158_);}
</style>
<g>
	<g>
		<linearGradient id="SVGID_1_" gradientUnits="userSpaceOnUse" x1="203.0069" y1="23.0594" x2="439.9716" y2="289.6279">
			<stop  offset="0.2459" style="stop-color:#FAFAFA"/>
			<stop  offset="0.2791" style="stop-color:#EEEEEE"/>
			<stop  offset="0.4458" style="stop-color:#B4B4B4"/>
			<stop  offset="0.5885" style="stop-color:#8A8A8A"/>
			<stop  offset="0.6999" style="stop-color:#707070"/>
			<stop  offset="0.7664" style="stop-color:#666666"/>
		</linearGradient>
		<path class="st0" d="M406.9,141.5c-0.1,0-0.3,0-0.4,0C402.2,95.3,363.3,59,315.9,59c-50.3,0-91,40.8-91,91
			c0,48.6,38.1,88.3,86.1,90.9v0.1h96c27.5,0,49.8-22.3,49.8-49.8S434.4,141.5,406.9,141.5z"/>
		
			<linearGradient id="SVGID_00000111875766513282521860000015491566207093141177_" gradientUnits="userSpaceOnUse" x1="90.5236" y1="138.0909" x2="365.172" y2="317.0528">
			<stop  offset="0.1491" style="stop-color:#FAFAFA"/>
			<stop  offset="1" style="stop-color:#808080"/>
		</linearGradient>
		<path style="fill:url(#SVGID_00000111875766513282521860000015491566207093141177_);" d="M350.7,167
			C336,117,289.8,80.4,234.9,80.4c-65.8,0-119.3,52.8-120.5,118.3C83.8,202.3,60,228.3,60,259.9c0,34.1,27.6,61.7,61.7,61.7h219.8
			c42.8,0,77.6-34.7,77.6-77.6C419,204.3,389.2,171.6,350.7,167z"/>
	</g>
	
		<linearGradient id="SVGID_00000129163956774205008540000013170872516400492183_" gradientUnits="userSpaceOnUse" x1="236.0883" y1="208.5381" x2="235.5033" y2="424.4301">
		<stop  offset="0.2365" style="stop-color:#FFFFFF"/>
		<stop  offset="0.7783" style="stop-color:#FBB03B"/>
	</linearGradient>
	
		<polygon style="fill-rule:evenodd;clip-rule:evenodd;fill:url(#SVGID_00000129163956774205008540000013170872516400492183_);" points="
		246,315.8 303.1,315.8 217.4,431.8 217.4,354.3 168.4,354.3 274,211.4 	"/>
	
		<linearGradient id="SVGID_00000091005296816835512450000010009022521413186197_" gradientUnits="userSpaceOnUse" x1="122.1877" y1="542.1182" x2="192.5675" y2="414.8566" gradientTransform="matrix(-0.9054 -5.866064e-02 -0.2719 -0.6488 345.1177 684.4865)">
		<stop  offset="0" style="stop-color:#FFFFFF"/>
		<stop  offset="9.948106e-02" style="stop-color:#FFFFFF"/>
		<stop  offset="0.8537" style="stop-color:#26B2EF"/>
	</linearGradient>
	<path style="fill:url(#SVGID_00000091005296816835512450000010009022521413186197_);" d="M44.8,380.8l13.4-33
		c4.1-10.2,15.7-15,25.9-10.9l0,0c10.2,4.1,15,15.7,10.9,25.9l-13.4,33c-4.1,10.2-15.7,15-25.9,10.9l0,0
		C45.5,402.6,40.6,391,44.8,380.8z"/>
	
		<linearGradient id="SVGID_00000044163734335168336580000003214773478461873048_" gradientUnits="userSpaceOnUse" x1="-166.574" y1="559.6478" x2="-96.1932" y2="432.3843" gradientTransform="matrix(-0.9564 6.639117e-02 -0.1836 -0.8654 291.5269 815.9011)">
		<stop  offset="0" style="stop-color:#FFFFFF"/>
		<stop  offset="9.948106e-02" style="stop-color:#FFFFFF"/>
		<stop  offset="0.8537" style="stop-color:#26B2EF"/>
	</linearGradient>
	<path style="fill:url(#SVGID_00000044163734335168336580000003214773478461873048_);" d="M290.4,413.6l26.8-65.7
		c4.1-10.2,15.7-15,25.9-10.9l0,0c10.2,4.1,15,15.7,10.9,25.9l-26.8,65.7c-4.1,10.2-15.7,15-25.9,10.9l0,0
		C291.1,435.4,286.2,423.8,290.4,413.6z"/>
	
		<linearGradient id="SVGID_00000114777296057662780220000004727229606307361715_" gradientUnits="userSpaceOnUse" x1="-233.8715" y1="574.3121" x2="-163.4918" y2="447.0505" gradientTransform="matrix(-0.9054 -5.866064e-02 -0.2719 -0.6488 345.1177 684.4865)">
		<stop  offset="0" style="stop-color:#FFFFFF"/>
		<stop  offset="9.948106e-02" style="stop-color:#FFFFFF"/>
		<stop  offset="0.8537" style="stop-color:#26B2EF"/>
	</linearGradient>
	<path style="fill:url(#SVGID_00000114777296057662780220000004727229606307361715_);" d="M358.4,380.8l13.4-33
		c4.1-10.2,15.7-15,25.9-10.9l0,0c10.2,4.1,15,15.7,10.9,25.9l-13.4,33c-4.1,10.2-15.7,15-25.9,10.9l0,0
		C359.1,402.6,354.2,391,358.4,380.8z"/>
	
		<linearGradient id="SVGID_00000168828426223776042760000001778712364063106441_" gradientUnits="userSpaceOnUse" x1="39.0638" y1="575.4242" x2="109.4445" y2="448.1607" gradientTransform="matrix(-0.9564 6.639117e-02 -0.1836 -0.8654 291.5269 815.9011)">
		<stop  offset="0" style="stop-color:#FFFFFF"/>
		<stop  offset="9.948106e-02" style="stop-color:#FFFFFF"/>
		<stop  offset="0.8537" style="stop-color:#26B2EF"/>
	</linearGradient>
	<path style="fill:url(#SVGID_00000168828426223776042760000001778712364063106441_);" d="M90.8,413.6l26.8-65.7
		c4.1-10.2,15.7-15,25.9-10.9l0,0c10.2,4.1,15,15.7,10.9,25.9l-26.8,65.7c-4.1,10.2-15.7,15-25.9,10.9l0,0
		C91.5,435.4,86.6,423.8,90.8,413.6z"/>
</g>
</svg>
