<?xml version="1.0" encoding="utf-8"?>
<!-- Generator: Adobe Illustrator 26.0.3, SVG Export Plug-In . SVG Version: 6.00 Build 0)  -->
<svg version="1.1" id="图层_1" xmlns="http://www.w3.org/2000/svg" xmlns:xlink="http://www.w3.org/1999/xlink" x="0px" y="0px"
	 viewBox="0 0 500 500" style="enable-background:new 0 0 500 500;" xml:space="preserve">
<style type="text/css">
	.st0{fill:url(#SVGID_1_);}
	.st1{fill-rule:evenodd;clip-rule:evenodd;fill:url(#SVGID_00000132063253601651286420000001507446488007662523_);}
	.st2{fill:url(#SVGID_00000098921673551521273980000006518692732038017160_);}
	.st3{fill:url(#SVGID_00000030460323580476295190000018013655661630044064_);}
	.st4{fill:url(#SVGID_00000038380868351275882260000003901303029983358889_);}
	.st5{fill:url(#SVGID_00000000910686939246501080000016411900422655316098_);}
	.st6{fill:url(#SVGID_00000122689041208488658650000006484942200993452216_);}
</style>
<g>
	<linearGradient id="SVGID_1_" gradientUnits="userSpaceOnUse" x1="194.6612" y1="38.8334" x2="431.626" y2="305.4019">
		<stop  offset="0.2459" style="stop-color:#FAFAFA"/>
		<stop  offset="0.4701" style="stop-color:#D2D2D2"/>
		<stop  offset="0.6556" style="stop-color:#B9B9B9"/>
		<stop  offset="0.7664" style="stop-color:#AFAFAF"/>
	</linearGradient>
	<path class="st0" d="M398.6,157.3c-0.1,0-0.3,0-0.4,0c-4.3-46.3-43.2-82.6-90.6-82.6c-50.3,0-91,40.8-91,91
		c0,48.6,38.1,88.3,86.1,90.9v0.1h96c27.5,0,49.8-22.3,49.8-49.8S426.1,157.3,398.6,157.3z"/>
	
		<linearGradient id="SVGID_00000080183228747994587180000002130190407794585022_" gradientUnits="userSpaceOnUse" x1="251.2566" y1="90.594" x2="393.3924" y2="195.3117">
		<stop  offset="4.977477e-03" style="stop-color:#FFFFFF"/>
		<stop  offset="0.8567" style="stop-color:#F99C00"/>
	</linearGradient>
	<path style="fill-rule:evenodd;clip-rule:evenodd;fill:url(#SVGID_00000080183228747994587180000002130190407794585022_);" d="
		M397.4,160.5c-47.2,0-85.5-38.3-85.5-85.5c0-8.8,1.3-17.4,3.8-25.4c0.3-0.8-0.5-1.7-1.3-1.5c-38.9,7.3-68.6,40.9-69.7,81.6
		c-1.4,48.9,38.8,89.2,87.7,88c36.1-0.9,66.6-24.2,78.3-56.4c0.3-0.8-0.4-1.7-1.3-1.6C405.5,160.2,401.5,160.5,397.4,160.5z"/>
	
		<linearGradient id="SVGID_00000016764079189230127950000011319518440550781058_" gradientUnits="userSpaceOnUse" x1="82.1779" y1="153.865" x2="356.8263" y2="332.8268">
		<stop  offset="0.1491" style="stop-color:#FAFAFA"/>
		<stop  offset="0.818" style="stop-color:#CBCBCB"/>
	</linearGradient>
	<path style="fill:url(#SVGID_00000016764079189230127950000011319518440550781058_);" d="M342.3,182.8
		c-14.7-50.1-60.9-86.7-115.7-86.7c-65.8,0-119.3,52.8-120.5,118.3c-30.6,3.6-54.4,29.6-54.4,61.2c0,34.1,27.6,61.7,61.7,61.7h219.8
		c42.8,0,77.6-34.7,77.6-77.6C410.7,220.1,380.8,187.4,342.3,182.8z"/>
	<g>
		
			<linearGradient id="SVGID_00000109752394284769438670000011091997561739514255_" gradientUnits="userSpaceOnUse" x1="72.9746" y1="526.7615" x2="143.3543" y2="399.4999" gradientTransform="matrix(-0.9054 -5.866064e-02 -0.2719 -0.6488 345.1177 684.4865)">
			<stop  offset="0" style="stop-color:#FFFFFF"/>
			<stop  offset="9.948106e-02" style="stop-color:#FFFFFF"/>
			<stop  offset="0.8537" style="stop-color:#26B2EF"/>
		</linearGradient>
		<path style="fill:url(#SVGID_00000109752394284769438670000011091997561739514255_);" d="M93.5,393.7l13.4-33
			c4.1-10.2,15.7-15,25.9-10.9l0,0c10.2,4.1,15,15.7,10.9,25.9l-13.4,33c-4.1,10.2-15.7,15-25.9,10.9l0,0
			C94.2,415.5,89.4,403.9,93.5,393.7z"/>
		
			<linearGradient id="SVGID_00000060721500631883234580000004616166642474274739_" gradientUnits="userSpaceOnUse" x1="-111.0007" y1="544.6105" x2="-40.62" y2="417.3471" gradientTransform="matrix(-0.9535 5.930829e-02 -0.1886 -0.8531 296.0262 804.8682)">
			<stop  offset="0" style="stop-color:#FFFFFF"/>
			<stop  offset="9.948106e-02" style="stop-color:#FFFFFF"/>
			<stop  offset="0.8537" style="stop-color:#26B2EF"/>
		</linearGradient>
		<path style="fill:url(#SVGID_00000060721500631883234580000004616166642474274739_);" d="M242.3,424.6l26-63.9
			c4.1-10.2,15.7-15,25.9-10.9l0,0c10.2,4.1,15,15.7,10.9,25.9l-26,63.9c-4.1,10.2-15.7,15-25.9,10.9l0,0
			C243,446.4,238.1,434.8,242.3,424.6z"/>
		
			<linearGradient id="SVGID_00000081634831408263069550000016982823454312584355_" gradientUnits="userSpaceOnUse" x1="-30.7765" y1="550.1877" x2="39.6042" y2="422.9243" gradientTransform="matrix(-0.9535 5.930829e-02 -0.1886 -0.8531 296.0262 804.8682)">
			<stop  offset="0" style="stop-color:#FFFFFF"/>
			<stop  offset="9.948106e-02" style="stop-color:#FFFFFF"/>
			<stop  offset="0.8537" style="stop-color:#26B2EF"/>
		</linearGradient>
		<path style="fill:url(#SVGID_00000081634831408263069550000016982823454312584355_);" d="M164.7,424.6l26-63.9
			c4.1-10.2,15.7-15,25.9-10.9l0,0c10.2,4.1,15,15.7,10.9,25.9l-26,63.9c-4.1,10.2-15.7,15-25.9,10.9l0,0
			C165.5,446.4,160.6,434.8,164.7,424.6z"/>
		
			<linearGradient id="SVGID_00000008860115913066784580000002453173229894879931_" gradientUnits="userSpaceOnUse" x1="-191.1459" y1="550.6425" x2="-120.7662" y2="423.3809" gradientTransform="matrix(-0.9054 -5.866064e-02 -0.2719 -0.6488 345.1177 684.4865)">
			<stop  offset="0" style="stop-color:#FFFFFF"/>
			<stop  offset="9.948106e-02" style="stop-color:#FFFFFF"/>
			<stop  offset="0.8537" style="stop-color:#26B2EF"/>
		</linearGradient>
		<path style="fill:url(#SVGID_00000008860115913066784580000002453173229894879931_);" d="M326.1,393.7l13.4-33
			c4.1-10.2,15.7-15,25.9-10.9l0,0c10.2,4.1,15,15.7,10.9,25.9l-13.4,33c-4.1,10.2-15.7,15-25.9,10.9l0,0
			C326.9,415.5,322,403.9,326.1,393.7z"/>
	</g>
</g>
</svg>
