<?xml version="1.0" encoding="utf-8"?>
<!-- Generator: Adobe Illustrator 26.0.3, SVG Export Plug-In . SVG Version: 6.00 Build 0)  -->
<svg version="1.1" id="图层_1" xmlns="http://www.w3.org/2000/svg" xmlns:xlink="http://www.w3.org/1999/xlink" x="0px" y="0px"
	 viewBox="0 0 500 500" style="enable-background:new 0 0 500 500;" xml:space="preserve">
<style type="text/css">
	.st0{fill:url(#SVGID_1_);}
	.st1{fill:url(#SVGID_00000027570535250557479700000010522820986413771398_);}
	.st2{fill:url(#SVGID_00000094589629336398503750000017313291435399485854_);}
	.st3{fill:url(#SVGID_00000048470823199406163120000000962562855394089857_);}
	.st4{fill:url(#SVGID_00000110458170821466327140000004735666093041983891_);}
	.st5{fill:url(#SVGID_00000073720340006618615700000013298838857174481542_);}
</style>
<g>
	<g>
		<linearGradient id="SVGID_1_" gradientUnits="userSpaceOnUse" x1="194.6612" y1="23.6131" x2="431.626" y2="290.1817">
			<stop  offset="0.2459" style="stop-color:#FAFAFA"/>
			<stop  offset="0.2791" style="stop-color:#EEEEEE"/>
			<stop  offset="0.4458" style="stop-color:#B4B4B4"/>
			<stop  offset="0.5885" style="stop-color:#8A8A8A"/>
			<stop  offset="0.6999" style="stop-color:#707070"/>
			<stop  offset="0.7664" style="stop-color:#666666"/>
		</linearGradient>
		<path class="st0" d="M398.6,142.1c-0.1,0-0.3,0-0.4,0c-4.3-46.3-43.2-82.6-90.6-82.6c-50.3,0-91,40.8-91,91
			c0,48.6,38.1,88.3,86.1,90.9v0.1h96c27.5,0,49.8-22.3,49.8-49.8S426.1,142.1,398.6,142.1z"/>
		
			<linearGradient id="SVGID_00000091008101048190767180000002831723607036030343_" gradientUnits="userSpaceOnUse" x1="82.1779" y1="138.6447" x2="356.8263" y2="317.6065">
			<stop  offset="0.1491" style="stop-color:#FAFAFA"/>
			<stop  offset="1" style="stop-color:#808080"/>
		</linearGradient>
		<path style="fill:url(#SVGID_00000091008101048190767180000002831723607036030343_);" d="M342.3,167.6
			c-14.7-50.1-60.9-86.7-115.7-86.7c-65.8,0-119.3,52.8-120.5,118.3c-30.6,3.6-54.4,29.6-54.4,61.2c0,34.1,27.6,61.7,61.7,61.7
			h219.8c42.8,0,77.6-34.7,77.6-77.6C410.7,204.9,380.8,172.1,342.3,167.6z"/>
	</g>
	<g>
		
			<linearGradient id="SVGID_00000121269603657494824310000003461666462780206521_" gradientUnits="userSpaceOnUse" x1="39.489" y1="529.926" x2="109.8697" y2="402.6626" gradientTransform="matrix(-0.9542 6.118175e-02 -0.1873 -0.8564 452.0618 772.9463)">
			<stop  offset="0" style="stop-color:#FFFFFF"/>
			<stop  offset="9.948106e-02" style="stop-color:#FFFFFF"/>
			<stop  offset="0.8537" style="stop-color:#26B2EF"/>
		</linearGradient>
		<path style="fill:url(#SVGID_00000121269603657494824310000003461666462780206521_);" d="M258.1,413.1l26.2-64.4
			c4.1-10.2,15.7-15,25.9-10.9l0,0c10.2,4.1,15,15.7,10.9,25.9l-26.2,64.4c-4.1,10.2-15.7,15-25.9,10.9l0,0
			C258.8,434.8,253.9,423.2,258.1,413.1z"/>
		<g>
			
				<linearGradient id="SVGID_00000061436842951616980080000017189082531134194308_" gradientUnits="userSpaceOnUse" x1="125.3992" y1="540.5777" x2="195.779" y2="413.316" gradientTransform="matrix(-0.9054 -5.866064e-02 -0.2719 -0.6488 488.1357 684.4865)">
				<stop  offset="0" style="stop-color:#FFFFFF"/>
				<stop  offset="9.948106e-02" style="stop-color:#FFFFFF"/>
				<stop  offset="0.8537" style="stop-color:#26B2EF"/>
			</linearGradient>
			<path style="fill:url(#SVGID_00000061436842951616980080000017189082531134194308_);" d="M185.3,381.7l13.4-33
				c4.1-10.2,15.7-15,25.9-10.9l0,0c10.2,4.1,15,15.7,10.9,25.9l-13.4,33c-4.1,10.2-15.7,15-25.9,10.9l0,0
				C186,403.4,181.2,391.8,185.3,381.7z"/>
		</g>
		
			<linearGradient id="SVGID_00000117665794599793448260000001390146383108461238_" gradientUnits="userSpaceOnUse" x1="369.7213" y1="337.88" x2="368.9841" y2="397.7606" gradientTransform="matrix(-1 0 0 1 500.4937 0)">
			<stop  offset="0" style="stop-color:#FFFFFF"/>
			<stop  offset="9.948106e-02" style="stop-color:#FFFFFF"/>
			<stop  offset="0.8537" style="stop-color:#26B2EF"/>
		</linearGradient>
		<path style="fill:url(#SVGID_00000117665794599793448260000001390146383108461238_);" d="M111,379c0,11.2,9.1,20.3,20.3,20.3
			c11.2,0,20.3-9.1,20.3-20.3s-20.3-42.7-20.3-42.7S111,367.8,111,379z"/>
		
			<linearGradient id="SVGID_00000136374421217184569200000017897195718286182323_" gradientUnits="userSpaceOnUse" x1="132.2793" y1="337.88" x2="131.5421" y2="397.7606" gradientTransform="matrix(-1 0 0 1 500.4937 0)">
			<stop  offset="0" style="stop-color:#FFFFFF"/>
			<stop  offset="9.948106e-02" style="stop-color:#FFFFFF"/>
			<stop  offset="0.8537" style="stop-color:#26B2EF"/>
		</linearGradient>
		<path style="fill:url(#SVGID_00000136374421217184569200000017897195718286182323_);" d="M348.4,379c0,11.2,9.1,20.3,20.3,20.3
			c11.2,0,20.3-9.1,20.3-20.3s-20.3-42.7-20.3-42.7S348.4,367.8,348.4,379z"/>
	</g>
</g>
</svg>
