<?xml version="1.0" encoding="utf-8"?>
<!-- Generator: Adobe Illustrator 26.0.3, SVG Export Plug-In . SVG Version: 6.00 Build 0)  -->
<svg version="1.1" id="图层_1" xmlns="http://www.w3.org/2000/svg" xmlns:xlink="http://www.w3.org/1999/xlink" x="0px" y="0px"
	 viewBox="0 0 500 500" style="enable-background:new 0 0 500 500;" xml:space="preserve">
<style type="text/css">
	.st0{fill:url(#SVGID_1_);}
	.st1{fill:url(#SVGID_00000179608972049333520520000014280255536995790487_);}
	.st2{fill:url(#SVGID_00000167387031788901974650000011398014655584276370_);}
	.st3{fill:url(#SVGID_00000152955123264142716380000002543290518015446175_);}
	.st4{fill:url(#SVGID_00000000187196887686753820000006104384263134286220_);}
	.st5{fill:url(#SVGID_00000171707433066872677410000002705038017836507571_);}
	.st6{fill:url(#SVGID_00000008845774591643264660000017995840212143904445_);}
	.st7{fill:url(#SVGID_00000109727861510704210110000001158065565541489046_);}
</style>
<g>
	<g>
		<linearGradient id="SVGID_1_" gradientUnits="userSpaceOnUse" x1="194.6612" y1="4.7542" x2="431.626" y2="271.3228">
			<stop  offset="0.2459" style="stop-color:#FAFAFA"/>
			<stop  offset="0.2791" style="stop-color:#EEEEEE"/>
			<stop  offset="0.4458" style="stop-color:#B4B4B4"/>
			<stop  offset="0.5885" style="stop-color:#8A8A8A"/>
			<stop  offset="0.6999" style="stop-color:#707070"/>
			<stop  offset="0.7664" style="stop-color:#666666"/>
		</linearGradient>
		<path class="st0" d="M398.6,123.2c-0.1,0-0.3,0-0.4,0C393.9,77,355,40.7,307.6,40.7c-50.3,0-91,40.8-91,91
			c0,48.6,38.1,88.3,86.1,90.9v0.1h96c27.5,0,49.8-22.3,49.8-49.8S426.1,123.2,398.6,123.2z"/>
		
			<linearGradient id="SVGID_00000160181204911847327540000014752608907310258612_" gradientUnits="userSpaceOnUse" x1="82.1779" y1="119.7858" x2="356.8263" y2="298.7476">
			<stop  offset="0.1491" style="stop-color:#FAFAFA"/>
			<stop  offset="1" style="stop-color:#808080"/>
		</linearGradient>
		<path style="fill:url(#SVGID_00000160181204911847327540000014752608907310258612_);" d="M342.3,148.7
			c-14.7-50.1-60.9-86.7-115.7-86.7c-65.8,0-119.3,52.8-120.5,118.3C75.4,184,51.6,210,51.6,241.6c0,34.1,27.6,61.7,61.7,61.7h219.8
			c42.8,0,77.6-34.7,77.6-77.6C410.7,186,380.8,153.3,342.3,148.7z"/>
	</g>
	<g>
		
			<linearGradient id="SVGID_00000110467820733002423530000008803161131777761684_" gradientUnits="userSpaceOnUse" x1="-68.5418" y1="573.5696" x2="12.2434" y2="427.4926" gradientTransform="matrix(-0.8605 0.415 -0.4968 -0.7187 445.5505 738.8374)">
			<stop  offset="0" style="stop-color:#FFFFFF"/>
			<stop  offset="9.948106e-02" style="stop-color:#FFFFFF"/>
			<stop  offset="0.8537" style="stop-color:#26B2EF"/>
		</linearGradient>
		<path style="fill:url(#SVGID_00000110467820733002423530000008803161131777761684_);" d="M201.5,422.4l0-85
			c0-11,8.9-19.9,19.9-19.9h0c11,0,19.9,8.9,19.9,19.9l0,85c0,11-8.9,19.9-19.9,19.9h0C210.4,442.2,201.5,433.3,201.5,422.4z"/>
		
			<linearGradient id="SVGID_00000168075935039060990630000001413221379495404462_" gradientUnits="userSpaceOnUse" x1="-119.7077" y1="535.6617" x2="-64.1022" y2="435.1149" gradientTransform="matrix(-0.8605 0.415 -0.4968 -0.7187 445.5505 738.8374)">
			<stop  offset="0" style="stop-color:#FFFFFF"/>
			<stop  offset="9.948106e-02" style="stop-color:#FFFFFF"/>
			<stop  offset="0.8537" style="stop-color:#26B2EF"/>
		</linearGradient>
		<path style="fill:url(#SVGID_00000168075935039060990630000001413221379495404462_);" d="M263.8,383.5l0-46.1
			c0-11,8.9-19.9,19.9-19.9h0c11,0,19.9,8.9,19.9,19.9l0,46.1c0,11-8.9,19.9-19.9,19.9h0C272.7,403.3,263.8,394.5,263.8,383.5z"/>
		
			<linearGradient id="SVGID_00000124143970652819493650000011161495562957255321_" gradientUnits="userSpaceOnUse" x1="125.5333" y1="325.2523" x2="124.679" y2="394.647">
			<stop  offset="0" style="stop-color:#FFFFFF"/>
			<stop  offset="9.948106e-02" style="stop-color:#FFFFFF"/>
			<stop  offset="0.8537" style="stop-color:#26B2EF"/>
		</linearGradient>
		<path style="fill:url(#SVGID_00000124143970652819493650000011161495562957255321_);" d="M148.4,372.9c0,13-10.5,23.5-23.5,23.5
			s-23.5-10.5-23.5-23.5s23.5-49.5,23.5-49.5S148.4,359.9,148.4,372.9z"/>
		
			<linearGradient id="SVGID_00000008143283145309487920000014349124824654366870_" gradientUnits="userSpaceOnUse" x1="375.641" y1="319.2646" x2="374.7867" y2="388.6593">
			<stop  offset="0" style="stop-color:#FFFFFF"/>
			<stop  offset="9.948106e-02" style="stop-color:#FFFFFF"/>
			<stop  offset="0.8537" style="stop-color:#26B2EF"/>
		</linearGradient>
		<path style="fill:url(#SVGID_00000008143283145309487920000014349124824654366870_);" d="M398.5,366.9c0,13-10.5,23.5-23.5,23.5
			s-23.5-10.5-23.5-23.5s23.5-49.5,23.5-49.5S398.5,353.9,398.5,366.9z"/>
		
			<linearGradient id="SVGID_00000150799942338319194730000016226004832346935447_" gradientUnits="userSpaceOnUse" x1="333.5118" y1="417.6164" x2="333.0114" y2="458.2654">
			<stop  offset="0" style="stop-color:#FFFFFF"/>
			<stop  offset="9.948106e-02" style="stop-color:#FFFFFF"/>
			<stop  offset="0.8537" style="stop-color:#26B2EF"/>
		</linearGradient>
		<path style="fill:url(#SVGID_00000150799942338319194730000016226004832346935447_);" d="M346.9,445.5c0,7.6-6.2,13.8-13.8,13.8
			s-13.8-6.2-13.8-13.8s13.8-29,13.8-29S346.9,437.9,346.9,445.5z"/>
		
			<linearGradient id="SVGID_00000071537416824627933020000002906478487106126498_" gradientUnits="userSpaceOnUse" x1="171.202" y1="411.3271" x2="170.7016" y2="451.9761">
			<stop  offset="0" style="stop-color:#FFFFFF"/>
			<stop  offset="9.948106e-02" style="stop-color:#FFFFFF"/>
			<stop  offset="0.8537" style="stop-color:#26B2EF"/>
		</linearGradient>
		<path style="fill:url(#SVGID_00000071537416824627933020000002906478487106126498_);" d="M184.6,439.2c0,7.6-6.2,13.8-13.8,13.8
			c-7.6,0-13.8-6.2-13.8-13.8s13.8-29,13.8-29S184.6,431.6,184.6,439.2z"/>
	</g>
</g>
</svg>
