<?xml version="1.0" encoding="utf-8"?>
<!-- Generator: Adobe Illustrator 26.0.3, SVG Export Plug-In . SVG Version: 6.00 Build 0)  -->
<svg version="1.1" id="图层_1" xmlns="http://www.w3.org/2000/svg" xmlns:xlink="http://www.w3.org/1999/xlink" x="0px" y="0px"
	 viewBox="0 0 500 500" style="enable-background:new 0 0 500 500;" xml:space="preserve">
<style type="text/css">
	.st0{fill:url(#SVGID_1_);}
	.st1{fill:url(#SVGID_00000091713943167911653060000003460822348989989040_);}
	.st2{fill:url(#SVGID_00000077321829899818123150000008257848491301808053_);}
	.st3{fill:url(#SVGID_00000109004336282880496130000000639204762164036241_);}
	.st4{fill:url(#SVGID_00000005242750623379880810000011559924282598950794_);}
	.st5{fill:url(#SVGID_00000118362440864104688790000011587276012566020794_);}
	.st6{fill:url(#SVGID_00000073698947429047699930000010600431396074248578_);}
</style>
<g>
	<g>
		<linearGradient id="SVGID_1_" gradientUnits="userSpaceOnUse" x1="194.6612" y1="21.3129" x2="431.626" y2="287.8814">
			<stop  offset="0.2459" style="stop-color:#FAFAFA"/>
			<stop  offset="0.2791" style="stop-color:#EEEEEE"/>
			<stop  offset="0.4458" style="stop-color:#B4B4B4"/>
			<stop  offset="0.5885" style="stop-color:#8A8A8A"/>
			<stop  offset="0.6999" style="stop-color:#707070"/>
			<stop  offset="0.7664" style="stop-color:#666666"/>
		</linearGradient>
		<path class="st0" d="M398.6,139.8c-0.1,0-0.3,0-0.4,0c-4.3-46.3-43.2-82.6-90.6-82.6c-50.3,0-91,40.8-91,91
			c0,48.6,38.1,88.3,86.1,90.9v0.1h96c27.5,0,49.8-22.3,49.8-49.8S426.1,139.8,398.6,139.8z"/>
		
			<linearGradient id="SVGID_00000001661128582755910650000002532816274006276736_" gradientUnits="userSpaceOnUse" x1="82.1779" y1="136.3444" x2="356.8263" y2="315.3062">
			<stop  offset="0.1491" style="stop-color:#FAFAFA"/>
			<stop  offset="1" style="stop-color:#808080"/>
		</linearGradient>
		<path style="fill:url(#SVGID_00000001661128582755910650000002532816274006276736_);" d="M342.3,165.3
			c-14.7-50.1-60.9-86.7-115.7-86.7c-65.8,0-119.3,52.8-120.5,118.3c-30.6,3.6-54.4,29.6-54.4,61.2c0,34.1,27.6,61.7,61.7,61.7
			h219.8c42.8,0,77.6-34.7,77.6-77.6C410.7,202.6,380.8,169.8,342.3,165.3z"/>
	</g>
	<g>
		
			<linearGradient id="SVGID_00000166667900175427337280000004248508435027767696_" gradientUnits="userSpaceOnUse" x1="-82.2129" y1="539.1801" x2="-11.8322" y2="411.9167" gradientTransform="matrix(-0.8605 0.415 -0.4968 -0.7187 445.5505 738.8374)">
			<stop  offset="0" style="stop-color:#FFFFFF"/>
			<stop  offset="9.948106e-02" style="stop-color:#FFFFFF"/>
			<stop  offset="0.8537" style="stop-color:#26B2EF"/>
		</linearGradient>
		<path style="fill:url(#SVGID_00000166667900175427337280000004248508435027767696_);" d="M230.1,422.9l0-69
			c0-11,8.9-19.9,19.9-19.9h0c11,0,19.9,8.9,19.9,19.9l0,69c0,11-8.9,19.9-19.9,19.9h0C239,442.7,230.1,433.8,230.1,422.9z"/>
		
			<linearGradient id="SVGID_00000060710435448825349350000005781045727201536911_" gradientUnits="userSpaceOnUse" x1="-17.8365" y1="571.4379" x2="37.769" y2="470.8912" gradientTransform="matrix(-0.8605 0.415 -0.4968 -0.7187 445.5505 738.8374)">
			<stop  offset="0" style="stop-color:#FFFFFF"/>
			<stop  offset="9.948106e-02" style="stop-color:#FFFFFF"/>
			<stop  offset="0.8537" style="stop-color:#26B2EF"/>
		</linearGradient>
		<path style="fill:url(#SVGID_00000060710435448825349350000005781045727201536911_);" d="M158.4,400l0-46.1
			c0-11,8.9-19.9,19.9-19.9h0c11,0,19.9,8.9,19.9,19.9l0,46.1c0,11-8.9,19.9-19.9,19.9h0C167.3,419.9,158.4,411,158.4,400z"/>
		
			<linearGradient id="SVGID_00000054978824995627433850000010056627411014770585_" gradientUnits="userSpaceOnUse" x1="46.2318" y1="604.3406" x2="89.5379" y2="526.0339" gradientTransform="matrix(-0.8605 0.415 -0.4968 -0.7187 445.5505 738.8374)">
			<stop  offset="0" style="stop-color:#FFFFFF"/>
			<stop  offset="9.948106e-02" style="stop-color:#FFFFFF"/>
			<stop  offset="0.8537" style="stop-color:#26B2EF"/>
		</linearGradient>
		<path style="fill:url(#SVGID_00000054978824995627433850000010056627411014770585_);" d="M86.6,381l0-27.1
			c0-11,8.9-19.9,19.9-19.9h0c11,0,19.9,8.9,19.9,19.9l0,27.1c0,11-8.9,19.9-19.9,19.9h0C95.5,400.9,86.6,392,86.6,381z"/>
		
			<linearGradient id="SVGID_00000176733964285289168090000015616585239968257413_" gradientUnits="userSpaceOnUse" x1="-203.9192" y1="459.916" x2="-160.6132" y2="381.6094" gradientTransform="matrix(-0.8605 0.415 -0.4968 -0.7187 445.5505 738.8374)">
			<stop  offset="0" style="stop-color:#FFFFFF"/>
			<stop  offset="9.948106e-02" style="stop-color:#FFFFFF"/>
			<stop  offset="0.8537" style="stop-color:#26B2EF"/>
		</linearGradient>
		<path style="fill:url(#SVGID_00000176733964285289168090000015616585239968257413_);" d="M373.6,381l0-27.1
			c0-11,8.9-19.9,19.9-19.9h0c11,0,19.9,8.9,19.9,19.9l0,27.1c0,11-8.9,19.9-19.9,19.9h0C382.5,400.9,373.6,392,373.6,381z"/>
		
			<linearGradient id="SVGID_00000034798633661590622300000007164913922785006215_" gradientUnits="userSpaceOnUse" x1="-142.912" y1="499.2256" x2="-87.3065" y2="398.6789" gradientTransform="matrix(-0.8605 0.415 -0.4968 -0.7187 445.5505 738.8374)">
			<stop  offset="0" style="stop-color:#FFFFFF"/>
			<stop  offset="9.948106e-02" style="stop-color:#FFFFFF"/>
			<stop  offset="0.8537" style="stop-color:#26B2EF"/>
		</linearGradient>
		<path style="fill:url(#SVGID_00000034798633661590622300000007164913922785006215_);" d="M301.9,400l0-46.1
			c0-11,8.9-19.9,19.9-19.9h0c11,0,19.9,8.9,19.9,19.9l0,46.1c0,11-8.9,19.9-19.9,19.9h0C310.8,419.9,301.9,411,301.9,400z"/>
	</g>
</g>
</svg>
