<?xml version="1.0" encoding="utf-8"?>
<!-- Generator: Adobe Illustrator 26.0.3, SVG Export Plug-In . SVG Version: 6.00 Build 0)  -->
<svg version="1.1" id="图层_1" xmlns="http://www.w3.org/2000/svg" xmlns:xlink="http://www.w3.org/1999/xlink" x="0px" y="0px"
	 viewBox="0 0 500 500" style="enable-background:new 0 0 500 500;" xml:space="preserve">
<style type="text/css">
	.st0{fill:url(#SVGID_1_);}
	.st1{fill:url(#SVGID_00000182508377536940344610000006674627821183133108_);}
	.st2{fill:url(#SVGID_00000041976026559002153820000008989327848279404937_);}
	.st3{fill:url(#SVGID_00000160881141133460337450000000714517423144268434_);}
</style>
<g>
	<g>
		<g>
			<linearGradient id="SVGID_1_" gradientUnits="userSpaceOnUse" x1="101.0046" y1="145.1652" x2="375.653" y2="324.127">
				<stop  offset="0.1491" style="stop-color:#FAFAFA"/>
				<stop  offset="0.818" style="stop-color:#CBCBCB"/>
			</linearGradient>
			<path class="st0" d="M361.1,174.1c-14.7-50.1-60.9-86.7-115.7-86.7c-65.8,0-119.3,52.8-120.5,118.3
				c-30.6,3.6-54.4,29.6-54.4,61.2c0,34.1,27.6,61.7,61.7,61.7H352c42.8,0,77.6-34.7,77.6-77.6C429.5,211.4,399.7,178.7,361.1,174.1
				z"/>
		</g>
	</g>
	<g>
		
			<linearGradient id="SVGID_00000067931280256086727780000010740674312632386465_" gradientUnits="userSpaceOnUse" x1="128.9812" y1="495.8445" x2="199.3664" y2="368.5729" gradientTransform="matrix(-0.3332 0.1747 5.839229e-02 -0.5141 192.1197 563.7714)">
			<stop  offset="0" style="stop-color:#FFFFFF"/>
			<stop  offset="9.948106e-02" style="stop-color:#FFFFFF"/>
			<stop  offset="0.8537" style="stop-color:#26B2EF"/>
		</linearGradient>
		<path style="fill:url(#SVGID_00000067931280256086727780000010740674312632386465_);" d="M142.6,404.8l24.2-59.4
			c1.2-2.9,4.4-4.2,7.3-3.1h0c2.9,1.2,4.2,4.4,3.1,7.3L153,409.1c-1.2,2.9-4.4,4.2-7.3,3.1h0C142.8,411,141.4,407.7,142.6,404.8z"/>
		
			<linearGradient id="SVGID_00000026145342092167436860000016988294548309261209_" gradientUnits="userSpaceOnUse" x1="-158.6102" y1="398.1269" x2="-88.225" y2="270.8553" gradientTransform="matrix(-0.3332 0.1747 5.839229e-02 -0.5141 192.1197 563.7714)">
			<stop  offset="0" style="stop-color:#FFFFFF"/>
			<stop  offset="9.948106e-02" style="stop-color:#FFFFFF"/>
			<stop  offset="0.8537" style="stop-color:#26B2EF"/>
		</linearGradient>
		<path style="fill:url(#SVGID_00000026145342092167436860000016988294548309261209_);" d="M232.7,404.8l24.2-59.4
			c1.2-2.9,4.4-4.2,7.3-3.1l0,0c2.9,1.2,4.2,4.4,3.1,7.3l-24.2,59.4c-1.2,2.9-4.4,4.2-7.3,3.1h0C232.9,411,231.5,407.7,232.7,404.8z
			"/>
		
			<linearGradient id="SVGID_00000132064769301623032540000009588281427970447033_" gradientUnits="userSpaceOnUse" x1="-446.2016" y1="300.4092" x2="-375.8163" y2="173.1377" gradientTransform="matrix(-0.3332 0.1747 5.839229e-02 -0.5141 192.1197 563.7714)">
			<stop  offset="0" style="stop-color:#FFFFFF"/>
			<stop  offset="9.948106e-02" style="stop-color:#FFFFFF"/>
			<stop  offset="0.8537" style="stop-color:#26B2EF"/>
		</linearGradient>
		<path style="fill:url(#SVGID_00000132064769301623032540000009588281427970447033_);" d="M322.8,404.8l24.2-59.4
			c1.2-2.9,4.4-4.2,7.3-3.1l0,0c2.9,1.2,4.2,4.4,3.1,7.3l-24.2,59.4c-1.2,2.9-4.4,4.2-7.3,3.1l0,0C323,411,321.7,407.7,322.8,404.8z
			"/>
	</g>
</g>
</svg>
