<?xml version="1.0" encoding="utf-8"?>
<!-- Generator: Adobe Illustrator 26.0.3, SVG Export Plug-In . SVG Version: 6.00 Build 0)  -->
<svg version="1.1" id="图层_1" xmlns="http://www.w3.org/2000/svg" xmlns:xlink="http://www.w3.org/1999/xlink" x="0px" y="0px"
	 viewBox="0 0 500 500" style="enable-background:new 0 0 500 500;" xml:space="preserve">
<style type="text/css">
	.st0{fill:url(#SVGID_1_);}
	.st1{fill:url(#SVGID_00000081649034672770243110000014541904833410282418_);}
	.st2{fill:url(#SVGID_00000112592365440381573340000003245726372113239425_);}
	.st3{fill:url(#SVGID_00000008125286495561317290000013901967224362557355_);}
	.st4{fill:url(#SVGID_00000083061356385601630480000013764348017544573856_);}
	.st5{fill:url(#SVGID_00000165945185539840433800000001727807445687477674_);}
	.st6{fill:url(#SVGID_00000159458844484167947890000014874472818147094690_);}
	.st7{fill:url(#SVGID_00000172407977409100830240000011441577002309322656_);}
</style>
<g>
	<g>
		<linearGradient id="SVGID_1_" gradientUnits="userSpaceOnUse" x1="194.6612" y1="18.3397" x2="431.626" y2="284.9082">
			<stop  offset="0.2459" style="stop-color:#FAFAFA"/>
			<stop  offset="0.2791" style="stop-color:#EEEEEE"/>
			<stop  offset="0.4458" style="stop-color:#B4B4B4"/>
			<stop  offset="0.5885" style="stop-color:#8A8A8A"/>
			<stop  offset="0.6999" style="stop-color:#707070"/>
			<stop  offset="0.7664" style="stop-color:#666666"/>
		</linearGradient>
		<path class="st0" d="M398.6,136.8c-0.1,0-0.3,0-0.4,0c-4.3-46.3-43.2-82.6-90.6-82.6c-50.3,0-91,40.8-91,91
			c0,48.6,38.1,88.3,86.1,90.9v0.1h96c27.5,0,49.8-22.3,49.8-49.8S426.1,136.8,398.6,136.8z"/>
		
			<linearGradient id="SVGID_00000061455976909768286920000018068950440444980650_" gradientUnits="userSpaceOnUse" x1="82.1779" y1="133.3713" x2="356.8263" y2="312.3331">
			<stop  offset="0.1491" style="stop-color:#FAFAFA"/>
			<stop  offset="1" style="stop-color:#808080"/>
		</linearGradient>
		<path style="fill:url(#SVGID_00000061455976909768286920000018068950440444980650_);" d="M342.3,162.3
			c-14.7-50.1-60.9-86.7-115.7-86.7c-65.8,0-119.3,52.8-120.5,118.3c-30.6,3.6-54.4,29.6-54.4,61.2c0,34.1,27.6,61.7,61.7,61.7
			h219.8c42.8,0,77.6-34.7,77.6-77.6C410.7,199.6,380.8,166.9,342.3,162.3z"/>
	</g>
	<g>
		
			<linearGradient id="SVGID_00000049940371141292521770000008186058238485126576_" gradientUnits="userSpaceOnUse" x1="229.7496" y1="541.3016" x2="300.1294" y2="414.04" gradientTransform="matrix(-0.9054 -5.866064e-02 -0.2719 -0.6488 488.1357 684.4865)">
			<stop  offset="0" style="stop-color:#FFFFFF"/>
			<stop  offset="9.948106e-02" style="stop-color:#FFFFFF"/>
			<stop  offset="0.8537" style="stop-color:#26B2EF"/>
		</linearGradient>
		<path style="fill:url(#SVGID_00000049940371141292521770000008186058238485126576_);" d="M90.6,375.1l13.4-33
			c4.1-10.2,15.7-15,25.9-10.9h0c10.2,4.1,15,15.7,10.9,25.9l-13.4,33c-4.1,10.2-15.7,15-25.9,10.9l0,0
			C91.4,396.8,86.5,385.2,90.6,375.1z"/>
		
			<linearGradient id="SVGID_00000027568998165906533360000003772647989579221122_" gradientUnits="userSpaceOnUse" x1="78.8975" y1="540.438" x2="149.2782" y2="413.1747" gradientTransform="matrix(-0.9542 6.118175e-02 -0.1873 -0.8564 452.0618 772.9463)">
			<stop  offset="0" style="stop-color:#FFFFFF"/>
			<stop  offset="9.948106e-02" style="stop-color:#FFFFFF"/>
			<stop  offset="0.8537" style="stop-color:#26B2EF"/>
		</linearGradient>
		<path style="fill:url(#SVGID_00000027568998165906533360000003772647989579221122_);" d="M218.5,406.5l26.2-64.4
			c4.1-10.2,15.7-15,25.9-10.9h0c10.2,4.1,15,15.7,10.9,25.9l-26.2,64.4c-4.1,10.2-15.7,15-25.9,10.9l0,0
			C219.2,428.2,214.3,416.6,218.5,406.5z"/>
		<g>
			
				<linearGradient id="SVGID_00000061445306346150518360000001913835245802049675_" gradientUnits="userSpaceOnUse" x1="143.5252" y1="549.0978" x2="213.9049" y2="421.8362" gradientTransform="matrix(-0.9054 -5.866064e-02 -0.2719 -0.6488 488.1357 684.4865)">
				<stop  offset="0" style="stop-color:#FFFFFF"/>
				<stop  offset="9.948106e-02" style="stop-color:#FFFFFF"/>
				<stop  offset="0.8537" style="stop-color:#26B2EF"/>
			</linearGradient>
			<path style="fill:url(#SVGID_00000061445306346150518360000001913835245802049675_);" d="M166.6,375.1l13.4-33
				c4.1-10.2,15.7-15,25.9-10.9h0c10.2,4.1,15,15.7,10.9,25.9l-13.4,33c-4.1,10.2-15.7,15-25.9,10.9l0,0
				C167.3,396.8,162.4,385.2,166.6,375.1z"/>
			
				<linearGradient id="SVGID_00000005235810317068600540000008078012843220882339_" gradientUnits="userSpaceOnUse" x1="183.7289" y1="479.4629" x2="254.1076" y2="352.2031" gradientTransform="matrix(-0.8541 -0.1845 -0.3608 -0.4309 505.6131 641.6287)">
				<stop  offset="0" style="stop-color:#FFFFFF"/>
				<stop  offset="9.948106e-02" style="stop-color:#FFFFFF"/>
				<stop  offset="0.8537" style="stop-color:#26B2EF"/>
			</linearGradient>
			<path style="fill:url(#SVGID_00000005235810317068600540000008078012843220882339_);" d="M148.9,418.3L148.9,418.3
				c4.1-10.2,15.7-15,25.9-10.9h0c10.2,4.1,15,15.7,10.9,25.9l0,0c-4.1,10.2-15.7,15-25.9,10.9h0
				C149.7,440.1,144.8,428.5,148.9,418.3z"/>
		</g>
		
			<linearGradient id="SVGID_00000110466692259243963130000017425871818063377574_" gradientUnits="userSpaceOnUse" x1="3.9037" y1="551.9719" x2="74.2838" y2="424.7095" gradientTransform="matrix(-0.9266 -6.589472e-03 -0.2352 -0.739 471.3574 725.6301)">
			<stop  offset="0" style="stop-color:#FFFFFF"/>
			<stop  offset="9.948106e-02" style="stop-color:#FFFFFF"/>
			<stop  offset="0.8537" style="stop-color:#26B2EF"/>
		</linearGradient>
		<path style="fill:url(#SVGID_00000110466692259243963130000017425871818063377574_);" d="M289.2,388.7l19-46.6
			c4.1-10.2,15.7-15,25.9-10.9h0c10.2,4.1,15,15.7,10.9,25.9l-19,46.6c-4.1,10.2-15.7,15-25.9,10.9h0
			C290,410.5,285.1,398.9,289.2,388.7z"/>
		
			<linearGradient id="SVGID_00000131350356230201879740000000123288918144149179_" gradientUnits="userSpaceOnUse" x1="-75.0863" y1="568.8641" x2="-4.7065" y2="441.6024" gradientTransform="matrix(-0.9054 -5.866064e-02 -0.2719 -0.6488 488.1357 684.4865)">
			<stop  offset="0" style="stop-color:#FFFFFF"/>
			<stop  offset="9.948106e-02" style="stop-color:#FFFFFF"/>
			<stop  offset="0.8537" style="stop-color:#26B2EF"/>
		</linearGradient>
		<path style="fill:url(#SVGID_00000131350356230201879740000000123288918144149179_);" d="M359.1,375.1l13.4-33
			c4.1-10.2,15.7-15,25.9-10.9h0c10.2,4.1,15,15.7,10.9,25.9l-13.4,33c-4.1,10.2-15.7,15-25.9,10.9l0,0
			C359.9,396.8,355,385.2,359.1,375.1z"/>
	</g>
</g>
</svg>
