<?xml version="1.0" encoding="utf-8"?>
<!-- Generator: Adobe Illustrator 26.0.3, SVG Export Plug-In . SVG Version: 6.00 Build 0)  -->
<svg version="1.1" id="图层_1" xmlns="http://www.w3.org/2000/svg" xmlns:xlink="http://www.w3.org/1999/xlink" x="0px" y="0px"
	 viewBox="0 0 500 500" style="enable-background:new 0 0 500 500;" xml:space="preserve">
<style type="text/css">
	.st0{fill:url(#SVGID_1_);}
	.st1{fill-rule:evenodd;clip-rule:evenodd;fill:url(#SVGID_00000063609774682805697040000015846151116897379204_);}
	.st2{fill:url(#SVGID_00000026151891390478679680000003607698045741610886_);}
	.st3{fill:url(#SVGID_00000034079487739164477090000010992105151052997045_);}
	.st4{fill:url(#SVGID_00000008125203671267623640000006437366521433162403_);}
</style>
<linearGradient id="SVGID_1_" gradientUnits="userSpaceOnUse" x1="201.4857" y1="47.0452" x2="438.4505" y2="313.6137">
	<stop  offset="0.2459" style="stop-color:#FAFAFA"/>
	<stop  offset="0.4701" style="stop-color:#D2D2D2"/>
	<stop  offset="0.6556" style="stop-color:#B9B9B9"/>
	<stop  offset="0.7664" style="stop-color:#AFAFAF"/>
</linearGradient>
<path class="st0" d="M405.4,165.5c-0.1,0-0.3,0-0.4,0c-4.3-46.3-43.2-82.6-90.6-82.6c-50.3,0-91,40.8-91,91
	c0,48.6,38.1,88.3,86.1,90.9v0.1h96c27.5,0,49.8-22.3,49.8-49.8S432.9,165.5,405.4,165.5z"/>
<linearGradient id="SVGID_00000078730849401818239060000011550501428137576621_" gradientUnits="userSpaceOnUse" x1="225.8116" y1="78.5741" x2="367.9474" y2="183.2918">
	<stop  offset="4.977477e-03" style="stop-color:#FFFFFF"/>
	<stop  offset="0.8567" style="stop-color:#F99C00"/>
</linearGradient>
<path style="fill-rule:evenodd;clip-rule:evenodd;fill:url(#SVGID_00000078730849401818239060000011550501428137576621_);" d="
	M372,148.4c-47.2,0-85.5-38.3-85.5-85.5c0-8.8,1.3-17.4,3.8-25.4c0.3-0.8-0.5-1.7-1.3-1.5c-38.9,7.3-68.6,40.9-69.7,81.6
	c-1.4,48.9,38.8,89.2,87.7,88c36.1-0.9,66.6-24.2,78.3-56.4c0.3-0.8-0.4-1.7-1.3-1.6C380,148.2,376,148.4,372,148.4z"/>
<linearGradient id="SVGID_00000129908511897932992630000006419874369400524976_" gradientUnits="userSpaceOnUse" x1="89.0025" y1="162.0767" x2="363.6508" y2="341.0386">
	<stop  offset="0.1491" style="stop-color:#FAFAFA"/>
	<stop  offset="0.818" style="stop-color:#CBCBCB"/>
</linearGradient>
<path style="fill:url(#SVGID_00000129908511897932992630000006419874369400524976_);" d="M349.1,191
	c-14.7-50.1-60.9-86.7-115.7-86.7c-65.8,0-119.3,52.8-120.5,118.3c-30.6,3.6-54.4,29.6-54.4,61.2c0,34.1,27.6,61.7,61.7,61.7H340
	c42.8,0,77.6-34.7,77.6-77.6C417.5,228.3,387.6,195.6,349.1,191z"/>
<g>
	
		<linearGradient id="SVGID_00000080187008919532222970000018018843983817417130_" gradientUnits="userSpaceOnUse" x1="31.2885" y1="517.8734" x2="101.6683" y2="390.6117" gradientTransform="matrix(-0.9054 -5.866064e-02 -0.2719 -0.6488 345.1177 684.4865)">
		<stop  offset="0" style="stop-color:#FFFFFF"/>
		<stop  offset="9.948106e-02" style="stop-color:#FFFFFF"/>
		<stop  offset="0.8537" style="stop-color:#26B2EF"/>
	</linearGradient>
	<path style="fill:url(#SVGID_00000080187008919532222970000018018843983817417130_);" d="M133.7,401.9l13.4-33
		c4.1-10.2,15.7-15,25.9-10.9l0,0c10.2,4.1,15,15.7,10.9,25.9l-13.4,33c-4.1,10.2-15.7,15-25.9,10.9l0,0
		C134.4,423.7,129.5,412.1,133.7,401.9z"/>
	
		<linearGradient id="SVGID_00000065765312310485258540000002576396715108738221_" gradientUnits="userSpaceOnUse" x1="-138.0491" y1="532.847" x2="-67.6684" y2="405.5836" gradientTransform="matrix(-0.9535 5.930829e-02 -0.1886 -0.8531 296.0262 804.8682)">
		<stop  offset="0" style="stop-color:#FFFFFF"/>
		<stop  offset="9.948106e-02" style="stop-color:#FFFFFF"/>
		<stop  offset="0.8537" style="stop-color:#26B2EF"/>
	</linearGradient>
	<path style="fill:url(#SVGID_00000065765312310485258540000002576396715108738221_);" d="M270.3,433l26-63.9
		c4.1-10.2,15.7-15,25.9-10.9h0c10.2,4.1,15,15.7,10.9,25.9l-26,63.9c-4.1,10.2-15.7,15-25.9,10.9h0
		C271,454.8,266.2,443.2,270.3,433z"/>
</g>
</svg>
