<?xml version="1.0" encoding="utf-8"?>
<!-- Generator: Adobe Illustrator 26.0.3, SVG Export Plug-In . SVG Version: 6.00 Build 0)  -->
<svg version="1.1" id="图层_1" xmlns="http://www.w3.org/2000/svg" xmlns:xlink="http://www.w3.org/1999/xlink" x="0px" y="0px"
	 viewBox="0 0 500 500" style="enable-background:new 0 0 500 500;" xml:space="preserve">
<style type="text/css">
	.st0{fill:url(#SVGID_1_);}
	.st1{fill:url(#SVGID_00000002363993778264473100000018413001170487454092_);}
	.st2{fill:#FFD000;}
	.st3{fill:url(#SVGID_00000176019467004121042380000004251762236503937969_);}
	.st4{fill:url(#SVGID_00000122714846487228760990000003583190307569345191_);}
	.st5{fill:url(#SVGID_00000010285925649516747910000012031178790263515014_);}
	.st6{fill:url(#SVGID_00000142863379644044567820000013868985017556931516_);}
</style>
<g>
	
		<linearGradient id="SVGID_1_" gradientUnits="userSpaceOnUse" x1="128.5211" y1="411.4793" x2="198.6914" y2="341.3089" gradientTransform="matrix(1 0 0 -1 0 502)">
		<stop  offset="0" style="stop-color:#F9C30B"/>
		<stop  offset="1" style="stop-color:#FF8800"/>
	</linearGradient>
	<polygon class="st0" points="96,128.2 161,58 231.2,123 166.2,193.2 	"/>
	
		<linearGradient id="SVGID_00000110431196331779811510000002674816070508260249_" gradientUnits="userSpaceOnUse" x1="131.9516" y1="408.0487" x2="202.9632" y2="337.0373" gradientTransform="matrix(1 0 0 -1 0 502)">
		<stop  offset="0" style="stop-color:#F9C30B"/>
		<stop  offset="1" style="stop-color:#FF8800"/>
	</linearGradient>
	
		<rect x="115.8" y="77.8" style="fill:url(#SVGID_00000110431196331779811510000002674816070508260249_);" width="95.6" height="95.6"/>
	
		<ellipse transform="matrix(8.248051e-02 -0.9966 0.9966 8.248051e-02 24.9341 278.2946)" class="st2" cx="163.6" cy="125.6" rx="47.9" ry="47.9"/>
	<g>
		
			<linearGradient id="SVGID_00000033366541991526397980000009196673862872014987_" gradientUnits="userSpaceOnUse" x1="194.6612" y1="31.5971" x2="431.626" y2="298.1656">
			<stop  offset="0.2459" style="stop-color:#FAFAFA"/>
			<stop  offset="0.4701" style="stop-color:#D2D2D2"/>
			<stop  offset="0.6556" style="stop-color:#B9B9B9"/>
			<stop  offset="0.7664" style="stop-color:#AFAFAF"/>
		</linearGradient>
		<path style="fill:url(#SVGID_00000033366541991526397980000009196673862872014987_);" d="M398.6,150.1c-0.1,0-0.3,0-0.4,0
			c-4.3-46.3-43.2-82.6-90.6-82.6c-50.3,0-91,40.8-91,91c0,48.6,38.1,88.3,86.1,90.9v0.1h96c27.5,0,49.8-22.3,49.8-49.8
			S426.1,150.1,398.6,150.1z"/>
		
			<linearGradient id="SVGID_00000111163538843579760740000016577255397357894794_" gradientUnits="userSpaceOnUse" x1="82.1779" y1="146.6287" x2="356.8263" y2="325.5905">
			<stop  offset="0.1491" style="stop-color:#FAFAFA"/>
			<stop  offset="0.818" style="stop-color:#CBCBCB"/>
		</linearGradient>
		<path style="fill:url(#SVGID_00000111163538843579760740000016577255397357894794_);" d="M342.3,175.6
			c-14.7-50.1-60.9-86.7-115.7-86.7c-65.8,0-119.3,52.8-120.5,118.3c-30.6,3.6-54.4,29.6-54.4,61.2c0,34.1,27.6,61.7,61.7,61.7
			h219.8c42.8,0,77.6-34.7,77.6-77.6C410.7,212.8,380.8,180.1,342.3,175.6z"/>
	</g>
	<g>
		
			<linearGradient id="SVGID_00000175295427042341998110000012911070409258282397_" gradientUnits="userSpaceOnUse" x1="31.685" y1="541.6486" x2="102.0647" y2="414.3869" gradientTransform="matrix(-0.9054 -5.866064e-02 -0.2719 -0.6488 345.1177 684.4865)">
			<stop  offset="0" style="stop-color:#FFFFFF"/>
			<stop  offset="9.948106e-02" style="stop-color:#FFFFFF"/>
			<stop  offset="0.8537" style="stop-color:#26B2EF"/>
		</linearGradient>
		<path style="fill:url(#SVGID_00000175295427042341998110000012911070409258282397_);" d="M126.8,386.5l13.4-33
			c4.1-10.2,15.7-15,25.9-10.9h0c10.2,4.1,15,15.7,10.9,25.9l-13.4,33c-4.1,10.2-15.7,15-25.9,10.9h0
			C127.6,408.2,122.7,396.6,126.8,386.5z"/>
		
			<linearGradient id="SVGID_00000007395581813265999850000002121944008082343552_" gradientUnits="userSpaceOnUse" x1="-174.5224" y1="551.9359" x2="-104.1417" y2="424.6725" gradientTransform="matrix(-0.9535 5.930829e-02 -0.1886 -0.8531 296.0262 804.8682)">
			<stop  offset="0" style="stop-color:#FFFFFF"/>
			<stop  offset="9.948106e-02" style="stop-color:#FFFFFF"/>
			<stop  offset="0.8537" style="stop-color:#26B2EF"/>
		</linearGradient>
		<path style="fill:url(#SVGID_00000007395581813265999850000002121944008082343552_);" d="M301.5,414.6l26-63.9
			c4.1-10.2,15.7-15,25.9-10.9l0,0c10.2,4.1,15,15.7,10.9,25.9l-26,63.9c-4.1,10.2-15.7,15-25.9,10.9l0,0
			C302.2,436.3,297.3,424.7,301.5,414.6z"/>
	</g>
</g>
</svg>
