<?xml version="1.0" encoding="utf-8"?>
<!-- Generator: Adobe Illustrator 26.0.3, SVG Export Plug-In . SVG Version: 6.00 Build 0)  -->
<svg version="1.1" id="图层_1" xmlns="http://www.w3.org/2000/svg" xmlns:xlink="http://www.w3.org/1999/xlink" x="0px" y="0px"
	 viewBox="0 0 500 500" style="enable-background:new 0 0 500 500;" xml:space="preserve">
<style type="text/css">
	.st0{fill:url(#SVGID_1_);}
	.st1{fill:url(#SVGID_00000134234833694585870370000017935849658890454710_);}
	.st2{fill:url(#SVGID_00000087379804218364486550000006592100837463165618_);}
	.st3{fill:url(#SVGID_00000073702864605690429770000009245930200225553326_);}
	.st4{fill:url(#SVGID_00000065046359913260620780000008923037553119518374_);}
	.st5{fill:url(#SVGID_00000163044990946213038510000014145662641185021857_);}
</style>
<linearGradient id="SVGID_1_" gradientUnits="userSpaceOnUse" x1="93.6596" y1="195.9238" x2="92.9469" y2="253.81">
	<stop  offset="0" style="stop-color:#FFFFFF"/>
	<stop  offset="9.948106e-02" style="stop-color:#FFFFFF"/>
	<stop  offset="0.8537" style="stop-color:#26B2EF"/>
</linearGradient>
<path class="st0" d="M112.8,235.7c0,10.8-8.8,19.6-19.6,19.6s-19.6-8.8-19.6-19.6s19.6-41.3,19.6-41.3S112.8,224.8,112.8,235.7z"/>
<linearGradient id="SVGID_00000165227008265069247200000007109905135221615509_" gradientUnits="userSpaceOnUse" x1="252.1133" y1="125.2194" x2="249.0383" y2="374.9893">
	<stop  offset="0" style="stop-color:#FFFFFF"/>
	<stop  offset="9.948106e-02" style="stop-color:#FFFFFF"/>
	<stop  offset="0.8537" style="stop-color:#26B2EF"/>
</linearGradient>
<path style="fill:url(#SVGID_00000165227008265069247200000007109905135221615509_);" d="M334.6,296.7c0,46.7-37.9,84.6-84.6,84.6
	s-84.6-37.9-84.6-84.6s84.6-178,84.6-178S334.6,250,334.6,296.7z"/>
<linearGradient id="SVGID_00000000200193437187213840000018038576903048287656_" gradientUnits="userSpaceOnUse" x1="401.1313" y1="305.8232" x2="400.4186" y2="363.7094">
	<stop  offset="0" style="stop-color:#FFFFFF"/>
	<stop  offset="9.948106e-02" style="stop-color:#FFFFFF"/>
	<stop  offset="0.8537" style="stop-color:#26B2EF"/>
</linearGradient>
<path style="fill:url(#SVGID_00000000200193437187213840000018038576903048287656_);" d="M420.2,345.6c0,10.8-8.8,19.6-19.6,19.6
	s-19.6-8.8-19.6-19.6s19.6-41.3,19.6-41.3S420.2,334.7,420.2,345.6z"/>
<linearGradient id="SVGID_00000163773232605406483850000009855348626602420101_" gradientUnits="userSpaceOnUse" x1="338.2174" y1="122.5023" x2="337.9081" y2="147.6299">
	<stop  offset="0" style="stop-color:#FFFFFF"/>
	<stop  offset="9.948106e-02" style="stop-color:#FFFFFF"/>
	<stop  offset="0.8537" style="stop-color:#26B2EF"/>
</linearGradient>
<circle style="fill:url(#SVGID_00000163773232605406483850000009855348626602420101_);" cx="338.1" cy="135.1" r="13.2"/>
<linearGradient id="SVGID_00000030450986938488949400000001484933017187551895_" gradientUnits="userSpaceOnUse" x1="388.8768" y1="219.9552" x2="388.6954" y2="234.6848">
	<stop  offset="0" style="stop-color:#FFFFFF"/>
	<stop  offset="9.948106e-02" style="stop-color:#FFFFFF"/>
	<stop  offset="0.8537" style="stop-color:#26B2EF"/>
</linearGradient>
<circle style="fill:url(#SVGID_00000030450986938488949400000001484933017187551895_);" cx="388.8" cy="227.3" r="7.7"/>
<linearGradient id="SVGID_00000060737834980613824660000010248395042243836824_" gradientUnits="userSpaceOnUse" x1="131.6137" y1="330.9928" x2="131.3043" y2="356.1204">
	<stop  offset="0" style="stop-color:#FFFFFF"/>
	<stop  offset="9.948106e-02" style="stop-color:#FFFFFF"/>
	<stop  offset="0.8537" style="stop-color:#26B2EF"/>
</linearGradient>
<circle style="fill:url(#SVGID_00000060737834980613824660000010248395042243836824_);" cx="131.5" cy="343.5" r="13.2"/>
</svg>
