<?xml version="1.0" encoding="utf-8"?>
<!-- Generator: Adobe Illustrator 26.0.3, SVG Export Plug-In . SVG Version: 6.00 Build 0)  -->
<svg version="1.1" id="图层_1" xmlns="http://www.w3.org/2000/svg" xmlns:xlink="http://www.w3.org/1999/xlink" x="0px" y="0px"
	 viewBox="0 0 500 500" style="enable-background:new 0 0 500 500;" xml:space="preserve">
<style type="text/css">
	.st0{fill:url(#SVGID_1_);}
	.st1{fill:url(#SVGID_00000176038754107621889510000015741925210883945911_);}
	.st2{fill-rule:evenodd;clip-rule:evenodd;fill:url(#SVGID_00000100353852866940191380000001946469447329487550_);}
	.st3{fill:url(#SVGID_00000160903824740330289710000001875041882529915535_);}
	.st4{fill:url(#SVGID_00000119114497414368717540000004601837067777967260_);}
</style>
<g>
	<g>
		<linearGradient id="SVGID_1_" gradientUnits="userSpaceOnUse" x1="194.6612" y1="27.6636" x2="431.626" y2="294.2321">
			<stop  offset="0.2459" style="stop-color:#FAFAFA"/>
			<stop  offset="0.2791" style="stop-color:#EEEEEE"/>
			<stop  offset="0.4458" style="stop-color:#B4B4B4"/>
			<stop  offset="0.5885" style="stop-color:#8A8A8A"/>
			<stop  offset="0.6999" style="stop-color:#707070"/>
			<stop  offset="0.7664" style="stop-color:#666666"/>
		</linearGradient>
		<path class="st0" d="M398.6,146.2c-0.1,0-0.3,0-0.4,0c-4.3-46.3-43.2-82.6-90.6-82.6c-50.3,0-91,40.8-91,91
			c0,48.6,38.1,88.3,86.1,90.9v0.1h96c27.5,0,49.8-22.3,49.8-49.8S426.1,146.2,398.6,146.2z"/>
		
			<linearGradient id="SVGID_00000010297981813373895130000016418392807929118636_" gradientUnits="userSpaceOnUse" x1="82.1779" y1="142.6952" x2="356.8263" y2="321.657">
			<stop  offset="0.1491" style="stop-color:#FAFAFA"/>
			<stop  offset="1" style="stop-color:#808080"/>
		</linearGradient>
		<path style="fill:url(#SVGID_00000010297981813373895130000016418392807929118636_);" d="M342.3,171.6
			C327.7,121.6,281.4,85,226.6,85c-65.8,0-119.3,52.8-120.5,118.3c-30.6,3.6-54.4,29.6-54.4,61.2c0,34.1,27.6,61.7,61.7,61.7h219.8
			c42.8,0,77.6-34.7,77.6-77.6C410.7,208.9,380.8,176.2,342.3,171.6z"/>
	</g>
	
		<linearGradient id="SVGID_00000168090962684688810090000001909696926135956146_" gradientUnits="userSpaceOnUse" x1="227.7426" y1="213.1423" x2="227.1576" y2="429.0343">
		<stop  offset="0.2365" style="stop-color:#FFFFFF"/>
		<stop  offset="0.7783" style="stop-color:#FBB03B"/>
	</linearGradient>
	
		<polygon style="fill-rule:evenodd;clip-rule:evenodd;fill:url(#SVGID_00000168090962684688810090000001909696926135956146_);" points="
		237.6,320.4 294.7,320.4 209.1,436.4 209.1,358.9 160.1,358.9 265.6,216 	"/>
	
		<linearGradient id="SVGID_00000093150542002952043220000013113968225869381310_" gradientUnits="userSpaceOnUse" x1="82.4308" y1="519.4776" x2="152.8105" y2="392.216" gradientTransform="matrix(-0.9054 -5.866064e-02 -0.2719 -0.6488 345.1177 684.4865)">
		<stop  offset="0" style="stop-color:#FFFFFF"/>
		<stop  offset="9.948106e-02" style="stop-color:#FFFFFF"/>
		<stop  offset="0.8537" style="stop-color:#26B2EF"/>
	</linearGradient>
	<path style="fill:url(#SVGID_00000093150542002952043220000013113968225869381310_);" d="M86.9,397.9l13.4-33
		c4.1-10.2,15.7-15,25.9-10.9l0,0c10.2,4.1,15,15.7,10.9,25.9l-13.4,33c-4.1,10.2-15.7,15-25.9,10.9l0,0
		C87.7,419.6,82.8,408,86.9,397.9z"/>
	
		<linearGradient id="SVGID_00000147934629545732133700000005994492765992703899_" gradientUnits="userSpaceOnUse" x1="-169.9338" y1="542.2957" x2="-99.5541" y2="415.0341" gradientTransform="matrix(-0.9054 -5.866064e-02 -0.2719 -0.6488 345.1177 684.4865)">
		<stop  offset="0" style="stop-color:#FFFFFF"/>
		<stop  offset="9.948106e-02" style="stop-color:#FFFFFF"/>
		<stop  offset="0.8537" style="stop-color:#26B2EF"/>
	</linearGradient>
	<path style="fill:url(#SVGID_00000147934629545732133700000005994492765992703899_);" d="M309.2,397.9l13.4-33
		c4.1-10.2,15.7-15,25.9-10.9l0,0c10.2,4.1,15,15.7,10.9,25.9l-13.4,33c-4.1,10.2-15.7,15-25.9,10.9l0,0
		C309.9,419.6,305.1,408,309.2,397.9z"/>
</g>
</svg>
