<?xml version="1.0" encoding="utf-8"?>
<!-- Generator: Adobe Illustrator 26.0.3, SVG Export Plug-In . SVG Version: 6.00 Build 0)  -->
<svg version="1.1" id="图层_1" xmlns="http://www.w3.org/2000/svg" xmlns:xlink="http://www.w3.org/1999/xlink" x="0px" y="0px"
	 viewBox="0 0 500 500" style="enable-background:new 0 0 500 500;" xml:space="preserve">
<style type="text/css">
	.st0{fill:url(#SVGID_1_);}
	.st1{fill:url(#SVGID_00000019664994597745534530000011288506902202340776_);}
	.st2{fill-rule:evenodd;clip-rule:evenodd;fill:url(#SVGID_00000091728552855401096850000016764397077087909789_);}
	.st3{fill:url(#SVGID_00000038405412587770657050000004878487270568750996_);}
	.st4{fill:url(#SVGID_00000008870482721329649470000013682575220111439033_);}
	.st5{fill:url(#SVGID_00000093891972166922710390000009310658556274383020_);}
</style>
<g>
	<linearGradient id="SVGID_1_" gradientUnits="userSpaceOnUse" x1="194.7658" y1="27.7159" x2="431.7306" y2="294.2844">
		<stop  offset="0.2459" style="stop-color:#FAFAFA"/>
		<stop  offset="0.2791" style="stop-color:#EEEEEE"/>
		<stop  offset="0.4458" style="stop-color:#B4B4B4"/>
		<stop  offset="0.5885" style="stop-color:#8A8A8A"/>
		<stop  offset="0.6999" style="stop-color:#707070"/>
		<stop  offset="0.7664" style="stop-color:#666666"/>
	</linearGradient>
	<path class="st0" d="M398.7,146.2c-0.1,0-0.3,0-0.4,0c-4.3-46.3-43.2-82.6-90.6-82.6c-50.3,0-91,40.8-91,91
		c0,48.6,38.1,88.3,86.1,90.9v0.1h96c27.5,0,49.8-22.3,49.8-49.8S426.2,146.2,398.7,146.2z"/>
	
		<linearGradient id="SVGID_00000049191593517384838990000012753391617328262564_" gradientUnits="userSpaceOnUse" x1="82.2825" y1="142.7475" x2="356.9309" y2="321.7093">
		<stop  offset="0.1491" style="stop-color:#FAFAFA"/>
		<stop  offset="1" style="stop-color:#808080"/>
	</linearGradient>
	<path style="fill:url(#SVGID_00000049191593517384838990000012753391617328262564_);" d="M342.4,171.7
		C327.8,121.6,281.5,85,226.7,85c-65.8,0-119.3,52.8-120.5,118.3c-30.6,3.6-54.4,29.6-54.4,61.2c0,34.1,27.6,61.7,61.7,61.7h219.8
		c42.8,0,77.6-34.7,77.6-77.6C410.8,209,380.9,176.2,342.4,171.7z"/>
</g>
<linearGradient id="SVGID_00000180345105747391911060000003671968376853904042_" gradientUnits="userSpaceOnUse" x1="227.8472" y1="213.1946" x2="227.2622" y2="429.0866">
	<stop  offset="0.2365" style="stop-color:#FFFFFF"/>
	<stop  offset="0.7783" style="stop-color:#FBB03B"/>
</linearGradient>
<polygon style="fill-rule:evenodd;clip-rule:evenodd;fill:url(#SVGID_00000180345105747391911060000003671968376853904042_);" points="
	237.7,320.5 294.8,320.5 209.2,436.4 209.2,359 160.2,359 265.8,216.1 "/>
<linearGradient id="SVGID_00000084505891575643772440000001568764592440564378_" gradientUnits="userSpaceOnUse" x1="82.3369" y1="519.4055" x2="152.7167" y2="392.1439" gradientTransform="matrix(-0.9054 -5.866064e-02 -0.2719 -0.6488 345.1177 684.4865)">
	<stop  offset="0" style="stop-color:#FFFFFF"/>
	<stop  offset="9.948106e-02" style="stop-color:#FFFFFF"/>
	<stop  offset="0.8537" style="stop-color:#26B2EF"/>
</linearGradient>
<path style="fill:url(#SVGID_00000084505891575643772440000001568764592440564378_);" d="M87,397.9l13.4-33
	c4.1-10.2,15.7-15,25.9-10.9h0c10.2,4.1,15,15.7,10.9,25.9l-13.4,33c-4.1,10.2-15.7,15-25.9,10.9h0C87.8,419.7,82.9,408.1,87,397.9z
	"/>
<linearGradient id="SVGID_00000103261514694828536550000011102873480692480909_" gradientUnits="userSpaceOnUse" x1="-170.027" y1="542.2225" x2="-99.6483" y2="414.9627" gradientTransform="matrix(-0.8541 -0.1845 -0.3608 -0.4309 399.942 550.0471)">
	<stop  offset="0" style="stop-color:#FFFFFF"/>
	<stop  offset="9.948106e-02" style="stop-color:#FFFFFF"/>
	<stop  offset="0.8537" style="stop-color:#26B2EF"/>
</linearGradient>
<path style="fill:url(#SVGID_00000103261514694828536550000011102873480692480909_);" d="M322.7,365L322.7,365
	c4.1-10.2,15.7-15,25.9-10.9h0c10.2,4.1,15,15.7,10.9,25.9l0,0c-4.1,10.2-15.7,15-25.9,10.9h0C323.5,386.7,318.6,375.1,322.7,365z"
	/>
<linearGradient id="SVGID_00000183936051247905600940000008394689252508196269_" gradientUnits="userSpaceOnUse" x1="-78.7827" y1="384.1826" x2="-8.404" y2="256.9228" gradientTransform="matrix(-0.8541 -0.1845 -0.3608 -0.4309 399.942 550.0471)">
	<stop  offset="0" style="stop-color:#FFFFFF"/>
	<stop  offset="9.948106e-02" style="stop-color:#FFFFFF"/>
	<stop  offset="0.8537" style="stop-color:#26B2EF"/>
</linearGradient>
<path style="fill:url(#SVGID_00000183936051247905600940000008394689252508196269_);" d="M301.8,416.2L301.8,416.2
	c4.1-10.2,15.7-15,25.9-10.9l0,0c10.2,4.1,15,15.7,10.9,25.9l0,0c-4.1,10.2-15.7,15-25.9,10.9l0,0
	C302.6,438,297.7,426.4,301.8,416.2z"/>
</svg>
