<?xml version="1.0" encoding="utf-8"?>
<!-- Generator: Adobe Illustrator 26.0.3, SVG Export Plug-In . SVG Version: 6.00 Build 0)  -->
<svg version="1.1" id="图层_1" xmlns="http://www.w3.org/2000/svg" xmlns:xlink="http://www.w3.org/1999/xlink" x="0px" y="0px"
	 viewBox="0 0 500 500" style="enable-background:new 0 0 500 500;" xml:space="preserve">
<style type="text/css">
	.st0{fill:#E99311;}
</style>
<path class="st0" d="M449.4,284.9L449.4,284.9c2.7,0.6,5.4-1.4,5.6-4.2c6.8-93.1-55.3-176-140.4-193.6
	c-85.2-17.6-178,33.3-201.2,114.6c-25.6,89.7,24.7,139.4,31.3,148.5C95.8,339.7,48.6,271.2,50.6,217h0c-2.7-0.6-5.4,1.4-5.6,4.2
	c-6.7,88.5,46,166.1,124.7,188.8c-0.3,0,21.4,4.6,21.1,4.6l20.3,1.5c0,0,56.6,4.5,115.4-33.9c-0.3,0-0.7,0-1,0
	c27.6-20.4,49.6-48,60.2-81.1c27.1-83.9-23.6-140.3-30.1-149.3C407.7,162.7,451.5,230.9,449.4,284.9z M290.6,252.9
	c-2.4,23.6-24.1,40-47.2,36.3c-0.9-0.2-1.8-0.3-2.7-0.5c-21.9-5.2-35.5-27.1-30.3-49c5.1-21.6,26.7-35.4,48.7-30.4
	C278.9,213.6,292.6,232.6,290.6,252.9z"/>
</svg>
