<?xml version="1.0" encoding="utf-8"?>
<!-- Generator: Adobe Illustrator 26.0.3, SVG Export Plug-In . SVG Version: 6.00 Build 0)  -->
<svg version="1.1" xmlns="http://www.w3.org/2000/svg" xmlns:xlink="http://www.w3.org/1999/xlink" x="0px" y="0px"
	 viewBox="0 0 500 500" style="enable-background:new 0 0 500 500;" xml:space="preserve">
<style type="text/css">
	.st0{fill:#FFD700;}
</style>
<g>
	<path class="st0" d="M137.7,310.5l57.7-77.4c5.2-7,5.5-16.6,0.8-23.9L139,94.3c-6.2-9.6-19.1-12.3-28.6-5.9
		c-9.5,6.3-12.2,19.2-5.9,28.8l49.2,102.7l-56.3,75.4c-4.5,6-5.4,14-2.4,20.8l26.5,60.9l45-0.1L137.7,310.5z"/>
	<path class="st0" d="M244.4,310.5l57.7-77.4c5.2-7,5.5-16.6,0.8-23.9l-57.2-115c-6.2-9.5-18.9-12.2-28.4-6c0,0-0.1,0.1-0.1,0.1
		c-9.5,6.4-12.2,19.2-5.9,28.8l49.2,102.7l-56.2,75.4c-4.5,6-5.4,14-2.4,20.8l26.4,60.7l45-0.1L244.4,310.5z"/>
	<path class="st0" d="M356.7,310.5l57.7-77.4c5.2-7,5.5-16.6,0.8-23.9l-57.2-115c-6.2-9.5-18.9-12.2-28.4-6c0,0-0.1,0.1-0.1,0.1
		c-9.5,6.4-12.2,19.2-5.9,28.8l49.2,102.7l-56.2,75.4c-4.5,6-5.4,14-2.4,20.8l26.3,60.5l45-0.1L356.7,310.5z"/>
	<path class="st0" d="M419,415.1H81c-10.6,0-19.2-8.6-19.2-19.2v0c0-10.6,8.6-19.2,19.2-19.2h338c10.6,0,19.2,8.6,19.2,19.2v0
		C438.2,406.4,429.6,415.1,419,415.1z"/>
</g>
</svg>
