<?xml version="1.0" encoding="utf-8"?>
<!-- Generator: Adobe Illustrator 26.0.3, SVG Export Plug-In . SVG Version: 6.00 Build 0)  -->
<svg version="1.1" id="图层_1" xmlns="http://www.w3.org/2000/svg" xmlns:xlink="http://www.w3.org/1999/xlink" x="0px" y="0px"
	 viewBox="0 0 500 500" style="enable-background:new 0 0 500 500;" xml:space="preserve">
<style type="text/css">
	.st0{fill:#A67C52;}
	.st1{fill:#67C23A;}
	.st2{fill:#AFF3D8;}
	.st3{fill:#F0F9EB;}
	.st4{fill:#FF7B15;}
	.st5{fill:#FB9B3B;}
</style>
<g>
	<path class="st0" d="M254.4,456L254.4,456c-9.7,0-17.5-7.9-17.5-17.5V184.5c0-9.7,7.9-17.5,17.5-17.5h0c9.7,0,17.5,7.9,17.5,17.5
		v253.9C271.9,448.1,264.1,456,254.4,456z"/>
</g>
<path class="st1" d="M397,315.3l-51.2-68.5l-15.1-20.2c-25-5.1-43.8-27.1-43.8-53.6c0-1.6,0.1-3.2,0.2-4.7l-8.8-11.8
	c-14.8-19.9-44-19.9-58.8,0L152,246.7l-51.2,68.5c-18.7,25-1.3,61.2,29.4,61.2h118.6h118.6C398.3,376.5,415.7,340.3,397,315.3z"/>
<path class="st2" d="M357.9,224.6c-12.6,3.9-27.2,3.4-42-3.4c-10-4.7-18.2-12.7-22.9-22.7c-8.9-18.8-7.4-37.4,0.4-52l-26.4-32
	c-9.4-11.4-26.9-11.4-36.3,0l-58.7,71.1l-40.6,49.2c-14.8,18-1,43.9,23.3,43.9h94h94c24.4,0,38.1-26,23.3-43.9L357.9,224.6z"/>
<path class="st3" d="M315,127.5l-18.7-27.4l-32.7-48c-7.2-10.6-21.3-10.6-28.5,0l-32.7,48l-24.8,36.4c-9.1,13.3-0.6,32.5,14.3,32.5
	h57.5h38.4C289.6,151.2,300.1,136,315,127.5z"/>
<path class="st4" d="M388.6,124.1c-6.9,3-11.4,7.8-14.1,13c-2.1,4-7.9,3.5-9.2-0.7c-3.6-11.4-3.1-23.9-0.9-39.2
	c0.6-3.9-3.4-6.9-7-5.3c-23,10.2-28.7,32.8-30.7,50.2c-0.7,5.7-9,6-9.9,0.3c-0.2-1.2-0.4-2.4-0.5-3.6c-0.5-4.2-5.6-5.9-8.5-2.9
	c-6.8,6.7-11,17.3-12,26.5c-3.3,30.2,18.6,54.9,47.9,58.2c29.3,3.2,54.8-16.3,58.1-46.6c1.8-16.2-7.6-23.8-6.1-44.8
	C395.9,125.2,392.1,122.6,388.6,124.1z"/>
<path class="st5" d="M361.9,180.9c-2.1,1-3.5,2.5-4.4,4c-0.8,1.4-2.9,1.2-3.3-0.3c-1.1-3.7-0.9-7.7-0.2-12.6
	c0.2-1.4-1.2-2.5-2.5-1.9c-7.2,3.3-9.3,10.3-10,16c-0.3,2.1-3.3,2.1-3.6,0c0,0,0-0.1,0-0.1c-0.2-1.5-2-2.1-3.1-1
	c-2.2,2.3-3.5,5.7-3.8,8.7c-1.1,10.1,6.2,18.5,16.1,19.5c9.8,1.1,18.4-5.5,19.5-15.6c0.6-5.4-2.5-7.9-2.1-14.9
	C364.5,181.3,363.2,180.3,361.9,180.9z"/>
</svg>
