<?xml version="1.0" encoding="utf-8"?>
<!-- Generator: Adobe Illustrator 26.0.3, SVG Export Plug-In . SVG Version: 6.00 Build 0)  -->
<svg version="1.1" xmlns="http://www.w3.org/2000/svg" xmlns:xlink="http://www.w3.org/1999/xlink" x="0px" y="0px"
	 viewBox="0 0 500 500" style="enable-background:new 0 0 500 500;" xml:space="preserve">
<style type="text/css">
	.st0{fill:#F7931E;}
	.st1{fill:#8CC5FF;}
	.st2{fill:#34CA9D;}
	.st3{fill:#F2F2F2;}
	.st4{fill:#282D33;}
	.st5{fill:#E6E6E6;}
	.st6{fill:#999999;}
</style>
<g>
	<path class="st0" d="M132,73.6C97.2,58.2,56.6,74,41.2,108.8c-15.3,34.8,0.4,75.4,35.2,90.8c34.8,15.3,75.4-0.4,90.8-35.2
		C182.5,129.6,166.7,88.9,132,73.6L132,73.6z"/>
	<path class="st1" d="M248.3,394.3c-22.4,0.1-44.6-4.6-65.1-13.6C113.1,349.8,74.2,274,90,199c15.8-75,82.1-128.6,158.7-128.5
		c54.7,0.1,105.6,27.8,135.4,73.6c29.8,45.8,34.6,103.5,12.7,153.6C370.9,356.4,312.6,394.4,248.3,394.3L248.3,394.3z M248.3,394.3"
		/>
	<path class="st2" d="M409.3,250.9l-21.4,16.6L349.3,300l-1.7-31.5l-25,4.5l-2.8-29l-17.2,9.2l-5-3.8l-14.8-14.9l-4.7,20.2
		l11.4,11.4l-49.8,48.2l-13.5,2.1v-26l9.7-39.3l-17.7-8.6l-1.8-16.9l22.4-23.5l16.6,3.1l6.6,10.2l24.6,4.1l-18.5-24.1l-18.8-12.3
		l1.6-6.6l24.6-2.7l-2.7-16.4l27.8-9.3l18,16.8l39.9,4.5c0,0,17.8-1.4,37.6-2.7C408.3,193,412.9,222.2,409.3,250.9L409.3,250.9z"/>
	<path class="st2" d="M204.2,76.4l-14,10.3L165.2,106c-0.7,0.5-1,1.4-0.9,2.2l2.9,19.9c0.2,0.8,0.7,1.5,1.4,1.8
		c0.8,0.3,1.6,0.2,2.3-0.2l14.2-9.9l7.7,27.5l-44.9,14.6l-19.1-6.3c-0.9-0.3-1.8,0-2.5,0.6l-8.8,9.4c-0.5,0.6-0.8,1.4-0.6,2.2
		l5.5,20.8L106.8,171l-2.6-9.2C123.1,119.7,159.8,88.4,204.2,76.4L204.2,76.4z"/>
	<path class="st2" d="M118.8,245.8l-1.8-29.8l25.9-23.6l22.9,51.4l-61.5,52v-18l14-31.1C118.5,246.5,118.7,246.2,118.8,245.8
		L118.8,245.8z"/>
	<path class="st3" d="M219.3,135.8L218,95.6c28.1-1.6,44.7,2.6,50.9,4.6l-20.2,27.6L219.3,135.8z"/>
	<path class="st4" d="M118,430.7c-13,0-24.2-2.7-33-8.4c-4.4-2.8-4.9-9.1-1.1-12.7l0,0c2.8-2.6,6.9-3,10.2-0.9
		c34.2,21.8,132-16.7,234.4-114.5c49.2-46.8,88.6-97.7,111.2-143.4c21.1-42.5,24.6-75.5,10.3-90.7C433.8,43,392.3,48.7,341.2,74.8
		c-4,2-8.8,0.5-10.9-3.4l0,0c-2.2-4-0.6-9.1,3.5-11.1C393.2,29.8,439.7,25.6,461.9,49c19.8,20.8,17.2,59.6-7.5,109.3
		C431,205.4,390.3,258,339.7,306.1C258.1,384.1,172.1,430.7,118,430.7L118,430.7z M118,430.7"/>
	<path class="st5" d="M140.3,466c-17.1,0-32.6-10.3-39.2-26.1c-6.6-15.8-2.9-34.1,9.2-46.2c12.1-12.1,30.4-15.7,46.2-9.2
		c15.8,6.6,26.2,22,26.1,39.2C182.6,447,163.7,466,140.3,466L140.3,466z"/>
	<path class="st6" d="M148.3,423.6c-5.4,0-10.3-3.2-12.4-8.2c-2.1-5-0.9-10.7,2.9-14.6c3.8-3.8,9.6-5,14.6-2.9
		c5,2.1,8.2,6.9,8.2,12.4C161.7,417.6,155.7,423.6,148.3,423.6L148.3,423.6z"/>
	<path class="st6" d="M165.7,437.4c-2.7,0-5.1-1.6-6.2-4.1c-1-2.5-0.5-5.4,1.4-7.3c1.9-1.9,4.8-2.5,7.3-1.4c2.5,1,4.1,3.5,4.1,6.2
		C172.4,434.4,169.4,437.4,165.7,437.4L165.7,437.4z"/>
	<path class="st4" d="M55.5,405.3c-0.1-0.1-0.2-0.2-0.3-0.3c-4-3-4.3-9-0.6-12.5l0,0c2.9-2.7,7.3-2.9,10.4-0.6c0,0,0.1,0.1,0.1,0.1
		c3.2,2.4,4.2,6.8,2.4,10.3l0,0C65.2,406.9,59.5,408.3,55.5,405.3z"/>
	<path class="st4" d="M32.5,377.5c-0.1-0.1-0.1-0.3-0.2-0.4c-2-4.7,0.9-10,5.9-11.1h0c3.9-0.8,7.7,1.2,9.3,4.9c0,0.1,0,0.1,0.1,0.2
		c1.5,3.5,0.3,7.6-2.9,9.8l0,0C40.4,383.8,34.5,382.2,32.5,377.5z"/>
	<path class="st4" d="M25.7,341.3c-0.1-0.1-0.1-0.3-0.2-0.4c-2-4.7,0.9-10,5.9-11.1h0c3.9-0.8,7.7,1.2,9.3,4.9c0,0.1,0,0.1,0.1,0.2
		c1.5,3.5,0.3,7.6-2.9,9.8l0,0C33.6,347.6,27.7,346,25.7,341.3z"/>
	<path class="st4" d="M32.5,307.6c-0.1-0.1-0.1-0.3-0.2-0.4c-2-4.7,0.9-10,5.9-11.1h0c3.9-0.8,7.7,1.2,9.3,4.9c0,0.1,0,0.1,0.1,0.2
		c1.5,3.5,0.3,7.6-2.9,9.8l0,0C40.4,313.9,34.5,312.3,32.5,307.6z"/>
	<path class="st4" d="M47.1,269.7c-0.1-0.1-0.1-0.3-0.2-0.4c-2-4.7,0.9-10,5.9-11.1h0c3.9-0.8,7.7,1.2,9.3,4.9c0,0.1,0,0.1,0.1,0.2
		c1.5,3.5,0.3,7.6-2.9,9.8l0,0C55,276.1,49.1,274.4,47.1,269.7z"/>
</g>
</svg>
