<?xml version="1.0" encoding="utf-8"?>
<!-- Generator: Adobe Illustrator 26.0.3, SVG Export Plug-In . SVG Version: 6.00 Build 0)  -->
<svg version="1.1" id="图层_1" xmlns="http://www.w3.org/2000/svg" xmlns:xlink="http://www.w3.org/1999/xlink" x="0px" y="0px"
	 viewBox="0 0 500 500" style="enable-background:new 0 0 500 500;" xml:space="preserve">
<style type="text/css">
	.st0{fill:#E3E3E3;}
	.st1{fill:#F6F6F6;}
	.st2{fill:#4FC0F2;}
</style>
<path class="st0" d="M61,190.3c0.1,0,0.3,0,0.4,0c4.3-46.8,43.7-83.4,91.6-83.4c50.8,0,92,41.2,92,92c0,49.1-38.5,89.3-87,91.9v0.1
	H61c-27.8,0-50.3-22.5-50.3-50.3S33.2,190.3,61,190.3z"/>
<path class="st0" d="M418.9,190.3c-0.1,0-0.3,0-0.4,0c-4.3-46.8-43.7-83.4-91.6-83.4c-50.8,0-92,41.2-92,92
	c0,49.1,38.5,89.3,87,91.9v0.1h97c27.8,0,50.3-22.5,50.3-50.3S446.7,190.3,418.9,190.3z"/>
<path class="st1" d="M348,145c-14.8-50.6-61.6-87.6-117-87.6c-66.5,0-120.6,53.3-121.8,119.6c-31,3.6-55,30-55,61.9
	c0,34.4,27.9,62.3,62.3,62.3h222.2c43.3,0,78.4-35.1,78.4-78.4C417.1,182.6,386.9,149.6,348,145z"/>
<path class="st2" d="M159.5,324.1h-17.9l8.9-15.4c2.8-4.8,1.1-10.9-3.6-13.6s-10.9-1.1-13.6,3.6l-8.9,15.4l-8.9-15.4
	c-2.9-4.7-9.1-6.1-13.7-3.1c-4.4,2.8-5.9,8.5-3.5,13.1l8.9,15.4H89.4c-5.5,0-10,4.4-10,9.9s4.4,10,9.9,10c0,0,0,0,0,0h17.9
	l-8.9,15.4c-2.6,4.9-0.7,10.9,4.2,13.5c4.6,2.4,10.3,0.9,13.1-3.5l8.9-15.4l8.9,15.4c2.7,4.8,8.8,6.4,13.6,3.6
	c4.8-2.7,6.4-8.8,3.7-13.6l-8.9-15.4h17.9c5.5,0,10-4.4,10-9.9C169.5,328.5,165,324.1,159.5,324.1z"/>
<path class="st2" d="M387.2,324.1h-17.9l8.9-15.4c2.6-4.9,0.7-10.9-4.2-13.5c-4.6-2.4-10.3-0.9-13.1,3.5l-8.9,15.4l-8.9-15.4
	c-2.8-4.8-8.8-6.4-13.6-3.6s-6.4,8.8-3.6,13.6l8.9,15.4H317c-5.5,0-10,4.4-10,9.9s4.4,10,9.9,10c0,0,0,0,0,0h17.9l-8.9,15.4
	c-2.6,4.9-0.7,10.9,4.2,13.5c4.6,2.4,10.3,0.9,13.1-3.5l8.9-15.4l8.9,15.4c2.7,4.8,8.8,6.4,13.6,3.6c4.8-2.7,6.4-8.8,3.7-13.6
	l-8.9-15.4h17.9c5.5,0,10-4.4,10-9.9C397.1,328.5,392.7,324.1,387.2,324.1C387.2,324.1,387.2,324.1,387.2,324.1z"/>
<path class="st2" d="M264.7,345c5.5,0,10-4.5,9.9-10c0-1.7-0.5-3.4-1.3-5l-16.9-29.2h33.8c5.5,0,9.9-4.5,9.9-9.9s-4.5-9.9-9.9-9.9
	h-33.8l16.9-29.2c2.6-4.9,0.7-10.9-4.2-13.5c-4.6-2.4-10.3-0.9-13.1,3.5L239.1,271l-16.9-29.2c-2.7-4.8-8.8-6.4-13.6-3.6
	c-4.8,2.7-6.4,8.8-3.6,13.6l16.9,29.2h-33.8c-5.5,0-9.9,4.5-9.9,9.9s4.5,9.9,9.9,9.9l0,0h33.8L205,330.1c-2.6,4.9-0.7,10.9,4.2,13.5
	c4.6,2.4,10.3,0.9,13.1-3.5l16.9-29.2L256,340C257.8,343.1,261.1,345,264.7,345z"/>
</svg>
