<?xml version="1.0" encoding="utf-8"?>
<!-- Generator: Adobe Illustrator 26.0.3, SVG Export Plug-In . SVG Version: 6.00 Build 0)  -->
<svg version="1.1" id="图层_1" xmlns="http://www.w3.org/2000/svg" xmlns:xlink="http://www.w3.org/1999/xlink" x="0px" y="0px"
	 viewBox="0 0 500 500" style="enable-background:new 0 0 500 500;" xml:space="preserve">
<style type="text/css">
	.st0{fill:#409EFF;}
	.st1{fill:#66B1FF;}
</style>
<path class="st0" d="M438.8,278.4h-69.1V51.6c0-8-6.5-14.4-14.4-14.4l0,0H140.9c-8,0-14.4,6.5-14.4,14.4v226.9H61.2
	c-5.1,0-9.2,4.1-9.3,9.2c0,2.7,1.1,5.3,3.2,7l190.2,166.5c2.7,2.4,6.8,2.4,9.5,0l190.2-166.5c3.8-3.4,4.2-9.2,0.8-13
	C444,279.6,441.5,278.4,438.8,278.4z"/>
<g>
	<path class="st1" d="M302.6,239.5c15.4-4,25-15.6,29.1-21.5l14.4,15.4c-7,9.5-16,17.4-26.4,23.1c-14.4,7.9-27.7,7.5-33.2,7.4
		c-5.9-0.2-31.3-0.7-50.2-20.2c-19-19.7-19.9-44.2-19.9-53c0-19.7,7.3-36.6,20.3-50.8c2.9-3.2,10.9-10.7,22-15.8
		c18.5-8.5,35.6-5.5,40.4-4.6c4.4,0.9,17.4,3.8,30.2,14.1c7.4,6,14,14.1,16.9,18.6L331.5,168c-3.3-5.6-14.8-19.2-31.7-23.5
		c-23.7-6.1-58.8,7.8-59.1,47.1C240.4,230.1,274.3,247,302.6,239.5z"/>
	<path class="st1" d="M181.2,150.1c-7.2,0.2-14.2-2.6-19.5-7.6c-5.1-4.8-8-11.5-7.9-18.5c0-7.3,2.6-13.5,7.9-18.6
		c5.1-5,12-7.8,19.1-7.7c7.9,0,14.4,2.4,19.5,7.4c5.1,4.9,7.8,11.7,7.6,18.7c0.2,7.1-2.5,13.9-7.6,18.9
		C195.2,147.6,188.3,150.3,181.2,150.1z"/>
	<path class="st0" d="M180.8,109.8c-3.8,0-7,1.3-9.6,4c-2.6,2.7-3.8,6-3.8,10c0,4,1.3,7.3,3.8,10s5.7,4,9.6,4c3.8,0,7-1.3,9.6-4
		c2.6-2.7,4-6.3,3.9-10.1c0.1-3.7-1.2-7.3-3.8-10C187.9,111.2,184.4,109.8,180.8,109.8z"/>
</g>
</svg>
