<?xml version="1.0" encoding="utf-8"?>
<!-- Generator: Adobe Illustrator 26.0.3, SVG Export Plug-In . SVG Version: 6.00 Build 0)  -->
<svg version="1.1" xmlns="http://www.w3.org/2000/svg" xmlns:xlink="http://www.w3.org/1999/xlink" x="0px" y="0px"
	 viewBox="0 0 500 500" style="enable-background:new 0 0 500 500;" xml:space="preserve">
<style type="text/css">
	.st0{fill:#E9E9E9;}
</style>
<path class="st0" d="M209.7,433.6c-18.4,0-34.7-2.7-47.4-5.8c-8.2-2-13.1-9.8-10.9-17.4c2.2-7.6,10.6-12.1,18.9-10.1
	c20.3,5,51.5,8.6,84.7-2.2c17.6-5.8,44.2-14.5,56-37.5c7.7-15.1,10.7-38.8-0.9-55.3c-12.3-17.5-32.7-21.6-56.3-26.3
	c-26-5.2-55.4-11.1-74.9-37.2c-28-37.5-13-83.6-8.9-91.1c13.2-24.2,35.1-42.8,63.4-53.7c28.1-10.9,60.5-13.4,93.7-7.4
	c8.4,1.5,13.8,9,12.1,16.7c-1.7,7.7-9.8,12.7-18.2,11.1c-54.1-9.9-102.4,7.9-123.2,45.6c-1,2.6-13,36.6,6.6,62.8
	c12.5,16.8,32.7,20.8,56,25.5c26.5,5.3,56.5,11.3,75.7,38.7c18.1,25.7,14.5,60.1,2.9,82.8c-17.2,33.8-52.5,45.3-73.6,52.2
	C245.8,431.3,226.8,433.6,209.7,433.6z"/>
</svg>
