<?xml version="1.0" encoding="utf-8"?>
<!-- Generator: Adobe Illustrator 26.0.3, SVG Export Plug-In . SVG Version: 6.00 Build 0)  -->
<svg version="1.1" id="图层_1" xmlns="http://www.w3.org/2000/svg" xmlns:xlink="http://www.w3.org/1999/xlink" x="0px" y="0px"
	 viewBox="0 0 500 500" style="enable-background:new 0 0 500 500;" xml:space="preserve">
<style type="text/css">
	.st0{fill:#E3E3E3;}
	.st1{fill:#F6F6F6;}
	.st2{fill-rule:evenodd;clip-rule:evenodd;fill:#F7AD44;}
	.st3{fill:#F15A24;}
	.st4{fill:#F7931E;}
	.st5{fill:#1088E2;}
	.st6{fill:#0391FF;}
	.st7{fill:#0396FF;}
	.st8{fill:#3FA9F5;}
	.st9{fill:#ABDCFF;}
</style>
<path class="st0" d="M239.3,295.1c0.1,0,0.2,0,0.2,0c2.6-27.6,25.8-49.3,54.1-49.3c30,0,54.3,24.3,54.3,54.3
	c0,29-22.7,52.7-51.4,54.2v0.1h-57.3c-16.4,0-29.7-13.3-29.7-29.7C209.6,308.4,222.9,295.1,239.3,295.1z"/>
<path class="st0" d="M450.7,295.1c-0.1,0-0.2,0-0.2,0c-2.6-27.6-25.8-49.3-54.1-49.3c-30,0-54.3,24.3-54.3,54.3
	c0,29,22.7,52.7,51.4,54.2v0.1h57.3c16.4,0,29.7-13.3,29.7-29.7C480.4,308.4,467.1,295.1,450.7,295.1z"/>
<path class="st1" d="M408.8,268.4c-8.8-29.9-36.3-51.7-69.1-51.7c-39.3,0-71.2,31.5-71.9,70.6c-18.3,2.1-32.5,17.7-32.5,36.5
	c0,20.3,16.5,36.8,36.8,36.8h131.2c25.6,0,46.3-20.7,46.3-46.3C449.6,290.6,431.8,271.1,408.8,268.4z"/>
<polygon class="st2" points="341.6,350.5 381.9,350.5 321.4,432.4 321.4,377.7 286.7,377.7 361.4,276.7 "/>
<polygon class="st2" points="257.3,372.8 278.8,372.8 246.5,416.5 246.5,387.3 228,387.3 267.8,333.4 "/>
<polygon class="st2" points="419.1,376.7 440.7,376.7 408.3,420.5 408.3,391.2 389.9,391.2 429.7,337.3 "/>
<g>
	<path class="st3" d="M157,41.9L50.2,378.4c0.3,0.1,0.6,0.2,0.9,0.3h0c9.7,3.1,20.1-2.3,23.1-12.1L174.7,47.4L157,41.9z"/>
	<path class="st4" d="M139.5,36.4L39.1,355.6c-3,9.4,2,19.4,11.1,22.8L157,41.9L139.5,36.4z"/>
	<polygon class="st5" points="174.3,47.7 107.5,260.1 156.5,235.2 211.6,60.4 	"/>
	<polygon class="st6" points="211.6,60.4 156.5,235.2 207.3,209.4 250.1,73.5 	"/>
	<polygon class="st7" points="250.1,73.5 207.3,209.4 258.6,183.3 289,86.7 	"/>
	<polygon class="st8" points="289,86.7 258.6,183.3 319.7,152.3 335.4,102.5 	"/>
	<path class="st9" d="M353.1,108.5l-17.7-6l-15.7,49.8l35.3-17.9C366.1,128.8,364.9,112.5,353.1,108.5z"/>
</g>
</svg>
