<?xml version="1.0" encoding="utf-8"?>
<!-- Generator: Adobe Illustrator 26.0.3, SVG Export Plug-In . SVG Version: 6.00 Build 0)  -->
<svg version="1.1" id="图层_1" xmlns="http://www.w3.org/2000/svg" xmlns:xlink="http://www.w3.org/1999/xlink" x="0px" y="0px"
	 viewBox="0 0 500 500" style="enable-background:new 0 0 500 500;" xml:space="preserve">
<style type="text/css">
	.st0{fill:#8C6239;}
	.st1{fill:#754C24;}
	.st2{fill:#C69C6D;}
	.st3{fill:#FBB03B;}
	.st4{fill:#603813;}
	.st5{fill:#A67C52;}
</style>
<polygon class="st0" points="140.1,467.3 297.8,467.3 261.4,262.2 "/>
<polygon class="st1" points="308.4,62.4 224.7,118.9 226.5,256.7 261.4,262.2 297.8,467.3 482.6,467.3 "/>
<path class="st2" d="M257.9,69.5c7.6-10.2,5.4-24.7-4.8-32.3c-10.2-7.6-24.7-5.4-32.3,4.8c-0.1,0.2-0.2,0.3-0.4,0.5
	c-7.3,10.4-4.8,24.8,5.7,32.1C236.4,81.8,250.4,79.5,257.9,69.5z"/>
<path class="st2" d="M171.3,319.4c7.6-10.2,5.4-24.7-4.8-32.3c-10.2-7.6-24.7-5.4-32.3,4.8c-0.1,0.2-0.2,0.3-0.4,0.5
	c-7.3,10.4-4.8,24.8,5.7,32.1C149.8,331.7,163.8,329.4,171.3,319.4z"/>
<path class="st3" d="M199.2,123.4c10.8-14.1,8.2-34.2-5.8-45.1c-14.1-10.8-34.2-8.2-45.1,5.8c-0.4,0.5-0.8,1.1-1.2,1.7
	c-9.9,14.7-6,34.7,8.7,44.6C169.9,139.9,188.9,136.9,199.2,123.4z"/>
<circle class="st4" cx="142.2" cy="207.3" r="43.9"/>
<path class="st5" d="M109.3,341.1c-26-18.7-62.2-12.9-80.9,13.1s-12.9,62.2,13.1,80.9s62.2,12.9,80.9-13.1
	C141.1,396,135.3,359.8,109.3,341.1L109.3,341.1z"/>
</svg>
