<?xml version="1.0" encoding="utf-8"?>
<!-- Generator: Adobe Illustrator 26.0.3, SVG Export Plug-In . SVG Version: 6.00 Build 0)  -->
<svg version="1.1" id="图层_1" xmlns="http://www.w3.org/2000/svg" xmlns:xlink="http://www.w3.org/1999/xlink" x="0px" y="0px"
	 viewBox="0 0 500 500" style="enable-background:new 0 0 500 500;" xml:space="preserve">
<style type="text/css">
	.st0{fill:#F16524;}
	.st1{fill:#FF7B15;}
	.st2{fill:#FB9B3B;}
</style>
<path class="st0" d="M284.7,73.8l182.5,316c7.2,12.4-1.8,28-16.2,28H86.1c-14.4,0-23.3-15.6-16.2-28l182.5-316
	C259.6,61.4,277.5,61.4,284.7,73.8z"/>
<path class="st1" d="M311.1,261.3c-8,3.5-13.2,9.1-16.3,15.1c-2.4,4.6-9.2,4.1-10.7-0.9c-4.1-13.3-3.6-27.8-1-45.5
	c0.7-4.5-3.9-8-8.1-6.2c-26.8,11.9-33.3,38.1-35.7,58.3c-0.8,6.7-10.4,6.9-11.5,0.3c-0.2-1.4-0.4-2.8-0.6-4.1
	c-0.6-4.8-6.5-6.8-9.9-3.4c-7.9,7.8-12.7,20.1-13.9,30.8c-3.9,35.1,21.6,63.9,55.7,67.6c34,3.7,63.7-18.9,67.6-54.1
	c2.1-18.9-8.8-27.6-7.1-52.1C319.6,262.7,315.1,259.6,311.1,261.3z"/>
<path class="st2" d="M280.1,327.3c-2.5,1.1-4.1,2.9-5.2,4.7c-0.9,1.6-3.3,1.4-3.9-0.4c-1.3-4.3-1.1-9-0.3-14.7
	c0.2-1.6-1.4-2.9-2.9-2.2c-8.4,3.9-10.8,12-11.6,18.6c-0.3,2.4-3.8,2.4-4.1,0v-0.1c-0.2-1.7-2.4-2.4-3.6-1.2
	c-2.5,2.6-4.1,6.6-4.5,10.1c-1.3,11.8,7.3,21.4,18.7,22.7c11.4,1.3,21.4-6.4,22.7-18.2c0.7-6.3-2.9-9.2-2.4-17.3
	C283.1,327.8,281.5,326.7,280.1,327.3z"/>
</svg>
