<?xml version="1.0" encoding="utf-8"?>
<!-- Generator: Adobe Illustrator 26.0.3, SVG Export Plug-In . SVG Version: 6.00 Build 0)  -->
<svg version="1.1" xmlns="http://www.w3.org/2000/svg" xmlns:xlink="http://www.w3.org/1999/xlink" x="0px" y="0px"
	 viewBox="0 0 500 500" style="enable-background:new 0 0 500 500;" xml:space="preserve">
<style type="text/css">
	.st0{fill:#FF931E;}
	.st1{fill:#FF6C1E;}
	.st2{fill:#4FC0F2;}
</style>
<g>
	<path class="st0" d="M357,461H59.6c-6.6,0-12-5.4-12-12V51c0-6.6,5.4-12,12-12H357c6.6,0,12,5.4,12,12v398
		C369,455.6,363.6,461,357,461z M241.3,238V78c0-6.6-5.4-12-12-12H94.2c-6.6,0-12,5.4-12,12v160c0,6.6,5.4,12,12,12h135.1
		C235.9,250,241.3,244.6,241.3,238z M354.5,84.9V78c0-6.6-5.4-12-12-12h-71c-6.6,0-12,5.4-12,12v6.8c0,6.6,5.4,12,12,12h71
		C349.1,96.9,354.5,91.5,354.5,84.9z M354.5,136.4v-6.8c0-6.6-5.4-12-12-12h-71c-6.6,0-12,5.4-12,12v6.8c0,6.6,5.4,12,12,12h71
		C349.1,148.4,354.5,143,354.5,136.4z"/>
</g>
<g>
	<path class="st1" d="M307.1,366c-12,10.3-108.4,55-118,61c-5.9,3.7-56.2,21-93.8,33.7H357c6.6,0,12-5.4,12-12V219.1
		c-7.7,24.6-23,72.9-24.5,75.8C342.5,298.8,319.1,355.7,307.1,366z"/>
</g>
<path class="st2" d="M328.5,273.2c-45.3,16.1-69.6-1.1-71.1-2.2c-8.2-5.9-19.7-4-25.6,4.2c-5.5,7.7-4.3,18.3,2.9,24.5
	c1.2,0.9,21.6,16.8,57.5,16.8c13.9,0,30.1-2.4,48.5-8.9c55.8-19.8,81.1-1.7,81.8-1.2c8,6.2,19.5,4.7,25.7-3.3
	c5.9-7.6,4.9-18.5-2.3-24.9C441.8,275,404,246.3,328.5,273.2z"/>
<path class="st2" d="M328.5,339.3c-45.3,16.1-69.6-1.1-71.1-2.2c-8.2-5.9-19.7-4-25.6,4.2c-5.5,7.7-4.3,18.3,2.9,24.5
	c1.2,0.9,21.6,16.8,57.5,16.8c13.9,0,30.1-2.4,48.5-8.9c55.8-19.9,81.1-1.7,81.8-1.2c7.8,6.4,19.3,5.3,25.7-2.4
	c6.4-7.8,5.3-19.3-2.4-25.7C441.8,341,404,312.4,328.5,339.3z"/>
<path class="st2" d="M328.5,405.3c-45.3,16.1-69.6-1.1-71.1-2.2c-8.2-5.9-19.7-4-25.6,4.2c-5.5,7.7-4.3,18.3,2.9,24.5
	c1.2,0.9,21.6,16.8,57.5,16.8c13.9,0,30.1-2.4,48.5-8.9c55.9-19.9,81.1-1.7,81.8-1.2c8,6.2,19.5,4.7,25.7-3.3
	c5.9-7.6,4.9-18.5-2.3-24.9C441.8,407.1,404.1,378.4,328.5,405.3z"/>
</svg>
