<?xml version="1.0" encoding="utf-8"?>
<!-- Generator: Adobe Illustrator 26.0.3, SVG Export Plug-In . SVG Version: 6.00 Build 0)  -->
<svg version="1.1" xmlns="http://www.w3.org/2000/svg" xmlns:xlink="http://www.w3.org/1999/xlink" x="0px" y="0px"
	 viewBox="0 0 500 500" style="enable-background:new 0 0 500 500;" xml:space="preserve">
<style type="text/css">
	.st0{fill:#E3E3E3;}
	.st1{fill:#F6F6F6;}
	.st2{fill:#4FC0F2;}
</style>
<path class="st0" d="M71,198.3c0.1,0,0.3,0,0.4,0c4.3-46.8,43.7-83.4,91.6-83.4c50.8,0,92,41.2,92,92c0,49.1-38.5,89.3-87,91.9v0.1
	H71c-27.8,0-50.3-22.5-50.3-50.3S43.2,198.3,71,198.3z"/>
<path class="st0" d="M429,198.3c-0.1,0-0.3,0-0.4,0c-4.3-46.8-43.7-83.4-91.6-83.4c-50.8,0-92,41.2-92,92c0,49.1,38.5,89.3,87,91.9
	v0.1h97c27.8,0,50.3-22.5,50.3-50.3S456.8,198.3,429,198.3z"/>
<path class="st1" d="M358.1,153c-14.8-50.6-61.6-87.6-117-87.6c-66.5,0-120.6,53.3-121.8,119.6c-31,3.6-55,30-55,61.9
	c0,34.4,27.9,62.3,62.3,62.3h222.2c43.3,0,78.4-35.1,78.4-78.4C427.2,190.7,397,157.6,358.1,153z"/>
<path class="st2" d="M119.2,370.4h-6.1l3.1-5.3c3.3-5.9,1.3-13.3-4.6-16.6c-5.8-3.3-13.2-1.3-16.6,4.4l-3,5.2l-3.1-5.2
	c-3.4-5.8-10.9-7.8-16.7-4.4c-5.8,3.4-7.7,10.8-4.4,16.6l3.1,5.3h-6.1c-6.7,0-12.2,5.5-12.2,12.2c0,6.7,5.5,12.2,12.2,12.2h6.1
	l-3,5.3c-3.4,5.8-1.4,13.3,4.5,16.7s13.3,1.4,16.7-4.5l0,0l3-5.2l3,5.2c3.8,5.6,11.5,7,17,3.2c5-3.4,6.7-9.9,4.1-15.4l-3.1-5.3h6.1
	c6.7,0,12.2-5.5,12.2-12.2C131.4,375.9,125.9,370.4,119.2,370.4z"/>
<path class="st2" d="M411,370.4h-6.1l3.1-5.3c3.3-5.9,1.3-13.3-4.6-16.6c-5.8-3.3-13.2-1.3-16.6,4.4l-3,5.2l-3-5.2
	c-3.4-5.8-10.9-7.8-16.7-4.4c-5.8,3.4-7.7,10.8-4.4,16.6l3.1,5.3h-6.1c-6.7,0-12.2,5.5-12.2,12.2c0,6.7,5.5,12.2,12.2,12.2h6.1
	l-3.1,5.3c-3.4,5.8-1.4,13.3,4.5,16.7c5.8,3.4,13.3,1.4,16.7-4.5l3-5.2l3,5.2c3.8,5.6,11.5,7,17,3.2c5-3.4,6.7-9.9,4.1-15.4
	l-3.1-5.3h6.1c6.7,0,12.2-5.5,12.2-12.2C423.2,375.9,417.7,370.4,411,370.4z"/>
<polygon class="st2" points="161.1,365.8 193.8,434.6 227.7,365.8 193.8,329.3 "/>
<polygon class="st2" points="250.6,365.8 283.3,434.6 317.2,365.8 283.3,329.3 "/>
</svg>
