<?xml version="1.0" encoding="utf-8"?>
<!-- Generator: Adobe Illustrator 26.0.3, SVG Export Plug-In . SVG Version: 6.00 Build 0)  -->
<svg version="1.1" id="图层_1" xmlns="http://www.w3.org/2000/svg" xmlns:xlink="http://www.w3.org/1999/xlink" x="0px" y="0px"
	 viewBox="0 0 500 500" style="enable-background:new 0 0 500 500;" xml:space="preserve">
<style type="text/css">
	.st0{fill-rule:evenodd;clip-rule:evenodd;fill:#4FC0F2;}
</style>
<path class="st0" d="M42.5,201.6c0,35.8,29,64.8,64.8,64.8s64.8-29,64.8-64.8c0-35.8-64.8-129.5-64.8-129.5S42.5,165.8,42.5,201.6z"
	/>
<path class="st0" d="M185.2,363.1c0,35.8,29,64.8,64.8,64.8s64.8-29,64.8-64.8c0-35.8-64.8-129.5-64.8-129.5
	S185.2,327.4,185.2,363.1z"/>
<path class="st0" d="M392.8,72.1c0,0-64.8,93.7-64.8,129.5c0,35.8,29,64.7,64.8,64.7c35.8,0,64.7-29,64.7-64.8
	C457.5,165.8,392.8,72.1,392.8,72.1z"/>
</svg>
