<?xml version="1.0" encoding="utf-8"?>
<!-- Generator: Adobe Illustrator 26.0.3, SVG Export Plug-In . SVG Version: 6.00 Build 0)  -->
<svg version="1.1" id="图层_1" xmlns="http://www.w3.org/2000/svg" xmlns:xlink="http://www.w3.org/1999/xlink" x="0px" y="0px"
	 viewBox="0 0 500 500" style="enable-background:new 0 0 500 500;" xml:space="preserve">
<style type="text/css">
	.st0{fill:#3FA9F5;}
	.st1{fill:#A67C52;}
</style>
<g>
	<path class="st0" d="M263.2,286.6v-63.4l54.9,31.7c8.2,4.3,18.4,1.1,22.7-7.1c4.1-7.7,1.5-17.3-5.9-22l-54.9-31.7l54.9-31.7
		c8-4.6,10.8-14.8,6.2-22.9c-4.6-8-14.8-10.8-22.9-6.2c0,0-0.1,0-0.1,0.1l-54.9,31.7v-63.4c0-9.3-7.5-16.8-16.8-16.8
		c-9.3,0-16.8,7.5-16.8,16.8v63.4l-54.9-31.7c-8.2-4.3-18.3-1.2-22.7,7c-4.1,7.8-1.5,17.4,5.9,22.1l54.9,31.7L158,225.9
		c-8,4.7-10.7,14.9-6.1,22.9c4.6,8,14.8,10.7,22.8,6.1l54.9-31.7v63.4c0,9.3,7.5,16.8,16.8,16.8
		C255.7,303.4,263.2,295.9,263.2,286.6z"/>
	<path class="st1" d="M457.9,415H46v0c0-19.5,15.8-35.3,35.3-35.3h341.3C442.1,379.7,457.9,395.5,457.9,415L457.9,415z"/>
	<path class="st0" d="M102,344.8v-33.4l28.9,16.7c4.3,2.3,9.7,0.6,11.9-3.7c2.1-4.1,0.8-9.1-3.1-11.6l-28.9-16.7l28.9-16.7
		c4.2-2.4,5.7-7.8,3.3-12c-2.4-4.2-7.8-5.7-12-3.3c0,0,0,0-0.1,0L102,280.8v-33.4c0-4.9-4-8.8-8.8-8.8c-4.9,0-8.8,4-8.8,8.8v33.4
		l-28.9-16.7c-4.3-2.3-9.7-0.6-11.9,3.7c-2.2,4.1-0.8,9.2,3.1,11.6l28.9,16.7l-28.9,16.7c-4.2,2.5-5.6,7.9-3.2,12.1
		c2.4,4.2,7.8,5.6,12,3.2l28.9-16.7v33.4c0,4.9,4,8.8,8.8,8.8C98,353.6,102,349.6,102,344.8z"/>
	<path class="st0" d="M408.6,355.9v-33.4l28.9,16.7c4.3,2.3,9.7,0.6,11.9-3.7c2.1-4.1,0.8-9.1-3.1-11.6l-28.9-16.7l28.9-16.7
		c4.2-2.4,5.7-7.8,3.3-12c-2.4-4.2-7.8-5.7-12-3.3c0,0,0,0-0.1,0l-28.9,16.7v-33.4c0-4.9-4-8.8-8.8-8.8s-8.8,4-8.8,8.8v33.4
		L362,275.2c-4.3-2.3-9.7-0.6-11.9,3.7c-2.2,4.1-0.8,9.2,3.1,11.6l28.9,16.7l-28.9,16.7c-4.2,2.5-5.6,7.9-3.2,12.1
		c2.4,4.2,7.8,5.6,12,3.2l28.9-16.7v33.4c0,4.9,4,8.8,8.8,8.8C404.6,364.7,408.6,360.8,408.6,355.9z"/>
</g>
</svg>
