<?xml version="1.0" encoding="utf-8"?>
<!-- Generator: Adobe Illustrator 26.0.3, SVG Export Plug-In . SVG Version: 6.00 Build 0)  -->
<svg version="1.1" xmlns="http://www.w3.org/2000/svg" xmlns:xlink="http://www.w3.org/1999/xlink" x="0px" y="0px"
	 viewBox="0 0 500 500" style="enable-background:new 0 0 500 500;" xml:space="preserve">
<style type="text/css">
	.st0{fill:#ABDCFF;}
	.st1{fill:#0396FF;}
	.st2{fill:#F15A24;}
	.st3{fill:#F7931E;}
	.st4{fill:#1088E2;}
	.st5{fill:#0391FF;}
	.st6{fill:#3FA9F5;}
</style>
<polygon class="st0" points="212.5,380.4 240.8,440.1 270.3,380.4 240.8,348.6 "/>
<polygon class="st1" points="283.9,324.1 318.4,396.9 354.3,324.1 318.4,285.4 "/>
<polygon class="st0" points="367.9,380.4 396.2,440.1 425.7,380.4 396.2,348.6 "/>
<g>
	<path class="st2" d="M194.9,40.4l-134,422c0.4,0.1,0.8,0.3,1.2,0.4h0c12.2,3.8,25.1-2.9,29-15.1L217,47.4L194.9,40.4z"/>
	<path class="st3" d="M172.9,33.5L47,433.8c-3.7,11.8,2.5,24.3,14,28.6l134-422L172.9,33.5z"/>
	<polygon class="st4" points="216.5,47.6 132.8,314 194.2,282.7 263.3,63.6 	"/>
	<polygon class="st5" points="263.3,63.6 194.2,282.7 257.9,250.4 311.6,80 	"/>
	<polygon class="st1" points="311.6,80 257.9,250.4 322.2,217.8 360.4,96.6 	"/>
	<polygon class="st6" points="360.4,96.6 322.2,217.8 398.8,178.9 418.5,116.4 	"/>
	<path class="st0" d="M440.7,124l-22.2-7.6l-19.7,62.5l44.2-22.5C457,149.3,455.5,129,440.7,124z"/>
</g>
</svg>
