<?xml version="1.0" encoding="utf-8"?>
<!-- Generator: Adobe Illustrator 26.0.3, SVG Export Plug-In . SVG Version: 6.00 Build 0)  -->
<svg version="1.1" xmlns="http://www.w3.org/2000/svg" xmlns:xlink="http://www.w3.org/1999/xlink" x="0px" y="0px"
	 viewBox="0 0 500 500" style="enable-background:new 0 0 500 500;" xml:space="preserve">
<style type="text/css">
	.st0{fill:#F15A24;}
	.st1{fill:#ED1C24;}
	.st2{fill:#3FA9F5;}
	.st3{fill:#FEB692;}
	.st4{fill:#FD6585;}
	.st5{fill:#FDD819;}
	.st6{fill:#F7AFFF;}
	.st7{fill:#6096FF;}
	.st8{fill:#3CD500;}
	.st9{fill:#FFFFFF;}
</style>
<path class="st0" d="M379.9,73.9l61.7,106.9c7.2,12.4-1.8,28-16.2,28H302c-14.4,0-23.3-15.6-16.2-28l61.7-106.9
	C354.7,61.5,372.7,61.5,379.9,73.9z M363.7,174.7c-3.3,0-6,2.7-6,6s2.7,6,6,6c3.3,0,6-2.7,6-6S367,174.7,363.7,174.7z M370.9,114.3
	c0-4-3.2-7.2-7.2-7.2s-7.2,3.2-7.2,7.2c0,0.3,0,0.6,0.1,0.9l2.9,47.9h0c0,2.3,1.9,4.2,4.2,4.2s4.2-1.9,4.2-4.2h0l2.9-47.9
	C370.9,114.9,370.9,114.6,370.9,114.3z"/>
<path class="st1" d="M277.1,368.1l-10.3-24.5c-12.2,5.2-21.6,15.5-25.7,28.1l25.2,8.4C268,374.7,272,370.4,277.1,368.1L277.1,368.1z
	 M303.3,380.1l25.2-8.4c-4.5-13.9-15.4-24.9-29.2-29.5l-8.4,25.2C296.8,369.5,301.4,374.2,303.3,380.1L303.3,380.1z M267.1,393.7
	l-24.5,10.3c4.7,11,13.5,19.7,24.5,24.3l10.3-24.5C272.8,401.9,269.1,398.2,267.1,393.7L267.1,393.7z M290.7,404.3l8.4,25.2
	c12.6-4.1,22.8-13.5,28-25.6l-24.5-10.3C300.3,398.7,296,402.6,290.7,404.3L290.7,404.3z M290.7,404.3"/>
<path class="st2" d="M441.4,367.7c-1.8,0-2.7-1-4.6-3.7c-1.8-2.6-4.3-6.1-9.2-6.1s-7.4,3.5-9.2,6.1c-1.9,2.6-2.8,3.7-4.6,3.7
	s-2.7-1-4.6-3.7c-1.8-2.6-4.3-6.1-9.2-6.1c-4.9,0-7.4,3.5-9.2,6.1c-1.9,2.6-2.8,3.7-4.6,3.7c-1.8,0-2.7-1-4.6-3.7
	c-1.8-2.6-4.3-6.1-9.2-6.1c-1.6,0-2.9,1.3-2.9,2.9c0,1.6,1.3,2.9,2.9,2.9c1.8,0,2.7,1,4.6,3.7c1.8,2.6,4.3,6.1,9.2,6.1
	c4.9,0,7.4-3.5,9.2-6.1c1.9-2.6,2.8-3.7,4.6-3.7c1.8,0,2.7,1,4.6,3.7c1.8,2.6,4.3,6.1,9.2,6.1c4.9,0,7.4-3.5,9.2-6.1
	c1.9-2.6,2.8-3.7,4.6-3.7c1.8,0,2.7,1,4.6,3.7c1.8,2.6,4.3,6.1,9.2,6.1c1.6,0,2.9-1.3,2.9-2.9C444.3,369,443,367.7,441.4,367.7z"/>
<path class="st2" d="M372.6,345.7c1.8,0,2.7,1,4.6,3.7c1.8,2.6,4.3,6.1,9.2,6.1c4.9,0,7.4-3.5,9.2-6.1c1.9-2.6,2.8-3.7,4.6-3.7
	c1.8,0,2.7,1,4.6,3.7c1.8,2.6,4.3,6.1,9.2,6.1c4.9,0,7.4-3.5,9.2-6.1c1.9-2.6,2.8-3.7,4.6-3.7c1.8,0,2.7,1,4.6,3.7
	c1.8,2.6,4.3,6.1,9.2,6.1c1.6,0,2.9-1.3,2.9-2.9c0-1.6-1.3-2.9-2.9-2.9c-1.8,0-2.7-1-4.6-3.7c-1.8-2.6-4.3-6.1-9.2-6.1
	s-7.4,3.5-9.2,6.1c-1.9,2.6-2.8,3.7-4.6,3.7s-2.7-1-4.6-3.7c-1.8-2.6-4.3-6.1-9.2-6.1c-4.9,0-7.4,3.5-9.2,6.1
	c-1.9,2.6-2.8,3.7-4.6,3.7c-1.8,0-2.7-1-4.6-3.7c-1.8-2.6-4.3-6.1-9.2-6.1c-1.6,0-2.9,1.3-2.9,2.9
	C369.7,344.4,371,345.7,372.6,345.7z"/>
<path class="st2" d="M341,290c-1.3,0-2.1-1.1-3.7-3.5c-1.6-2.6-3.9-6.2-8.5-6.2c-4.6,0-6.9,3.6-8.5,6.2c-1.5,2.5-2.3,3.5-3.7,3.5
	c-1.3,0-2.1-1.1-3.7-3.5c-1.7-2.6-3.9-6.2-8.5-6.2s-6.9,3.6-8.5,6.2c-1.5,2.5-2.3,3.5-3.7,3.5s-2.1-1.1-3.7-3.5
	c-1.6-2.6-3.9-6.2-8.5-6.2c-1.6,0-2.9,1.3-2.9,2.9c0,1.6,1.3,2.9,2.9,2.9c1.3,0,2.1,1.1,3.7,3.5c1.6,2.6,3.9,6.2,8.5,6.2
	c4.6,0,6.9-3.6,8.5-6.2c1.5-2.5,2.3-3.5,3.7-3.5c1.3,0,2.1,1.1,3.7,3.5c1.6,2.6,3.9,6.2,8.5,6.2c4.6,0,6.9-3.6,8.5-6.2
	c1.5-2.5,2.3-3.5,3.7-3.5c1.3,0,2.1,1.1,3.7,3.5c1.6,2.6,3.9,6.2,8.5,6.2c1.6,0,2.9-1.3,2.9-2.9C343.8,291.3,342.6,290,341,290z"/>
<path class="st2" d="M348.8,272.1c-1.8,0-2.7-1-4.6-3.7c-1.8-2.6-4.3-6.1-9.2-6.1c-4.9,0-7.4,3.5-9.2,6.1c-1.9,2.6-2.8,3.7-4.6,3.7
	c-1.8,0-2.7-1-4.6-3.7c-1.8-2.6-4.3-6.1-9.2-6.1s-7.4,3.5-9.2,6.1c-1.9,2.6-2.8,3.7-4.6,3.7c-1.8,0-2.7-1-4.6-3.7
	c-1.8-2.6-4.3-6.1-9.2-6.1c-1.6,0-2.9,1.3-2.9,2.9c0,1.6,1.3,2.9,2.9,2.9c1.8,0,2.7,1,4.6,3.7c1.8,2.6,4.3,6.1,9.2,6.1
	c4.9,0,7.4-3.5,9.2-6.1c1.9-2.6,2.8-3.7,4.6-3.7c1.8,0,2.7,1,4.6,3.7c1.8,2.6,4.3,6.1,9.2,6.1c4.9,0,7.4-3.5,9.2-6.1
	c1.9-2.6,2.8-3.7,4.6-3.7c1.8,0,2.7,1,4.6,3.7c1.8,2.6,4.3,6.1,9.2,6.1c1.6,0,2.9-1.3,2.9-2.9C351.7,273.4,350.4,272.1,348.8,272.1z
	"/>
<path class="st3" d="M331.6,432.5h-234c-16.1,0-29.3-13.2-29.3-29.3V403c0-2.7,2.2-4.9,4.9-4.9h282.6c2.7,0,4.9,2.2,4.9,4.9v0.2
	C360.8,419.3,347.6,432.5,331.6,432.5L331.6,432.5z M331.6,432.5"/>
<path class="st4" d="M215.3,125.7c-23.5,9.2-45,22.4-63.7,38.8l63.7,17.1V125.7z M215.3,125.7"/>
<path class="st5" d="M76.9,328.9c0,15.6,1.6,30.8,4.8,45.5h133.6v-50.7l-134.5-36C78.2,301.1,76.9,314.8,76.9,328.9L76.9,328.9z
	 M76.9,328.9"/>
<path class="st6" d="M117.2,202.5l98.1,26.3v-47.2l-63.7-17.1C138.7,175.7,127.1,188.5,117.2,202.5L117.2,202.5z M117.2,202.5"/>
<path class="st7" d="M94.1,243.8l121.2,32.5V229L117,202.7C108,215.4,100.3,229.2,94.1,243.8L94.1,243.8z M94.1,243.8"/>
<path class="st8" d="M94.1,243.8c-5.9,13.9-10.4,28.7-13.3,44l134.5,36v-47.5L94.1,243.8z M94.1,243.8"/>
<path class="st9" d="M212.1,130.2c-19.6,8.2-37.8,19.3-54.2,32.9l26.1,7C190.6,166.9,208.8,147.9,212.1,130.2L212.1,130.2z
	 M105,330.3c0-6.4-1.8-20.2,0.6-33.1l-22.2-6c-2.2,12.3-3.3,25-3.3,37.6c0,14.3,1.4,28.7,4.2,42.7h9.4
	C101.8,360.1,105,342.5,105,330.3L105,330.3z M175.4,173.7l-22.7-6.1c-11.3,10-21.4,21.1-30.4,33.2l20.9,5.6
	c0.4-6.7,1.4-12.9,3.2-17.6C150.6,177.6,162,178.6,175.4,173.7L175.4,173.7z M98.4,241.9l33.6,9c2.3-1.7,10.9-6.3,10.9-38.4
	l-24.3-6.5C110.7,217.3,103.9,229.3,98.4,241.9L98.4,241.9z M106.7,291.6c1.1-5.1-1.5-21,18.7-36.6l-29.3-7.9
	c-5.1,12.4-9,25.3-11.7,38.4L106.7,291.6z M106.7,291.6"/>
<path d="M363.7,402.9v-0.2c0-4.3-3.5-7.8-7.8-7.8h-23.2c0.5-2.9,0.8-5.9,0.8-9c0-5.1-0.8-10.1-2.4-15c-4.8-14.7-16.3-26.4-31-31.3
	c-4.9-1.6-10.1-2.5-15.3-2.5c-6.6,0-13,1.3-19.1,3.9c-2.9,1.2-5.6,2.7-8.1,4.4l-39.2-164.5c0-0.1-0.1-0.3-0.1-0.4v-54
	c0-0.3,0-0.6-0.1-0.9c0-0.9-0.5-1.8-1.3-2.3c-0.8-0.5-1.8-0.6-2.7-0.3c-23.6,9.3-45.3,22.5-64.5,39.3
	c-13.1,11.4-24.8,24.4-34.8,38.5c0,0,0,0.1-0.1,0.1c0,0,0,0.1-0.1,0.1c-9.2,13-17,27-23.2,41.7c-6.1,14.3-10.6,29.3-13.5,44.5
	c-2.6,13.7-3.9,27.7-3.9,41.7c0,15.5,1.6,31,4.8,46.1c0.3,1.3,1.4,2.3,2.8,2.3h130.9v17.6H73.3c-4.3,0-7.8,3.5-7.8,7.8v0.2
	c0,11.1,5.7,21,14.4,26.8H58.6c-1.6,0-2.9,1.3-2.9,2.9c0,1.6,1.3,2.9,2.9,2.9H354c1.6,0,2.9-1.3,2.9-2.9c0-1.6-1.3-2.9-2.9-2.9h-4.7
	C358,423.9,363.7,414,363.7,402.9L363.7,402.9z M327.8,385.9c0,3-0.3,6-0.9,9h-14.1l-6.6-2.8c0.6-2,0.9-4.1,0.9-6.2
	c0-1.3-0.1-2.6-0.3-3.9l12-4l7.9-2.6C327.4,378.9,327.8,382.4,327.8,385.9L327.8,385.9z M301,346.1c10.8,4.4,19.4,13.1,23.7,23.9
	l-17.4,5.7l-2.4,0.8c-2.2-4.7-5.9-8.4-10.5-10.6L301,346.1z M301.3,385.9c0,2.3-0.5,4.5-1.4,6.6c-0.4,0.8-0.8,1.6-1.3,2.3H271
	c-0.5-0.8-0.9-1.5-1.3-2.3c-0.9-2.1-1.4-4.3-1.4-6.6c0-1.7,0.3-3.3,0.8-4.9c1.4-4.6,4.8-8.3,9.2-10.2c2.1-0.9,4.3-1.4,6.6-1.4
	c1.8,0,3.5,0.3,5.2,0.9c5,1.7,9,5.7,10.5,10.7C301,382.6,301.3,384.2,301.3,385.9L301.3,385.9z M284.8,342.9c3.7,0,7.3,0.5,10.8,1.4
	l-6.6,19.8c-1.4-0.3-2.8-0.4-4.2-0.4c-2.1,0-4.1,0.3-6.1,0.9l-8.1-19.3C275.2,343.7,279.9,342.9,284.8,342.9L284.8,342.9z
	 M257.5,352.7c0.1-0.1,0.2-0.1,0.3-0.2c2.3-1.9,4.9-3.5,7.6-4.9l8.1,19.3c-3.9,2.3-6.9,5.7-8.8,9.7l-19.8-6.6
	C247.5,363.2,251.9,357.2,257.5,352.7L257.5,352.7z M263.4,392.1l-6.6,2.8h-14.1c-0.6-2.9-0.9-5.9-0.9-9c0-3.5,0.4-7.1,1.3-10.5
	l15.8,5.2l4.1,1.4c-0.2,1.3-0.3,2.6-0.3,3.9C262.6,388,262.9,390.1,263.4,392.1L263.4,392.1z M212.4,371.5H84
	c-2.8-14-4.2-28.3-4.2-42.7c0-12.6,1.1-25.2,3.3-37.6L212.4,326V371.5z M212.4,320L84.1,285.6c2.7-13.1,6.6-26.1,11.7-38.4
	l116.6,31.3V320z M212.4,272.5l-28.5-7.6l-85.8-23c5.6-12.5,12.3-24.6,20.2-35.9l94.2,25.2V272.5z M212.4,225l-90.4-24.3
	c8.9-12.1,19.1-23.2,30.4-33.2l56.4,15.1l3.7,1V225z M212.4,177.7l-15.2-4.1L157.6,163c16.6-13.8,35-24.9,54.8-33.2L212.4,177.7
	L212.4,177.7z M218.3,205l34.4,144.2c-6.6,5.7-11.5,13.2-14.2,21.7c-1.6,4.8-2.4,9.9-2.4,15c0,3,0.3,6,0.8,9h-18.6V205z
	 M331.6,429.3h-234c-14.6,0-26.4-11.9-26.4-26.4v-0.2c0-1.1,0.9-2.1,2.1-2.1h282.6c1.1,0,2.1,0.9,2.1,2.1v0.2
	C358,417.4,346.1,429.3,331.6,429.3L331.6,429.3z M331.6,429.3"/>
</svg>
