<?xml version="1.0" encoding="utf-8"?>
<!-- Generator: Adobe Illustrator 26.0.3, SVG Export Plug-In . SVG Version: 6.00 Build 0)  -->
<svg version="1.1" id="图层_1" xmlns="http://www.w3.org/2000/svg" xmlns:xlink="http://www.w3.org/1999/xlink" x="0px" y="0px"
	 viewBox="0 0 500 500" style="enable-background:new 0 0 500 500;" xml:space="preserve">
<style type="text/css">
	.st0{fill:#E3E3E3;}
	.st1{fill:#F6F6F6;}
	.st2{fill:#808080;}
	.st3{fill:#ED6024;}
	.st4{fill:#FFBA40;}
	.st5{fill:#5DABE2;}
</style>
<g>
	<path class="st0" d="M426.7,192c-0.2,0-0.3,0-0.5,0c-5.1-55.1-51.4-98.2-107.8-98.2c-59.8,0-108.2,48.5-108.2,108.2
		c0,57.8,45.3,105,102.4,108.1v0.2h114.1c32.7,0,59.2-26.5,59.2-59.2S459.4,192,426.7,192z"/>
	<path class="st1" d="M359.8,222.3c-17.4-59.5-72.4-103-137.6-103C143.9,119.3,80.3,182,78.8,260c-36.4,4.3-64.7,35.2-64.7,72.8
		c0,40.5,32.8,73.3,73.3,73.3h261.4c50.9,0,92.2-41.3,92.2-92.2C441.1,266.7,405.6,227.7,359.8,222.3z"/>
</g>
<g>
	<circle class="st2" cx="227.9" cy="348.1" r="10.6"/>
	<path class="st2" d="M240.3,230.5c0-7-5.7-12.7-12.7-12.7s-12.7,5.7-12.7,12.7c0,0.5,0,1,0.1,1.5l5.2,84.7h0c0,4.1,3.3,7.4,7.4,7.4
		s7.4-3.3,7.4-7.4h0l5.2-84.7C240.3,231.6,240.3,231,240.3,230.5z"/>
</g>
<path class="st3" d="M472.2,162.2l-33.4-33.4c-4.3-4.3-11.4-4.3-15.7,0c0,0,0,0,0,0l-8.2,8.2l49.2,49.2l8.2-8.2
	C476.5,173.6,476.5,166.6,472.2,162.2z"/>
<path class="st4" d="M331.9,276.1l57.5-15.4l-49.2-49.2l-15.4,57.5C323.7,273.4,327.6,277.3,331.9,276.1z"/>
<path class="st5" d="M460.2,190L411,140.8l-66.4,66.4l49.2,49.2C393.7,256.4,460.2,190,460.2,190z M372.6,220l51.2-51.2l8.4,8.4
	L381,228.5L372.6,220z"/>
</svg>
