<?xml version="1.0" encoding="utf-8"?>
<!-- Generator: Adobe Illustrator 26.0.3, SVG Export Plug-In . SVG Version: 6.00 Build 0)  -->
<svg version="1.1" xmlns="http://www.w3.org/2000/svg" xmlns:xlink="http://www.w3.org/1999/xlink" x="0px" y="0px"
	 viewBox="0 0 500 500" style="enable-background:new 0 0 500 500;" xml:space="preserve">
<style type="text/css">
	.st0{fill:#F15A24;}
</style>
<path class="st0" d="M266.2,69.2l198,342.9c7.2,12.4-1.8,28-16.2,28H52c-14.4,0-23.3-15.6-16.2-28l198-342.9
	C241,56.8,259,56.8,266.2,69.2z M250,356.5c-8.1,0-14.7,6.6-14.7,14.7s6.6,14.7,14.7,14.7s14.7-6.6,14.7-14.7S258.1,356.5,250,356.5
	z M267.5,208.6c0-9.7-7.9-17.5-17.5-17.5c-9.7,0-17.5,7.9-17.5,17.5c0,0.7,0,1.4,0.1,2.1l7.2,117.2h0c0,5.6,4.6,10.2,10.2,10.2
	s10.2-4.6,10.2-10.2h0l7.2-117.2C267.5,210,267.5,209.3,267.5,208.6z"/>
</svg>
