<?xml version="1.0" encoding="utf-8"?>
<!-- Generator: Adobe Illustrator 26.0.3, SVG Export Plug-In . SVG Version: 6.00 Build 0)  -->
<svg version="1.1" id="图层_1" xmlns="http://www.w3.org/2000/svg" xmlns:xlink="http://www.w3.org/1999/xlink" x="0px" y="0px"
	 viewBox="0 0 500 500" style="enable-background:new 0 0 500 500;" xml:space="preserve">
<style type="text/css">
	.st0{fill:url(#SVGID_1_);}
	.st1{fill:url(#SVGID_00000160168050483491078760000006275739415132189586_);}
</style>
<g>
	<linearGradient id="SVGID_1_" gradientUnits="userSpaceOnUse" x1="184.1984" y1="51.1374" x2="465.9656" y2="368.1054">
		<stop  offset="0.2459" style="stop-color:#FAFAFA"/>
		<stop  offset="0.4701" style="stop-color:#D2D2D2"/>
		<stop  offset="0.6556" style="stop-color:#B9B9B9"/>
		<stop  offset="0.7664" style="stop-color:#AFAFAF"/>
	</linearGradient>
	<path class="st0" d="M426.7,192c-0.2,0-0.3,0-0.5,0c-5.1-55.1-51.4-98.2-107.8-98.2c-59.8,0-108.2,48.5-108.2,108.2
		c0,57.8,45.3,105,102.4,108.1v0.2h114.1c32.7,0,59.2-26.5,59.2-59.2S459.4,192,426.7,192z"/>
	
		<linearGradient id="SVGID_00000021800964048899274970000015620807014455264425_" gradientUnits="userSpaceOnUse" x1="50.4482" y1="187.9177" x2="377.0237" y2="400.7154">
		<stop  offset="0.1491" style="stop-color:#FAFAFA"/>
		<stop  offset="0.818" style="stop-color:#CBCBCB"/>
	</linearGradient>
	<path style="fill:url(#SVGID_00000021800964048899274970000015620807014455264425_);" d="M359.8,222.3
		c-17.4-59.5-72.4-103-137.6-103C143.9,119.3,80.3,182,78.8,260c-36.4,4.3-64.7,35.2-64.7,72.8c0,40.5,32.8,73.3,73.3,73.3h261.4
		c50.9,0,92.2-41.3,92.2-92.2C441.1,266.7,405.6,227.7,359.8,222.3z"/>
</g>
</svg>
