<?xml version="1.0" encoding="utf-8"?>
<!-- Generator: Adobe Illustrator 26.0.3, SVG Export Plug-In . SVG Version: 6.00 Build 0)  -->
<svg version="1.1" id="图层_1" xmlns="http://www.w3.org/2000/svg" xmlns:xlink="http://www.w3.org/1999/xlink" x="0px" y="0px"
	 viewBox="0 0 500 500" style="enable-background:new 0 0 500 500;" xml:space="preserve">
<style type="text/css">
	.st0{fill:url(#SVGID_1_);}
	.st1{fill:url(#SVGID_00000043429588583829720940000006439493006774758307_);}
	.st2{fill:url(#SVGID_00000016037230452258136130000013348627686396406424_);}
	.st3{fill:url(#SVGID_00000034783403423973244150000010934623629194422962_);}
	.st4{fill:url(#SVGID_00000180366426170485074010000002318616798297371821_);}
	.st5{fill:url(#SVGID_00000067207143682663043380000005015238964287437187_);}
</style>
<g>
	
		<linearGradient id="SVGID_1_" gradientUnits="userSpaceOnUse" x1="141.4947" y1="356.7965" x2="372.4591" y2="206.2992" gradientTransform="matrix(1 0 0 -1 0 502)">
		<stop  offset="0.1491" style="stop-color:#FAFAFA"/>
		<stop  offset="0.818" style="stop-color:#CBCBCB"/>
	</linearGradient>
	<path class="st0" d="M360.3,169.5C348,127.5,309.1,96.7,263,96.7c-55.4,0-100.4,44.3-101.3,99.5c-25.7,3-45.8,24.9-45.8,51.5
		c0,28.6,23.2,51.8,51.8,51.8h184.9c36,0,65.2-29.2,65.2-65.2C417.8,200.9,392.6,173.4,360.3,169.5z"/>
	
		<linearGradient id="SVGID_00000104703851195593723840000017047700539848564398_" gradientUnits="userSpaceOnUse" x1="90.4784" y1="146.6012" x2="188.1797" y2="210.2637">
		<stop  offset="0.1491" style="stop-color:#FAFAFA"/>
		<stop  offset="0.818" style="stop-color:#CBCBCB"/>
	</linearGradient>
	<path style="fill:url(#SVGID_00000104703851195593723840000017047700539848564398_);" d="M198.4,195.8H94.8
		c-6.9,0-12.6-5.7-12.6-12.6v0c0-6.9,5.7-12.6,12.6-12.6h103.6c6.9,0,12.6,5.7,12.6,12.6v0C211,190.1,205.3,195.8,198.4,195.8z"/>
	
		<linearGradient id="SVGID_00000123439062331944702330000015167782557425546382_" gradientUnits="userSpaceOnUse" x1="225.8274" y1="171.6839" x2="262.8242" y2="195.7912">
		<stop  offset="0.1491" style="stop-color:#FAFAFA"/>
		<stop  offset="0.818" style="stop-color:#CBCBCB"/>
	</linearGradient>
	<path style="fill:url(#SVGID_00000123439062331944702330000015167782557425546382_);" d="M257.4,198.1h-20.6
		c-6.9,0-12.6-5.7-12.6-12.6v0c0-6.9,5.7-12.6,12.6-12.6h20.6c6.9,0,12.6,5.7,12.6,12.6v0C270,192.5,264.3,198.1,257.4,198.1z"/>
	<g>
		
			<linearGradient id="SVGID_00000132775087328773739230000014276320074818921891_" gradientUnits="userSpaceOnUse" x1="148.378" y1="270.2887" x2="285.2842" y2="359.4973">
			<stop  offset="0.1491" style="stop-color:#FAFAFA"/>
			<stop  offset="0.818" style="stop-color:#CBCBCB"/>
		</linearGradient>
		<path style="fill:url(#SVGID_00000132775087328773739230000014276320074818921891_);" d="M305.7,334.1H148.4
			c-6.9,0-12.6-5.7-12.6-12.6v0c0-6.9,5.7-12.6,12.6-12.6h157.2c6.9,0,12.6,5.7,12.6,12.6v0C318.2,328.5,312.6,334.1,305.7,334.1z"
			/>
		
			<linearGradient id="SVGID_00000018196196839605021530000003182201112108169368_" gradientUnits="userSpaceOnUse" x1="227.9378" y1="304.8799" x2="364.844" y2="394.0884">
			<stop  offset="0.1491" style="stop-color:#FAFAFA"/>
			<stop  offset="0.818" style="stop-color:#CBCBCB"/>
		</linearGradient>
		<path style="fill:url(#SVGID_00000018196196839605021530000003182201112108169368_);" d="M385.2,368.7H228
			c-6.9,0-12.6-5.7-12.6-12.6v0c0-6.9,5.7-12.6,12.6-12.6h157.2c6.9,0,12.6,5.7,12.6,12.6v0C397.8,363.1,392.1,368.7,385.2,368.7z"
			/>
		
			<linearGradient id="SVGID_00000116206647007639728820000013788609381390627730_" gradientUnits="userSpaceOnUse" x1="136.7428" y1="339.471" x2="273.649" y2="428.6796">
			<stop  offset="0.1491" style="stop-color:#FAFAFA"/>
			<stop  offset="0.818" style="stop-color:#CBCBCB"/>
		</linearGradient>
		<path style="fill:url(#SVGID_00000116206647007639728820000013788609381390627730_);" d="M294,403.3H136.8
			c-6.9,0-12.6-5.7-12.6-12.6v0c0-6.9,5.7-12.6,12.6-12.6H294c6.9,0,12.6,5.7,12.6,12.6v0C306.6,397.6,300.9,403.3,294,403.3z"/>
	</g>
</g>
</svg>
