<?xml version="1.0" encoding="utf-8"?>
<!-- Generator: Adobe Illustrator 26.0.3, SVG Export Plug-In . SVG Version: 6.00 Build 0)  -->
<svg version="1.1" id="图层_1" xmlns="http://www.w3.org/2000/svg" xmlns:xlink="http://www.w3.org/1999/xlink" x="0px" y="0px"
	 viewBox="0 0 500 500" style="enable-background:new 0 0 500 500;" xml:space="preserve">
<style type="text/css">
	.st0{fill-rule:evenodd;clip-rule:evenodd;fill:url(#SVGID_1_);}
	.st1{opacity:0.9;fill:url(#SVGID_00000130643794817525237280000000955812789735131264_);}
	.st2{fill:#F99C00;}
</style>
<g>
	<linearGradient id="SVGID_1_" gradientUnits="userSpaceOnUse" x1="93.061" y1="147.6573" x2="437.373" y2="401.3272">
		<stop  offset="4.977477e-03" style="stop-color:#FFFFFF"/>
		<stop  offset="0.8567" style="stop-color:#F99C00"/>
	</linearGradient>
	<path class="st0" d="M447.2,316.9c-114.4,0-207.2-92.8-207.2-207.2c0-21.4,3.3-42.1,9.3-61.5c0.6-2-1.1-4-3.2-3.6
		c-94.3,17.6-166.1,99-169,197.7C73.7,360.7,171,458.3,289.4,455.4c87.4-2.2,161.4-58.5,189.7-136.7c0.7-2-1-4.1-3.1-3.8
		C466.6,316.2,457,316.9,447.2,316.9z"/>
	
		<linearGradient id="SVGID_00000117635018889252836800000007228002886609721485_" gradientUnits="userSpaceOnUse" x1="43.8712" y1="293.7971" x2="252.3271" y2="429.6277">
		<stop  offset="0.1491" style="stop-color:#FAFAFA"/>
		<stop  offset="0.818" style="stop-color:#CBCBCB"/>
	</linearGradient>
	<path style="opacity:0.9;fill:url(#SVGID_00000117635018889252836800000007228002886609721485_);" d="M241.3,315.8
		c-11.1-38-46.2-65.8-87.8-65.8c-50,0-90.6,40-91.5,89.8c-23.3,2.7-41.3,22.5-41.3,46.5c0,25.9,21,46.8,46.8,46.8h166.8
		c32.5,0,58.9-26.4,58.9-58.9C293.2,344.1,270.5,319.2,241.3,315.8z"/>
	<polygon class="st2" points="371.1,111.1 380.3,129.7 400.8,132.7 386,147.2 389.5,167.6 371.1,158 352.7,167.6 356.2,147.2 
		341.3,132.7 361.9,129.7 	"/>
</g>
</svg>
