<?xml version="1.0" encoding="utf-8"?>
<!-- Generator: Adobe Illustrator 26.0.3, SVG Export Plug-In . SVG Version: 6.00 Build 0)  -->
<svg version="1.1" id="图层_1" xmlns="http://www.w3.org/2000/svg" xmlns:xlink="http://www.w3.org/1999/xlink" x="0px" y="0px"
	 viewBox="0 0 500 500" style="enable-background:new 0 0 500 500;" xml:space="preserve">
<style type="text/css">
	.st0{fill:url(#SVGID_1_);}
	.st1{fill:url(#SVGID_00000120542417835779260910000002478239082415104670_);}
	.st2{fill:#FFD000;}
	.st3{opacity:0.9;fill:url(#SVGID_00000101084202794763703320000004357715905224384393_);}
	.st4{opacity:0.9;fill:url(#SVGID_00000098194219938666510260000001225786215488429454_);}
</style>
<g>
	
		<linearGradient id="SVGID_1_" gradientUnits="userSpaceOnUse" x1="148.8437" y1="355.6752" x2="356.1937" y2="148.3248" gradientTransform="matrix(1 0 0 -1 0 502)">
		<stop  offset="0" style="stop-color:#F9C30B"/>
		<stop  offset="1" style="stop-color:#FF8800"/>
	</linearGradient>
	<polygon class="st0" points="52.9,257.7 244.8,50.3 452.2,242.3 260.2,449.7 	"/>
	
		<linearGradient id="SVGID_00000147218265695932570570000001942945493895847354_" gradientUnits="userSpaceOnUse" x1="159.1594" y1="345.3591" x2="368.9951" y2="135.5238" gradientTransform="matrix(1 0 0 -1 0 502)">
		<stop  offset="0" style="stop-color:#F9C30B"/>
		<stop  offset="1" style="stop-color:#FF8800"/>
	</linearGradient>
	
		<rect x="111.5" y="109" style="fill:url(#SVGID_00000147218265695932570570000001942945493895847354_);" width="282.4" height="282.4"/>
	<circle class="st2" cx="252.7" cy="250.2" r="141.6"/>
</g>
<linearGradient id="SVGID_00000160188007906594485940000007384787068775922337_" gradientUnits="userSpaceOnUse" x1="29.435" y1="322.0605" x2="180.6805" y2="420.6126">
	<stop  offset="0.1491" style="stop-color:#FAFAFA"/>
	<stop  offset="0.818" style="stop-color:#CBCBCB"/>
</linearGradient>
<path style="opacity:0.9;fill:url(#SVGID_00000160188007906594485940000007384787068775922337_);" d="M172.7,338
	c-8.1-27.6-33.5-47.7-63.7-47.7c-36.3,0-65.7,29.1-66.4,65.1c-16.9,2-30,16.3-30,33.7c0,18.8,15.2,34,34,34h121.1
	c23.6,0,42.7-19.1,42.7-42.7C210.3,358.5,193.9,340.5,172.7,338z"/>
<linearGradient id="SVGID_00000004536151153074569210000010887739318979799180_" gradientUnits="userSpaceOnUse" x1="306.4651" y1="111.1082" x2="457.7106" y2="209.6603">
	<stop  offset="0.1491" style="stop-color:#FAFAFA"/>
	<stop  offset="0.818" style="stop-color:#CBCBCB"/>
</linearGradient>
<path style="opacity:0.9;fill:url(#SVGID_00000004536151153074569210000010887739318979799180_);" d="M449.7,127.1
	c-8.1-27.6-33.5-47.7-63.7-47.7c-36.3,0-65.7,29.1-66.4,65.1c-16.9,2-30,16.3-30,33.7c0,18.8,15.2,34,34,34h121.1
	c23.6,0,42.7-19.1,42.7-42.7C487.4,147.6,470.9,129.6,449.7,127.1z"/>
</svg>
