<?xml version="1.0" encoding="utf-8"?>
<!-- Generator: Adobe Illustrator 26.0.3, SVG Export Plug-In . SVG Version: 6.00 Build 0)  -->
<svg version="1.1" id="图层_1" xmlns="http://www.w3.org/2000/svg" xmlns:xlink="http://www.w3.org/1999/xlink" x="0px" y="0px"
	 viewBox="0 0 500 500" style="enable-background:new 0 0 500 500;" xml:space="preserve">
<style type="text/css">
	.st0{fill:#A8A8B4;}
	.st1{fill:#998675;}
	.st2{fill:#C69C6D;}
	.st3{fill:#8C6239;}
</style>
<path class="st0" d="M421.5,381.9H78.5c-7.3,0-13.2-5.9-13.2-13.2c0-7.3,5.9-13.2,13.2-13.2h342.9c7.3,0,13.2,5.9,13.2,13.2
	C434.7,376,428.7,381.9,421.5,381.9z"/>
<path class="st1" d="M126.9,195.9c0,9,7.3,16.2,16.2,16.3s16.2-7.3,16.3-16.2c0,0,0,0,0,0c0-9-7.3-16.2-16.2-16.2
	C134.2,179.7,126.9,186.9,126.9,195.9z"/>
<path class="st2" d="M168.2,235.5c0,12.9,10.4,23.3,23.3,23.3c12.9,0,23.3-10.4,23.3-23.3c0-12.9-10.4-23.3-23.3-23.3
	C178.6,212.1,168.2,222.6,168.2,235.5z"/>
<path class="st2" d="M73.2,145.3c0,7.8,6.3,14.1,14.1,14.1s14.1-6.3,14.1-14.1c0-7.8-6.3-14.1-14.1-14.1S73.2,137.5,73.2,145.3z"/>
<path class="st3" d="M188.4,140.1c0,7.3,5.9,13.2,13.2,13.2s13.2-5.9,13.2-13.2s-5.9-13.2-13.2-13.2S188.4,132.8,188.4,140.1z"/>
<path class="st0" d="M337.9,118.1c-53.4,0-96.7,43.3-96.7,96.7c0,4.9,5.9,8.8,13.2,8.8s13.2-3.9,13.2-8.8
	c0-38.9,31.5-70.3,70.3-70.3s70.3,31.5,70.3,70.3c0,38.8-31.5,70.3-70.3,70.3H78.5c-7.3,0-13.2,5.9-13.2,13.2
	c0,7.3,5.9,13.2,13.2,13.2h263.8c1,0,2-0.1,3-0.4c50-3.8,89.4-45.4,89.4-96.4C434.7,161.4,391.4,118.1,337.9,118.1z"/>
<path class="st3" d="M81.2,235.5c0,3.4,2.8,6.2,6.2,6.2c3.4,0,6.2-2.8,6.2-6.2c0,0,0,0,0,0c0-3.4-2.8-6.2-6.2-6.2
	S81.2,232.1,81.2,235.5z"/>
<path class="st3" d="M143.1,153.3c0,3.4,2.8,6.2,6.2,6.2s6.2-2.8,6.2-6.2c0,0,0,0,0,0c0-3.4-2.8-6.2-6.2-6.2
	S143.1,149.9,143.1,153.3z"/>
</svg>
