<?xml version="1.0" encoding="utf-8"?>
<!-- Generator: Adobe Illustrator 26.0.3, SVG Export Plug-In . SVG Version: 6.00 Build 0)  -->
<svg version="1.1" id="图层_1" xmlns="http://www.w3.org/2000/svg" xmlns:xlink="http://www.w3.org/1999/xlink" x="0px" y="0px"
	 viewBox="0 0 500 500" style="enable-background:new 0 0 500 500;" xml:space="preserve">
<style type="text/css">
	.st0{fill:url(#SVGID_1_);}
	.st1{fill:url(#SVGID_00000073717356200841077490000009985932275485774523_);}
	.st2{fill:url(#SVGID_00000165935022357258068660000018269071144817490346_);}
	.st3{fill:url(#SVGID_00000110456375326058340060000016352542868140721594_);}
</style>
<g>
	
		<linearGradient id="SVGID_1_" gradientUnits="userSpaceOnUse" x1="124.6783" y1="356.7965" x2="355.6428" y2="206.2992" gradientTransform="matrix(1 0 0 -1 0 502)">
		<stop  offset="0.1491" style="stop-color:#FAFAFA"/>
		<stop  offset="0.818" style="stop-color:#CBCBCB"/>
	</linearGradient>
	<path class="st0" d="M343.5,169.5c-12.3-42.1-51.2-72.8-97.3-72.8c-55.4,0-100.4,44.3-101.3,99.5c-25.7,3-45.8,24.9-45.8,51.5
		c0,28.6,23.2,51.8,51.8,51.8h184.9c36,0,65.2-29.2,65.2-65.2C401,200.9,375.8,173.4,343.5,169.5z"/>
	<g>
		
			<linearGradient id="SVGID_00000073696483258908408510000000881998832184389511_" gradientUnits="userSpaceOnUse" x1="131.5617" y1="270.2887" x2="268.4679" y2="359.4973">
			<stop  offset="0.1491" style="stop-color:#FAFAFA"/>
			<stop  offset="0.818" style="stop-color:#CBCBCB"/>
		</linearGradient>
		<path style="fill:url(#SVGID_00000073696483258908408510000000881998832184389511_);" d="M288.8,334.1H131.6
			c-6.9,0-12.6-5.7-12.6-12.6v0c0-6.9,5.7-12.6,12.6-12.6h157.2c6.9,0,12.6,5.7,12.6,12.6v0C301.4,328.5,295.8,334.1,288.8,334.1z"
			/>
		
			<linearGradient id="SVGID_00000061439767372159973050000015666375542479023002_" gradientUnits="userSpaceOnUse" x1="211.1214" y1="304.8799" x2="348.0276" y2="394.0884">
			<stop  offset="0.1491" style="stop-color:#FAFAFA"/>
			<stop  offset="0.818" style="stop-color:#CBCBCB"/>
		</linearGradient>
		<path style="fill:url(#SVGID_00000061439767372159973050000015666375542479023002_);" d="M368.4,368.7H211.2
			c-6.9,0-12.6-5.7-12.6-12.6v0c0-6.9,5.7-12.6,12.6-12.6h157.2c6.9,0,12.6,5.7,12.6,12.6v0C381,363.1,375.3,368.7,368.4,368.7z"/>
		
			<linearGradient id="SVGID_00000004529600432846359660000003680836267405871762_" gradientUnits="userSpaceOnUse" x1="145.0837" y1="339.471" x2="281.9899" y2="428.6796">
			<stop  offset="0.1491" style="stop-color:#FAFAFA"/>
			<stop  offset="0.818" style="stop-color:#CBCBCB"/>
		</linearGradient>
		<path style="fill:url(#SVGID_00000004529600432846359660000003680836267405871762_);" d="M302.4,403.3H145.1
			c-6.9,0-12.6-5.7-12.6-12.6v0c0-6.9,5.7-12.6,12.6-12.6h157.2c6.9,0,12.6,5.7,12.6,12.6v0C314.9,397.6,309.3,403.3,302.4,403.3z"
			/>
	</g>
</g>
</svg>
