<?xml version="1.0" encoding="utf-8"?>
<!-- Generator: Adobe Illustrator 26.0.3, SVG Export Plug-In . SVG Version: 6.00 Build 0)  -->
<svg version="1.1" id="图层_1" xmlns="http://www.w3.org/2000/svg" xmlns:xlink="http://www.w3.org/1999/xlink" x="0px" y="0px"
	 viewBox="0 0 500 500" style="enable-background:new 0 0 500 500;" xml:space="preserve">
<style type="text/css">
	.st0{fill:url(#Layer_00000106846994188743288310000008276387394426453174_);}
	.st1{fill-rule:evenodd;clip-rule:evenodd;fill:#666666;}
	.st2{fill:#666666;}
</style>
<linearGradient id="Layer_00000049914706579801251130000008938118568010134148_" gradientUnits="userSpaceOnUse" x1="231.3804" y1="384.4983" x2="231.2016" y2="204.5646">
	<stop  offset="0" style="stop-color:#FF7BAC"/>
	<stop  offset="1" style="stop-color:#FFFFFF"/>
</linearGradient>
<path id="Layer" style="fill:url(#Layer_00000049914706579801251130000008938118568010134148_);" d="M240.2,347.6V210.8
	c0-4.9-4-8.9-8.9-8.9c-4.9,0-8.9,4-8.9,8.9v136.8c-8.1,3.4-13.9,11.5-13.9,21c0,12.6,10.2,22.8,22.8,22.8s22.8-10.2,22.8-22.8
	C254.2,359.1,248.4,351,240.2,347.6z"/>
<path id="Layer_00000027581444878255880080000011399475136463193782_" class="st1" d="M297.4,367.5c0,36.4-29.6,66-66,66
	s-66-29.6-66-66c0-21.6,10.4-40.7,26.3-52.8V100.5c0-18.8,15.2-34,34-34h11.4c18.8,0,34,15.2,34,34v214.2
	C287.2,326.8,297.5,345.9,297.4,367.5z M231.4,418.7c28.3,0,51.4-22.9,51.4-51.4c0-12.3-4.4-23.7-11.7-32.6c-4.1-4.9-9-9-14.7-12.1
	V176.9h-12.9c-2.1,0-3.8-1.8-3.8-3.8c0-2.1,1.8-3.9,3.8-3.9h12.9v-20.9h-13.3c-2.1,0-3.9-1.8-3.9-3.8c0-2.1,1.8-3.8,3.9-3.8h13.3
	v-20.9h-13.3c-2.1,0-3.9-1.8-3.9-3.9c0-2.1,1.8-3.8,3.9-3.8h13.3v-11.5c0-10.7-8.6-19.2-19.2-19.2h-11.4c-10.7,0-19.2,8.6-19.2,19.2
	v222.3c-5.6,3.1-10.7,7.3-14.7,12.1c-7.3,8.9-11.7,20.1-11.7,32.6C180.1,395.8,203.1,418.7,231.4,418.7z"/>
<path id="形状_1" class="st2" d="M292.2,105.3h36.8c2.1,0,3.9,1.7,3.9,3.9v4.6c0,2.1-1.7,3.9-3.9,3.9h-36.8
	c-2.1,0-3.9-1.7-3.9-3.9v-4.6C288.4,107,290.1,105.3,292.2,105.3z"/>
<path id="形状_1_00000155116631873717732280000007872065122826477451_" class="st2" d="M292.5,105.1h36.8c2.1,0,3.9,1.7,3.9,3.9
	v4.6c0,2.1-1.7,3.9-3.9,3.9h-36.8c-2.1,0-3.9-1.7-3.9-3.9v-4.6C288.7,106.8,290.4,105.1,292.5,105.1z"/>
<path id="形状_1_00000135680426107623938430000008755598736497218179_" class="st2" d="M304.8,129.7V92.8c0-2.1,1.7-3.9,3.9-3.9
	h4.6c2.1,0,3.9,1.7,3.9,3.9v36.8c0,2.1-1.7,3.9-3.9,3.9h-4.6C306.5,133.5,304.8,131.8,304.8,129.7z"/>
</svg>
