<?xml version="1.0" encoding="utf-8"?>
<!-- Generator: Adobe Illustrator 26.0.3, SVG Export Plug-In . SVG Version: 6.00 Build 0)  -->
<svg version="1.1" id="图层_1" xmlns="http://www.w3.org/2000/svg" xmlns:xlink="http://www.w3.org/1999/xlink" x="0px" y="0px"
	 viewBox="0 0 500 500" style="enable-background:new 0 0 500 500;" xml:space="preserve">
<style type="text/css">
	.st0{fill:url(#SVGID_1_);}
	.st1{fill:url(#SVGID_00000085232816608518135960000005686757629716074376_);}
	.st2{fill:url(#SVGID_00000045600298719604820350000002379848061109590167_);}
	.st3{fill:url(#SVGID_00000088134870803999635890000011356257509980237216_);}
	.st4{fill:url(#SVGID_00000113337185227284759400000004966224946482654872_);}
	.st5{fill:url(#SVGID_00000139257120617970558050000011112712738761457026_);}
	.st6{fill:url(#SVGID_00000129902748111381773870000016125460044270216860_);}
	.st7{fill:url(#SVGID_00000150068951002317997760000003782093270716434838_);}
	.st8{fill:url(#SVGID_00000161602938227810292930000016500045227308262036_);}
	.st9{fill:url(#SVGID_00000087387161616612006790000008963175068591767946_);}
</style>
<g>
	
		<linearGradient id="SVGID_1_" gradientUnits="userSpaceOnUse" x1="141.4947" y1="356.7965" x2="372.4591" y2="206.2992" gradientTransform="matrix(1 0 0 -1 0 502)">
		<stop  offset="0.1491" style="stop-color:#FAFAFA"/>
		<stop  offset="0.818" style="stop-color:#CBCBCB"/>
	</linearGradient>
	<path class="st0" d="M360.3,169.5C348,127.5,309.1,96.7,263,96.7c-55.4,0-100.4,44.3-101.3,99.5c-25.7,3-45.8,24.9-45.8,51.5
		c0,28.6,23.2,51.8,51.8,51.8h184.9c36,0,65.2-29.2,65.2-65.2C417.8,200.9,392.6,173.4,360.3,169.5z"/>
	
		<linearGradient id="SVGID_00000073711785042988040860000013858652673579772042_" gradientUnits="userSpaceOnUse" x1="90.4784" y1="146.6012" x2="188.1797" y2="210.2637">
		<stop  offset="0.1491" style="stop-color:#FAFAFA"/>
		<stop  offset="0.818" style="stop-color:#CBCBCB"/>
	</linearGradient>
	<path style="fill:url(#SVGID_00000073711785042988040860000013858652673579772042_);" d="M198.4,195.8H94.8
		c-6.9,0-12.6-5.7-12.6-12.6v0c0-6.9,5.7-12.6,12.6-12.6h103.6c6.9,0,12.6,5.7,12.6,12.6v0C211,190.1,205.3,195.8,198.4,195.8z"/>
	
		<linearGradient id="SVGID_00000146482163860142664820000013330223936888960408_" gradientUnits="userSpaceOnUse" x1="225.8274" y1="171.6839" x2="262.8242" y2="195.7912">
		<stop  offset="0.1491" style="stop-color:#FAFAFA"/>
		<stop  offset="0.818" style="stop-color:#CBCBCB"/>
	</linearGradient>
	<path style="fill:url(#SVGID_00000146482163860142664820000013330223936888960408_);" d="M257.4,198.1h-20.6
		c-6.9,0-12.6-5.7-12.6-12.6v0c0-6.9,5.7-12.6,12.6-12.6h20.6c6.9,0,12.6,5.7,12.6,12.6v0C270,192.5,264.3,198.1,257.4,198.1z"/>
	<g>
		
			<linearGradient id="SVGID_00000053516022705576831590000007664826502899060610_" gradientUnits="userSpaceOnUse" x1="148.378" y1="270.2887" x2="285.2842" y2="359.4973">
			<stop  offset="0.1491" style="stop-color:#FAFAFA"/>
			<stop  offset="0.818" style="stop-color:#CBCBCB"/>
		</linearGradient>
		<path style="fill:url(#SVGID_00000053516022705576831590000007664826502899060610_);" d="M305.7,334.1H148.4
			c-6.9,0-12.6-5.7-12.6-12.6v0c0-6.9,5.7-12.6,12.6-12.6h157.2c6.9,0,12.6,5.7,12.6,12.6v0C318.2,328.5,312.6,334.1,305.7,334.1z"
			/>
		
			<linearGradient id="SVGID_00000166652708984110144100000002333218507049254058_" gradientUnits="userSpaceOnUse" x1="227.9378" y1="304.8799" x2="364.844" y2="394.0884">
			<stop  offset="0.1491" style="stop-color:#FAFAFA"/>
			<stop  offset="0.818" style="stop-color:#CBCBCB"/>
		</linearGradient>
		<path style="fill:url(#SVGID_00000166652708984110144100000002333218507049254058_);" d="M385.2,368.7H228
			c-6.9,0-12.6-5.7-12.6-12.6v0c0-6.9,5.7-12.6,12.6-12.6h157.2c6.9,0,12.6,5.7,12.6,12.6v0C397.8,363.1,392.1,368.7,385.2,368.7z"
			/>
		
			<linearGradient id="SVGID_00000051358823840373163490000011305170272996567739_" gradientUnits="userSpaceOnUse" x1="136.7428" y1="339.471" x2="273.649" y2="428.6796">
			<stop  offset="0.1491" style="stop-color:#FAFAFA"/>
			<stop  offset="0.818" style="stop-color:#CBCBCB"/>
		</linearGradient>
		<path style="fill:url(#SVGID_00000051358823840373163490000011305170272996567739_);" d="M294,403.3H136.8
			c-6.9,0-12.6-5.7-12.6-12.6v0c0-6.9,5.7-12.6,12.6-12.6H294c6.9,0,12.6,5.7,12.6,12.6v0C306.6,397.6,300.9,403.3,294,403.3z"/>
	</g>
	
		<linearGradient id="SVGID_00000175297504415036725790000000480989928282502576_" gradientUnits="userSpaceOnUse" x1="96.1497" y1="173.3146" x2="245.7601" y2="270.8013">
		<stop  offset="0.1491" style="stop-color:#FAFAFA"/>
		<stop  offset="0.818" style="stop-color:#CBCBCB"/>
	</linearGradient>
	<path style="fill:url(#SVGID_00000175297504415036725790000000480989928282502576_);" d="M269.4,241.9H94.8
		c-6.9,0-12.6-5.7-12.6-12.6v0c0-6.9,5.7-12.6,12.6-12.6h174.6c6.9,0,12.6,5.7,12.6,12.6v0C282,236.2,276.3,241.9,269.4,241.9z"/>
	
		<linearGradient id="SVGID_00000026159246040689491400000003166577844035308211_" gradientUnits="userSpaceOnUse" x1="335.0331" y1="307.6921" x2="372.0299" y2="331.7994">
		<stop  offset="0.1491" style="stop-color:#FAFAFA"/>
		<stop  offset="0.818" style="stop-color:#CBCBCB"/>
	</linearGradient>
	<path style="fill:url(#SVGID_00000026159246040689491400000003166577844035308211_);" d="M366.6,334.1H346
		c-6.9,0-12.6-5.7-12.6-12.6v0c0-6.9,5.7-12.6,12.6-12.6h20.6c6.9,0,12.6,5.7,12.6,12.6v0C379.2,328.5,373.5,334.1,366.6,334.1z"/>
	
		<linearGradient id="SVGID_00000168796258590424638460000001128352343535768473_" gradientUnits="userSpaceOnUse" x1="160.851" y1="342.2833" x2="197.8478" y2="366.3906">
		<stop  offset="0.1491" style="stop-color:#FAFAFA"/>
		<stop  offset="0.818" style="stop-color:#CBCBCB"/>
	</linearGradient>
	<path style="fill:url(#SVGID_00000168796258590424638460000001128352343535768473_);" d="M192.4,368.7h-20.6
		c-6.9,0-12.6-5.7-12.6-12.6v0c0-6.9,5.7-12.6,12.6-12.6h20.6c6.9,0,12.6,5.7,12.6,12.6v0C205,363.1,199.3,368.7,192.4,368.7z"/>
	
		<linearGradient id="SVGID_00000070098734536836028830000014680883240755665033_" gradientUnits="userSpaceOnUse" x1="319.8525" y1="376.8745" x2="356.8494" y2="400.9818">
		<stop  offset="0.1491" style="stop-color:#FAFAFA"/>
		<stop  offset="0.818" style="stop-color:#CBCBCB"/>
	</linearGradient>
	<path style="fill:url(#SVGID_00000070098734536836028830000014680883240755665033_);" d="M351.4,403.3h-20.6
		c-6.9,0-12.6-5.7-12.6-12.6v0c0-6.9,5.7-12.6,12.6-12.6h20.6c6.9,0,12.6,5.7,12.6,12.6v0C364,397.6,358.3,403.3,351.4,403.3z"/>
</g>
</svg>
