<?xml version="1.0" encoding="utf-8"?>
<!-- Generator: Adobe Illustrator 26.0.3, SVG Export Plug-In . SVG Version: 6.00 Build 0)  -->
<svg version="1.1" id="图层_1" xmlns="http://www.w3.org/2000/svg" xmlns:xlink="http://www.w3.org/1999/xlink" x="0px" y="0px"
	 viewBox="0 0 500 500" style="enable-background:new 0 0 500 500;" xml:space="preserve">
<style type="text/css">
	.st0{fill:url(#SVGID_1_);}
	.st1{fill-rule:evenodd;clip-rule:evenodd;fill:url(#SVGID_00000056421566870026631340000018200009444008940184_);}
	.st2{fill:url(#SVGID_00000082358774513938438070000001012574435214963630_);}
</style>
<linearGradient id="SVGID_1_" gradientUnits="userSpaceOnUse" x1="184.1984" y1="70.8151" x2="465.9656" y2="387.7831">
	<stop  offset="0.2459" style="stop-color:#FAFAFA"/>
	<stop  offset="0.4701" style="stop-color:#D2D2D2"/>
	<stop  offset="0.6556" style="stop-color:#B9B9B9"/>
	<stop  offset="0.7664" style="stop-color:#AFAFAF"/>
</linearGradient>
<path class="st0" d="M426.7,211.7c-0.2,0-0.3,0-0.5,0c-5.1-55.1-51.4-98.2-107.8-98.2c-59.8,0-108.2,48.5-108.2,108.2
	c0,57.8,45.3,105,102.4,108.1v0.2h114.1c32.7,0,59.2-26.5,59.2-59.2S459.4,211.7,426.7,211.7z"/>
<linearGradient id="SVGID_00000173140378801524274060000003833803257598459041_" gradientUnits="userSpaceOnUse" x1="209.4429" y1="92.1426" x2="366.831" y2="208.0974">
	<stop  offset="4.977477e-03" style="stop-color:#FFFFFF"/>
	<stop  offset="0.8567" style="stop-color:#F99C00"/>
</linearGradient>
<path style="fill-rule:evenodd;clip-rule:evenodd;fill:url(#SVGID_00000173140378801524274060000003833803257598459041_);" d="
	M371.3,169.5c-52.3,0-94.7-42.4-94.7-94.7c0-9.8,1.5-19.2,4.2-28.1c0.3-0.9-0.5-1.8-1.5-1.7c-43.1,8-75.9,45.2-77.2,90.4
	c-1.5,54.1,42.9,98.8,97.1,97.4c40-1,73.8-26.7,86.7-62.5c0.3-0.9-0.4-1.9-1.4-1.7C380.2,169.2,375.8,169.5,371.3,169.5z"/>
<linearGradient id="SVGID_00000131348518076489348880000003702745611634701189_" gradientUnits="userSpaceOnUse" x1="50.4482" y1="207.5954" x2="377.0237" y2="420.3932">
	<stop  offset="0.1491" style="stop-color:#FAFAFA"/>
	<stop  offset="0.818" style="stop-color:#CBCBCB"/>
</linearGradient>
<path style="fill:url(#SVGID_00000131348518076489348880000003702745611634701189_);" d="M359.8,242c-17.4-59.5-72.4-103-137.6-103
	c-78.3,0-141.9,62.7-143.3,140.7c-36.4,4.3-64.7,35.2-64.7,72.8c0,40.5,32.8,73.3,73.3,73.3h261.4c50.9,0,92.2-41.3,92.2-92.2
	C441.1,286.3,405.6,247.4,359.8,242z"/>
</svg>
