<?xml version="1.0" encoding="utf-8"?>
<!-- Generator: Adobe Illustrator 26.0.3, SVG Export Plug-In . SVG Version: 6.00 Build 0)  -->
<svg version="1.1" id="图层_1" xmlns="http://www.w3.org/2000/svg" xmlns:xlink="http://www.w3.org/1999/xlink" x="0px" y="0px"
	 viewBox="0 0 500 500" style="enable-background:new 0 0 500 500;" xml:space="preserve">
<style type="text/css">
	.st0{fill:url(#SVGID_1_);}
	.st1{fill:url(#SVGID_00000165953894143688590820000014817649049275807142_);}
	.st2{fill:url(#SVGID_00000031198607694441438650000017983665596390162331_);}
	.st3{fill:#FFD000;}
	.st4{fill:url(#SVGID_00000165214131473915122390000017220150977545439387_);}
</style>
<linearGradient id="SVGID_1_" gradientUnits="userSpaceOnUse" x1="184.1984" y1="70.8151" x2="465.9656" y2="387.7831">
	<stop  offset="0.2459" style="stop-color:#FAFAFA"/>
	<stop  offset="0.4701" style="stop-color:#D2D2D2"/>
	<stop  offset="0.6556" style="stop-color:#B9B9B9"/>
	<stop  offset="0.7664" style="stop-color:#AFAFAF"/>
</linearGradient>
<path class="st0" d="M426.7,211.7c-0.2,0-0.3,0-0.5,0c-5.1-55.1-51.4-98.2-107.8-98.2c-59.8,0-108.2,48.5-108.2,108.2
	c0,57.8,45.3,105,102.4,108.1v0.2h114.1c32.7,0,59.2-26.5,59.2-59.2S459.4,211.7,426.7,211.7z"/>
<linearGradient id="SVGID_00000078044090864198082350000002165812478606702269_" gradientUnits="userSpaceOnUse" x1="309.3173" y1="338.005" x2="410.375" y2="236.9472" gradientTransform="matrix(1 0 0 -1 0 502)">
	<stop  offset="0" style="stop-color:#F9C30B"/>
	<stop  offset="1" style="stop-color:#FF8800"/>
</linearGradient>
<polygon style="fill:url(#SVGID_00000078044090864198082350000002165812478606702269_);" points="262.5,218.3 356.1,117.2 
	457.2,210.8 363.6,311.8 "/>
<linearGradient id="SVGID_00000040560532402530533750000001789668414128785053_" gradientUnits="userSpaceOnUse" x1="314.2579" y1="333.0643" x2="416.527" y2="230.7953" gradientTransform="matrix(1 0 0 -1 0 502)">
	<stop  offset="0" style="stop-color:#F9C30B"/>
	<stop  offset="1" style="stop-color:#FF8800"/>
</linearGradient>
<rect x="291" y="145.7" style="fill:url(#SVGID_00000040560532402530533750000001789668414128785053_);" width="137.6" height="137.6"/>
<circle class="st3" cx="359.8" cy="214.5" r="69"/>
<linearGradient id="SVGID_00000009550011834520483120000006619832006551570060_" gradientUnits="userSpaceOnUse" x1="50.4482" y1="207.5954" x2="377.0237" y2="420.3932">
	<stop  offset="0.1491" style="stop-color:#FAFAFA"/>
	<stop  offset="0.818" style="stop-color:#CBCBCB"/>
</linearGradient>
<path style="fill:url(#SVGID_00000009550011834520483120000006619832006551570060_);" d="M359.8,242c-17.4-59.5-72.4-103-137.6-103
	c-78.3,0-141.9,62.7-143.3,140.7c-36.4,4.3-64.7,35.2-64.7,72.8c0,40.5,32.8,73.3,73.3,73.3h261.4c50.9,0,92.2-41.3,92.2-92.2
	C441.1,286.3,405.6,247.4,359.8,242z"/>
</svg>
