<?xml version="1.0" encoding="utf-8"?>
<!-- Generator: Adobe Illustrator 26.0.3, SVG Export Plug-In . SVG Version: 6.00 Build 0)  -->
<svg version="1.1" id="图层_1" xmlns="http://www.w3.org/2000/svg" xmlns:xlink="http://www.w3.org/1999/xlink" x="0px" y="0px"
	 viewBox="0 0 500 500" style="enable-background:new 0 0 500 500;" xml:space="preserve">
<style type="text/css">
	.st0{fill:#E6E6E6;}
	.st1{fill:#4FC0F2;}
</style>
<path class="st0" d="M434.9,115.9H65.4c-16.3,0-29.5-13.2-29.5-29.5s13.2-29.5,29.5-29.5h369.5c16.3,0,29.5,13.2,29.5,29.5
	S451.1,115.9,434.9,115.9z"/>
<path class="st0" d="M434.9,232.8H65.4c-16.3,0-29.5-13.2-29.5-29.5s13.2-29.5,29.5-29.5h369.5c16.3,0,29.5,13.2,29.5,29.5
	S451.1,232.8,434.9,232.8z"/>
<path class="st0" d="M240.9,349.7H65.4c-16.2,0-29.5-13.3-29.5-29.5v0c0-16.2,13.3-29.5,29.5-29.5h175.5c16.2,0,29.5,13.3,29.5,29.5
	v0C270.4,336.4,257.1,349.7,240.9,349.7z"/>
<path class="st1" d="M447.4,318.7h-30.5l15.3-26.4c4.7-8.1,1.9-18.5-6.2-23.2c-8.1-4.6-18.5-1.9-23.2,6.2l-15.3,26.4l-15.3-26.4
	c-5.2-7.8-15.8-9.9-23.6-4.7c-7.1,4.7-9.6,14-5.8,21.7l15.3,26.4h-30.5c-9.4,0-17,7.6-17,16.9c0,9.4,7.6,17,16.9,17c0,0,0,0,0,0
	h30.5L342.8,379c-4.7,8.2-1.8,18.5,6.3,23.2c2.6,1.5,5.4,2.2,8.4,2.3c6.1,0,11.7-3.2,14.7-8.5l15.3-26.4l15.3,26.4
	c4.7,8.1,15.1,10.9,23.2,6.2c0,0,0,0,0,0c8.1-4.7,10.9-15.1,6.2-23.2l-15.3-26.4h30.5c9.4,0,17-7.6,16.9-17
	C464.3,326.3,456.7,318.7,447.4,318.7z"/>
</svg>
