<?xml version="1.0" encoding="utf-8"?>
<!-- Generator: Adobe Illustrator 26.0.3, SVG Export Plug-In . SVG Version: 6.00 Build 0)  -->
<svg version="1.1" id="图层_1" xmlns="http://www.w3.org/2000/svg" xmlns:xlink="http://www.w3.org/1999/xlink" x="0px" y="0px"
	 viewBox="0 0 500 500" style="enable-background:new 0 0 500 500;" xml:space="preserve">
<style type="text/css">
	.st0{fill:#E3E3E3;}
	.st1{fill:#F6F6F6;}
	.st2{fill:#79BBFF;}
</style>
<path class="st0" d="M71,182.6c0.1,0,0.3,0,0.4,0c4.3-46.8,43.7-83.4,91.6-83.4c50.8,0,92,41.2,92,92c0,49.1-38.5,89.3-87,91.9v0.1
	H71c-27.8,0-50.3-22.5-50.3-50.3S43.2,182.6,71,182.6z"/>
<path class="st0" d="M429,182.6c-0.1,0-0.3,0-0.4,0c-4.3-46.8-43.7-83.4-91.6-83.4c-50.8,0-92,41.2-92,92c0,49.1,38.5,89.3,87,91.9
	v0.1h97c27.8,0,50.3-22.5,50.3-50.3S456.8,182.6,429,182.6z"/>
<path class="st1" d="M358.1,137.3c-14.8-50.6-61.6-87.6-117-87.6c-66.5,0-120.6,53.3-121.8,119.6c-31,3.6-55,30-55,61.9
	c0,34.4,27.9,62.3,62.3,62.3h222.2c43.3,0,78.4-35.1,78.4-78.4C427.2,175,397,141.9,358.1,137.3z"/>
<path class="st2" d="M142,339.6c0,40.8-33.2,67.5-73.9,64.6c-14.5-1-24.9,9.3-24.9,18.9c0,9.6,10.4,18.7,24.9,17.6
	c60.7-4.4,110.4-40.2,110.4-101.1v-45.4l-36.5-0.6V339.6z"/>
<path class="st2" d="M435.1,403.5c-40.6,2.9-73.9-23.8-73.9-64.6v-44l-36.5-0.6v44.6c0,60.9,45.9,98,110.4,101.1
	c14.5,0.7,25.7-8.7,25.7-18.3C460.8,412.2,449.7,402.5,435.1,403.5z"/>
<path class="st2" d="M251.7,450.3L251.7,450.3c-8.4,0-15.3-6.8-15.3-15.3V294.3H267V435C267,443.4,260.2,450.3,251.7,450.3z"/>
</svg>
