<?xml version="1.0" encoding="utf-8"?>
<!-- Generator: Adobe Illustrator 26.0.3, SVG Export Plug-In . SVG Version: 6.00 Build 0)  -->
<svg version="1.1" id="图层_1" xmlns="http://www.w3.org/2000/svg" xmlns:xlink="http://www.w3.org/1999/xlink" x="0px" y="0px"
	 viewBox="0 0 500 500" style="enable-background:new 0 0 500 500;" xml:space="preserve">
<style type="text/css">
	.st0{fill:#79BBFF;}
	.st1{fill:#409EFF;}
	.st2{fill:#D9ECFF;}
	.st3{fill:#B3D8FF;}
</style>
<polygon class="st0" points="144.3,468.6 302,468.6 265.7,263.5 "/>
<polygon class="st1" points="312.6,63.7 228.9,120.2 230.7,258 265.7,263.5 302,468.6 486.8,468.6 "/>
<path class="st2" d="M262.1,70.8c7.6-10.2,5.4-24.7-4.8-32.3c-10.2-7.6-24.7-5.4-32.3,4.8c-0.1,0.2-0.2,0.3-0.4,0.5
	c-7.3,10.4-4.8,24.8,5.7,32.1C240.6,83.1,254.7,80.8,262.1,70.8z"/>
<path class="st3" d="M175.5,320.7c7.6-10.2,5.4-24.7-4.8-32.3c-10.2-7.6-24.7-5.4-32.3,4.8c-0.1,0.2-0.2,0.3-0.4,0.5
	c-7.3,10.4-4.8,24.8,5.7,32.1C154,333,168.1,330.7,175.5,320.7z"/>
<path class="st3" d="M203.4,124.7c10.8-14.1,8.2-34.2-5.8-45.1c-14.1-10.8-34.2-8.2-45.1,5.8c-0.4,0.5-0.8,1.1-1.2,1.7
	c-9.9,14.7-6,34.7,8.7,44.6C174.1,141.2,193.1,138.2,203.4,124.7z"/>
<circle class="st2" cx="146.4" cy="208.6" r="43.9"/>
<path class="st0" d="M113.5,342.4c-26-18.7-62.2-12.9-80.9,13.1c-18.7,26-12.9,62.2,13.1,80.9s62.2,12.9,80.9-13.1
	S139.5,361.1,113.5,342.4L113.5,342.4z"/>
</svg>
