<?xml version="1.0" encoding="utf-8"?>
<!-- Generator: Adobe Illustrator 26.0.3, SVG Export Plug-In . SVG Version: 6.00 Build 0)  -->
<svg version="1.1" id="图层_1" xmlns="http://www.w3.org/2000/svg" xmlns:xlink="http://www.w3.org/1999/xlink" x="0px" y="0px"
	 viewBox="0 0 500 500" style="enable-background:new 0 0 500 500;" xml:space="preserve">
<style type="text/css">
	.st0{fill:#62BEE2;}
	.st1{fill:#3FA9F5;}
</style>
<path class="st0" d="M439.9,58.5c-11.7,0-21.1,9.5-21.1,21.1c0,0,0,0,0,0.1v319.5H81.2V79.6c0-11.7-9.5-21.1-21.1-21.2
	C48.5,58.5,39,68,39,79.6v340.7c0,11.7,9.4,21.1,21,21.2c0,0,0,0,0.1,0h379.8c11.7,0,21.1-9.5,21.1-21.1c0,0,0,0,0-0.1V79.6
	C461,68,451.6,58.5,439.9,58.5C439.9,58.5,439.9,58.5,439.9,58.5z"/>
<path class="st1" d="M133.4,240.1h79.9l-39.9,69.1c-5.5,10.3-1.5,23.1,8.8,28.6c9.8,5.2,21.9,1.9,27.8-7.4l39.9-69.1l39.9,69.1
	c5.8,10.1,18.7,13.5,28.8,7.7c10.1-5.8,13.6-18.7,7.8-28.9l-40-69.1h79.9c11.7,0,21.1-9.5,21.1-21.1c0-11.7-9.5-21.1-21.1-21.1
	h-79.8l39.9-69.1c5.7-10.2,2-23.1-8.2-28.8c-10-5.6-22.6-2.2-28.5,7.6l-39.9,69.1l-39.9-69.1c-6.2-9.9-19.3-12.8-29.2-6.6
	c-9.4,5.9-12.6,18-7.4,27.8l39.9,69.1h-79.9c-11.7,0-21.1,9.4-21.1,21.1C112.3,230.6,121.7,240.1,133.4,240.1
	C133.4,240.1,133.4,240.1,133.4,240.1z"/>
</svg>
