<?xml version="1.0" encoding="utf-8"?>
<!-- Generator: Adobe Illustrator 26.0.3, SVG Export Plug-In . SVG Version: 6.00 Build 0)  -->
<svg version="1.1" id="图层_1" xmlns="http://www.w3.org/2000/svg" xmlns:xlink="http://www.w3.org/1999/xlink" x="0px" y="0px"
	 viewBox="0 0 500 500" style="enable-background:new 0 0 500 500;" xml:space="preserve">
<style type="text/css">
	.st0{fill:#409EFF;}
	.st1{fill:#66B1FF;}
	.st2{fill:#79BBFF;}
</style>
<circle class="st0" cx="246.2" cy="305.3" r="76.1"/>
<path class="st1" d="M246.2,197.9c26.4,0,44.3,12.9,49.7,17c0.4-4.6,0.7-10.4,0.7-17c0.4-63.8-25.9-139.6-50.3-139.6
	c-18.4,0-50.1,62.5-50.1,139.6c0,5.7,0.4,11.2,0.7,16.7C211.1,203.8,228.4,197.9,246.2,197.9z"/>
<path class="st2" d="M155.9,363.2c-8.9-15.6-12.5-33.7-10.1-51.5c-5.1,2.4-10.2,5.1-15.1,7.9C75.3,351,22.8,411.7,35,432.9
	c9.2,15.9,79.2,12.2,145.9-26.4c5-2.9,9.5-6,14.1-9C178.6,390.6,164.8,378.6,155.9,363.2z"/>
<path class="st1" d="M369.2,315.4c-4.9-2.7-9.8-5.3-14.8-7.7c2.3,17.7-1.3,35.6-10.2,51c-9,15.5-22.9,27.7-39.6,34.5
	c4.7,3.1,9.3,6.2,14.4,9.2c66.8,38.5,136.8,42.3,146,26.2C477.2,407.5,424.6,346.9,369.2,315.4z"/>
</svg>
