<?xml version="1.0" encoding="utf-8"?>
<!-- Generator: Adobe Illustrator 26.0.3, SVG Export Plug-In . SVG Version: 6.00 Build 0)  -->
<svg version="1.1" xmlns="http://www.w3.org/2000/svg" xmlns:xlink="http://www.w3.org/1999/xlink" x="0px" y="0px"
	 viewBox="0 0 500 500" style="enable-background:new 0 0 500 500;" xml:space="preserve">
<style type="text/css">
	.st0{fill:#F58502;}
	.st1{fill:#666666;}
	.st2{fill:#E6E6E6;}
	.st3{fill:#FBB03B;}
</style>
<polygon class="st0" points="267.5,380.5 450.4,333.5 128.3,264.7 199.1,324.5 19.6,372.4 281.4,472.6 480.4,435.2 "/>
<g>
	<path class="st1" d="M316.2,38.8c22.5,6.4,43.9,16.1,63.5,28.8c13.5,9.7,27.2,18.7,39.4,28.9c9.2,7.3,13.9,18.9,12.6,30.5
		c-1.7,19.7-3,39.4-3.9,59.1c-0.1,3.4,1.6,9.1,3.8,9.8c12.6,3.3,20.3,16.2,17.3,28.9c-0.6,3.4-2,6.5-4.2,9.2l-19-3.1
		c-1.6,6.4-3.6,12.6-6,18.7l-37.2,82c-2.4,4.9-6.4,8.8-11.2,11.3c-17-4.1-33.2-11-47.8-20.6c-7.8-11.9,4.3-20.5,5-31.6l-144-65.2
		c-7.4,8.8-16.7,24.9-20.4,24.7c-17.3-4.5-33.8-11.9-48.6-22c-1.4-6.1-0.7-12.4,1.8-18.1c4.5-12.2,9.6-23.5,14.8-35.1
		c9.7-21.5,19.5-42.9,30.1-64.2l-13.8-11.3c0.6-2.6,1.7-5.1,3.3-7.3c9.8-9.8,19.9-16.3,34.5-8.1c1.8,0.8,6.8-1.2,9-3.4
		c11.6-10.6,22.7-21.9,33.1-33.7c14.9-17.7,39.2-24.3,61-16.5c8.8,2.2,17.7,5,26.5,7.4L316.2,38.8z"/>
	<path class="st2" d="M209.3,100.7C267,143.1,333,173,403,188.4c2-18.9,3.1-36.1,6-52.6c2.9-12.7-3.7-25.7-15.7-30.8
		c-30.1-15.2-60.4-30.2-90.9-44.4c-10.2-4.1-20.8-7.1-31.7-8.8c-4.9-1.1-10-0.2-14.2,2.5C240.1,68.4,225.5,84.1,209.3,100.7
		L209.3,100.7z"/>
	<path class="st3" d="M190.2,176.3c5.2,2.7,10.6,4.8,16.2,6.3c4.5,0.9,9.2-0.1,12.9-2.9c1.7-1.9,0.8-8.9-1.5-11.6
		c-9.5-11.1-19.6-21.6-30.3-31.6c-5.3-4.9-12.6-7.7-18,0.4c-8.8,11.5-9.1,20-0.4,26.4c6.9,4.9,14,8.5,22,13L190.2,176.3z"/>
	<path class="st3" d="M361,253.6c8.1,3,16.3,5.5,24.6,7.6c12.2,2.5,14-7.6,17.2-15.6c3.3-8,0.8-13.6-6.1-14.5
		c-17.3-2.4-34.7-3.4-52.1-3.2c-7.9,0.2-9.4,9.8-2.8,14.8c6.2,4,12.6,7.6,19.2,10.8L361,253.6z"/>
</g>
</svg>
