<?xml version="1.0" encoding="utf-8"?>
<!-- Generator: Adobe Illustrator 26.0.3, SVG Export Plug-In . SVG Version: 6.00 Build 0)  -->
<svg version="1.1" xmlns="http://www.w3.org/2000/svg" xmlns:xlink="http://www.w3.org/1999/xlink" x="0px" y="0px"
	 viewBox="0 0 500 500" style="enable-background:new 0 0 500 500;" xml:space="preserve">
<style type="text/css">
	.st0{fill:#FFB55A;}
	.st1{fill:#FFCF00;}
	.st2{fill-rule:evenodd;clip-rule:evenodd;fill:#707070;}
	.st3{fill-rule:evenodd;clip-rule:evenodd;fill:#FFFFFF;}
	.st4{fill:#FF6464;}
</style>
<polygon class="st0" points="86.9,284.5 243.7,115.2 413.1,272 256.3,441.3 "/>
<rect x="134.7" y="162.9" class="st0" width="230.7" height="230.7"/>
<circle class="st1" cx="250" cy="278.2" r="115.6"/>
<path class="st2" d="M355.8,306.9V92.7c0-18.8-15.2-34-34-34h-11.4c-18.8,0-34,15.2-34,34v214.2c-16,12.1-26.3,31.2-26.3,52.8
	c0,36.4,29.6,66,66,66s66-29.6,66-66C382.2,338.2,371.8,319.1,355.8,306.9z"/>
<path class="st3" d="M316,411c-28.3,0-51.2-22.9-51.2-51.2c0-12.4,4.4-23.7,11.7-32.6c4-4.9,9-9,14.7-12.1V92.7
	c0-10.7,8.6-19.2,19.2-19.2h11.4c10.7,0,19.2,8.6,19.2,19.2v11.5h-13.3c-2.1,0-3.9,1.8-3.9,3.8c0,2.1,1.8,3.9,3.9,3.9H341v20.9
	h-13.3c-2.1,0-3.9,1.8-3.9,3.8c0,2.1,1.8,3.8,3.9,3.8H341v20.9h-12.9c-2.1,0-3.8,1.8-3.8,3.9c0,2.1,1.8,3.8,3.8,3.8H341v145.8
	c5.6,3.1,10.5,7.3,14.7,12.1c7.3,8.9,11.7,20.3,11.7,32.6C367.4,388,344.3,411,316,411z"/>
<path class="st4" d="M325,339.8V203c0-4.9-4-8.9-8.9-8.9c-4.9,0-8.9,4-8.9,8.9v136.8c-8.1,3.4-13.9,11.5-13.9,21
	c0,12.6,10.2,22.8,22.8,22.8s22.8-10.2,22.8-22.8C338.9,351.3,333.1,343.2,325,339.8z"/>
</svg>
