<?xml version="1.0" encoding="utf-8"?>
<!-- Generator: Adobe Illustrator 26.0.3, SVG Export Plug-In . SVG Version: 6.00 Build 0)  -->
<svg version="1.1" id="图层_1" xmlns="http://www.w3.org/2000/svg" xmlns:xlink="http://www.w3.org/1999/xlink" x="0px" y="0px"
	 viewBox="0 0 500 500" style="enable-background:new 0 0 500 500;" xml:space="preserve">
<style type="text/css">
	.st0{fill:#CCCCCC;}
</style>
<g>
	<g>
		<path class="st0" d="M250,43.7c115.6,0,209.4,92.3,209.4,206.3c0,79.6-45.8,128.5-112.8,150.7v23.2c0.1,16.9-12.8,31-29.6,32.4
			c-16.8,1.4-31.8-10.5-34.4-27.1l-0.4-3.3l-0.1,2.5c-2,16.5-16.4,28.5-33,27.6c-16.5-0.9-29.5-14.6-29.6-31.1l0.1-0.9
			c0,17.8-14.4,32.2-32.2,32.2c-17.8,0-32.2-14.4-32.2-32.2v-22.6c-68-22-114.5-71.1-114.5-151.3C40.6,136,134.4,43.7,250,43.7
			L250,43.7z M249.4,302.1c-10.2,0-31.6,16.3-31.6,40.9c0,23.1,27.8,23.9,31.2,23.9h0.3c0,0,32.9,0.8,32.9-23.9
			C282.2,318.4,259.6,302.1,249.4,302.1L249.4,302.1z M153.4,156.3c-35.6,0-64.4,29-64.4,64.8c0,35.8,28.8,64.8,64.4,64.8
			s64.4-29,64.4-64.8c0.1-17.1-6.7-33.6-18.8-45.7C186.9,163.2,170.5,156.3,153.4,156.3L153.4,156.3z M346.6,156.3
			c-35.6,0-64.4,29-64.4,64.8c0,35.8,28.8,64.8,64.4,64.8c35.6,0,64.4-29,64.4-64.8c0.1-17.1-6.7-33.6-18.8-45.7
			C380.2,163.2,363.8,156.3,346.6,156.3L346.6,156.3z M346.6,156.3"/>
	</g>
</g>
</svg>
