<?xml version="1.0" encoding="utf-8"?>
<!-- Generator: Adobe Illustrator 26.0.3, SVG Export Plug-In . SVG Version: 6.00 Build 0)  -->
<svg version="1.1" id="图层_1" xmlns="http://www.w3.org/2000/svg" xmlns:xlink="http://www.w3.org/1999/xlink" x="0px" y="0px"
	 viewBox="0 0 500 500" style="enable-background:new 0 0 500 500;" xml:space="preserve">
<style type="text/css">
	.st0{fill:#4FC0F2;}
	.st1{fill:#7FC6F2;}
</style>
<path class="st0" d="M244.5,182.1c-7.8-4.4-17.6-1.8-22.2,5.9l-14.1,24.4L194.2,188c-4.5-7.7-14.4-10.4-22.2-5.9
	c-7.7,4.5-10.4,14.4-6,22.2l14.1,24.4H152c-9,0-16.2,7.3-16.2,16.2c0,9,7.3,16.2,16.2,16.2c0,0,0,0,0,0h28.2l-14.1,24.4
	c-4.4,7.8-1.8,17.7,6,22.2c7.8,4.4,17.6,1.8,22.2-5.9l14.1-24.4l14.1,24.4c4.5,7.7,14.4,10.4,22.2,5.9c7.7-4.5,10.4-14.4,6-22.2
	l-14.1-24.4h28.2c9,0,16.2-7.3,16.2-16.2s-7.3-16.2-16.2-16.2h-28.2l14.1-24.4C254.9,196.5,252.2,186.6,244.5,182.1z"/>
<path class="st0" d="M305.1,233.6c8.7,2.2,17.5-3.1,19.7-11.8l5.1-20.4c2.3-8.7-2.9-17.5-11.6-19.8c-8.7-2.3-17.5,2.9-19.8,11.6
	c0,0.1-0.1,0.2-0.1,0.3l-5.1,20.4C291.1,222.6,296.4,231.4,305.1,233.6z"/>
<path class="st0" d="M338.9,275.2c8.7,2.2,17.5-3.1,19.7-11.8l5.1-20.4c2.4-8.6-2.7-17.6-11.4-19.9c-8.6-2.4-17.6,2.7-19.9,11.4
	c-0.1,0.2-0.1,0.5-0.2,0.7l-5.1,20.4C325,264.2,330.2,273,338.9,275.2C338.9,275.2,338.9,275.2,338.9,275.2z"/>
<path class="st0" d="M294.1,319.5c8.7,2.2,17.5-3.1,19.7-11.8l5.1-20.4c2.3-8.7-2.9-17.5-11.6-19.8c-8.7-2.3-17.5,2.9-19.8,11.6
	c0,0.1-0.1,0.2-0.1,0.3l-5.1,20.4C280.1,308.6,285.4,317.4,294.1,319.5z"/>
<path class="st1" d="M418.6,142.1L258.9,49.6c-5.5-3.2-12.3-3.2-17.8,0L81.4,142.1c-5.5,3.2-8.9,9.1-8.9,15.4v185
	c0,6.4,3.4,12.2,8.9,15.4l159.7,92.5c5.5,3.2,12.3,3.2,17.8,0l159.7-92.5c5.5-3.2,8.9-9.1,8.9-15.4v-185
	C427.5,151.1,424.1,145.3,418.6,142.1z M391.9,332.2L250,414.4l-141.9-82.2V167.8L250,85.6l141.9,82.2V332.2z"/>
</svg>
