<?xml version="1.0" encoding="utf-8"?>
<!-- Generator: Adobe Illustrator 26.0.3, SVG Export Plug-In . SVG Version: 6.00 Build 0)  -->
<svg version="1.1" xmlns="http://www.w3.org/2000/svg" xmlns:xlink="http://www.w3.org/1999/xlink" x="0px" y="0px"
	 viewBox="0 0 500 500" style="enable-background:new 0 0 500 500;" xml:space="preserve">
<style type="text/css">
	.st0{fill:#E3E3E3;}
	.st1{fill:#F6F6F6;}
	.st2{fill:#4FC0F2;}
</style>
<path class="st0" d="M391.8,159.9c-0.1,0-0.3,0-0.4,0c-4.1-44.2-41.2-78.8-86.5-78.8c-48,0-86.9,38.9-86.9,86.9
	c0,46.4,36.4,84.3,82.2,86.8v0.1h91.6c26.2,0,47.5-21.3,47.5-47.5S418,159.9,391.8,159.9z"/>
<path class="st1" d="M338.1,184.2c-14-47.8-58.1-82.7-110.5-82.7c-62.8,0-113.9,50.4-115.1,112.9c-29.2,3.4-51.9,28.3-51.9,58.5
	c0,32.5,26.4,58.9,58.9,58.9h209.8c40.9,0,74-33.1,74-74C403.3,219.8,374.8,188.5,338.1,184.2z"/>
<path class="st2" d="M286.3,331.8c0-5.9-4.8-10.7-10.7-10.7h-18.3l9.2-15.9c2.9-5.1,1.2-11.7-3.9-14.6c-5.1-2.9-11.7-1.2-14.6,3.9
	l-9.2,15.8l-9.2-15.8c-3-5.1-9.5-6.9-14.6-3.9c-5.1,3-6.9,9.5-3.9,14.6l9.2,15.9h-18.3c-5.9,0-10.7,4.8-10.7,10.7
	c0,5.9,4.8,10.7,10.7,10.7h18.3l-9.2,15.9c-3,5.1-1.2,11.7,3.9,14.6c5.1,3,11.7,1.2,14.6-3.9l9.2-15.9l9.2,15.9
	c3,5.1,9.5,6.9,14.6,3.9s6.9-9.5,3.9-14.6l-9.2-15.9h18.3C281.5,342.5,286.3,337.7,286.3,331.8z"/>
<path class="st2" d="M166.3,356.5c0-4.1-3.3-7.5-7.5-7.5h-12.8l6.4-11.1c2.1-3.6,0.8-8.2-2.7-10.2c-3.6-2.1-8.2-0.8-10.2,2.7
	l-6.4,11.1l-6.4-11.1c-2.1-3.6-6.6-4.8-10.2-2.7c-3.6,2.1-4.8,6.6-2.7,10.2l6.4,11.1h-12.8c-4.1,0-7.5,3.3-7.5,7.5s3.3,7.5,7.5,7.5
	h12.8l-6.4,11.1c-2.1,3.6-0.8,8.2,2.7,10.2c3.6,2.1,8.2,0.8,10.2-2.7l6.4-11.1l6.4,11.1c2.1,3.6,6.6,4.8,10.2,2.7
	c3.6-2.1,4.8-6.6,2.7-10.2l-6.4-11.1h12.8C163,364,166.3,360.7,166.3,356.5z"/>
<path class="st2" d="M383.7,356.5c0-4.1-3.3-7.5-7.5-7.5h-12.8l6.4-11.1c2.1-3.6,0.8-8.2-2.7-10.2c-3.6-2.1-8.2-0.8-10.2,2.7
	l-6.4,11.1l-6.4-11.1c-2.1-3.6-6.6-4.8-10.2-2.7c-3.6,2.1-4.8,6.6-2.7,10.2l6.4,11.1h-12.8c-4.1,0-7.5,3.3-7.5,7.5s3.3,7.5,7.5,7.5
	h12.8l-6.4,11.1c-2.1,3.6-0.8,8.2,2.7,10.2c3.6,2.1,8.2,0.8,10.2-2.7l6.4-11.1l6.4,11.1c2.1,3.6,6.6,4.8,10.2,2.7
	c3.6-2.1,4.8-6.6,2.7-10.2l-6.4-11.1h12.8C380.3,364,383.7,360.7,383.7,356.5z"/>
</svg>
