<?xml version="1.0" encoding="utf-8"?>
<!-- Generator: Adobe Illustrator 26.0.3, SVG Export Plug-In . SVG Version: 6.00 Build 0)  -->
<svg version="1.1" xmlns="http://www.w3.org/2000/svg" xmlns:xlink="http://www.w3.org/1999/xlink" x="0px" y="0px"
	 viewBox="0 0 500 500" style="enable-background:new 0 0 500 500;" xml:space="preserve">
<style type="text/css">
	.st0{fill:#3FA9F5;}
	.st1{fill-rule:evenodd;clip-rule:evenodd;fill:#707070;}
</style>
<path class="st0" d="M241.1,347.6V210.8c0-4.9-4-8.9-8.9-8.9s-8.9,4-8.9,8.9v136.8c-8.1,3.4-13.9,11.5-13.9,21
	c0,12.6,10.2,22.8,22.8,22.8c12.6,0,22.8-10.2,22.8-22.8C255,359.1,249.2,351,241.1,347.6z"/>
<path class="st1" d="M272,314.7V100.5c0-18.8-15.2-34-34-34h-11.4c-18.8,0-34,15.2-34,34v214.2c-16,12.1-26.3,31.2-26.3,52.8
	c0,36.4,29.6,66,66,66s66-29.6,66-66C298.3,346,288,326.9,272,314.7z M232.2,418.8c-28.3,0-51.2-22.9-51.2-51.2
	c0-12.4,4.4-23.7,11.7-32.6c4-4.9,9-9,14.7-12.1V100.5c0-10.7,8.6-19.2,19.2-19.2H238c10.7,0,19.2,8.6,19.2,19.2v11.5h-13.3
	c-2.1,0-3.9,1.8-3.9,3.8c0,2.1,1.8,3.9,3.9,3.9h13.3v20.9h-13.3c-2.1,0-3.9,1.8-3.9,3.8c0,2.1,1.8,3.8,3.9,3.8h13.3v20.9h-12.9
	c-2.1,0-3.8,1.8-3.8,3.9c0,2.1,1.8,3.8,3.8,3.8h12.9v145.8c5.6,3.1,10.5,7.3,14.7,12.1c7.3,8.9,11.7,20.3,11.7,32.6
	C283.5,395.9,260.5,418.8,232.2,418.8z"/>
<path class="st0" d="M358,87.6c-7.1,0-12.9,5.8-12.9,12.9v22l-19.1-11c-6.2-3.5-14-1.4-17.6,4.7c-3.5,6.2-1.4,14,4.7,17.6l19.1,11
	l-19.1,11c-6.1,3.6-8.3,11.4-4.7,17.6c3.6,6.1,11.4,8.2,17.6,4.7l19.1-11v22c0,7.1,5.8,12.9,12.9,12.9s12.9-5.8,12.9-12.9v-22
	l19.1,11c6.2,3.6,14,1.4,17.6-4.7s1.4-14-4.7-17.6l-19.1-11l19.1-11c6.2-3.6,8.3-11.4,4.7-17.6c-3.6-6.2-11.4-8.3-17.6-4.7l-19.1,11
	v-22C370.9,93.4,365.1,87.6,358,87.6z"/>
</svg>
