<?xml version="1.0" encoding="utf-8"?>
<!-- Generator: Adobe Illustrator 26.0.3, SVG Export Plug-In . SVG Version: 6.00 Build 0)  -->
<svg version="1.1" id="图层_1" xmlns="http://www.w3.org/2000/svg" xmlns:xlink="http://www.w3.org/1999/xlink" x="0px" y="0px"
	 viewBox="0 0 500 500" style="enable-background:new 0 0 500 500;" xml:space="preserve">
<style type="text/css">
	.st0{fill:#E3E3E3;}
	.st1{fill:#F6F6F6;}
	.st2{fill:#4FC0F2;}
</style>
<path class="st0" d="M71,200.5c0.1,0,0.3,0,0.4,0c4.3-46.8,43.7-83.4,91.6-83.4c50.8,0,92,41.2,92,92c0,49.1-38.5,89.3-87,91.9v0.1
	H71c-27.8,0-50.3-22.5-50.3-50.3S43.2,200.5,71,200.5z"/>
<path class="st0" d="M429,200.5c-0.1,0-0.3,0-0.4,0c-4.3-46.8-43.7-83.4-91.6-83.4c-50.8,0-92,41.2-92,92c0,49.1,38.5,89.3,87,91.9
	v0.1h97c27.8,0,50.3-22.5,50.3-50.3S456.8,200.5,429,200.5z"/>
<path class="st1" d="M358.1,155.2c-14.8-50.6-61.6-87.6-117-87.6c-66.5,0-120.6,53.3-121.8,119.6c-31,3.6-55,29.9-55,61.9
	c0,34.4,27.9,62.3,62.3,62.3h222.2c43.3,0,78.4-35.1,78.4-78.4C427.2,192.8,397,159.8,358.1,155.2z"/>
<path class="st2" d="M174.8,360.9l11.4-27.9c2.8-6.9,10.7-10.2,17.6-7.4h0c6.9,2.8,10.2,10.7,7.4,17.6l-11.4,27.9
	c-2.8,6.9-10.7,10.2-17.6,7.4l0,0C175.3,375.7,172,367.8,174.8,360.9z"/>
<path class="st2" d="M112,375.1l19.2-47.1c2.8-6.9,10.7-10.2,17.6-7.4h0c6.9,2.8,10.2,10.7,7.4,17.6L137,385.3
	c-2.8,6.9-10.7,10.2-17.6,7.4h0C112.5,389.9,109.2,382,112,375.1z"/>
<path class="st2" d="M336.6,377.1l14.1-34.6c2.8-6.9,10.7-10.2,17.6-7.4h0c6.9,2.8,10.2,10.7,7.4,17.6l-14.1,34.6
	c-2.8,6.9-10.7,10.2-17.6,7.4l0,0C337.1,391.8,333.8,383.9,336.6,377.1z"/>
<path class="st2" d="M282.3,380l13.8-33.8c2.8-6.9,10.7-10.2,17.6-7.4h0c6.9,2.8,10.2,10.7,7.4,17.6l-13.8,33.8
	c-2.8,6.9-10.7,10.2-17.6,7.4l0,0C282.8,394.8,279.5,386.9,282.3,380z"/>
<path class="st2" d="M54,382.6L76.3,328c2.8-6.9,10.7-10.2,17.6-7.4h0c6.9,2.8,10.2,10.7,7.4,17.6L79,392.8
	c-2.8,6.9-10.7,10.2-17.6,7.4h0C54.5,397.4,51.2,389.5,54,382.6z"/>
<path class="st2" d="M382.3,396.4l23.7-58c2.8-6.9,10.7-10.2,17.6-7.4h0c6.9,2.8,10.2,10.7,7.4,17.6l-23.7,58
	c-2.8,6.9-10.7,10.2-17.6,7.4h0C382.8,411.2,379.5,403.3,382.3,396.4z"/>
<path class="st2" d="M210.4,413.8l30.8-75.4c2.8-6.9,10.7-10.2,17.6-7.4h0c6.9,2.8,10.2,10.7,7.4,17.6L235.3,424
	c-2.8,6.9-10.7,10.2-17.6,7.4h0C210.9,428.6,207.5,420.7,210.4,413.8z"/>
</svg>
