<?xml version="1.0" encoding="utf-8"?>
<!-- Generator: Adobe Illustrator 26.0.3, SVG Export Plug-In . SVG Version: 6.00 Build 0)  -->
<svg version="1.1" id="图层_1" xmlns="http://www.w3.org/2000/svg" xmlns:xlink="http://www.w3.org/1999/xlink" x="0px" y="0px"
	 viewBox="0 0 500 500" style="enable-background:new 0 0 500 500;" xml:space="preserve">
<style type="text/css">
	.st0{fill:#53A8FF;}
	.st1{fill:#79BBFF;}
	.st2{fill:#409EFF;}
	.st3{fill:#F7931E;}
</style>
<path class="st0" d="M465.3,232.7l-0.1-0.1c-5.5-9.7-17.9-13.1-27.6-7.6c-2.6,1.4-58.7,31.6-147,13.3c-11.5-2.4-22.4,6.4-22.5,18.2
	v0c-0.1,10.8,7.5,20.2,18.2,22.3c102,19.8,168.3-16.7,171.4-18.5l0,0C467.4,254.9,470.8,242.5,465.3,232.7z"/>
<path class="st1" d="M466.5,161.2c-0.3-0.7-0.5-1.1-0.8-1.6c-5.5-9.7-17.9-13.1-27.6-7.6c-2.6,1.4-58.1,31.3-145.6,13.6
	c-12.1-2.4-23.4,6.7-23.6,19.1v0c-0.1,10.2,7.1,19,17.2,21c102.4,20.1,168.9-16.6,172-18.3v0C467.3,182.2,471,170.8,466.5,161.2z"/>
<path class="st2" d="M464.8,305.6c0,0,0-0.1-0.1-0.1c-5.5-9.7-17.9-13.1-27.6-7.6c-2.6,1.4-57.8,31.1-144.8,13.7
	c-12.9-2.6-25,7.2-25.1,20.3v0c-0.1,9.2,6.3,17.2,15.4,19.1c103.8,21.2,171.5-16,174.6-17.8c0,0,0,0,0,0
	C467,327.8,470.4,315.4,464.8,305.6z"/>
<path class="st3" d="M246.6,79.3c-49.4,0-89.5,40.2-89.5,89.5v162.3c0,49.4,40.2,89.5,89.5,89.5c49.4,0,89.5-40.2,89.5-89.5V168.8
	C336.1,119.5,295.9,79.3,246.6,79.3z M295.4,331.2c0,26.9-22,48.9-48.9,48.9h0c-26.9,0-48.9-22-48.9-48.9V168.8
	c0-26.9,22-48.9,48.9-48.9h0c26.9,0,48.9,22,48.9,48.9V331.2z"/>
<path class="st0" d="M224.4,227.9c-26.9-9-59.2-11.7-88.8-11.7c-45.3,0-84.1,6.5-86.7,7c-11,1.9-18.4,12.4-16.6,23.4
	c2,11,12.4,18.3,23.4,16.6c1-0.2,97.2-16.3,155.8,3.3c0.3,0.1,0.5,0.2,0.8,0.3c12.5,4.1,25.5-5.1,25.6-18.3l0-1.6
	c0.1-8.5-5.4-16.1-13.5-18.8C224.5,227.9,224.5,227.9,224.4,227.9z"/>
<path class="st1" d="M224.9,154.9c-26.9-9-59.2-11.7-88.8-11.7c-45.3,0-84.1,6.5-86.7,7c-11,1.9-18.4,12.4-16.6,23.4
	c2,11,12.4,18.3,23.4,16.6c1-0.2,97.2-16.3,155.8,3.3c0.1,0,0.3,0.1,0.4,0.1c12.9,4.3,26.2-5.3,26.4-18.9l0-0.4
	c0.1-8.8-5.5-16.6-13.9-19.4C225,155,224.9,154.9,224.9,154.9z"/>
<path class="st2" d="M224,300.8c-26.9-9-59.2-11.7-88.8-11.7c-45.3,0-84.1,6.5-86.7,7c-11,1.9-18.4,12.4-16.6,23.4
	c2,11,12.4,18.3,23.4,16.6c1-0.2,97.2-16.3,155.8,3.3c0.4,0.1,0.7,0.2,1.1,0.4c12.2,4,24.7-5,24.9-17.8l0-2.8
	c0.1-8.3-5.2-15.6-13.1-18.2C224.1,300.8,224,300.8,224,300.8z"/>
</svg>
