<?xml version="1.0" encoding="utf-8"?>
<!-- Generator: Adobe Illustrator 26.0.3, SVG Export Plug-In . SVG Version: 6.00 Build 0)  -->
<svg version="1.1" id="图层_1" xmlns="http://www.w3.org/2000/svg" xmlns:xlink="http://www.w3.org/1999/xlink" x="0px" y="0px"
	 viewBox="0 0 500 500" style="enable-background:new 0 0 500 500;" xml:space="preserve">
<style type="text/css">
	.st0{fill:#754C24;}
	.st1{fill:#8C6239;}
	.st2{fill:#F7AD44;}
</style>
<path class="st0" d="M188.1,304.2L272.6,177L218.8,67c-1.4-2.9-5-4.1-7.9-2.7c-1.2,0.6-2.2,1.6-2.8,2.9L21.9,427.8
	c-1.4,2.9-0.3,6.4,2.6,7.9c0.8,0.4,1.7,0.6,2.7,0.6l131.2-0.4l49.2-91.4C207.5,344.4,188.1,304.2,188.1,304.2z"/>
<path class="st1" d="M478.2,397.9l-58.5-122.3l-137.9,130l191.1,0.8C477.2,406.3,480,401.8,478.2,397.9z"/>
<path class="st2" d="M346.1,234.8l34.4-128.9L228.3,289.2l47.1,1.4l-76.3,141.8l196.6-185.3L346.1,234.8z"/>
</svg>
