<?xml version="1.0" encoding="utf-8"?>
<!-- Generator: Adobe Illustrator 26.0.3, SVG Export Plug-In . SVG Version: 6.00 Build 0)  -->
<svg version="1.1" id="图层_1" xmlns="http://www.w3.org/2000/svg" xmlns:xlink="http://www.w3.org/1999/xlink" x="0px" y="0px"
	 viewBox="0 0 500 500" style="enable-background:new 0 0 500 500;" xml:space="preserve">
<style type="text/css">
	.st0{fill:#FF7B15;}
	.st1{fill:#FB9B3B;}
</style>
<path class="st0" d="M374,145.2c-20.2,8.8-33.5,23.1-41.4,38.2c-6.1,11.6-23.3,10.4-27.2-2.2c-10.5-33.6-9.1-70.4-2.6-115.4
	c1.7-11.5-10-20.4-20.6-15.7c-67.9,30.1-84.4,96.5-90.5,147.8c-2,16.9-26.4,17.5-29.2,0.8c-0.6-3.7-1.1-7.2-1.5-10.5
	c-1.5-12.3-16.4-17.3-25.2-8.7c-20,19.7-32.3,50.8-35.3,78.1c-9.9,89,54.8,161.8,141.1,171.3c86.2,9.5,161.4-48,171.2-137.1
	c5.2-47.9-22.4-70-18.1-132.1C395.5,148.7,384.2,140.8,374,145.2z"/>
<path class="st1" d="M295.5,312.5c-6.2,2.8-10.4,7.2-13.1,11.9c-2.3,4.2-8.4,3.6-9.8-1c-3.2-10.9-2.7-22.8-0.7-37.2
	c0.6-4.1-3.6-7.3-7.4-5.6c-21.3,9.8-27.3,30.4-29.5,47.1c-0.8,6.1-9.7,6.1-10.5,0c0-0.1,0-0.2,0-0.4c-0.6-4.4-6-6.2-9-3
	c-6.4,6.6-10.3,16.8-11.3,25.7c-3.3,29.9,18.4,54.3,47.4,57.5c29,3.2,54.2-16.1,57.5-46.1c1.7-15.9-7.4-23.4-6.1-43.9
	C303.2,313.7,299.1,310.8,295.5,312.5z"/>
</svg>
