<?xml version="1.0" encoding="utf-8"?>
<!-- Generator: Adobe Illustrator 26.0.3, SVG Export Plug-In . SVG Version: 6.00 Build 0)  -->
<svg version="1.1" id="图层_1" xmlns="http://www.w3.org/2000/svg" xmlns:xlink="http://www.w3.org/1999/xlink" x="0px" y="0px"
	 viewBox="0 0 500 500" style="enable-background:new 0 0 500 500;" xml:space="preserve">
<style type="text/css">
	.st0{fill:#E3E3E3;}
	.st1{fill:#F6F6F6;}
	.st2{fill:#5DA9F5;}
</style>
<path class="st0" d="M426.7,151.5c-0.2,0-0.3,0-0.5,0c-5.1-55.1-51.4-98.2-107.8-98.2c-59.8,0-108.2,48.5-108.2,108.2
	c0,57.8,45.3,105,102.4,108.1v0.2h114.1c32.7,0,59.2-26.5,59.2-59.2S459.4,151.5,426.7,151.5z"/>
<path class="st1" d="M359.8,181.8c-17.4-59.5-72.4-103-137.6-103c-78.3,0-141.9,62.7-143.3,140.7c-36.4,4.3-64.7,35.2-64.7,72.8
	c0,40.5,32.8,73.3,73.3,73.3h261.4c50.9,0,92.2-41.3,92.2-92.2C441.1,226.1,405.6,187.2,359.8,181.8z"/>
<path class="st2" d="M354.8,276.1c-10.3,0-20.1,6.6-24.8,16.8h-12l-25.5-63.1c-1.9-4.9-6.8-8-12-7.8c-5.2,0.2-9.8,3.7-11.4,8.7
	L242,314.3l-14.9-163.8c-0.5-5.7-4.9-10.4-10.6-11.3c-5.7-0.8-11.2,2.3-13.4,7.6l-58.9,144h-35.4c-6.9,0-12.5,5.6-12.5,12.5
	s5.6,12.5,12.5,12.5h43.8c5.1,0,9.6-3.1,11.5-7.8l42.8-104.5l15.8,173.8c0.5,5.9,5.2,10.6,11.1,11.3c5.9,0.6,11.4-2.9,13.3-8.6
	L282.3,271l15.8,39.1c1.9,4.7,6.5,7.8,11.6,7.8h23c0.9,1.3,9.1,11.9,22.2,11.8c13.3-0.1,26.8-11.4,26.8-26.8
	C381.6,287.7,368.6,276.1,354.8,276.1z"/>
</svg>
