<?xml version="1.0" encoding="utf-8"?>
<!-- Generator: Adobe Illustrator 26.0.3, SVG Export Plug-In . SVG Version: 6.00 Build 0)  -->
<svg version="1.1" id="图层_1" xmlns="http://www.w3.org/2000/svg" xmlns:xlink="http://www.w3.org/1999/xlink" x="0px" y="0px"
	 viewBox="0 0 500 500" style="enable-background:new 0 0 500 500;" xml:space="preserve">
<style type="text/css">
	.st0{fill:#3FA9F5;}
	.st1{fill:#F15A24;}
</style>
<path class="st0" d="M322.3,383.7L198,259.4c-11.8-11.8-11.8-30.9,0-42.7l0,0c11.8-11.8,30.9-11.8,42.7,0L365,341
	c11.8,11.8,11.8,30.9,0,42.7l0,0C353.2,395.5,334.1,395.5,322.3,383.7z"/>
<path class="st0" d="M228,128.5c-24.6-24.6-60.7-30.6-90.9-18.2l58.1,58.1l-45.4,45.4l-58.1-58.1c-12.5,30.3-6.4,66.4,18.2,90.9
	c32.6,32.6,85.5,32.6,118.2,0C260.6,214,260.6,161.1,228,128.5z"/>
<g>
	<path class="st1" d="M247.8,470.7c-58.8,0-114.1-22.9-155.7-64.5c-41.6-41.6-64.5-96.9-64.5-155.7c0-58.8,22.9-114.1,64.5-155.7
		c41.6-41.6,96.9-64.5,155.7-64.5S362,53.1,403.6,94.7c41.6,41.6,64.5,96.9,64.5,155.7c0,58.8-22.9,114.1-64.5,155.7
		C362,447.8,306.6,470.7,247.8,470.7z M247.2,62.1c-105.1,0-190.3,85.2-190.3,190.3c0,48.7,18.3,93,48.3,126.7l268.6-268.6
		C340.2,80.4,295.8,62.1,247.2,62.1z M250.3,445.7c105.1,0,190.3-85.2,190.3-190.3c0-48.7-18.3-93-48.3-126.7L123.6,397.4
		C157.2,427.4,201.6,445.7,250.3,445.7z"/>
</g>
</svg>
