<?xml version="1.0" encoding="utf-8"?>
<!-- Generator: Adobe Illustrator 26.0.3, SVG Export Plug-In . SVG Version: 6.00 Build 0)  -->
<svg version="1.1" id="图层_1" xmlns="http://www.w3.org/2000/svg" xmlns:xlink="http://www.w3.org/1999/xlink" x="0px" y="0px"
	 viewBox="0 0 500 500" style="enable-background:new 0 0 500 500;" xml:space="preserve">
<style type="text/css">
	.st0{fill:#409EFF;}
	.st1{fill:#79BBFF;}
	.st2{fill:#F15A24;}
</style>
<path class="st0" d="M465.7,321.3c-4-2.2-99.7-55-241.9-7.5c-65.6,22-173.5,3.9-174.6,3.7c-12.3-2-24,6.3-26.3,18.6
	c-2.1,12.4,6.2,24.1,18.6,26.3c3,0.5,46.4,7.8,97.2,7.8c33.1,0,69.3-3.1,99.5-13.2c121.9-40.7,201.8,2.2,205.1,4
	c10.9,6.2,24.7,2.4,30.9-8.5c0,0,0-0.1,0.1-0.1C480.5,341.4,476.7,327.5,465.7,321.3C465.8,321.3,465.8,321.3,465.7,321.3z"/>
<path class="st1" d="M465.7,397.3c-4-2.2-99.7-55-241.9-7.5c-65.6,22-173.5,3.9-174.6,3.7c-12.3-2-24,6.3-26.3,18.6
	c-2.1,12.4,6.2,24.1,18.6,26.3c3,0.5,46.4,7.8,97.2,7.8c33.1,0,69.3-3.1,99.5-13.2c121.9-40.7,201.8,2.2,205.1,4
	c10.9,6.2,24.7,2.4,30.9-8.5c0,0,0-0.1,0.1-0.1C480.5,417.4,476.7,403.5,465.7,397.3C465.8,397.3,465.8,397.3,465.7,397.3z"/>
<path class="st2" d="M270,63.2l107.2,185.7c7.2,12.4-1.8,28-16.2,28H146.7c-14.4,0-23.3-15.6-16.2-28L237.7,63.2
	C244.9,50.8,262.9,50.8,270,63.2z M253.9,226.3c-4.9,0-8.9,4-8.9,8.9s4,8.9,8.9,8.9c4.9,0,8.9-4,8.9-8.9S258.8,226.3,253.9,226.3z
	 M264.5,136.7c0-5.9-4.8-10.6-10.6-10.6c-5.9,0-10.6,4.8-10.6,10.6c0,0.4,0,0.9,0.1,1.3l4.4,71h0c0,3.4,2.8,6.2,6.2,6.2
	s6.2-2.8,6.2-6.2h0l4.4-71C264.5,137.5,264.5,137.1,264.5,136.7z"/>
</svg>
