<?xml version="1.0" encoding="utf-8"?>
<!-- Generator: Adobe Illustrator 26.0.3, SVG Export Plug-In . SVG Version: 6.00 Build 0)  -->
<svg version="1.1" id="图层_1" xmlns="http://www.w3.org/2000/svg" xmlns:xlink="http://www.w3.org/1999/xlink" x="0px" y="0px"
	 viewBox="0 0 500 500" style="enable-background:new 0 0 500 500;" xml:space="preserve">
<style type="text/css">
	.st0{fill:#8C6239;}
	.st1{fill:#C7B299;}
	.st2{fill:#CCCCCC;}
	.st3{fill:#A67C52;}
	.st4{fill:#754C24;}
	.st5{fill:#736357;}
</style>
<path class="st0" d="M79.2,140.1c10.5-0.4,18.6-9.2,18.2-19.7c-0.4-9.9-8.3-17.8-18.2-18.2c-10.5,0.4-18.6,9.2-18.2,19.7
	C61.4,131.8,69.3,139.7,79.2,140.1z"/>
<path class="st1" d="M33.7,268.6c-7,0.1-12.7,5.9-12.6,12.9c0,7.2,5.8,12.9,12.6,12.9s12.6-5.9,12.6-12.9
	C46.4,274.4,40.7,268.7,33.7,268.6z"/>
<path class="st0" d="M99.9,190c0-14.7-12.1-26.8-26.8-26.8S46.3,175.2,46.3,190c0,14.7,12.1,26.8,26.8,26.8S99.9,204.7,99.9,190z"/>
<path class="st1" d="M87.3,361.9c-7,0-12.6,5.7-12.6,12.6c0,7.1,5.8,12.6,12.6,12.6s12.6-5.8,12.6-12.6
	C99.9,367.6,94.3,361.9,87.3,361.9z"/>
<path class="st1" d="M196.7,204.2c9.9,0,17.8-8,17.9-17.9c0-9.9-8-17.8-17.9-17.9c-9.8-0.1-17.8,7.7-17.9,17.5c0,0.1,0,0.2,0,0.4
	C178.9,196.2,186.8,204.2,196.7,204.2z"/>
<path class="st0" d="M250.7,125.3c10,0,18.2-8.2,18.2-18.2c0-10.2-8.4-18.2-18.2-18.2c-9.8,0-18.2,8-18.2,18.2
	S240.8,125.3,250.7,125.3z"/>
<circle class="st2" cx="425.6" cy="119" r="15.3"/>
<circle class="st3" cx="139.4" cy="281.5" r="39.4"/>
<path class="st2" d="M132.9,105.1c14.7,0,26.8-12.1,26.8-26.8s-12.1-26.8-26.8-26.8c-14.7,0-26.8,12.1-26.8,26.8
	S118.1,105.1,132.9,105.1z"/>
<path class="st0" d="M349.2,270.4c-6.8-0.1-12.5,5.3-12.6,12.1c0,0.2,0,0.3,0,0.5c0,7,5.7,12.6,12.6,12.6c7,0,12.6-5.7,12.6-12.6
	C361.8,276.1,356.1,270.5,349.2,270.4z"/>
<path class="st4" d="M401.2,216.8c14.8,0,26.8-12,26.8-26.8c-0.7-14.8-13.3-26.3-28.1-25.5c-13.8,0.7-24.9,11.7-25.5,25.5
	C374.4,204.7,386.5,216.8,401.2,216.8z"/>
<path class="st2" d="M405.5,345.7c-14.7,0-26.8,12.1-26.8,26.8c0,14.7,12.1,26.8,26.8,26.8c14.8-0.9,26.1-13.6,25.2-28.4
	C430,357.4,419.1,346.5,405.5,345.7z"/>
<path class="st3" d="M451.9,244.1c-14.9,0.1-27,12.1-27,27c0,14.9,12.2,27,27,27c14.9-0.1,27-12.1,27-27
	C478.9,256.3,466.8,244.2,451.9,244.1z"/>
<path class="st0" d="M355.5,95.5c14.7,0,26.8-12.1,26.8-26.8s-12.1-26.8-26.8-26.8s-26.8,12.1-26.8,26.8S340.7,95.5,355.5,95.5z"/>
<path class="st0" d="M297.1,150.6c-21.8,0.1-39.4,17.7-39.4,39.4c0,21.8,17.6,39.4,39.4,39.4s39.4-17.6,39.4-39.4
	C336.6,168.2,318.9,150.6,297.1,150.6z"/>
<circle class="st2" cx="180.1" cy="421.7" r="36.5"/>
<circle class="st5" cx="243.5" cy="281.5" r="26.8"/>
<circle class="st0" cx="289.3" cy="372.5" r="29.6"/>
</svg>
