<?xml version="1.0" encoding="utf-8"?>
<!-- Generator: Adobe Illustrator 26.0.3, SVG Export Plug-In . SVG Version: 6.00 Build 0)  -->
<svg version="1.1" xmlns="http://www.w3.org/2000/svg" xmlns:xlink="http://www.w3.org/1999/xlink" x="0px" y="0px"
	 viewBox="0 0 500 500" style="enable-background:new 0 0 500 500;" xml:space="preserve">
<style type="text/css">
	.st0{fill:#3FA9F5;}
	.st1{fill-rule:evenodd;clip-rule:evenodd;fill:#707070;}
</style>
<g>
	<path class="st0" d="M251.7,347.6V210.8c0-4.9-4-8.9-8.9-8.9c-4.9,0-8.9,4-8.9,8.9v136.8c-8.1,3.4-13.9,11.5-13.9,21
		c0,12.6,10.2,22.8,22.8,22.8c12.6,0,22.8-10.2,22.8-22.8C265.6,359.1,259.9,351,251.7,347.6z"/>
	<path class="st1" d="M282.6,314.7V100.5c0-18.8-15.2-34-34-34h-11.4c-18.8,0-34,15.2-34,34v214.2c-16,12.1-26.3,31.2-26.3,52.8
		c0,36.4,29.6,66,66,66s66-29.6,66-66C309,345.9,298.6,326.8,282.6,314.7z M242.8,418.7c-28.3,0-51.2-22.9-51.2-51.2
		c0-12.4,4.4-23.7,11.7-32.6c4-4.9,9-9,14.7-12.1V100.5c0-10.7,8.6-19.2,19.2-19.2h11.4c10.7,0,19.2,8.6,19.2,19.2V112h-13.3
		c-2.1,0-3.9,1.8-3.9,3.8c0,2.1,1.8,3.9,3.9,3.9h13.3v20.9h-13.3c-2.1,0-3.9,1.8-3.9,3.8c0,2.1,1.8,3.8,3.9,3.8h13.3v20.9H255
		c-2.1,0-3.8,1.8-3.8,3.9c0,2.1,1.8,3.8,3.8,3.8h12.9v145.8c5.6,3.1,10.5,7.3,14.7,12.1c7.3,8.9,11.7,20.3,11.7,32.6
		C294.2,395.8,271.1,418.7,242.8,418.7z"/>
	<path class="st0" d="M368.7,87.6c-7.1,0-12.9,5.8-12.9,12.9v22l-19.1-11c-6.2-3.5-14-1.4-17.6,4.7c-3.5,6.2-1.4,14,4.7,17.6
		l19.1,11l-19.1,11c-6.1,3.6-8.3,11.4-4.7,17.6c3.6,6.1,11.4,8.2,17.6,4.7l19.1-11v22c0,7.1,5.8,12.9,12.9,12.9s12.9-5.8,12.9-12.9
		v-22l19.1,11c6.2,3.6,14,1.4,17.6-4.7s1.4-14-4.7-17.6l-19.1-11l19.1-11c6.2-3.6,8.3-11.4,4.7-17.6c-3.6-6.2-11.4-8.3-17.6-4.7
		l-19.1,11v-22C381.5,93.3,375.8,87.6,368.7,87.6z"/>
	<path class="st0" d="M119.7,215.9c-5.5,0-9.9,4.5-9.9,9.9v17L95,234.3c-4.8-2.7-10.8-1.1-13.6,3.6c-2.7,4.8-1.1,10.8,3.6,13.6
		l14.7,8.5l-14.7,8.5c-4.8,2.8-6.4,8.8-3.6,13.6c2.8,4.7,8.8,6.4,13.6,3.6l14.7-8.5v17c0,5.5,4.5,9.9,9.9,9.9c5.5,0,9.9-4.5,9.9-9.9
		v-17l14.7,8.5c4.8,2.7,10.8,1.1,13.6-3.6s1.1-10.8-3.6-13.6l-14.7-8.5l14.7-8.5c4.8-2.7,6.4-8.8,3.6-13.6s-8.8-6.4-13.6-3.6
		l-14.7,8.5v-17C129.6,220.3,125.2,215.9,119.7,215.9z"/>
</g>
</svg>
