<?xml version="1.0" encoding="utf-8"?>
<!-- Generator: Adobe Illustrator 26.0.3, SVG Export Plug-In . SVG Version: 6.00 Build 0)  -->
<svg version="1.1" id="图层_1" xmlns="http://www.w3.org/2000/svg" xmlns:xlink="http://www.w3.org/1999/xlink" x="0px" y="0px"
	 viewBox="0 0 500 500" style="enable-background:new 0 0 500 500;" xml:space="preserve">
<style type="text/css">
	.st0{fill:#F6F6F6;}
	.st1{fill:#E6E6E6;}
	.st2{fill:#409EFF;}
	.st3{fill:#79BBFF;}
</style>
<path class="st0" d="M366.4,128.6c-15-51.4-62.5-88.9-118.8-88.9c-67.6,0-122.5,54.1-123.7,121.5c-31.4,3.7-55.8,30.4-55.8,62.8
	c0,35,28.3,63.3,63.3,63.3H357c43.9,0,79.6-35.7,79.6-79.6C436.6,166.9,405.8,133.3,366.4,128.6z"/>
<path class="st1" d="M171.6,160.6h-132c-6.9,0-12.6-5.7-12.6-12.6v-5.5c0-6.9,5.7-12.6,12.6-12.6h132c6.9,0,12.6,5.7,12.6,12.6v5.5
	C184.2,154.9,178.5,160.6,171.6,160.6z"/>
<path class="st1" d="M243.6,163.5h-30.7c-6.9,0-12.6-5.7-12.6-12.6v-5.5c0-6.9,5.7-12.6,12.6-12.6h30.7c6.9,0,12.6,5.7,12.6,12.6
	v5.5C256.2,157.8,250.5,163.5,243.6,163.5z"/>
<path class="st1" d="M258.3,216.9H39.6c-6.9,0-12.6-5.7-12.6-12.6v-5.5c0-6.9,5.7-12.6,12.6-12.6h218.7c6.9,0,12.6,5.7,12.6,12.6
	v5.5C270.8,211.3,265.2,216.9,258.3,216.9z"/>
<path class="st2" d="M465.7,335.5c-4-2.2-99.7-55-241.9-7.5c-65.6,22-173.5,3.9-174.6,3.7c-12.3-2-24,6.3-26.3,18.6
	c-2.1,12.4,6.2,24.1,18.6,26.3c3,0.5,46.4,7.8,97.2,7.8c33.1,0,69.3-3.1,99.5-13.2c121.9-40.7,201.8,2.2,205.1,4
	c10.9,6.2,24.7,2.4,30.9-8.5c0,0,0-0.1,0.1-0.1C480.5,355.6,476.7,341.7,465.7,335.5C465.8,335.5,465.8,335.5,465.7,335.5z"/>
<path class="st3" d="M465.7,411.5c-4-2.2-99.7-55-241.9-7.5c-65.6,22-173.5,3.9-174.6,3.7c-12.3-2-24,6.3-26.3,18.6
	c-2.1,12.4,6.2,24.1,18.6,26.3c3,0.5,46.4,7.8,97.2,7.8c33.1,0,69.3-3.1,99.5-13.2c121.9-40.7,201.8,2.2,205.1,4
	c10.9,6.2,24.7,2.4,30.9-8.5c0,0,0-0.1,0.1-0.1C480.5,431.6,476.7,417.8,465.7,411.5C465.8,411.6,465.8,411.5,465.7,411.5z"/>
</svg>
