<?xml version="1.0" encoding="utf-8"?>
<!-- Generator: Adobe Illustrator 26.0.3, SVG Export Plug-In . SVG Version: 6.00 Build 0)  -->
<svg version="1.1" xmlns="http://www.w3.org/2000/svg" xmlns:xlink="http://www.w3.org/1999/xlink" x="0px" y="0px"
	 viewBox="0 0 500 500" style="enable-background:new 0 0 500 500;" xml:space="preserve">
<style type="text/css">
	.st0{fill:#E99311;}
	.st1{fill:#409EFF;}
	.st2{fill:#79BBFF;}
</style>
<path class="st0" d="M458.7,236L458.7,236c2.7,0.6,5.4-1.4,5.6-4.2c6.8-93.1-55.3-176-140.4-193.6c-85.2-17.6-178,33.3-201.2,114.6
	c-25.6,89.7,24.7,139.4,31.3,148.5c-48.9-10.5-96.1-79.1-94.1-133.2h0c-2.7-0.6-5.4,1.4-5.6,4.2c-6.7,88.5,46,166.1,124.7,188.8
	c-0.3,0,21.4,4.6,21.1,4.6l20.3,1.5c0,0,56.6,4.5,115.4-33.9c-0.3,0-0.7,0-1,0c27.6-20.4,49.6-48,60.2-81.1
	c27.1-83.9-23.6-140.3-30.1-149.3C417,113.8,460.7,182,458.7,236z M299.9,204c-2.4,23.6-24.1,40-47.2,36.3c-0.9-0.2-1.8-0.3-2.7-0.5
	c-21.9-5.2-35.5-27.1-30.3-49c5.1-21.6,26.7-35.4,48.7-30.4C288.2,164.7,301.9,183.7,299.9,204z"/>
<path class="st1" d="M465.7,340.4c-4-2.2-99.7-55-241.9-7.5c-65.6,22-173.5,3.9-174.6,3.7c-12.3-2-24,6.3-26.3,18.6
	c-2.1,12.4,6.2,24.1,18.6,26.3c3,0.5,46.4,7.8,97.2,7.8c33.1,0,69.3-3.1,99.5-13.2c121.9-40.7,201.8,2.2,205.1,4
	c10.9,6.2,24.7,2.4,30.9-8.5c0,0,0-0.1,0.1-0.1C480.5,360.5,476.7,346.7,465.7,340.4C465.8,340.5,465.8,340.5,465.7,340.4z"/>
<path class="st2" d="M465.7,416.5c-4-2.2-99.7-55-241.9-7.5c-65.6,22-173.5,3.9-174.6,3.7c-12.3-2-24,6.3-26.3,18.6
	c-2.1,12.4,6.2,24.1,18.6,26.3c3,0.5,46.4,7.8,97.2,7.8c33.1,0,69.3-3.1,99.5-13.2c121.9-40.7,201.8,2.2,205.1,4
	c10.9,6.2,24.7,2.4,30.9-8.5c0,0,0-0.1,0.1-0.1C480.5,436.6,476.7,422.7,465.7,416.5C465.8,416.5,465.8,416.5,465.7,416.5z"/>
</svg>
