<?xml version="1.0" encoding="utf-8"?>
<!-- Generator: Adobe Illustrator 26.0.3, SVG Export Plug-In . SVG Version: 6.00 Build 0)  -->
<svg version="1.1" id="图层_1" xmlns="http://www.w3.org/2000/svg" xmlns:xlink="http://www.w3.org/1999/xlink" x="0px" y="0px"
	 viewBox="0 0 500 500" style="enable-background:new 0 0 500 500;" xml:space="preserve">
<style type="text/css">
	.st0{fill:#A0CFFF;}
	.st1{fill:#66B1FF;}
	.st2{fill:#409EFF;}
</style>
<path class="st0" d="M407.3,284.9c-3.6,0-7,1.3-9.7,3.6L250,417.8L102.4,288.5c-2.7-2.3-6.1-3.6-9.7-3.6H56.4c-1.7,0-3,1.4-3,3.1
	c0,0.9,0.4,1.7,1,2.2l189.5,166c3.5,3,8.6,3,12.1,0l189.5-166c1.2-1.1,1.4-3,0.2-4.3c-0.6-0.6-1.4-1-2.2-1H407.3z"/>
<path class="st1" d="M244,381.7c3.5,3,8.6,3,12.1,0l189.5-166c1.2-1.1,1.4-3,0.2-4.3c-0.6-0.6-1.4-1-2.2-1h-36.3
	c-3.6,0-7,1.3-9.7,3.6L250,343.3L102.4,214c-2.7-2.3-6.1-3.6-9.7-3.6H56.4c-1.7,0-3,1.4-3,3.1c0,0.9,0.4,1.7,1,2.2L244,381.7z"/>
<path class="st2" d="M245.3,306.2c2.7,2.3,6.6,2.3,9.3,0l185.9-162.8c3.7-3.3,4.1-9,0.8-12.8c-1.7-1.9-4.2-3.1-6.7-3.1H367V55.7
	c0-7.8-6.3-14.1-14.1-14.1l0,0H143.3c-7.8,0-14.1,6.3-14.1,14.1v71.9H65.4c-5,0-9,4-9.1,9c0,2.6,1.1,5.1,3.1,6.9
	C59.5,143.4,245.3,306.2,245.3,306.2z"/>
</svg>
