<?xml version="1.0" encoding="utf-8"?>
<!-- Generator: Adobe Illustrator 26.0.3, SVG Export Plug-In . SVG Version: 6.00 Build 0)  -->
<svg version="1.1" id="_x3C_图层_x3E_" xmlns="http://www.w3.org/2000/svg" xmlns:xlink="http://www.w3.org/1999/xlink" x="0px"
	 y="0px" viewBox="0 0 500 500" style="enable-background:new 0 0 500 500;" xml:space="preserve">
<style type="text/css">
	.st0{fill:#F2F2F2;}
	.st1{fill:#E3E3E3;}
	.st2{fill:#4FC0F2;}
	.st3{fill:#CCDAFF;}
	.st4{fill:#F15A24;}
	.st5{fill:#7A7AF9;}
	.st6{fill:#F6F6F6;}
</style>
<path class="st0" d="M396.3,268.4c-31,0-56.3,25.3-56.3,56.3s25.3,56.3,56.3,56.3s56.3-25.3,56.3-56.3S427.2,268.4,396.3,268.4
	L396.3,268.4z"/>
<path class="st1" d="M71.1,199.9c0.1,0,0.3,0,0.4,0c4.3-46.8,43.7-83.4,91.6-83.4c50.8,0,92,41.2,92,92c0,49.1-38.5,89.3-87,91.9
	v0.1h-97c-27.8,0-50.3-22.5-50.3-50.3S43.3,199.9,71.1,199.9z"/>
<path class="st2" d="M178.8,350.6l7.4-18.2c2.8-6.9,10.7-10.2,17.6-7.4h0c6.9,2.8,10.2,10.7,7.4,17.6l-7.4,18.2
	c-2.8,6.9-10.7,10.2-17.6,7.4h0C179.3,365.3,176,357.5,178.8,350.6z"/>
<path class="st2" d="M123.9,345.6l7.4-18.2c2.8-6.9,10.7-10.2,17.6-7.4h0c6.9,2.8,10.2,10.7,7.4,17.6l-7.4,18.2
	c-2.8,6.9-10.7,10.2-17.6,7.4h0C124.4,360.4,121.1,352.5,123.9,345.6z"/>
<path class="st2" d="M291.2,354.3l7.4-18.2c2.8-6.9,10.7-10.2,17.6-7.4h0c6.9,2.8,10.2,10.7,7.4,17.6l-7.4,18.2
	c-2.8,6.9-10.7,10.2-17.6,7.4l0,0C291.7,369.1,288.3,361.2,291.2,354.3z"/>
<path class="st2" d="M69,345.6l7.4-18.2c2.8-6.9,10.7-10.2,17.6-7.4h0c6.9,2.8,10.2,10.7,7.4,17.6l-7.4,18.2
	c-2.8,6.9-10.7,10.2-17.6,7.4h0C69.5,360.4,66.1,352.5,69,345.6z"/>
<path class="st2" d="M236,350.6l7.4-18.2c2.8-6.9,10.7-10.2,17.6-7.4h0c6.9,2.8,10.2,10.7,7.4,17.6l-7.4,18.2
	c-2.8,6.9-10.7,10.2-17.6,7.4h0C236.5,365.3,233.2,357.5,236,350.6z"/>
<path class="st3" d="M396.3,264.7"/>
<path class="st4" d="M420.7,350.3c-1.6,1.9-4.4,2.1-6.3,0.6l-20.8-17.5c-0.1-0.1-0.2-0.3-0.3-0.4c0,0,0-0.1-0.1-0.1
	c-0.4-0.4-0.7-0.8-0.8-1.3c-0.1-0.2-0.1-0.4-0.2-0.7c-0.1-0.3-0.2-0.6-0.2-0.9c0-0.1-0.1-0.2-0.1-0.3v-27.1c0-2.5,2-4.5,4.5-4.5
	c2.5,0,4.5,2,4.5,4.5v25.1l19.2,16.1C422,345.6,422.3,348.4,420.7,350.3L420.7,350.3z"/>
<path class="st5" d="M420.7,350.3"/>
<path class="st1" d="M429.1,199.9c-0.1,0-0.3,0-0.4,0c-4.3-46.8-43.7-83.4-91.6-83.4c-50.8,0-92,41.2-92,92
	c0,49.1,38.5,89.3,87,91.9v0.1h9.1c9.4-21.1,30.6-35.8,55.1-35.8c22.8,0,42.7,12.8,53,31.6c17.7-7.8,30.1-25.5,30.1-46.1
	C479.4,222.4,456.9,199.9,429.1,199.9z"/>
<path class="st6" d="M396.3,264.7c7.7,0,15.2,1.5,22,4.2c5.8-10.9,9-23.3,9-36.5c0-40.2-30.2-73.2-69.1-77.8
	C343.3,104,296.6,67,241.2,67c-66.5,0-120.6,53.3-121.8,119.6c-31,3.6-55,30-55,61.9c0,34.4,27.9,62.3,62.3,62.3h211
	C344.1,284.4,368,264.7,396.3,264.7z"/>
</svg>
