<?xml version="1.0" encoding="utf-8"?>
<!-- Generator: Adobe Illustrator 26.0.3, SVG Export Plug-In . SVG Version: 6.00 Build 0)  -->
<svg version="1.1" xmlns="http://www.w3.org/2000/svg" xmlns:xlink="http://www.w3.org/1999/xlink" x="0px" y="0px"
	 viewBox="0 0 500 500" style="enable-background:new 0 0 500 500;" xml:space="preserve">
<style type="text/css">
	.st0{fill:#F1F1F1;}
	.st1{fill:#C3C3C3;}
	.st2{fill:#D35B41;}
	.st3{fill:#4FC0F2;}
</style>
<g>
	<polygon class="st0" points="379,272.8 198.3,272.8 239.8,159.3 402.2,202.9 	"/>
	<path class="st1" d="M274.7,224c1.6-5,7-7.8,12-6.2c0,0,0,0,0,0l48.1,15.5c5,1.6,7.8,7,6.2,12.1l-8.8,27.4h-73.2L274.7,224z"/>
	<path class="st2" d="M322.1,115L221.8,142c-6.5,1.8-6.5,11.1,0,12.8l196.3,52.6c6.5,1.8,11.2-6.3,6.4-11.1l-73.4-73.6
		C343.5,115.1,332.5,112.2,322.1,115z"/>
	<path class="st3" d="M427.8,270.2c-3.3-1.9-82.4-45.9-199.7-6.3c-54,18.2-142.9,3.2-143.7,3c-10.3-1.5-20,5.6-21.5,16
		c-1.5,10,5.1,19.4,15,21.3c2.4,0.4,38.3,6.5,80.3,6.5c27.3,0,57.2-2.6,82.1-11c100.3-33.8,166.1,1.8,168.8,3.3c9,5.1,20.6,2,25.9-7
		C440,286.9,436.8,275.4,427.8,270.2z"/>
	<path class="st3" d="M427.8,345.5c-3.3-1.9-82.4-45.9-199.7-6.3c-54,18.2-142.9,3.2-143.7,3c-10.3-1.5-20,5.6-21.5,16
		c-1.5,10,5.1,19.4,15,21.3c2.4,0.4,38.3,6.5,80.3,6.5c27.3,0,57.2-2.6,82.1-11c100.3-33.8,166.1,1.8,168.8,3.3c9,5.1,20.6,2,25.9-7
		C440,362.2,436.8,350.7,427.8,345.5z"/>
</g>
</svg>
