<?xml version="1.0" encoding="utf-8"?>
<!-- Generator: Adobe Illustrator 26.0.3, SVG Export Plug-In . SVG Version: 6.00 Build 0)  -->
<svg version="1.1" id="图层_1" xmlns="http://www.w3.org/2000/svg" xmlns:xlink="http://www.w3.org/1999/xlink" x="0px" y="0px"
	 viewBox="0 0 500 500" style="enable-background:new 0 0 500 500;" xml:space="preserve">
<style type="text/css">
	.st0{fill:#F15A24;}
	.st1{fill:#F7931E;}
	.st2{fill:#1088E2;}
	.st3{fill:#0391FF;}
	.st4{fill:#0396FF;}
	.st5{fill:#3FA9F5;}
	.st6{fill:#ABDCFF;}
</style>
<g>
	<path class="st0" d="M168.4,83.9L61.6,420.4c0.3,0.1,0.6,0.2,0.9,0.3h0c9.7,3.1,20.1-2.3,23.1-12.1L186.1,89.4L168.4,83.9z"/>
	<path class="st1" d="M150.9,78.4L50.5,397.7c-3,9.4,2,19.4,11.1,22.8L168.4,83.9L150.9,78.4z"/>
	<polygon class="st2" points="185.7,89.7 118.9,302.1 167.9,277.2 223,102.4 	"/>
	<polygon class="st3" points="223,102.4 167.9,277.2 218.7,251.4 261.5,115.5 	"/>
	<polygon class="st4" points="261.5,115.5 218.7,251.4 270,225.4 300.4,128.7 	"/>
	<polygon class="st5" points="300.4,128.7 270,225.4 331.1,194.3 346.8,144.5 	"/>
	<path class="st6" d="M364.5,150.5l-17.7-6l-15.7,49.8l35.3-17.9C377.5,170.8,376.3,154.5,364.5,150.5z"/>
	<path class="st0" d="M338.5,237.8L280.3,421c0.2,0.1,0.3,0.1,0.5,0.2h0c5.3,1.7,10.9-1.3,12.6-6.6L348,240.8L338.5,237.8z"/>
	<path class="st1" d="M328.9,234.8l-54.7,173.8c-1.6,5.1,1.1,10.6,6.1,12.4l58.2-183.2L328.9,234.8z"/>
	<polygon class="st2" points="347.8,240.9 311.5,356.5 338.2,343 368.2,247.9 	"/>
	<polygon class="st3" points="368.2,247.9 338.2,343 365.8,329 389.1,255 	"/>
	<polygon class="st4" points="389.1,255 365.8,329 393.7,314.8 410.3,262.2 	"/>
	<polygon class="st5" points="410.3,262.2 393.7,314.8 427,297.9 435.5,270.8 	"/>
	<path class="st6" d="M445.2,274.1l-9.7-3.3l-8.6,27.1l19.2-9.8C452.2,285.1,451.6,276.2,445.2,274.1z"/>
</g>
</svg>
