<?xml version="1.0" encoding="utf-8"?>
<!-- Generator: Adobe Illustrator 26.0.3, SVG Export Plug-In . SVG Version: 6.00 Build 0)  -->
<svg version="1.1" id="图层_1" xmlns="http://www.w3.org/2000/svg" xmlns:xlink="http://www.w3.org/1999/xlink" x="0px" y="0px"
	 viewBox="0 0 500 500" style="enable-background:new 0 0 500 500;" xml:space="preserve">
<style type="text/css">
	.st0{fill:#409EFF;}
	.st1{fill:#94D0FF;}
	.st2{fill:#D9ECFF;}
</style>
<path class="st0" d="M458.9,155.9c-56,37.9-153.3,36.7-264.5,13C88.9,146.5,27.3,198.3,27.3,198.3c96.6-2.2,178.3,28.6,249.9,42.2
	C446.8,272.8,458.9,155.9,458.9,155.9z"/>
<path class="st1" d="M408.6,265c0,0-99.2,30.6-179.7-12.6c-69.2-37.1-147.1-40.6-181.1-22.5c0,0,52.9-7.9,142.4,51.1
	C283.6,342.4,358.3,307.6,408.6,265z"/>
<path class="st2" d="M83.7,131.2c0.6-0.2,64.5-6.8,113.1,8.3c31.8,10,58.1,14.9,79.7,14.9c17.3,0,31.6-3.2,43.6-9.4
	c14.9-7.8,26.1-21.3,30.8-37.5c7.5-24.1,4.1-47.7-9.4-66.4S306,11,282.6,10.5c-19.8-0.1-38.8,7.9-52.4,22.2
	c-8.1,8.5-7.9,22,0.6,30.1c8.5,8.1,22,7.9,30.1-0.6c5.4-5.8,13-9,20.9-9.1c9.6,0.2,19.5,5.3,25,13c5.7,7.8,6.7,17.5,3.2,28.8
	c-1.4,5.4-5,9.9-9.9,12.4c-8.9,4.7-32.5,9.8-90.8-8.4C152.2,81,82,88.4,79,88.8c-11.7,1.3-20.1,11.8-18.8,23.5
	C61.5,124,72.1,131.9,83.7,131.2z"/>
<path class="st2" d="M395.4,324.3c-22.2-3.7-45.6,3.7-70.4,11.4c-15.4,4.8-31.4,9.8-47.6,12.4c-73.7,11.8-149.7-59.6-150.4-60.3
	c-8.5-8.2-22-7.9-30.1,0.6c-8.2,8.5-7.9,22,0.6,30.1l0,0c3.7,3.5,91.4,86.7,186.6,71.7c19.3-3,37.6-8.8,53.7-13.8
	c19.9-6.2,38.7-12,50.6-10c5.9,1,20.2,5.2,25.8,23.1c5.3,17.4-4.5,35.8-21.9,41.1c-10.4,3.2-21.7,1-30.2-5.7
	c-9.2-7.3-22.6-5.9-30,3.3c-7.4,9.2-5.9,22.6,3.3,30c32.5,26.1,80,20.9,106.2-11.6c15.7-19.5,20.7-45.6,13.3-69.6
	C446.1,348.7,423.9,329.1,395.4,324.3z"/>
</svg>
