<?xml version="1.0" encoding="utf-8"?>
<!-- Generator: Adobe Illustrator 26.0.3, SVG Export Plug-In . SVG Version: 6.00 Build 0)  -->
<svg version="1.1" id="图层_1" xmlns="http://www.w3.org/2000/svg" xmlns:xlink="http://www.w3.org/1999/xlink" x="0px" y="0px"
	 viewBox="0 0 500 500" style="enable-background:new 0 0 500 500;" xml:space="preserve">
<style type="text/css">
	.st0{fill:#754C24;}
	.st1{fill:#8C6239;}
	.st2{fill:#C69C6D;}
	.st3{fill:#A67C52;}
	.st4{fill:#603813;}
</style>
<path class="st0" d="M427.2,118.5l-40.8,23.2l-179,309.8h258.9L427.2,118.5z"/>
<path class="st1" d="M347.5,209.9l-63.1,19.4L146.2,451.5h279.9L347.5,209.9z"/>
<polygon class="st2" points="253.8,281.6 154.1,303.8 50.1,451.5 271.8,451.5 "/>
<path class="st2" d="M339.8,190.3c6.8-8.8,5.2-21.6-3.6-28.4c-8.8-6.8-21.6-5.2-28.4,3.6c-0.3,0.4-0.5,0.7-0.8,1.1
	c-6.2,9.3-3.8,21.9,5.5,28.1C321.3,200.7,333.3,198.7,339.8,190.3z"/>
<path class="st3" d="M184.3,305.3c7.6-10.5,5.2-25.2-5.3-32.7c-10.5-7.6-25.2-5.2-32.7,5.3s-5.2,25.2,5.3,32.7
	C162.1,318.2,176.7,315.8,184.3,305.3L184.3,305.3z"/>
<path class="st2" d="M133.3,236.4c8.4-11.6,5.8-27.8-5.8-36.2s-27.8-5.8-36.2,5.8l0,0c-8.4,11.6-5.8,27.8,5.8,36.2
	C108.8,250.7,125,248.1,133.3,236.4z"/>
<path class="st1" d="M379.8,100.8c10.8-14.4,8-34.9-6.4-45.7c-14.4-10.8-34.9-8-45.7,6.4c-0.3,0.3-0.5,0.7-0.8,1
	c-10.3,14.8-6.6,35.1,8.2,45.4C349.5,117.9,369.2,114.8,379.8,100.8z"/>
<circle class="st2" cx="232.9" cy="107.4" r="32.7"/>
<path class="st0" d="M257,244.6c15-19.6,11.2-47.6-8.4-62.6c-19.6-15-47.6-11.2-62.6,8.4c-0.5,0.6-0.9,1.3-1.4,1.9
	c-13.9,20.4-8.7,48.1,11.7,62C216,267.8,242.6,263.5,257,244.6z"/>
<path class="st4" d="M92.8,375.3c-16.7-12.1-40-8.3-52.1,8.4s-8.3,40,8.4,52.1l0,0c16.7,12.1,40,8.3,52.1-8.4
	C113.2,410.7,109.5,387.4,92.8,375.3z"/>
</svg>
