<?xml version="1.0" encoding="utf-8"?>
<!-- Generator: Adobe Illustrator 26.0.3, SVG Export Plug-In . SVG Version: 6.00 Build 0)  -->
<svg version="1.1" id="图层_1" xmlns="http://www.w3.org/2000/svg" xmlns:xlink="http://www.w3.org/1999/xlink" x="0px" y="0px"
	 viewBox="0 0 500 500" style="enable-background:new 0 0 500 500;" xml:space="preserve">
<style type="text/css">
	.st0{fill:#E99311;}
	.st1{fill:#E96A11;}
</style>
<path class="st0" d="M247.3,253.1c34-11.4,71.3-7.7,102.5,10.2c60.5,34.9,81.2,112.2,46.3,172.7c0,0,0,0,0,0
	c-6.7,11.2-15.1,21.3-24.9,29.9c88.4-65.5,107-190.3,41.5-278.7c-16.2-21.9-36.8-40.3-60.4-53.9c-25.2-14.5-53.3-23.3-82.3-25.8
	C274.3,147.6,266.7,198.7,247.3,253.1z"/>
<path class="st1" d="M271,138.9c23.9,3.8,47,11.9,68,24c23.6,13.6,44.2,32,60.4,53.9c41,55.3,49,124.8,27.7,185.1
	c36.3-66.1,33.3-150.1-14.5-214.6c-16.2-21.9-36.8-40.3-60.4-53.9c-25.2-14.5-53.3-23.3-82.3-25.8C271,117.4,271.4,127.9,271,138.9z
	"/>
<path class="st0" d="M251.3,253.9c7.2-35.2,29-65.6,60.1-83.6c60.5-34.9,137.8-14.2,172.7,46.3c0,0,0,0,0,0
	c6.4,11.4,10.9,23.7,13.5,36.5C485.1,143.7,386.3,65.3,277,77.8c-27.1,3.1-53.3,11.7-76.9,25.4c-25.2,14.6-46.8,34.5-63.5,58.4
	C173.5,177.7,214,209.9,251.3,253.9z"/>
<path class="st1" d="M164.3,176.2c15.2-18.8,33.8-34.7,54.8-46.9c23.6-13.6,49.8-22.3,76.9-25.4c68.4-7.8,132.6,19.9,174.2,68.5
	C431,108,356.8,68.7,277,77.8c-27.1,3.1-53.3,11.7-76.9,25.4c-25.2,14.6-46.8,34.5-63.5,58.4C145.7,165.5,154.9,170.4,164.3,176.2z"
	/>
<path class="st0" d="M254,250.8c-26.9-23.8-42.3-57.9-42.4-93.8c0-69.8,56.6-126.4,126.4-126.4c0,0,0,0,0,0
	c13.1,0.2,26,2.4,38.4,6.6C275.5-6.7,158.2,39.6,114.4,140.5c-10.9,25-16.5,52-16.5,79.3c0,29.1,6.5,57.8,18.8,84.1
	C149.2,280.1,197.2,261.2,254,250.8z"/>
<path class="st1" d="M143.2,287.4c-8.7-22.6-13.2-46.6-13.2-70.9c0-27.3,5.6-54.3,16.5-79.3C173.9,74.1,230.1,32.3,293,20.6
	c-75.4,1.6-146.6,46.2-178.6,119.9c-10.9,25-16.5,52-16.5,79.3c0,29.1,6.5,57.8,18.8,84.1C124.7,298.1,133.5,292.6,143.2,287.4z"/>
<path class="st0" d="M252.7,246.9c-34,11.4-71.3,7.7-102.5-10.2C89.8,201.8,69,124.5,103.9,64c0,0,0,0,0,0
	c6.7-11.2,15.1-21.3,24.9-29.9c-88.4,65.5-107,190.3-41.5,278.7c16.2,21.9,36.8,40.3,60.4,53.9c25.2,14.5,53.3,23.3,82.3,25.8
	C225.7,352.4,233.3,301.3,252.7,246.9z"/>
<path class="st1" d="M229,361.1c-23.9-3.8-47-11.9-68-24c-23.6-13.6-44.2-32-60.4-53.9c-41-55.3-49-124.8-27.7-185.1
	c-36.3,66.1-33.3,150.1,14.5,214.6c16.2,21.9,36.8,40.3,60.4,53.9c25.2,14.5,53.3,23.3,82.3,25.8C229,382.6,228.6,372.1,229,361.1z"
	/>
<path class="st0" d="M248.7,246.1c-7.2,35.2-29,65.6-60.1,83.6C128.1,364.7,50.8,344,15.9,283.5c0,0,0,0,0,0
	C9.5,272.1,5,259.8,2.4,247C14.9,356.3,113.7,434.7,223,422.2c27.1-3.1,53.3-11.7,76.9-25.4c25.2-14.6,46.8-34.5,63.5-58.4
	C326.5,322.3,286,290.1,248.7,246.1z"/>
<path class="st1" d="M335.7,323.8c-15.2,18.8-33.8,34.7-54.8,46.9c-23.6,13.6-49.8,22.3-76.9,25.4c-68.4,7.8-132.6-19.9-174.2-68.5
	C69,392,143.2,431.3,223,422.2c27.1-3.1,53.3-11.7,76.9-25.4c25.2-14.6,46.8-34.5,63.5-58.4C354.3,334.5,345.1,329.6,335.7,323.8z"
	/>
<path class="st0" d="M246,249.2c26.9,23.8,42.3,57.9,42.4,93.8c0,69.8-56.6,126.4-126.4,126.4c0,0,0,0,0,0
	c-13.1-0.2-26-2.4-38.4-6.6c100.9,43.8,218.3-2.5,262.1-103.4c10.9-25,16.5-52,16.5-79.3c0-29.1-6.5-57.8-18.8-84.1
	C350.8,219.9,302.8,238.8,246,249.2z"/>
<path class="st1" d="M370.3,283.6c0,27.3-5.6,54.3-16.5,79.3c-27.4,63.1-83.5,104.9-146.5,116.6c75.4-1.6,146.6-46.2,178.6-119.9
	c6.3-14.5,10.8-29.7,13.5-45.3l-30.2-50.8C369.9,270.2,370.3,276.9,370.3,283.6z"/>
</svg>
