<?xml version="1.0" encoding="utf-8"?>
<!-- Generator: Adobe Illustrator 26.0.3, SVG Export Plug-In . SVG Version: 6.00 Build 0)  -->
<svg version="1.1" xmlns="http://www.w3.org/2000/svg" xmlns:xlink="http://www.w3.org/1999/xlink" x="0px" y="0px"
	 viewBox="0 0 500 500" style="enable-background:new 0 0 500 500;" xml:space="preserve">
<style type="text/css">
	.st0{fill:#F6F6F6;}
	.st1{fill:#E6E6E6;}
</style>
<path class="st0" d="M360.3,169.5C348,127.5,309.1,96.7,263,96.7c-55.4,0-100.4,44.3-101.3,99.5c-25.7,3-45.8,24.9-45.8,51.5
	c0,28.6,23.2,51.8,51.8,51.8h184.9c36,0,65.2-29.2,65.2-65.2C417.8,200.9,392.6,173.4,360.3,169.5z"/>
<path class="st1" d="M198.4,195.8H94.8c-6.9,0-12.6-5.7-12.6-12.6v0c0-6.9,5.7-12.6,12.6-12.6h103.6c6.9,0,12.6,5.7,12.6,12.6v0
	C211,190.1,205.3,195.8,198.4,195.8z"/>
<path class="st1" d="M257.4,198.1h-20.6c-6.9,0-12.6-5.7-12.6-12.6v0c0-6.9,5.7-12.6,12.6-12.6h20.6c6.9,0,12.6,5.7,12.6,12.6v0
	C270,192.5,264.3,198.1,257.4,198.1z"/>
<path class="st1" d="M305.7,334.1H148.4c-6.9,0-12.6-5.7-12.6-12.6v0c0-6.9,5.7-12.6,12.6-12.6h157.2c6.9,0,12.6,5.7,12.6,12.6v0
	C318.2,328.5,312.6,334.1,305.7,334.1z"/>
<path class="st1" d="M385.2,368.7H228c-6.9,0-12.6-5.7-12.6-12.6v0c0-6.9,5.7-12.6,12.6-12.6h157.2c6.9,0,12.6,5.7,12.6,12.6v0
	C397.8,363.1,392.1,368.7,385.2,368.7z"/>
<path class="st1" d="M294,403.3H136.8c-6.9,0-12.6-5.7-12.6-12.6v0c0-6.9,5.7-12.6,12.6-12.6H294c6.9,0,12.6,5.7,12.6,12.6v0
	C306.6,397.6,300.9,403.3,294,403.3z"/>
<path class="st1" d="M269.4,241.9H94.8c-6.9,0-12.6-5.7-12.6-12.6v0c0-6.9,5.7-12.6,12.6-12.6h174.6c6.9,0,12.6,5.7,12.6,12.6v0
	C282,236.2,276.3,241.9,269.4,241.9z"/>
</svg>
