<?xml version="1.0" encoding="utf-8"?>
<!-- Generator: Adobe Illustrator 26.0.3, SVG Export Plug-In . SVG Version: 6.00 Build 0)  -->
<svg version="1.1" xmlns="http://www.w3.org/2000/svg" xmlns:xlink="http://www.w3.org/1999/xlink" x="0px" y="0px"
	 viewBox="0 0 500 500" style="enable-background:new 0 0 500 500;" xml:space="preserve">
<style type="text/css">
	.st0{fill:#F1F1F1;}
	.st1{fill:#C3C3C3;}
	.st2{fill:#D35B41;}
	.st3{fill:#4FC0F2;}
</style>
<polygon class="st0" points="385.5,339.4 204.9,339.4 246.4,225.9 408.8,269.5 "/>
<path class="st1" d="M281.2,290.6c1.6-5,7-7.8,12-6.2c0,0,0,0,0,0l48.1,15.5c5,1.6,7.8,7,6.2,12.1l-8.8,27.4h-73.2L281.2,290.6z"/>
<path class="st2" d="M328.7,181.6l-100.3,27.1c-6.5,1.8-6.5,11.1,0,12.8L424.6,274c6.5,1.8,11.2-6.3,6.4-11.1l-73.4-73.6
	C350.1,181.7,339,178.8,328.7,181.6z"/>
<path class="st3" d="M434.3,336.8c-3.3-1.9-82.4-45.9-199.7-6.3c-54,18.2-142.9,3.2-143.7,3c-10.3-1.5-20,5.6-21.5,16
	c-1.5,10,5.1,19.4,15,21.3c2.4,0.4,38.3,6.5,80.3,6.5c27.3,0,57.2-2.6,82.1-11c100.3-33.8,166.1,1.8,168.8,3.3c9,5.1,20.6,2,25.9-7
	C446.6,353.5,443.4,342,434.3,336.8z"/>
<path class="st3" d="M434.3,412.1c-3.3-1.9-82.4-45.9-199.7-6.3c-54,18.2-142.9,3.2-143.7,3c-10.3-1.5-20,5.6-21.5,16
	c-1.5,10,5.1,19.4,15,21.3c2.4,0.4,38.3,6.5,80.3,6.5c27.3,0,57.2-2.6,82.1-11c100.3-33.8,166.1,1.8,168.8,3.3c9,5.1,20.6,2,25.9-7
	C446.6,428.8,443.4,417.3,434.3,412.1z"/>
<path class="st3" d="M109.1,158.4c20.4,0,37-16.6,37-37s-37-74.1-37-74.1s-37,53.6-37,74S88.6,158.4,109.1,158.4z"/>
<path class="st3" d="M176.8,206.8c12.7,0,23.1-10.3,23.1-23.1s-23.1-46.2-23.1-46.2s-23.1,33.4-23.1,46.2S164,206.8,176.8,206.8z"/>
<path class="st3" d="M79.2,260.6c12.7,0,23.1-10.3,23.1-23.1s-23.1-46.2-23.1-46.2s-23.1,33.4-23.1,46.2S66.4,260.6,79.2,260.6z"/>
</svg>
