<?xml version="1.0" encoding="utf-8"?>
<!-- Generator: Adobe Illustrator 26.0.3, SVG Export Plug-In . SVG Version: 6.00 Build 0)  -->
<svg version="1.1" id="图层_1" xmlns="http://www.w3.org/2000/svg" xmlns:xlink="http://www.w3.org/1999/xlink" x="0px" y="0px"
	 viewBox="0 0 500 500" style="enable-background:new 0 0 500 500;" xml:space="preserve">
<style type="text/css">
	.st0{fill:#C7B299;}
	.st1{fill:#A67C52;}
	.st2{fill:#CCCCCC;}
	.st3{fill:#C69C6D;}
	.st4{fill:#E6E6E6;}
</style>
<circle class="st0" cx="189.6" cy="89" r="29.2"/>
<circle class="st1" cx="425.9" cy="196.5" r="29.2"/>
<circle class="st1" cx="128.4" cy="387.4" r="38.2"/>
<circle class="st2" cx="272.4" cy="129.6" r="21.9"/>
<path class="st3" d="M250.8,344.5c-14,0-25.4,11.4-25.4,25.4c0,14,11.4,25.4,25.4,25.4c0,0,0,0,0,0c14,0,25.4-11.4,25.4-25.4
	C276.2,355.8,264.8,344.5,250.8,344.5z"/>
<path class="st4" d="M390.3,136c0-50.1-38.1-90.9-84.9-90.9H270c-11.3,0-20.4,9.1-20.4,20.4S258.7,86,270,86h35.4
	c24.3,0,44,22.4,44,50s-19.7,50-44,50H65.3c-11.3,0-20.4,9.1-20.4,20.4c0,11.3,9.1,20.4,20.4,20.4h240.1
	C352.2,226.8,390.3,186,390.3,136z"/>
<path class="st2" d="M350.9,267.8H93.1c-11.3,0-20.4,9.1-20.5,20.4s9.1,20.4,20.4,20.5c0,0,0,0,0,0h257.8
	c26.9,0,48.8,23.6,48.8,52.7c0,29-21.9,52.7-48.8,52.7h-38c-11.3,0-20.4,9.1-20.5,20.4c0,11.3,9.1,20.4,20.4,20.5c0,0,0,0,0,0h38
	c49.4,0,89.7-42,89.7-93.6C440.5,309.8,400.3,267.8,350.9,267.8z"/>
</svg>
