<?xml version="1.0" encoding="utf-8"?>
<!-- Generator: Adobe Illustrator 26.0.3, SVG Export Plug-In . SVG Version: 6.00 Build 0)  -->
<svg version="1.1" id="图层_1" xmlns="http://www.w3.org/2000/svg" xmlns:xlink="http://www.w3.org/1999/xlink" x="0px" y="0px"
	 viewBox="0 0 500 500" style="enable-background:new 0 0 500 500;" xml:space="preserve">
<style type="text/css">
	.st0{fill:#5AC982;}
	.st1{fill:#F15A24;}
	.st2{fill:#F7931E;}
	.st3{fill:#1088E2;}
	.st4{fill:#0391FF;}
	.st5{fill:#0396FF;}
	.st6{fill:#3FA9F5;}
	.st7{fill:#ABDCFF;}
	.st8{fill:#A67C52;}
	.st9{fill:#7AC943;}
</style>
<path class="st0" d="M227.2,397.3c3.6-7.7,0.3-13.9-7.4-13.9c-1.9,0-3.9,0.4-5.9,1.1c5.2-13.1-0.8-23.4-14.1-23.4
	c-13.8,0-30.3,11.2-36.8,25.1c-0.1,0.2-0.2,0.4-0.3,0.6c-0.7-0.1-1.4-0.2-2.2-0.2c-6.8,0-14.9,5.5-18.1,12.4
	c-3.2,6.8-0.2,12.4,6.6,12.4h58.9l0-0.1C215.3,410.6,223.8,404.6,227.2,397.3z"/>
<g>
	<path class="st1" d="M170.2,70.1L63.3,406.6c0.3,0.1,0.6,0.2,0.9,0.3h0c9.7,3.1,20.1-2.3,23.1-12.1L187.8,75.6L170.2,70.1z"/>
	<path class="st2" d="M152.6,64.6L52.2,383.9c-3,9.4,2,19.4,11.1,22.8L170.2,70.1L152.6,64.6z"/>
	<polygon class="st3" points="187.4,75.9 120.6,288.3 169.6,263.4 224.8,88.6 	"/>
	<polygon class="st4" points="224.8,88.6 169.6,263.4 220.4,237.6 263.3,101.7 	"/>
	<polygon class="st5" points="263.3,101.7 220.4,237.6 271.7,211.6 302.2,114.9 	"/>
	<polygon class="st6" points="302.2,114.9 271.7,211.6 332.8,180.5 348.5,130.7 	"/>
	<path class="st7" d="M366.2,136.7l-17.7-6l-15.7,49.8l35.3-17.9C379.2,157,378,140.7,366.2,136.7z"/>
</g>
<g>
	<path class="st1" d="M340.2,224L282,407.2c0.2,0.1,0.3,0.1,0.5,0.2h0c5.3,1.7,10.9-1.3,12.6-6.6L349.8,227L340.2,224z"/>
	<path class="st2" d="M330.6,221L276,394.8c-1.6,5.1,1.1,10.6,6.1,12.4L340.2,224L330.6,221z"/>
	<polygon class="st3" points="349.6,227.1 313.2,342.7 339.9,329.2 369.9,234.1 	"/>
	<polygon class="st4" points="369.9,234.1 339.9,329.2 367.5,315.2 390.8,241.2 	"/>
	<polygon class="st5" points="390.8,241.2 367.5,315.2 395.4,301 412,248.4 	"/>
	<polygon class="st6" points="412,248.4 395.4,301 428.7,284.1 437.2,257 	"/>
	<path class="st7" d="M446.9,260.3l-9.7-3.3l-8.6,27.1l19.2-9.8C453.9,271.3,453.3,262.4,446.9,260.3z"/>
</g>
<path class="st8" d="M473.9,435.4H26.1l0,0c0-13.4,10.8-24.2,24.2-24.2h399.3C463,411.2,473.9,422.1,473.9,435.4L473.9,435.4z"/>
<path class="st9" d="M186.3,397.3c3.6-7.7,0.3-13.9-7.4-13.9c-1.9,0-3.9,0.4-5.9,1.1c5.2-13.1-0.8-23.4-14.1-23.4
	c-13.8,0-30.3,11.2-36.8,25.1c-0.1,0.2-0.2,0.4-0.3,0.6c-0.7-0.1-1.4-0.2-2.2-0.2c-6.8,0-14.9,5.5-18.1,12.4
	c-3.2,6.8-0.2,12.4,6.6,12.4H167l0-0.1C174.5,410.6,182.9,404.6,186.3,397.3z"/>
<path class="st9" d="M428.5,397.3c3.6-7.7,0.3-13.9-7.4-13.9c-1.9,0-3.9,0.4-5.9,1.1c5.2-13.1-0.8-23.4-14.1-23.4
	c-13.8,0-30.3,11.2-36.8,25.1c-0.1,0.2-0.2,0.4-0.3,0.6c-0.7-0.1-1.4-0.2-2.2-0.2c-6.8,0-14.9,5.5-18.1,12.4
	c-3.2,6.8-0.2,12.4,6.6,12.4h58.9l0-0.1C416.6,410.6,425.1,404.6,428.5,397.3z"/>
</svg>
