<?xml version="1.0" encoding="utf-8"?>
<!-- Generator: Adobe Illustrator 26.0.3, SVG Export Plug-In . SVG Version: 6.00 Build 0)  -->
<svg version="1.1" xmlns="http://www.w3.org/2000/svg" xmlns:xlink="http://www.w3.org/1999/xlink" x="0px" y="0px"
	 viewBox="0 0 500 500" style="enable-background:new 0 0 500 500;" xml:space="preserve">
<style type="text/css">
	.st0{fill:#3FA9F5;}
	.st1{fill:#ABDCFF;}
</style>
<path class="st0" d="M273.9,75.1c-59.4-7.1-94.5-0.9-109.5,6.2c-29.7,11.3-45.6,29.1-45.6,54.4c0,28.1,32.5,51,72.6,51
	c4.2,0,8.1-0.3,12.1-0.7c-21-5-28.7-25.8-28.7-32.4c0-15.5,9.3-31.3,36.4-35.8c0,0,21.8-5.6,61.7,2.8c56.4,16.3,72.9,35.9,88.1,65.7
	c19,47.2,2.9,110-27.4,145.6c-57.9,68-201.3,90.1-201.3,90.1C278,394.7,343.1,330.1,356,246.5c8.4-110.9-127.1-137.1-148.3-68.4
	c18.8-12.8,39.4-10.1,59.9-3.5c47.3,25.1,40.6,64.7,36.3,86.4c-9.6,49.1-47.3,96.7-102.6,125.7C143.2,412,66.7,423.6,41,428h156.4
	c13-0.6,68.9-3.3,98.9-11.9C378.1,392.7,459,336.6,459,245.9C459,155,367.9,86.4,273.9,75.1L273.9,75.1z"/>
<path class="st1" d="M118.1,391.2c-17,10.4-75.5,30.5-75.5,30.5s54.2-3.8,98.1-18.4c39.4-13.1,58-26.6,76.4-47.6
	c16.8-19.1,32.8-77.5-26.7-105.4c-34.6-16.2-82.7-16.6-102.5,3.1c-23.6,23.4-5.3,43.8-5.3,43.8s7-18.7,30.2-21.9
	c6.2-0.9,30.1,0.2,42.7,8.9c9.4,6.6,24.5,18.3,16,48.3C165,355.3,148,372.9,118.1,391.2L118.1,391.2z"/>
</svg>
