<?xml version="1.0" encoding="utf-8"?>
<!-- Generator: Adobe Illustrator 26.0.3, SVG Export Plug-In . SVG Version: 6.00 Build 0)  -->
<svg version="1.1" xmlns="http://www.w3.org/2000/svg" xmlns:xlink="http://www.w3.org/1999/xlink" x="0px" y="0px"
	 viewBox="0 0 500 500" style="enable-background:new 0 0 500 500;" xml:space="preserve">
<style type="text/css">
	.st0{fill:#CCCCCC;}
	.st1{fill:#FF7200;}
	.st2{fill:#F7931E;}
</style>
<path class="st0" d="M456.4,195.2c-3-6.9-10.9-10.1-17.9-7.2c-1,0.4-8.5,3.6-20,9c-8-4.8-17.6-10.6-27.8-17.2
	c8.5-4.1,13.9-6.5,14-6.6c6.9-3.1,10-11.1,6.9-18s-11.1-10-18-6.9c-9.7,4.4-19.3,9-28.8,13.8c-7.7-5.5-15.3-11.2-22.6-17.1l-3.7-3.1
	l11.3-5.8c6.6-3.6,9-11.9,5.4-18.5c-3.5-6.3-11.2-8.8-17.7-5.8c-1,0.5-9.3,4.7-21.3,11c-11.6-10.1-23.1-20.4-34.4-30.9
	c7.7-7.3,12.5-12.3,13.1-12.9c5-5.6,4.5-14.2-1.1-19.2c-5.4-4.8-13.5-4.6-18.6,0.5c-0.1,0.2-5.1,5.2-13.2,12.9
	c-2-1.9-3.9-3.8-5.9-5.7c-5.3-5.3-13.9-5.4-19.2-0.1c-5.3,5.3-5.4,13.9-0.1,19.2c0.1,0.1,0.2,0.2,0.3,0.3l4.7,4.6
	c-12.1,10.5-24.5,20.6-37.3,30.3c-6-3.6-12-7.1-18.1-10.4c-6.6-3.5-14.9-1-18.4,5.6s-1,14.9,5.6,18.4c0.1,0.1,2.7,1.5,6.8,3.8
	c-2.9,2-5.6,4-8.5,5.9c-7.2,4.8-14.8,9.5-22.5,14.2c-9-5.7-15.3-9.6-16.1-10.1c-6.6-3.6-14.9-1.2-18.5,5.4c-3.4,6.2-1.5,14,4.4,17.9
	l3.4,2.1c-13.7,7.6-27,14.4-38.3,20.1l-7.3-4.3c-6.5-3.7-14.7-1.5-18.5,5c0,0,0,0.1-0.1,0.1c-2.1,3.7-2.2,8.2-0.5,12l-7.1,3.3
	c-7,2.9-10.3,10.8-7.4,17.8s10.8,10.3,17.8,7.4c0.3-0.1,0.6-0.3,0.9-0.4c1-0.4,9-4.1,21-10c10.4,6.3,23.9,14.8,38.1,24.3
	c-10.6,9-17.2,15-17.9,15.6c-5.3,5.3-5.4,13.9-0.1,19.2c5,5.1,13.1,5.4,18.5,0.8c0.2-0.2,8.8-7.9,22.7-19.6
	c5.4,3.9,10.7,7.9,15.7,11.8c7,5.5,13.6,10.8,19.9,16.1c-9.6,10.6-15.7,18.1-16.4,18.9c-4.9,5.7-4.3,14.3,1.4,19.2
	c5.7,4.9,14.3,4.3,19.2-1.4c0.2-0.2,0.4-0.5,0.6-0.8c0.2-0.2,6.2-7.6,16-18.3c8.6,7.6,16.4,14.6,22.9,20.7
	c-9.8,9.4-16.4,16.1-17.1,16.8c-5.2,5.4-5,14.1,0.5,19.2c5.3,5.1,13.7,5,19-0.2c0.2-0.2,6.9-7,17.3-16.9l4.9,5
	c5.1,5.4,13.6,5.7,19.1,0.6c0,0,0.1-0.1,0.1-0.1c5.5-5.2,5.7-13.8,0.6-19.2c0,0,0,0,0,0l-4.8-4.9c7.8-7.1,16.2-14.7,25.2-22.3
	c7.3,7.8,11.5,12.7,11.6,12.8c4.9,5.7,13.5,6.4,19.2,1.5c5.7-4.9,6.4-13.5,1.5-19.2c-0.5-0.5-4.6-5.3-11.3-12.5
	c10.7-8.7,22-16.8,33.6-24.2c9.1,9.6,14.3,15.6,14.5,15.8c4.9,5.6,13.5,6.2,19.2,1.3c5.7-4.9,6.3-13.5,1.3-19.2
	c-0.5-0.5-4.7-5.3-11.3-12.4c18-10.3,35.8-19.5,50.4-26.5c6.2,3.5,10.1,5.7,10.7,6c6.6,3.6,14.8,1.2,18.4-5.4c0,0,0,0,0,0
	c2.3-4.4,2-9.7-0.7-13.8l3.5-1.5c6.9-2.9,10.1-10.8,7.2-17.7C456.4,195.3,456.4,195.2,456.4,195.2z M325.1,166.1
	c4.2,3.4,8.5,6.7,12.9,10c-10.1,5.4-21.3,11.7-33.1,18.6c-5.2-4.5-10.4-9-15.9-13.4c-3.3-2.7-6.5-5.1-9.7-7.6
	c11.4-6.3,22.9-12.5,33.3-18C316.8,159.2,320.9,162.7,325.1,166.1z M232.9,219.3c-4.1-3.5-8.2-6.8-12.4-10.1c4-2.7,7.8-5.4,11.9-8
	c6.1-4,13.4-8.4,21.3-13c5.9,4.5,12,9.2,18.1,14.2c2.9,2.4,5.6,4.7,8.4,7.1c-2.6,1.6-5,3-7.6,4.6c-8.8,5.6-17.3,11.6-25.4,17.9
	C242.5,227.7,237.7,223.5,232.9,219.3z M261.8,110.4c8.3,7.7,18,16.7,28.8,26.2c-11.2,6-23.3,12.6-34.9,19.2
	c-9.5-6.9-18.4-13-26.4-18.3C241.6,127.7,252.5,118.6,261.8,110.4z M187.1,167.9c6.5-4.4,12.7-8.7,18.8-13.1
	c7.1,4.6,15.2,10,23.9,16c-4.3,2.6-8.4,5.1-12.1,7.5c-6.9,4.5-13.6,9.1-20.1,13.6c-7.6-5.4-15.2-10.7-22.9-15.9
	C178.8,173.3,183,170.7,187.1,167.9z M111.8,211.5c11.5-6,24.2-12.8,36.9-20.1c7.8,5.1,16.4,10.9,25.3,17.1
	c-11.5,8.4-21.6,16.3-30.7,23.6C132.9,225.1,122.4,218.2,111.8,211.5z M166.4,248.6c10.1-7.9,20.4-15.6,30.8-23.1
	c6.4,4.9,12.5,9.7,18,14.4c3.8,3.2,7.2,6.4,10.7,9.5c-9.9,8.5-18.9,17-26.9,25c-7.2-6-14.6-12-22-17.8
	C173.6,254,169.9,251.3,166.4,248.6z M243.7,313.8c-6.7-6.3-14.8-13.6-23.8-21.6c7.9-7.8,16.6-16,26.2-24.3
	c8.8,8.3,16.6,15.9,23.5,22.9C260.3,298.7,251.6,306.5,243.7,313.8z M290.6,273.3c-7.6-7.7-15.3-15.2-23.1-22.7
	c6.4-4.7,12.9-9.3,19.6-13.5c5-3.1,9.8-6,14.6-8.9c8,7.3,15.3,14.3,21.9,20.8C312.3,256.6,301.2,264.7,290.6,273.3z M347.4,234.2
	c-6.9-6.9-14-13.7-21.1-20.4c12.1-6.9,24.2-13.5,36.5-19.9c9.3,6.3,18.4,12.2,26.7,17.3C376.4,217.9,361.8,225.7,347.4,234.2z"/>
<path class="st1" d="M186.5,374.4c-47.1-14.7-90.7,1.8-125.3,31.3c0,0,68.8,77.6,169.4,10.9l29.3,24.7v-67.5l-27.9,23.5
	C218.2,389.2,197.7,377.8,186.5,374.4z M106.7,408.2c0,4.7-3.8,8.5-8.5,8.5c-4.7,0-8.5-3.8-8.5-8.5c0-4.7,3.8-8.5,8.5-8.5
	C102.9,399.8,106.7,403.6,106.7,408.2z"/>
<path class="st2" d="M392.6,361.1c-33.7-10.5-65,1.3-89.7,22.4c0,0,49.3,55.5,121.3,7.8l21,17.7v-48.4l-20,16.8
	C415.3,371.7,400.6,363.6,392.6,361.1z M340.3,383.9c0,3.4-2.8,6.2-6.2,6.2c-3.4,0-6.2-2.8-6.2-6.2c0-3.4,2.8-6.2,6.2-6.2
	C337.5,377.7,340.3,380.5,340.3,383.9z"/>
</svg>
