<?xml version="1.0" encoding="utf-8"?>
<!-- Generator: Adobe Illustrator 26.0.3, SVG Export Plug-In . SVG Version: 6.00 Build 0)  -->
<svg version="1.1" xmlns="http://www.w3.org/2000/svg" xmlns:xlink="http://www.w3.org/1999/xlink" x="0px" y="0px"
	 viewBox="0 0 500 500" style="enable-background:new 0 0 500 500;" xml:space="preserve">
<style type="text/css">
	.st0{fill-rule:evenodd;clip-rule:evenodd;fill:#3FA9F5;}
	.st1{fill-rule:evenodd;clip-rule:evenodd;fill:#ABDCFF;}
</style>
<path class="st0" d="M250,25.5c0,0-149.7,216.6-149.7,299.4s67,149.7,149.7,149.7s149.7-66.9,149.7-149.7S250,25.5,250,25.5z"/>
<path class="st1" d="M361.5,371.8c-14.9,0.3-23.5,3-55.3,13.2l-4.5,1.4c-21.7,8.7-39.8,13.4-50.8,13.4c-18.5,0-49-12.8-49.3-12.9
	l-6.2-2c-33.3-10.7-41.2-13.2-54.6-13.4c-10.4,0-20.8,1.5-31.6,4.4c20.9,57.5,76,98.5,140.7,98.5c64.8,0,120-41.1,140.8-98.7
	C381.2,373.3,371.4,372,361.5,371.8z"/>
<g>
	<path class="st1" d="M238.3,249.6c0,16.8-13.6,30.4-30.4,30.4s-30.4-13.6-30.4-30.4s13.6-30.4,30.4-30.4S238.3,232.9,238.3,249.6z
		 M207.9,233.1c-9.1,0-16.6,7.4-16.6,16.6s7.4,16.6,16.6,16.6c9.1,0,16.6-7.4,16.6-16.6S217,233.1,207.9,233.1z"/>
	<path class="st1" d="M322.5,319.8c0,16.8-13.6,30.4-30.4,30.4c-16.8,0-30.4-13.6-30.4-30.4c0-16.8,13.6-30.4,30.4-30.4
		C308.9,289.4,322.5,303,322.5,319.8z M292.1,303.2c-9.1,0-16.6,7.4-16.6,16.6s7.4,16.6,16.6,16.6s16.6-7.4,16.6-16.6
		S301.3,303.2,292.1,303.2z"/>
	<path class="st1" d="M189.1,346.4L189.1,346.4c-5-5-5-13.2,0-18.2l103.6-103.6c5-5,13.2-5,18.2,0l0,0c5,5,5,13.2,0,18.2
		L207.3,346.4C202.3,351.4,194.1,351.4,189.1,346.4z"/>
</g>
</svg>
