<?xml version="1.0" encoding="utf-8"?>
<!-- Generator: Adobe Illustrator 26.0.3, SVG Export Plug-In . SVG Version: 6.00 Build 0)  -->
<svg version="1.1" id="图层_1" xmlns="http://www.w3.org/2000/svg" xmlns:xlink="http://www.w3.org/1999/xlink" x="0px" y="0px"
	 viewBox="0 0 500 500" style="enable-background:new 0 0 500 500;" xml:space="preserve">
<style type="text/css">
	.st0{fill:#4FC0F2;}
	.st1{fill:#E3E3E3;}
	.st2{fill:#F6F6F6;}
	.st3{fill:#F15A24;}
</style>
<path class="st0" d="M266.2,397.6c0,12.7,10.1,23,22.5,23s22.5-10.3,22.5-23c0-12.7-22.5-48.4-22.5-48.4S266.2,384.9,266.2,397.6z"
	/>
<path class="st1" d="M388.6,158.2c-0.1,0-0.3,0-0.4,0c-4.1-44.2-41.2-78.8-86.5-78.8c-48,0-86.9,38.9-86.9,86.9
	c0,46.4,36.4,84.3,82.2,86.8v0.1h91.6c26.2,0,47.5-21.3,47.5-47.5S414.8,158.2,388.6,158.2z"/>
<path class="st2" d="M334.9,182.5c-14-47.8-58.1-82.7-110.5-82.7c-62.8,0-113.9,50.4-115.1,112.9c-29.2,3.4-51.9,28.3-51.9,58.5
	c0,32.5,26.4,58.9,58.9,58.9h209.8c40.9,0,74-33.1,74-74C400.1,218.1,371.6,186.8,334.9,182.5z"/>
<path class="st3" d="M411.4,143.6l47.1,81.6c7.2,12.4-1.8,28-16.2,28h-94.3c-14.4,0-23.3-15.6-16.2-28l47.1-81.6
	C386.3,131.1,404.3,131.1,411.4,143.6z M395.3,224.4c-2.8,0-5.1,2.3-5.1,5.1s2.3,5.1,5.1,5.1s5.1-2.3,5.1-5.1
	S398.1,224.4,395.3,224.4z M401.3,173.3c0-3.3-2.7-6.1-6.1-6.1c-3.3,0-6.1,2.7-6.1,6.1c0,0.2,0,0.5,0,0.7l2.5,40.4h0
	c0,1.9,1.6,3.5,3.5,3.5c1.9,0,3.5-1.6,3.5-3.5h0l2.5-40.4C401.3,173.8,401.3,173.6,401.3,173.3z"/>
<path class="st0" d="M350.3,397.6c0,12.7,10.1,23,22.5,23c12.4,0,22.5-10.3,22.5-23c0-12.7-22.5-48.4-22.5-48.4
	S350.3,384.9,350.3,397.6z"/>
<path class="st0" d="M182.1,397.6c0,12.7,10.1,23,22.5,23s22.5-10.3,22.5-23c0-12.7-22.5-48.4-22.5-48.4S182.1,384.9,182.1,397.6z"
	/>
<path class="st0" d="M98.1,397.6c0,12.7,10.1,23,22.5,23s22.5-10.3,22.5-23c0-12.7-22.5-48.4-22.5-48.4S98.1,384.9,98.1,397.6z"/>
</svg>
