<?xml version="1.0" encoding="utf-8"?>
<!-- Generator: Adobe Illustrator 26.0.3, SVG Export Plug-In . SVG Version: 6.00 Build 0)  -->
<svg version="1.1" id="图层_1" xmlns="http://www.w3.org/2000/svg" xmlns:xlink="http://www.w3.org/1999/xlink" x="0px" y="0px"
	 viewBox="0 0 500 500" style="enable-background:new 0 0 500 500;" xml:space="preserve">
<style type="text/css">
	.st0{fill:#F15A24;}
	.st1{fill:#F58502;}
</style>
<path class="st0" d="M335.7,58.3l82.8,143.4c7.2,12.4-1.8,28-16.2,28H236.7c-14.4,0-23.3-15.6-16.2-28l82.8-143.4
	C310.5,45.8,328.5,45.8,335.7,58.3z M319.5,187.9c-4.1,0-7.3,3.3-7.3,7.3s3.3,7.3,7.3,7.3s7.3-3.3,7.3-7.3S323.6,187.9,319.5,187.9z
	 M328.3,114c0-4.8-3.9-8.8-8.8-8.8s-8.8,3.9-8.8,8.8c0,0.4,0,0.7,0.1,1l3.6,58.6h0c0,2.8,2.3,5.1,5.1,5.1c2.8,0,5.1-2.3,5.1-5.1h0
	l3.6-58.6C328.3,114.7,328.3,114.3,328.3,114z"/>
<polygon class="st1" points="267.5,358.9 450.4,312 128.3,243.1 199.1,303 19.6,350.8 281.4,451.1 480.4,413.7 "/>
</svg>
