<?xml version="1.0" encoding="utf-8"?>
<!-- Generator: Adobe Illustrator 26.0.3, SVG Export Plug-In . SVG Version: 6.00 Build 0)  -->
<svg version="1.1" xmlns="http://www.w3.org/2000/svg" xmlns:xlink="http://www.w3.org/1999/xlink" x="0px" y="0px"
	 viewBox="0 0 500 500" style="enable-background:new 0 0 500 500;" xml:space="preserve">
<style type="text/css">
	.st0{fill:#E3E3E3;}
	.st1{fill:#F6F6F6;}
	.st2{fill-rule:evenodd;clip-rule:evenodd;fill:#F7AD44;}
	.st3{fill:#4FC0F2;}
</style>
<path class="st0" d="M71.1,199.9c0.1,0,0.3,0,0.4,0c4.3-46.8,43.7-83.4,91.6-83.4c50.8,0,92,41.2,92,92c0,49.1-38.5,89.3-87,91.9
	v0.1h-97c-27.8,0-50.3-22.5-50.3-50.3S43.3,199.9,71.1,199.9z"/>
<path class="st0" d="M429.1,199.9c-0.1,0-0.3,0-0.4,0c-4.3-46.8-43.7-83.4-91.6-83.4c-50.8,0-92,41.2-92,92
	c0,49.1,38.5,89.3,87,91.9v0.1h97c27.8,0,50.3-22.5,50.3-50.3S456.9,199.9,429.1,199.9z"/>
<path class="st1" d="M358.1,154.6C343.3,104,296.6,67,241.2,67c-66.5,0-120.6,53.3-121.8,119.6c-31,3.6-55,30-55,61.9
	c0,34.4,27.9,62.3,62.3,62.3h222.2c43.3,0,78.4-35.1,78.4-78.4C427.3,192.3,397.1,159.2,358.1,154.6z"/>
<polygon class="st2" points="243.7,336.8 291.1,336.8 220.1,433 220.1,368.8 179.4,368.8 267,250.2 "/>
<path class="st3" d="M132.2,350.6l7.4-18.2c2.8-6.9,10.7-10.2,17.6-7.4h0c6.9,2.8,10.2,10.7,7.4,17.6l-7.4,18.2
	c-2.8,6.9-10.7,10.2-17.6,7.4h0C132.7,365.3,129.4,357.5,132.2,350.6z"/>
<path class="st3" d="M76.9,345.6l7.4-18.2c2.8-6.9,10.7-10.2,17.6-7.4h0c6.9,2.8,10.2,10.7,7.4,17.6l-7.4,18.2
	c-2.8,6.9-10.7,10.2-17.6,7.4h0C77.4,360.4,74.1,352.5,76.9,345.6z"/>
<path class="st3" d="M361.2,356l7.4-18.2c2.8-6.9,10.7-10.2,17.6-7.4h0c6.9,2.8,10.2,10.7,7.4,17.6l-7.4,18.2
	c-2.8,6.9-10.7,10.2-17.6,7.4l0,0C361.7,370.8,358.4,362.9,361.2,356z"/>
<path class="st3" d="M305.9,351l7.4-18.2c2.8-6.9,10.7-10.2,17.6-7.4h0c6.9,2.8,10.2,10.7,7.4,17.6l-7.4,18.2
	c-2.8,6.9-10.7,10.2-17.6,7.4h0C306.4,365.8,303.1,357.9,305.9,351z"/>
<path class="st3" d="M21.6,345.6l7.4-18.2c2.8-6.9,10.7-10.2,17.6-7.4h0c6.9,2.8,10.2,10.7,7.4,17.6l-7.4,18.2
	c-2.8,6.9-10.7,10.2-17.6,7.4h0C22.1,360.4,18.8,352.5,21.6,345.6z"/>
<path class="st3" d="M416.5,356l7.4-18.2c2.8-6.9,10.7-10.2,17.6-7.4h0c6.9,2.8,10.2,10.7,7.4,17.6l-7.4,18.2
	c-2.8,6.9-10.7,10.2-17.6,7.4v0C417,370.8,413.7,362.9,416.5,356z"/>
</svg>
