<?xml version="1.0" encoding="utf-8"?>
<!-- Generator: Adobe Illustrator 26.0.3, SVG Export Plug-In . SVG Version: 6.00 Build 0)  -->
<svg version="1.1" xmlns="http://www.w3.org/2000/svg" xmlns:xlink="http://www.w3.org/1999/xlink" x="0px" y="0px"
	 viewBox="0 0 500 500" style="enable-background:new 0 0 500 500;" xml:space="preserve">
<style type="text/css">
	.st0{fill:#F7AD44;}
	.st1{fill:#4FC0F2;}
	.st2{fill:#E6E6E6;}
</style>
<path class="st0" d="M327,320.8h-36c-1,0-1.8-0.8-1.8-1.7c0-0.4,0.1-0.7,0.3-1l34.3-53c1.1-1.8,0.6-4.2-1.2-5.3
	c-0.6-0.4-1.3-0.6-2-0.6h-61.6c-2.7,0-5.3,1.5-6.6,3.9l-45.8,82.5c-1.5,2.7-0.5,6,2.1,7.5c0.8,0.4,1.7,0.7,2.6,0.7h36.8
	c1,0,1.8,0.8,1.8,1.8c0,0.2,0,0.3-0.1,0.5l-25.4,87.2L331,330c2.1-2.2,2-5.6-0.2-7.7C329.7,321.3,328.4,320.8,327,320.8z"/>
<path class="st1" d="M346.9,369c0,27.2,22,49.1,49.2,49.1c27.2,0,49.2-22,49.2-49.1s-49.2-98.3-49.2-98.3S346.9,341.8,346.9,369z"/>
<path class="st2" d="M434.8,115.8H65.3c-16.3,0-29.5-13.2-29.5-29.5S49,56.8,65.3,56.8h369.5c16.3,0,29.5,13.2,29.5,29.5
	S451,115.8,434.8,115.8z"/>
<path class="st2" d="M434.8,232.7H65.3c-16.3,0-29.5-13.2-29.5-29.5s13.2-29.5,29.5-29.5h369.5c16.3,0,29.5,13.2,29.5,29.5
	S451,232.7,434.8,232.7z"/>
<path class="st2" d="M162.4,351H65.3c-16.3,0-29.5-13.2-29.5-29.5c0-16.3,13.2-29.5,29.5-29.5h97.2c16.3,0,29.5,13.2,29.5,29.5
	C191.9,337.8,178.7,351,162.4,351z"/>
</svg>
