<?xml version="1.0" encoding="utf-8"?>
<!-- Generator: Adobe Illustrator 26.0.3, SVG Export Plug-In . SVG Version: 6.00 Build 0)  -->
<svg version="1.1" xmlns="http://www.w3.org/2000/svg" xmlns:xlink="http://www.w3.org/1999/xlink" x="0px" y="0px"
	 viewBox="0 0 500 500" style="enable-background:new 0 0 500 500;" xml:space="preserve">
<style type="text/css">
	.st0{fill:#F1F1F1;}
	.st1{fill:#C3C3C3;}
	.st2{fill:#F15A24;}
	.st3{fill:#F7931E;}
	.st4{fill:#1088E2;}
	.st5{fill:#0391FF;}
	.st6{fill:#0396FF;}
	.st7{fill:#3FA9F5;}
	.st8{fill:#ABDCFF;}
	.st9{fill:#D35B41;}
	.st10{fill:#754C24;}
	.st11{fill:#7AC943;}
</style>
<g>
	<polygon class="st0" points="396.7,443 216.1,443 257.6,329.5 420,373 	"/>
	<polygon points="385.9,443 385.9,443 385.9,443 	"/>
	<path class="st1" d="M292.5,394.2c1.6-5,7-7.8,12-6.2c0,0,0,0,0,0l48.1,15.5c5,1.6,7.8,7,6.2,12.1l-8.8,27.4h-73.2L292.5,394.2z"/>
	<g>
		<path class="st2" d="M185,41.7l-134,422c0.4,0.1,0.8,0.3,1.2,0.4h0c12.2,3.8,25.1-2.9,29-15.1L207.1,48.7L185,41.7z"/>
		<path class="st3" d="M163,34.8L37.1,435.1c-3.7,11.8,2.5,24.3,14,28.6l134-422L163,34.8z"/>
		<polygon class="st4" points="206.7,49 122.9,315.3 184.4,284.1 253.5,64.9 		"/>
		<polygon class="st5" points="253.5,64.9 184.4,284.1 248,251.7 301.7,81.3 		"/>
		<polygon class="st6" points="301.7,81.3 248,251.7 312.3,219.1 350.5,97.9 		"/>
		<polygon class="st7" points="350.5,97.9 312.3,219.1 388.9,180.2 408.6,117.7 		"/>
		<path class="st8" d="M430.9,125.3l-22.2-7.6l-19.7,62.5l44.2-22.5C447.1,150.6,445.6,130.3,430.9,125.3z"/>
	</g>
	<path class="st9" d="M339.9,285.1l-100.3,27.1c-6.5,1.8-6.5,11.1,0,12.8l196.3,52.6c6.5,1.8,11.2-6.3,6.4-11.1l-73.4-73.6
		C361.3,285.3,350.3,282.3,339.9,285.1z"/>
	<path class="st10" d="M464,465.2H142.8l0,0c0-12.3,10-22.2,22.2-22.2h276.7C454,443,464,452.9,464,465.2L464,465.2z"/>
	<path class="st11" d="M252,429.1c3.6-7.7,0.3-13.9-7.4-13.9c-1.9,0-3.9,0.4-5.9,1.1c5.2-13.1-0.8-23.4-14.1-23.4
		c-13.8,0-30.3,11.2-36.8,25.1c-0.1,0.2-0.2,0.4-0.3,0.6c-0.7-0.1-1.4-0.2-2.2-0.2c-6.8,0-14.9,5.5-18.1,12.4
		c-3.2,6.8-0.2,12.4,6.6,12.4h58.9l0-0.1C240.1,442.4,248.5,436.4,252,429.1z"/>
</g>
</svg>
