<?xml version="1.0" encoding="utf-8"?>
<!-- Generator: Adobe Illustrator 26.0.3, SVG Export Plug-In . SVG Version: 6.00 Build 0)  -->
<svg version="1.1" xmlns="http://www.w3.org/2000/svg" xmlns:xlink="http://www.w3.org/1999/xlink" x="0px" y="0px"
	 viewBox="0 0 500 500" style="enable-background:new 0 0 500 500;" xml:space="preserve">
<style type="text/css">
	.st0{fill:#A67C52;}
	.st1{fill:#F2F2F2;}
	.st2{fill:none;stroke:#E6E6E6;stroke-width:14;stroke-miterlimit:10;}
	.st3{fill:#F7931E;}
	.st4{fill:#FBB03B;}
	.st5{fill:#4FC0F2;}
</style>
<path class="st0" d="M143.8,247.2l26.7,26.7c1.3,1.3,3.5,1.3,4.9,0l1.3-1.3c1.3-1.3,1.3-3.5,0-4.9L150,241c-1.3-1.3-3.5-1.3-4.9,0
	l-1.3,1.3C142.5,243.7,142.5,245.9,143.8,247.2z"/>
<g>
	<path class="st1" d="M356.4,331.7c0,53.4-53,67.4-106.4,67.4s-113.2-14.4-113.2-67.9s59.2-112.6,112.6-112.6
		S356.4,278.2,356.4,331.7z"/>
</g>
<path class="st2" d="M457.4,401.9"/>
<path class="st2" d="M42.6,401.9"/>
<g>
	<path class="st1" d="M303,197.4c0,29.5-23.9,53.4-53.4,53.4c-24.2,0-44.7-16.1-51.2-38.2c-1.4-4.8-2.2-9.9-2.2-15.2
		c0-29.5,23.9-53.4,53.4-53.4S303,167.9,303,197.4z"/>
</g>
<circle class="st3" cx="228.4" cy="176.4" r="6.6"/>
<circle class="st3" cx="266.5" cy="176.4" r="6.6"/>
<path class="st4" d="M197.6,209.3c6.3-0.1,30,5.4,40.8,6.1c9.6,0.6,17.4,1.6,31.5,0.4c7.2-0.6,27.2-8,32.7-10.9
	c1.6-0.8-0.8,15.8-0.3,20c0.4,3.7,0.5,5.3,1.6,6.8c1.3,1.6,1,1.2,0.8,3.2c-0.9,7.2-18,11.6-25.1,12c-9.3,0.5-30.7,1.2-33.2,1
	c-2.6-0.2-54.9-8.3-51.5-13.3c3.7-5.4,4.7-6.9,4.6-10C199.1,214.1,197.4,209.3,197.6,209.3z"/>
<path class="st0" d="M380.1,230l-63.2,46.6c-2.4,1.8-2.9,5.1-1.1,7.5l1.3,1.7c1.8,2.4,5.1,2.9,7.5,1.1l63.2-46.6
	c2.4-1.8,2.9-5.1,1.1-7.5l-1.3-1.7C385.8,228.8,382.4,228.3,380.1,230z"/>
<path class="st0" d="M243.7,186.1c-1.8-1.9-11.4-6.2-11.7-6.3c-6.5-2.5-13-4.3-12.7-3.8c4.7,9.8,10.5,17.8,15.8,20.5
	c3,1.5,8.6,0.1,9.6-2.6C245.7,191.2,245.6,188.1,243.7,186.1z"/>
<path class="st4" d="M265.7,247.4c0,0,5.4,23.1,6.3,30.9c0.6,5.3,0.4,14.8,0.6,21.2c0.2,4.9-1.3,9.9-1.7,19.7c0,1.1,2.9-2.5,4-2.1
	c1.4,0.4,1.4,4.5,2.8,5c1.5,0.6,3.8-3.4,5.4-3.4c1.2,0,2.1,3.2,3.2,3.4c1.7,0.2,3.4-4.6,5.2-4.7c1.7-0.2,3.1,4.7,4.7,4.7
	c1.7,0,2.4-5,4-5.7c0.7-0.3,2.9,1.8,2.9,1.1c-0.6-10.2-2.5-23-3.1-30.7c-0.3-4.5-1.3-13.7-1.8-18.2c-0.4-3.9-2.8-15.6-2.8-15.6
	l-3.5-8.9L265.7,247.4z"/>
<path class="st5" d="M315.1,90.1l-3.4,5.9l-5.9-3.4c-2-1.2-4.6-0.5-5.8,1.6c-1.2,2-0.5,4.6,1.6,5.8l5.9,3.4l-3.4,5.9
	c-1.2,2-0.5,4.6,1.6,5.8c2,1.2,4.6,0.5,5.8-1.6l3.4-5.9l5.9,3.4c2,1.2,4.6,0.5,5.8-1.6c1.2-2,0.5-4.6-1.6-5.8l-5.9-3.4l3.4-5.9
	c1.2-2,0.5-4.6-1.6-5.8C318.9,87.3,316.3,88,315.1,90.1z"/>
<path class="st5" d="M122.4,185.4l-3.4,5.9l-5.9-3.4c-2-1.2-4.6-0.5-5.8,1.6c-1.2,2-0.5,4.6,1.6,5.8l5.9,3.4l-3.4,5.9
	c-1.2,2-0.5,4.6,1.6,5.8c2,1.2,4.6,0.5,5.8-1.6l3.4-5.9l5.9,3.4c2,1.2,4.6,0.5,5.8-1.6c1.2-2,0.5-4.6-1.6-5.8l-5.9-3.4l3.4-5.9
	c1.2-2,0.5-4.6-1.6-5.8C126.1,182.7,123.5,183.4,122.4,185.4z"/>
<path class="st5" d="M396,303.6l-3.4,5.9l-5.9-3.4c-2-1.2-4.6-0.5-5.8,1.6c-1.2,2-0.5,4.6,1.6,5.8l5.9,3.4l-3.4,5.9
	c-1.2,2-0.5,4.6,1.6,5.8c2,1.2,4.6,0.5,5.8-1.6l3.4-5.9l5.9,3.4c2,1.2,4.6,0.5,5.8-1.6c1.2-2,0.5-4.6-1.6-5.8l-5.9-3.4l3.4-5.9
	c1.2-2,0.5-4.6-1.6-5.8C399.8,300.9,397.2,301.6,396,303.6z"/>
<circle class="st5" cx="186.1" cy="101.7" r="8.5"/>
<circle class="st5" cx="350.5" cy="176.4" r="8.5"/>
<circle class="st5" cx="186.1" cy="316.5" r="8.5"/>
</svg>
