<?xml version="1.0" encoding="utf-8"?>
<!-- Generator: Adobe Illustrator 26.0.3, SVG Export Plug-In . SVG Version: 6.00 Build 0)  -->
<svg version="1.1" id="图层_1" xmlns="http://www.w3.org/2000/svg" xmlns:xlink="http://www.w3.org/1999/xlink" x="0px" y="0px"
	 viewBox="0 0 500 500" style="enable-background:new 0 0 500 500;" xml:space="preserve">
<style type="text/css">
	.st0{fill:url(#SVGID_1_);}
	.st1{fill:url(#SVGID_00000103982645167335953690000005967565410066477218_);}
	.st2{fill:#FFE67B;}
	.st3{opacity:0.5;fill:#CCCCCC;}
</style>
<linearGradient id="SVGID_1_" gradientUnits="userSpaceOnUse" x1="158.0824" y1="343.9177" x2="341.9176" y2="160.0823" gradientTransform="matrix(1 0 0 -1 0 502)">
	<stop  offset="0" style="stop-color:#F9E00B"/>
	<stop  offset="1" style="stop-color:#FFC900"/>
</linearGradient>
<polygon class="st0" points="73,256.8 243.2,73 427,243.2 256.8,427 "/>
<linearGradient id="SVGID_00000075149128828779132570000001410913680272479919_" gradientUnits="userSpaceOnUse" x1="167.0698" y1="334.93" x2="353.1088" y2="148.8914" gradientTransform="matrix(1 0 0 -1 0 502)">
	<stop  offset="0" style="stop-color:#F9E00B"/>
	<stop  offset="1" style="stop-color:#FFC900"/>
</linearGradient>
<rect x="124.8" y="124.8" style="fill:url(#SVGID_00000075149128828779132570000001410913680272479919_);" width="250.4" height="250.4"/>
<circle class="st2" cx="250" cy="250" r="125.5"/>
<path class="st3" d="M248.4,285H49.7c-20.3,0-36.8-16.5-36.8-36.8v-15.1c0-20.3,16.5-36.8,36.8-36.8h198.7
	c20.3,0,36.8,16.5,36.8,36.8v15.1C285.2,268.5,268.8,285,248.4,285z"/>
<path class="st3" d="M420.8,387.2H257.9c-20.3,0-36.8-16.5-36.8-36.8v0c0-20.3,16.5-36.8,36.8-36.8h162.9
	c20.3,0,36.8,16.5,36.8,36.8v0C457.6,370.7,441.1,387.2,420.8,387.2z"/>
<path class="st3" d="M390.2,169.6h-94.3c-20.3,0-36.8-16.5-36.8-36.8v0c0-20.3,16.5-36.8,36.8-36.8h94.3c20.3,0,36.8,16.5,36.8,36.8
	v0C427,153.1,410.5,169.6,390.2,169.6z"/>
</svg>
