<?xml version="1.0" encoding="utf-8"?>
<!-- Generator: Adobe Illustrator 26.0.3, SVG Export Plug-In . SVG Version: 6.00 Build 0)  -->
<svg version="1.1" id="图层_1" xmlns="http://www.w3.org/2000/svg" xmlns:xlink="http://www.w3.org/1999/xlink" x="0px" y="0px"
	 viewBox="0 0 500 500" style="enable-background:new 0 0 500 500;" xml:space="preserve">
<style type="text/css">
	.st0{fill:#CCCCCC;}
	.st1{fill:#999999;}
	.st2{fill:#E6E6E6;}
	.st3{fill:#808080;}
	.st4{fill:#B3B3B3;}
	.st5{fill:#666666;}
</style>
<g>
	<g>
		<g>
			<circle class="st0" cx="302.8" cy="153.5" r="26.7"/>
		</g>
		<g>
			<circle class="st1" cx="261.6" cy="215.4" r="17.9"/>
		</g>
		<g>
			<circle class="st1" cx="302.9" cy="308.5" r="12.1"/>
		</g>
		<g>
			<circle class="st0" cx="198" cy="134.3" r="45.9"/>
		</g>
		<g>
			<circle class="st2" cx="169.6" cy="236.1" r="34.1"/>
		</g>
		<g>
			<circle class="st2" cx="323.8" cy="241.8" r="26.7"/>
		</g>
		<g>
			<circle class="st3" cx="364.3" cy="306.8" r="14.1"/>
		</g>
		<g>
			<circle class="st4" cx="238" cy="293.1" r="17.9"/>
		</g>
		<g>
			<circle class="st0" cx="271.7" cy="254.3" r="10.4"/>
		</g>
		<g>
			<circle class="st4" cx="135.7" cy="320.6" r="14.1"/>
		</g>
		<g>
			<circle class="st5" cx="183.1" cy="293" r="8.4"/>
		</g>
	</g>
	<path class="st0" d="M378.5,372.6h-257c-5.2,0-9.5-4.3-9.5-9.5l0,0c0-5.2,4.3-9.5,9.5-9.5h257c5.2,0,9.5,4.3,9.5,9.5l0,0
		C388,368.4,383.7,372.6,378.5,372.6z"/>
	<path class="st0" d="M378.5,411.6h-257c-5.2,0-9.5-4.3-9.5-9.5l0,0c0-5.2,4.3-9.5,9.5-9.5h257c5.2,0,9.5,4.3,9.5,9.5l0,0
		C388,407.4,383.7,411.6,378.5,411.6z"/>
</g>
</svg>
