<?xml version="1.0" encoding="utf-8"?>
<!-- Generator: Adobe Illustrator 26.0.3, SVG Export Plug-In . SVG Version: 6.00 Build 0)  -->
<svg version="1.1" id="图层_1" xmlns="http://www.w3.org/2000/svg" xmlns:xlink="http://www.w3.org/1999/xlink" x="0px" y="0px"
	 viewBox="0 0 500 500" style="enable-background:new 0 0 500 500;" xml:space="preserve">
<style type="text/css">
	.st0{fill:url(#SVGID_1_);}
	.st1{fill:url(#SVGID_00000106130437088009592810000003551986348594391179_);}
	.st2{fill:#E6E6E6;}
	.st3{fill:url(#SVGID_00000000200661460383615140000005034183989213624704_);}
	.st4{fill:url(#SVGID_00000163046973141416232040000002651010693857327012_);}
	.st5{fill:url(#SVGID_00000085967878171363424670000010689755710315573376_);}
	.st6{fill:url(#SVGID_00000068658730856680848890000017603826415908340914_);}
	.st7{fill:url(#SVGID_00000151536607866450815240000009950461267347504563_);}
	.st8{fill:url(#SVGID_00000034786882812954075620000012953970345631848360_);}
	.st9{fill:url(#SVGID_00000031921511465557712400000018004671676347739281_);}
	.st10{fill:url(#SVGID_00000082367793687571094680000010364500653786877833_);}
	.st11{fill:url(#SVGID_00000084525522334588041080000012697678476981459098_);}
	.st12{fill:url(#SVGID_00000083793681217853983720000014758818230200274834_);}
	.st13{fill:url(#SVGID_00000150799654946977197060000016784606622833374134_);}
	.st14{fill:url(#SVGID_00000020361293247400142440000003968110093875439760_);}
	.st15{fill:url(#SVGID_00000016793022903890520480000013646703937784166329_);}
	.st16{fill:url(#SVGID_00000085236160136780961150000012567942923884884608_);}
	.st17{fill:url(#SVGID_00000049916965819641580980000000560833858894815631_);}
	.st18{fill:url(#SVGID_00000013191721155487793440000008046075848651125656_);}
	.st19{fill:url(#SVGID_00000025426639431307544170000007134596544728073126_);}
	.st20{fill:url(#SVGID_00000067928829474074595300000007482385933504761520_);}
	.st21{fill:url(#SVGID_00000043451670798358318040000013496045462134847906_);}
	.st22{fill:url(#SVGID_00000147901495343737034880000012057029984216128128_);}
	.st23{fill:url(#SVGID_00000072966625336642060200000002952906303280210834_);}
	.st24{fill:url(#SVGID_00000127730827366055159270000014408816780139274420_);}
	.st25{fill:url(#SVGID_00000042725627272140326110000010605216019248820888_);}
	.st26{fill:url(#SVGID_00000168801015034130884970000001940220560462442373_);}
	.st27{fill:url(#SVGID_00000060025416095067975360000012319276351115673755_);}
	.st28{fill:url(#SVGID_00000140692526683375721120000016382859787463995062_);}
	.st29{fill:url(#SVGID_00000085935317824841709350000011742699777279058098_);}
	.st30{fill:url(#SVGID_00000106138065554676564270000015448630069433471162_);}
	.st31{fill:url(#SVGID_00000010310741178609380760000010144938045239880888_);}
	.st32{fill:url(#SVGID_00000067918998238999886170000005154019821157108154_);}
	.st33{fill:url(#SVGID_00000011000653409998862900000006009700284566145691_);}
	.st34{fill:url(#SVGID_00000155132962534586616970000009647166543135417279_);}
	.st35{fill:url(#SVGID_00000152231838296292176620000014290349271052737978_);}
	.st36{fill:url(#SVGID_00000157298173896319050930000018002024691945158076_);}
	.st37{fill:url(#SVGID_00000066507641129981168560000016650216666051693451_);}
	.st38{fill:url(#SVGID_00000007422126881870556410000011489164934777706634_);}
	.st39{fill:url(#SVGID_00000052098017824719241450000008361462431992418726_);}
	.st40{fill:url(#SVGID_00000098207113931629775500000004916899666633619357_);}
	.st41{fill:url(#SVGID_00000018931332339045338030000003700179394669743531_);}
</style>
<g>
	<linearGradient id="SVGID_1_" gradientUnits="userSpaceOnUse" x1="193.6159" y1="49.7624" x2="419.8135" y2="304.2187">
		<stop  offset="0.2459" style="stop-color:#FAFAFA"/>
		<stop  offset="0.4701" style="stop-color:#D2D2D2"/>
		<stop  offset="0.6556" style="stop-color:#B9B9B9"/>
		<stop  offset="0.7664" style="stop-color:#AFAFAF"/>
	</linearGradient>
	<path class="st0" d="M388.3,162.9c-0.1,0-0.3,0-0.4,0c-4.1-44.2-41.2-78.8-86.5-78.8c-48,0-86.9,38.9-86.9,86.9
		c0,46.4,36.4,84.3,82.2,86.8v0.1h91.6c26.2,0,47.5-21.3,47.5-47.5S414.5,162.9,388.3,162.9z"/>
	
		<linearGradient id="SVGID_00000079463500975873307950000016918777278926299310_" gradientUnits="userSpaceOnUse" x1="86.2436" y1="159.5672" x2="348.4125" y2="330.3974">
		<stop  offset="0.1491" style="stop-color:#FAFAFA"/>
		<stop  offset="0.818" style="stop-color:#CBCBCB"/>
	</linearGradient>
	<path style="fill:url(#SVGID_00000079463500975873307950000016918777278926299310_);" d="M334.6,187.2
		c-14-47.8-58.1-82.7-110.5-82.7c-62.8,0-113.9,50.4-115.1,112.9c-29.2,3.4-51.9,28.3-51.9,58.5c0,32.5,26.4,58.9,58.9,58.9h209.8
		c40.9,0,74-33.1,74-74C399.8,222.8,371.3,191.5,334.6,187.2z"/>
</g>
<path class="st2" d="M189.7,419L189.7,419c-4-1.8-5.8-6.4-4-10.4l23.4-53c1.8-4,6.4-5.8,10.4-4l0,0c4,1.8,5.8,6.4,4,10.4l-23.4,53
	C198.4,419,193.7,420.8,189.7,419z"/>
<g>
	<g>
		
			<linearGradient id="SVGID_00000083780600746663806660000001500059525634440073_" gradientUnits="userSpaceOnUse" x1="116.6589" y1="321.7073" x2="116.4811" y2="336.1519" gradientTransform="matrix(0.6483 0.7613 -0.6339 0.5398 268.9839 92.8411)">
			<stop  offset="0" style="stop-color:#FFFFFF"/>
			<stop  offset="0.2015" style="stop-color:#FFFFFF"/>
			<stop  offset="0.8512" style="stop-color:#26B2EF"/>
		</linearGradient>
		<path style="fill:url(#SVGID_00000083780600746663806660000001500059525634440073_);" d="M129.1,365L129.1,365
			c-0.9-1.1-0.8-2.8,0.3-3.7l5.6-4.8c1.1-0.9,2.8-0.8,3.7,0.3l0,0c0.9,1.1,0.8,2.8-0.3,3.7l-5.6,4.8
			C131.7,366.3,130,366.1,129.1,365z"/>
		
			<linearGradient id="SVGID_00000134238504526627590520000011529915822955120542_" gradientUnits="userSpaceOnUse" x1="102.7158" y1="341.3738" x2="102.5379" y2="355.8184" gradientTransform="matrix(-0.6483 0.7613 0.6339 0.5398 -32.3852 92.8411)">
			<stop  offset="0" style="stop-color:#FFFFFF"/>
			<stop  offset="0.2015" style="stop-color:#FFFFFF"/>
			<stop  offset="0.8512" style="stop-color:#26B2EF"/>
		</linearGradient>
		<path style="fill:url(#SVGID_00000134238504526627590520000011529915822955120542_);" d="M129,365L129,365
			c0.9-1.1,0.8-2.8-0.3-3.7l-5.6-4.8c-1.1-0.9-2.8-0.8-3.7,0.3l0,0c-0.9,1.1-0.8,2.8,0.3,3.7l5.6,4.8
			C126.4,366.3,128.1,366.1,129,365z"/>
	</g>
	<g>
		
			<linearGradient id="SVGID_00000096022766247551001930000017844653591266798486_" gradientUnits="userSpaceOnUse" x1="134.4904" y1="384.4322" x2="134.3126" y2="398.8767" gradientTransform="matrix(0.9835 -0.1808 0.1505 0.8188 -81.2683 69.7654)">
			<stop  offset="0" style="stop-color:#FFFFFF"/>
			<stop  offset="0.2015" style="stop-color:#FFFFFF"/>
			<stop  offset="0.8512" style="stop-color:#26B2EF"/>
		</linearGradient>
		<path style="fill:url(#SVGID_00000096022766247551001930000017844653591266798486_);" d="M111.5,375.2L111.5,375.2
			c-1.4,0.3-2.8-0.7-3.1-2.1l-1.3-7.2c-0.3-1.4,0.7-2.8,2.1-3.1h0c1.4-0.3,2.8,0.7,3.1,2.1l1.3,7.2
			C113.9,373.5,112.9,374.9,111.5,375.2z"/>
		
			<linearGradient id="SVGID_00000152975040627972102380000015779129426384225466_" gradientUnits="userSpaceOnUse" x1="157.1115" y1="352.5258" x2="156.9337" y2="366.9703" gradientTransform="matrix(0.3352 0.9422 0.7844 -0.2791 -231.9529 330.7587)">
			<stop  offset="0" style="stop-color:#FFFFFF"/>
			<stop  offset="0.2015" style="stop-color:#FFFFFF"/>
			<stop  offset="0.8512" style="stop-color:#26B2EF"/>
		</linearGradient>
		<path style="fill:url(#SVGID_00000152975040627972102380000015779129426384225466_);" d="M111.5,375.2L111.5,375.2
			c-0.5-1.4-2-2.1-3.4-1.6l-6.9,2.5c-1.4,0.5-2.1,2-1.6,3.4v0c0.5,1.4,2,2.1,3.4,1.6l6.9-2.5C111.2,378.1,111.9,376.6,111.5,375.2z"
			/>
	</g>
	<g>
		
			<linearGradient id="SVGID_00000163759134944984536230000015995421318892493975_" gradientUnits="userSpaceOnUse" x1="85.2242" y1="471.1366" x2="85.0464" y2="485.5811" gradientTransform="matrix(0.3352 -0.9422 0.7844 0.2791 -300.896 339.0663)">
			<stop  offset="0" style="stop-color:#FFFFFF"/>
			<stop  offset="0.2015" style="stop-color:#FFFFFF"/>
			<stop  offset="0.8512" style="stop-color:#26B2EF"/>
		</linearGradient>
		<path style="fill:url(#SVGID_00000163759134944984536230000015995421318892493975_);" d="M111.5,395.4L111.5,395.4
			c-0.5,1.4-2,2.1-3.4,1.6l-6.9-2.5c-1.4-0.5-2.1-2-1.6-3.4l0,0c0.5-1.4,2-2.1,3.4-1.6l6.9,2.5C111.2,392.5,111.9,394.1,111.5,395.4
			z"/>
		
			<linearGradient id="SVGID_00000054980164828794609370000014569321206063790501_" gradientUnits="userSpaceOnUse" x1="220.5276" y1="280.2944" x2="220.3498" y2="294.739" gradientTransform="matrix(0.9835 0.1808 0.1505 -0.8188 -150.2115 600.0596)">
			<stop  offset="0" style="stop-color:#FFFFFF"/>
			<stop  offset="0.2015" style="stop-color:#FFFFFF"/>
			<stop  offset="0.8512" style="stop-color:#26B2EF"/>
		</linearGradient>
		<path style="fill:url(#SVGID_00000054980164828794609370000014569321206063790501_);" d="M111.5,395.5L111.5,395.5
			c-1.4-0.3-2.8,0.7-3.1,2.1l-1.3,7.2c-0.3,1.4,0.7,2.8,2.1,3.1h0c1.4,0.3,2.8-0.7,3.1-2.1l1.3-7.2
			C113.9,397.1,112.9,395.8,111.5,395.5z"/>
	</g>
	<g>
		
			<linearGradient id="SVGID_00000034774528197353250330000000701330939743842489_" gradientUnits="userSpaceOnUse" x1="-34.0116" y1="347.2253" x2="-34.1894" y2="361.6699" gradientTransform="matrix(-0.9835 -0.1808 -0.1505 0.8188 168.0472 69.7654)">
			<stop  offset="0" style="stop-color:#FFFFFF"/>
			<stop  offset="0.2015" style="stop-color:#FFFFFF"/>
			<stop  offset="0.8512" style="stop-color:#26B2EF"/>
		</linearGradient>
		<path style="fill:url(#SVGID_00000034774528197353250330000000701330939743842489_);" d="M146.6,375.2L146.6,375.2
			c1.4,0.3,2.8-0.7,3.1-2.1l1.3-7.2c0.3-1.4-0.7-2.8-2.1-3.1h0c-1.4-0.3-2.8,0.7-3.1,2.1l-1.3,7.2
			C144.2,373.5,145.2,374.9,146.6,375.2z"/>
		
			<linearGradient id="SVGID_00000123430222576812243640000011051610767898547884_" gradientUnits="userSpaceOnUse" x1="99.6872" y1="158.6466" x2="99.5093" y2="173.0911" gradientTransform="matrix(-0.3352 0.9422 -0.7844 -0.2791 318.7318 330.7587)">
			<stop  offset="0" style="stop-color:#FFFFFF"/>
			<stop  offset="0.2015" style="stop-color:#FFFFFF"/>
			<stop  offset="0.8512" style="stop-color:#26B2EF"/>
		</linearGradient>
		<path style="fill:url(#SVGID_00000123430222576812243640000011051610767898547884_);" d="M146.6,375.2L146.6,375.2
			c0.5-1.4,2-2.1,3.4-1.6l6.9,2.5c1.4,0.5,2.1,2,1.6,3.4v0c-0.5,1.4-2,2.1-3.4,1.6l-6.9-2.5C146.9,378.1,146.2,376.6,146.6,375.2z"
			/>
	</g>
	<g>
		
			<linearGradient id="SVGID_00000120542693123967390100000006408865782563311544_" gradientUnits="userSpaceOnUse" x1="27.7999" y1="277.2574" x2="27.6221" y2="291.7019" gradientTransform="matrix(-0.3352 -0.9422 -0.7844 0.2791 387.6749 339.0663)">
			<stop  offset="0" style="stop-color:#FFFFFF"/>
			<stop  offset="0.2015" style="stop-color:#FFFFFF"/>
			<stop  offset="0.8512" style="stop-color:#26B2EF"/>
		</linearGradient>
		<path style="fill:url(#SVGID_00000120542693123967390100000006408865782563311544_);" d="M146.6,395.4L146.6,395.4
			c0.5,1.4,2,2.1,3.4,1.6l6.9-2.5c1.4-0.5,2.1-2,1.6-3.4l0,0c-0.5-1.4-2-2.1-3.4-1.6l-6.9,2.5C146.9,392.5,146.2,394.1,146.6,395.4z
			"/>
		
			<linearGradient id="SVGID_00000069398757684254439440000002666466989378208670_" gradientUnits="userSpaceOnUse" x1="52.0256" y1="243.0876" x2="51.8478" y2="257.5321" gradientTransform="matrix(-0.9835 0.1808 -0.1505 -0.8188 236.9904 600.0596)">
			<stop  offset="0" style="stop-color:#FFFFFF"/>
			<stop  offset="0.2015" style="stop-color:#FFFFFF"/>
			<stop  offset="0.8512" style="stop-color:#26B2EF"/>
		</linearGradient>
		<path style="fill:url(#SVGID_00000069398757684254439440000002666466989378208670_);" d="M146.6,395.5L146.6,395.5
			c1.4-0.3,2.8,0.7,3.1,2.1l1.3,7.2c0.3,1.4-0.7,2.8-2.1,3.1h0c-1.4,0.3-2.8-0.7-3.1-2.1l-1.3-7.2
			C144.2,397.1,145.2,395.8,146.6,395.5z"/>
	</g>
	<g>
		
			<linearGradient id="SVGID_00000153679284229823147790000000880551840357357733_" gradientUnits="userSpaceOnUse" x1="-11.3853" y1="517.2297" x2="-11.5631" y2="531.6743" gradientTransform="matrix(-0.6483 -0.7613 0.6339 -0.5398 -217.8308 685.8648)">
			<stop  offset="0" style="stop-color:#FFFFFF"/>
			<stop  offset="0.2015" style="stop-color:#FFFFFF"/>
			<stop  offset="0.8512" style="stop-color:#26B2EF"/>
		</linearGradient>
		<path style="fill:url(#SVGID_00000153679284229823147790000000880551840357357733_);" d="M129,405.6L129,405.6
			c0.9,1.1,0.8,2.8-0.3,3.7l-5.6,4.8c-1.1,0.9-2.8,0.8-3.7-0.3l0,0c-0.9-1.1-0.8-2.8,0.3-3.7l5.6-4.8
			C126.4,404.4,128.1,404.5,129,405.6z"/>
		
			<linearGradient id="SVGID_00000115506781678614024860000013650299096506471869_" gradientUnits="userSpaceOnUse" x1="243.0225" y1="158.394" x2="242.8447" y2="172.8385" gradientTransform="matrix(0.6483 -0.7613 -0.6339 -0.5398 83.5383 685.8648)">
			<stop  offset="0" style="stop-color:#FFFFFF"/>
			<stop  offset="0.2015" style="stop-color:#FFFFFF"/>
			<stop  offset="0.8512" style="stop-color:#26B2EF"/>
		</linearGradient>
		<path style="fill:url(#SVGID_00000115506781678614024860000013650299096506471869_);" d="M129.1,405.6L129.1,405.6
			c-0.9,1.1-0.8,2.8,0.3,3.7l5.6,4.8c1.1,0.9,2.8,0.8,3.7-0.3l0,0c0.9-1.1,0.8-2.8-0.3-3.7l-5.6-4.8
			C131.7,404.4,130,404.5,129.1,405.6z"/>
	</g>
	
		<radialGradient id="SVGID_00000098938491163988797290000017181839131638685857_" cx="129.0523" cy="385.3264" r="39.3553" gradientUnits="userSpaceOnUse">
		<stop  offset="0.2479" style="stop-color:#26B2EF"/>
		<stop  offset="0.8306" style="stop-color:#FFFFFF"/>
	</radialGradient>
	<path style="fill:url(#SVGID_00000098938491163988797290000017181839131638685857_);" d="M155.1,396.8l-19.9-11.5l19.9-11.5
		c1.5-0.8,2-2.7,1.1-4.2h0c-0.8-1.5-2.7-2-4.2-1.1l-20,11.5v-23c0-1.7-1.4-3.1-3.1-3.1c-1.7,0-3.1,1.4-3.1,3.1v23l-20-11.5
		c-1.5-0.8-3.3-0.3-4.2,1.1c-0.8,1.5-0.3,3.3,1.1,4.2l19.9,11.5L103,396.8c-1.5,0.8-2,2.7-1.1,4.2s2.7,2,4.2,1.1l20-11.5v23
		c0,1.7,1.4,3.1,3.1,3.1c1.7,0,3.1-1.4,3.1-3.1v-23l20,11.5c1.5,0.8,3.3,0.3,4.2-1.1h0C157.1,399.5,156.6,397.7,155.1,396.8z"/>
</g>
<g>
	<g>
		
			<linearGradient id="SVGID_00000016796779483335120170000015511326223397984130_" gradientUnits="userSpaceOnUse" x1="216.7034" y1="180.5972" x2="216.5255" y2="195.0417" gradientTransform="matrix(0.6483 0.7613 -0.6339 0.5398 268.9839 92.8411)">
			<stop  offset="0" style="stop-color:#FFFFFF"/>
			<stop  offset="0.2015" style="stop-color:#FFFFFF"/>
			<stop  offset="0.8512" style="stop-color:#26B2EF"/>
		</linearGradient>
		<path style="fill:url(#SVGID_00000016796779483335120170000015511326223397984130_);" d="M283.4,365L283.4,365
			c-0.9-1.1-0.8-2.8,0.3-3.7l5.6-4.8c1.1-0.9,2.8-0.8,3.7,0.3l0,0c0.9,1.1,0.8,2.8-0.3,3.7l-5.6,4.8
			C286,366.3,284.3,366.1,283.4,365z"/>
		
			<linearGradient id="SVGID_00000154395442238770072170000013263100885750255240_" gradientUnits="userSpaceOnUse" x1="2.6713" y1="482.484" x2="2.4935" y2="496.9285" gradientTransform="matrix(-0.6483 0.7613 0.6339 0.5398 -32.3852 92.8411)">
			<stop  offset="0" style="stop-color:#FFFFFF"/>
			<stop  offset="0.2015" style="stop-color:#FFFFFF"/>
			<stop  offset="0.8512" style="stop-color:#26B2EF"/>
		</linearGradient>
		<path style="fill:url(#SVGID_00000154395442238770072170000013263100885750255240_);" d="M283.3,365L283.3,365
			c0.9-1.1,0.8-2.8-0.3-3.7l-5.6-4.8c-1.1-0.9-2.8-0.8-3.7,0.3l0,0c-0.9,1.1-0.8,2.8,0.3,3.7l5.6,4.8
			C280.7,366.3,282.4,366.1,283.3,365z"/>
	</g>
	<g>
		
			<linearGradient id="SVGID_00000070102513515906364790000010142997727229064098_" gradientUnits="userSpaceOnUse" x1="286.2552" y1="417.9433" x2="286.0774" y2="432.3878" gradientTransform="matrix(0.9835 -0.1808 0.1505 0.8188 -81.2683 69.7654)">
			<stop  offset="0" style="stop-color:#FFFFFF"/>
			<stop  offset="0.2015" style="stop-color:#FFFFFF"/>
			<stop  offset="0.8512" style="stop-color:#26B2EF"/>
		</linearGradient>
		<path style="fill:url(#SVGID_00000070102513515906364790000010142997727229064098_);" d="M265.8,375.2L265.8,375.2
			c-1.4,0.3-2.8-0.7-3.1-2.1l-1.3-7.2c-0.3-1.4,0.7-2.8,2.1-3.1l0,0c1.4-0.3,2.8,0.7,3.1,2.1l1.3,7.2
			C268.2,373.5,267.2,374.9,265.8,375.2z"/>
		
			<linearGradient id="SVGID_00000098193174877022003210000011653056095467324847_" gradientUnits="userSpaceOnUse" x1="208.8318" y1="527.147" x2="208.654" y2="541.5916" gradientTransform="matrix(0.3352 0.9422 0.7844 -0.2791 -231.9529 330.7587)">
			<stop  offset="0" style="stop-color:#FFFFFF"/>
			<stop  offset="0.2015" style="stop-color:#FFFFFF"/>
			<stop  offset="0.8512" style="stop-color:#26B2EF"/>
		</linearGradient>
		<path style="fill:url(#SVGID_00000098193174877022003210000011653056095467324847_);" d="M265.8,375.2L265.8,375.2
			c-0.5-1.4-2-2.1-3.4-1.6l-6.9,2.5c-1.4,0.5-2.1,2-1.6,3.4v0c0.5,1.4,2,2.1,3.4,1.6l6.9-2.5C265.5,378.1,266.3,376.6,265.8,375.2z"
			/>
	</g>
	<g>
		
			<linearGradient id="SVGID_00000096742466519636047050000004501793057292785550_" gradientUnits="userSpaceOnUse" x1="136.9445" y1="645.7579" x2="136.7667" y2="660.2024" gradientTransform="matrix(0.3352 -0.9422 0.7844 0.2791 -300.896 339.0663)">
			<stop  offset="0" style="stop-color:#FFFFFF"/>
			<stop  offset="0.2015" style="stop-color:#FFFFFF"/>
			<stop  offset="0.8512" style="stop-color:#26B2EF"/>
		</linearGradient>
		<path style="fill:url(#SVGID_00000096742466519636047050000004501793057292785550_);" d="M265.8,395.4L265.8,395.4
			c-0.5,1.4-2,2.1-3.4,1.6l-6.9-2.5c-1.4-0.5-2.1-2-1.6-3.4l0,0c0.5-1.4,2-2.1,3.4-1.6l6.9,2.5C265.5,392.5,266.3,394.1,265.8,395.4
			z"/>
		
			<linearGradient id="SVGID_00000116233263833444940070000016917338368272233107_" gradientUnits="userSpaceOnUse" x1="372.2924" y1="313.8056" x2="372.1146" y2="328.2501" gradientTransform="matrix(0.9835 0.1808 0.1505 -0.8188 -150.2115 600.0596)">
			<stop  offset="0" style="stop-color:#FFFFFF"/>
			<stop  offset="0.2015" style="stop-color:#FFFFFF"/>
			<stop  offset="0.8512" style="stop-color:#26B2EF"/>
		</linearGradient>
		<path style="fill:url(#SVGID_00000116233263833444940070000016917338368272233107_);" d="M265.8,395.5L265.8,395.5
			c-1.4-0.3-2.8,0.7-3.1,2.1l-1.3,7.2c-0.3,1.4,0.7,2.8,2.1,3.1l0,0c1.4,0.3,2.8-0.7,3.1-2.1l1.3-7.2
			C268.2,397.1,267.2,395.8,265.8,395.5z"/>
	</g>
	<g>
		
			<linearGradient id="SVGID_00000002353439453988146900000006741315096144613259_" gradientUnits="userSpaceOnUse" x1="-185.7764" y1="313.7142" x2="-185.9543" y2="328.1587" gradientTransform="matrix(-0.9835 -0.1808 -0.1505 0.8188 168.0472 69.7654)">
			<stop  offset="0" style="stop-color:#FFFFFF"/>
			<stop  offset="0.2015" style="stop-color:#FFFFFF"/>
			<stop  offset="0.8512" style="stop-color:#26B2EF"/>
		</linearGradient>
		<path style="fill:url(#SVGID_00000002353439453988146900000006741315096144613259_);" d="M300.9,375.2L300.9,375.2
			c1.4,0.3,2.8-0.7,3.1-2.1l1.3-7.2c0.3-1.4-0.7-2.8-2.1-3.1l0,0c-1.4-0.3-2.8,0.7-3.1,2.1l-1.3,7.2
			C298.5,373.5,299.5,374.9,300.9,375.2z"/>
		
			<linearGradient id="SVGID_00000178163703347838390290000010855158576049146279_" gradientUnits="userSpaceOnUse" x1="47.9668" y1="-15.9747" x2="47.789" y2="-1.5302" gradientTransform="matrix(-0.3352 0.9422 -0.7844 -0.2791 318.7318 330.7587)">
			<stop  offset="0" style="stop-color:#FFFFFF"/>
			<stop  offset="0.2015" style="stop-color:#FFFFFF"/>
			<stop  offset="0.8512" style="stop-color:#26B2EF"/>
		</linearGradient>
		<path style="fill:url(#SVGID_00000178163703347838390290000010855158576049146279_);" d="M301,375.2L301,375.2
			c0.5-1.4,2-2.1,3.4-1.6l6.9,2.5c1.4,0.5,2.1,2,1.6,3.4v0c-0.5,1.4-2,2.1-3.4,1.6l-6.9-2.5C301.2,378.1,300.5,376.6,301,375.2z"/>
	</g>
	<g>
		
			<linearGradient id="SVGID_00000145743528912234407340000006291877608861936574_" gradientUnits="userSpaceOnUse" x1="-23.9205" y1="102.6361" x2="-24.0983" y2="117.0806" gradientTransform="matrix(-0.3352 -0.9422 -0.7844 0.2791 387.6749 339.0663)">
			<stop  offset="0" style="stop-color:#FFFFFF"/>
			<stop  offset="0.2015" style="stop-color:#FFFFFF"/>
			<stop  offset="0.8512" style="stop-color:#26B2EF"/>
		</linearGradient>
		<path style="fill:url(#SVGID_00000145743528912234407340000006291877608861936574_);" d="M301,395.4L301,395.4
			c0.5,1.4,2,2.1,3.4,1.6l6.9-2.5c1.4-0.5,2.1-2,1.6-3.4l0,0c-0.5-1.4-2-2.1-3.4-1.6l-6.9,2.5C301.2,392.5,300.5,394.1,301,395.4z"
			/>
		
			<linearGradient id="SVGID_00000176743335981372950450000016180429005796834495_" gradientUnits="userSpaceOnUse" x1="-99.7392" y1="209.5765" x2="-99.917" y2="224.021" gradientTransform="matrix(-0.9835 0.1808 -0.1505 -0.8188 236.9904 600.0596)">
			<stop  offset="0" style="stop-color:#FFFFFF"/>
			<stop  offset="0.2015" style="stop-color:#FFFFFF"/>
			<stop  offset="0.8512" style="stop-color:#26B2EF"/>
		</linearGradient>
		<path style="fill:url(#SVGID_00000176743335981372950450000016180429005796834495_);" d="M300.9,395.5L300.9,395.5
			c1.4-0.3,2.8,0.7,3.1,2.1l1.3,7.2c0.3,1.4-0.7,2.8-2.1,3.1l0,0c-1.4,0.3-2.8-0.7-3.1-2.1l-1.3-7.2
			C298.5,397.1,299.5,395.8,300.9,395.5z"/>
	</g>
	<g>
		
			<linearGradient id="SVGID_00000152985845787327767650000016297649985290252701_" gradientUnits="userSpaceOnUse" x1="-111.4297" y1="658.3399" x2="-111.6075" y2="672.7844" gradientTransform="matrix(-0.6483 -0.7613 0.6339 -0.5398 -217.8308 685.8648)">
			<stop  offset="0" style="stop-color:#FFFFFF"/>
			<stop  offset="0.2015" style="stop-color:#FFFFFF"/>
			<stop  offset="0.8512" style="stop-color:#26B2EF"/>
		</linearGradient>
		<path style="fill:url(#SVGID_00000152985845787327767650000016297649985290252701_);" d="M283.3,405.6L283.3,405.6
			c0.9,1.1,0.8,2.8-0.3,3.7l-5.6,4.8c-1.1,0.9-2.8,0.8-3.7-0.3l0,0c-0.9-1.1-0.8-2.8,0.3-3.7l5.6-4.8
			C280.7,404.4,282.4,404.5,283.3,405.6z"/>
		
			<linearGradient id="SVGID_00000160184820926190133490000000180844685141134745_" gradientUnits="userSpaceOnUse" x1="343.0669" y1="17.2838" x2="342.8891" y2="31.7284" gradientTransform="matrix(0.6483 -0.7613 -0.6339 -0.5398 83.5383 685.8648)">
			<stop  offset="0" style="stop-color:#FFFFFF"/>
			<stop  offset="0.2015" style="stop-color:#FFFFFF"/>
			<stop  offset="0.8512" style="stop-color:#26B2EF"/>
		</linearGradient>
		<path style="fill:url(#SVGID_00000160184820926190133490000000180844685141134745_);" d="M283.4,405.6L283.4,405.6
			c-0.9,1.1-0.8,2.8,0.3,3.7l5.6,4.8c1.1,0.9,2.8,0.8,3.7-0.3l0,0c0.9-1.1,0.8-2.8-0.3-3.7l-5.6-4.8
			C286,404.4,284.3,404.5,283.4,405.6z"/>
	</g>
	
		<radialGradient id="SVGID_00000109731868047881592000000012060671013597086854_" cx="283.3603" cy="385.3264" r="39.3553" gradientUnits="userSpaceOnUse">
		<stop  offset="0.2479" style="stop-color:#26B2EF"/>
		<stop  offset="0.8306" style="stop-color:#FFFFFF"/>
	</radialGradient>
	<path style="fill:url(#SVGID_00000109731868047881592000000012060671013597086854_);" d="M309.4,396.8l-19.9-11.5l19.9-11.5
		c1.5-0.8,2-2.7,1.1-4.2h0c-0.8-1.5-2.7-2-4.2-1.1l-20,11.5v-23c0-1.7-1.4-3.1-3.1-3.1c-1.7,0-3.1,1.4-3.1,3.1v23l-20-11.5
		c-1.5-0.8-3.3-0.3-4.2,1.1c-0.8,1.5-0.3,3.3,1.1,4.2l19.9,11.5l-19.9,11.5c-1.5,0.8-2,2.7-1.1,4.2c0.8,1.5,2.7,2,4.2,1.1l20-11.5
		v23c0,1.7,1.4,3.1,3.1,3.1c1.7,0,3.1-1.4,3.1-3.1v-23l20,11.5c1.5,0.8,3.3,0.3,4.2-1.1h0C311.4,399.5,310.9,397.7,309.4,396.8z"/>
</g>
<g>
	<g>
		
			<linearGradient id="SVGID_00000011749375875169106280000013658359737315846784_" gradientUnits="userSpaceOnUse" x1="268.874" y1="107.0118" x2="268.6962" y2="121.4563" gradientTransform="matrix(0.6483 0.7613 -0.6339 0.5398 268.9839 92.8411)">
			<stop  offset="0" style="stop-color:#FFFFFF"/>
			<stop  offset="0.2015" style="stop-color:#FFFFFF"/>
			<stop  offset="0.8512" style="stop-color:#26B2EF"/>
		</linearGradient>
		<path style="fill:url(#SVGID_00000011749375875169106280000013658359737315846784_);" d="M363.9,365L363.9,365
			c-0.9-1.1-0.8-2.8,0.3-3.7l5.6-4.8c1.1-0.9,2.8-0.8,3.7,0.3l0,0c0.9,1.1,0.8,2.8-0.3,3.7l-5.6,4.8
			C366.5,366.3,364.8,366.1,363.9,365z"/>
		
			<linearGradient id="SVGID_00000163775816790310188270000003578253944374566811_" gradientUnits="userSpaceOnUse" x1="-49.4993" y1="556.0694" x2="-49.6772" y2="570.5139" gradientTransform="matrix(-0.6483 0.7613 0.6339 0.5398 -32.3852 92.8411)">
			<stop  offset="0" style="stop-color:#FFFFFF"/>
			<stop  offset="0.2015" style="stop-color:#FFFFFF"/>
			<stop  offset="0.8512" style="stop-color:#26B2EF"/>
		</linearGradient>
		<path style="fill:url(#SVGID_00000163775816790310188270000003578253944374566811_);" d="M363.8,365L363.8,365
			c0.9-1.1,0.8-2.8-0.3-3.7l-5.6-4.8c-1.1-0.9-2.8-0.8-3.7,0.3l0,0c-0.9,1.1-0.8,2.8,0.3,3.7l5.6,4.8
			C361.2,366.3,362.8,366.1,363.8,365z"/>
	</g>
	<g>
		
			<linearGradient id="SVGID_00000044879432473095241620000003949191231774081978_" gradientUnits="userSpaceOnUse" x1="365.3968" y1="435.4185" x2="365.2189" y2="449.863" gradientTransform="matrix(0.9835 -0.1808 0.1505 0.8188 -81.2683 69.7654)">
			<stop  offset="0" style="stop-color:#FFFFFF"/>
			<stop  offset="0.2015" style="stop-color:#FFFFFF"/>
			<stop  offset="0.8512" style="stop-color:#26B2EF"/>
		</linearGradient>
		<path style="fill:url(#SVGID_00000044879432473095241620000003949191231774081978_);" d="M346.3,375.2L346.3,375.2
			c-1.4,0.3-2.8-0.7-3.1-2.1l-1.3-7.2c-0.3-1.4,0.7-2.8,2.1-3.1l0,0c1.4-0.3,2.8,0.7,3.1,2.1l1.3,7.2
			C348.7,373.5,347.7,374.9,346.3,375.2z"/>
		
			<linearGradient id="SVGID_00000005267018021815464720000007856606755571761281_" gradientUnits="userSpaceOnUse" x1="235.8027" y1="618.2076" x2="235.6249" y2="632.6522" gradientTransform="matrix(0.3352 0.9422 0.7844 -0.2791 -231.9529 330.7587)">
			<stop  offset="0" style="stop-color:#FFFFFF"/>
			<stop  offset="0.2015" style="stop-color:#FFFFFF"/>
			<stop  offset="0.8512" style="stop-color:#26B2EF"/>
		</linearGradient>
		<path style="fill:url(#SVGID_00000005267018021815464720000007856606755571761281_);" d="M346.2,375.2L346.2,375.2
			c-0.5-1.4-2-2.1-3.4-1.6l-6.9,2.5c-1.4,0.5-2.1,2-1.6,3.4v0c0.5,1.4,2,2.1,3.4,1.6l6.9-2.5C346,378.1,346.7,376.6,346.2,375.2z"/>
	</g>
	<g>
		
			<linearGradient id="SVGID_00000168111407941071483480000007998464358051169205_" gradientUnits="userSpaceOnUse" x1="163.9154" y1="736.8184" x2="163.7376" y2="751.263" gradientTransform="matrix(0.3352 -0.9422 0.7844 0.2791 -300.896 339.0663)">
			<stop  offset="0" style="stop-color:#FFFFFF"/>
			<stop  offset="0.2015" style="stop-color:#FFFFFF"/>
			<stop  offset="0.8512" style="stop-color:#26B2EF"/>
		</linearGradient>
		<path style="fill:url(#SVGID_00000168111407941071483480000007998464358051169205_);" d="M346.2,395.4L346.2,395.4
			c-0.5,1.4-2,2.1-3.4,1.6l-6.9-2.5c-1.4-0.5-2.1-2-1.6-3.4l0,0c0.5-1.4,2-2.1,3.4-1.6l6.9,2.5C346,392.5,346.7,394.1,346.2,395.4z"
			/>
		
			<linearGradient id="SVGID_00000000213482395501928240000001717840284057542070_" gradientUnits="userSpaceOnUse" x1="451.434" y1="331.2808" x2="451.2562" y2="345.7253" gradientTransform="matrix(0.9835 0.1808 0.1505 -0.8188 -150.2115 600.0596)">
			<stop  offset="0" style="stop-color:#FFFFFF"/>
			<stop  offset="0.2015" style="stop-color:#FFFFFF"/>
			<stop  offset="0.8512" style="stop-color:#26B2EF"/>
		</linearGradient>
		<path style="fill:url(#SVGID_00000000213482395501928240000001717840284057542070_);" d="M346.3,395.5L346.3,395.5
			c-1.4-0.3-2.8,0.7-3.1,2.1l-1.3,7.2c-0.3,1.4,0.7,2.8,2.1,3.1l0,0c1.4,0.3,2.8-0.7,3.1-2.1l1.3-7.2
			C348.7,397.1,347.7,395.8,346.3,395.5z"/>
	</g>
	<g>
		
			<linearGradient id="SVGID_00000088099536009074157610000009510183815143081116_" gradientUnits="userSpaceOnUse" x1="-264.9179" y1="296.239" x2="-265.0958" y2="310.6835" gradientTransform="matrix(-0.9835 -0.1808 -0.1505 0.8188 168.0472 69.7654)">
			<stop  offset="0" style="stop-color:#FFFFFF"/>
			<stop  offset="0.2015" style="stop-color:#FFFFFF"/>
			<stop  offset="0.8512" style="stop-color:#26B2EF"/>
		</linearGradient>
		<path style="fill:url(#SVGID_00000088099536009074157610000009510183815143081116_);" d="M381.4,375.2L381.4,375.2
			c1.4,0.3,2.8-0.7,3.1-2.1l1.3-7.2c0.3-1.4-0.7-2.8-2.1-3.1l0,0c-1.4-0.3-2.8,0.7-3.1,2.1l-1.3,7.2
			C379,373.5,380,374.9,381.4,375.2z"/>
		
			<linearGradient id="SVGID_00000013892463131066277310000008407014606014273976_" gradientUnits="userSpaceOnUse" x1="20.9959" y1="-107.0353" x2="20.8181" y2="-92.5908" gradientTransform="matrix(-0.3352 0.9422 -0.7844 -0.2791 318.7318 330.7587)">
			<stop  offset="0" style="stop-color:#FFFFFF"/>
			<stop  offset="0.2015" style="stop-color:#FFFFFF"/>
			<stop  offset="0.8512" style="stop-color:#26B2EF"/>
		</linearGradient>
		<path style="fill:url(#SVGID_00000013892463131066277310000008407014606014273976_);" d="M381.4,375.2L381.4,375.2
			c0.5-1.4,2-2.1,3.4-1.6l6.9,2.5c1.4,0.5,2.1,2,1.6,3.4v0c-0.5,1.4-2,2.1-3.4,1.6l-6.9-2.5C381.7,378.1,380.9,376.6,381.4,375.2z"
			/>
	</g>
	<g>
		
			<linearGradient id="SVGID_00000040552296329090566050000000574234131230520754_" gradientUnits="userSpaceOnUse" x1="-50.8914" y1="11.5755" x2="-51.0692" y2="26.02" gradientTransform="matrix(-0.3352 -0.9422 -0.7844 0.2791 387.6749 339.0663)">
			<stop  offset="0" style="stop-color:#FFFFFF"/>
			<stop  offset="0.2015" style="stop-color:#FFFFFF"/>
			<stop  offset="0.8512" style="stop-color:#26B2EF"/>
		</linearGradient>
		<path style="fill:url(#SVGID_00000040552296329090566050000000574234131230520754_);" d="M381.4,395.4L381.4,395.4
			c0.5,1.4,2,2.1,3.4,1.6l6.9-2.5c1.4-0.5,2.1-2,1.6-3.4l0,0c-0.5-1.4-2-2.1-3.4-1.6l-6.9,2.5C381.7,392.5,380.9,394.1,381.4,395.4z
			"/>
		
			<linearGradient id="SVGID_00000151531536041032469960000008861511725569588926_" gradientUnits="userSpaceOnUse" x1="-178.8807" y1="192.1013" x2="-179.0585" y2="206.5458" gradientTransform="matrix(-0.9835 0.1808 -0.1505 -0.8188 236.9904 600.0596)">
			<stop  offset="0" style="stop-color:#FFFFFF"/>
			<stop  offset="0.2015" style="stop-color:#FFFFFF"/>
			<stop  offset="0.8512" style="stop-color:#26B2EF"/>
		</linearGradient>
		<path style="fill:url(#SVGID_00000151531536041032469960000008861511725569588926_);" d="M381.4,395.5L381.4,395.5
			c1.4-0.3,2.8,0.7,3.1,2.1l1.3,7.2c0.3,1.4-0.7,2.8-2.1,3.1l0,0c-1.4,0.3-2.8-0.7-3.1-2.1l-1.3-7.2
			C379,397.1,380,395.8,381.4,395.5z"/>
	</g>
	<g>
		
			<linearGradient id="SVGID_00000111171740726180490810000008031168489164925852_" gradientUnits="userSpaceOnUse" x1="-163.6004" y1="731.9253" x2="-163.7782" y2="746.3698" gradientTransform="matrix(-0.6483 -0.7613 0.6339 -0.5398 -217.8308 685.8648)">
			<stop  offset="0" style="stop-color:#FFFFFF"/>
			<stop  offset="0.2015" style="stop-color:#FFFFFF"/>
			<stop  offset="0.8512" style="stop-color:#26B2EF"/>
		</linearGradient>
		<path style="fill:url(#SVGID_00000111171740726180490810000008031168489164925852_);" d="M363.8,405.6L363.8,405.6
			c0.9,1.1,0.8,2.8-0.3,3.7l-5.6,4.8c-1.1,0.9-2.8,0.8-3.7-0.3l0,0c-0.9-1.1-0.8-2.8,0.3-3.7l5.6-4.8
			C361.2,404.4,362.8,404.5,363.8,405.6z"/>
		
			<linearGradient id="SVGID_00000060727587493728764130000007281833490815784870_" gradientUnits="userSpaceOnUse" x1="395.2375" y1="-56.3015" x2="395.0597" y2="-41.857" gradientTransform="matrix(0.6483 -0.7613 -0.6339 -0.5398 83.5383 685.8648)">
			<stop  offset="0" style="stop-color:#FFFFFF"/>
			<stop  offset="0.2015" style="stop-color:#FFFFFF"/>
			<stop  offset="0.8512" style="stop-color:#26B2EF"/>
		</linearGradient>
		<path style="fill:url(#SVGID_00000060727587493728764130000007281833490815784870_);" d="M363.9,405.6L363.9,405.6
			c-0.9,1.1-0.8,2.8,0.3,3.7l5.6,4.8c1.1,0.9,2.8,0.8,3.7-0.3l0,0c0.9-1.1,0.8-2.8-0.3-3.7l-5.6-4.8
			C366.5,404.4,364.8,404.5,363.9,405.6z"/>
	</g>
	
		<radialGradient id="SVGID_00000139264698356721411860000009304984230493638789_" cx="363.8281" cy="385.3264" r="39.3553" gradientUnits="userSpaceOnUse">
		<stop  offset="0.2479" style="stop-color:#26B2EF"/>
		<stop  offset="0.8306" style="stop-color:#FFFFFF"/>
	</radialGradient>
	<path style="fill:url(#SVGID_00000139264698356721411860000009304984230493638789_);" d="M389.9,396.8l-19.9-11.5l19.9-11.5
		c1.5-0.8,2-2.7,1.1-4.2h0c-0.8-1.5-2.7-2-4.2-1.1l-20,11.5v-23c0-1.7-1.4-3.1-3.1-3.1c-1.7,0-3.1,1.4-3.1,3.1v23l-20-11.5
		c-1.5-0.8-3.3-0.3-4.2,1.1c-0.8,1.5-0.3,3.3,1.1,4.2l19.9,11.5l-19.9,11.5c-1.5,0.8-2,2.7-1.1,4.2s2.7,2,4.2,1.1l20-11.5v23
		c0,1.7,1.4,3.1,3.1,3.1c1.7,0,3.1-1.4,3.1-3.1v-23l20,11.5c1.5,0.8,3.3,0.3,4.2-1.1h0C391.8,399.5,391.3,397.7,389.9,396.8z"/>
</g>
</svg>
