<?xml version="1.0" encoding="utf-8"?>
<!-- Generator: Adobe Illustrator 26.0.3, SVG Export Plug-In . SVG Version: 6.00 Build 0)  -->
<svg version="1.1" id="图层_1" xmlns="http://www.w3.org/2000/svg" xmlns:xlink="http://www.w3.org/1999/xlink" x="0px" y="0px"
	 viewBox="0 0 500 500" style="enable-background:new 0 0 500 500;" xml:space="preserve">
<style type="text/css">
	.st0{fill:url(#SVGID_1_);}
	.st1{fill:url(#SVGID_00000176727505407970619050000000301979036518183306_);}
	.st2{fill:url(#SVGID_00000132062892119484224430000003274593595966029987_);}
	.st3{fill:url(#SVGID_00000180353764732114445810000018414125381847965092_);}
	.st4{fill:url(#SVGID_00000088108588137597881490000005352831793563141817_);}
	.st5{fill:url(#SVGID_00000040568328603660577160000003011522792118415005_);}
	.st6{fill:url(#SVGID_00000150805956857392778210000016166173751002783393_);}
	.st7{fill:url(#SVGID_00000129200978882095764960000000876559936592177063_);}
	.st8{fill:url(#SVGID_00000158716515990626596280000012490078536011910818_);}
	.st9{fill:url(#SVGID_00000179639613578126914920000004134764810698022788_);}
	.st10{fill:url(#SVGID_00000004535910359722099780000008431091763592328089_);}
	.st11{fill:url(#SVGID_00000165913269581745892330000012156620436711267502_);}
	.st12{fill:url(#SVGID_00000018217134439565961960000009269911648958073774_);}
	.st13{fill:url(#SVGID_00000085211154226648716800000003007441614319281332_);}
	.st14{fill:url(#SVGID_00000152984890023505336430000018211960494111090092_);}
	.st15{fill:url(#SVGID_00000047044135954560999570000001756688496740617647_);}
	.st16{fill:url(#SVGID_00000008829638031912236600000009111895594084951215_);}
	.st17{fill:url(#SVGID_00000106132914111814845030000010007531501856004278_);}
	.st18{fill:url(#SVGID_00000170243520492999705500000005802066589365127056_);}
	.st19{fill:url(#SVGID_00000090976326431673268110000001850365530485950885_);}
	.st20{fill:url(#SVGID_00000163767645663474848920000017374570864864506246_);}
	.st21{fill:url(#SVGID_00000070087036210240312130000003572524578795011461_);}
	.st22{fill:url(#SVGID_00000018960126511321263320000011765353141391097479_);}
	.st23{fill:url(#SVGID_00000095325981418152996600000008707902003677415339_);}
	.st24{fill:url(#SVGID_00000016755949140369292240000004668626038616712880_);}
	.st25{fill:url(#SVGID_00000158730497441005536840000002741369818794408845_);}
	.st26{fill:url(#SVGID_00000153682788213045899940000017765260083822332321_);}
	.st27{fill:url(#SVGID_00000042704352811587356360000008466891737691849899_);}
	.st28{fill:url(#SVGID_00000099646775282925307560000017804452518249341625_);}
	.st29{fill:url(#SVGID_00000005230981637999661580000003076842713475349649_);}
	.st30{fill:url(#SVGID_00000072275438505749116600000009811738663880139136_);}
	.st31{fill:url(#SVGID_00000119097908599078368870000017199411619662469772_);}
	.st32{fill:url(#SVGID_00000060743267493855745850000014038304318505032600_);}
	.st33{fill:url(#SVGID_00000080890951108231057820000017018931425647906222_);}
	.st34{fill:url(#SVGID_00000115516849610376130110000016895086397341247367_);}
	.st35{fill:url(#SVGID_00000126320306308426349730000017453296192256630963_);}
	.st36{fill:url(#SVGID_00000159452723213157090780000001295863646434122640_);}
	.st37{fill:url(#SVGID_00000072993989673970929260000018353212175707387291_);}
	.st38{fill:url(#SVGID_00000050635705051354175270000016810311295056111788_);}
	.st39{fill:url(#SVGID_00000133495626789934601870000003468118013594754477_);}
	.st40{fill:url(#SVGID_00000020358185143853755290000008553790215462148001_);}
</style>
<g>
	<g>
		
			<linearGradient id="SVGID_1_" gradientUnits="userSpaceOnUse" x1="197.1739" y1="452.6447" x2="423.3715" y2="198.1884" gradientTransform="matrix(1 0 0 -1 0 502)">
			<stop  offset="0.2459" style="stop-color:#FAFAFA"/>
			<stop  offset="0.4701" style="stop-color:#D2D2D2"/>
			<stop  offset="0.6556" style="stop-color:#B9B9B9"/>
			<stop  offset="0.7664" style="stop-color:#AFAFAF"/>
		</linearGradient>
		<path class="st0" d="M391.8,162.5c-0.1,0-0.3,0-0.4,0c-4.1-44.2-41.2-78.8-86.5-78.8c-48,0-86.9,38.9-86.9,86.9
			c0,46.4,36.4,84.3,82.2,86.8v0.1h91.6c26.2,0,47.5-21.3,47.5-47.5C439.4,183.8,418,162.5,391.8,162.5z"/>
		
			<linearGradient id="SVGID_00000121254340442571946760000007155831940403158964_" gradientUnits="userSpaceOnUse" x1="89.7896" y1="342.8266" x2="351.9585" y2="171.9964" gradientTransform="matrix(1 0 0 -1 0 502)">
			<stop  offset="0.1491" style="stop-color:#FAFAFA"/>
			<stop  offset="0.818" style="stop-color:#CBCBCB"/>
		</linearGradient>
		<path style="fill:url(#SVGID_00000121254340442571946760000007155831940403158964_);" d="M338.1,186.8
			c-14-47.8-58.1-82.7-110.5-82.7c-62.8,0-113.9,50.4-115.1,112.9c-29.2,3.4-51.9,28.3-51.9,58.5c0,32.5,26.4,58.9,58.9,58.9h209.8
			c40.9,0,74-33.1,74-74C403.3,222.4,374.8,191.1,338.1,186.8z"/>
	</g>
	<g>
		<g>
			<g>
				
					<linearGradient id="SVGID_00000136382243161187208690000016695849996235522483_" gradientUnits="userSpaceOnUse" x1="140.3276" y1="213.8732" x2="140.1498" y2="199.4286" gradientTransform="matrix(0.6483 0.7613 0.6339 -0.5398 -48.2483 363.5196)">
					<stop  offset="0" style="stop-color:#FFFFFF"/>
					<stop  offset="0.2015" style="stop-color:#FFFFFF"/>
					<stop  offset="0.8512" style="stop-color:#26B2EF"/>
				</linearGradient>
				<path style="fill:url(#SVGID_00000136382243161187208690000016695849996235522483_);" d="M166.7,364.6L166.7,364.6
					c-0.9-1.1-0.8-2.8,0.3-3.7l5.6-4.8c1.1-0.9,2.8-0.8,3.7,0.3l0,0c0.9,1.1,0.8,2.8-0.3,3.7l-5.6,4.8
					C169.3,365.9,167.6,365.7,166.7,364.6z"/>
				
					<linearGradient id="SVGID_00000083087172591734514440000011545009442582165689_" gradientUnits="userSpaceOnUse" x1="78.8942" y1="127.2263" x2="78.7163" y2="112.7817" gradientTransform="matrix(-0.6483 0.7613 -0.6339 -0.5398 286.847 363.5196)">
					<stop  offset="0" style="stop-color:#FFFFFF"/>
					<stop  offset="0.2015" style="stop-color:#FFFFFF"/>
					<stop  offset="0.8512" style="stop-color:#26B2EF"/>
				</linearGradient>
				<path style="fill:url(#SVGID_00000083087172591734514440000011545009442582165689_);" d="M166.6,364.6L166.6,364.6
					c0.9-1.1,0.8-2.8-0.3-3.7l-5.6-4.8c-1.1-0.9-2.8-0.8-3.7,0.3l0,0c-0.9,1.1-0.8,2.8,0.3,3.7l5.6,4.8
					C164,365.9,165.7,365.7,166.6,364.6z"/>
			</g>
			<g>
				
					<linearGradient id="SVGID_00000078038337866580206880000007429745824007282823_" gradientUnits="userSpaceOnUse" x1="171.7752" y1="110.2677" x2="171.5974" y2="95.8232" gradientTransform="matrix(0.9835 -0.1808 -0.1505 -0.8188 -5.8513 481.165)">
					<stop  offset="0" style="stop-color:#FFFFFF"/>
					<stop  offset="0.2015" style="stop-color:#FFFFFF"/>
					<stop  offset="0.8512" style="stop-color:#26B2EF"/>
				</linearGradient>
				<path style="fill:url(#SVGID_00000078038337866580206880000007429745824007282823_);" d="M149.1,374.8L149.1,374.8
					c-1.4,0.3-2.8-0.7-3.1-2.1l-1.3-7.2c-0.3-1.4,0.7-2.8,2.1-3.1l0,0c1.4-0.3,2.8,0.7,3.1,2.1l1.3,7.2
					C151.5,373.1,150.5,374.5,149.1,374.8z"/>
				
					<linearGradient id="SVGID_00000160154293036973090820000005364065947515168942_" gradientUnits="userSpaceOnUse" x1="169.1157" y1="106.4656" x2="168.9379" y2="92.0211" gradientTransform="matrix(0.3352 0.9422 -0.7844 0.2791 161.6963 190.9874)">
					<stop  offset="0" style="stop-color:#FFFFFF"/>
					<stop  offset="0.2015" style="stop-color:#FFFFFF"/>
					<stop  offset="0.8512" style="stop-color:#26B2EF"/>
				</linearGradient>
				<path style="fill:url(#SVGID_00000160154293036973090820000005364065947515168942_);" d="M149.1,374.8L149.1,374.8
					c-0.5-1.4-2-2.1-3.4-1.6l-6.9,2.5c-1.4,0.5-2.1,2-1.6,3.4l0,0c0.5,1.4,2,2.1,3.4,1.6l6.9-2.5
					C148.8,377.7,149.5,376.2,149.1,374.8z"/>
			</g>
			<g>
				
					<linearGradient id="SVGID_00000047061705153196042350000017877053041374973859_" gradientUnits="userSpaceOnUse" x1="99.9244" y1="-11.0186" x2="99.7466" y2="-25.4631" gradientTransform="matrix(0.3352 -0.9422 -0.7844 -0.2791 92.7532 480.8376)">
					<stop  offset="0" style="stop-color:#FFFFFF"/>
					<stop  offset="0.2015" style="stop-color:#FFFFFF"/>
					<stop  offset="0.8512" style="stop-color:#26B2EF"/>
				</linearGradient>
				<path style="fill:url(#SVGID_00000047061705153196042350000017877053041374973859_);" d="M149.1,395L149.1,395
					c-0.5,1.4-2,2.1-3.4,1.6l-6.9-2.5c-1.4-0.5-2.1-2-1.6-3.4l0,0c0.5-1.4,2-2.1,3.4-1.6l6.9,2.5C148.8,392.1,149.5,393.7,149.1,395
					z"/>
				
					<linearGradient id="SVGID_00000092457179592506089280000004767447541695514754_" gradientUnits="userSpaceOnUse" x1="257.3126" y1="211.0975" x2="257.1348" y2="196.6529" gradientTransform="matrix(0.9835 0.1808 -0.1505 0.8188 -74.7945 190.66)">
					<stop  offset="0" style="stop-color:#FFFFFF"/>
					<stop  offset="0.2015" style="stop-color:#FFFFFF"/>
					<stop  offset="0.8512" style="stop-color:#26B2EF"/>
				</linearGradient>
				<path style="fill:url(#SVGID_00000092457179592506089280000004767447541695514754_);" d="M149.1,395.1L149.1,395.1
					c-1.4-0.3-2.8,0.7-3.1,2.1l-1.3,7.2c-0.3,1.4,0.7,2.8,2.1,3.1l0,0c1.4,0.3,2.8-0.7,3.1-2.1l1.3-7.2
					C151.5,396.7,150.5,395.4,149.1,395.1z"/>
			</g>
			<g>
				
					<linearGradient id="SVGID_00000149365431704634757240000015531968017746872751_" gradientUnits="userSpaceOnUse" x1="-68.7694" y1="163.3824" x2="-68.9472" y2="148.9378" gradientTransform="matrix(-0.9835 -0.1808 0.1505 -0.8188 94.6302 481.165)">
					<stop  offset="0" style="stop-color:#FFFFFF"/>
					<stop  offset="0.2015" style="stop-color:#FFFFFF"/>
					<stop  offset="0.8512" style="stop-color:#26B2EF"/>
				</linearGradient>
				<path style="fill:url(#SVGID_00000149365431704634757240000015531968017746872751_);" d="M184.2,374.8L184.2,374.8
					c1.4,0.3,2.8-0.7,3.1-2.1l1.3-7.2c0.3-1.4-0.7-2.8-2.1-3.1l0,0c-1.4-0.3-2.8,0.7-3.1,2.1l-1.3,7.2
					C181.8,373.1,182.8,374.5,184.2,374.8z"/>
				
					<linearGradient id="SVGID_00000040534441731185585750000012966110980943846029_" gradientUnits="userSpaceOnUse" x1="87.1342" y1="383.2336" x2="86.9563" y2="368.7892" gradientTransform="matrix(-0.3352 0.9422 0.7844 0.2791 -72.9174 190.9874)">
					<stop  offset="0" style="stop-color:#FFFFFF"/>
					<stop  offset="0.2015" style="stop-color:#FFFFFF"/>
					<stop  offset="0.8512" style="stop-color:#26B2EF"/>
				</linearGradient>
				<path style="fill:url(#SVGID_00000040534441731185585750000012966110980943846029_);" d="M184.2,374.8L184.2,374.8
					c0.5-1.4,2-2.1,3.4-1.6l6.9,2.5c1.4,0.5,2.1,2,1.6,3.4l0,0c-0.5,1.4-2,2.1-3.4,1.6l-6.9-2.5
					C184.5,377.7,183.8,376.2,184.2,374.8z"/>
			</g>
			<g>
				
					<linearGradient id="SVGID_00000116955591799030270710000004380188456767085453_" gradientUnits="userSpaceOnUse" x1="17.9428" y1="265.7494" x2="17.765" y2="251.3049" gradientTransform="matrix(-0.3352 -0.9422 0.7844 -0.2791 -3.9743 480.8376)">
					<stop  offset="0" style="stop-color:#FFFFFF"/>
					<stop  offset="0.2015" style="stop-color:#FFFFFF"/>
					<stop  offset="0.8512" style="stop-color:#26B2EF"/>
				</linearGradient>
				<path style="fill:url(#SVGID_00000116955591799030270710000004380188456767085453_);" d="M184.2,395L184.2,395
					c0.5,1.4,2,2.1,3.4,1.6l6.9-2.5c1.4-0.5,2.1-2,1.6-3.4l0,0c-0.5-1.4-2-2.1-3.4-1.6l-6.9,2.5C184.5,392.1,183.8,393.7,184.2,395z
					"/>
				
					<linearGradient id="SVGID_00000121963088284694553800000017664288694466587290_" gradientUnits="userSpaceOnUse" x1="16.768" y1="264.2122" x2="16.5902" y2="249.7677" gradientTransform="matrix(-0.9835 0.1808 0.1505 0.8188 163.5734 190.66)">
					<stop  offset="0" style="stop-color:#FFFFFF"/>
					<stop  offset="0.2015" style="stop-color:#FFFFFF"/>
					<stop  offset="0.8512" style="stop-color:#26B2EF"/>
				</linearGradient>
				<path style="fill:url(#SVGID_00000121963088284694553800000017664288694466587290_);" d="M184.2,395.1L184.2,395.1
					c1.4-0.3,2.8,0.7,3.1,2.1l1.3,7.2c0.3,1.4-0.7,2.8-2.1,3.1l0,0c-1.4,0.3-2.8-0.7-3.1-2.1l-1.3-7.2
					C181.8,396.7,182.8,395.4,184.2,395.1z"/>
			</g>
			<g>
				
					<linearGradient id="SVGID_00000127019080899421624470000006798917706979994278_" gradientUnits="userSpaceOnUse" x1="-33.0418" y1="-50.8104" x2="-33.2196" y2="-65.255" gradientTransform="matrix(-0.6483 -0.7613 -0.6339 0.5398 101.4014 417.1863)">
					<stop  offset="0" style="stop-color:#FFFFFF"/>
					<stop  offset="0.2015" style="stop-color:#FFFFFF"/>
					<stop  offset="0.8512" style="stop-color:#26B2EF"/>
				</linearGradient>
				<path style="fill:url(#SVGID_00000127019080899421624470000006798917706979994278_);" d="M166.6,405.2L166.6,405.2
					c0.9,1.1,0.8,2.8-0.3,3.7l-5.6,4.8c-1.1,0.9-2.8,0.8-3.7-0.3l0,0c-0.9-1.1-0.8-2.8,0.3-3.7l5.6-4.8
					C164,404,165.7,404.1,166.6,405.2z"/>
				
					<linearGradient id="SVGID_00000009584527176138224530000007130185359481276318_" gradientUnits="userSpaceOnUse" x1="268.8692" y1="375.0056" x2="268.6914" y2="360.5611" gradientTransform="matrix(0.6483 -0.7613 0.6339 0.5398 -233.6939 417.1863)">
					<stop  offset="0" style="stop-color:#FFFFFF"/>
					<stop  offset="0.2015" style="stop-color:#FFFFFF"/>
					<stop  offset="0.8512" style="stop-color:#26B2EF"/>
				</linearGradient>
				<path style="fill:url(#SVGID_00000009584527176138224530000007130185359481276318_);" d="M166.7,405.2L166.7,405.2
					c-0.9,1.1-0.8,2.8,0.3,3.7l5.6,4.8c1.1,0.9,2.8,0.8,3.7-0.3l0,0c0.9-1.1,0.8-2.8-0.3-3.7l-5.6-4.8
					C169.3,404,167.6,404.1,166.7,405.2z"/>
			</g>
			
				<radialGradient id="SVGID_00000054236612674573618560000009241895723824402342_" cx="166.6764" cy="117.1" r="39.3367" gradientTransform="matrix(1 0 0 -1 0 502)" gradientUnits="userSpaceOnUse">
				<stop  offset="0.2479" style="stop-color:#26B2EF"/>
				<stop  offset="0.8306" style="stop-color:#FFFFFF"/>
			</radialGradient>
			<path style="fill:url(#SVGID_00000054236612674573618560000009241895723824402342_);" d="M192.7,396.4l-19.9-11.5l19.9-11.5
				c1.5-0.8,2-2.7,1.1-4.2l0,0c-0.8-1.5-2.7-2-4.2-1.1l-20,11.5v-23c0-1.7-1.4-3.1-3.1-3.1c-1.7,0-3.1,1.4-3.1,3.1v23l-20-11.5
				c-1.5-0.8-3.3-0.3-4.2,1.1c-0.8,1.5-0.3,3.3,1.1,4.2l19.9,11.5l-19.6,11.5c-1.5,0.8-2,2.7-1.1,4.2c0.9,1.5,2.7,2,4.2,1.1l20-11.5
				v23c0,1.7,1.4,3.1,3.1,3.1s3.1-1.4,3.1-3.1v-23l20,11.5c1.5,0.8,3.3,0.3,4.2-1.1l0,0C194.7,399.1,194.2,397.3,192.7,396.4z"/>
		</g>
		<g>
			<g>
				
					<linearGradient id="SVGID_00000044151183905890624310000004445520057262230414_" gradientUnits="userSpaceOnUse" x1="194.322" y1="290.0367" x2="194.1441" y2="275.5923" gradientTransform="matrix(0.6483 0.7613 0.6339 -0.5398 -48.2483 363.5196)">
					<stop  offset="0" style="stop-color:#FFFFFF"/>
					<stop  offset="0.2015" style="stop-color:#FFFFFF"/>
					<stop  offset="0.8512" style="stop-color:#26B2EF"/>
				</linearGradient>
				<path style="fill:url(#SVGID_00000044151183905890624310000004445520057262230414_);" d="M250,364.6L250,364.6
					c-0.9-1.1-0.8-2.8,0.3-3.7l5.6-4.8c1.1-0.9,2.8-0.8,3.7,0.3l0,0c0.9,1.1,0.8,2.8-0.3,3.7l-5.6,4.8
					C252.6,365.9,250.9,365.7,250,364.6z"/>
				
					<linearGradient id="SVGID_00000169551635335042906670000004373380963235478914_" gradientUnits="userSpaceOnUse" x1="24.8998" y1="51.0627" x2="24.722" y2="36.6182" gradientTransform="matrix(-0.6483 0.7613 -0.6339 -0.5398 286.847 363.5196)">
					<stop  offset="0" style="stop-color:#FFFFFF"/>
					<stop  offset="0.2015" style="stop-color:#FFFFFF"/>
					<stop  offset="0.8512" style="stop-color:#26B2EF"/>
				</linearGradient>
				<path style="fill:url(#SVGID_00000169551635335042906670000004373380963235478914_);" d="M249.9,364.6L249.9,364.6
					c0.9-1.1,0.8-2.8-0.3-3.7l-5.6-4.8c-1.1-0.9-2.8-0.8-3.7,0.3l0,0c-0.9,1.1-0.8,2.8,0.3,3.7l5.6,4.8
					C247.3,365.9,249,365.7,249.9,364.6z"/>
			</g>
			<g>
				
					<linearGradient id="SVGID_00000042728035404641055540000017465346366373067951_" gradientUnits="userSpaceOnUse" x1="253.6806" y1="92.1814" x2="253.5028" y2="77.737" gradientTransform="matrix(0.9835 -0.1808 -0.1505 -0.8188 -5.8513 481.165)">
					<stop  offset="0" style="stop-color:#FFFFFF"/>
					<stop  offset="0.2015" style="stop-color:#FFFFFF"/>
					<stop  offset="0.8512" style="stop-color:#26B2EF"/>
				</linearGradient>
				<path style="fill:url(#SVGID_00000042728035404641055540000017465346366373067951_);" d="M232.4,374.8L232.4,374.8
					c-1.4,0.3-2.8-0.7-3.1-2.1l-1.3-7.2c-0.3-1.4,0.7-2.8,2.1-3.1l0,0c1.4-0.3,2.8,0.7,3.1,2.1l1.3,7.2
					C234.8,373.1,233.8,374.5,232.4,374.8z"/>
				
					<linearGradient id="SVGID_00000088125063515640544900000016121132232869532544_" gradientUnits="userSpaceOnUse" x1="197.0303" y1="12.2163" x2="196.8526" y2="-2.2283" gradientTransform="matrix(0.3352 0.9422 -0.7844 0.2791 161.6963 190.9874)">
					<stop  offset="0" style="stop-color:#FFFFFF"/>
					<stop  offset="0.2015" style="stop-color:#FFFFFF"/>
					<stop  offset="0.8512" style="stop-color:#26B2EF"/>
				</linearGradient>
				<path style="fill:url(#SVGID_00000088125063515640544900000016121132232869532544_);" d="M232.4,374.8L232.4,374.8
					c-0.5-1.4-2-2.1-3.4-1.6l-6.9,2.5c-1.4,0.5-2.1,2-1.6,3.4l0,0c0.5,1.4,2,2.1,3.4,1.6l6.9-2.5
					C232.1,377.7,232.9,376.2,232.4,374.8z"/>
			</g>
			<g>
				
					<linearGradient id="SVGID_00000172406388154227493190000003108395251465335447_" gradientUnits="userSpaceOnUse" x1="127.839" y1="-105.2681" x2="127.6612" y2="-119.7126" gradientTransform="matrix(0.3352 -0.9422 -0.7844 -0.2791 92.7532 480.8376)">
					<stop  offset="0" style="stop-color:#FFFFFF"/>
					<stop  offset="0.2015" style="stop-color:#FFFFFF"/>
					<stop  offset="0.8512" style="stop-color:#26B2EF"/>
				</linearGradient>
				<path style="fill:url(#SVGID_00000172406388154227493190000003108395251465335447_);" d="M232.4,395L232.4,395
					c-0.5,1.4-2,2.1-3.4,1.6l-6.9-2.5c-1.4-0.5-2.1-2-1.6-3.4l0,0c0.5-1.4,2-2.1,3.4-1.6l6.9,2.5C232.1,392.1,232.9,393.7,232.4,395
					z"/>
				
					<linearGradient id="SVGID_00000141455825921120470770000011492552455523247757_" gradientUnits="userSpaceOnUse" x1="339.218" y1="193.0112" x2="339.0402" y2="178.5667" gradientTransform="matrix(0.9835 0.1808 -0.1505 0.8188 -74.7945 190.66)">
					<stop  offset="0" style="stop-color:#FFFFFF"/>
					<stop  offset="0.2015" style="stop-color:#FFFFFF"/>
					<stop  offset="0.8512" style="stop-color:#26B2EF"/>
				</linearGradient>
				<path style="fill:url(#SVGID_00000141455825921120470770000011492552455523247757_);" d="M232.4,395.1L232.4,395.1
					c-1.4-0.3-2.8,0.7-3.1,2.1l-1.3,7.2c-0.3,1.4,0.7,2.8,2.1,3.1l0,0c1.4,0.3,2.8-0.7,3.1-2.1l1.3-7.2
					C234.8,396.7,233.8,395.4,232.4,395.1z"/>
			</g>
			<g>
				
					<linearGradient id="SVGID_00000175318483978411713190000012232044027325928632_" gradientUnits="userSpaceOnUse" x1="-150.6747" y1="181.4687" x2="-150.8526" y2="167.0242" gradientTransform="matrix(-0.9835 -0.1808 0.1505 -0.8188 94.6302 481.165)">
					<stop  offset="0" style="stop-color:#FFFFFF"/>
					<stop  offset="0.2015" style="stop-color:#FFFFFF"/>
					<stop  offset="0.8512" style="stop-color:#26B2EF"/>
				</linearGradient>
				<path style="fill:url(#SVGID_00000175318483978411713190000012232044027325928632_);" d="M267.5,374.8L267.5,374.8
					c1.4,0.3,2.8-0.7,3.1-2.1l1.3-7.2c0.3-1.4-0.7-2.8-2.1-3.1l0,0c-1.4-0.3-2.8,0.7-3.1,2.1l-1.3,7.2
					C265.1,373.1,266.1,374.5,267.5,374.8z"/>
				
					<linearGradient id="SVGID_00000072247545481516547730000009407805608882753170_" gradientUnits="userSpaceOnUse" x1="59.1847" y1="477.4835" x2="59.0069" y2="463.039" gradientTransform="matrix(-0.3352 0.9422 0.7844 0.2791 -72.9174 190.9874)">
					<stop  offset="0" style="stop-color:#FFFFFF"/>
					<stop  offset="0.2015" style="stop-color:#FFFFFF"/>
					<stop  offset="0.8512" style="stop-color:#26B2EF"/>
				</linearGradient>
				<path style="fill:url(#SVGID_00000072247545481516547730000009407805608882753170_);" d="M267.6,374.8L267.6,374.8
					c0.5-1.4,2-2.1,3.4-1.6l6.9,2.5c1.4,0.5,2.1,2,1.6,3.4l0,0c-0.5,1.4-2,2.1-3.4,1.6l-6.9-2.5
					C267.8,377.7,267.1,376.2,267.6,374.8z"/>
			</g>
			<g>
				
					<linearGradient id="SVGID_00000173852024835510255340000006438634848441359245_" gradientUnits="userSpaceOnUse" x1="-10.0066" y1="359.9992" x2="-10.1844" y2="345.5547" gradientTransform="matrix(-0.3352 -0.9422 0.7844 -0.2791 -3.9743 480.8376)">
					<stop  offset="0" style="stop-color:#FFFFFF"/>
					<stop  offset="0.2015" style="stop-color:#FFFFFF"/>
					<stop  offset="0.8512" style="stop-color:#26B2EF"/>
				</linearGradient>
				<path style="fill:url(#SVGID_00000173852024835510255340000006438634848441359245_);" d="M267.6,395L267.6,395
					c0.5,1.4,2,2.1,3.4,1.6l6.9-2.5c1.4-0.5,2.1-2,1.6-3.4l0,0c-0.5-1.4-2-2.1-3.4-1.6l-6.9,2.5C267.8,392.1,267.1,393.7,267.6,395z
					"/>
				
					<linearGradient id="SVGID_00000013183112143679254240000011463147994548731303_" gradientUnits="userSpaceOnUse" x1="-65.1374" y1="282.2984" x2="-65.3152" y2="267.8539" gradientTransform="matrix(-0.9835 0.1808 0.1505 0.8188 163.5734 190.66)">
					<stop  offset="0" style="stop-color:#FFFFFF"/>
					<stop  offset="0.2015" style="stop-color:#FFFFFF"/>
					<stop  offset="0.8512" style="stop-color:#26B2EF"/>
				</linearGradient>
				<path style="fill:url(#SVGID_00000013183112143679254240000011463147994548731303_);" d="M267.5,395.1L267.5,395.1
					c1.4-0.3,2.8,0.7,3.1,2.1l1.3,7.2c0.3,1.4-0.7,2.8-2.1,3.1l0,0c-1.4,0.3-2.8-0.7-3.1-2.1l-1.3-7.2
					C265.1,396.7,266.1,395.4,267.5,395.1z"/>
			</g>
			<g>
				
					<linearGradient id="SVGID_00000138559814113999625400000008386833320051353739_" gradientUnits="userSpaceOnUse" x1="-87.0361" y1="-126.974" x2="-87.2139" y2="-141.4185" gradientTransform="matrix(-0.6483 -0.7613 -0.6339 0.5398 101.4014 417.1863)">
					<stop  offset="0" style="stop-color:#FFFFFF"/>
					<stop  offset="0.2015" style="stop-color:#FFFFFF"/>
					<stop  offset="0.8512" style="stop-color:#26B2EF"/>
				</linearGradient>
				<path style="fill:url(#SVGID_00000138559814113999625400000008386833320051353739_);" d="M249.9,405.2L249.9,405.2
					c0.9,1.1,0.8,2.8-0.3,3.7l-5.6,4.8c-1.1,0.9-2.8,0.8-3.7-0.3l0,0c-0.9-1.1-0.8-2.8,0.3-3.7l5.6-4.8
					C247.3,404,249,404.1,249.9,405.2z"/>
				
					<linearGradient id="SVGID_00000014595412798799335690000017743069331954740669_" gradientUnits="userSpaceOnUse" x1="322.8635" y1="451.1692" x2="322.6857" y2="436.7246" gradientTransform="matrix(0.6483 -0.7613 0.6339 0.5398 -233.6939 417.1863)">
					<stop  offset="0" style="stop-color:#FFFFFF"/>
					<stop  offset="0.2015" style="stop-color:#FFFFFF"/>
					<stop  offset="0.8512" style="stop-color:#26B2EF"/>
				</linearGradient>
				<path style="fill:url(#SVGID_00000014595412798799335690000017743069331954740669_);" d="M250,405.2L250,405.2
					c-0.9,1.1-0.8,2.8,0.3,3.7l5.6,4.8c1.1,0.9,2.8,0.8,3.7-0.3l0,0c0.9-1.1,0.8-2.8-0.3-3.7l-5.6-4.8
					C252.6,404,250.9,404.1,250,405.2z"/>
			</g>
			
				<radialGradient id="SVGID_00000095316453479301404250000017867065698911619228_" cx="249.9603" cy="117.1" r="39.3366" gradientTransform="matrix(1 0 0 -1 0 502)" gradientUnits="userSpaceOnUse">
				<stop  offset="0.2479" style="stop-color:#26B2EF"/>
				<stop  offset="0.8306" style="stop-color:#FFFFFF"/>
			</radialGradient>
			<path style="fill:url(#SVGID_00000095316453479301404250000017867065698911619228_);" d="M276,396.4l-19.9-11.5l19.9-11.5
				c1.5-0.8,2-2.7,1.1-4.2l0,0c-0.8-1.5-2.7-2-4.2-1.1l-20,11.5v-23c0-1.7-1.4-3.1-3.1-3.1s-3.1,1.4-3.1,3.1v23l-20-11.5
				c-1.5-0.8-3.3-0.3-4.2,1.1c-0.8,1.5-0.3,3.3,1.1,4.2l19.9,11.5l-19.9,11.5c-1.5,0.8-2,2.7-1.1,4.2c0.8,1.5,2.7,2,4.2,1.1l20-11.5
				v23c0,1.7,1.4,3.1,3.1,3.1s3.1-1.4,3.1-3.1v-23l20,11.5c1.5,0.8,3.3,0.3,4.2-1.1l0,0C278,399.1,277.5,397.3,276,396.4z"/>
		</g>
		<g>
			<g>
				
					<linearGradient id="SVGID_00000074428401698581452850000016322113404070199956_" gradientUnits="userSpaceOnUse" x1="248.3806" y1="366.2516" x2="248.2028" y2="351.8071" gradientTransform="matrix(0.6483 0.7613 0.6339 -0.5398 -48.2483 363.5196)">
					<stop  offset="0" style="stop-color:#FFFFFF"/>
					<stop  offset="0.2015" style="stop-color:#FFFFFF"/>
					<stop  offset="0.8512" style="stop-color:#26B2EF"/>
				</linearGradient>
				<path style="fill:url(#SVGID_00000074428401698581452850000016322113404070199956_);" d="M333.4,364.6L333.4,364.6
					c-0.9-1.1-0.8-2.8,0.3-3.7l5.6-4.8c1.1-0.9,2.8-0.8,3.7,0.3l0,0c0.9,1.1,0.8,2.8-0.3,3.7l-5.6,4.8
					C336,365.9,334.3,365.7,333.4,364.6z"/>
				
					<linearGradient id="SVGID_00000094576684509244026130000012571119751862352563_" gradientUnits="userSpaceOnUse" x1="-29.1588" y1="-25.1522" x2="-29.3367" y2="-39.5967" gradientTransform="matrix(-0.6483 0.7613 -0.6339 -0.5398 286.847 363.5196)">
					<stop  offset="0" style="stop-color:#FFFFFF"/>
					<stop  offset="0.2015" style="stop-color:#FFFFFF"/>
					<stop  offset="0.8512" style="stop-color:#26B2EF"/>
				</linearGradient>
				<path style="fill:url(#SVGID_00000094576684509244026130000012571119751862352563_);" d="M333.3,364.6L333.3,364.6
					c0.9-1.1,0.8-2.8-0.3-3.7l-5.6-4.8c-1.1-0.9-2.8-0.8-3.7,0.3l0,0c-0.9,1.1-0.8,2.8,0.3,3.7l5.6,4.8
					C330.7,365.9,332.3,365.7,333.3,364.6z"/>
			</g>
			<g>
				
					<linearGradient id="SVGID_00000055678393904165622820000004802096215015002774_" gradientUnits="userSpaceOnUse" x1="335.6845" y1="74.0813" x2="335.5067" y2="59.6368" gradientTransform="matrix(0.9835 -0.1808 -0.1505 -0.8188 -5.8513 481.165)">
					<stop  offset="0" style="stop-color:#FFFFFF"/>
					<stop  offset="0.2015" style="stop-color:#FFFFFF"/>
					<stop  offset="0.8512" style="stop-color:#26B2EF"/>
				</linearGradient>
				<path style="fill:url(#SVGID_00000055678393904165622820000004802096215015002774_);" d="M315.8,374.8L315.8,374.8
					c-1.4,0.3-2.8-0.7-3.1-2.1l-1.3-7.2c-0.3-1.4,0.7-2.8,2.1-3.1l0,0c1.4-0.3,2.8,0.7,3.1,2.1l1.3,7.2
					C318.2,373.1,317.2,374.5,315.8,374.8z"/>
				
					<linearGradient id="SVGID_00000142870376894456439250000002402915922346608768_" gradientUnits="userSpaceOnUse" x1="224.9443" y1="-82.0984" x2="224.7665" y2="-96.5431" gradientTransform="matrix(0.3352 0.9422 -0.7844 0.2791 161.6963 190.9874)">
					<stop  offset="0" style="stop-color:#FFFFFF"/>
					<stop  offset="0.2015" style="stop-color:#FFFFFF"/>
					<stop  offset="0.8512" style="stop-color:#26B2EF"/>
				</linearGradient>
				<path style="fill:url(#SVGID_00000142870376894456439250000002402915922346608768_);" d="M315.7,374.8L315.7,374.8
					c-0.5-1.4-2-2.1-3.4-1.6l-6.9,2.5c-1.4,0.5-2.1,2-1.6,3.4l0,0c0.5,1.4,2,2.1,3.4,1.6l6.9-2.5
					C315.5,377.7,316.2,376.2,315.7,374.8z"/>
			</g>
			<g>
				
					<linearGradient id="SVGID_00000085936998960552121280000008913067696828413881_" gradientUnits="userSpaceOnUse" x1="155.753" y1="-199.5827" x2="155.5752" y2="-214.0273" gradientTransform="matrix(0.3352 -0.9422 -0.7844 -0.2791 92.7532 480.8376)">
					<stop  offset="0" style="stop-color:#FFFFFF"/>
					<stop  offset="0.2015" style="stop-color:#FFFFFF"/>
					<stop  offset="0.8512" style="stop-color:#26B2EF"/>
				</linearGradient>
				<path style="fill:url(#SVGID_00000085936998960552121280000008913067696828413881_);" d="M315.7,395L315.7,395
					c-0.5,1.4-2,2.1-3.4,1.6l-6.9-2.5c-1.4-0.5-2.1-2-1.6-3.4l0,0c0.5-1.4,2-2.1,3.4-1.6l6.9,2.5C315.5,392.1,316.2,393.7,315.7,395
					z"/>
				
					<linearGradient id="SVGID_00000002369922666923293870000003600295177216905623_" gradientUnits="userSpaceOnUse" x1="421.2219" y1="174.911" x2="421.0441" y2="160.4665" gradientTransform="matrix(0.9835 0.1808 -0.1505 0.8188 -74.7945 190.66)">
					<stop  offset="0" style="stop-color:#FFFFFF"/>
					<stop  offset="0.2015" style="stop-color:#FFFFFF"/>
					<stop  offset="0.8512" style="stop-color:#26B2EF"/>
				</linearGradient>
				<path style="fill:url(#SVGID_00000002369922666923293870000003600295177216905623_);" d="M315.8,395.1L315.8,395.1
					c-1.4-0.3-2.8,0.7-3.1,2.1l-1.3,7.2c-0.3,1.4,0.7,2.8,2.1,3.1l0,0c1.4,0.3,2.8-0.7,3.1-2.1l1.3-7.2
					C318.2,396.7,317.2,395.4,315.8,395.1z"/>
			</g>
			<g>
				
					<linearGradient id="SVGID_00000056417130782414166770000009784131217018445759_" gradientUnits="userSpaceOnUse" x1="-232.6786" y1="199.5688" x2="-232.8565" y2="185.1243" gradientTransform="matrix(-0.9835 -0.1808 0.1505 -0.8188 94.6302 481.165)">
					<stop  offset="0" style="stop-color:#FFFFFF"/>
					<stop  offset="0.2015" style="stop-color:#FFFFFF"/>
					<stop  offset="0.8512" style="stop-color:#26B2EF"/>
				</linearGradient>
				<path style="fill:url(#SVGID_00000056417130782414166770000009784131217018445759_);" d="M350.9,374.8L350.9,374.8
					c1.4,0.3,2.8-0.7,3.1-2.1l1.3-7.2c0.3-1.4-0.7-2.8-2.1-3.1l0,0c-1.4-0.3-2.8,0.7-3.1,2.1l-1.3,7.2
					C348.5,373.1,349.5,374.5,350.9,374.8z"/>
				
					<linearGradient id="SVGID_00000115478075554516019420000001579323156180054408_" gradientUnits="userSpaceOnUse" x1="31.2708" y1="571.7982" x2="31.093" y2="557.3537" gradientTransform="matrix(-0.3352 0.9422 0.7844 0.2791 -72.9174 190.9874)">
					<stop  offset="0" style="stop-color:#FFFFFF"/>
					<stop  offset="0.2015" style="stop-color:#FFFFFF"/>
					<stop  offset="0.8512" style="stop-color:#26B2EF"/>
				</linearGradient>
				<path style="fill:url(#SVGID_00000115478075554516019420000001579323156180054408_);" d="M350.9,374.8L350.9,374.8
					c0.5-1.4,2-2.1,3.4-1.6l6.9,2.5c1.4,0.5,2.1,2,1.6,3.4l0,0c-0.5,1.4-2,2.1-3.4,1.6l-6.9-2.5
					C351.2,377.7,350.4,376.2,350.9,374.8z"/>
			</g>
			<g>
				
					<linearGradient id="SVGID_00000020399234553821359470000009353779048591726517_" gradientUnits="userSpaceOnUse" x1="-37.9206" y1="454.3139" x2="-38.0984" y2="439.8694" gradientTransform="matrix(-0.3352 -0.9422 0.7844 -0.2791 -3.9743 480.8376)">
					<stop  offset="0" style="stop-color:#FFFFFF"/>
					<stop  offset="0.2015" style="stop-color:#FFFFFF"/>
					<stop  offset="0.8512" style="stop-color:#26B2EF"/>
				</linearGradient>
				<path style="fill:url(#SVGID_00000020399234553821359470000009353779048591726517_);" d="M350.9,395L350.9,395
					c0.5,1.4,2,2.1,3.4,1.6l6.9-2.5c1.4-0.5,2.1-2,1.6-3.4l0,0c-0.5-1.4-2-2.1-3.4-1.6l-6.9,2.5C351.2,392.1,350.4,393.7,350.9,395z
					"/>
				
					<linearGradient id="SVGID_00000073689965499597050910000001376286118414454181_" gradientUnits="userSpaceOnUse" x1="-147.1413" y1="300.3986" x2="-147.319" y2="285.9541" gradientTransform="matrix(-0.9835 0.1808 0.1505 0.8188 163.5734 190.66)">
					<stop  offset="0" style="stop-color:#FFFFFF"/>
					<stop  offset="0.2015" style="stop-color:#FFFFFF"/>
					<stop  offset="0.8512" style="stop-color:#26B2EF"/>
				</linearGradient>
				<path style="fill:url(#SVGID_00000073689965499597050910000001376286118414454181_);" d="M350.9,395.1L350.9,395.1
					c1.4-0.3,2.8,0.7,3.1,2.1l1.3,7.2c0.3,1.4-0.7,2.8-2.1,3.1l0,0c-1.4,0.3-2.8-0.7-3.1-2.1l-1.3-7.2
					C348.5,396.7,349.5,395.4,350.9,395.1z"/>
			</g>
			<g>
				
					<linearGradient id="SVGID_00000165921212167258702790000008416045066066837888_" gradientUnits="userSpaceOnUse" x1="-141.0948" y1="-203.1889" x2="-141.2726" y2="-217.6334" gradientTransform="matrix(-0.6483 -0.7613 -0.6339 0.5398 101.4014 417.1863)">
					<stop  offset="0" style="stop-color:#FFFFFF"/>
					<stop  offset="0.2015" style="stop-color:#FFFFFF"/>
					<stop  offset="0.8512" style="stop-color:#26B2EF"/>
				</linearGradient>
				<path style="fill:url(#SVGID_00000165921212167258702790000008416045066066837888_);" d="M333.3,405.2L333.3,405.2
					c0.9,1.1,0.8,2.8-0.3,3.7l-5.6,4.8c-1.1,0.9-2.8,0.8-3.7-0.3l0,0c-0.9-1.1-0.8-2.8,0.3-3.7l5.6-4.8
					C330.7,404,332.3,404.1,333.3,405.2z"/>
				
					<linearGradient id="SVGID_00000156563359564941828170000010048675042921039025_" gradientUnits="userSpaceOnUse" x1="376.9222" y1="527.384" x2="376.7444" y2="512.9395" gradientTransform="matrix(0.6483 -0.7613 0.6339 0.5398 -233.6939 417.1863)">
					<stop  offset="0" style="stop-color:#FFFFFF"/>
					<stop  offset="0.2015" style="stop-color:#FFFFFF"/>
					<stop  offset="0.8512" style="stop-color:#26B2EF"/>
				</linearGradient>
				<path style="fill:url(#SVGID_00000156563359564941828170000010048675042921039025_);" d="M333.4,405.2L333.4,405.2
					c-0.9,1.1-0.8,2.8,0.3,3.7l5.6,4.8c1.1,0.9,2.8,0.8,3.7-0.3l0,0c0.9-1.1,0.8-2.8-0.3-3.7l-5.6-4.8
					C336,404,334.3,404.1,333.4,405.2z"/>
			</g>
			
				<radialGradient id="SVGID_00000117655565011846173870000005200690294985218464_" cx="333.304" cy="117.1" r="39.3367" gradientTransform="matrix(1 0 0 -1 0 502)" gradientUnits="userSpaceOnUse">
				<stop  offset="0.2479" style="stop-color:#26B2EF"/>
				<stop  offset="0.8306" style="stop-color:#FFFFFF"/>
			</radialGradient>
			<path style="fill:url(#SVGID_00000117655565011846173870000005200690294985218464_);" d="M359.4,396.4l-19.9-11.5l19.9-11.5
				c1.5-0.8,2-2.7,1.1-4.2l0,0c-0.8-1.5-2.7-2-4.2-1.1l-20,11.5v-23c0-1.7-1.4-3.1-3.1-3.1s-3.1,1.4-3.1,3.1v23l-20-11.5
				c-1.5-0.8-3.3-0.3-4.2,1.1c-0.8,1.5-0.3,3.3,1.1,4.2l19.9,11.5L307,396.4c-1.5,0.8-2,2.7-1.1,4.2s2.7,2,4.2,1.1l20-11.5v23
				c0,1.7,1.4,3.1,3.1,3.1s3.1-1.4,3.1-3.1v-23l20,11.5c1.5,0.8,3.3,0.3,4.2-1.1l0,0C361.3,399.1,360.8,397.3,359.4,396.4z"/>
		</g>
	</g>
</g>
</svg>
