<?xml version="1.0" encoding="utf-8"?>
<!-- Generator: Adobe Illustrator 26.0.3, SVG Export Plug-In . SVG Version: 6.00 Build 0)  -->
<svg version="1.1" id="图层_1" xmlns="http://www.w3.org/2000/svg" xmlns:xlink="http://www.w3.org/1999/xlink" x="0px" y="0px"
	 viewBox="0 0 500 500" style="enable-background:new 0 0 500 500;" xml:space="preserve">
<style type="text/css">
	.st0{fill:url(#SVGID_1_);}
	.st1{fill:url(#SVGID_00000026842785965527035600000003600578135537009814_);}
	.st2{fill:#E6E6E6;}
	.st3{fill:url(#SVGID_00000052105797307885120800000005830743948391915399_);}
	.st4{fill:url(#SVGID_00000004527959456098782120000018285675377359494020_);}
	.st5{fill:url(#SVGID_00000065060471784659180380000008307271932653995436_);}
	.st6{fill:url(#SVGID_00000060751599487297371270000003742332588758084237_);}
	.st7{fill:url(#SVGID_00000119810936533786389920000013719083030399861162_);}
	.st8{fill:url(#SVGID_00000128460536721429157720000015679906624545732287_);}
	.st9{fill:url(#SVGID_00000138543291999552579510000005790500453519118225_);}
	.st10{fill:url(#SVGID_00000093887957843664783890000003206830250187737241_);}
	.st11{fill:url(#SVGID_00000007392316080529214880000002657074109709213061_);}
	.st12{fill:url(#SVGID_00000055679419822861756150000008104378957371731107_);}
	.st13{fill:url(#SVGID_00000163788135105798300000000006199253428416182949_);}
	.st14{fill:url(#SVGID_00000140008046406654719130000006682027470551310978_);}
	.st15{fill:url(#SVGID_00000179609073014089204700000008821686411467967419_);}
	.st16{fill:url(#SVGID_00000106845653508572519930000016800939820978307204_);}
	.st17{fill:url(#SVGID_00000092414849887185869850000002553595034380720271_);}
	.st18{fill:url(#SVGID_00000165205234568771960310000002943789944088266395_);}
	.st19{fill:url(#SVGID_00000167396048880359850090000011946932649506174876_);}
	.st20{fill:url(#SVGID_00000088106857764297817290000007425537594422064021_);}
	.st21{fill:url(#SVGID_00000140728722186310506470000000568126761545359273_);}
	.st22{fill:url(#SVGID_00000054974536425135944730000015215721670173986219_);}
	.st23{fill:url(#SVGID_00000133500757167787893450000009388115768092695427_);}
	.st24{fill:url(#SVGID_00000157304994581673326650000004784364408505714080_);}
	.st25{fill:url(#SVGID_00000128445825968346675560000007839772979175290757_);}
	.st26{fill:url(#SVGID_00000096744438311845527000000017688949211452425362_);}
	.st27{fill:url(#SVGID_00000078760372393678008870000011089906139316201623_);}
	.st28{fill:url(#SVGID_00000114061718461836808450000000265372775025182611_);}
	.st29{fill:url(#SVGID_00000048490572903370869790000011177394294048333975_);}
	.st30{fill:url(#SVGID_00000111174252114342395900000011751683915246198429_);}
	.st31{fill:url(#SVGID_00000142863436850697786030000014771302112563191441_);}
	.st32{fill:url(#SVGID_00000070101216851234839490000014395867515614922663_);}
	.st33{fill:url(#SVGID_00000009567586776503124840000007523873651401980574_);}
	.st34{fill:url(#SVGID_00000142176861762362354190000015211578028438718861_);}
	.st35{fill:url(#SVGID_00000079462033882760234240000001301288984930855858_);}
	.st36{fill:url(#SVGID_00000162340298342241905550000012238557034629311904_);}
	.st37{fill:url(#SVGID_00000091006833778810701540000012295854790469921966_);}
	.st38{fill:url(#SVGID_00000065073595409769279640000007117962609675288475_);}
	.st39{fill:url(#SVGID_00000137114646625338275170000006042073375407366539_);}
	.st40{fill:url(#SVGID_00000011753143484164375320000017848749760831256971_);}
	.st41{fill:url(#SVGID_00000039840592844783112710000003089869261037784496_);}
	.st42{fill:url(#SVGID_00000028296583261165848390000010621503574257201052_);}
	.st43{fill:url(#SVGID_00000141422536609687557470000016228964039892957622_);}
	.st44{fill:url(#SVGID_00000163053317791059012960000017983853545624195724_);}
	.st45{fill:url(#SVGID_00000106117639524963475940000017949773190165262987_);}
	.st46{fill:url(#SVGID_00000018231811235846331120000015091764611288939398_);}
	.st47{fill:url(#SVGID_00000081612819345041945490000007704292221278108311_);}
	.st48{fill:url(#SVGID_00000155142650584451693270000003383068032107707293_);}
	.st49{fill:url(#SVGID_00000120522935286405516640000009939488313880754567_);}
	.st50{fill:url(#SVGID_00000183217110973517667270000001193470846302157705_);}
	.st51{fill:url(#SVGID_00000179618494905648178900000016512679895415491254_);}
	.st52{fill:url(#SVGID_00000011721487657796849120000008942397230501551793_);}
	.st53{fill:url(#SVGID_00000017476469690959307070000009932456909368936351_);}
	.st54{fill:url(#SVGID_00000114034117719228178300000000223597756932339627_);}
</style>
<g>
	<g>
		<linearGradient id="SVGID_1_" gradientUnits="userSpaceOnUse" x1="197.1757" y1="47.8434" x2="423.3733" y2="302.2996">
			<stop  offset="0.2459" style="stop-color:#FAFAFA"/>
			<stop  offset="0.4701" style="stop-color:#D2D2D2"/>
			<stop  offset="0.6556" style="stop-color:#B9B9B9"/>
			<stop  offset="0.7664" style="stop-color:#AFAFAF"/>
		</linearGradient>
		<path class="st0" d="M391.8,160.9c-0.1,0-0.3,0-0.4,0c-4.1-44.2-41.2-78.8-86.5-78.8c-48,0-86.9,38.9-86.9,86.9
			c0,46.4,36.4,84.3,82.2,86.8v0.1h91.6c26.2,0,47.5-21.3,47.5-47.5S418.1,160.9,391.8,160.9z"/>
		
			<linearGradient id="SVGID_00000018938189394343669960000000689184677813150899_" gradientUnits="userSpaceOnUse" x1="89.8034" y1="157.6481" x2="351.9724" y2="328.4784">
			<stop  offset="0.1491" style="stop-color:#FAFAFA"/>
			<stop  offset="0.818" style="stop-color:#CBCBCB"/>
		</linearGradient>
		<path style="fill:url(#SVGID_00000018938189394343669960000000689184677813150899_);" d="M338.1,185.3
			c-14-47.8-58.1-82.7-110.5-82.7c-62.8,0-113.9,50.4-115.1,112.9c-29.2,3.4-51.9,28.3-51.9,58.5c0,32.5,26.4,58.9,58.9,58.9h209.8
			c40.9,0,74-33.1,74-74C403.4,220.9,374.9,189.6,338.1,185.3z"/>
	</g>
	<g>
		<path class="st2" d="M213.6,417.2L213.6,417.2c-4-1.8-5.8-6.4-4-10.4l23.4-53c1.8-4,6.4-5.8,10.4-4h0c4,1.8,5.8,6.4,4,10.4
			l-23.4,53C222.3,417.1,217.6,418.9,213.6,417.2z"/>
		<g>
			<g>
				
					<linearGradient id="SVGID_00000174595036637866739930000007389003319989282728_" gradientUnits="userSpaceOnUse" x1="141.1125" y1="300.231" x2="140.9875" y2="310.3852" gradientTransform="matrix(0.6483 0.7613 -0.6339 0.5398 268.9839 92.8411)">
					<stop  offset="0" style="stop-color:#FFFFFF"/>
					<stop  offset="0.2015" style="stop-color:#FFFFFF"/>
					<stop  offset="0.8512" style="stop-color:#26B2EF"/>
				</linearGradient>
				<path style="fill:url(#SVGID_00000174595036637866739930000007389003319989282728_);" d="M162,369.2L162,369.2
					c-0.7-0.8-0.6-2,0.2-2.6l3.9-3.3c0.8-0.7,2-0.6,2.6,0.2l0,0c0.7,0.8,0.6,2-0.2,2.6l-3.9,3.3C163.8,370,162.7,370,162,369.2z"/>
				
					<linearGradient id="SVGID_00000064338881397035953350000009666695218872062143_" gradientUnits="userSpaceOnUse" x1="84.4735" y1="380.1188" x2="84.3485" y2="390.273" gradientTransform="matrix(-0.6483 0.7613 0.6339 0.5398 -32.3852 92.8411)">
					<stop  offset="0" style="stop-color:#FFFFFF"/>
					<stop  offset="0.2015" style="stop-color:#FFFFFF"/>
					<stop  offset="0.8512" style="stop-color:#26B2EF"/>
				</linearGradient>
				<path style="fill:url(#SVGID_00000064338881397035953350000009666695218872062143_);" d="M162,369.2L162,369.2
					c0.7-0.8,0.6-2-0.2-2.6l-3.9-3.3c-0.8-0.7-2-0.6-2.6,0.2l0,0c-0.7,0.8-0.6,2,0.2,2.6l3.9,3.3C160.1,370,161.3,370,162,369.2z"/>
			</g>
			<g>
				
					<linearGradient id="SVGID_00000062872527749771575640000009029368607756048282_" gradientUnits="userSpaceOnUse" x1="171.7633" y1="399.4556" x2="171.6382" y2="409.6098" gradientTransform="matrix(0.9835 -0.1808 0.1505 0.8188 -81.2683 69.7654)">
					<stop  offset="0" style="stop-color:#FFFFFF"/>
					<stop  offset="0.2015" style="stop-color:#FFFFFF"/>
					<stop  offset="0.8512" style="stop-color:#26B2EF"/>
				</linearGradient>
				<path style="fill:url(#SVGID_00000062872527749771575640000009029368607756048282_);" d="M149.6,376.3L149.6,376.3
					c-1,0.2-2-0.5-2.2-1.5l-0.9-5.1c-0.2-1,0.5-2,1.5-2.2l0,0c1-0.2,2,0.5,2.2,1.5l0.9,5.1C151.3,375.1,150.6,376.1,149.6,376.3z"/>
				
					<linearGradient id="SVGID_00000165935889599875423440000002735097940823920565_" gradientUnits="userSpaceOnUse" x1="170.9115" y1="400.657" x2="170.7865" y2="410.8112" gradientTransform="matrix(0.3352 0.9422 0.7844 -0.2791 -231.9529 330.7587)">
					<stop  offset="0" style="stop-color:#FFFFFF"/>
					<stop  offset="0.2015" style="stop-color:#FFFFFF"/>
					<stop  offset="0.8512" style="stop-color:#26B2EF"/>
				</linearGradient>
				<path style="fill:url(#SVGID_00000165935889599875423440000002735097940823920565_);" d="M149.6,376.3L149.6,376.3
					c-0.3-1-1.4-1.5-2.4-1.1l-4.9,1.7c-1,0.3-1.5,1.4-1.1,2.4l0,0c0.3,1,1.4,1.5,2.4,1.1l4.9-1.7C149.4,378.4,150,377.3,149.6,376.3
					z"/>
			</g>
			<g>
				
					<linearGradient id="SVGID_00000038399914101300979490000009611392649056175010_" gradientUnits="userSpaceOnUse" x1="102.5856" y1="517.746" x2="102.4606" y2="527.9002" gradientTransform="matrix(0.3352 -0.9422 0.7844 0.2791 -300.896 339.0663)">
					<stop  offset="0" style="stop-color:#FFFFFF"/>
					<stop  offset="0.2015" style="stop-color:#FFFFFF"/>
					<stop  offset="0.8512" style="stop-color:#26B2EF"/>
				</linearGradient>
				<path style="fill:url(#SVGID_00000038399914101300979490000009611392649056175010_);" d="M149.6,390.5L149.6,390.5
					c-0.3,1-1.4,1.5-2.4,1.1l-4.9-1.7c-1-0.3-1.5-1.4-1.1-2.4l0,0c0.3-1,1.4-1.5,2.4-1.1l4.9,1.7C149.4,388.5,150,389.6,149.6,390.5
					z"/>
				
					<linearGradient id="SVGID_00000150810929477014291100000011975821167094214819_" gradientUnits="userSpaceOnUse" x1="257.117" y1="299.7834" x2="256.992" y2="309.9376" gradientTransform="matrix(0.9835 0.1808 0.1505 -0.8188 -150.2115 600.0596)">
					<stop  offset="0" style="stop-color:#FFFFFF"/>
					<stop  offset="0.2015" style="stop-color:#FFFFFF"/>
					<stop  offset="0.8512" style="stop-color:#26B2EF"/>
				</linearGradient>
				<path style="fill:url(#SVGID_00000150810929477014291100000011975821167094214819_);" d="M149.6,390.6L149.6,390.6
					c-1-0.2-2,0.5-2.2,1.5l-0.9,5.1c-0.2,1,0.5,2,1.5,2.2l0,0c1,0.2,2-0.5,2.2-1.5l0.9-5.1C151.3,391.7,150.6,390.8,149.6,390.6z"/>
			</g>
			<g>
				
					<linearGradient id="SVGID_00000067925542076317456000000006732172274831370637_" gradientUnits="userSpaceOnUse" x1="-61.5072" y1="347.9473" x2="-61.6322" y2="358.1015" gradientTransform="matrix(-0.9835 -0.1808 -0.1505 0.8188 168.0472 69.7654)">
					<stop  offset="0" style="stop-color:#FFFFFF"/>
					<stop  offset="0.2015" style="stop-color:#FFFFFF"/>
					<stop  offset="0.8512" style="stop-color:#26B2EF"/>
				</linearGradient>
				<path style="fill:url(#SVGID_00000067925542076317456000000006732172274831370637_);" d="M174.3,376.3L174.3,376.3
					c1,0.2,2-0.5,2.2-1.5l0.9-5.1c0.2-1-0.5-2-1.5-2.2l0,0c-1-0.2-2,0.5-2.2,1.5l-0.9,5.1C172.6,375.1,173.3,376.1,174.3,376.3z"/>
				
					<linearGradient id="SVGID_00000018211125083716172180000013604203585899037103_" gradientUnits="userSpaceOnUse" x1="91.4146" y1="132.2549" x2="91.2896" y2="142.4091" gradientTransform="matrix(-0.3352 0.9422 -0.7844 -0.2791 318.7318 330.7587)">
					<stop  offset="0" style="stop-color:#FFFFFF"/>
					<stop  offset="0.2015" style="stop-color:#FFFFFF"/>
					<stop  offset="0.8512" style="stop-color:#26B2EF"/>
				</linearGradient>
				<path style="fill:url(#SVGID_00000018211125083716172180000013604203585899037103_);" d="M174.3,376.3L174.3,376.3
					c0.3-1,1.4-1.5,2.4-1.1l4.9,1.7c1,0.3,1.5,1.4,1.1,2.4l0,0c-0.3,1-1.4,1.5-2.4,1.1l-4.9-1.7C174.5,378.4,174,377.3,174.3,376.3z
					"/>
			</g>
			<g>
				
					<linearGradient id="SVGID_00000050628304494502690690000015048834720737676950_" gradientUnits="userSpaceOnUse" x1="23.0887" y1="249.3439" x2="22.9637" y2="259.4981" gradientTransform="matrix(-0.3352 -0.9422 -0.7844 0.2791 387.6749 339.0663)">
					<stop  offset="0" style="stop-color:#FFFFFF"/>
					<stop  offset="0.2015" style="stop-color:#FFFFFF"/>
					<stop  offset="0.8512" style="stop-color:#26B2EF"/>
				</linearGradient>
				<path style="fill:url(#SVGID_00000050628304494502690690000015048834720737676950_);" d="M174.3,390.5L174.3,390.5
					c0.3,1,1.4,1.5,2.4,1.1l4.9-1.7c1-0.3,1.5-1.4,1.1-2.4l0,0c-0.3-1-1.4-1.5-2.4-1.1l-4.9,1.7C174.5,388.5,174,389.6,174.3,390.5z
					"/>
				
					<linearGradient id="SVGID_00000054250613924869177280000006399836454148978850_" gradientUnits="userSpaceOnUse" x1="23.8466" y1="248.275" x2="23.7215" y2="258.4292" gradientTransform="matrix(-0.9835 0.1808 -0.1505 -0.8188 236.9904 600.0596)">
					<stop  offset="0" style="stop-color:#FFFFFF"/>
					<stop  offset="0.2015" style="stop-color:#FFFFFF"/>
					<stop  offset="0.8512" style="stop-color:#26B2EF"/>
				</linearGradient>
				<path style="fill:url(#SVGID_00000054250613924869177280000006399836454148978850_);" d="M174.3,390.6L174.3,390.6
					c1-0.2,2,0.5,2.2,1.5l0.9,5.1c0.2,1-0.5,2-1.5,2.2l0,0c-1,0.2-2-0.5-2.2-1.5l-0.9-5.1C172.6,391.7,173.3,390.8,174.3,390.6z"/>
			</g>
			<g>
				
					<linearGradient id="SVGID_00000148625764465985039610000002780853555698590384_" gradientUnits="userSpaceOnUse" x1="-26.7496" y1="558.9184" x2="-26.8746" y2="569.0726" gradientTransform="matrix(-0.6483 -0.7613 0.6339 -0.5398 -217.8308 685.8648)">
					<stop  offset="0" style="stop-color:#FFFFFF"/>
					<stop  offset="0.2015" style="stop-color:#FFFFFF"/>
					<stop  offset="0.8512" style="stop-color:#26B2EF"/>
				</linearGradient>
				<path style="fill:url(#SVGID_00000148625764465985039610000002780853555698590384_);" d="M162,397.7L162,397.7
					c0.7,0.8,0.6,2-0.2,2.6l-3.9,3.3c-0.8,0.7-2,0.6-2.6-0.2l0,0c-0.7-0.8-0.6-2,0.2-2.6l3.9-3.3C160.1,396.8,161.3,396.9,162,397.7
					z"/>
				
					<linearGradient id="SVGID_00000139983135864387138030000010399754004903653558_" gradientUnits="userSpaceOnUse" x1="270.354" y1="139.8613" x2="270.229" y2="150.0155" gradientTransform="matrix(0.6483 -0.7613 -0.6339 -0.5398 83.5383 685.8648)">
					<stop  offset="0" style="stop-color:#FFFFFF"/>
					<stop  offset="0.2015" style="stop-color:#FFFFFF"/>
					<stop  offset="0.8512" style="stop-color:#26B2EF"/>
				</linearGradient>
				<path style="fill:url(#SVGID_00000139983135864387138030000010399754004903653558_);" d="M162,397.7L162,397.7
					c-0.7,0.8-0.6,2,0.2,2.6l3.9,3.3c0.8,0.7,2,0.6,2.6-0.2l0,0c0.7-0.8,0.6-2-0.2-2.6l-3.9-3.3C163.8,396.8,162.7,396.9,162,397.7z
					"/>
			</g>
			
				<radialGradient id="SVGID_00000033361415450081580130000005239429505982053269_" cx="161.9792" cy="383.4363" r="27.6659" gradientUnits="userSpaceOnUse">
				<stop  offset="0.2479" style="stop-color:#26B2EF"/>
				<stop  offset="0.8306" style="stop-color:#FFFFFF"/>
			</radialGradient>
			<path style="fill:url(#SVGID_00000033361415450081580130000005239429505982053269_);" d="M180.3,391.5l-14-8.1l14-8.1
				c1-0.6,1.4-1.9,0.8-2.9h0c-0.6-1-1.9-1.4-2.9-0.8l-14,8.1v-16.2c0-1.2-1-2.1-2.1-2.1c-1.2,0-2.1,1-2.1,2.1v16.2l-14-8.1
				c-1-0.6-2.3-0.2-2.9,0.8c-0.6,1-0.2,2.3,0.8,2.9l14,8.1l-14,8.1c-1,0.6-1.4,1.9-0.8,2.9c0.6,1,1.9,1.4,2.9,0.8l14-8.1v16.2
				c0,1.2,1,2.1,2.1,2.1c1.2,0,2.1-1,2.1-2.1v-16.2l14,8.1c1,0.6,2.3,0.2,2.9-0.8h0C181.7,393.4,181.3,392.1,180.3,391.5z"/>
		</g>
		<g>
			<g>
				
					<linearGradient id="SVGID_00000166650087274350768050000015332251856455708087_" gradientUnits="userSpaceOnUse" x1="230.7822" y1="157.2379" x2="230.6044" y2="171.6824" gradientTransform="matrix(0.6483 0.7613 -0.6339 0.5398 268.9839 92.8411)">
					<stop  offset="0" style="stop-color:#FFFFFF"/>
					<stop  offset="0.2015" style="stop-color:#FFFFFF"/>
					<stop  offset="0.8512" style="stop-color:#26B2EF"/>
				</linearGradient>
				<path style="fill:url(#SVGID_00000166650087274350768050000015332251856455708087_);" d="M307.3,363.1L307.3,363.1
					c-0.9-1.1-0.8-2.8,0.3-3.7l5.6-4.8c1.1-0.9,2.8-0.8,3.7,0.3l0,0c0.9,1.1,0.8,2.8-0.3,3.7l-5.6,4.8
					C309.9,364.4,308.3,364.3,307.3,363.1z"/>
				
					<linearGradient id="SVGID_00000012443525287309007460000014873619457655606145_" gradientUnits="userSpaceOnUse" x1="-14.2855" y1="502.8997" x2="-14.4633" y2="517.3442" gradientTransform="matrix(-0.6483 0.7613 0.6339 0.5398 -32.3852 92.8411)">
					<stop  offset="0" style="stop-color:#FFFFFF"/>
					<stop  offset="0.2015" style="stop-color:#FFFFFF"/>
					<stop  offset="0.8512" style="stop-color:#26B2EF"/>
				</linearGradient>
				<path style="fill:url(#SVGID_00000012443525287309007460000014873619457655606145_);" d="M307.3,363.1L307.3,363.1
					c0.9-1.1,0.8-2.8-0.3-3.7l-5.6-4.8c-1.1-0.9-2.8-0.8-3.7,0.3l0,0c-0.9,1.1-0.8,2.8,0.3,3.7l5.6,4.8
					C304.6,364.4,306.3,364.3,307.3,363.1z"/>
			</g>
			<g>
				
					<linearGradient id="SVGID_00000165206157495190057820000013876791099628115870_" gradientUnits="userSpaceOnUse" x1="310.1371" y1="420.9084" x2="309.9593" y2="435.353" gradientTransform="matrix(0.9835 -0.1808 0.1505 0.8188 -81.2683 69.7654)">
					<stop  offset="0" style="stop-color:#FFFFFF"/>
					<stop  offset="0.2015" style="stop-color:#FFFFFF"/>
					<stop  offset="0.8512" style="stop-color:#26B2EF"/>
				</linearGradient>
				<path style="fill:url(#SVGID_00000165206157495190057820000013876791099628115870_);" d="M289.7,373.3L289.7,373.3
					c-1.4,0.3-2.8-0.7-3.1-2.1l-1.3-7.2c-0.3-1.4,0.7-2.8,2.1-3.1l0,0c1.4-0.3,2.8,0.7,3.1,2.1l1.3,7.2
					C292.1,371.6,291.2,373,289.7,373.3z"/>
				
					<linearGradient id="SVGID_00000098941111057023516380000014707353333575454094_" gradientUnits="userSpaceOnUse" x1="215.0735" y1="554.9933" x2="214.8956" y2="569.4378" gradientTransform="matrix(0.3352 0.9422 0.7844 -0.2791 -231.9529 330.7587)">
					<stop  offset="0" style="stop-color:#FFFFFF"/>
					<stop  offset="0.2015" style="stop-color:#FFFFFF"/>
					<stop  offset="0.8512" style="stop-color:#26B2EF"/>
				</linearGradient>
				<path style="fill:url(#SVGID_00000098941111057023516380000014707353333575454094_);" d="M289.7,373.3L289.7,373.3
					c-0.5-1.4-2-2.1-3.4-1.6l-6.9,2.5c-1.4,0.5-2.1,2-1.6,3.4h0c0.5,1.4,2,2.1,3.4,1.6l6.9-2.5C289.5,376.2,290.2,374.7,289.7,373.3
					z"/>
			</g>
			<g>
				
					<linearGradient id="SVGID_00000033370258221039795810000014719666298819957386_" gradientUnits="userSpaceOnUse" x1="146.7476" y1="672.0823" x2="146.5697" y2="686.5269" gradientTransform="matrix(0.3352 -0.9422 0.7844 0.2791 -300.896 339.0663)">
					<stop  offset="0" style="stop-color:#FFFFFF"/>
					<stop  offset="0.2015" style="stop-color:#FFFFFF"/>
					<stop  offset="0.8512" style="stop-color:#26B2EF"/>
				</linearGradient>
				<path style="fill:url(#SVGID_00000033370258221039795810000014719666298819957386_);" d="M289.7,393.6L289.7,393.6
					c-0.5,1.4-2,2.1-3.4,1.6l-6.9-2.5c-1.4-0.5-2.1-2-1.6-3.4h0c0.5-1.4,2-2.1,3.4-1.6l6.9,2.5C289.5,390.7,290.2,392.2,289.7,393.6
					z"/>
				
					<linearGradient id="SVGID_00000121248284066436377850000001327494353265637802_" gradientUnits="userSpaceOnUse" x1="395.4908" y1="321.2362" x2="395.313" y2="335.6807" gradientTransform="matrix(0.9835 0.1808 0.1505 -0.8188 -150.2115 600.0596)">
					<stop  offset="0" style="stop-color:#FFFFFF"/>
					<stop  offset="0.2015" style="stop-color:#FFFFFF"/>
					<stop  offset="0.8512" style="stop-color:#26B2EF"/>
				</linearGradient>
				<path style="fill:url(#SVGID_00000121248284066436377850000001327494353265637802_);" d="M289.7,393.6L289.7,393.6
					c-1.4-0.3-2.8,0.7-3.1,2.1l-1.3,7.2c-0.3,1.4,0.7,2.8,2.1,3.1l0,0c1.4,0.3,2.8-0.7,3.1-2.1l1.3-7.2
					C292.1,395.3,291.2,393.9,289.7,393.6z"/>
			</g>
			<g>
				
					<linearGradient id="SVGID_00000176729449355780712810000013268918441483788991_" gradientUnits="userSpaceOnUse" x1="-208.9748" y1="306.2836" x2="-209.1526" y2="320.7281" gradientTransform="matrix(-0.9835 -0.1808 -0.1505 0.8188 168.0472 69.7654)">
					<stop  offset="0" style="stop-color:#FFFFFF"/>
					<stop  offset="0.2015" style="stop-color:#FFFFFF"/>
					<stop  offset="0.8512" style="stop-color:#26B2EF"/>
				</linearGradient>
				<path style="fill:url(#SVGID_00000176729449355780712810000013268918441483788991_);" d="M324.9,373.3L324.9,373.3
					c1.4,0.3,2.8-0.7,3.1-2.1l1.3-7.2c0.3-1.4-0.7-2.8-2.1-3.1h0c-1.4-0.3-2.8,0.7-3.1,2.1l-1.3,7.2
					C322.5,371.6,323.4,373,324.9,373.3z"/>
				
					<linearGradient id="SVGID_00000147918207654785448010000017336631858702816673_" gradientUnits="userSpaceOnUse" x1="38.1638" y1="-42.2992" x2="37.986" y2="-27.8546" gradientTransform="matrix(-0.3352 0.9422 -0.7844 -0.2791 318.7318 330.7587)">
					<stop  offset="0" style="stop-color:#FFFFFF"/>
					<stop  offset="0.2015" style="stop-color:#FFFFFF"/>
					<stop  offset="0.8512" style="stop-color:#26B2EF"/>
				</linearGradient>
				<path style="fill:url(#SVGID_00000147918207654785448010000017336631858702816673_);" d="M324.9,373.3L324.9,373.3
					c0.5-1.4,2-2.1,3.4-1.6l6.9,2.5c1.4,0.5,2.1,2,1.6,3.4l0,0c-0.5,1.4-2,2.1-3.4,1.6l-6.9-2.5
					C325.1,376.2,324.4,374.7,324.9,373.3z"/>
			</g>
			<g>
				
					<linearGradient id="SVGID_00000114788222509853482950000000415076070322430872_" gradientUnits="userSpaceOnUse" x1="-30.1621" y1="74.7898" x2="-30.3399" y2="89.2344" gradientTransform="matrix(-0.3352 -0.9422 -0.7844 0.2791 387.6749 339.0663)">
					<stop  offset="0" style="stop-color:#FFFFFF"/>
					<stop  offset="0.2015" style="stop-color:#FFFFFF"/>
					<stop  offset="0.8512" style="stop-color:#26B2EF"/>
				</linearGradient>
				<path style="fill:url(#SVGID_00000114788222509853482950000000415076070322430872_);" d="M324.9,393.6L324.9,393.6
					c0.5,1.4,2,2.1,3.4,1.6l6.9-2.5c1.4-0.5,2.1-2,1.6-3.4l0,0c-0.5-1.4-2-2.1-3.4-1.6l-6.9,2.5
					C325.1,390.7,324.4,392.2,324.9,393.6z"/>
				
					<linearGradient id="SVGID_00000067230921374856906980000003697442932689887128_" gradientUnits="userSpaceOnUse" x1="-123.621" y1="206.6113" x2="-123.7989" y2="221.0558" gradientTransform="matrix(-0.9835 0.1808 -0.1505 -0.8188 236.9904 600.0596)">
					<stop  offset="0" style="stop-color:#FFFFFF"/>
					<stop  offset="0.2015" style="stop-color:#FFFFFF"/>
					<stop  offset="0.8512" style="stop-color:#26B2EF"/>
				</linearGradient>
				<path style="fill:url(#SVGID_00000067230921374856906980000003697442932689887128_);" d="M324.9,393.6L324.9,393.6
					c1.4-0.3,2.8,0.7,3.1,2.1l1.3,7.2c0.3,1.4-0.7,2.8-2.1,3.1l0,0c-1.4,0.3-2.8-0.7-3.1-2.1l-1.3-7.2
					C322.5,395.3,323.4,393.9,324.9,393.6z"/>
			</g>
			<g>
				
					<linearGradient id="SVGID_00000117675007355803046090000016339782914838833337_" gradientUnits="userSpaceOnUse" x1="-125.5086" y1="681.6992" x2="-125.6864" y2="696.1437" gradientTransform="matrix(-0.6483 -0.7613 0.6339 -0.5398 -217.8308 685.8648)">
					<stop  offset="0" style="stop-color:#FFFFFF"/>
					<stop  offset="0.2015" style="stop-color:#FFFFFF"/>
					<stop  offset="0.8512" style="stop-color:#26B2EF"/>
				</linearGradient>
				<path style="fill:url(#SVGID_00000117675007355803046090000016339782914838833337_);" d="M307.3,403.7L307.3,403.7
					c0.9,1.1,0.8,2.8-0.3,3.7l-5.6,4.8c-1.1,0.9-2.8,0.8-3.7-0.3l0,0c-0.9-1.1-0.8-2.8,0.3-3.7l5.6-4.8
					C304.6,402.5,306.3,402.6,307.3,403.7z"/>
				
					<linearGradient id="SVGID_00000181051946624241931410000013883110631427232191_" gradientUnits="userSpaceOnUse" x1="360.0237" y1="-3.1318" x2="359.8459" y2="11.3127" gradientTransform="matrix(0.6483 -0.7613 -0.6339 -0.5398 83.5383 685.8648)">
					<stop  offset="0" style="stop-color:#FFFFFF"/>
					<stop  offset="0.2015" style="stop-color:#FFFFFF"/>
					<stop  offset="0.8512" style="stop-color:#26B2EF"/>
				</linearGradient>
				<path style="fill:url(#SVGID_00000181051946624241931410000013883110631427232191_);" d="M307.3,403.7L307.3,403.7
					c-0.9,1.1-0.8,2.8,0.3,3.7l5.6,4.8c1.1,0.9,2.8,0.8,3.7-0.3l0,0c0.9-1.1,0.8-2.8-0.3-3.7l-5.6-4.8
					C309.9,402.5,308.3,402.6,307.3,403.7z"/>
			</g>
			
				<radialGradient id="SVGID_00000068663980852132882010000017266120653679131533_" cx="307.2949" cy="383.4363" r="39.3553" gradientUnits="userSpaceOnUse">
				<stop  offset="0.2479" style="stop-color:#26B2EF"/>
				<stop  offset="0.8306" style="stop-color:#FFFFFF"/>
			</radialGradient>
			<path style="fill:url(#SVGID_00000068663980852132882010000017266120653679131533_);" d="M333.4,394.9l-19.9-11.5l19.9-11.5
				c1.5-0.8,2-2.7,1.1-4.2h0c-0.8-1.5-2.7-2-4.2-1.1l-20,11.5v-23c0-1.7-1.4-3.1-3.1-3.1c-1.7,0-3.1,1.4-3.1,3.1v23l-20-11.5
				c-1.5-0.8-3.3-0.3-4.2,1.1c-0.8,1.5-0.3,3.3,1.1,4.2l19.9,11.5l-19.9,11.5c-1.5,0.8-2,2.7-1.1,4.2s2.7,2,4.2,1.1l20-11.5v23
				c0,1.7,1.4,3.1,3.1,3.1c1.7,0,3.1-1.4,3.1-3.1v-23l20,11.5c1.5,0.8,3.3,0.3,4.2-1.1h0C335.3,397.7,334.8,395.8,333.4,394.9z"/>
		</g>
		<g>
			<g>
				
					<linearGradient id="SVGID_00000101782119931583640630000010287787078477445813_" gradientUnits="userSpaceOnUse" x1="282.9529" y1="83.6525" x2="282.775" y2="98.097" gradientTransform="matrix(0.6483 0.7613 -0.6339 0.5398 268.9839 92.8411)">
					<stop  offset="0" style="stop-color:#FFFFFF"/>
					<stop  offset="0.2015" style="stop-color:#FFFFFF"/>
					<stop  offset="0.8512" style="stop-color:#26B2EF"/>
				</linearGradient>
				<path style="fill:url(#SVGID_00000101782119931583640630000010287787078477445813_);" d="M387.8,363.1L387.8,363.1
					c-0.9-1.1-0.8-2.8,0.3-3.7l5.6-4.8c1.1-0.9,2.8-0.8,3.7,0.3l0,0c0.9,1.1,0.8,2.8-0.3,3.7l-5.6,4.8
					C390.4,364.4,388.7,364.3,387.8,363.1z"/>
				
					<linearGradient id="SVGID_00000062901711908802788170000015998253923501831867_" gradientUnits="userSpaceOnUse" x1="-66.4561" y1="576.485" x2="-66.6339" y2="590.9296" gradientTransform="matrix(-0.6483 0.7613 0.6339 0.5398 -32.3852 92.8411)">
					<stop  offset="0" style="stop-color:#FFFFFF"/>
					<stop  offset="0.2015" style="stop-color:#FFFFFF"/>
					<stop  offset="0.8512" style="stop-color:#26B2EF"/>
				</linearGradient>
				<path style="fill:url(#SVGID_00000062901711908802788170000015998253923501831867_);" d="M387.7,363.1L387.7,363.1
					c0.9-1.1,0.8-2.8-0.3-3.7l-5.6-4.8c-1.1-0.9-2.8-0.8-3.7,0.3l0,0c-0.9,1.1-0.8,2.8,0.3,3.7l5.6,4.8
					C385.1,364.4,386.8,364.3,387.7,363.1z"/>
			</g>
			<g>
				
					<linearGradient id="SVGID_00000080165650426867543800000008450674817521856959_" gradientUnits="userSpaceOnUse" x1="389.2786" y1="438.3836" x2="389.1008" y2="452.8282" gradientTransform="matrix(0.9835 -0.1808 0.1505 0.8188 -81.2683 69.7654)">
					<stop  offset="0" style="stop-color:#FFFFFF"/>
					<stop  offset="0.2015" style="stop-color:#FFFFFF"/>
					<stop  offset="0.8512" style="stop-color:#26B2EF"/>
				</linearGradient>
				<path style="fill:url(#SVGID_00000080165650426867543800000008450674817521856959_);" d="M370.2,373.3L370.2,373.3
					c-1.4,0.3-2.8-0.7-3.1-2.1l-1.3-7.2c-0.3-1.4,0.7-2.8,2.1-3.1l0,0c1.4-0.3,2.8,0.7,3.1,2.1l1.3,7.2
					C372.6,371.6,371.6,373,370.2,373.3z"/>
				
					<linearGradient id="SVGID_00000078764170294419876430000008026836523938506942_" gradientUnits="userSpaceOnUse" x1="242.0443" y1="646.0539" x2="241.8665" y2="660.4984" gradientTransform="matrix(0.3352 0.9422 0.7844 -0.2791 -231.9529 330.7587)">
					<stop  offset="0" style="stop-color:#FFFFFF"/>
					<stop  offset="0.2015" style="stop-color:#FFFFFF"/>
					<stop  offset="0.8512" style="stop-color:#26B2EF"/>
				</linearGradient>
				<path style="fill:url(#SVGID_00000078764170294419876430000008026836523938506942_);" d="M370.2,373.3L370.2,373.3
					c-0.5-1.4-2-2.1-3.4-1.6l-6.9,2.5c-1.4,0.5-2.1,2-1.6,3.4l0,0c0.5,1.4,2,2.1,3.4,1.6l6.9-2.5
					C369.9,376.2,370.7,374.7,370.2,373.3z"/>
			</g>
			<g>
				
					<linearGradient id="SVGID_00000181083700911889062910000001942531706049268896_" gradientUnits="userSpaceOnUse" x1="173.7184" y1="763.1429" x2="173.5406" y2="777.5874" gradientTransform="matrix(0.3352 -0.9422 0.7844 0.2791 -300.896 339.0663)">
					<stop  offset="0" style="stop-color:#FFFFFF"/>
					<stop  offset="0.2015" style="stop-color:#FFFFFF"/>
					<stop  offset="0.8512" style="stop-color:#26B2EF"/>
				</linearGradient>
				<path style="fill:url(#SVGID_00000181083700911889062910000001942531706049268896_);" d="M370.2,393.6L370.2,393.6
					c-0.5,1.4-2,2.1-3.4,1.6l-6.9-2.5c-1.4-0.5-2.1-2-1.6-3.4l0,0c0.5-1.4,2-2.1,3.4-1.6l6.9,2.5
					C369.9,390.7,370.7,392.2,370.2,393.6z"/>
				
					<linearGradient id="SVGID_00000096044611980211076560000000382889784323151801_" gradientUnits="userSpaceOnUse" x1="474.6324" y1="338.7114" x2="474.4545" y2="353.1559" gradientTransform="matrix(0.9835 0.1808 0.1505 -0.8188 -150.2115 600.0596)">
					<stop  offset="0" style="stop-color:#FFFFFF"/>
					<stop  offset="0.2015" style="stop-color:#FFFFFF"/>
					<stop  offset="0.8512" style="stop-color:#26B2EF"/>
				</linearGradient>
				<path style="fill:url(#SVGID_00000096044611980211076560000000382889784323151801_);" d="M370.2,393.6L370.2,393.6
					c-1.4-0.3-2.8,0.7-3.1,2.1l-1.3,7.2c-0.3,1.4,0.7,2.8,2.1,3.1l0,0c1.4,0.3,2.8-0.7,3.1-2.1l1.3-7.2
					C372.6,395.3,371.6,393.9,370.2,393.6z"/>
			</g>
			<g>
				
					<linearGradient id="SVGID_00000005248108955560081200000013994041056989616034_" gradientUnits="userSpaceOnUse" x1="-288.1163" y1="288.8084" x2="-288.2942" y2="303.2529" gradientTransform="matrix(-0.9835 -0.1808 -0.1505 0.8188 168.0472 69.7654)">
					<stop  offset="0" style="stop-color:#FFFFFF"/>
					<stop  offset="0.2015" style="stop-color:#FFFFFF"/>
					<stop  offset="0.8512" style="stop-color:#26B2EF"/>
				</linearGradient>
				<path style="fill:url(#SVGID_00000005248108955560081200000013994041056989616034_);" d="M405.3,373.3L405.3,373.3
					c1.4,0.3,2.8-0.7,3.1-2.1l1.3-7.2c0.3-1.4-0.7-2.8-2.1-3.1h0c-1.4-0.3-2.8,0.7-3.1,2.1l-1.3,7.2
					C402.9,371.6,403.9,373,405.3,373.3z"/>
				
					<linearGradient id="SVGID_00000095334718658485406700000017545457269829076913_" gradientUnits="userSpaceOnUse" x1="11.1929" y1="-133.3598" x2="11.0151" y2="-118.9152" gradientTransform="matrix(-0.3352 0.9422 -0.7844 -0.2791 318.7318 330.7587)">
					<stop  offset="0" style="stop-color:#FFFFFF"/>
					<stop  offset="0.2015" style="stop-color:#FFFFFF"/>
					<stop  offset="0.8512" style="stop-color:#26B2EF"/>
				</linearGradient>
				<path style="fill:url(#SVGID_00000095334718658485406700000017545457269829076913_);" d="M405.4,373.3L405.4,373.3
					c0.5-1.4,2-2.1,3.4-1.6l6.9,2.5c1.4,0.5,2.1,2,1.6,3.4l0,0c-0.5,1.4-2,2.1-3.4,1.6l-6.9-2.5
					C405.6,376.2,404.9,374.7,405.4,373.3z"/>
			</g>
			<g>
				
					<linearGradient id="SVGID_00000087389740954666950650000013703572707192345476_" gradientUnits="userSpaceOnUse" x1="-57.133" y1="-16.2708" x2="-57.3108" y2="-1.8262" gradientTransform="matrix(-0.3352 -0.9422 -0.7844 0.2791 387.6749 339.0663)">
					<stop  offset="0" style="stop-color:#FFFFFF"/>
					<stop  offset="0.2015" style="stop-color:#FFFFFF"/>
					<stop  offset="0.8512" style="stop-color:#26B2EF"/>
				</linearGradient>
				<path style="fill:url(#SVGID_00000087389740954666950650000013703572707192345476_);" d="M405.4,393.6L405.4,393.6
					c0.5,1.4,2,2.1,3.4,1.6l6.9-2.5c1.4-0.5,2.1-2,1.6-3.4l0,0c-0.5-1.4-2-2.1-3.4-1.6l-6.9,2.5
					C405.6,390.7,404.9,392.2,405.4,393.6z"/>
				
					<linearGradient id="SVGID_00000062185114041685777700000011281754442206096512_" gradientUnits="userSpaceOnUse" x1="-202.7626" y1="189.1361" x2="-202.9404" y2="203.5806" gradientTransform="matrix(-0.9835 0.1808 -0.1505 -0.8188 236.9904 600.0596)">
					<stop  offset="0" style="stop-color:#FFFFFF"/>
					<stop  offset="0.2015" style="stop-color:#FFFFFF"/>
					<stop  offset="0.8512" style="stop-color:#26B2EF"/>
				</linearGradient>
				<path style="fill:url(#SVGID_00000062185114041685777700000011281754442206096512_);" d="M405.3,393.6L405.3,393.6
					c1.4-0.3,2.8,0.7,3.1,2.1l1.3,7.2c0.3,1.4-0.7,2.8-2.1,3.1l0,0c-1.4,0.3-2.8-0.7-3.1-2.1l-1.3-7.2
					C402.9,395.3,403.9,393.9,405.3,393.6z"/>
			</g>
			<g>
				
					<linearGradient id="SVGID_00000116943930326004183770000017358075608281377159_" gradientUnits="userSpaceOnUse" x1="-177.6792" y1="755.2846" x2="-177.857" y2="769.7291" gradientTransform="matrix(-0.6483 -0.7613 0.6339 -0.5398 -217.8308 685.8648)">
					<stop  offset="0" style="stop-color:#FFFFFF"/>
					<stop  offset="0.2015" style="stop-color:#FFFFFF"/>
					<stop  offset="0.8512" style="stop-color:#26B2EF"/>
				</linearGradient>
				<path style="fill:url(#SVGID_00000116943930326004183770000017358075608281377159_);" d="M387.7,403.7L387.7,403.7
					c0.9,1.1,0.8,2.8-0.3,3.7l-5.6,4.8c-1.1,0.9-2.8,0.8-3.7-0.3l0,0c-0.9-1.1-0.8-2.8,0.3-3.7l5.6-4.8
					C385.1,402.5,386.8,402.6,387.7,403.7z"/>
				
					<linearGradient id="SVGID_00000162319356947452040580000016404856032091650691_" gradientUnits="userSpaceOnUse" x1="412.1943" y1="-76.7172" x2="412.0165" y2="-62.2727" gradientTransform="matrix(0.6483 -0.7613 -0.6339 -0.5398 83.5383 685.8648)">
					<stop  offset="0" style="stop-color:#FFFFFF"/>
					<stop  offset="0.2015" style="stop-color:#FFFFFF"/>
					<stop  offset="0.8512" style="stop-color:#26B2EF"/>
				</linearGradient>
				<path style="fill:url(#SVGID_00000162319356947452040580000016404856032091650691_);" d="M387.8,403.7L387.8,403.7
					c-0.9,1.1-0.8,2.8,0.3,3.7l5.6,4.8c1.1,0.9,2.8,0.8,3.7-0.3l0,0c0.9-1.1,0.8-2.8-0.3-3.7l-5.6-4.8
					C390.4,402.5,388.7,402.6,387.8,403.7z"/>
			</g>
			
				<radialGradient id="SVGID_00000000911290154899767440000009635841109436434056_" cx="387.7627" cy="383.4363" r="39.3553" gradientUnits="userSpaceOnUse">
				<stop  offset="0.2479" style="stop-color:#26B2EF"/>
				<stop  offset="0.8306" style="stop-color:#FFFFFF"/>
			</radialGradient>
			<path style="fill:url(#SVGID_00000000911290154899767440000009635841109436434056_);" d="M413.8,394.9l-19.9-11.5l19.9-11.5
				c1.5-0.8,2-2.7,1.1-4.2h0c-0.8-1.5-2.7-2-4.2-1.1l-20,11.5v-23c0-1.7-1.4-3.1-3.1-3.1c-1.7,0-3.1,1.4-3.1,3.1v23l-20-11.5
				c-1.5-0.8-3.3-0.3-4.2,1.1c-0.8,1.5-0.3,3.3,1.1,4.2l19.9,11.5l-19.9,11.5c-1.5,0.8-2,2.7-1.1,4.2s2.7,2,4.2,1.1l20-11.5v23
				c0,1.7,1.4,3.1,3.1,3.1c1.7,0,3.1-1.4,3.1-3.1v-23l20,11.5c1.5,0.8,3.3,0.3,4.2-1.1h0C415.8,397.7,415.3,395.8,413.8,394.9z"/>
		</g>
		<g>
			<g>
				
					<linearGradient id="SVGID_00000085962096046409947090000009720247111814086820_" gradientUnits="userSpaceOnUse" x1="103.1505" y1="353.7754" x2="103.0255" y2="363.9296" gradientTransform="matrix(0.6483 0.7613 -0.6339 0.5398 268.9839 92.8411)">
					<stop  offset="0" style="stop-color:#FFFFFF"/>
					<stop  offset="0.2015" style="stop-color:#FFFFFF"/>
					<stop  offset="0.8512" style="stop-color:#26B2EF"/>
				</linearGradient>
				<path style="fill:url(#SVGID_00000085962096046409947090000009720247111814086820_);" d="M103.4,369.2L103.4,369.2
					c-0.7-0.8-0.6-2,0.2-2.6l3.9-3.3c0.8-0.7,2-0.6,2.6,0.2l0,0c0.7,0.8,0.6,2-0.2,2.6l-3.9,3.3C105.3,370,104.1,370,103.4,369.2z"
					/>
				
					<linearGradient id="SVGID_00000010299225786855258920000015060672987511832736_" gradientUnits="userSpaceOnUse" x1="122.4355" y1="326.5744" x2="122.3105" y2="336.7286" gradientTransform="matrix(-0.6483 0.7613 0.6339 0.5398 -32.3852 92.8411)">
					<stop  offset="0" style="stop-color:#FFFFFF"/>
					<stop  offset="0.2015" style="stop-color:#FFFFFF"/>
					<stop  offset="0.8512" style="stop-color:#26B2EF"/>
				</linearGradient>
				<path style="fill:url(#SVGID_00000010299225786855258920000015060672987511832736_);" d="M103.4,369.2L103.4,369.2
					c0.7-0.8,0.6-2-0.2-2.6l-3.9-3.3c-0.8-0.7-2-0.6-2.6,0.2l0,0c-0.7,0.8-0.6,2,0.2,2.6l3.9,3.3C101.6,370,102.7,370,103.4,369.2z"
					/>
			</g>
			<g>
				
					<linearGradient id="SVGID_00000112634222553907024680000009022092243242053795_" gradientUnits="userSpaceOnUse" x1="114.1759" y1="386.7398" x2="114.0509" y2="396.894" gradientTransform="matrix(0.9835 -0.1808 0.1505 0.8188 -81.2683 69.7654)">
					<stop  offset="0" style="stop-color:#FFFFFF"/>
					<stop  offset="0.2015" style="stop-color:#FFFFFF"/>
					<stop  offset="0.8512" style="stop-color:#26B2EF"/>
				</linearGradient>
				<path style="fill:url(#SVGID_00000112634222553907024680000009022092243242053795_);" d="M91.1,376.3L91.1,376.3
					c-1,0.2-2-0.5-2.2-1.5l-0.9-5.1c-0.2-1,0.5-2,1.5-2.2h0c1-0.2,2,0.5,2.2,1.5l0.9,5.1C92.8,375.1,92.1,376.1,91.1,376.3z"/>
				
					<linearGradient id="SVGID_00000021801979554286805120000003015242420066892957_" gradientUnits="userSpaceOnUse" x1="151.2862" y1="334.3967" x2="151.1611" y2="344.5509" gradientTransform="matrix(0.3352 0.9422 0.7844 -0.2791 -231.9529 330.7587)">
					<stop  offset="0" style="stop-color:#FFFFFF"/>
					<stop  offset="0.2015" style="stop-color:#FFFFFF"/>
					<stop  offset="0.8512" style="stop-color:#26B2EF"/>
				</linearGradient>
				<path style="fill:url(#SVGID_00000021801979554286805120000003015242420066892957_);" d="M91.1,376.3L91.1,376.3
					c-0.3-1-1.4-1.5-2.4-1.1l-4.9,1.7c-1,0.3-1.5,1.4-1.1,2.4l0,0c0.3,1,1.4,1.5,2.4,1.1l4.9-1.7C90.9,378.4,91.4,377.3,91.1,376.3z
					"/>
			</g>
			<g>
				
					<linearGradient id="SVGID_00000029751613139420852900000007309641620140468610_" gradientUnits="userSpaceOnUse" x1="82.9603" y1="451.4857" x2="82.8353" y2="461.6399" gradientTransform="matrix(0.3352 -0.9422 0.7844 0.2791 -300.896 339.0663)">
					<stop  offset="0" style="stop-color:#FFFFFF"/>
					<stop  offset="0.2015" style="stop-color:#FFFFFF"/>
					<stop  offset="0.8512" style="stop-color:#26B2EF"/>
				</linearGradient>
				<path style="fill:url(#SVGID_00000029751613139420852900000007309641620140468610_);" d="M91.1,390.5L91.1,390.5
					c-0.3,1-1.4,1.5-2.4,1.1l-4.9-1.7c-1-0.3-1.5-1.4-1.1-2.4l0,0c0.3-1,1.4-1.5,2.4-1.1l4.9,1.7C90.9,388.5,91.4,389.6,91.1,390.5z
					"/>
				
					<linearGradient id="SVGID_00000065754609637845232570000011765585593735454627_" gradientUnits="userSpaceOnUse" x1="199.5296" y1="287.0675" x2="199.4046" y2="297.2217" gradientTransform="matrix(0.9835 0.1808 0.1505 -0.8188 -150.2115 600.0596)">
					<stop  offset="0" style="stop-color:#FFFFFF"/>
					<stop  offset="0.2015" style="stop-color:#FFFFFF"/>
					<stop  offset="0.8512" style="stop-color:#26B2EF"/>
				</linearGradient>
				<path style="fill:url(#SVGID_00000065754609637845232570000011765585593735454627_);" d="M91.1,390.6L91.1,390.6
					c-1-0.2-2,0.5-2.2,1.5l-0.9,5.1c-0.2,1,0.5,2,1.5,2.2h0c1,0.2,2-0.5,2.2-1.5l0.9-5.1C92.8,391.7,92.1,390.8,91.1,390.6z"/>
			</g>
			<g>
				
					<linearGradient id="SVGID_00000041263881253711941300000000555505135802719147_" gradientUnits="userSpaceOnUse" x1="-3.9198" y1="360.6631" x2="-4.0448" y2="370.8173" gradientTransform="matrix(-0.9835 -0.1808 -0.1505 0.8188 168.0472 69.7654)">
					<stop  offset="0" style="stop-color:#FFFFFF"/>
					<stop  offset="0.2015" style="stop-color:#FFFFFF"/>
					<stop  offset="0.8512" style="stop-color:#26B2EF"/>
				</linearGradient>
				<path style="fill:url(#SVGID_00000041263881253711941300000000555505135802719147_);" d="M115.8,376.3L115.8,376.3
					c1,0.2,2-0.5,2.2-1.5l0.9-5.1c0.2-1-0.5-2-1.5-2.2l0,0c-1-0.2-2,0.5-2.2,1.5l-0.9,5.1C114.1,375.1,114.8,376.1,115.8,376.3z"/>
				
					<linearGradient id="SVGID_00000096037034602611823200000017833285181338286220_" gradientUnits="userSpaceOnUse" x1="111.04" y1="198.5152" x2="110.915" y2="208.6694" gradientTransform="matrix(-0.3352 0.9422 -0.7844 -0.2791 318.7318 330.7587)">
					<stop  offset="0" style="stop-color:#FFFFFF"/>
					<stop  offset="0.2015" style="stop-color:#FFFFFF"/>
					<stop  offset="0.8512" style="stop-color:#26B2EF"/>
				</linearGradient>
				<path style="fill:url(#SVGID_00000096037034602611823200000017833285181338286220_);" d="M115.8,376.3L115.8,376.3
					c0.3-1,1.4-1.5,2.4-1.1l4.9,1.7c1,0.3,1.5,1.4,1.1,2.4l0,0c-0.3,1-1.4,1.5-2.4,1.1l-4.9-1.7C116,378.4,115.5,377.3,115.8,376.3z
					"/>
			</g>
			<g>
				
					<linearGradient id="SVGID_00000075154104341334097060000005917472870420392846_" gradientUnits="userSpaceOnUse" x1="42.7141" y1="315.6042" x2="42.5891" y2="325.7584" gradientTransform="matrix(-0.3352 -0.9422 -0.7844 0.2791 387.6749 339.0663)">
					<stop  offset="0" style="stop-color:#FFFFFF"/>
					<stop  offset="0.2015" style="stop-color:#FFFFFF"/>
					<stop  offset="0.8512" style="stop-color:#26B2EF"/>
				</linearGradient>
				<path style="fill:url(#SVGID_00000075154104341334097060000005917472870420392846_);" d="M115.8,390.5L115.8,390.5
					c0.3,1,1.4,1.5,2.4,1.1l4.9-1.7c1-0.3,1.5-1.4,1.1-2.4l0,0c-0.3-1-1.4-1.5-2.4-1.1l-4.9,1.7C116,388.5,115.5,389.6,115.8,390.5z
					"/>
				
					<linearGradient id="SVGID_00000084528068224832022680000003260604375389312424_" gradientUnits="userSpaceOnUse" x1="81.4339" y1="260.9909" x2="81.3089" y2="271.1451" gradientTransform="matrix(-0.9835 0.1808 -0.1505 -0.8188 236.9904 600.0596)">
					<stop  offset="0" style="stop-color:#FFFFFF"/>
					<stop  offset="0.2015" style="stop-color:#FFFFFF"/>
					<stop  offset="0.8512" style="stop-color:#26B2EF"/>
				</linearGradient>
				<path style="fill:url(#SVGID_00000084528068224832022680000003260604375389312424_);" d="M115.8,390.6L115.8,390.6
					c1-0.2,2,0.5,2.2,1.5l0.9,5.1c0.2,1-0.5,2-1.5,2.2l0,0c-1,0.2-2-0.5-2.2-1.5l-0.9-5.1C114.1,391.7,114.8,390.8,115.8,390.6z"/>
			</g>
			<g>
				
					<linearGradient id="SVGID_00000074412827819809730630000010389905189827117479_" gradientUnits="userSpaceOnUse" x1="11.2124" y1="505.3739" x2="11.0874" y2="515.5281" gradientTransform="matrix(-0.6483 -0.7613 0.6339 -0.5398 -217.8308 685.8648)">
					<stop  offset="0" style="stop-color:#FFFFFF"/>
					<stop  offset="0.2015" style="stop-color:#FFFFFF"/>
					<stop  offset="0.8512" style="stop-color:#26B2EF"/>
				</linearGradient>
				<path style="fill:url(#SVGID_00000074412827819809730630000010389905189827117479_);" d="M103.4,397.7L103.4,397.7
					c0.7,0.8,0.6,2-0.2,2.6l-3.9,3.3c-0.8,0.7-2,0.6-2.6-0.2l0,0c-0.7-0.8-0.6-2,0.2-2.6l3.9-3.3
					C101.6,396.8,102.7,396.9,103.4,397.7z"/>
				
					<linearGradient id="SVGID_00000136391612689242523520000003558061626778275000_" gradientUnits="userSpaceOnUse" x1="232.392" y1="193.4057" x2="232.267" y2="203.56" gradientTransform="matrix(0.6483 -0.7613 -0.6339 -0.5398 83.5383 685.8648)">
					<stop  offset="0" style="stop-color:#FFFFFF"/>
					<stop  offset="0.2015" style="stop-color:#FFFFFF"/>
					<stop  offset="0.8512" style="stop-color:#26B2EF"/>
				</linearGradient>
				<path style="fill:url(#SVGID_00000136391612689242523520000003558061626778275000_);" d="M103.4,397.7L103.4,397.7
					c-0.7,0.8-0.6,2,0.2,2.6l3.9,3.3c0.8,0.7,2,0.6,2.6-0.2l0,0c0.7-0.8,0.6-2-0.2-2.6l-3.9-3.3
					C105.3,396.8,104.1,396.9,103.4,397.7z"/>
			</g>
			
				<radialGradient id="SVGID_00000142855471310296465840000015917162752757540004_" cx="103.4268" cy="383.4363" r="27.6659" gradientUnits="userSpaceOnUse">
				<stop  offset="0.2479" style="stop-color:#26B2EF"/>
				<stop  offset="0.8306" style="stop-color:#FFFFFF"/>
			</radialGradient>
			<path style="fill:url(#SVGID_00000142855471310296465840000015917162752757540004_);" d="M121.7,391.5l-14-8.1l14-8.1
				c1-0.6,1.4-1.9,0.8-2.9h0c-0.6-1-1.9-1.4-2.9-0.8l-14,8.1v-16.2c0-1.2-1-2.1-2.1-2.1c-1.2,0-2.1,1-2.1,2.1v16.2l-14-8.1
				c-1-0.6-2.3-0.2-2.9,0.8c-0.6,1-0.2,2.3,0.8,2.9l14,8.1l-14,8.1c-1,0.6-1.4,1.9-0.8,2.9s1.9,1.4,2.9,0.8l14-8.1v16.2
				c0,1.2,1,2.1,2.1,2.1c1.2,0,2.1-1,2.1-2.1v-16.2l14,8.1c1,0.6,2.3,0.2,2.9-0.8h0C123.1,393.4,122.8,392.1,121.7,391.5z"/>
		</g>
	</g>
</g>
</svg>
