<?xml version="1.0" encoding="utf-8"?>
<!-- Generator: Adobe Illustrator 26.0.3, SVG Export Plug-In . SVG Version: 6.00 Build 0)  -->
<svg version="1.1" id="图层_1" xmlns="http://www.w3.org/2000/svg" xmlns:xlink="http://www.w3.org/1999/xlink" x="0px" y="0px"
	 viewBox="0 0 500 500" style="enable-background:new 0 0 500 500;" xml:space="preserve">
<style type="text/css">
	.st0{fill:url(#SVGID_1_);}
	.st1{fill:#A67C52;}
	.st2{fill:#F2F2F2;}
	.st3{fill:none;stroke:#E6E6E6;stroke-width:14;stroke-miterlimit:10;}
	.st4{fill:#F7931E;}
	.st5{fill:#FBB03B;}
	.st6{fill:url(#SVGID_00000172431535375929346730000004023964042439736241_);}
	.st7{fill:url(#SVGID_00000132075705402767414300000001557570974354266765_);}
	.st8{fill:url(#SVGID_00000103954174033356290840000007558692944454357431_);}
	.st9{fill:url(#SVGID_00000145050318656558780200000008458138501603090315_);}
	.st10{fill:url(#SVGID_00000119081525875027090080000006927540606168040340_);}
	.st11{fill:url(#SVGID_00000139982958813432983110000001996399318884937107_);}
	.st12{fill:url(#SVGID_00000085235967682031661480000018062349142251265950_);}
	.st13{fill:url(#SVGID_00000139998112060000070990000015943456610112036013_);}
	.st14{fill:url(#SVGID_00000143584897192364202430000003953349577225702291_);}
</style>
<linearGradient id="SVGID_1_" gradientUnits="userSpaceOnUse" x1="91.8692" y1="375.649" x2="181.9266" y2="408.7574">
	<stop  offset="0.267" style="stop-color:#FFFFFF"/>
	<stop  offset="0.9313" style="stop-color:#E6E6E6"/>
</linearGradient>
<path class="st0" d="M82.1,395.6c17.7-15.8,31.8-33.5,45.9-33c15.6,0.5,33.7,23.5,48.4,39.4c9.2,10-34.6,6-54.1,3.8
	C111.9,404.7,74.4,402.5,82.1,395.6z"/>
<g>
	<path class="st1" d="M139.6,245.2l34.5,25.4c1.5,1.1,3.7,0.8,4.8-0.7l0,0c1.1-1.5,0.8-3.7-0.7-4.8l-34.5-25.4
		c-1.5-1.1-3.7-0.8-4.8,0.7v0C137.7,241.9,138,244.1,139.6,245.2z"/>
	<g>
		<circle class="st2" cx="249.3" cy="315.3" r="96.7"/>
	</g>
	<path class="st3" d="M457.4,401.9"/>
	<path class="st3" d="M42.6,401.9"/>
	<g>
		<path class="st2" d="M303,197.4c0,29.5-23.9,53.4-53.4,53.4c-24.2,0-44.7-16.1-51.2-38.2c-1.4-4.8-2.2-9.9-2.2-15.2
			c0-29.5,23.9-53.4,53.4-53.4S303,167.9,303,197.4z"/>
	</g>
	<circle class="st4" cx="228.4" cy="176.4" r="6.6"/>
	<circle class="st4" cx="266.5" cy="176.4" r="6.6"/>
	<path class="st5" d="M197.6,209.3c6.3-0.1,30,5.4,40.8,6.1c9.6,0.6,17.4,1.6,31.5,0.4c7.2-0.6,27.2-8,32.7-10.9
		c1.6-0.8-2.2,15.8-1.8,20c0.4,3.7,1.2,5.6,2.3,7.1c1.3,1.6,1.7,0.9,1.5,2.9c-0.9,7.2-18,11.6-25.1,12c-9.3,0.5-30.7,1.2-33.2,1
		c-2.6-0.2-54.9-8.3-51.5-13.3c3.7-5.4,4.7-6.9,4.6-10C199.1,214.1,197.4,209.3,197.6,209.3z"/>
	<path class="st1" d="M381.6,228.9l-66.3,48.9c-1.5,1.1-1.9,3.3-0.7,4.8l0,0c1.1,1.5,3.3,1.9,4.8,0.7l66.3-48.9
		c1.5-1.1,1.9-3.3,0.7-4.8l0,0C385.3,228.1,383.1,227.8,381.6,228.9z"/>
	<path class="st1" d="M243.7,186.1c-1.8-1.9-11.4-6.2-11.7-6.3c-6.5-2.5-13-4.3-12.7-3.8c4.7,9.8,10.5,17.8,15.8,20.5
		c3,1.5,8.6,0.1,9.6-2.6C245.7,191.2,245.6,188.1,243.7,186.1z"/>
	<path class="st5" d="M265.7,247.4c0,0,5.4,23.1,6.3,30.9c0.6,5.3,0.4,14.8,0.6,21.2c0.2,4.9-1.3,9.9-1.7,19.7c0,1.1,2.9-2.5,4-2.1
		c1.4,0.4,1.4,4.5,2.8,5c1.5,0.6,3.8-3.4,5.4-3.4c1.2,0,2.1,3.2,3.2,3.4c1.7,0.2,3.4-4.6,5.2-4.7c1.7-0.2,3.1,4.7,4.7,4.7
		c1.7,0,2.4-5,4-5.7c0.7-0.3,2.9,1.8,2.9,1.1c-0.6-10.2-2.5-23-3.1-30.7c-0.3-4.5-1.3-13.7-1.8-18.2c-0.4-3.9-2.8-15.6-2.8-15.6
		l-3.5-8.9L265.7,247.4z"/>
	
		<radialGradient id="SVGID_00000018216879632481004830000005909764146843507607_" cx="99.3877" cy="109.7789" r="15.2866" gradientTransform="matrix(0.5 -0.866 0.866 0.5 -55.1904 138.9424)" gradientUnits="userSpaceOnUse">
		<stop  offset="0" style="stop-color:#FFFFFF"/>
		<stop  offset="0" style="stop-color:#ECF8FE"/>
		<stop  offset="0" style="stop-color:#C3EAFB"/>
		<stop  offset="0" style="stop-color:#9DDCF8"/>
		<stop  offset="0" style="stop-color:#7DD1F5"/>
		<stop  offset="0" style="stop-color:#61C7F3"/>
		<stop  offset="0" style="stop-color:#4BBFF2"/>
		<stop  offset="0" style="stop-color:#3AB9F1"/>
		<stop  offset="0" style="stop-color:#2FB5F0"/>
		<stop  offset="0" style="stop-color:#28B3EF"/>
		<stop  offset="0" style="stop-color:#26B2EF"/>
		<stop  offset="1" style="stop-color:#FFFFFF"/>
	</radialGradient>
	<path style="fill:url(#SVGID_00000018216879632481004830000005909764146843507607_);" d="M91.4,96.1l-3.4,5.9l-5.9-3.4
		c-2-1.2-4.6-0.5-5.8,1.6c-1.2,2-0.5,4.6,1.6,5.8l5.9,3.4l-3.4,5.9c-1.2,2-0.5,4.6,1.6,5.8c2,1.2,4.6,0.5,5.8-1.6l3.4-5.9L97,117
		c2,1.2,4.6,0.5,5.8-1.6c1.2-2,0.5-4.6-1.6-5.8l-5.9-3.4l3.4-5.9c1.2-2,0.5-4.6-1.6-5.8C95.2,93.3,92.6,94,91.4,96.1z"/>
	
		<radialGradient id="SVGID_00000147900521163486768840000011267791643812019596_" cx="252.9305" cy="363.6952" r="15.2866" gradientTransform="matrix(0.5 -0.866 0.866 0.5 -55.1904 138.9424)" gradientUnits="userSpaceOnUse">
		<stop  offset="0" style="stop-color:#FFFFFF"/>
		<stop  offset="0" style="stop-color:#ECF8FE"/>
		<stop  offset="0" style="stop-color:#C3EAFB"/>
		<stop  offset="0" style="stop-color:#9DDCF8"/>
		<stop  offset="0" style="stop-color:#7DD1F5"/>
		<stop  offset="0" style="stop-color:#61C7F3"/>
		<stop  offset="0" style="stop-color:#4BBFF2"/>
		<stop  offset="0" style="stop-color:#3AB9F1"/>
		<stop  offset="0" style="stop-color:#2FB5F0"/>
		<stop  offset="0" style="stop-color:#28B3EF"/>
		<stop  offset="0" style="stop-color:#26B2EF"/>
		<stop  offset="1" style="stop-color:#FFFFFF"/>
	</radialGradient>
	<path style="fill:url(#SVGID_00000147900521163486768840000011267791643812019596_);" d="M388.1,90.1l-3.4,5.9l-5.9-3.4
		c-2-1.2-4.6-0.5-5.8,1.6c-1.2,2-0.5,4.6,1.6,5.8l5.9,3.4l-3.4,5.9c-1.2,2-0.5,4.6,1.6,5.8c2,1.2,4.6,0.5,5.8-1.6l3.4-5.9l5.9,3.4
		c2,1.2,4.6,0.5,5.8-1.6c1.2-2,0.5-4.6-1.6-5.8l-5.9-3.4l3.4-5.9c1.2-2,0.5-4.6-1.6-5.8C391.8,87.3,389.2,88,388.1,90.1z"/>
	
		<radialGradient id="SVGID_00000054957748979093541860000014277337674795475877_" cx="37.4731" cy="181.2695" r="15.2866" gradientTransform="matrix(0.5 -0.866 0.866 0.5 -55.1904 138.9424)" gradientUnits="userSpaceOnUse">
		<stop  offset="0" style="stop-color:#FFFFFF"/>
		<stop  offset="0" style="stop-color:#ECF8FE"/>
		<stop  offset="0" style="stop-color:#C3EAFB"/>
		<stop  offset="0" style="stop-color:#9DDCF8"/>
		<stop  offset="0" style="stop-color:#7DD1F5"/>
		<stop  offset="0" style="stop-color:#61C7F3"/>
		<stop  offset="0" style="stop-color:#4BBFF2"/>
		<stop  offset="0" style="stop-color:#3AB9F1"/>
		<stop  offset="0" style="stop-color:#2FB5F0"/>
		<stop  offset="0" style="stop-color:#28B3EF"/>
		<stop  offset="0" style="stop-color:#26B2EF"/>
		<stop  offset="1" style="stop-color:#FFFFFF"/>
	</radialGradient>
	<path style="fill:url(#SVGID_00000054957748979093541860000014277337674795475877_);" d="M122.4,185.4l-3.4,5.9l-5.9-3.4
		c-2-1.2-4.6-0.5-5.8,1.6c-1.2,2-0.5,4.6,1.6,5.8l5.9,3.4l-3.4,5.9c-1.2,2-0.5,4.6,1.6,5.8c2,1.2,4.6,0.5,5.8-1.6l3.4-5.9l5.9,3.4
		c2,1.2,4.6,0.5,5.8-1.6c1.2-2,0.5-4.6-1.6-5.8l-5.9-3.4l3.4-5.9c1.2-2,0.5-4.6-1.6-5.8C126.1,182.7,123.5,183.4,122.4,185.4z"/>
	
		<radialGradient id="SVGID_00000115484159090152778460000013533073214277929114_" cx="71.9524" cy="477.3854" r="15.2866" gradientTransform="matrix(0.5 -0.866 0.866 0.5 -55.1904 138.9424)" gradientUnits="userSpaceOnUse">
		<stop  offset="0" style="stop-color:#FFFFFF"/>
		<stop  offset="0" style="stop-color:#ECF8FE"/>
		<stop  offset="0" style="stop-color:#C3EAFB"/>
		<stop  offset="0" style="stop-color:#9DDCF8"/>
		<stop  offset="0" style="stop-color:#7DD1F5"/>
		<stop  offset="0" style="stop-color:#61C7F3"/>
		<stop  offset="0" style="stop-color:#4BBFF2"/>
		<stop  offset="0" style="stop-color:#3AB9F1"/>
		<stop  offset="0" style="stop-color:#2FB5F0"/>
		<stop  offset="0" style="stop-color:#28B3EF"/>
		<stop  offset="0" style="stop-color:#26B2EF"/>
		<stop  offset="1" style="stop-color:#FFFFFF"/>
	</radialGradient>
	<path style="fill:url(#SVGID_00000115484159090152778460000013533073214277929114_);" d="M396,303.6l-3.4,5.9l-5.9-3.4
		c-2-1.2-4.6-0.5-5.8,1.6c-1.2,2-0.5,4.6,1.6,5.8l5.9,3.4l-3.4,5.9c-1.2,2-0.5,4.6,1.6,5.8c2,1.2,4.6,0.5,5.8-1.6l3.4-5.9l5.9,3.4
		c2,1.2,4.6,0.5,5.8-1.6c1.2-2,0.5-4.6-1.6-5.8l-5.9-3.4l3.4-5.9c1.2-2,0.5-4.6-1.6-5.8C399.8,300.9,397.2,301.6,396,303.6z"/>
	
		<radialGradient id="SVGID_00000130640227470176893910000008430628602230781876_" cx="-75.8833" cy="179.0777" r="15.2866" gradientTransform="matrix(0.5 -0.866 0.866 0.5 -55.1904 138.9424)" gradientUnits="userSpaceOnUse">
		<stop  offset="0" style="stop-color:#FFFFFF"/>
		<stop  offset="0" style="stop-color:#ECF8FE"/>
		<stop  offset="0" style="stop-color:#C3EAFB"/>
		<stop  offset="0" style="stop-color:#9DDCF8"/>
		<stop  offset="0" style="stop-color:#7DD1F5"/>
		<stop  offset="0" style="stop-color:#61C7F3"/>
		<stop  offset="0" style="stop-color:#4BBFF2"/>
		<stop  offset="0" style="stop-color:#3AB9F1"/>
		<stop  offset="0" style="stop-color:#2FB5F0"/>
		<stop  offset="0" style="stop-color:#28B3EF"/>
		<stop  offset="0" style="stop-color:#26B2EF"/>
		<stop  offset="1" style="stop-color:#FFFFFF"/>
	</radialGradient>
	<path style="fill:url(#SVGID_00000130640227470176893910000008430628602230781876_);" d="M63.8,282.5l-3.4,5.9l-5.9-3.4
		c-2-1.2-4.6-0.5-5.8,1.6c-1.2,2-0.5,4.6,1.6,5.8l5.9,3.4l-3.4,5.9c-1.2,2-0.5,4.6,1.6,5.8c2,1.2,4.6,0.5,5.8-1.6l3.4-5.9l5.9,3.4
		c2,1.2,4.6,0.5,5.8-1.6s0.5-4.6-1.6-5.8l-5.9-3.4l3.4-5.9c1.2-2,0.5-4.6-1.6-5.8C67.6,279.8,65,280.5,63.8,282.5z"/>
	
		<radialGradient id="SVGID_00000168803374788649121620000002018452329188653751_" cx="249.9175" cy="310.0104" r="8.4984" gradientUnits="userSpaceOnUse">
		<stop  offset="0" style="stop-color:#FFFFFF"/>
		<stop  offset="0" style="stop-color:#ECF8FE"/>
		<stop  offset="0" style="stop-color:#C3EAFB"/>
		<stop  offset="0" style="stop-color:#9DDCF8"/>
		<stop  offset="0" style="stop-color:#7DD1F5"/>
		<stop  offset="0" style="stop-color:#61C7F3"/>
		<stop  offset="0" style="stop-color:#4BBFF2"/>
		<stop  offset="0" style="stop-color:#3AB9F1"/>
		<stop  offset="0" style="stop-color:#2FB5F0"/>
		<stop  offset="0" style="stop-color:#28B3EF"/>
		<stop  offset="0" style="stop-color:#26B2EF"/>
		<stop  offset="1" style="stop-color:#FFFFFF"/>
	</radialGradient>
	<circle style="fill:url(#SVGID_00000168803374788649121620000002018452329188653751_);" cx="249.9" cy="310" r="8.5"/>
	
		<radialGradient id="SVGID_00000161619398021697588960000008164007165217775509_" cx="186.0623" cy="101.7458" r="8.4984" gradientUnits="userSpaceOnUse">
		<stop  offset="0" style="stop-color:#FFFFFF"/>
		<stop  offset="0" style="stop-color:#ECF8FE"/>
		<stop  offset="0" style="stop-color:#C3EAFB"/>
		<stop  offset="0" style="stop-color:#9DDCF8"/>
		<stop  offset="0" style="stop-color:#7DD1F5"/>
		<stop  offset="0" style="stop-color:#61C7F3"/>
		<stop  offset="0" style="stop-color:#4BBFF2"/>
		<stop  offset="0" style="stop-color:#3AB9F1"/>
		<stop  offset="0" style="stop-color:#2FB5F0"/>
		<stop  offset="0" style="stop-color:#28B3EF"/>
		<stop  offset="0" style="stop-color:#26B2EF"/>
		<stop  offset="1" style="stop-color:#FFFFFF"/>
	</radialGradient>
	<circle style="fill:url(#SVGID_00000161619398021697588960000008164007165217775509_);" cx="186.1" cy="101.7" r="8.5"/>
	
		<radialGradient id="SVGID_00000040562475262776669680000005621929476275463042_" cx="350.523" cy="176.354" r="8.4984" gradientUnits="userSpaceOnUse">
		<stop  offset="0" style="stop-color:#FFFFFF"/>
		<stop  offset="0" style="stop-color:#ECF8FE"/>
		<stop  offset="0" style="stop-color:#C3EAFB"/>
		<stop  offset="0" style="stop-color:#9DDCF8"/>
		<stop  offset="0" style="stop-color:#7DD1F5"/>
		<stop  offset="0" style="stop-color:#61C7F3"/>
		<stop  offset="0" style="stop-color:#4BBFF2"/>
		<stop  offset="0" style="stop-color:#3AB9F1"/>
		<stop  offset="0" style="stop-color:#2FB5F0"/>
		<stop  offset="0" style="stop-color:#28B3EF"/>
		<stop  offset="0" style="stop-color:#26B2EF"/>
		<stop  offset="1" style="stop-color:#FFFFFF"/>
	</radialGradient>
	<circle style="fill:url(#SVGID_00000040562475262776669680000005621929476275463042_);" cx="350.5" cy="176.4" r="8.5"/>
</g>
<linearGradient id="SVGID_00000116943559030468245690000005954380023058340509_" gradientUnits="userSpaceOnUse" x1="48.4117" y1="390.6419" x2="137.4316" y2="390.6419">
	<stop  offset="0.267" style="stop-color:#FFFFFF"/>
	<stop  offset="0.9313" style="stop-color:#E6E6E6"/>
</linearGradient>
<path style="fill:url(#SVGID_00000116943559030468245690000005954380023058340509_);" d="M50.7,399.9c18.2-15.5,28.9-28.2,41.4-28.6
	c9-0.3,31,18.4,31,18.4s17.8,17.3,13.7,17.7C109.1,410.2,34.4,413.8,50.7,399.9z"/>
</svg>
