<?xml version="1.0" encoding="utf-8"?>
<!-- Generator: Adobe Illustrator 26.0.3, SVG Export Plug-In . SVG Version: 6.00 Build 0)  -->
<svg version="1.1" id="图层_1" xmlns="http://www.w3.org/2000/svg" xmlns:xlink="http://www.w3.org/1999/xlink" x="0px" y="0px"
	 viewBox="0 0 500 500" style="enable-background:new 0 0 500 500;" xml:space="preserve">
<style type="text/css">
	.st0{fill:url(#SVGID_1_);}
	.st1{fill:url(#SVGID_00000159471322507625342690000003575538103649564350_);}
	.st2{fill:#E6E6E6;}
	.st3{fill:url(#SVGID_00000109008592164116762740000008506472087802627230_);}
	.st4{fill:url(#SVGID_00000109741046744025111880000006729593973112383873_);}
	.st5{fill:url(#SVGID_00000102536531942035287820000014772203938757024904_);}
	.st6{fill:url(#SVGID_00000098940455198115223630000017461975254637331643_);}
	.st7{fill:url(#SVGID_00000086660957303181209950000013937890100322409120_);}
	.st8{fill:url(#SVGID_00000032617543262355502390000016837334263532801186_);}
	.st9{fill:url(#SVGID_00000145753644479392483580000014983717396256810643_);}
	.st10{fill:url(#SVGID_00000180338794536778693340000006758961434272747410_);}
	.st11{fill:url(#SVGID_00000013153463269499026820000004856254790619723433_);}
	.st12{fill:url(#SVGID_00000161597816383473094830000005163389361131341978_);}
	.st13{fill:url(#SVGID_00000070117051522539868990000017161157458145663145_);}
	.st14{fill:url(#SVGID_00000181056312860016434540000002374044343871145102_);}
	.st15{fill:url(#SVGID_00000050624395180261617580000012648420214577057170_);}
	.st16{fill:url(#SVGID_00000048484904445724874760000015619682347679233204_);}
	.st17{fill:url(#SVGID_00000123400848557313143720000011207787329747593864_);}
	.st18{fill:url(#SVGID_00000032639037829847982010000006032180677088430243_);}
	.st19{fill:url(#SVGID_00000173144998703936786200000010538914724389647777_);}
	.st20{fill:url(#SVGID_00000028320834959101991020000013975914669691624580_);}
	.st21{fill:url(#SVGID_00000054254308491740921140000006900327193574883231_);}
	.st22{fill:url(#SVGID_00000005243281043871919020000007522975168953787794_);}
	.st23{fill:url(#SVGID_00000179626473640833918680000013378178623896747397_);}
	.st24{fill:url(#SVGID_00000075158763503459225270000001399983845448106403_);}
	.st25{fill:url(#SVGID_00000070835810290213217100000010467739381774590646_);}
	.st26{fill:url(#SVGID_00000064344456550823256070000016412018514182236843_);}
	.st27{fill:url(#SVGID_00000139994563448575522060000017658431608184319897_);}
	.st28{fill:url(#SVGID_00000123401537228908982320000013126374105359847318_);}
</style>
<g>
	<g>
		<linearGradient id="SVGID_1_" gradientUnits="userSpaceOnUse" x1="194.6612" y1="34.3258" x2="431.626" y2="300.8943">
			<stop  offset="0.2459" style="stop-color:#FAFAFA"/>
			<stop  offset="0.4701" style="stop-color:#D2D2D2"/>
			<stop  offset="0.6556" style="stop-color:#B9B9B9"/>
			<stop  offset="0.7664" style="stop-color:#AFAFAF"/>
		</linearGradient>
		<path class="st0" d="M398.6,152.8c-0.1,0-0.3,0-0.4,0c-4.3-46.3-43.2-82.6-90.6-82.6c-50.3,0-91,40.8-91,91
			c0,48.6,38.1,88.3,86.1,90.9v0.1h96c27.5,0,49.8-22.3,49.8-49.8S426.1,152.8,398.6,152.8z"/>
		
			<linearGradient id="SVGID_00000160893721267467464830000013627144572764388739_" gradientUnits="userSpaceOnUse" x1="82.1779" y1="149.3574" x2="356.8263" y2="328.3192">
			<stop  offset="0.1491" style="stop-color:#FAFAFA"/>
			<stop  offset="0.818" style="stop-color:#CBCBCB"/>
		</linearGradient>
		<path style="fill:url(#SVGID_00000160893721267467464830000013627144572764388739_);" d="M342.3,178.3
			c-14.7-50.1-60.9-86.7-115.7-86.7c-65.8,0-119.3,52.8-120.5,118.3c-30.6,3.6-54.4,29.6-54.4,61.2c0,34.1,27.6,61.7,61.7,61.7
			h219.8c42.8,0,77.6-34.7,77.6-77.6C410.7,215.6,380.8,182.8,342.3,178.3z"/>
	</g>
	<g>
		<path class="st2" d="M230.5,422.3L230.5,422.3c-4-1.8-5.8-6.4-4-10.4l23.4-53c1.8-4,6.4-5.8,10.4-4l0,0c4,1.8,5.8,6.4,4,10.4
			l-23.4,53C239.2,422.3,234.5,424.1,230.5,422.3z"/>
		<g>
			<g>
				
					<linearGradient id="SVGID_00000025430673931009582310000012742733214401508263_" gradientUnits="userSpaceOnUse" x1="136.8981" y1="202.1805" x2="136.7203" y2="187.736" gradientTransform="matrix(0.6483 0.7613 0.6339 -0.5398 -48.2483 363.5196)">
					<stop  offset="0" style="stop-color:#FFFFFF"/>
					<stop  offset="0.2015" style="stop-color:#FFFFFF"/>
					<stop  offset="0.8512" style="stop-color:#26B2EF"/>
				</linearGradient>
				<path style="fill:url(#SVGID_00000025430673931009582310000012742733214401508263_);" d="M157.1,368.3L157.1,368.3
					c-0.9-1.1-0.8-2.8,0.3-3.7l5.6-4.8c1.1-0.9,2.8-0.8,3.7,0.3l0,0c0.9,1.1,0.8,2.8-0.3,3.7l-5.6,4.8
					C159.7,369.6,158,369.4,157.1,368.3z"/>
				
					<linearGradient id="SVGID_00000116957183781530934780000000377815170230100889_" gradientUnits="userSpaceOnUse" x1="87.9593" y1="133.1553" x2="87.7814" y2="118.7107" gradientTransform="matrix(-0.6483 0.7613 -0.6339 -0.5398 286.847 363.5196)">
					<stop  offset="0" style="stop-color:#FFFFFF"/>
					<stop  offset="0.2015" style="stop-color:#FFFFFF"/>
					<stop  offset="0.8512" style="stop-color:#26B2EF"/>
				</linearGradient>
				<path style="fill:url(#SVGID_00000116957183781530934780000000377815170230100889_);" d="M157,368.3L157,368.3
					c0.9-1.1,0.8-2.8-0.3-3.7l-5.6-4.8c-1.1-0.9-2.8-0.8-3.7,0.3l0,0c-0.9,1.1-0.8,2.8,0.3,3.7l5.6,4.8
					C154.4,369.6,156.1,369.4,157,368.3z"/>
			</g>
			<g>
				
					<linearGradient id="SVGID_00000068638761977854431860000001180384057015301808_" gradientUnits="userSpaceOnUse" x1="161.6294" y1="107.9882" x2="161.4516" y2="93.5436" gradientTransform="matrix(0.9835 -0.1808 -0.1505 -0.8188 -5.8513 481.165)">
					<stop  offset="0" style="stop-color:#FFFFFF"/>
					<stop  offset="0.2015" style="stop-color:#FFFFFF"/>
					<stop  offset="0.8512" style="stop-color:#26B2EF"/>
				</linearGradient>
				<path style="fill:url(#SVGID_00000068638761977854431860000001180384057015301808_);" d="M139.5,378.5L139.5,378.5
					c-1.4,0.3-2.8-0.7-3.1-2.1l-1.3-7.2c-0.3-1.4,0.7-2.8,2.1-3.1l0,0c1.4-0.3,2.8,0.7,3.1,2.1l1.3,7.2
					C141.9,376.8,140.9,378.2,139.5,378.5z"/>
				
					<linearGradient id="SVGID_00000052071867802803776870000011607665360590644135_" gradientUnits="userSpaceOnUse" x1="169.3724" y1="118.859" x2="169.1946" y2="104.4145" gradientTransform="matrix(0.3352 0.9422 -0.7844 0.2791 161.6963 190.9874)">
					<stop  offset="0" style="stop-color:#FFFFFF"/>
					<stop  offset="0.2015" style="stop-color:#FFFFFF"/>
					<stop  offset="0.8512" style="stop-color:#26B2EF"/>
				</linearGradient>
				<path style="fill:url(#SVGID_00000052071867802803776870000011607665360590644135_);" d="M139.5,378.5L139.5,378.5
					c-0.5-1.4-2-2.1-3.4-1.6l-6.9,2.5c-1.4,0.5-2.1,2-1.6,3.4l0,0c0.5,1.4,2,2.1,3.4,1.6l6.9-2.5
					C139.2,381.4,139.9,379.9,139.5,378.5z"/>
			</g>
			<g>
				
					<linearGradient id="SVGID_00000135680066689906289010000017309273533627040176_" gradientUnits="userSpaceOnUse" x1="93.208" y1="-1.6051" x2="93.0302" y2="-16.0496" gradientTransform="matrix(0.3352 -0.9422 -0.7844 -0.2791 92.7532 480.8376)">
					<stop  offset="0" style="stop-color:#FFFFFF"/>
					<stop  offset="0.2015" style="stop-color:#FFFFFF"/>
					<stop  offset="0.8512" style="stop-color:#26B2EF"/>
				</linearGradient>
				<path style="fill:url(#SVGID_00000135680066689906289010000017309273533627040176_);" d="M139.5,398.7L139.5,398.7
					c-0.5,1.4-2,2.1-3.4,1.6l-6.9-2.5c-1.4-0.5-2.1-2-1.6-3.4l0,0c0.5-1.4,2-2.1,3.4-1.6l6.9,2.5
					C139.2,395.8,139.9,397.4,139.5,398.7z"/>
				
					<linearGradient id="SVGID_00000166668487704334615180000003879005242637595012_" gradientUnits="userSpaceOnUse" x1="248.5049" y1="217.5622" x2="248.3271" y2="203.1176" gradientTransform="matrix(0.9835 0.1808 -0.1505 0.8188 -74.7945 190.66)">
					<stop  offset="0" style="stop-color:#FFFFFF"/>
					<stop  offset="0.2015" style="stop-color:#FFFFFF"/>
					<stop  offset="0.8512" style="stop-color:#26B2EF"/>
				</linearGradient>
				<path style="fill:url(#SVGID_00000166668487704334615180000003879005242637595012_);" d="M139.5,398.8L139.5,398.8
					c-1.4-0.3-2.8,0.7-3.1,2.1l-1.3,7.2c-0.3,1.4,0.7,2.8,2.1,3.1l0,0c1.4,0.3,2.8-0.7,3.1-2.1l1.3-7.2
					C141.9,400.4,140.9,399.1,139.5,398.8z"/>
			</g>
			<g>
				
					<linearGradient id="SVGID_00000044160832882642908430000010118309976882847892_" gradientUnits="userSpaceOnUse" x1="-59.9617" y1="156.9177" x2="-60.1395" y2="142.4732" gradientTransform="matrix(-0.9835 -0.1808 0.1505 -0.8188 94.6302 481.165)">
					<stop  offset="0" style="stop-color:#FFFFFF"/>
					<stop  offset="0.2015" style="stop-color:#FFFFFF"/>
					<stop  offset="0.8512" style="stop-color:#26B2EF"/>
				</linearGradient>
				<path style="fill:url(#SVGID_00000044160832882642908430000010118309976882847892_);" d="M174.6,378.5L174.6,378.5
					c1.4,0.3,2.8-0.7,3.1-2.1l1.3-7.2c0.3-1.4-0.7-2.8-2.1-3.1l0,0c-1.4-0.3-2.8,0.7-3.1,2.1l-1.3,7.2
					C172.2,376.8,173.2,378.2,174.6,378.5z"/>
				
					<linearGradient id="SVGID_00000052797918428866577030000008636367657689734296_" gradientUnits="userSpaceOnUse" x1="93.8506" y1="373.8201" x2="93.6727" y2="359.3756" gradientTransform="matrix(-0.3352 0.9422 0.7844 0.2791 -72.9174 190.9874)">
					<stop  offset="0" style="stop-color:#FFFFFF"/>
					<stop  offset="0.2015" style="stop-color:#FFFFFF"/>
					<stop  offset="0.8512" style="stop-color:#26B2EF"/>
				</linearGradient>
				<path style="fill:url(#SVGID_00000052797918428866577030000008636367657689734296_);" d="M174.6,378.5L174.6,378.5
					c0.5-1.4,2-2.1,3.4-1.6l6.9,2.5c1.4,0.5,2.1,2,1.6,3.4l0,0c-0.5,1.4-2,2.1-3.4,1.6l-6.9-2.5
					C174.9,381.4,174.2,379.9,174.6,378.5z"/>
			</g>
			<g>
				
					<linearGradient id="SVGID_00000043452130162205112670000015071828433009738157_" gradientUnits="userSpaceOnUse" x1="17.6861" y1="253.356" x2="17.5083" y2="238.9115" gradientTransform="matrix(-0.3352 -0.9422 0.7844 -0.2791 -3.9743 480.8376)">
					<stop  offset="0" style="stop-color:#FFFFFF"/>
					<stop  offset="0.2015" style="stop-color:#FFFFFF"/>
					<stop  offset="0.8512" style="stop-color:#26B2EF"/>
				</linearGradient>
				<path style="fill:url(#SVGID_00000043452130162205112670000015071828433009738157_);" d="M174.6,398.7L174.6,398.7
					c0.5,1.4,2,2.1,3.4,1.6l6.9-2.5c1.4-0.5,2.1-2,1.6-3.4l0,0c-0.5-1.4-2-2.1-3.4-1.6l-6.9,2.5
					C174.9,395.8,174.2,397.4,174.6,398.7z"/>
				
					<linearGradient id="SVGID_00000164479414420894917770000002226317675826287751_" gradientUnits="userSpaceOnUse" x1="26.9138" y1="266.4917" x2="26.736" y2="252.0472" gradientTransform="matrix(-0.9835 0.1808 0.1505 0.8188 163.5734 190.66)">
					<stop  offset="0" style="stop-color:#FFFFFF"/>
					<stop  offset="0.2015" style="stop-color:#FFFFFF"/>
					<stop  offset="0.8512" style="stop-color:#26B2EF"/>
				</linearGradient>
				<path style="fill:url(#SVGID_00000164479414420894917770000002226317675826287751_);" d="M174.6,398.8L174.6,398.8
					c1.4-0.3,2.8,0.7,3.1,2.1l1.3,7.2c0.3,1.4-0.7,2.8-2.1,3.1l0,0c-1.4,0.3-2.8-0.7-3.1-2.1l-1.3-7.2
					C172.2,400.4,173.2,399.1,174.6,398.8z"/>
			</g>
			<g>
				
					<linearGradient id="SVGID_00000146467142121469427310000008266986014628551814_" gradientUnits="userSpaceOnUse" x1="-29.6123" y1="-39.1177" x2="-29.7901" y2="-53.5623" gradientTransform="matrix(-0.6483 -0.7613 -0.6339 0.5398 101.4014 417.1863)">
					<stop  offset="0" style="stop-color:#FFFFFF"/>
					<stop  offset="0.2015" style="stop-color:#FFFFFF"/>
					<stop  offset="0.8512" style="stop-color:#26B2EF"/>
				</linearGradient>
				<path style="fill:url(#SVGID_00000146467142121469427310000008266986014628551814_);" d="M157,408.9L157,408.9
					c0.9,1.1,0.8,2.8-0.3,3.7l-5.6,4.8c-1.1,0.9-2.8,0.8-3.7-0.3l0,0c-0.9-1.1-0.8-2.8,0.3-3.7l5.6-4.8
					C154.4,407.7,156.1,407.8,157,408.9z"/>
				
					<linearGradient id="SVGID_00000181781699348198340300000009483439967040450696_" gradientUnits="userSpaceOnUse" x1="259.804" y1="369.0766" x2="259.6262" y2="354.6321" gradientTransform="matrix(0.6483 -0.7613 0.6339 0.5398 -233.6939 417.1863)">
					<stop  offset="0" style="stop-color:#FFFFFF"/>
					<stop  offset="0.2015" style="stop-color:#FFFFFF"/>
					<stop  offset="0.8512" style="stop-color:#26B2EF"/>
				</linearGradient>
				<path style="fill:url(#SVGID_00000181781699348198340300000009483439967040450696_);" d="M157.1,408.9L157.1,408.9
					c-0.9,1.1-0.8,2.8,0.3,3.7l5.6,4.8c1.1,0.9,2.8,0.8,3.7-0.3l0,0c0.9-1.1,0.8-2.8-0.3-3.7l-5.6-4.8
					C159.7,407.7,158,407.8,157.1,408.9z"/>
			</g>
			
				<radialGradient id="SVGID_00000181080383783766169180000000344070703016620439_" cx="157.0411" cy="113.3992" r="39.3367" gradientTransform="matrix(1 0 0 -1 0 502)" gradientUnits="userSpaceOnUse">
				<stop  offset="0.2479" style="stop-color:#26B2EF"/>
				<stop  offset="0.8306" style="stop-color:#FFFFFF"/>
			</radialGradient>
			<path style="fill:url(#SVGID_00000181080383783766169180000000344070703016620439_);" d="M183.1,400.1l-19.9-11.5l19.9-11.5
				c1.5-0.8,2-2.7,1.1-4.2l0,0c-0.8-1.5-2.7-2-4.2-1.1l-20,11.5v-23c0-1.7-1.4-3.1-3.1-3.1c-1.7,0-3.1,1.4-3.1,3.1v23l-20-11.5
				c-1.5-0.8-3.3-0.3-4.2,1.1c-0.8,1.5-0.3,3.3,1.1,4.2l19.9,11.5L131,400.1c-1.5,0.8-2,2.7-1.1,4.2c0.9,1.5,2.7,2,4.2,1.1l20-11.5
				v23c0,1.7,1.4,3.1,3.1,3.1s3.1-1.4,3.1-3.1v-23l20,11.5c1.5,0.8,3.3,0.3,4.2-1.1l0,0C185.1,402.8,184.6,401,183.1,400.1z"/>
		</g>
		<g>
			<g>
				
					<linearGradient id="SVGID_00000139271188773392601970000002680719882825007024_" gradientUnits="userSpaceOnUse" x1="246.7675" y1="374.3333" x2="246.5347" y2="355.418" gradientTransform="matrix(0.6483 0.7613 0.6339 -0.5398 -48.2483 363.5196)">
					<stop  offset="0" style="stop-color:#FFFFFF"/>
					<stop  offset="0.2015" style="stop-color:#FFFFFF"/>
					<stop  offset="0.8512" style="stop-color:#26B2EF"/>
				</linearGradient>
				<path style="fill:url(#SVGID_00000139271188773392601970000002680719882825007024_);" d="M333.9,362L333.9,362
					c-1.2-1.4-1-3.7,0.4-4.8l7.3-6.3c1.4-1.2,3.7-1,4.8,0.4l0,0c1.2,1.4,1,3.7-0.4,4.8l-7.3,6.3C337.3,363.7,335,363.5,333.9,362z"
					/>
				
					<linearGradient id="SVGID_00000065076882657916322180000001785485364025984919_" gradientUnits="userSpaceOnUse" x1="-31.3824" y1="-17.9585" x2="-31.6153" y2="-36.8738" gradientTransform="matrix(-0.6483 0.7613 -0.6339 -0.5398 286.847 363.5196)">
					<stop  offset="0" style="stop-color:#FFFFFF"/>
					<stop  offset="0.2015" style="stop-color:#FFFFFF"/>
					<stop  offset="0.8512" style="stop-color:#26B2EF"/>
				</linearGradient>
				<path style="fill:url(#SVGID_00000065076882657916322180000001785485364025984919_);" d="M333.7,362L333.7,362
					c1.2-1.4,1-3.7-0.4-4.8l-7.3-6.3c-1.4-1.2-3.7-1-4.8,0.4l0,0c-1.2,1.4-1,3.7,0.4,4.8l7.3,6.3C330.3,363.7,332.6,363.5,333.7,362
					z"/>
			</g>
			<g>
				
					<linearGradient id="SVGID_00000021101909945519534090000013739656028806881724_" gradientUnits="userSpaceOnUse" x1="330.7384" y1="80.1269" x2="330.5056" y2="61.2117" gradientTransform="matrix(0.9835 -0.1808 -0.1505 -0.8188 -5.8513 481.165)">
					<stop  offset="0" style="stop-color:#FFFFFF"/>
					<stop  offset="0.2015" style="stop-color:#FFFFFF"/>
					<stop  offset="0.8512" style="stop-color:#26B2EF"/>
				</linearGradient>
				<path style="fill:url(#SVGID_00000021101909945519534090000013739656028806881724_);" d="M310.8,375.4L310.8,375.4
					c-1.8,0.4-3.7-0.9-4.1-2.7l-1.7-9.4c-0.4-1.8,0.9-3.7,2.7-4.1l0,0c1.8-0.4,3.7,0.9,4.1,2.7l1.7,9.4
					C314,373.1,312.6,375,310.8,375.4z"/>
				
					<linearGradient id="SVGID_00000072970057572183505130000015835924479839747478_" gradientUnits="userSpaceOnUse" x1="223.9074" y1="-70.6293" x2="223.6746" y2="-89.5445" gradientTransform="matrix(0.3352 0.9422 -0.7844 0.2791 161.6963 190.9874)">
					<stop  offset="0" style="stop-color:#FFFFFF"/>
					<stop  offset="0.2015" style="stop-color:#FFFFFF"/>
					<stop  offset="0.8512" style="stop-color:#26B2EF"/>
				</linearGradient>
				<path style="fill:url(#SVGID_00000072970057572183505130000015835924479839747478_);" d="M310.8,375.4L310.8,375.4
					c-0.7-1.8-2.6-2.7-4.5-2.1l-9,3.3c-1.8,0.7-2.7,2.6-2.1,4.5l0,0c0.7,1.8,2.6,2.7,4.5,2.1l9-3.3
					C310.4,379.2,311.3,377.2,310.8,375.4z"/>
			</g>
			<g>
				
					<linearGradient id="SVGID_00000010299653063087673910000004434688740724217218_" gradientUnits="userSpaceOnUse" x1="147.7429" y1="-191.1008" x2="147.5101" y2="-210.0159" gradientTransform="matrix(0.3352 -0.9422 -0.7844 -0.2791 92.7532 480.8376)">
					<stop  offset="0" style="stop-color:#FFFFFF"/>
					<stop  offset="0.2015" style="stop-color:#FFFFFF"/>
					<stop  offset="0.8512" style="stop-color:#26B2EF"/>
				</linearGradient>
				<path style="fill:url(#SVGID_00000010299653063087673910000004434688740724217218_);" d="M310.8,401.8L310.8,401.8
					c-0.7,1.8-2.6,2.7-4.5,2.1l-9-3.3c-1.8-0.7-2.7-2.6-2.1-4.5l0,0c0.7-1.8,2.6-2.7,4.5-2.1l9,3.3
					C310.4,398,311.3,400.1,310.8,401.8z"/>
				
					<linearGradient id="SVGID_00000084492069763198872010000017786170721513341320_" gradientUnits="userSpaceOnUse" x1="417.6191" y1="189.7186" x2="417.3863" y2="170.8033" gradientTransform="matrix(0.9835 0.1808 -0.1505 0.8188 -74.7945 190.66)">
					<stop  offset="0" style="stop-color:#FFFFFF"/>
					<stop  offset="0.2015" style="stop-color:#FFFFFF"/>
					<stop  offset="0.8512" style="stop-color:#26B2EF"/>
				</linearGradient>
				<path style="fill:url(#SVGID_00000084492069763198872010000017786170721513341320_);" d="M310.8,402L310.8,402
					c-1.8-0.4-3.7,0.9-4.1,2.7l-1.7,9.4c-0.4,1.8,0.9,3.7,2.7,4.1l0,0c1.8,0.4,3.7-0.9,4.1-2.7l1.7-9.4
					C314,404.1,312.6,402.4,310.8,402z"/>
			</g>
			<g>
				
					<linearGradient id="SVGID_00000032628849647444945820000006445064694047212163_" gradientUnits="userSpaceOnUse" x1="-238.5502" y1="205.8319" x2="-238.783" y2="186.9166" gradientTransform="matrix(-0.9835 -0.1808 0.1505 -0.8188 94.6302 481.165)">
					<stop  offset="0" style="stop-color:#FFFFFF"/>
					<stop  offset="0.2015" style="stop-color:#FFFFFF"/>
					<stop  offset="0.8512" style="stop-color:#26B2EF"/>
				</linearGradient>
				<path style="fill:url(#SVGID_00000032628849647444945820000006445064694047212163_);" d="M356.8,375.4L356.8,375.4
					c1.8,0.4,3.7-0.9,4.1-2.7l1.7-9.4c0.4-1.8-0.9-3.7-2.7-4.1l0,0c-1.8-0.4-3.7,0.9-4.1,2.7l-1.7,9.4
					C353.6,373.1,354.9,375,356.8,375.4z"/>
				
					<linearGradient id="SVGID_00000021080941032432111630000017797936183487103375_" gradientUnits="userSpaceOnUse" x1="29.8843" y1="584.3776" x2="29.6513" y2="565.4625" gradientTransform="matrix(-0.3352 0.9422 0.7844 0.2791 -72.9174 190.9874)">
					<stop  offset="0" style="stop-color:#FFFFFF"/>
					<stop  offset="0.2015" style="stop-color:#FFFFFF"/>
					<stop  offset="0.8512" style="stop-color:#26B2EF"/>
				</linearGradient>
				<path style="fill:url(#SVGID_00000021080941032432111630000017797936183487103375_);" d="M356.8,375.4L356.8,375.4
					c0.7-1.8,2.6-2.7,4.5-2.1l9,3.3c1.8,0.7,2.7,2.6,2.1,4.5l0,0c-0.7,1.8-2.6,2.7-4.5,2.1l-9-3.3
					C357.2,379.2,356.3,377.2,356.8,375.4z"/>
			</g>
			<g>
				
					<linearGradient id="SVGID_00000065035915518419116060000007636442948006655930_" gradientUnits="userSpaceOnUse" x1="-46.2803" y1="463.9062" x2="-46.5131" y2="444.991" gradientTransform="matrix(-0.3352 -0.9422 0.7844 -0.2791 -3.9743 480.8376)">
					<stop  offset="0" style="stop-color:#FFFFFF"/>
					<stop  offset="0.2015" style="stop-color:#FFFFFF"/>
					<stop  offset="0.8512" style="stop-color:#26B2EF"/>
				</linearGradient>
				<path style="fill:url(#SVGID_00000065035915518419116060000007636442948006655930_);" d="M356.8,401.8L356.8,401.8
					c0.7,1.8,2.6,2.7,4.5,2.1l9-3.3c1.8-0.7,2.7-2.6,2.1-4.5l0,0c-0.7-1.8-2.6-2.7-4.5-2.1l-9,3.3
					C357.2,398,356.3,400.1,356.8,401.8z"/>
				
					<linearGradient id="SVGID_00000031192004492386663260000016761645655181630909_" gradientUnits="userSpaceOnUse" x1="-151.6695" y1="315.4234" x2="-151.9023" y2="296.5083" gradientTransform="matrix(-0.9835 0.1808 0.1505 0.8188 163.5734 190.66)">
					<stop  offset="0" style="stop-color:#FFFFFF"/>
					<stop  offset="0.2015" style="stop-color:#FFFFFF"/>
					<stop  offset="0.8512" style="stop-color:#26B2EF"/>
				</linearGradient>
				<path style="fill:url(#SVGID_00000031192004492386663260000016761645655181630909_);" d="M356.8,402L356.8,402
					c1.8-0.4,3.7,0.9,4.1,2.7l1.7,9.4c0.4,1.8-0.9,3.7-2.7,4.1l0,0c-1.8,0.4-3.7-0.9-4.1-2.7L354,406
					C353.6,404.1,354.9,402.4,356.8,402z"/>
			</g>
			<g>
				
					<linearGradient id="SVGID_00000165211206057737087410000003305515105073540797_" gradientUnits="userSpaceOnUse" x1="-148.9543" y1="-190.2213" x2="-149.1871" y2="-209.1366" gradientTransform="matrix(-0.6483 -0.7613 -0.6339 0.5398 101.4014 417.1863)">
					<stop  offset="0" style="stop-color:#FFFFFF"/>
					<stop  offset="0.2015" style="stop-color:#FFFFFF"/>
					<stop  offset="0.8512" style="stop-color:#26B2EF"/>
				</linearGradient>
				<path style="fill:url(#SVGID_00000165211206057737087410000003305515105073540797_);" d="M333.7,415.2L333.7,415.2
					c1.2,1.4,1,3.7-0.4,4.8l-7.3,6.3c-1.4,1.2-3.7,1-4.8-0.4l0,0c-1.2-1.4-1-3.7,0.4-4.8l7.3-6.3
					C330.3,413.6,332.6,413.7,333.7,415.2z"/>
				
					<linearGradient id="SVGID_00000101790557962049474050000012569695105572201916_" gradientUnits="userSpaceOnUse" x1="369.6732" y1="541.2442" x2="369.4403" y2="522.329" gradientTransform="matrix(0.6483 -0.7613 0.6339 0.5398 -233.6939 417.1863)">
					<stop  offset="0" style="stop-color:#FFFFFF"/>
					<stop  offset="0.2015" style="stop-color:#FFFFFF"/>
					<stop  offset="0.8512" style="stop-color:#26B2EF"/>
				</linearGradient>
				<path style="fill:url(#SVGID_00000101790557962049474050000012569695105572201916_);" d="M333.9,415.2L333.9,415.2
					c-1.2,1.4-1,3.7,0.4,4.8l7.3,6.3c1.4,1.2,3.7,1,4.8-0.4l0,0c1.2-1.4,1-3.7-0.4-4.8l-7.3-6.3C337.3,413.6,335,413.7,333.9,415.2z
					"/>
			</g>
			
				<radialGradient id="SVGID_00000113313147126071823090000008730662089522727814_" cx="333.7994" cy="113.3992" r="51.5116" gradientTransform="matrix(1 0 0 -1 0 502)" gradientUnits="userSpaceOnUse">
				<stop  offset="0.2479" style="stop-color:#26B2EF"/>
				<stop  offset="0.8306" style="stop-color:#FFFFFF"/>
			</radialGradient>
			<path style="fill:url(#SVGID_00000113313147126071823090000008730662089522727814_);" d="M367.9,403.7l-26.1-15.1l26.1-15.1
				c2-1,2.6-3.5,1.4-5.5l0,0c-1-2-3.5-2.6-5.5-1.4l-26.2,15.1v-30.1c0-2.2-1.8-4.1-4.1-4.1s-4.1,1.8-4.1,4.1v30.1l-26.2-15.1
				c-2-1-4.3-0.4-5.5,1.4c-1,2-0.4,4.3,1.4,5.5l26.1,15.1l-25.7,15.1c-2,1-2.6,3.5-1.4,5.5s3.5,2.6,5.5,1.4l26.2-15.1v30.1
				c0,2.2,1.8,4.1,4.1,4.1s4.1-1.8,4.1-4.1v-30.1l26.2,15.1c2,1,4.3,0.4,5.5-1.4l0,0C370.5,407.2,369.9,404.8,367.9,403.7z"/>
		</g>
	</g>
</g>
</svg>
