<?xml version="1.0" encoding="utf-8"?>
<!-- Generator: Adobe Illustrator 26.0.3, SVG Export Plug-In . SVG Version: 6.00 Build 0)  -->
<svg version="1.1" id="图层_1" xmlns="http://www.w3.org/2000/svg" xmlns:xlink="http://www.w3.org/1999/xlink" x="0px" y="0px"
	 viewBox="0 0 500 500" style="enable-background:new 0 0 500 500;" xml:space="preserve">
<style type="text/css">
	.st0{fill:url(#SVGID_1_);}
	.st1{fill:url(#SVGID_00000053522343189128535570000013715167970654404285_);}
	.st2{fill:url(#SVGID_00000028285715679267396640000003925882389018420373_);}
	.st3{fill:url(#SVGID_00000163791667106447302410000005028808817425397417_);}
	.st4{fill:url(#SVGID_00000029751624462435138840000001796115071168857755_);}
	.st5{fill:url(#SVGID_00000094589532594168361210000017519077515955055524_);}
	.st6{fill:url(#SVGID_00000067224050208772392000000000360338787498942097_);}
	.st7{fill:url(#SVGID_00000127041524895808526860000011736611741982557613_);}
	.st8{fill:url(#SVGID_00000049924730803323851290000007112627029292796319_);}
	.st9{fill:url(#SVGID_00000165929568115509772980000000849516661947582910_);}
	.st10{fill:url(#SVGID_00000148642979136984353160000018167039972944731822_);}
	.st11{fill:url(#SVGID_00000127015069820790920030000008979338559476219031_);}
	.st12{fill:url(#SVGID_00000141456835837428853150000007516668349528040873_);}
	.st13{fill:url(#SVGID_00000173842754048642413140000006723601859638894988_);}
	.st14{fill:url(#SVGID_00000072246072045573914990000006083256559367534783_);}
</style>
<g>
	<g>
		
			<linearGradient id="SVGID_1_" gradientUnits="userSpaceOnUse" x1="197.1739" y1="452.6447" x2="423.3715" y2="198.1884" gradientTransform="matrix(1 0 0 -1 0 502)">
			<stop  offset="0.2459" style="stop-color:#FAFAFA"/>
			<stop  offset="0.4701" style="stop-color:#D2D2D2"/>
			<stop  offset="0.6556" style="stop-color:#B9B9B9"/>
			<stop  offset="0.7664" style="stop-color:#AFAFAF"/>
		</linearGradient>
		<path class="st0" d="M304.9,83.7c-48,0-86.9,38.9-86.9,86.9c0,46.4,36.4,84.3,82.2,86.8v0.1h91.6c26.2,0,47.5-21.3,47.5-47.5
			c0-26.2-21.3-47.5-47.5-47.5c-0.1,0-0.3,0-0.4,0C387.3,118.3,350.2,83.7,304.9,83.7"/>
		
			<linearGradient id="SVGID_00000160890159547879570760000002080702879926036363_" gradientUnits="userSpaceOnUse" x1="89.7896" y1="342.8266" x2="351.9585" y2="171.9964" gradientTransform="matrix(1 0 0 -1 0 502)">
			<stop  offset="0.1491" style="stop-color:#FAFAFA"/>
			<stop  offset="0.818" style="stop-color:#CBCBCB"/>
		</linearGradient>
		<path style="fill:url(#SVGID_00000160890159547879570760000002080702879926036363_);" d="M60.6,275.5c0,32.5,26.4,58.9,58.9,58.9
			h209.8c40.9,0,74-33.1,74-74c0-38-28.5-69.3-65.2-73.6c-14-47.8-58.1-82.7-110.5-82.7c-62.8,0-113.9,50.4-115.1,112.9
			C83.3,220.4,60.6,245.3,60.6,275.5"/>
	</g>
	<g>
		<g>
			
				<linearGradient id="SVGID_00000101094247958439315110000003730024462640772233_" gradientUnits="userSpaceOnUse" x1="194.3542" y1="290.0689" x2="194.1764" y2="275.6243" gradientTransform="matrix(0.6483 0.7613 0.6339 -0.5398 -48.2483 363.5196)">
				<stop  offset="0" style="stop-color:#FFFFFF"/>
				<stop  offset="0.2015" style="stop-color:#FFFFFF"/>
				<stop  offset="0.8512" style="stop-color:#26B2EF"/>
			</linearGradient>
			<path style="fill:url(#SVGID_00000101094247958439315110000003730024462640772233_);" d="M250.1,364.6L250.1,364.6
				c-0.9-1.1-0.8-2.8,0.3-3.7l5.6-4.8c1.1-0.9,2.8-0.8,3.7,0.3l0,0c0.9,1.1,0.8,2.8-0.3,3.7l-5.6,4.8
				C252.6,365.9,250.9,365.7,250.1,364.6z"/>
			
				<linearGradient id="SVGID_00000067938739278095423490000005210125528571194501_" gradientUnits="userSpaceOnUse" x1="24.8676" y1="51.0306" x2="24.6897" y2="36.586" gradientTransform="matrix(-0.6483 0.7613 -0.6339 -0.5398 286.847 363.5196)">
				<stop  offset="0" style="stop-color:#FFFFFF"/>
				<stop  offset="0.2015" style="stop-color:#FFFFFF"/>
				<stop  offset="0.8512" style="stop-color:#26B2EF"/>
			</linearGradient>
			<path style="fill:url(#SVGID_00000067938739278095423490000005210125528571194501_);" d="M249.9,364.6L249.9,364.6
				c0.9-1.1,0.8-2.8-0.3-3.7l-5.6-4.8c-1.1-0.9-2.8-0.8-3.7,0.3l0,0c-0.9,1.1-0.8,2.8,0.3,3.7l5.6,4.8
				C247.4,365.9,249.1,365.7,249.9,364.6z"/>
		</g>
		<g>
			
				<linearGradient id="SVGID_00000018208747151563060360000012307584684090212757_" gradientUnits="userSpaceOnUse" x1="253.7298" y1="92.1712" x2="253.552" y2="77.7267" gradientTransform="matrix(0.9835 -0.1808 -0.1505 -0.8188 -5.8513 481.165)">
				<stop  offset="0" style="stop-color:#FFFFFF"/>
				<stop  offset="0.2015" style="stop-color:#FFFFFF"/>
				<stop  offset="0.8512" style="stop-color:#26B2EF"/>
			</linearGradient>
			<path style="fill:url(#SVGID_00000018208747151563060360000012307584684090212757_);" d="M232.4,374.8L232.4,374.8
				c-1.4,0.3-2.8-0.7-3.1-2.1l-1.3-7.2c-0.3-1.4,0.7-2.8,2.1-3.1l0,0c1.4-0.3,2.8,0.7,3.1,2.1l1.3,7.2
				C234.9,373.1,233.9,374.5,232.4,374.8z"/>
			
				<linearGradient id="SVGID_00000045578210553776635240000013630070700222027434_" gradientUnits="userSpaceOnUse" x1="197.0473" y1="12.1729" x2="196.8695" y2="-2.2716" gradientTransform="matrix(0.3352 0.9422 -0.7844 0.2791 161.6963 190.9874)">
				<stop  offset="0" style="stop-color:#FFFFFF"/>
				<stop  offset="0.2015" style="stop-color:#FFFFFF"/>
				<stop  offset="0.8512" style="stop-color:#26B2EF"/>
			</linearGradient>
			<path style="fill:url(#SVGID_00000045578210553776635240000013630070700222027434_);" d="M232.4,374.8L232.4,374.8
				c-0.5-1.4-2-2.1-3.4-1.6l-6.9,2.5c-1.4,0.5-2.1,2-1.6,3.4l0,0c0.5,1.4,2,2.1,3.4,1.6l6.9-2.5
				C232.1,377.7,232.9,376.2,232.4,374.8z"/>
		</g>
		<g>
			
				<linearGradient id="SVGID_00000106843422500944470970000002238094595669368960_" gradientUnits="userSpaceOnUse" x1="127.8559" y1="-105.3114" x2="127.6782" y2="-119.7559" gradientTransform="matrix(0.3352 -0.9422 -0.7844 -0.2791 92.7532 480.8376)">
				<stop  offset="0" style="stop-color:#FFFFFF"/>
				<stop  offset="0.2015" style="stop-color:#FFFFFF"/>
				<stop  offset="0.8512" style="stop-color:#26B2EF"/>
			</linearGradient>
			<path style="fill:url(#SVGID_00000106843422500944470970000002238094595669368960_);" d="M232.4,395L232.4,395
				c-0.5,1.4-2,2.1-3.4,1.6l-6.9-2.5c-1.4-0.5-2.1-2-1.6-3.4l0,0c0.5-1.4,2-2.1,3.4-1.6l6.9,2.5C232.1,392.1,232.9,393.7,232.4,395z
				"/>
			
				<linearGradient id="SVGID_00000169556043822756234820000007845082349524595843_" gradientUnits="userSpaceOnUse" x1="339.2672" y1="193.0011" x2="339.0894" y2="178.5564" gradientTransform="matrix(0.9835 0.1808 -0.1505 0.8188 -74.7945 190.66)">
				<stop  offset="0" style="stop-color:#FFFFFF"/>
				<stop  offset="0.2015" style="stop-color:#FFFFFF"/>
				<stop  offset="0.8512" style="stop-color:#26B2EF"/>
			</linearGradient>
			<path style="fill:url(#SVGID_00000169556043822756234820000007845082349524595843_);" d="M232.4,395.1L232.4,395.1
				c-1.4-0.3-2.8,0.7-3.1,2.1l-1.3,7.2c-0.3,1.4,0.7,2.8,2.1,3.1l0,0c1.4,0.3,2.8-0.7,3.1-2.1l1.3-7.2
				C234.9,396.7,233.9,395.4,232.4,395.1z"/>
		</g>
		<g>
			
				<linearGradient id="SVGID_00000048463934588228458310000002540995595747830435_" gradientUnits="userSpaceOnUse" x1="-150.724" y1="181.4789" x2="-150.9018" y2="167.0343" gradientTransform="matrix(-0.9835 -0.1808 0.1505 -0.8188 94.6302 481.165)">
				<stop  offset="0" style="stop-color:#FFFFFF"/>
				<stop  offset="0.2015" style="stop-color:#FFFFFF"/>
				<stop  offset="0.8512" style="stop-color:#26B2EF"/>
			</linearGradient>
			<path style="fill:url(#SVGID_00000048463934588228458310000002540995595747830435_);" d="M267.6,374.8L267.6,374.8
				c1.4,0.3,2.8-0.7,3.1-2.1l1.3-7.2c0.3-1.4-0.7-2.8-2.1-3.1l0,0c-1.4-0.3-2.8,0.7-3.1,2.1l-1.3,7.2
				C265.1,373.1,266.1,374.5,267.6,374.8z"/>
			
				<linearGradient id="SVGID_00000003064664662364588800000007100799963065491380_" gradientUnits="userSpaceOnUse" x1="59.2027" y1="477.5264" x2="59.0247" y2="463.0819" gradientTransform="matrix(-0.3352 0.9422 0.7844 0.2791 -72.9174 190.9874)">
				<stop  offset="0" style="stop-color:#FFFFFF"/>
				<stop  offset="0.2015" style="stop-color:#FFFFFF"/>
				<stop  offset="0.8512" style="stop-color:#26B2EF"/>
			</linearGradient>
			<path style="fill:url(#SVGID_00000003064664662364588800000007100799963065491380_);" d="M267.6,374.8L267.6,374.8
				c0.5-1.4,2-2.1,3.4-1.6l6.9,2.5c1.4,0.5,2.1,2,1.6,3.4l0,0c-0.5,1.4-2,2.1-3.4,1.6l-6.9-2.5C267.9,377.7,267.1,376.2,267.6,374.8
				z"/>
		</g>
		<g>
			
				<linearGradient id="SVGID_00000133501313730946410130000005568300511813986220_" gradientUnits="userSpaceOnUse" x1="-9.9888" y1="360.0421" x2="-10.1666" y2="345.5976" gradientTransform="matrix(-0.3352 -0.9422 0.7844 -0.2791 -3.9743 480.8376)">
				<stop  offset="0" style="stop-color:#FFFFFF"/>
				<stop  offset="0.2015" style="stop-color:#FFFFFF"/>
				<stop  offset="0.8512" style="stop-color:#26B2EF"/>
			</linearGradient>
			<path style="fill:url(#SVGID_00000133501313730946410130000005568300511813986220_);" d="M267.6,395L267.6,395
				c0.5,1.4,2,2.1,3.4,1.6l6.9-2.5c1.4-0.5,2.1-2,1.6-3.4l0,0c-0.5-1.4-2-2.1-3.4-1.6l-6.9,2.5C267.9,392.1,267.1,393.7,267.6,395z"
				/>
			
				<linearGradient id="SVGID_00000024715730971887808460000002521961633973980579_" gradientUnits="userSpaceOnUse" x1="-65.1866" y1="282.3087" x2="-65.3644" y2="267.8641" gradientTransform="matrix(-0.9835 0.1808 0.1505 0.8188 163.5734 190.66)">
				<stop  offset="0" style="stop-color:#FFFFFF"/>
				<stop  offset="0.2015" style="stop-color:#FFFFFF"/>
				<stop  offset="0.8512" style="stop-color:#26B2EF"/>
			</linearGradient>
			<path style="fill:url(#SVGID_00000024715730971887808460000002521961633973980579_);" d="M267.6,395.1L267.6,395.1
				c1.4-0.3,2.8,0.7,3.1,2.1l1.3,7.2c0.3,1.4-0.7,2.8-2.1,3.1l0,0c-1.4,0.3-2.8-0.7-3.1-2.1l-1.3-7.2
				C265.1,396.7,266.1,395.4,267.6,395.1z"/>
		</g>
		<g>
			
				<linearGradient id="SVGID_00000013160926535219968390000016405224690898238600_" gradientUnits="userSpaceOnUse" x1="-87.0683" y1="-127.006" x2="-87.2461" y2="-141.4507" gradientTransform="matrix(-0.6483 -0.7613 -0.6339 0.5398 101.4014 417.1863)">
				<stop  offset="0" style="stop-color:#FFFFFF"/>
				<stop  offset="0.2015" style="stop-color:#FFFFFF"/>
				<stop  offset="0.8512" style="stop-color:#26B2EF"/>
			</linearGradient>
			<path style="fill:url(#SVGID_00000013160926535219968390000016405224690898238600_);" d="M249.9,405.2L249.9,405.2
				c0.9,1.1,0.8,2.8-0.3,3.7l-5.6,4.8c-1.1,0.9-2.8,0.8-3.7-0.3l0,0c-0.9-1.1-0.8-2.8,0.3-3.7l5.6-4.8
				C247.4,404,249.1,404.1,249.9,405.2z"/>
			
				<linearGradient id="SVGID_00000181047594836172514290000003029486125066579329_" gradientUnits="userSpaceOnUse" x1="322.8958" y1="451.2013" x2="322.718" y2="436.7568" gradientTransform="matrix(0.6483 -0.7613 0.6339 0.5398 -233.6939 417.1863)">
				<stop  offset="0" style="stop-color:#FFFFFF"/>
				<stop  offset="0.2015" style="stop-color:#FFFFFF"/>
				<stop  offset="0.8512" style="stop-color:#26B2EF"/>
			</linearGradient>
			<path style="fill:url(#SVGID_00000181047594836172514290000003029486125066579329_);" d="M250.1,405.2L250.1,405.2
				c-0.9,1.1-0.8,2.8,0.3,3.7l5.6,4.8c1.1,0.9,2.8,0.8,3.7-0.3l0,0c0.9-1.1,0.8-2.8-0.3-3.7l-5.6-4.8
				C252.6,404,250.9,404.1,250.1,405.2z"/>
		</g>
		
			<radialGradient id="SVGID_00000152972735711374864560000011037558631197856406_" cx="250.0023" cy="117.1" r="39.3367" gradientTransform="matrix(1 0 0 -1 0 502)" gradientUnits="userSpaceOnUse">
			<stop  offset="0.2479" style="stop-color:#26B2EF"/>
			<stop  offset="0.8306" style="stop-color:#FFFFFF"/>
		</radialGradient>
		<path style="fill:url(#SVGID_00000152972735711374864560000011037558631197856406_);" d="M276.1,396.4l-19.9-11.5l19.9-11.5
			c1.5-0.8,2-2.7,1.1-4.2l0,0c-0.8-1.5-2.7-2-4.2-1.1l-20,11.5v-23c0-1.7-1.4-3.1-3.1-3.1c-1.7,0-3.1,1.4-3.1,3.1v23l-20-11.5
			c-1.5-0.8-3.3-0.3-4.2,1.1c-0.8,1.5-0.3,3.3,1.1,4.2l19.9,11.5l-19.6,11.5c-1.5,0.8-2,2.7-1.1,4.2c0.9,1.5,2.7,2,4.2,1.1l20-11.5
			v23c0,1.7,1.4,3.1,3.1,3.1s3.1-1.4,3.1-3.1v-23l20,11.5c1.5,0.8,3.3,0.3,4.2-1.1l0,0C278.1,399.1,277.6,397.3,276.1,396.4z"/>
	</g>
</g>
</svg>
