<?xml version="1.0" encoding="utf-8"?>
<!-- Generator: Adobe Illustrator 26.0.3, SVG Export Plug-In . SVG Version: 6.00 Build 0)  -->
<svg version="1.1" id="图层_1" xmlns="http://www.w3.org/2000/svg" xmlns:xlink="http://www.w3.org/1999/xlink" x="0px" y="0px"
	 viewBox="0 0 500 500" style="enable-background:new 0 0 500 500;" xml:space="preserve">
<style type="text/css">
	.st0{fill:url(#SVGID_1_);}
	.st1{fill:url(#SVGID_00000152234895993437031210000000561275953831281804_);}
	.st2{fill:#FFD000;}
	.st3{fill:url(#SVGID_00000124126307573201176000000000880826331272850583_);}
	.st4{fill:url(#SVGID_00000020376478902964093650000004132259243436552582_);}
	.st5{fill:url(#SVGID_00000171678264793425661550000016904623747887094950_);}
	.st6{fill:url(#SVGID_00000109007911686906183490000014370500309916799119_);}
	.st7{fill:url(#SVGID_00000132781718882569034420000003625102537669729929_);}
	.st8{fill:url(#SVGID_00000070116480371733981200000003365047126025366440_);}
	.st9{fill:url(#SVGID_00000079451073562704714430000000203585331229148548_);}
	.st10{fill:url(#SVGID_00000000184166017808144090000017031773310072535441_);}
	.st11{fill:url(#SVGID_00000012472675800868582450000015949314524647576969_);}
	.st12{fill:url(#SVGID_00000065768208616041994650000009247641242030161559_);}
	.st13{fill:url(#SVGID_00000136405540301144855680000004850076028756873389_);}
	.st14{fill:url(#SVGID_00000076568875510114823080000016075766839220582805_);}
	.st15{fill:url(#SVGID_00000144305515312778495380000005541067595113078205_);}
	.st16{fill:url(#SVGID_00000134968615337021701480000015212423614696004278_);}
	.st17{fill:url(#SVGID_00000170252589164881299140000010513520493267659921_);}
	.st18{fill:url(#SVGID_00000100374738087880301320000011707271275514606744_);}
	.st19{fill:url(#SVGID_00000085956942110973001040000006872992845451230139_);}
	.st20{fill:url(#SVGID_00000150823330977791948590000015096285718546869661_);}
	.st21{fill:url(#SVGID_00000041989157297830872940000006844936500466663063_);}
	.st22{fill:url(#SVGID_00000057843995309606746600000016994327738686513342_);}
	.st23{fill:url(#SVGID_00000045577885508488470260000014605436610970088376_);}
	.st24{fill:url(#SVGID_00000163072789194519115750000007990052906134779546_);}
	.st25{fill:url(#SVGID_00000081643231934370886600000006856822864830692017_);}
	.st26{fill:url(#SVGID_00000175284559241100111490000007208310698136934017_);}
	.st27{fill:url(#SVGID_00000132077210973990918380000017741450157628600728_);}
	.st28{fill:url(#SVGID_00000091012258172685131280000013349375092384670603_);}
	.st29{fill:url(#SVGID_00000172417152075386588530000006547856079197907869_);}
	.st30{fill:url(#SVGID_00000052084569100111336210000018051268677375940491_);}
	.st31{fill:url(#SVGID_00000053514965397556008960000000838355610181119911_);}
	.st32{fill:url(#SVGID_00000033359924976791391820000007924828974223792055_);}
	.st33{fill:url(#SVGID_00000134958683853502325290000006086939500934486960_);}
	.st34{fill:url(#SVGID_00000085970322443733118800000007402509633386016951_);}
	.st35{fill:url(#SVGID_00000057831587421106454240000003277105195573635215_);}
	.st36{fill:url(#SVGID_00000155144044125906132200000015645642329746951573_);}
	.st37{fill:url(#SVGID_00000060714575211381822670000007121038105156729243_);}
	.st38{fill:url(#SVGID_00000164484273418817603620000013293129385106065309_);}
	.st39{fill:url(#SVGID_00000029033152914227334890000001934299811977511558_);}
	.st40{fill:url(#SVGID_00000181085466777575732450000005651285724933982876_);}
	.st41{fill:url(#SVGID_00000072981708892275792360000002777388662264931502_);}
	.st42{fill:url(#SVGID_00000091700865534194677080000006814461419828316302_);}
	.st43{fill:url(#SVGID_00000175308550799858317930000011702365752611590813_);}
</style>
<g>
	
		<linearGradient id="SVGID_1_" gradientUnits="userSpaceOnUse" x1="128.5211" y1="394.5201" x2="198.6914" y2="324.3497" gradientTransform="matrix(1 0 0 -1 0 502)">
		<stop  offset="0" style="stop-color:#F9C30B"/>
		<stop  offset="1" style="stop-color:#FF8800"/>
	</linearGradient>
	<polygon class="st0" points="96,145.2 161,75 231.2,140 166.2,210.1 	"/>
	
		<linearGradient id="SVGID_00000005962581282676836520000001688171827394504073_" gradientUnits="userSpaceOnUse" x1="131.9516" y1="391.0895" x2="202.9632" y2="320.0781" gradientTransform="matrix(1 0 0 -1 0 502)">
		<stop  offset="0" style="stop-color:#F9C30B"/>
		<stop  offset="1" style="stop-color:#FF8800"/>
	</linearGradient>
	
		<rect x="115.8" y="94.8" style="fill:url(#SVGID_00000005962581282676836520000001688171827394504073_);" width="95.6" height="95.6"/>
	
		<ellipse transform="matrix(8.248051e-02 -0.9966 0.9966 8.248051e-02 8.0326 293.8551)" class="st2" cx="163.6" cy="142.6" rx="47.9" ry="47.9"/>
	<g>
		
			<linearGradient id="SVGID_00000065755302825676097280000007789614495353945524_" gradientUnits="userSpaceOnUse" x1="194.6612" y1="48.5563" x2="431.626" y2="315.1248">
			<stop  offset="0.2459" style="stop-color:#FAFAFA"/>
			<stop  offset="0.4701" style="stop-color:#D2D2D2"/>
			<stop  offset="0.6556" style="stop-color:#B9B9B9"/>
			<stop  offset="0.7664" style="stop-color:#AFAFAF"/>
		</linearGradient>
		<path style="fill:url(#SVGID_00000065755302825676097280000007789614495353945524_);" d="M398.6,167c-0.1,0-0.3,0-0.4,0
			c-4.3-46.3-43.2-82.6-90.6-82.6c-50.3,0-91,40.8-91,91c0,48.6,38.1,88.3,86.1,90.9v0.1h96c27.5,0,49.8-22.3,49.8-49.8
			S426.1,167,398.6,167z"/>
		
			<linearGradient id="SVGID_00000031171118950654295550000009767745444666881460_" gradientUnits="userSpaceOnUse" x1="82.1779" y1="163.5879" x2="356.8263" y2="342.5497">
			<stop  offset="0.1491" style="stop-color:#FAFAFA"/>
			<stop  offset="0.818" style="stop-color:#CBCBCB"/>
		</linearGradient>
		<path style="fill:url(#SVGID_00000031171118950654295550000009767745444666881460_);" d="M342.3,192.5
			c-14.7-50.1-60.9-86.7-115.7-86.7c-65.8,0-119.3,52.8-120.5,118.3c-30.6,3.6-54.4,29.6-54.4,61.2c0,34.1,27.6,61.7,61.7,61.7
			h219.8c42.8,0,77.6-34.7,77.6-77.6C410.7,229.8,380.8,197.1,342.3,192.5z"/>
	</g>
	<g>
		<g>
			
				<linearGradient id="SVGID_00000106135126052758663760000013846859563856231315_" gradientUnits="userSpaceOnUse" x1="133.1662" y1="187.6359" x2="132.9884" y2="173.1915" gradientTransform="matrix(0.6483 0.7613 0.6339 -0.5398 -48.2483 363.5196)">
				<stop  offset="0" style="stop-color:#FFFFFF"/>
				<stop  offset="0.2015" style="stop-color:#FFFFFF"/>
				<stop  offset="0.8512" style="stop-color:#26B2EF"/>
			</linearGradient>
			<path style="fill:url(#SVGID_00000106135126052758663760000013846859563856231315_);" d="M145.5,373.3L145.5,373.3
				c-0.9-1.1-0.8-2.8,0.3-3.7l5.6-4.8c1.1-0.9,2.8-0.8,3.7,0.3l0,0c0.9,1.1,0.8,2.8-0.3,3.7l-5.6,4.8
				C148.1,374.6,146.4,374.4,145.5,373.3z"/>
			
				<linearGradient id="SVGID_00000037681570738356151050000000620199498800180899_" gradientUnits="userSpaceOnUse" x1="99.3102" y1="139.9077" x2="99.1323" y2="125.4632" gradientTransform="matrix(-0.6483 0.7613 -0.6339 -0.5398 286.847 363.5196)">
				<stop  offset="0" style="stop-color:#FFFFFF"/>
				<stop  offset="0.2015" style="stop-color:#FFFFFF"/>
				<stop  offset="0.8512" style="stop-color:#26B2EF"/>
			</linearGradient>
			<path style="fill:url(#SVGID_00000037681570738356151050000000620199498800180899_);" d="M145.4,373.3L145.4,373.3
				c0.9-1.1,0.8-2.8-0.3-3.7l-5.6-4.8c-1.1-0.9-2.8-0.8-3.7,0.3l0,0c-0.9,1.1-0.8,2.8,0.3,3.7l5.6,4.8
				C142.8,374.6,144.4,374.4,145.4,373.3z"/>
		</g>
		<g>
			
				<linearGradient id="SVGID_00000158026101043329840900000006867733732237214143_" gradientUnits="userSpaceOnUse" x1="149.2856" y1="104.6099" x2="149.1077" y2="90.1654" gradientTransform="matrix(0.9835 -0.1808 -0.1505 -0.8188 -5.8513 481.165)">
				<stop  offset="0" style="stop-color:#FFFFFF"/>
				<stop  offset="0.2015" style="stop-color:#FFFFFF"/>
				<stop  offset="0.8512" style="stop-color:#26B2EF"/>
			</linearGradient>
			<path style="fill:url(#SVGID_00000158026101043329840900000006867733732237214143_);" d="M127.9,383.5L127.9,383.5
				c-1.4,0.3-2.8-0.7-3.1-2.1l-1.3-7.2c-0.3-1.4,0.7-2.8,2.1-3.1l0,0c1.4-0.3,2.8,0.7,3.1,2.1l1.3,7.2
				C130.3,381.8,129.3,383.2,127.9,383.5z"/>
			
				<linearGradient id="SVGID_00000080889446891420856080000013807379830504058025_" gradientUnits="userSpaceOnUse" x1="170.1526" y1="134.0563" x2="169.9748" y2="119.6117" gradientTransform="matrix(0.3352 0.9422 -0.7844 0.2791 161.6963 190.9874)">
				<stop  offset="0" style="stop-color:#FFFFFF"/>
				<stop  offset="0.2015" style="stop-color:#FFFFFF"/>
				<stop  offset="0.8512" style="stop-color:#26B2EF"/>
			</linearGradient>
			<path style="fill:url(#SVGID_00000080889446891420856080000013807379830504058025_);" d="M127.8,383.5L127.8,383.5
				c-0.5-1.4-2-2.1-3.4-1.6l-6.9,2.5c-1.4,0.5-2.1,2-1.6,3.4l0,0c0.5,1.4,2,2.1,3.4,1.6l6.9-2.5
				C127.6,386.4,128.3,384.9,127.8,383.5z"/>
		</g>
		<g>
			
				<linearGradient id="SVGID_00000132783373453748948530000004698874572789618621_" gradientUnits="userSpaceOnUse" x1="84.5613" y1="9.5637" x2="84.3834" y2="-4.8809" gradientTransform="matrix(0.3352 -0.9422 -0.7844 -0.2791 92.7532 480.8376)">
				<stop  offset="0" style="stop-color:#FFFFFF"/>
				<stop  offset="0.2015" style="stop-color:#FFFFFF"/>
				<stop  offset="0.8512" style="stop-color:#26B2EF"/>
			</linearGradient>
			<path style="fill:url(#SVGID_00000132783373453748948530000004698874572789618621_);" d="M127.8,403.7L127.8,403.7
				c-0.5,1.4-2,2.1-3.4,1.6l-6.9-2.5c-1.4-0.5-2.1-2-1.6-3.4l0,0c0.5-1.4,2-2.1,3.4-1.6l6.9,2.5
				C127.6,400.8,128.3,402.4,127.8,403.7z"/>
			
				<linearGradient id="SVGID_00000181071776879795229890000002949746903672218021_" gradientUnits="userSpaceOnUse" x1="237.97" y1="226.0053" x2="237.7922" y2="211.5608" gradientTransform="matrix(0.9835 0.1808 -0.1505 0.8188 -74.7945 190.66)">
				<stop  offset="0" style="stop-color:#FFFFFF"/>
				<stop  offset="0.2015" style="stop-color:#FFFFFF"/>
				<stop  offset="0.8512" style="stop-color:#26B2EF"/>
			</linearGradient>
			<path style="fill:url(#SVGID_00000181071776879795229890000002949746903672218021_);" d="M127.9,403.8L127.9,403.8
				c-1.4-0.3-2.8,0.7-3.1,2.1l-1.3,7.2c-0.3,1.4,0.7,2.8,2.1,3.1l0,0c1.4,0.3,2.8-0.7,3.1-2.1l1.3-7.2
				C130.3,405.4,129.3,404.1,127.9,403.8z"/>
		</g>
		<g>
			
				<linearGradient id="SVGID_00000002361119181555706510000013446991116572243856_" gradientUnits="userSpaceOnUse" x1="-49.4267" y1="148.4745" x2="-49.6046" y2="134.03" gradientTransform="matrix(-0.9835 -0.1808 0.1505 -0.8188 94.6302 481.165)">
				<stop  offset="0" style="stop-color:#FFFFFF"/>
				<stop  offset="0.2015" style="stop-color:#FFFFFF"/>
				<stop  offset="0.8512" style="stop-color:#26B2EF"/>
			</linearGradient>
			<path style="fill:url(#SVGID_00000002361119181555706510000013446991116572243856_);" d="M163,383.5L163,383.5
				c1.4,0.3,2.8-0.7,3.1-2.1l1.3-7.2c0.3-1.4-0.7-2.8-2.1-3.1l0,0c-1.4-0.3-2.8,0.7-3.1,2.1l-1.3,7.2
				C160.6,381.8,161.6,383.2,163,383.5z"/>
			
				<linearGradient id="SVGID_00000149372004078270296210000002107130227034856328_" gradientUnits="userSpaceOnUse" x1="102.4625" y1="362.6518" x2="102.2847" y2="348.2073" gradientTransform="matrix(-0.3352 0.9422 0.7844 0.2791 -72.9174 190.9874)">
				<stop  offset="0" style="stop-color:#FFFFFF"/>
				<stop  offset="0.2015" style="stop-color:#FFFFFF"/>
				<stop  offset="0.8512" style="stop-color:#26B2EF"/>
			</linearGradient>
			<path style="fill:url(#SVGID_00000149372004078270296210000002107130227034856328_);" d="M163,383.5L163,383.5
				c0.5-1.4,2-2.1,3.4-1.6l6.9,2.5c1.4,0.5,2.1,2,1.6,3.4l0,0c-0.5,1.4-2,2.1-3.4,1.6l-6.9-2.5C163.3,386.4,162.5,384.9,163,383.5z"
				/>
		</g>
		<g>
			
				<linearGradient id="SVGID_00000113317895018637012940000001598821177317282979_" gradientUnits="userSpaceOnUse" x1="16.8711" y1="238.1592" x2="16.6933" y2="223.7147" gradientTransform="matrix(-0.3352 -0.9422 0.7844 -0.2791 -3.9743 480.8376)">
				<stop  offset="0" style="stop-color:#FFFFFF"/>
				<stop  offset="0.2015" style="stop-color:#FFFFFF"/>
				<stop  offset="0.8512" style="stop-color:#26B2EF"/>
			</linearGradient>
			<path style="fill:url(#SVGID_00000113317895018637012940000001598821177317282979_);" d="M163,403.7L163,403.7
				c0.5,1.4,2,2.1,3.4,1.6l6.9-2.5c1.4-0.5,2.1-2,1.6-3.4l0,0c-0.5-1.4-2-2.1-3.4-1.6l-6.9,2.5C163.3,400.8,162.5,402.4,163,403.7z"
				/>
			
				<linearGradient id="SVGID_00000104667295545574074280000013444415017497352098_" gradientUnits="userSpaceOnUse" x1="39.2577" y1="269.87" x2="39.0799" y2="255.4254" gradientTransform="matrix(-0.9835 0.1808 0.1505 0.8188 163.5734 190.66)">
				<stop  offset="0" style="stop-color:#FFFFFF"/>
				<stop  offset="0.2015" style="stop-color:#FFFFFF"/>
				<stop  offset="0.8512" style="stop-color:#26B2EF"/>
			</linearGradient>
			<path style="fill:url(#SVGID_00000104667295545574074280000013444415017497352098_);" d="M163,403.8L163,403.8
				c1.4-0.3,2.8,0.7,3.1,2.1l1.3,7.2c0.3,1.4-0.7,2.8-2.1,3.1l0,0c-1.4,0.3-2.8-0.7-3.1-2.1l-1.3-7.2
				C160.6,405.4,161.6,404.1,163,403.8z"/>
		</g>
		<g>
			
				<linearGradient id="SVGID_00000170957645083502704900000000915728498089394829_" gradientUnits="userSpaceOnUse" x1="-25.8804" y1="-24.5732" x2="-26.0582" y2="-39.0177" gradientTransform="matrix(-0.6483 -0.7613 -0.6339 0.5398 101.4014 417.1863)">
				<stop  offset="0" style="stop-color:#FFFFFF"/>
				<stop  offset="0.2015" style="stop-color:#FFFFFF"/>
				<stop  offset="0.8512" style="stop-color:#26B2EF"/>
			</linearGradient>
			<path style="fill:url(#SVGID_00000170957645083502704900000000915728498089394829_);" d="M145.4,413.9L145.4,413.9
				c0.9,1.1,0.8,2.8-0.3,3.7l-5.6,4.8c-1.1,0.9-2.8,0.8-3.7-0.3l0,0c-0.9-1.1-0.8-2.8,0.3-3.7l5.6-4.8
				C142.8,412.7,144.4,412.8,145.4,413.9z"/>
			
				<linearGradient id="SVGID_00000023253508567717910570000010722534188203496072_" gradientUnits="userSpaceOnUse" x1="248.4532" y1="362.3241" x2="248.2754" y2="347.8795" gradientTransform="matrix(0.6483 -0.7613 0.6339 0.5398 -233.6939 417.1863)">
				<stop  offset="0" style="stop-color:#FFFFFF"/>
				<stop  offset="0.2015" style="stop-color:#FFFFFF"/>
				<stop  offset="0.8512" style="stop-color:#26B2EF"/>
			</linearGradient>
			<path style="fill:url(#SVGID_00000023253508567717910570000010722534188203496072_);" d="M145.5,413.9L145.5,413.9
				c-0.9,1.1-0.8,2.8,0.3,3.7l5.6,4.8c1.1,0.9,2.8,0.8,3.7-0.3l0,0c0.9-1.1,0.8-2.8-0.3-3.7l-5.6-4.8
				C148.1,412.7,146.4,412.8,145.5,413.9z"/>
		</g>
		
			<radialGradient id="SVGID_00000106146263738054998030000014283254508652272311_" cx="145.386" cy="108.3959" r="39.3367" gradientTransform="matrix(1 0 0 -1 0 502)" gradientUnits="userSpaceOnUse">
			<stop  offset="0.2479" style="stop-color:#26B2EF"/>
			<stop  offset="0.8306" style="stop-color:#FFFFFF"/>
		</radialGradient>
		<path style="fill:url(#SVGID_00000106146263738054998030000014283254508652272311_);" d="M171.5,405.1l-19.9-11.5l19.9-11.5
			c1.5-0.8,2-2.7,1.1-4.2l0,0c-0.8-1.5-2.7-2-4.2-1.1l-20,11.5v-23c0-1.7-1.4-3.1-3.1-3.1s-3.1,1.4-3.1,3.1v23l-20-11.5
			c-1.5-0.8-3.3-0.3-4.2,1.1c-0.8,1.5-0.3,3.3,1.1,4.2l19.9,11.5l-19.9,11.5c-1.5,0.8-2,2.7-1.1,4.2s2.7,2,4.2,1.1l20-11.5v23
			c0,1.7,1.4,3.1,3.1,3.1s3.1-1.4,3.1-3.1v-23l20,11.5c1.5,0.8,3.3,0.3,4.2-1.1l0,0C173.4,407.8,172.9,406,171.5,405.1z"/>
	</g>
	<g>
		<g>
			
				<linearGradient id="SVGID_00000121272947730531901520000002675431052602589866_" gradientUnits="userSpaceOnUse" x1="200.0655" y1="281.9864" x2="199.8877" y2="267.5419" gradientTransform="matrix(0.6483 0.7613 0.6339 -0.5398 -48.2483 363.5196)">
				<stop  offset="0" style="stop-color:#FFFFFF"/>
				<stop  offset="0.2015" style="stop-color:#FFFFFF"/>
				<stop  offset="0.8512" style="stop-color:#26B2EF"/>
			</linearGradient>
			<path style="fill:url(#SVGID_00000121272947730531901520000002675431052602589866_);" d="M248.6,373.3L248.6,373.3
				c-0.9-1.1-0.8-2.8,0.3-3.7l5.6-4.8c1.1-0.9,2.8-0.8,3.7,0.3l0,0c0.9,1.1,0.8,2.8-0.3,3.7l-5.6,4.8
				C251.2,374.6,249.5,374.4,248.6,373.3z"/>
			
				<linearGradient id="SVGID_00000022559785969924087910000012794142676795071143_" gradientUnits="userSpaceOnUse" x1="32.411" y1="45.5573" x2="32.2331" y2="31.1128" gradientTransform="matrix(-0.6483 0.7613 -0.6339 -0.5398 286.847 363.5196)">
				<stop  offset="0" style="stop-color:#FFFFFF"/>
				<stop  offset="0.2015" style="stop-color:#FFFFFF"/>
				<stop  offset="0.8512" style="stop-color:#26B2EF"/>
			</linearGradient>
			<path style="fill:url(#SVGID_00000022559785969924087910000012794142676795071143_);" d="M248.5,373.3L248.5,373.3
				c0.9-1.1,0.8-2.8-0.3-3.7l-5.6-4.8c-1.1-0.9-2.8-0.8-3.7,0.3l0,0c-0.9,1.1-0.8,2.8,0.3,3.7l5.6,4.8
				C245.9,374.6,247.5,374.4,248.5,373.3z"/>
		</g>
		<g>
			
				<linearGradient id="SVGID_00000065766732324875430050000010597997113407403683_" gradientUnits="userSpaceOnUse" x1="250.7671" y1="82.2017" x2="250.5892" y2="67.7572" gradientTransform="matrix(0.9835 -0.1808 -0.1505 -0.8188 -5.8513 481.165)">
				<stop  offset="0" style="stop-color:#FFFFFF"/>
				<stop  offset="0.2015" style="stop-color:#FFFFFF"/>
				<stop  offset="0.8512" style="stop-color:#26B2EF"/>
			</linearGradient>
			<path style="fill:url(#SVGID_00000065766732324875430050000010597997113407403683_);" d="M231,383.5L231,383.5
				c-1.4,0.3-2.8-0.7-3.1-2.1l-1.3-7.2c-0.3-1.4,0.7-2.8,2.1-3.1l0,0c1.4-0.3,2.8,0.7,3.1,2.1l1.3,7.2
				C233.4,381.8,232.4,383.2,231,383.5z"/>
			
				<linearGradient id="SVGID_00000023275839065920010370000000972510958997173636_" gradientUnits="userSpaceOnUse" x1="204.7393" y1="17.2969" x2="204.5615" y2="2.8523" gradientTransform="matrix(0.3352 0.9422 -0.7844 0.2791 161.6963 190.9874)">
				<stop  offset="0" style="stop-color:#FFFFFF"/>
				<stop  offset="0.2015" style="stop-color:#FFFFFF"/>
				<stop  offset="0.8512" style="stop-color:#26B2EF"/>
			</linearGradient>
			<path style="fill:url(#SVGID_00000023275839065920010370000000972510958997173636_);" d="M230.9,383.5L230.9,383.5
				c-0.5-1.4-2-2.1-3.4-1.6l-6.9,2.5c-1.4,0.5-2.1,2-1.6,3.4l0,0c0.5,1.4,2,2.1,3.4,1.6l6.9-2.5
				C230.7,386.4,231.4,384.9,230.9,383.5z"/>
		</g>
		<g>
			
				<linearGradient id="SVGID_00000027568766265234186050000015435294341626708617_" gradientUnits="userSpaceOnUse" x1="119.1479" y1="-107.1957" x2="118.9701" y2="-121.6403" gradientTransform="matrix(0.3352 -0.9422 -0.7844 -0.2791 92.7532 480.8376)">
				<stop  offset="0" style="stop-color:#FFFFFF"/>
				<stop  offset="0.2015" style="stop-color:#FFFFFF"/>
				<stop  offset="0.8512" style="stop-color:#26B2EF"/>
			</linearGradient>
			<path style="fill:url(#SVGID_00000027568766265234186050000015435294341626708617_);" d="M230.9,403.7L230.9,403.7
				c-0.5,1.4-2,2.1-3.4,1.6l-6.9-2.5c-1.4-0.5-2.1-2-1.6-3.4l0,0c0.5-1.4,2-2.1,3.4-1.6l6.9,2.5
				C230.7,400.8,231.4,402.4,230.9,403.7z"/>
			
				<linearGradient id="SVGID_00000053533827033272856160000010932644106663989676_" gradientUnits="userSpaceOnUse" x1="339.4515" y1="203.5971" x2="339.2737" y2="189.1526" gradientTransform="matrix(0.9835 0.1808 -0.1505 0.8188 -74.7945 190.66)">
				<stop  offset="0" style="stop-color:#FFFFFF"/>
				<stop  offset="0.2015" style="stop-color:#FFFFFF"/>
				<stop  offset="0.8512" style="stop-color:#26B2EF"/>
			</linearGradient>
			<path style="fill:url(#SVGID_00000053533827033272856160000010932644106663989676_);" d="M231,403.8L231,403.8
				c-1.4-0.3-2.8,0.7-3.1,2.1l-1.3,7.2c-0.3,1.4,0.7,2.8,2.1,3.1l0,0c1.4,0.3,2.8-0.7,3.1-2.1l1.3-7.2
				C233.4,405.4,232.4,404.1,231,403.8z"/>
		</g>
		<g>
			
				<linearGradient id="SVGID_00000150089719073127526940000009411443811578062232_" gradientUnits="userSpaceOnUse" x1="-150.9082" y1="170.8828" x2="-151.0861" y2="156.4383" gradientTransform="matrix(-0.9835 -0.1808 0.1505 -0.8188 94.6302 481.165)">
				<stop  offset="0" style="stop-color:#FFFFFF"/>
				<stop  offset="0.2015" style="stop-color:#FFFFFF"/>
				<stop  offset="0.8512" style="stop-color:#26B2EF"/>
			</linearGradient>
			<path style="fill:url(#SVGID_00000150089719073127526940000009411443811578062232_);" d="M266.1,383.5L266.1,383.5
				c1.4,0.3,2.8-0.7,3.1-2.1l1.3-7.2c0.3-1.4-0.7-2.8-2.1-3.1l0,0c-1.4-0.3-2.8,0.7-3.1,2.1l-1.3,7.2
				C263.7,381.8,264.7,383.2,266.1,383.5z"/>
			
				<linearGradient id="SVGID_00000114770463642210380450000000286687220841717436_" gradientUnits="userSpaceOnUse" x1="67.8758" y1="479.4112" x2="67.698" y2="464.9667" gradientTransform="matrix(-0.3352 0.9422 0.7844 0.2791 -72.9174 190.9874)">
				<stop  offset="0" style="stop-color:#FFFFFF"/>
				<stop  offset="0.2015" style="stop-color:#FFFFFF"/>
				<stop  offset="0.8512" style="stop-color:#26B2EF"/>
			</linearGradient>
			<path style="fill:url(#SVGID_00000114770463642210380450000000286687220841717436_);" d="M266.1,383.5L266.1,383.5
				c0.5-1.4,2-2.1,3.4-1.6l6.9,2.5c1.4,0.5,2.1,2,1.6,3.4l0,0c-0.5,1.4-2,2.1-3.4,1.6l-6.9-2.5C266.4,386.4,265.6,384.9,266.1,383.5
				z"/>
		</g>
		<g>
			
				<linearGradient id="SVGID_00000084523130401443675850000015486932497984519566_" gradientUnits="userSpaceOnUse" x1="-17.7156" y1="354.9186" x2="-17.8934" y2="340.4741" gradientTransform="matrix(-0.3352 -0.9422 0.7844 -0.2791 -3.9743 480.8376)">
				<stop  offset="0" style="stop-color:#FFFFFF"/>
				<stop  offset="0.2015" style="stop-color:#FFFFFF"/>
				<stop  offset="0.8512" style="stop-color:#26B2EF"/>
			</linearGradient>
			<path style="fill:url(#SVGID_00000084523130401443675850000015486932497984519566_);" d="M266.1,403.7L266.1,403.7
				c0.5,1.4,2,2.1,3.4,1.6l6.9-2.5c1.4-0.5,2.1-2,1.6-3.4l0,0c-0.5-1.4-2-2.1-3.4-1.6l-6.9,2.5C266.4,400.8,265.6,402.4,266.1,403.7
				z"/>
			
				<linearGradient id="SVGID_00000153689024872040562810000016155741356706689726_" gradientUnits="userSpaceOnUse" x1="-62.2238" y1="292.2782" x2="-62.4016" y2="277.8337" gradientTransform="matrix(-0.9835 0.1808 0.1505 0.8188 163.5734 190.66)">
				<stop  offset="0" style="stop-color:#FFFFFF"/>
				<stop  offset="0.2015" style="stop-color:#FFFFFF"/>
				<stop  offset="0.8512" style="stop-color:#26B2EF"/>
			</linearGradient>
			<path style="fill:url(#SVGID_00000153689024872040562810000016155741356706689726_);" d="M266.1,403.8L266.1,403.8
				c1.4-0.3,2.8,0.7,3.1,2.1l1.3,7.2c0.3,1.4-0.7,2.8-2.1,3.1l0,0c-1.4,0.3-2.8-0.7-3.1-2.1l-1.3-7.2
				C263.7,405.4,264.7,404.1,266.1,403.8z"/>
		</g>
		<g>
			
				<linearGradient id="SVGID_00000081641089814707524600000018082717733490607036_" gradientUnits="userSpaceOnUse" x1="-92.7796" y1="-118.9237" x2="-92.9574" y2="-133.3682" gradientTransform="matrix(-0.6483 -0.7613 -0.6339 0.5398 101.4014 417.1863)">
				<stop  offset="0" style="stop-color:#FFFFFF"/>
				<stop  offset="0.2015" style="stop-color:#FFFFFF"/>
				<stop  offset="0.8512" style="stop-color:#26B2EF"/>
			</linearGradient>
			<path style="fill:url(#SVGID_00000081641089814707524600000018082717733490607036_);" d="M248.5,413.9L248.5,413.9
				c0.9,1.1,0.8,2.8-0.3,3.7l-5.6,4.8c-1.1,0.9-2.8,0.8-3.7-0.3l0,0c-0.9-1.1-0.8-2.8,0.3-3.7l5.6-4.8
				C245.9,412.7,247.5,412.8,248.5,413.9z"/>
			
				<linearGradient id="SVGID_00000065044399472148119940000018039706870212363426_" gradientUnits="userSpaceOnUse" x1="315.3524" y1="456.6745" x2="315.1747" y2="442.23" gradientTransform="matrix(0.6483 -0.7613 0.6339 0.5398 -233.6939 417.1863)">
				<stop  offset="0" style="stop-color:#FFFFFF"/>
				<stop  offset="0.2015" style="stop-color:#FFFFFF"/>
				<stop  offset="0.8512" style="stop-color:#26B2EF"/>
			</linearGradient>
			<path style="fill:url(#SVGID_00000065044399472148119940000018039706870212363426_);" d="M248.6,413.9L248.6,413.9
				c-0.9,1.1-0.8,2.8,0.3,3.7l5.6,4.8c1.1,0.9,2.8,0.8,3.7-0.3l0,0c0.9-1.1,0.8-2.8-0.3-3.7l-5.6-4.8
				C251.2,412.7,249.5,412.8,248.6,413.9z"/>
		</g>
		
			<radialGradient id="SVGID_00000088121502017388057230000001820241565269256074_" cx="248.5656" cy="108.3959" r="39.3367" gradientTransform="matrix(1 0 0 -1 0 502)" gradientUnits="userSpaceOnUse">
			<stop  offset="0.2479" style="stop-color:#26B2EF"/>
			<stop  offset="0.8306" style="stop-color:#FFFFFF"/>
		</radialGradient>
		<path style="fill:url(#SVGID_00000088121502017388057230000001820241565269256074_);" d="M274.6,405.1l-19.9-11.5l19.9-11.5
			c1.5-0.8,2-2.7,1.1-4.2l0,0c-0.8-1.5-2.7-2-4.2-1.1l-20,11.5v-23c0-1.7-1.4-3.1-3.1-3.1s-3.1,1.4-3.1,3.1v23l-20-11.5
			c-1.5-0.8-3.3-0.3-4.2,1.1c-0.8,1.5-0.3,3.3,1.1,4.2l19.9,11.5l-19.9,11.5c-1.5,0.8-2,2.7-1.1,4.2s2.7,2,4.2,1.1l20-11.5v23
			c0,1.7,1.4,3.1,3.1,3.1s3.1-1.4,3.1-3.1v-23l20,11.5c1.5,0.8,3.3,0.3,4.2-1.1l0,0C276.5,407.8,276,406,274.6,405.1z"/>
	</g>
	<g>
		<g>
			
				<linearGradient id="SVGID_00000123421778202079556540000008077418493122521499_" gradientUnits="userSpaceOnUse" x1="266.9647" y1="376.3369" x2="266.7869" y2="361.8924" gradientTransform="matrix(0.6483 0.7613 0.6339 -0.5398 -48.2483 363.5196)">
				<stop  offset="0" style="stop-color:#FFFFFF"/>
				<stop  offset="0.2015" style="stop-color:#FFFFFF"/>
				<stop  offset="0.8512" style="stop-color:#26B2EF"/>
			</linearGradient>
			<path style="fill:url(#SVGID_00000123421778202079556540000008077418493122521499_);" d="M351.8,373.3L351.8,373.3
				c-0.9-1.1-0.8-2.8,0.3-3.7l5.6-4.8c1.1-0.9,2.8-0.8,3.7,0.3l0,0c0.9,1.1,0.8,2.8-0.3,3.7l-5.6,4.8
				C354.4,374.6,352.7,374.4,351.8,373.3z"/>
			
				<linearGradient id="SVGID_00000124159864012764113900000010559850317814787759_" gradientUnits="userSpaceOnUse" x1="-34.4882" y1="-48.7932" x2="-34.6661" y2="-63.2377" gradientTransform="matrix(-0.6483 0.7613 -0.6339 -0.5398 286.847 363.5196)">
				<stop  offset="0" style="stop-color:#FFFFFF"/>
				<stop  offset="0.2015" style="stop-color:#FFFFFF"/>
				<stop  offset="0.8512" style="stop-color:#26B2EF"/>
			</linearGradient>
			<path style="fill:url(#SVGID_00000124159864012764113900000010559850317814787759_);" d="M351.7,373.3L351.7,373.3
				c0.9-1.1,0.8-2.8-0.3-3.7l-5.6-4.8c-1.1-0.9-2.8-0.8-3.7,0.3l0,0c-0.9,1.1-0.8,2.8,0.3,3.7l5.6,4.8
				C349.1,374.6,350.7,374.4,351.7,373.3z"/>
		</g>
		<g>
			
				<linearGradient id="SVGID_00000170971909567612713700000002752902944576161425_" gradientUnits="userSpaceOnUse" x1="352.2486" y1="59.7935" x2="352.0707" y2="45.3489" gradientTransform="matrix(0.9835 -0.1808 -0.1505 -0.8188 -5.8513 481.165)">
				<stop  offset="0" style="stop-color:#FFFFFF"/>
				<stop  offset="0.2015" style="stop-color:#FFFFFF"/>
				<stop  offset="0.8512" style="stop-color:#26B2EF"/>
			</linearGradient>
			<path style="fill:url(#SVGID_00000170971909567612713700000002752902944576161425_);" d="M334.2,383.5L334.2,383.5
				c-1.4,0.3-2.8-0.7-3.1-2.1l-1.3-7.2c-0.3-1.4,0.7-2.8,2.1-3.1l0,0c1.4-0.3,2.8,0.7,3.1,2.1l1.3,7.2
				C336.6,381.8,335.6,383.2,334.2,383.5z"/>
			
				<linearGradient id="SVGID_00000026845398691881485210000015931029541413511095_" gradientUnits="userSpaceOnUse" x1="239.326" y1="-99.4625" x2="239.1482" y2="-113.9071" gradientTransform="matrix(0.3352 0.9422 -0.7844 0.2791 161.6963 190.9874)">
				<stop  offset="0" style="stop-color:#FFFFFF"/>
				<stop  offset="0.2015" style="stop-color:#FFFFFF"/>
				<stop  offset="0.8512" style="stop-color:#26B2EF"/>
			</linearGradient>
			<path style="fill:url(#SVGID_00000026845398691881485210000015931029541413511095_);" d="M334.1,383.5L334.1,383.5
				c-0.5-1.4-2-2.1-3.4-1.6l-6.9,2.5c-1.4,0.5-2.1,2-1.6,3.4l0,0c0.5,1.4,2,2.1,3.4,1.6l6.9-2.5
				C333.9,386.4,334.6,384.9,334.1,383.5z"/>
		</g>
		<g>
			
				<linearGradient id="SVGID_00000134938652986664807800000004246334622436709039_" gradientUnits="userSpaceOnUse" x1="153.7346" y1="-223.9551" x2="153.5568" y2="-238.3997" gradientTransform="matrix(0.3352 -0.9422 -0.7844 -0.2791 92.7532 480.8376)">
				<stop  offset="0" style="stop-color:#FFFFFF"/>
				<stop  offset="0.2015" style="stop-color:#FFFFFF"/>
				<stop  offset="0.8512" style="stop-color:#26B2EF"/>
			</linearGradient>
			<path style="fill:url(#SVGID_00000134938652986664807800000004246334622436709039_);" d="M334.1,403.7L334.1,403.7
				c-0.5,1.4-2,2.1-3.4,1.6l-6.9-2.5c-1.4-0.5-2.1-2-1.6-3.4l0,0c0.5-1.4,2-2.1,3.4-1.6l6.9,2.5
				C333.9,400.8,334.6,402.4,334.1,403.7z"/>
			
				<linearGradient id="SVGID_00000062897711486428138930000010909596227924572836_" gradientUnits="userSpaceOnUse" x1="440.933" y1="181.1889" x2="440.7552" y2="166.7443" gradientTransform="matrix(0.9835 0.1808 -0.1505 0.8188 -74.7945 190.66)">
				<stop  offset="0" style="stop-color:#FFFFFF"/>
				<stop  offset="0.2015" style="stop-color:#FFFFFF"/>
				<stop  offset="0.8512" style="stop-color:#26B2EF"/>
			</linearGradient>
			<path style="fill:url(#SVGID_00000062897711486428138930000010909596227924572836_);" d="M334.2,403.8L334.2,403.8
				c-1.4-0.3-2.8,0.7-3.1,2.1l-1.3,7.2c-0.3,1.4,0.7,2.8,2.1,3.1l0,0c1.4,0.3,2.8-0.7,3.1-2.1l1.3-7.2
				C336.6,405.4,335.6,404.1,334.2,403.8z"/>
		</g>
		<g>
			
				<linearGradient id="SVGID_00000100344712436342328800000002015890471531965872_" gradientUnits="userSpaceOnUse" x1="-252.3898" y1="193.291" x2="-252.5677" y2="178.8465" gradientTransform="matrix(-0.9835 -0.1808 0.1505 -0.8188 94.6302 481.165)">
				<stop  offset="0" style="stop-color:#FFFFFF"/>
				<stop  offset="0.2015" style="stop-color:#FFFFFF"/>
				<stop  offset="0.8512" style="stop-color:#26B2EF"/>
			</linearGradient>
			<path style="fill:url(#SVGID_00000100344712436342328800000002015890471531965872_);" d="M369.3,383.5L369.3,383.5
				c1.4,0.3,2.8-0.7,3.1-2.1l1.3-7.2c0.3-1.4-0.7-2.8-2.1-3.1l0,0c-1.4-0.3-2.8,0.7-3.1,2.1l-1.3,7.2
				C366.9,381.8,367.9,383.2,369.3,383.5z"/>
			
				<linearGradient id="SVGID_00000161602504430557412580000012329405165463977893_" gradientUnits="userSpaceOnUse" x1="33.2892" y1="596.1706" x2="33.1114" y2="581.7261" gradientTransform="matrix(-0.3352 0.9422 0.7844 0.2791 -72.9174 190.9874)">
				<stop  offset="0" style="stop-color:#FFFFFF"/>
				<stop  offset="0.2015" style="stop-color:#FFFFFF"/>
				<stop  offset="0.8512" style="stop-color:#26B2EF"/>
			</linearGradient>
			<path style="fill:url(#SVGID_00000161602504430557412580000012329405165463977893_);" d="M369.3,383.5L369.3,383.5
				c0.5-1.4,2-2.1,3.4-1.6l6.9,2.5c1.4,0.5,2.1,2,1.6,3.4l0,0c-0.5,1.4-2,2.1-3.4,1.6l-6.9-2.5C369.6,386.4,368.8,384.9,369.3,383.5
				z"/>
		</g>
		<g>
			
				<linearGradient id="SVGID_00000114763536927520211360000002454565476178320810_" gradientUnits="userSpaceOnUse" x1="-52.3022" y1="471.678" x2="-52.48" y2="457.2335" gradientTransform="matrix(-0.3352 -0.9422 0.7844 -0.2791 -3.9743 480.8376)">
				<stop  offset="0" style="stop-color:#FFFFFF"/>
				<stop  offset="0.2015" style="stop-color:#FFFFFF"/>
				<stop  offset="0.8512" style="stop-color:#26B2EF"/>
			</linearGradient>
			<path style="fill:url(#SVGID_00000114763536927520211360000002454565476178320810_);" d="M369.3,403.7L369.3,403.7
				c0.5,1.4,2,2.1,3.4,1.6l6.9-2.5c1.4-0.5,2.1-2,1.6-3.4l0,0c-0.5-1.4-2-2.1-3.4-1.6l-6.9,2.5C369.6,400.8,368.8,402.4,369.3,403.7
				z"/>
			
				<linearGradient id="SVGID_00000052814725926249816740000002052744818901226659_" gradientUnits="userSpaceOnUse" x1="-163.7053" y1="314.6864" x2="-163.8831" y2="300.2419" gradientTransform="matrix(-0.9835 0.1808 0.1505 0.8188 163.5734 190.66)">
				<stop  offset="0" style="stop-color:#FFFFFF"/>
				<stop  offset="0.2015" style="stop-color:#FFFFFF"/>
				<stop  offset="0.8512" style="stop-color:#26B2EF"/>
			</linearGradient>
			<path style="fill:url(#SVGID_00000052814725926249816740000002052744818901226659_);" d="M369.3,403.8L369.3,403.8
				c1.4-0.3,2.8,0.7,3.1,2.1l1.3,7.2c0.3,1.4-0.7,2.8-2.1,3.1l0,0c-1.4,0.3-2.8-0.7-3.1-2.1l-1.3-7.2
				C366.9,405.4,367.9,404.1,369.3,403.8z"/>
		</g>
		<g>
			
				<linearGradient id="SVGID_00000130604766758688674320000017719823176074726037_" gradientUnits="userSpaceOnUse" x1="-159.6789" y1="-213.2741" x2="-159.8567" y2="-227.7186" gradientTransform="matrix(-0.6483 -0.7613 -0.6339 0.5398 101.4014 417.1863)">
				<stop  offset="0" style="stop-color:#FFFFFF"/>
				<stop  offset="0.2015" style="stop-color:#FFFFFF"/>
				<stop  offset="0.8512" style="stop-color:#26B2EF"/>
			</linearGradient>
			<path style="fill:url(#SVGID_00000130604766758688674320000017719823176074726037_);" d="M351.7,413.9L351.7,413.9
				c0.9,1.1,0.8,2.8-0.3,3.7l-5.6,4.8c-1.1,0.9-2.8,0.8-3.7-0.3l0,0c-0.9-1.1-0.8-2.8,0.3-3.7l5.6-4.8
				C349.1,412.7,350.7,412.8,351.7,413.9z"/>
			
				<linearGradient id="SVGID_00000014625933439836548630000014512690665789932194_" gradientUnits="userSpaceOnUse" x1="382.2516" y1="551.025" x2="382.0739" y2="536.5805" gradientTransform="matrix(0.6483 -0.7613 0.6339 0.5398 -233.6939 417.1863)">
				<stop  offset="0" style="stop-color:#FFFFFF"/>
				<stop  offset="0.2015" style="stop-color:#FFFFFF"/>
				<stop  offset="0.8512" style="stop-color:#26B2EF"/>
			</linearGradient>
			<path style="fill:url(#SVGID_00000014625933439836548630000014512690665789932194_);" d="M351.8,413.9L351.8,413.9
				c-0.9,1.1-0.8,2.8,0.3,3.7l5.6,4.8c1.1,0.9,2.8,0.8,3.7-0.3l0,0c0.9-1.1,0.8-2.8-0.3-3.7l-5.6-4.8
				C354.4,412.7,352.7,412.8,351.8,413.9z"/>
		</g>
		
			<radialGradient id="SVGID_00000070832675409261210590000014609391074931675030_" cx="351.7451" cy="108.3959" r="39.3367" gradientTransform="matrix(1 0 0 -1 0 502)" gradientUnits="userSpaceOnUse">
			<stop  offset="0.2479" style="stop-color:#26B2EF"/>
			<stop  offset="0.8306" style="stop-color:#FFFFFF"/>
		</radialGradient>
		<path style="fill:url(#SVGID_00000070832675409261210590000014609391074931675030_);" d="M377.8,405.1l-19.9-11.5l19.9-11.5
			c1.5-0.8,2-2.7,1.1-4.2l0,0c-0.8-1.5-2.7-2-4.2-1.1l-20,11.5v-23c0-1.7-1.4-3.1-3.1-3.1s-3.1,1.4-3.1,3.1v23l-20-11.5
			c-1.5-0.8-3.3-0.3-4.2,1.1c-0.8,1.5-0.3,3.3,1.1,4.2l19.9,11.5l-19.9,11.5c-1.5,0.8-2,2.7-1.1,4.2s2.7,2,4.2,1.1l20-11.5v23
			c0,1.7,1.4,3.1,3.1,3.1s3.1-1.4,3.1-3.1v-23l20,11.5c1.5,0.8,3.3,0.3,4.2-1.1l0,0C379.7,407.8,379.2,406,377.8,405.1z"/>
	</g>
</g>
</svg>
