<?xml version="1.0" encoding="utf-8"?>
<!-- Generator: Adobe Illustrator 26.0.3, SVG Export Plug-In . SVG Version: 6.00 Build 0)  -->
<svg version="1.1" id="图层_1" xmlns="http://www.w3.org/2000/svg" xmlns:xlink="http://www.w3.org/1999/xlink" x="0px" y="0px"
	 viewBox="0 0 500 500" style="enable-background:new 0 0 500 500;" xml:space="preserve">
<style type="text/css">
	.st0{fill:url(#SVGID_1_);}
	.st1{fill-rule:evenodd;clip-rule:evenodd;fill:url(#SVGID_00000002347059365995609180000008521648808318294936_);}
	.st2{fill:url(#SVGID_00000030470833535468058560000010493444280534338235_);}
	.st3{fill:url(#SVGID_00000138547933890100940020000011725841054539217069_);}
	.st4{fill:url(#SVGID_00000163764437287303236510000006210806088387337089_);}
	.st5{fill:url(#SVGID_00000021097138614127080570000004167485486850970299_);}
	.st6{fill:url(#SVGID_00000052810117585642787540000010694373903160500608_);}
	.st7{fill:url(#SVGID_00000180331769635419967440000014635309314288647576_);}
	.st8{fill:url(#SVGID_00000180336098889214380190000007971124804361410448_);}
	.st9{fill:url(#SVGID_00000102539330363498082590000011511828863502904737_);}
	.st10{fill:url(#SVGID_00000164505452080270437120000008491128772831505031_);}
	.st11{fill:url(#SVGID_00000055697564585491529600000007838514367796619940_);}
	.st12{fill:url(#SVGID_00000005224531810467342300000003356728545246978713_);}
	.st13{fill:url(#SVGID_00000183928633057699916830000000364858400062377349_);}
	.st14{fill:url(#SVGID_00000171701783833462159010000004835927162405687938_);}
	.st15{fill:url(#SVGID_00000036244978881978282830000015142713589575120297_);}
	.st16{fill:url(#SVGID_00000178893849437017290530000014364544690493469863_);}
</style>
<g>
	<g>
		<linearGradient id="SVGID_1_" gradientUnits="userSpaceOnUse" x1="194.6612" y1="53.244" x2="431.626" y2="319.8125">
			<stop  offset="0.2459" style="stop-color:#FAFAFA"/>
			<stop  offset="0.4701" style="stop-color:#D2D2D2"/>
			<stop  offset="0.6556" style="stop-color:#B9B9B9"/>
			<stop  offset="0.7664" style="stop-color:#AFAFAF"/>
		</linearGradient>
		<path class="st0" d="M398.6,171.7c-0.1,0-0.3,0-0.4,0c-4.3-46.3-43.2-82.6-90.6-82.6c-50.3,0-91,40.8-91,91
			c0,48.6,38.1,88.3,86.1,90.9v0.1h96c27.5,0,49.8-22.3,49.8-49.8S426.1,171.7,398.6,171.7z"/>
		
			<linearGradient id="SVGID_00000002350132738924544690000005717127640259874716_" gradientUnits="userSpaceOnUse" x1="218.987" y1="84.7729" x2="361.1229" y2="189.4906">
			<stop  offset="4.977477e-03" style="stop-color:#FFFFFF"/>
			<stop  offset="0.8567" style="stop-color:#F99C00"/>
		</linearGradient>
		<path style="fill-rule:evenodd;clip-rule:evenodd;fill:url(#SVGID_00000002350132738924544690000005717127640259874716_);" d="
			M365.2,154.6c-47.2,0-85.5-38.3-85.5-85.5c0-8.8,1.3-17.4,3.8-25.4c0.3-0.8-0.5-1.7-1.3-1.5c-38.9,7.3-68.6,40.9-69.7,81.6
			c-1.4,48.9,38.8,89.2,87.7,88c36.1-0.9,66.6-24.2,78.3-56.4c0.3-0.8-0.4-1.7-1.3-1.6C373.2,154.4,369.2,154.6,365.2,154.6z"/>
		
			<linearGradient id="SVGID_00000039131490263962345880000003860417700899654304_" gradientUnits="userSpaceOnUse" x1="82.1779" y1="168.2756" x2="356.8263" y2="347.2374">
			<stop  offset="0.1491" style="stop-color:#FAFAFA"/>
			<stop  offset="0.818" style="stop-color:#CBCBCB"/>
		</linearGradient>
		<path style="fill:url(#SVGID_00000039131490263962345880000003860417700899654304_);" d="M342.3,197.2
			c-14.7-50.1-60.9-86.7-115.7-86.7c-65.8,0-119.3,52.8-120.5,118.3c-30.6,3.6-54.4,29.6-54.4,61.2c0,34.1,27.6,61.7,61.7,61.7
			h219.8c42.8,0,77.6-34.7,77.6-77.6C410.7,234.5,380.8,201.8,342.3,197.2z"/>
	</g>
	<g>
		
			<linearGradient id="SVGID_00000011010418154526201800000002619304978788080307_" gradientUnits="userSpaceOnUse" x1="28.9964" y1="474.1254" x2="99.3761" y2="346.8637" gradientTransform="matrix(-0.9054 -5.866064e-02 -0.2719 -0.6488 345.1177 684.4865)">
			<stop  offset="0" style="stop-color:#FFFFFF"/>
			<stop  offset="9.948106e-02" style="stop-color:#FFFFFF"/>
			<stop  offset="0.8537" style="stop-color:#26B2EF"/>
		</linearGradient>
		<path style="fill:url(#SVGID_00000011010418154526201800000002619304978788080307_);" d="M147.6,430.4l13.4-33
			c4.1-10.2,15.7-15,25.9-10.9l0,0c10.2,4.1,15,15.7,10.9,25.9l-13.4,33c-4.1,10.2-15.7,15-25.9,10.9h0
			C148.4,452.2,143.5,440.6,147.6,430.4z"/>
		<g>
			<g>
				
					<linearGradient id="SVGID_00000030474744061619149040000009784283714490876302_" gradientUnits="userSpaceOnUse" x1="270.3064" y1="329.4878" x2="270.1286" y2="315.0432" gradientTransform="matrix(0.6483 0.7613 0.6339 -0.5398 -48.2483 363.5196)">
					<stop  offset="0" style="stop-color:#FFFFFF"/>
					<stop  offset="0.2015" style="stop-color:#FFFFFF"/>
					<stop  offset="0.8512" style="stop-color:#26B2EF"/>
				</linearGradient>
				<path style="fill:url(#SVGID_00000030474744061619149040000009784283714490876302_);" d="M324.3,401.1L324.3,401.1
					c-0.9-1.1-0.8-2.8,0.3-3.7l5.6-4.8c1.1-0.9,2.8-0.8,3.7,0.3l0,0c0.9,1.1,0.8,2.8-0.3,3.7l-5.6,4.8
					C326.9,402.4,325.2,402.2,324.3,401.1z"/>
				
					<linearGradient id="SVGID_00000166659581836855563550000015773587373224092822_" gradientUnits="userSpaceOnUse" x1="4.5651" y1="-45.3022" x2="4.3872" y2="-59.7468" gradientTransform="matrix(-0.6483 0.7613 -0.6339 -0.5398 286.847 363.5196)">
					<stop  offset="0" style="stop-color:#FFFFFF"/>
					<stop  offset="0.2015" style="stop-color:#FFFFFF"/>
					<stop  offset="0.8512" style="stop-color:#26B2EF"/>
				</linearGradient>
				<path style="fill:url(#SVGID_00000166659581836855563550000015773587373224092822_);" d="M324.2,401.1L324.2,401.1
					c0.9-1.1,0.8-2.8-0.3-3.7l-5.6-4.8c-1.1-0.9-2.8-0.8-3.7,0.3l0,0c-0.9,1.1-0.8,2.8,0.3,3.7l5.6,4.8
					C321.6,402.4,323.3,402.2,324.2,401.1z"/>
			</g>
			<g>
				
					<linearGradient id="SVGID_00000164474249619561831270000007280589426247039620_" gradientUnits="userSpaceOnUse" x1="320.1292" y1="32.8781" x2="319.9514" y2="18.4336" gradientTransform="matrix(0.9835 -0.1808 -0.1505 -0.8188 -5.8513 481.165)">
					<stop  offset="0" style="stop-color:#FFFFFF"/>
					<stop  offset="0.2015" style="stop-color:#FFFFFF"/>
					<stop  offset="0.8512" style="stop-color:#26B2EF"/>
				</linearGradient>
				<path style="fill:url(#SVGID_00000164474249619561831270000007280589426247039620_);" d="M306.7,411.3L306.7,411.3
					c-1.4,0.3-2.8-0.7-3.1-2.1l-1.3-7.2c-0.3-1.4,0.7-2.8,2.1-3.1l0,0c1.4-0.3,2.8,0.7,3.1,2.1l1.3,7.2
					C309.1,409.6,308.1,411,306.7,411.3z"/>
				
					<linearGradient id="SVGID_00000038413225296499135320000010737313866764886408_" gradientUnits="userSpaceOnUse" x1="256.3569" y1="-57.1118" x2="256.1791" y2="-71.5563" gradientTransform="matrix(0.3352 0.9422 -0.7844 0.2791 161.6963 190.9874)">
					<stop  offset="0" style="stop-color:#FFFFFF"/>
					<stop  offset="0.2015" style="stop-color:#FFFFFF"/>
					<stop  offset="0.8512" style="stop-color:#26B2EF"/>
				</linearGradient>
				<path style="fill:url(#SVGID_00000038413225296499135320000010737313866764886408_);" d="M306.7,411.3L306.7,411.3
					c-0.5-1.4-2-2.1-3.4-1.6l-6.9,2.5c-1.4,0.5-2.1,2-1.6,3.4l0,0c0.5,1.4,2,2.1,3.4,1.6l6.9-2.5
					C306.4,414.2,307.1,412.7,306.7,411.3z"/>
			</g>
			<g>
				
					<linearGradient id="SVGID_00000128486691423685137430000007262286054260993166_" gradientUnits="userSpaceOnUse" x1="118.3097" y1="-204.0204" x2="118.1319" y2="-218.4649" gradientTransform="matrix(0.3352 -0.9422 -0.7844 -0.2791 92.7532 480.8376)">
					<stop  offset="0" style="stop-color:#FFFFFF"/>
					<stop  offset="0.2015" style="stop-color:#FFFFFF"/>
					<stop  offset="0.8512" style="stop-color:#26B2EF"/>
				</linearGradient>
				<path style="fill:url(#SVGID_00000128486691423685137430000007262286054260993166_);" d="M306.7,431.5L306.7,431.5
					c-0.5,1.4-2,2.1-3.4,1.6l-6.9-2.5c-1.4-0.5-2.1-2-1.6-3.4l0,0c0.5-1.4,2-2.1,3.4-1.6l6.9,2.5
					C306.4,428.6,307.1,430.2,306.7,431.5z"/>
				
					<linearGradient id="SVGID_00000159451887568509920000000005167336188751719861_" gradientUnits="userSpaceOnUse" x1="418.8796" y1="220.0531" x2="418.7018" y2="205.6085" gradientTransform="matrix(0.9835 0.1808 -0.1505 0.8188 -74.7945 190.66)">
					<stop  offset="0" style="stop-color:#FFFFFF"/>
					<stop  offset="0.2015" style="stop-color:#FFFFFF"/>
					<stop  offset="0.8512" style="stop-color:#26B2EF"/>
				</linearGradient>
				<path style="fill:url(#SVGID_00000159451887568509920000000005167336188751719861_);" d="M306.7,431.6L306.7,431.6
					c-1.4-0.3-2.8,0.7-3.1,2.1l-1.3,7.2c-0.3,1.4,0.7,2.8,2.1,3.1l0,0c1.4,0.3,2.8-0.7,3.1-2.1l1.3-7.2
					C309.1,433.2,308.1,431.9,306.7,431.6z"/>
			</g>
			<g>
				
					<linearGradient id="SVGID_00000132082233037535561860000003500297258110762928_" gradientUnits="userSpaceOnUse" x1="-230.3364" y1="154.4268" x2="-230.5142" y2="139.9822" gradientTransform="matrix(-0.9835 -0.1808 0.1505 -0.8188 94.6302 481.165)">
					<stop  offset="0" style="stop-color:#FFFFFF"/>
					<stop  offset="0.2015" style="stop-color:#FFFFFF"/>
					<stop  offset="0.8512" style="stop-color:#26B2EF"/>
				</linearGradient>
				<path style="fill:url(#SVGID_00000132082233037535561860000003500297258110762928_);" d="M341.8,411.3L341.8,411.3
					c1.4,0.3,2.8-0.7,3.1-2.1l1.3-7.2c0.3-1.4-0.7-2.8-2.1-3.1l0,0c-1.4-0.3-2.8,0.7-3.1,2.1l-1.3,7.2
					C339.4,409.6,340.4,411,341.8,411.3z"/>
				
					<linearGradient id="SVGID_00000163062179726930138680000010830068391685577347_" gradientUnits="userSpaceOnUse" x1="68.7489" y1="576.2354" x2="68.571" y2="561.7909" gradientTransform="matrix(-0.3352 0.9422 0.7844 0.2791 -72.9174 190.9874)">
					<stop  offset="0" style="stop-color:#FFFFFF"/>
					<stop  offset="0.2015" style="stop-color:#FFFFFF"/>
					<stop  offset="0.8512" style="stop-color:#26B2EF"/>
				</linearGradient>
				<path style="fill:url(#SVGID_00000163062179726930138680000010830068391685577347_);" d="M341.8,411.3L341.8,411.3
					c0.5-1.4,2-2.1,3.4-1.6l6.9,2.5c1.4,0.5,2.1,2,1.6,3.4l0,0c-0.5,1.4-2,2.1-3.4,1.6l-6.9-2.5
					C342.1,414.2,341.4,412.7,341.8,411.3z"/>
			</g>
			<g>
				
					<linearGradient id="SVGID_00000060741138243204843110000003575991583838293667_" gradientUnits="userSpaceOnUse" x1="-69.2984" y1="429.3268" x2="-69.4762" y2="414.8823" gradientTransform="matrix(-0.3352 -0.9422 0.7844 -0.2791 -3.9743 480.8376)">
					<stop  offset="0" style="stop-color:#FFFFFF"/>
					<stop  offset="0.2015" style="stop-color:#FFFFFF"/>
					<stop  offset="0.8512" style="stop-color:#26B2EF"/>
				</linearGradient>
				<path style="fill:url(#SVGID_00000060741138243204843110000003575991583838293667_);" d="M341.8,431.5L341.8,431.5
					c0.5,1.4,2,2.1,3.4,1.6l6.9-2.5c1.4-0.5,2.1-2,1.6-3.4l0,0c-0.5-1.4-2-2.1-3.4-1.6l-6.9,2.5
					C342.1,428.6,341.4,430.2,341.8,431.5z"/>
				
					<linearGradient id="SVGID_00000056407588450919887510000003340784369984699818_" gradientUnits="userSpaceOnUse" x1="-131.586" y1="341.6017" x2="-131.7638" y2="327.1572" gradientTransform="matrix(-0.9835 0.1808 0.1505 0.8188 163.5734 190.66)">
					<stop  offset="0" style="stop-color:#FFFFFF"/>
					<stop  offset="0.2015" style="stop-color:#FFFFFF"/>
					<stop  offset="0.8512" style="stop-color:#26B2EF"/>
				</linearGradient>
				<path style="fill:url(#SVGID_00000056407588450919887510000003340784369984699818_);" d="M341.8,431.6L341.8,431.6
					c1.4-0.3,2.8,0.7,3.1,2.1l1.3,7.2c0.3,1.4-0.7,2.8-2.1,3.1l0,0c-1.4,0.3-2.8-0.7-3.1-2.1l-1.3-7.2
					C339.4,433.2,340.4,431.9,341.8,431.6z"/>
			</g>
			<g>
				
					<linearGradient id="SVGID_00000089531991751076121780000011277259321229833661_" gradientUnits="userSpaceOnUse" x1="-163.0206" y1="-166.4249" x2="-163.1984" y2="-180.8696" gradientTransform="matrix(-0.6483 -0.7613 -0.6339 0.5398 101.4014 417.1863)">
					<stop  offset="0" style="stop-color:#FFFFFF"/>
					<stop  offset="0.2015" style="stop-color:#FFFFFF"/>
					<stop  offset="0.8512" style="stop-color:#26B2EF"/>
				</linearGradient>
				<path style="fill:url(#SVGID_00000089531991751076121780000011277259321229833661_);" d="M324.2,441.7L324.2,441.7
					c0.9,1.1,0.8,2.8-0.3,3.7l-5.6,4.8c-1.1,0.9-2.8,0.8-3.7-0.3l0,0c-0.9-1.1-0.8-2.8,0.3-3.7l5.6-4.8
					C321.6,440.5,323.3,440.6,324.2,441.7z"/>
				
					<linearGradient id="SVGID_00000011022819446216623500000012792695524647183515_" gradientUnits="userSpaceOnUse" x1="343.1983" y1="547.5341" x2="343.0205" y2="533.0896" gradientTransform="matrix(0.6483 -0.7613 0.6339 0.5398 -233.6939 417.1863)">
					<stop  offset="0" style="stop-color:#FFFFFF"/>
					<stop  offset="0.2015" style="stop-color:#FFFFFF"/>
					<stop  offset="0.8512" style="stop-color:#26B2EF"/>
				</linearGradient>
				<path style="fill:url(#SVGID_00000011022819446216623500000012792695524647183515_);" d="M324.3,441.7L324.3,441.7
					c-0.9,1.1-0.8,2.8,0.3,3.7l5.6,4.8c1.1,0.9,2.8,0.8,3.7-0.3l0,0c0.9-1.1,0.8-2.8-0.3-3.7l-5.6-4.8
					C326.9,440.5,325.2,440.6,324.3,441.7z"/>
			</g>
			
				<radialGradient id="SVGID_00000034053865827179344820000013177682187316714374_" cx="324.2298" cy="80.5559" r="39.3367" gradientTransform="matrix(1 0 0 -1 0 502)" gradientUnits="userSpaceOnUse">
				<stop  offset="0.2479" style="stop-color:#26B2EF"/>
				<stop  offset="0.8306" style="stop-color:#FFFFFF"/>
			</radialGradient>
			<path style="fill:url(#SVGID_00000034053865827179344820000013177682187316714374_);" d="M350.3,432.9l-19.9-11.5l19.9-11.5
				c1.5-0.8,2-2.7,1.1-4.2l0,0c-0.8-1.5-2.7-2-4.2-1.1l-20,11.5v-23c0-1.7-1.4-3.1-3.1-3.1s-3.1,1.4-3.1,3.1v23l-20-11.5
				c-1.5-0.8-3.3-0.3-4.2,1.1c-0.8,1.5-0.3,3.3,1.1,4.2l19.9,11.5l-19.6,11.5c-1.5,0.8-2,2.7-1.1,4.2c0.9,1.5,2.7,2,4.2,1.1l20-11.5
				v23c0,1.7,1.4,3.1,3.1,3.1c1.7,0,3.1-1.4,3.1-3.1v-23l20,11.5c1.5,0.8,3.3,0.3,4.2-1.1l0,0C352.3,435.6,351.8,433.8,350.3,432.9z
				"/>
		</g>
	</g>
</g>
</svg>
