<?xml version="1.0" encoding="utf-8"?>
<!-- Generator: Adobe Illustrator 26.0.3, SVG Export Plug-In . SVG Version: 6.00 Build 0)  -->
<svg version="1.1" id="图层_1" xmlns="http://www.w3.org/2000/svg" xmlns:xlink="http://www.w3.org/1999/xlink" x="0px" y="0px"
	 viewBox="0 0 500 500" style="enable-background:new 0 0 500 500;" xml:space="preserve">
<style type="text/css">
	.st0{fill:url(#SVGID_1_);}
	.st1{fill:url(#SVGID_00000169536818293954292160000005038273272021299891_);}
	.st2{fill:#FFD000;}
	.st3{fill:url(#SVGID_00000118375271771685579240000018084086638354812562_);}
	.st4{fill:url(#SVGID_00000068662128287885256610000005224056404186251919_);}
	.st5{fill:url(#SVGID_00000128463582436065744130000004579472087521019815_);}
	.st6{fill:url(#SVGID_00000019675722089399469850000008262865030803738537_);}
	.st7{fill:url(#SVGID_00000059289556034193560840000017266064991221977766_);}
	.st8{fill:url(#SVGID_00000108298702202826682400000014684849452807621791_);}
	.st9{fill:url(#SVGID_00000163043345990481267520000016345456722036506517_);}
	.st10{fill:url(#SVGID_00000067924374357926218730000003887132304189495206_);}
	.st11{fill:url(#SVGID_00000138554118110274996970000012422953168485119375_);}
	.st12{fill:url(#SVGID_00000017485002278118038950000011901083702384773031_);}
	.st13{fill:url(#SVGID_00000104688512485441107050000008899388651585950375_);}
	.st14{fill:url(#SVGID_00000057150457543207635850000017029010258676776884_);}
	.st15{fill:url(#SVGID_00000112626105837745669040000013355507772460757178_);}
	.st16{fill:url(#SVGID_00000083080908858144743880000014248996164067244943_);}
	.st17{fill:url(#SVGID_00000142175501891742753020000011703303627101779647_);}
	.st18{fill:url(#SVGID_00000002386779933990175530000006478763823510225038_);}
</style>
<g>
	
		<linearGradient id="SVGID_1_" gradientUnits="userSpaceOnUse" x1="128.8482" y1="404.1368" x2="199.0185" y2="333.9664" gradientTransform="matrix(1 0 0 -1 0 502)">
		<stop  offset="0" style="stop-color:#F9C30B"/>
		<stop  offset="1" style="stop-color:#FF8800"/>
	</linearGradient>
	<polygon class="st0" points="96.4,135.5 161.3,65.4 231.5,130.3 166.5,200.5 	"/>
	
		<linearGradient id="SVGID_00000158708499816952788910000005628057302638712206_" gradientUnits="userSpaceOnUse" x1="132.2787" y1="400.7061" x2="203.2902" y2="329.6948" gradientTransform="matrix(1 0 0 -1 0 502)">
		<stop  offset="0" style="stop-color:#F9C30B"/>
		<stop  offset="1" style="stop-color:#FF8800"/>
	</linearGradient>
	
		<rect x="116.1" y="85.2" style="fill:url(#SVGID_00000158708499816952788910000005628057302638712206_);" width="95.6" height="95.6"/>
	
		<ellipse transform="matrix(8.248051e-02 -0.9966 0.9966 8.248051e-02 17.9166 285.3575)" class="st2" cx="163.9" cy="132.9" rx="47.9" ry="47.9"/>
	<g>
		
			<linearGradient id="SVGID_00000083080917458170405650000003762464233188263612_" gradientUnits="userSpaceOnUse" x1="194.9883" y1="38.9397" x2="431.953" y2="305.5082">
			<stop  offset="0.2459" style="stop-color:#FAFAFA"/>
			<stop  offset="0.4701" style="stop-color:#D2D2D2"/>
			<stop  offset="0.6556" style="stop-color:#B9B9B9"/>
			<stop  offset="0.7664" style="stop-color:#AFAFAF"/>
		</linearGradient>
		<path style="fill:url(#SVGID_00000083080917458170405650000003762464233188263612_);" d="M398.9,157.4c-0.1,0-0.3,0-0.4,0
			c-4.3-46.3-43.2-82.6-90.6-82.6c-50.3,0-91,40.8-91,91c0,48.6,38.1,88.3,86.1,90.9v0.1h96c27.5,0,49.8-22.3,49.8-49.8
			S426.4,157.4,398.9,157.4z"/>
		
			<linearGradient id="SVGID_00000079468893916001517040000011427534217211528866_" gradientUnits="userSpaceOnUse" x1="82.505" y1="153.9712" x2="357.1534" y2="332.9331">
			<stop  offset="0.1491" style="stop-color:#FAFAFA"/>
			<stop  offset="0.818" style="stop-color:#CBCBCB"/>
		</linearGradient>
		<path style="fill:url(#SVGID_00000079468893916001517040000011427534217211528866_);" d="M342.6,182.9
			c-14.7-50.1-60.9-86.7-115.7-86.7c-65.8,0-119.3,52.8-120.5,118.3C75.7,218.2,52,244.2,52,275.8c0,34.1,27.6,61.7,61.7,61.7h219.8
			c42.8,0,77.6-34.7,77.6-77.6C411,220.2,381.2,187.5,342.6,182.9z"/>
	</g>
	<g>
		
			<linearGradient id="SVGID_00000074414771604844111340000000859899983052440207_" gradientUnits="userSpaceOnUse" x1="26.7544" y1="512.7347" x2="97.1341" y2="385.4731" gradientTransform="matrix(-0.9054 -5.866064e-02 -0.2719 -0.6488 345.1177 684.4865)">
			<stop  offset="0" style="stop-color:#FFFFFF"/>
			<stop  offset="9.948106e-02" style="stop-color:#FFFFFF"/>
			<stop  offset="0.8537" style="stop-color:#26B2EF"/>
		</linearGradient>
		<path style="fill:url(#SVGID_00000074414771604844111340000000859899983052440207_);" d="M139.2,405.5l13.4-33
			c4.1-10.2,15.7-15,25.9-10.9l0,0c10.2,4.1,15,15.7,10.9,25.9l-13.4,33c-4.1,10.2-15.7,15-25.9,10.9l0,0
			C139.9,427.3,135,415.7,139.2,405.5z"/>
		<g>
			<g>
				
					<linearGradient id="SVGID_00000014593329886810477640000017375472444996260000_" gradientUnits="userSpaceOnUse" x1="245.8425" y1="341.1458" x2="245.6647" y2="326.7012" gradientTransform="matrix(0.6483 0.7613 0.6339 -0.5398 -48.2483 363.5196)">
					<stop  offset="0" style="stop-color:#FFFFFF"/>
					<stop  offset="0.2015" style="stop-color:#FFFFFF"/>
					<stop  offset="0.8512" style="stop-color:#26B2EF"/>
				</linearGradient>
				<path style="fill:url(#SVGID_00000014593329886810477640000017375472444996260000_);" d="M315.8,376.2L315.8,376.2
					c-0.9-1.1-0.8-2.8,0.3-3.7l5.6-4.8c1.1-0.9,2.8-0.8,3.7,0.3l0,0c0.9,1.1,0.8,2.8-0.3,3.7l-5.6,4.8
					C318.4,377.5,316.7,377.3,315.8,376.2z"/>
				
					<linearGradient id="SVGID_00000128484326065046519010000009544292886887567285_" gradientUnits="userSpaceOnUse" x1="-8.9154" y1="-18.1538" x2="-9.0933" y2="-32.5984" gradientTransform="matrix(-0.6483 0.7613 -0.6339 -0.5398 286.847 363.5196)">
					<stop  offset="0" style="stop-color:#FFFFFF"/>
					<stop  offset="0.2015" style="stop-color:#FFFFFF"/>
					<stop  offset="0.8512" style="stop-color:#26B2EF"/>
				</linearGradient>
				<path style="fill:url(#SVGID_00000128484326065046519010000009544292886887567285_);" d="M315.7,376.2L315.7,376.2
					c0.9-1.1,0.8-2.8-0.3-3.7l-5.6-4.8c-1.1-0.9-2.8-0.8-3.7,0.3l0,0c-0.9,1.1-0.8,2.8,0.3,3.7l5.6,4.8
					C313.1,377.5,314.8,377.3,315.7,376.2z"/>
			</g>
			<g>
				
					<linearGradient id="SVGID_00000109735886199684860750000002146005161407408525_" gradientUnits="userSpaceOnUse" x1="316.3032" y1="64.1545" x2="316.1254" y2="49.71" gradientTransform="matrix(0.9835 -0.1808 -0.1505 -0.8188 -5.8513 481.165)">
					<stop  offset="0" style="stop-color:#FFFFFF"/>
					<stop  offset="0.2015" style="stop-color:#FFFFFF"/>
					<stop  offset="0.8512" style="stop-color:#26B2EF"/>
				</linearGradient>
				<path style="fill:url(#SVGID_00000109735886199684860750000002146005161407408525_);" d="M298.2,386.4L298.2,386.4
					c-1.4,0.3-2.8-0.7-3.1-2.1l-1.3-7.2c-0.3-1.4,0.7-2.8,2.1-3.1l0,0c1.4-0.3,2.8,0.7,3.1,2.1l1.3,7.2
					C300.6,384.7,299.6,386.1,298.2,386.4z"/>
				
					<linearGradient id="SVGID_00000150815132772067049420000008926275871893620619_" gradientUnits="userSpaceOnUse" x1="230.0432" y1="-57.5584" x2="229.8654" y2="-72.003" gradientTransform="matrix(0.3352 0.9422 -0.7844 0.2791 161.6963 190.9874)">
					<stop  offset="0" style="stop-color:#FFFFFF"/>
					<stop  offset="0.2015" style="stop-color:#FFFFFF"/>
					<stop  offset="0.8512" style="stop-color:#26B2EF"/>
				</linearGradient>
				<path style="fill:url(#SVGID_00000150815132772067049420000008926275871893620619_);" d="M298.2,386.4L298.2,386.4
					c-0.5-1.4-2-2.1-3.4-1.6l-6.9,2.5c-1.4,0.5-2.1,2-1.6,3.4l0,0c0.5,1.4,2,2.1,3.4,1.6l6.9-2.5
					C297.9,389.3,298.6,387.8,298.2,386.4z"/>
			</g>
			<g>
				
					<linearGradient id="SVGID_00000154390330319619139070000015276660545917582769_" gradientUnits="userSpaceOnUse" x1="138.9449" y1="-184.4043" x2="138.7672" y2="-198.8488" gradientTransform="matrix(0.3352 -0.9422 -0.7844 -0.2791 92.7532 480.8376)">
					<stop  offset="0" style="stop-color:#FFFFFF"/>
					<stop  offset="0.2015" style="stop-color:#FFFFFF"/>
					<stop  offset="0.8512" style="stop-color:#26B2EF"/>
				</linearGradient>
				<path style="fill:url(#SVGID_00000154390330319619139070000015276660545917582769_);" d="M298.2,406.6L298.2,406.6
					c-0.5,1.4-2,2.1-3.4,1.6l-6.9-2.5c-1.4-0.5-2.1-2-1.6-3.4l0,0c0.5-1.4,2-2.1,3.4-1.6l6.9,2.5
					C297.9,403.7,298.6,405.3,298.2,406.6z"/>
				
					<linearGradient id="SVGID_00000078737088907949621410000003038225944882645376_" gradientUnits="userSpaceOnUse" x1="406.0445" y1="192.4557" x2="405.8666" y2="178.0111" gradientTransform="matrix(0.9835 0.1808 -0.1505 0.8188 -74.7945 190.66)">
					<stop  offset="0" style="stop-color:#FFFFFF"/>
					<stop  offset="0.2015" style="stop-color:#FFFFFF"/>
					<stop  offset="0.8512" style="stop-color:#26B2EF"/>
				</linearGradient>
				<path style="fill:url(#SVGID_00000078737088907949621410000003038225944882645376_);" d="M298.2,406.7L298.2,406.7
					c-1.4-0.3-2.8,0.7-3.1,2.1l-1.3,7.2c-0.3,1.4,0.7,2.8,2.1,3.1l0,0c1.4,0.3,2.8-0.7,3.1-2.1l1.3-7.2
					C300.6,408.3,299.6,407,298.2,406.7z"/>
			</g>
			<g>
				
					<linearGradient id="SVGID_00000059999101319668426070000006341197816395476401_" gradientUnits="userSpaceOnUse" x1="-217.5013" y1="182.0243" x2="-217.679" y2="167.5797" gradientTransform="matrix(-0.9835 -0.1808 0.1505 -0.8188 94.6302 481.165)">
					<stop  offset="0" style="stop-color:#FFFFFF"/>
					<stop  offset="0.2015" style="stop-color:#FFFFFF"/>
					<stop  offset="0.8512" style="stop-color:#26B2EF"/>
				</linearGradient>
				<path style="fill:url(#SVGID_00000059999101319668426070000006341197816395476401_);" d="M333.3,386.4L333.3,386.4
					c1.4,0.3,2.8-0.7,3.1-2.1l1.3-7.2c0.3-1.4-0.7-2.8-2.1-3.1l0,0c-1.4-0.3-2.8,0.7-3.1,2.1l-1.3,7.2
					C330.9,384.7,331.9,386.1,333.3,386.4z"/>
				
					<linearGradient id="SVGID_00000183215818510530334950000006212411259942797447_" gradientUnits="userSpaceOnUse" x1="48.1137" y1="556.6193" x2="47.9357" y2="542.1748" gradientTransform="matrix(-0.3352 0.9422 0.7844 0.2791 -72.9174 190.9874)">
					<stop  offset="0" style="stop-color:#FFFFFF"/>
					<stop  offset="0.2015" style="stop-color:#FFFFFF"/>
					<stop  offset="0.8512" style="stop-color:#26B2EF"/>
				</linearGradient>
				<path style="fill:url(#SVGID_00000183215818510530334950000006212411259942797447_);" d="M333.3,386.4L333.3,386.4
					c0.5-1.4,2-2.1,3.4-1.6l6.9,2.5c1.4,0.5,2.1,2,1.6,3.4l0,0c-0.5,1.4-2,2.1-3.4,1.6l-6.9-2.5
					C333.6,389.3,332.9,387.8,333.3,386.4z"/>
			</g>
			<g>
				
					<linearGradient id="SVGID_00000101084572482267682460000002748398173848067204_" gradientUnits="userSpaceOnUse" x1="-42.9847" y1="429.7734" x2="-43.1625" y2="415.3289" gradientTransform="matrix(-0.3352 -0.9422 0.7844 -0.2791 -3.9743 480.8376)">
					<stop  offset="0" style="stop-color:#FFFFFF"/>
					<stop  offset="0.2015" style="stop-color:#FFFFFF"/>
					<stop  offset="0.8512" style="stop-color:#26B2EF"/>
				</linearGradient>
				<path style="fill:url(#SVGID_00000101084572482267682460000002748398173848067204_);" d="M333.3,406.6L333.3,406.6
					c0.5,1.4,2,2.1,3.4,1.6l6.9-2.5c1.4-0.5,2.1-2,1.6-3.4l0,0c-0.5-1.4-2-2.1-3.4-1.6l-6.9,2.5
					C333.6,403.7,332.9,405.3,333.3,406.6z"/>
				
					<linearGradient id="SVGID_00000148619409541717057180000015338844591057258902_" gradientUnits="userSpaceOnUse" x1="-127.76" y1="310.3253" x2="-127.9378" y2="295.8808" gradientTransform="matrix(-0.9835 0.1808 0.1505 0.8188 163.5734 190.66)">
					<stop  offset="0" style="stop-color:#FFFFFF"/>
					<stop  offset="0.2015" style="stop-color:#FFFFFF"/>
					<stop  offset="0.8512" style="stop-color:#26B2EF"/>
				</linearGradient>
				<path style="fill:url(#SVGID_00000148619409541717057180000015338844591057258902_);" d="M333.3,406.7L333.3,406.7
					c1.4-0.3,2.8,0.7,3.1,2.1l1.3,7.2c0.3,1.4-0.7,2.8-2.1,3.1l0,0c-1.4,0.3-2.8-0.7-3.1-2.1l-1.3-7.2
					C330.9,408.3,331.9,407,333.3,406.7z"/>
			</g>
			<g>
				
					<linearGradient id="SVGID_00000101061054967990543810000016577989735033227452_" gradientUnits="userSpaceOnUse" x1="-138.5567" y1="-178.0829" x2="-138.7345" y2="-192.5276" gradientTransform="matrix(-0.6483 -0.7613 -0.6339 0.5398 101.4014 417.1863)">
					<stop  offset="0" style="stop-color:#FFFFFF"/>
					<stop  offset="0.2015" style="stop-color:#FFFFFF"/>
					<stop  offset="0.8512" style="stop-color:#26B2EF"/>
				</linearGradient>
				<path style="fill:url(#SVGID_00000101061054967990543810000016577989735033227452_);" d="M315.7,416.8L315.7,416.8
					c0.9,1.1,0.8,2.8-0.3,3.7l-5.6,4.8c-1.1,0.9-2.8,0.8-3.7-0.3l0,0c-0.9-1.1-0.8-2.8,0.3-3.7l5.6-4.8
					C313.1,415.6,314.8,415.7,315.7,416.8z"/>
				
					<linearGradient id="SVGID_00000072976859272527725040000013926196542611247543_" gradientUnits="userSpaceOnUse" x1="356.6787" y1="520.3857" x2="356.5009" y2="505.9412" gradientTransform="matrix(0.6483 -0.7613 0.6339 0.5398 -233.6939 417.1863)">
					<stop  offset="0" style="stop-color:#FFFFFF"/>
					<stop  offset="0.2015" style="stop-color:#FFFFFF"/>
					<stop  offset="0.8512" style="stop-color:#26B2EF"/>
				</linearGradient>
				<path style="fill:url(#SVGID_00000072976859272527725040000013926196542611247543_);" d="M315.8,416.8L315.8,416.8
					c-0.9,1.1-0.8,2.8,0.3,3.7l5.6,4.8c1.1,0.9,2.8,0.8,3.7-0.3l0,0c0.9-1.1,0.8-2.8-0.3-3.7l-5.6-4.8
					C318.4,415.6,316.7,415.7,315.8,416.8z"/>
			</g>
			
				<radialGradient id="SVGID_00000168110897889917322440000006606072381837253303_" cx="315.7598" cy="105.4732" r="39.3367" gradientTransform="matrix(1 0 0 -1 0 502)" gradientUnits="userSpaceOnUse">
				<stop  offset="0.2479" style="stop-color:#26B2EF"/>
				<stop  offset="0.8306" style="stop-color:#FFFFFF"/>
			</radialGradient>
			<path style="fill:url(#SVGID_00000168110897889917322440000006606072381837253303_);" d="M341.8,408l-19.9-11.5l19.9-11.5
				c1.5-0.8,2-2.7,1.1-4.2l0,0c-0.8-1.5-2.7-2-4.2-1.1l-20,11.5v-23c0-1.7-1.4-3.1-3.1-3.1c-1.7,0-3.1,1.4-3.1,3.1v23l-20-11.5
				c-1.5-0.8-3.3-0.3-4.2,1.1c-0.8,1.5-0.3,3.3,1.1,4.2l19.9,11.5L289.7,408c-1.5,0.8-2,2.7-1.1,4.2s2.7,2,4.2,1.1l20-11.5v23
				c0,1.7,1.4,3.1,3.1,3.1c1.7,0,3.1-1.4,3.1-3.1v-23l20,11.5c1.5,0.8,3.3,0.3,4.2-1.1l0,0C343.8,410.7,343.3,408.9,341.8,408z"/>
		</g>
	</g>
</g>
</svg>
