<?xml version="1.0" encoding="utf-8"?>
<!-- Generator: Adobe Illustrator 26.0.3, SVG Export Plug-In . SVG Version: 6.00 Build 0)  -->
<svg version="1.1" id="图层_1" xmlns="http://www.w3.org/2000/svg" xmlns:xlink="http://www.w3.org/1999/xlink" x="0px" y="0px"
	 viewBox="0 0 500 500" style="enable-background:new 0 0 500 500;" xml:space="preserve">
<style type="text/css">
	.st0{fill:url(#SVGID_1_);}
	.st1{fill-rule:evenodd;clip-rule:evenodd;fill:url(#SVGID_00000163046739104403929740000003904744615027658936_);}
	.st2{fill:url(#SVGID_00000097469100568249295390000011858010365098618499_);}
	.st3{fill:url(#SVGID_00000109716054529051833630000004667710665785046425_);}
	.st4{fill:url(#SVGID_00000023251725417610369420000009664010673140224402_);}
	.st5{fill:url(#SVGID_00000103956399611494989520000010857549903122278317_);}
	.st6{fill:url(#SVGID_00000180326296292142655770000012435029833515900333_);}
	.st7{fill:url(#SVGID_00000127027637810013913590000018039883751575964293_);}
	.st8{fill:url(#SVGID_00000086665827172643764840000000069637004877434266_);}
	.st9{fill:url(#SVGID_00000149374954835928470860000011682138011169181317_);}
	.st10{fill:url(#SVGID_00000116235735824536872360000011366371675376513945_);}
	.st11{fill:url(#SVGID_00000067237091466370129930000015241348707376709001_);}
	.st12{fill:url(#SVGID_00000079445121118466644250000008343320520431354010_);}
	.st13{fill:url(#SVGID_00000152243461258919772780000007021752336084915637_);}
	.st14{fill:url(#SVGID_00000173122770440779503170000015379222229853923481_);}
	.st15{fill:url(#SVGID_00000026857922781228555930000013127656770347509376_);}
	.st16{fill:url(#SVGID_00000034779348125393090180000018318684255898313918_);}
	.st17{fill:url(#SVGID_00000080923261565781384710000006655915767473339530_);}
	.st18{fill:url(#SVGID_00000128478845688732934660000008837981316287855750_);}
	.st19{fill:url(#SVGID_00000035505889049953232020000011120643049848513956_);}
	.st20{fill:url(#SVGID_00000140720987103876754530000014409282830185006014_);}
	.st21{fill:url(#SVGID_00000174566061185520262450000002058100555078643341_);}
	.st22{fill:url(#SVGID_00000032621003053303433480000002351735277126635164_);}
	.st23{fill:url(#SVGID_00000152224362151328174240000010572504372437339022_);}
	.st24{fill:url(#SVGID_00000176723034098941046500000005868797720261808521_);}
	.st25{fill:url(#SVGID_00000012456469654457633600000011444321290081159870_);}
	.st26{fill:url(#SVGID_00000145766453380818324670000004630614480680915354_);}
	.st27{fill:url(#SVGID_00000171705109267922309800000013624348687475986327_);}
	.st28{fill:url(#SVGID_00000083066798226979155770000012802519654550309026_);}
	.st29{fill:url(#SVGID_00000181082095455011951180000001222777475610690178_);}
	.st30{fill:url(#SVGID_00000157278207046027374870000017650652976594883753_);}
	.st31{fill:url(#SVGID_00000040555002292256200190000009946802704540492189_);}
	.st32{fill:url(#SVGID_00000156574266982719558400000006975011786855162519_);}
	.st33{fill:url(#SVGID_00000033350149629294960740000013829291311692758148_);}
	.st34{fill:url(#SVGID_00000054238469031059517510000001054102202752824987_);}
	.st35{fill:url(#SVGID_00000031926641614501960100000012986627319819919528_);}
	.st36{fill:url(#SVGID_00000154392158130699383540000002774408518835113105_);}
	.st37{fill:url(#SVGID_00000026160314088341863440000002789160974887032228_);}
	.st38{fill:url(#SVGID_00000123426075852540112900000001019901058072168380_);}
	.st39{fill:url(#SVGID_00000009579664921242662140000013622697243686211465_);}
	.st40{fill:url(#SVGID_00000108301828813050815180000008524968936348504972_);}
	.st41{fill:url(#SVGID_00000021110008610770510210000002063394593857699749_);}
</style>
<g>
	<g>
		<linearGradient id="SVGID_1_" gradientUnits="userSpaceOnUse" x1="194.6612" y1="66.9126" x2="431.626" y2="333.4811">
			<stop  offset="0.2459" style="stop-color:#FAFAFA"/>
			<stop  offset="0.4701" style="stop-color:#D2D2D2"/>
			<stop  offset="0.6556" style="stop-color:#B9B9B9"/>
			<stop  offset="0.7664" style="stop-color:#AFAFAF"/>
		</linearGradient>
		<path class="st0" d="M398.6,185.4c-0.1,0-0.3,0-0.4,0c-4.3-46.3-43.2-82.6-90.6-82.6c-50.3,0-91,40.8-91,91
			c0,48.6,38.1,88.3,86.1,90.9v0.1h96c27.5,0,49.8-22.3,49.8-49.8S426.1,185.4,398.6,185.4z"/>
		
			<linearGradient id="SVGID_00000116915997388296721190000014576490201746043066_" gradientUnits="userSpaceOnUse" x1="218.987" y1="98.4415" x2="361.1229" y2="203.1592">
			<stop  offset="4.977477e-03" style="stop-color:#FFFFFF"/>
			<stop  offset="0.8567" style="stop-color:#F99C00"/>
		</linearGradient>
		<path style="fill-rule:evenodd;clip-rule:evenodd;fill:url(#SVGID_00000116915997388296721190000014576490201746043066_);" d="
			M365.2,168.3c-47.2,0-85.5-38.3-85.5-85.5c0-8.8,1.3-17.4,3.8-25.4c0.3-0.8-0.5-1.7-1.3-1.5c-38.9,7.3-68.6,40.9-69.7,81.6
			c-1.4,48.9,38.8,89.2,87.7,88c36.1-0.9,66.6-24.2,78.3-56.4c0.3-0.8-0.4-1.7-1.3-1.6C373.2,168,369.2,168.3,365.2,168.3z"/>
		
			<linearGradient id="SVGID_00000030463686896289545250000012394588179633227669_" gradientUnits="userSpaceOnUse" x1="82.1779" y1="181.9441" x2="356.8263" y2="360.906">
			<stop  offset="0.1491" style="stop-color:#FAFAFA"/>
			<stop  offset="0.818" style="stop-color:#CBCBCB"/>
		</linearGradient>
		<path style="fill:url(#SVGID_00000030463686896289545250000012394588179633227669_);" d="M342.3,210.9
			c-14.7-50.1-60.9-86.7-115.7-86.7c-65.8,0-119.3,52.8-120.5,118.3c-30.6,3.6-54.4,29.6-54.4,61.2c0,34.1,27.6,61.7,61.7,61.7
			h219.8c42.8,0,77.6-34.7,77.6-77.6C410.7,248.2,380.8,215.4,342.3,210.9z"/>
	</g>
	<g>
		<g>
			<g>
				
					<linearGradient id="SVGID_00000087404651939685876350000010741992599235214733_" gradientUnits="userSpaceOnUse" x1="148.679" y1="174.0779" x2="148.5013" y2="159.6334" gradientTransform="matrix(0.6483 0.7613 0.6339 -0.5398 -48.2483 363.5196)">
					<stop  offset="0" style="stop-color:#FFFFFF"/>
					<stop  offset="0.2015" style="stop-color:#FFFFFF"/>
					<stop  offset="0.8512" style="stop-color:#26B2EF"/>
				</linearGradient>
				<path style="fill:url(#SVGID_00000087404651939685876350000010741992599235214733_);" d="M146.9,392.4L146.9,392.4
					c-0.9-1.1-0.8-2.8,0.3-3.7l5.6-4.8c1.1-0.9,2.8-0.8,3.7,0.3l0,0c0.9,1.1,0.8,2.8-0.3,3.7l-5.6,4.8
					C149.5,393.7,147.8,393.5,146.9,392.4z"/>
				
					<linearGradient id="SVGID_00000115495221945564800170000010147433467657123775_" gradientUnits="userSpaceOnUse" x1="112.9265" y1="123.675" x2="112.7486" y2="109.2305" gradientTransform="matrix(-0.6483 0.7613 -0.6339 -0.5398 286.847 363.5196)">
					<stop  offset="0" style="stop-color:#FFFFFF"/>
					<stop  offset="0.2015" style="stop-color:#FFFFFF"/>
					<stop  offset="0.8512" style="stop-color:#26B2EF"/>
				</linearGradient>
				<path style="fill:url(#SVGID_00000115495221945564800170000010147433467657123775_);" d="M146.8,392.4L146.8,392.4
					c0.9-1.1,0.8-2.8-0.3-3.7l-5.6-4.8c-1.1-0.9-2.8-0.8-3.7,0.3l0,0c-0.9,1.1-0.8,2.8,0.3,3.7l5.6,4.8
					C144.2,393.7,145.8,393.5,146.8,392.4z"/>
			</g>
			<g>
				
					<linearGradient id="SVGID_00000001635932283640830300000003373128946837547166_" gradientUnits="userSpaceOnUse" x1="147.266" y1="81.6942" x2="147.0881" y2="67.2497" gradientTransform="matrix(0.9835 -0.1808 -0.1505 -0.8188 -5.8513 481.165)">
					<stop  offset="0" style="stop-color:#FFFFFF"/>
					<stop  offset="0.2015" style="stop-color:#FFFFFF"/>
					<stop  offset="0.8512" style="stop-color:#26B2EF"/>
				</linearGradient>
				<path style="fill:url(#SVGID_00000001635932283640830300000003373128946837547166_);" d="M129.3,402.6L129.3,402.6
					c-1.4,0.3-2.8-0.7-3.1-2.1l-1.3-7.2c-0.3-1.4,0.7-2.8,2.1-3.1l0,0c1.4-0.3,2.8,0.7,3.1,2.1l1.3,7.2
					C131.7,400.9,130.7,402.3,129.3,402.6z"/>
				
					<linearGradient id="SVGID_00000074444032833622209680000014730426733348104343_" gradientUnits="userSpaceOnUse" x1="188.6637" y1="140.1022" x2="188.4859" y2="125.6575" gradientTransform="matrix(0.3352 0.9422 -0.7844 0.2791 161.6963 190.9874)">
					<stop  offset="0" style="stop-color:#FFFFFF"/>
					<stop  offset="0.2015" style="stop-color:#FFFFFF"/>
					<stop  offset="0.8512" style="stop-color:#26B2EF"/>
				</linearGradient>
				<path style="fill:url(#SVGID_00000074444032833622209680000014730426733348104343_);" d="M129.2,402.6L129.2,402.6
					c-0.5-1.4-2-2.1-3.4-1.6l-6.9,2.5c-1.4,0.5-2.1,2-1.6,3.4l0,0c0.5,1.4,2,2.1,3.4,1.6l6.9-2.5C129,405.5,129.7,404,129.2,402.6z"
					/>
			</g>
			<g>
				
					<linearGradient id="SVGID_00000173882841000899336510000000366663131469931418_" gradientUnits="userSpaceOnUse" x1="67.0307" y1="0.2078" x2="66.8529" y2="-14.2368" gradientTransform="matrix(0.3352 -0.9422 -0.7844 -0.2791 92.7532 480.8376)">
					<stop  offset="0" style="stop-color:#FFFFFF"/>
					<stop  offset="0.2015" style="stop-color:#FFFFFF"/>
					<stop  offset="0.8512" style="stop-color:#26B2EF"/>
				</linearGradient>
				<path style="fill:url(#SVGID_00000173882841000899336510000000366663131469931418_);" d="M129.2,422.8L129.2,422.8
					c-0.5,1.4-2,2.1-3.4,1.6l-6.9-2.5c-1.4-0.5-2.1-2-1.6-3.4l0,0c0.5-1.4,2-2.1,3.4-1.6l6.9,2.5C129,419.9,129.7,421.5,129.2,422.8
					z"/>
				
					<linearGradient id="SVGID_00000148658157971606310700000014158093231787888294_" gradientUnits="userSpaceOnUse" x1="242.8665" y1="248.2858" x2="242.6887" y2="233.8412" gradientTransform="matrix(0.9835 0.1808 -0.1505 0.8188 -74.7945 190.66)">
					<stop  offset="0" style="stop-color:#FFFFFF"/>
					<stop  offset="0.2015" style="stop-color:#FFFFFF"/>
					<stop  offset="0.8512" style="stop-color:#26B2EF"/>
				</linearGradient>
				<path style="fill:url(#SVGID_00000148658157971606310700000014158093231787888294_);" d="M129.3,422.9L129.3,422.9
					c-1.4-0.3-2.8,0.7-3.1,2.1l-1.3,7.2c-0.3,1.4,0.7,2.8,2.1,3.1l0,0c1.4,0.3,2.8-0.7,3.1-2.1l1.3-7.2
					C131.7,424.5,130.7,423.2,129.3,422.9z"/>
			</g>
			<g>
				
					<linearGradient id="SVGID_00000183215025292141368820000012231673065595207865_" gradientUnits="userSpaceOnUse" x1="-54.3232" y1="126.1941" x2="-54.5011" y2="111.7496" gradientTransform="matrix(-0.9835 -0.1808 0.1505 -0.8188 94.6302 481.165)">
					<stop  offset="0" style="stop-color:#FFFFFF"/>
					<stop  offset="0.2015" style="stop-color:#FFFFFF"/>
					<stop  offset="0.8512" style="stop-color:#26B2EF"/>
				</linearGradient>
				<path style="fill:url(#SVGID_00000183215025292141368820000012231673065595207865_);" d="M164.4,402.6L164.4,402.6
					c1.4,0.3,2.8-0.7,3.1-2.1l1.3-7.2c0.3-1.4-0.7-2.8-2.1-3.1l0,0c-1.4-0.3-2.8,0.7-3.1,2.1l-1.3,7.2
					C162,400.9,163,402.3,164.4,402.6z"/>
				
					<linearGradient id="SVGID_00000091003515299040842480000016430299955661706639_" gradientUnits="userSpaceOnUse" x1="119.993" y1="372.0077" x2="119.8152" y2="357.5632" gradientTransform="matrix(-0.3352 0.9422 0.7844 0.2791 -72.9174 190.9874)">
					<stop  offset="0" style="stop-color:#FFFFFF"/>
					<stop  offset="0.2015" style="stop-color:#FFFFFF"/>
					<stop  offset="0.8512" style="stop-color:#26B2EF"/>
				</linearGradient>
				<path style="fill:url(#SVGID_00000091003515299040842480000016430299955661706639_);" d="M164.4,402.6L164.4,402.6
					c0.5-1.4,2-2.1,3.4-1.6l6.9,2.5c1.4,0.5,2.1,2,1.6,3.4l0,0c-0.5,1.4-2,2.1-3.4,1.6L166,406C164.7,405.5,163.9,404,164.4,402.6z"
					/>
			</g>
			<g>
				
					<linearGradient id="SVGID_00000040558058593702667680000003378007622926473151_" gradientUnits="userSpaceOnUse" x1="-1.6399" y1="232.1134" x2="-1.8177" y2="217.6689" gradientTransform="matrix(-0.3352 -0.9422 0.7844 -0.2791 -3.9743 480.8376)">
					<stop  offset="0" style="stop-color:#FFFFFF"/>
					<stop  offset="0.2015" style="stop-color:#FFFFFF"/>
					<stop  offset="0.8512" style="stop-color:#26B2EF"/>
				</linearGradient>
				<path style="fill:url(#SVGID_00000040558058593702667680000003378007622926473151_);" d="M164.4,422.8L164.4,422.8
					c0.5,1.4,2,2.1,3.4,1.6l6.9-2.5c1.4-0.5,2.1-2,1.6-3.4l0,0c-0.5-1.4-2-2.1-3.4-1.6l-6.9,2.5
					C164.7,419.9,163.9,421.5,164.4,422.8z"/>
				
					<linearGradient id="SVGID_00000004506578955235938370000017567740967025459129_" gradientUnits="userSpaceOnUse" x1="41.2773" y1="292.7856" x2="41.0995" y2="278.3412" gradientTransform="matrix(-0.9835 0.1808 0.1505 0.8188 163.5734 190.66)">
					<stop  offset="0" style="stop-color:#FFFFFF"/>
					<stop  offset="0.2015" style="stop-color:#FFFFFF"/>
					<stop  offset="0.8512" style="stop-color:#26B2EF"/>
				</linearGradient>
				<path style="fill:url(#SVGID_00000004506578955235938370000017567740967025459129_);" d="M164.4,422.9L164.4,422.9
					c1.4-0.3,2.8,0.7,3.1,2.1l1.3,7.2c0.3,1.4-0.7,2.8-2.1,3.1l0,0c-1.4,0.3-2.8-0.7-3.1-2.1l-1.3-7.2
					C162,424.5,163,423.2,164.4,422.9z"/>
			</g>
			<g>
				
					<linearGradient id="SVGID_00000056426013202236894160000017868470877998903478_" gradientUnits="userSpaceOnUse" x1="-41.3932" y1="-11.0152" x2="-41.571" y2="-25.4597" gradientTransform="matrix(-0.6483 -0.7613 -0.6339 0.5398 101.4014 417.1863)">
					<stop  offset="0" style="stop-color:#FFFFFF"/>
					<stop  offset="0.2015" style="stop-color:#FFFFFF"/>
					<stop  offset="0.8512" style="stop-color:#26B2EF"/>
				</linearGradient>
				<path style="fill:url(#SVGID_00000056426013202236894160000017868470877998903478_);" d="M146.8,433L146.8,433
					c0.9,1.1,0.8,2.8-0.3,3.7l-5.6,4.8c-1.1,0.9-2.8,0.8-3.7-0.3l0,0c-0.9-1.1-0.8-2.8,0.3-3.7l5.6-4.8
					C144.2,431.8,145.8,431.9,146.8,433z"/>
				
					<linearGradient id="SVGID_00000106141676627896171090000008497780239416784029_" gradientUnits="userSpaceOnUse" x1="234.8369" y1="378.5568" x2="234.6591" y2="364.1123" gradientTransform="matrix(0.6483 -0.7613 0.6339 0.5398 -233.6939 417.1863)">
					<stop  offset="0" style="stop-color:#FFFFFF"/>
					<stop  offset="0.2015" style="stop-color:#FFFFFF"/>
					<stop  offset="0.8512" style="stop-color:#26B2EF"/>
				</linearGradient>
				<path style="fill:url(#SVGID_00000106141676627896171090000008497780239416784029_);" d="M146.9,433L146.9,433
					c-0.9,1.1-0.8,2.8,0.3,3.7l5.6,4.8c1.1,0.9,2.8,0.8,3.7-0.3l0,0c0.9-1.1,0.8-2.8-0.3-3.7l-5.6-4.8
					C149.5,431.8,147.8,431.9,146.9,433z"/>
			</g>
			
				<radialGradient id="SVGID_00000099658069376243697580000001776560012727641478_" cx="146.8486" cy="89.2674" r="39.3367" gradientTransform="matrix(1 0 0 -1 0 502)" gradientUnits="userSpaceOnUse">
				<stop  offset="0.2479" style="stop-color:#26B2EF"/>
				<stop  offset="0.8306" style="stop-color:#FFFFFF"/>
			</radialGradient>
			<path style="fill:url(#SVGID_00000099658069376243697580000001776560012727641478_);" d="M172.9,424.2L153,412.7l19.9-11.5
				c1.5-0.8,2-2.7,1.1-4.2l0,0c-0.8-1.5-2.7-2-4.2-1.1l-20,11.5v-23c0-1.7-1.4-3.1-3.1-3.1s-3.1,1.4-3.1,3.1v23l-20-11.5
				c-1.5-0.8-3.3-0.3-4.2,1.1c-0.8,1.5-0.3,3.3,1.1,4.2l19.9,11.5l-19.9,11.5c-1.5,0.8-2,2.7-1.1,4.2s2.7,2,4.2,1.1l20-11.5v23
				c0,1.7,1.4,3.1,3.1,3.1s3.1-1.4,3.1-3.1v-23l20,11.5c1.5,0.8,3.3,0.3,4.2-1.1l0,0C174.8,426.9,174.3,425.1,172.9,424.2z"/>
		</g>
		<g>
			<g>
				
					<linearGradient id="SVGID_00000075849322226702419670000005902890747991646898_" gradientUnits="userSpaceOnUse" x1="215.5783" y1="268.4284" x2="215.4005" y2="253.9839" gradientTransform="matrix(0.6483 0.7613 0.6339 -0.5398 -48.2483 363.5196)">
					<stop  offset="0" style="stop-color:#FFFFFF"/>
					<stop  offset="0.2015" style="stop-color:#FFFFFF"/>
					<stop  offset="0.8512" style="stop-color:#26B2EF"/>
				</linearGradient>
				<path style="fill:url(#SVGID_00000075849322226702419670000005902890747991646898_);" d="M250.1,392.4L250.1,392.4
					c-0.9-1.1-0.8-2.8,0.3-3.7l5.6-4.8c1.1-0.9,2.8-0.8,3.7,0.3l0,0c0.9,1.1,0.8,2.8-0.3,3.7l-5.6,4.8
					C252.7,393.7,251,393.5,250.1,392.4z"/>
				
					<linearGradient id="SVGID_00000132081955796213807230000002009568916573384374_" gradientUnits="userSpaceOnUse" x1="46.0273" y1="29.3245" x2="45.8494" y2="14.88" gradientTransform="matrix(-0.6483 0.7613 -0.6339 -0.5398 286.847 363.5196)">
					<stop  offset="0" style="stop-color:#FFFFFF"/>
					<stop  offset="0.2015" style="stop-color:#FFFFFF"/>
					<stop  offset="0.8512" style="stop-color:#26B2EF"/>
				</linearGradient>
				<path style="fill:url(#SVGID_00000132081955796213807230000002009568916573384374_);" d="M250,392.4L250,392.4
					c0.9-1.1,0.8-2.8-0.3-3.7l-5.6-4.8c-1.1-0.9-2.8-0.8-3.7,0.3l0,0c-0.9,1.1-0.8,2.8,0.3,3.7l5.6,4.8
					C247.4,393.7,249,393.5,250,392.4z"/>
			</g>
			<g>
				
					<linearGradient id="SVGID_00000019641395224450173250000014472116103804956049_" gradientUnits="userSpaceOnUse" x1="248.7475" y1="59.286" x2="248.5696" y2="44.8415" gradientTransform="matrix(0.9835 -0.1808 -0.1505 -0.8188 -5.8513 481.165)">
					<stop  offset="0" style="stop-color:#FFFFFF"/>
					<stop  offset="0.2015" style="stop-color:#FFFFFF"/>
					<stop  offset="0.8512" style="stop-color:#26B2EF"/>
				</linearGradient>
				<path style="fill:url(#SVGID_00000019641395224450173250000014472116103804956049_);" d="M232.5,402.6L232.5,402.6
					c-1.4,0.3-2.8-0.7-3.1-2.1l-1.3-7.2c-0.3-1.4,0.7-2.8,2.1-3.1l0,0c1.4-0.3,2.8,0.7,3.1,2.1l1.3,7.2
					C234.9,400.9,233.9,402.3,232.5,402.6z"/>
				
					<linearGradient id="SVGID_00000106868257043558815010000012259397350220396170_" gradientUnits="userSpaceOnUse" x1="223.2504" y1="23.3428" x2="223.0726" y2="8.8981" gradientTransform="matrix(0.3352 0.9422 -0.7844 0.2791 161.6963 190.9874)">
					<stop  offset="0" style="stop-color:#FFFFFF"/>
					<stop  offset="0.2015" style="stop-color:#FFFFFF"/>
					<stop  offset="0.8512" style="stop-color:#26B2EF"/>
				</linearGradient>
				<path style="fill:url(#SVGID_00000106868257043558815010000012259397350220396170_);" d="M232.4,402.6L232.4,402.6
					c-0.5-1.4-2-2.1-3.4-1.6l-6.9,2.5c-1.4,0.5-2.1,2-1.6,3.4l0,0c0.5,1.4,2,2.1,3.4,1.6l6.9-2.5C232.2,405.5,232.9,404,232.4,402.6
					z"/>
			</g>
			<g>
				
					<linearGradient id="SVGID_00000126292639803751881590000014428721977261689747_" gradientUnits="userSpaceOnUse" x1="101.6174" y1="-116.5516" x2="101.4396" y2="-130.9962" gradientTransform="matrix(0.3352 -0.9422 -0.7844 -0.2791 92.7532 480.8376)">
					<stop  offset="0" style="stop-color:#FFFFFF"/>
					<stop  offset="0.2015" style="stop-color:#FFFFFF"/>
					<stop  offset="0.8512" style="stop-color:#26B2EF"/>
				</linearGradient>
				<path style="fill:url(#SVGID_00000126292639803751881590000014428721977261689747_);" d="M232.4,422.8L232.4,422.8
					c-0.5,1.4-2,2.1-3.4,1.6l-6.9-2.5c-1.4-0.5-2.1-2-1.6-3.4l0,0c0.5-1.4,2-2.1,3.4-1.6l6.9,2.5
					C232.2,419.9,232.9,421.5,232.4,422.8z"/>
				
					<linearGradient id="SVGID_00000078766998913434741330000013391428134717138869_" gradientUnits="userSpaceOnUse" x1="344.3481" y1="225.8775" x2="344.1703" y2="211.433" gradientTransform="matrix(0.9835 0.1808 -0.1505 0.8188 -74.7945 190.66)">
					<stop  offset="0" style="stop-color:#FFFFFF"/>
					<stop  offset="0.2015" style="stop-color:#FFFFFF"/>
					<stop  offset="0.8512" style="stop-color:#26B2EF"/>
				</linearGradient>
				<path style="fill:url(#SVGID_00000078766998913434741330000013391428134717138869_);" d="M232.5,422.9L232.5,422.9
					c-1.4-0.3-2.8,0.7-3.1,2.1l-1.3,7.2c-0.3,1.4,0.7,2.8,2.1,3.1l0,0c1.4,0.3,2.8-0.7,3.1-2.1l1.3-7.2
					C234.9,424.5,233.9,423.2,232.5,422.9z"/>
			</g>
			<g>
				
					<linearGradient id="SVGID_00000166671584857069220460000007234626943920009356_" gradientUnits="userSpaceOnUse" x1="-155.8048" y1="148.6023" x2="-155.9827" y2="134.1578" gradientTransform="matrix(-0.9835 -0.1808 0.1505 -0.8188 94.6302 481.165)">
					<stop  offset="0" style="stop-color:#FFFFFF"/>
					<stop  offset="0.2015" style="stop-color:#FFFFFF"/>
					<stop  offset="0.8512" style="stop-color:#26B2EF"/>
				</linearGradient>
				<path style="fill:url(#SVGID_00000166671584857069220460000007234626943920009356_);" d="M267.6,402.6L267.6,402.6
					c1.4,0.3,2.8-0.7,3.1-2.1l1.3-7.2c0.3-1.4-0.7-2.8-2.1-3.1l0,0c-1.4-0.3-2.8,0.7-3.1,2.1l-1.3,7.2
					C265.2,400.9,266.2,402.3,267.6,402.6z"/>
				
					<linearGradient id="SVGID_00000132047451065925451000000010409648971788884159_" gradientUnits="userSpaceOnUse" x1="85.4064" y1="488.7671" x2="85.2286" y2="474.3226" gradientTransform="matrix(-0.3352 0.9422 0.7844 0.2791 -72.9174 190.9874)">
					<stop  offset="0" style="stop-color:#FFFFFF"/>
					<stop  offset="0.2015" style="stop-color:#FFFFFF"/>
					<stop  offset="0.8512" style="stop-color:#26B2EF"/>
				</linearGradient>
				<path style="fill:url(#SVGID_00000132047451065925451000000010409648971788884159_);" d="M267.6,402.6L267.6,402.6
					c0.5-1.4,2-2.1,3.4-1.6l6.9,2.5c1.4,0.5,2.1,2,1.6,3.4l0,0c-0.5,1.4-2,2.1-3.4,1.6l-6.9-2.5C267.9,405.5,267.1,404,267.6,402.6z
					"/>
			</g>
			<g>
				
					<linearGradient id="SVGID_00000085224849380273116650000013851748234881630115_" gradientUnits="userSpaceOnUse" x1="-36.2266" y1="348.8727" x2="-36.4044" y2="334.4283" gradientTransform="matrix(-0.3352 -0.9422 0.7844 -0.2791 -3.9743 480.8376)">
					<stop  offset="0" style="stop-color:#FFFFFF"/>
					<stop  offset="0.2015" style="stop-color:#FFFFFF"/>
					<stop  offset="0.8512" style="stop-color:#26B2EF"/>
				</linearGradient>
				<path style="fill:url(#SVGID_00000085224849380273116650000013851748234881630115_);" d="M267.6,422.8L267.6,422.8
					c0.5,1.4,2,2.1,3.4,1.6l6.9-2.5c1.4-0.5,2.1-2,1.6-3.4l0,0c-0.5-1.4-2-2.1-3.4-1.6l-6.9,2.5
					C267.9,419.9,267.1,421.5,267.6,422.8z"/>
				
					<linearGradient id="SVGID_00000007401552695447591150000004079644076522198149_" gradientUnits="userSpaceOnUse" x1="-60.2042" y1="315.1939" x2="-60.382" y2="300.7494" gradientTransform="matrix(-0.9835 0.1808 0.1505 0.8188 163.5734 190.66)">
					<stop  offset="0" style="stop-color:#FFFFFF"/>
					<stop  offset="0.2015" style="stop-color:#FFFFFF"/>
					<stop  offset="0.8512" style="stop-color:#26B2EF"/>
				</linearGradient>
				<path style="fill:url(#SVGID_00000007401552695447591150000004079644076522198149_);" d="M267.6,422.9L267.6,422.9
					c1.4-0.3,2.8,0.7,3.1,2.1l1.3,7.2c0.3,1.4-0.7,2.8-2.1,3.1l0,0c-1.4,0.3-2.8-0.7-3.1-2.1l-1.3-7.2
					C265.2,424.5,266.2,423.2,267.6,422.9z"/>
			</g>
			<g>
				
					<linearGradient id="SVGID_00000053527600062780017910000004680254565155065729_" gradientUnits="userSpaceOnUse" x1="-108.2924" y1="-105.3656" x2="-108.4702" y2="-119.8102" gradientTransform="matrix(-0.6483 -0.7613 -0.6339 0.5398 101.4014 417.1863)">
					<stop  offset="0" style="stop-color:#FFFFFF"/>
					<stop  offset="0.2015" style="stop-color:#FFFFFF"/>
					<stop  offset="0.8512" style="stop-color:#26B2EF"/>
				</linearGradient>
				<path style="fill:url(#SVGID_00000053527600062780017910000004680254565155065729_);" d="M250,433L250,433
					c0.9,1.1,0.8,2.8-0.3,3.7l-5.6,4.8c-1.1,0.9-2.8,0.8-3.7-0.3l0,0c-0.9-1.1-0.8-2.8,0.3-3.7l5.6-4.8
					C247.4,431.8,249,431.9,250,433z"/>
				
					<linearGradient id="SVGID_00000129170221847628881990000008906847168506227840_" gradientUnits="userSpaceOnUse" x1="301.7362" y1="472.9073" x2="301.5584" y2="458.4628" gradientTransform="matrix(0.6483 -0.7613 0.6339 0.5398 -233.6939 417.1863)">
					<stop  offset="0" style="stop-color:#FFFFFF"/>
					<stop  offset="0.2015" style="stop-color:#FFFFFF"/>
					<stop  offset="0.8512" style="stop-color:#26B2EF"/>
				</linearGradient>
				<path style="fill:url(#SVGID_00000129170221847628881990000008906847168506227840_);" d="M250.1,433L250.1,433
					c-0.9,1.1-0.8,2.8,0.3,3.7l5.6,4.8c1.1,0.9,2.8,0.8,3.7-0.3l0,0c0.9-1.1,0.8-2.8-0.3-3.7l-5.6-4.8
					C252.7,431.8,251,431.9,250.1,433z"/>
			</g>
			
				<radialGradient id="SVGID_00000138558538964441936860000012928347488517534090_" cx="250.0281" cy="89.2674" r="39.3367" gradientTransform="matrix(1 0 0 -1 0 502)" gradientUnits="userSpaceOnUse">
				<stop  offset="0.2479" style="stop-color:#26B2EF"/>
				<stop  offset="0.8306" style="stop-color:#FFFFFF"/>
			</radialGradient>
			<path style="fill:url(#SVGID_00000138558538964441936860000012928347488517534090_);" d="M276.1,424.2l-19.9-11.5l19.9-11.5
				c1.5-0.8,2-2.7,1.1-4.2l0,0c-0.8-1.5-2.7-2-4.2-1.1l-20,11.5v-23c0-1.7-1.4-3.1-3.1-3.1s-3.1,1.4-3.1,3.1v23l-20-11.5
				c-1.5-0.8-3.3-0.3-4.2,1.1c-0.8,1.5-0.3,3.3,1.1,4.2l19.9,11.5l-19.9,11.5c-1.5,0.8-2,2.7-1.1,4.2s2.7,2,4.2,1.1l20-11.5v23
				c0,1.7,1.4,3.1,3.1,3.1s3.1-1.4,3.1-3.1v-23l20,11.5c1.5,0.8,3.3,0.3,4.2-1.1l0,0C278,426.9,277.5,425.1,276.1,424.2z"/>
		</g>
		<g>
			<g>
				
					<linearGradient id="SVGID_00000135680779177575937070000005801229164233418148_" gradientUnits="userSpaceOnUse" x1="282.4775" y1="362.7788" x2="282.2997" y2="348.3344" gradientTransform="matrix(0.6483 0.7613 0.6339 -0.5398 -48.2483 363.5196)">
					<stop  offset="0" style="stop-color:#FFFFFF"/>
					<stop  offset="0.2015" style="stop-color:#FFFFFF"/>
					<stop  offset="0.8512" style="stop-color:#26B2EF"/>
				</linearGradient>
				<path style="fill:url(#SVGID_00000135680779177575937070000005801229164233418148_);" d="M353.3,392.4L353.3,392.4
					c-0.9-1.1-0.8-2.8,0.3-3.7l5.6-4.8c1.1-0.9,2.8-0.8,3.7,0.3l0,0c0.9,1.1,0.8,2.8-0.3,3.7l-5.6,4.8
					C355.9,393.7,354.2,393.5,353.3,392.4z"/>
				
					<linearGradient id="SVGID_00000165945708229611942290000007714133104641792170_" gradientUnits="userSpaceOnUse" x1="-20.8719" y1="-65.0259" x2="-21.0499" y2="-79.4705" gradientTransform="matrix(-0.6483 0.7613 -0.6339 -0.5398 286.847 363.5196)">
					<stop  offset="0" style="stop-color:#FFFFFF"/>
					<stop  offset="0.2015" style="stop-color:#FFFFFF"/>
					<stop  offset="0.8512" style="stop-color:#26B2EF"/>
				</linearGradient>
				<path style="fill:url(#SVGID_00000165945708229611942290000007714133104641792170_);" d="M353.2,392.4L353.2,392.4
					c0.9-1.1,0.8-2.8-0.3-3.7l-5.6-4.8c-1.1-0.9-2.8-0.8-3.7,0.3l0,0c-0.9,1.1-0.8,2.8,0.3,3.7l5.6,4.8
					C350.6,393.7,352.2,393.5,353.2,392.4z"/>
			</g>
			<g>
				
					<linearGradient id="SVGID_00000133497181637090981330000010355758537644694931_" gradientUnits="userSpaceOnUse" x1="350.229" y1="36.8778" x2="350.0511" y2="22.4332" gradientTransform="matrix(0.9835 -0.1808 -0.1505 -0.8188 -5.8513 481.165)">
					<stop  offset="0" style="stop-color:#FFFFFF"/>
					<stop  offset="0.2015" style="stop-color:#FFFFFF"/>
					<stop  offset="0.8512" style="stop-color:#26B2EF"/>
				</linearGradient>
				<path style="fill:url(#SVGID_00000133497181637090981330000010355758537644694931_);" d="M335.7,402.6L335.7,402.6
					c-1.4,0.3-2.8-0.7-3.1-2.1l-1.3-7.2c-0.3-1.4,0.7-2.8,2.1-3.1l0,0c1.4-0.3,2.8,0.7,3.1,2.1l1.3,7.2
					C338.1,400.9,337.1,402.3,335.7,402.6z"/>
				
					<linearGradient id="SVGID_00000093855709102710908830000013042070361493841804_" gradientUnits="userSpaceOnUse" x1="257.837" y1="-93.4166" x2="257.6592" y2="-107.8613" gradientTransform="matrix(0.3352 0.9422 -0.7844 0.2791 161.6963 190.9874)">
					<stop  offset="0" style="stop-color:#FFFFFF"/>
					<stop  offset="0.2015" style="stop-color:#FFFFFF"/>
					<stop  offset="0.8512" style="stop-color:#26B2EF"/>
				</linearGradient>
				<path style="fill:url(#SVGID_00000093855709102710908830000013042070361493841804_);" d="M335.6,402.6L335.6,402.6
					c-0.5-1.4-2-2.1-3.4-1.6l-6.9,2.5c-1.4,0.5-2.1,2-1.6,3.4l0,0c0.5,1.4,2,2.1,3.4,1.6l6.9-2.5C335.4,405.5,336.1,404,335.6,402.6
					z"/>
			</g>
			<g>
				
					<linearGradient id="SVGID_00000031897064682354415960000007903845534817536930_" gradientUnits="userSpaceOnUse" x1="136.204" y1="-233.311" x2="136.0262" y2="-247.7556" gradientTransform="matrix(0.3352 -0.9422 -0.7844 -0.2791 92.7532 480.8376)">
					<stop  offset="0" style="stop-color:#FFFFFF"/>
					<stop  offset="0.2015" style="stop-color:#FFFFFF"/>
					<stop  offset="0.8512" style="stop-color:#26B2EF"/>
				</linearGradient>
				<path style="fill:url(#SVGID_00000031897064682354415960000007903845534817536930_);" d="M335.6,422.8L335.6,422.8
					c-0.5,1.4-2,2.1-3.4,1.6l-6.9-2.5c-1.4-0.5-2.1-2-1.6-3.4l0,0c0.5-1.4,2-2.1,3.4-1.6l6.9,2.5
					C335.4,419.9,336.1,421.5,335.6,422.8z"/>
				
					<linearGradient id="SVGID_00000053518308762464351130000004950657855307988148_" gradientUnits="userSpaceOnUse" x1="445.8296" y1="203.4693" x2="445.6518" y2="189.0248" gradientTransform="matrix(0.9835 0.1808 -0.1505 0.8188 -74.7945 190.66)">
					<stop  offset="0" style="stop-color:#FFFFFF"/>
					<stop  offset="0.2015" style="stop-color:#FFFFFF"/>
					<stop  offset="0.8512" style="stop-color:#26B2EF"/>
				</linearGradient>
				<path style="fill:url(#SVGID_00000053518308762464351130000004950657855307988148_);" d="M335.7,422.9L335.7,422.9
					c-1.4-0.3-2.8,0.7-3.1,2.1l-1.3,7.2c-0.3,1.4,0.7,2.8,2.1,3.1l0,0c1.4,0.3,2.8-0.7,3.1-2.1l1.3-7.2
					C338.1,424.5,337.1,423.2,335.7,422.9z"/>
			</g>
			<g>
				
					<linearGradient id="SVGID_00000096762252053066197480000014228688569409032844_" gradientUnits="userSpaceOnUse" x1="-257.2863" y1="171.0106" x2="-257.4642" y2="156.5661" gradientTransform="matrix(-0.9835 -0.1808 0.1505 -0.8188 94.6302 481.165)">
					<stop  offset="0" style="stop-color:#FFFFFF"/>
					<stop  offset="0.2015" style="stop-color:#FFFFFF"/>
					<stop  offset="0.8512" style="stop-color:#26B2EF"/>
				</linearGradient>
				<path style="fill:url(#SVGID_00000096762252053066197480000014228688569409032844_);" d="M370.8,402.6L370.8,402.6
					c1.4,0.3,2.8-0.7,3.1-2.1l1.3-7.2c0.3-1.4-0.7-2.8-2.1-3.1l0,0c-1.4-0.3-2.8,0.7-3.1,2.1l-1.3,7.2
					C368.4,400.9,369.4,402.3,370.8,402.6z"/>
				
					<linearGradient id="SVGID_00000013888837476563856930000012853187211243951266_" gradientUnits="userSpaceOnUse" x1="50.8197" y1="605.5265" x2="50.6419" y2="591.082" gradientTransform="matrix(-0.3352 0.9422 0.7844 0.2791 -72.9174 190.9874)">
					<stop  offset="0" style="stop-color:#FFFFFF"/>
					<stop  offset="0.2015" style="stop-color:#FFFFFF"/>
					<stop  offset="0.8512" style="stop-color:#26B2EF"/>
				</linearGradient>
				<path style="fill:url(#SVGID_00000013888837476563856930000012853187211243951266_);" d="M370.8,402.6L370.8,402.6
					c0.5-1.4,2-2.1,3.4-1.6l6.9,2.5c1.4,0.5,2.1,2,1.6,3.4l0,0c-0.5,1.4-2,2.1-3.4,1.6l-6.9-2.5C371.1,405.5,370.3,404,370.8,402.6z
					"/>
			</g>
			<g>
				
					<linearGradient id="SVGID_00000145048029898524691870000011634673032349679543_" gradientUnits="userSpaceOnUse" x1="-70.8133" y1="465.6321" x2="-70.9911" y2="451.1877" gradientTransform="matrix(-0.3352 -0.9422 0.7844 -0.2791 -3.9743 480.8376)">
					<stop  offset="0" style="stop-color:#FFFFFF"/>
					<stop  offset="0.2015" style="stop-color:#FFFFFF"/>
					<stop  offset="0.8512" style="stop-color:#26B2EF"/>
				</linearGradient>
				<path style="fill:url(#SVGID_00000145048029898524691870000011634673032349679543_);" d="M370.8,422.8L370.8,422.8
					c0.5,1.4,2,2.1,3.4,1.6l6.9-2.5c1.4-0.5,2.1-2,1.6-3.4l0,0c-0.5-1.4-2-2.1-3.4-1.6l-6.9,2.5
					C371.1,419.9,370.3,421.5,370.8,422.8z"/>
				
					<linearGradient id="SVGID_00000094589313598609929250000000551475416244175768_" gradientUnits="userSpaceOnUse" x1="-161.6857" y1="337.6021" x2="-161.8635" y2="323.1576" gradientTransform="matrix(-0.9835 0.1808 0.1505 0.8188 163.5734 190.66)">
					<stop  offset="0" style="stop-color:#FFFFFF"/>
					<stop  offset="0.2015" style="stop-color:#FFFFFF"/>
					<stop  offset="0.8512" style="stop-color:#26B2EF"/>
				</linearGradient>
				<path style="fill:url(#SVGID_00000094589313598609929250000000551475416244175768_);" d="M370.8,422.9L370.8,422.9
					c1.4-0.3,2.8,0.7,3.1,2.1l1.3,7.2c0.3,1.4-0.7,2.8-2.1,3.1l0,0c-1.4,0.3-2.8-0.7-3.1-2.1l-1.3-7.2
					C368.4,424.5,369.4,423.2,370.8,422.9z"/>
			</g>
			<g>
				
					<linearGradient id="SVGID_00000052813827640534772090000006489691769066135698_" gradientUnits="userSpaceOnUse" x1="-175.1917" y1="-199.7161" x2="-175.3695" y2="-214.1606" gradientTransform="matrix(-0.6483 -0.7613 -0.6339 0.5398 101.4014 417.1863)">
					<stop  offset="0" style="stop-color:#FFFFFF"/>
					<stop  offset="0.2015" style="stop-color:#FFFFFF"/>
					<stop  offset="0.8512" style="stop-color:#26B2EF"/>
				</linearGradient>
				<path style="fill:url(#SVGID_00000052813827640534772090000006489691769066135698_);" d="M353.2,433L353.2,433
					c0.9,1.1,0.8,2.8-0.3,3.7l-5.6,4.8c-1.1,0.9-2.8,0.8-3.7-0.3l0,0c-0.9-1.1-0.8-2.8,0.3-3.7l5.6-4.8
					C350.6,431.8,352.2,431.9,353.2,433z"/>
				
					<linearGradient id="SVGID_00000047766217896516736700000009738700058631428004_" gradientUnits="userSpaceOnUse" x1="368.6354" y1="567.2578" x2="368.4576" y2="552.8132" gradientTransform="matrix(0.6483 -0.7613 0.6339 0.5398 -233.6939 417.1863)">
					<stop  offset="0" style="stop-color:#FFFFFF"/>
					<stop  offset="0.2015" style="stop-color:#FFFFFF"/>
					<stop  offset="0.8512" style="stop-color:#26B2EF"/>
				</linearGradient>
				<path style="fill:url(#SVGID_00000047766217896516736700000009738700058631428004_);" d="M353.3,433L353.3,433
					c-0.9,1.1-0.8,2.8,0.3,3.7l5.6,4.8c1.1,0.9,2.8,0.8,3.7-0.3l0,0c0.9-1.1,0.8-2.8-0.3-3.7l-5.6-4.8
					C355.9,431.8,354.2,431.9,353.3,433z"/>
			</g>
			
				<radialGradient id="SVGID_00000124133932772604973890000008710243245933171616_" cx="353.2076" cy="89.2674" r="39.3367" gradientTransform="matrix(1 0 0 -1 0 502)" gradientUnits="userSpaceOnUse">
				<stop  offset="0.2479" style="stop-color:#26B2EF"/>
				<stop  offset="0.8306" style="stop-color:#FFFFFF"/>
			</radialGradient>
			<path style="fill:url(#SVGID_00000124133932772604973890000008710243245933171616_);" d="M379.3,424.2l-19.9-11.5l19.9-11.5
				c1.5-0.8,2-2.7,1.1-4.2l0,0c-0.8-1.5-2.7-2-4.2-1.1l-20,11.5v-23c0-1.7-1.4-3.1-3.1-3.1s-3.1,1.4-3.1,3.1v23l-20-11.5
				c-1.5-0.8-3.3-0.3-4.2,1.1c-0.8,1.5-0.3,3.3,1.1,4.2l19.9,11.5l-19.9,11.5c-1.5,0.8-2,2.7-1.1,4.2s2.7,2,4.2,1.1l20-11.5v23
				c0,1.7,1.4,3.1,3.1,3.1s3.1-1.4,3.1-3.1v-23l20,11.5c1.5,0.8,3.3,0.3,4.2-1.1l0,0C381.2,426.9,380.7,425.1,379.3,424.2z"/>
		</g>
	</g>
</g>
</svg>
