<?xml version="1.0" encoding="utf-8"?>
<!-- Generator: Adobe Illustrator 26.0.3, SVG Export Plug-In . SVG Version: 6.00 Build 0)  -->
<svg version="1.1" id="图层_1" xmlns="http://www.w3.org/2000/svg" xmlns:xlink="http://www.w3.org/1999/xlink" x="0px" y="0px"
	 viewBox="0 0 500 500" style="enable-background:new 0 0 500 500;" xml:space="preserve">
<style type="text/css">
	.st0{fill:url(#SVGID_1_);}
	.st1{fill:url(#SVGID_00000007390587502465572240000002954523538210968255_);}
	.st2{fill:url(#SVGID_00000160154844703095992370000003927477692478013371_);}
	.st3{fill:url(#SVGID_00000011006103313129248430000000273759479685457795_);}
	.st4{fill:url(#SVGID_00000018921793408616235820000013414636194620745397_);}
	.st5{fill:url(#SVGID_00000101789507346771760320000012100346489686881197_);}
	.st6{fill:url(#SVGID_00000016755654474567428540000003809498436795264934_);}
	.st7{fill:url(#SVGID_00000132081846276846760260000015492810807222623119_);}
	.st8{fill:url(#SVGID_00000176738971295632303560000000357223865521926563_);}
	.st9{fill:url(#SVGID_00000129911699040807812800000012705031700606871938_);}
	.st10{fill:url(#SVGID_00000171710130446277810860000011825955964843816069_);}
	.st11{fill:url(#SVGID_00000066474663635858252990000011988837043915162270_);}
	.st12{fill:url(#SVGID_00000096774173961350653100000000936553446770628249_);}
	.st13{fill:url(#SVGID_00000157278844495313140010000009824965111155874238_);}
	.st14{fill:url(#SVGID_00000022545125800875768900000001443761046185810351_);}
</style>
<g>
	
		<linearGradient id="SVGID_1_" gradientUnits="userSpaceOnUse" x1="107.7896" y1="352.0549" x2="369.9585" y2="181.2247" gradientTransform="matrix(1 0 0 -1 0 502)">
		<stop  offset="0.1491" style="stop-color:#FAFAFA"/>
		<stop  offset="0.818" style="stop-color:#CBCBCB"/>
	</linearGradient>
	<path class="st0" d="M78.6,266.3c0,32.5,26.4,58.9,58.9,58.9h209.8c40.9,0,74-33.1,74-74c0-38-28.5-69.3-65.2-73.6
		c-14-47.8-58.1-82.7-110.5-82.7c-62.8,0-113.9,50.4-115.1,112.9C101.3,211.2,78.6,236.1,78.6,266.3"/>
	<g>
		<g>
			<g>
				
					<linearGradient id="SVGID_00000042721671749240043060000013898122927228604855_" gradientUnits="userSpaceOnUse" x1="228.5276" y1="359.1018" x2="228.3498" y2="344.6572" gradientTransform="matrix(0.6483 0.7613 0.6339 -0.5398 -48.2483 363.5196)">
					<stop  offset="0" style="stop-color:#FFFFFF"/>
					<stop  offset="0.2015" style="stop-color:#FFFFFF"/>
					<stop  offset="0.8512" style="stop-color:#26B2EF"/>
				</linearGradient>
				<path style="fill:url(#SVGID_00000042721671749240043060000013898122927228604855_);" d="M316,353.4L316,353.4
					c-0.9-1.1-0.8-2.8,0.3-3.7l5.6-4.8c1.1-0.9,2.8-0.8,3.7,0.3l0,0c0.9,1.1,0.8,2.8-0.3,3.7l-5.6,4.8
					C318.6,354.7,316.9,354.5,316,353.4z"/>
				
					<linearGradient id="SVGID_00000116233867127777512230000010665555340388822430_" gradientUnits="userSpaceOnUse" x1="-26.434" y1="-0.4851" x2="-26.6119" y2="-14.9296" gradientTransform="matrix(-0.6483 0.7613 -0.6339 -0.5398 286.847 363.5196)">
					<stop  offset="0" style="stop-color:#FFFFFF"/>
					<stop  offset="0.2015" style="stop-color:#FFFFFF"/>
					<stop  offset="0.8512" style="stop-color:#26B2EF"/>
				</linearGradient>
				<path style="fill:url(#SVGID_00000116233867127777512230000010665555340388822430_);" d="M315.9,353.4L315.9,353.4
					c0.9-1.1,0.8-2.8-0.3-3.7l-5.6-4.8c-1.1-0.9-2.8-0.8-3.7,0.3l0,0c-0.9,1.1-0.8,2.8,0.3,3.7l5.6,4.8
					C313.3,354.7,315,354.5,315.9,353.4z"/>
			</g>
			<g>
				
					<linearGradient id="SVGID_00000039855386304898701630000005655825853007583361_" gradientUnits="userSpaceOnUse" x1="320.593" y1="91.1439" x2="320.4152" y2="76.6994" gradientTransform="matrix(0.9835 -0.1808 -0.1505 -0.8188 -5.8513 481.165)">
					<stop  offset="0" style="stop-color:#FFFFFF"/>
					<stop  offset="0.2015" style="stop-color:#FFFFFF"/>
					<stop  offset="0.8512" style="stop-color:#26B2EF"/>
				</linearGradient>
				<path style="fill:url(#SVGID_00000039855386304898701630000005655825853007583361_);" d="M298.4,363.6L298.4,363.6
					c-1.4,0.3-2.8-0.7-3.1-2.1l-1.3-7.2c-0.3-1.4,0.7-2.8,2.1-3.1l0,0c1.4-0.3,2.8,0.7,3.1,2.1l1.3,7.2
					C300.8,361.9,299.8,363.3,298.4,363.6z"/>
				
					<linearGradient id="SVGID_00000107570574281901914250000003551761031977722036_" gradientUnits="userSpaceOnUse" x1="208.546" y1="-66.9451" x2="208.3682" y2="-81.3897" gradientTransform="matrix(0.3352 0.9422 -0.7844 0.2791 161.6963 190.9874)">
					<stop  offset="0" style="stop-color:#FFFFFF"/>
					<stop  offset="0.2015" style="stop-color:#FFFFFF"/>
					<stop  offset="0.8512" style="stop-color:#26B2EF"/>
				</linearGradient>
				<path style="fill:url(#SVGID_00000107570574281901914250000003551761031977722036_);" d="M298.4,363.6L298.4,363.6
					c-0.5-1.4-2-2.1-3.4-1.6l-6.9,2.5c-1.4,0.5-2.1,2-1.6,3.4l0,0c0.5,1.4,2,2.1,3.4,1.6l6.9-2.5C298.1,366.5,298.8,365,298.4,363.6
					z"/>
			</g>
			<g>
				
					<linearGradient id="SVGID_00000061437800238249302320000016737319654309086350_" gradientUnits="userSpaceOnUse" x1="160.5475" y1="-175.3731" x2="160.3697" y2="-189.8176" gradientTransform="matrix(0.3352 -0.9422 -0.7844 -0.2791 92.7532 480.8376)">
					<stop  offset="0" style="stop-color:#FFFFFF"/>
					<stop  offset="0.2015" style="stop-color:#FFFFFF"/>
					<stop  offset="0.8512" style="stop-color:#26B2EF"/>
				</linearGradient>
				<path style="fill:url(#SVGID_00000061437800238249302320000016737319654309086350_);" d="M298.4,383.8L298.4,383.8
					c-0.5,1.4-2,2.1-3.4,1.6l-6.9-2.5c-1.4-0.5-2.1-2-1.6-3.4l0,0c0.5-1.4,2-2.1,3.4-1.6l6.9,2.5
					C298.1,380.9,298.8,382.5,298.4,383.8z"/>
				
					<linearGradient id="SVGID_00000036234525342809507960000007867323112137119642_" gradientUnits="userSpaceOnUse" x1="402.0637" y1="165.3981" x2="401.8859" y2="150.9535" gradientTransform="matrix(0.9835 0.1808 -0.1505 0.8188 -74.7945 190.66)">
					<stop  offset="0" style="stop-color:#FFFFFF"/>
					<stop  offset="0.2015" style="stop-color:#FFFFFF"/>
					<stop  offset="0.8512" style="stop-color:#26B2EF"/>
				</linearGradient>
				<path style="fill:url(#SVGID_00000036234525342809507960000007867323112137119642_);" d="M298.4,383.9L298.4,383.9
					c-1.4-0.3-2.8,0.7-3.1,2.1l-1.3,7.2c-0.3,1.4,0.7,2.8,2.1,3.1l0,0c1.4,0.3,2.8-0.7,3.1-2.1l1.3-7.2
					C300.8,385.5,299.8,384.2,298.4,383.9z"/>
			</g>
			<g>
				
					<linearGradient id="SVGID_00000096040548885625110880000015445476823587553934_" gradientUnits="userSpaceOnUse" x1="-213.5205" y1="209.0819" x2="-213.6983" y2="194.6373" gradientTransform="matrix(-0.9835 -0.1808 0.1505 -0.8188 94.6302 481.165)">
					<stop  offset="0" style="stop-color:#FFFFFF"/>
					<stop  offset="0.2015" style="stop-color:#FFFFFF"/>
					<stop  offset="0.8512" style="stop-color:#26B2EF"/>
				</linearGradient>
				<path style="fill:url(#SVGID_00000096040548885625110880000015445476823587553934_);" d="M333.5,363.6L333.5,363.6
					c1.4,0.3,2.8-0.7,3.1-2.1l1.3-7.2c0.3-1.4-0.7-2.8-2.1-3.1l0,0c-1.4-0.3-2.8,0.7-3.1,2.1l-1.3,7.2
					C331.1,361.9,332.1,363.3,333.5,363.6z"/>
				
					<linearGradient id="SVGID_00000033334241326650363720000001890457052854866324_" gradientUnits="userSpaceOnUse" x1="26.5111" y1="547.588" x2="26.3332" y2="533.1436" gradientTransform="matrix(-0.3352 0.9422 0.7844 0.2791 -72.9174 190.9874)">
					<stop  offset="0" style="stop-color:#FFFFFF"/>
					<stop  offset="0.2015" style="stop-color:#FFFFFF"/>
					<stop  offset="0.8512" style="stop-color:#26B2EF"/>
				</linearGradient>
				<path style="fill:url(#SVGID_00000033334241326650363720000001890457052854866324_);" d="M333.5,363.6L333.5,363.6
					c0.5-1.4,2-2.1,3.4-1.6l6.9,2.5c1.4,0.5,2.1,2,1.6,3.4l0,0c-0.5,1.4-2,2.1-3.4,1.6l-6.9-2.5C333.8,366.5,333.1,365,333.5,363.6z
					"/>
			</g>
			<g>
				
					<linearGradient id="SVGID_00000144301689098909868330000016918478590898915004_" gradientUnits="userSpaceOnUse" x1="-21.4875" y1="439.1602" x2="-21.6653" y2="424.7156" gradientTransform="matrix(-0.3352 -0.9422 0.7844 -0.2791 -3.9743 480.8376)">
					<stop  offset="0" style="stop-color:#FFFFFF"/>
					<stop  offset="0.2015" style="stop-color:#FFFFFF"/>
					<stop  offset="0.8512" style="stop-color:#26B2EF"/>
				</linearGradient>
				<path style="fill:url(#SVGID_00000144301689098909868330000016918478590898915004_);" d="M333.5,383.8L333.5,383.8
					c0.5,1.4,2,2.1,3.4,1.6l6.9-2.5c1.4-0.5,2.1-2,1.6-3.4l0,0c-0.5-1.4-2-2.1-3.4-1.6l-6.9,2.5
					C333.8,380.9,333.1,382.5,333.5,383.8z"/>
				
					<linearGradient id="SVGID_00000060025594468808538920000003090639928021691304_" gradientUnits="userSpaceOnUse" x1="-132.0498" y1="283.3359" x2="-132.2276" y2="268.8914" gradientTransform="matrix(-0.9835 0.1808 0.1505 0.8188 163.5734 190.66)">
					<stop  offset="0" style="stop-color:#FFFFFF"/>
					<stop  offset="0.2015" style="stop-color:#FFFFFF"/>
					<stop  offset="0.8512" style="stop-color:#26B2EF"/>
				</linearGradient>
				<path style="fill:url(#SVGID_00000060025594468808538920000003090639928021691304_);" d="M333.5,383.9L333.5,383.9
					c1.4-0.3,2.8,0.7,3.1,2.1l1.3,7.2c0.3,1.4-0.7,2.8-2.1,3.1l0,0c-1.4,0.3-2.8-0.7-3.1-2.1l-1.3-7.2
					C331.1,385.5,332.1,384.2,333.5,383.9z"/>
			</g>
			<g>
				
					<linearGradient id="SVGID_00000022547669690164842530000000286100867388444604_" gradientUnits="userSpaceOnUse" x1="-121.2418" y1="-196.0389" x2="-121.4196" y2="-210.4836" gradientTransform="matrix(-0.6483 -0.7613 -0.6339 0.5398 101.4014 417.1863)">
					<stop  offset="0" style="stop-color:#FFFFFF"/>
					<stop  offset="0.2015" style="stop-color:#FFFFFF"/>
					<stop  offset="0.8512" style="stop-color:#26B2EF"/>
				</linearGradient>
				<path style="fill:url(#SVGID_00000022547669690164842530000000286100867388444604_);" d="M315.9,394L315.9,394
					c0.9,1.1,0.8,2.8-0.3,3.7l-5.6,4.8c-1.1,0.9-2.8,0.8-3.7-0.3l0,0c-0.9-1.1-0.8-2.8,0.3-3.7l5.6-4.8
					C313.3,392.8,315,392.9,315.9,394z"/>
				
					<linearGradient id="SVGID_00000001665270478318182290000003992587628816025228_" gradientUnits="userSpaceOnUse" x1="374.1974" y1="502.7169" x2="374.0195" y2="488.2724" gradientTransform="matrix(0.6483 -0.7613 0.6339 0.5398 -233.6939 417.1863)">
					<stop  offset="0" style="stop-color:#FFFFFF"/>
					<stop  offset="0.2015" style="stop-color:#FFFFFF"/>
					<stop  offset="0.8512" style="stop-color:#26B2EF"/>
				</linearGradient>
				<path style="fill:url(#SVGID_00000001665270478318182290000003992587628816025228_);" d="M316,394L316,394
					c-0.9,1.1-0.8,2.8,0.3,3.7l5.6,4.8c1.1,0.9,2.8,0.8,3.7-0.3l0,0c0.9-1.1,0.8-2.8-0.3-3.7l-5.6-4.8
					C318.6,392.8,316.9,392.9,316,394z"/>
			</g>
			
				<radialGradient id="SVGID_00000003106882778787343120000011429717774743388601_" cx="315.9169" cy="128.3477" r="39.3367" gradientTransform="matrix(1 0 0 -1 0 502)" gradientUnits="userSpaceOnUse">
				<stop  offset="0.2479" style="stop-color:#26B2EF"/>
				<stop  offset="0.8306" style="stop-color:#FFFFFF"/>
			</radialGradient>
			<path style="fill:url(#SVGID_00000003106882778787343120000011429717774743388601_);" d="M342,385.2l-19.9-11.5l19.9-11.5
				c1.5-0.8,2-2.7,1.1-4.2l0,0c-0.8-1.5-2.7-2-4.2-1.1l-20,11.5v-23c0-1.7-1.4-3.1-3.1-3.1c-1.7,0-3.1,1.4-3.1,3.1v23l-20-11.5
				c-1.5-0.8-3.3-0.3-4.2,1.1c-0.8,1.5-0.3,3.3,1.1,4.2l19.9,11.5l-19.6,11.5c-1.5,0.8-2,2.7-1.1,4.2s2.7,2,4.2,1.1l20-11.5v23
				c0,1.7,1.4,3.1,3.1,3.1c1.7,0,3.1-1.4,3.1-3.1v-23l20,11.5c1.5,0.8,3.3,0.3,4.2-1.1l0,0C344,387.9,343.5,386.1,342,385.2z"/>
		</g>
		
			<linearGradient id="SVGID_00000140008128724524980500000011164463849114469516_" gradientUnits="userSpaceOnUse" x1="326.2533" y1="343.737" x2="325.5161" y2="403.6176" gradientTransform="matrix(-1 0 0 1 500.4937 0)">
			<stop  offset="0" style="stop-color:#FFFFFF"/>
			<stop  offset="9.948106e-02" style="stop-color:#FFFFFF"/>
			<stop  offset="0.8537" style="stop-color:#26B2EF"/>
		</linearGradient>
		<path style="fill:url(#SVGID_00000140008128724524980500000011164463849114469516_);" d="M154.5,384.9c0,11.2,9.1,20.3,20.3,20.3
			s20.3-9.1,20.3-20.3s-20.3-42.7-20.3-42.7S154.5,373.7,154.5,384.9z"/>
	</g>
</g>
</svg>
