<?xml version="1.0" encoding="utf-8"?>
<!-- Generator: Adobe Illustrator 26.0.3, SVG Export Plug-In . SVG Version: 6.00 Build 0)  -->
<svg version="1.1" id="图层_1" xmlns="http://www.w3.org/2000/svg" xmlns:xlink="http://www.w3.org/1999/xlink" x="0px" y="0px"
	 viewBox="0 0 500 500" style="enable-background:new 0 0 500 500;" xml:space="preserve">
<style type="text/css">
	.st0{fill:url(#SVGID_1_);}
	.st1{fill:url(#SVGID_00000114753341836087210280000018393269831928700320_);}
	.st2{fill:url(#SVGID_00000067951202247022335350000012405664351701001859_);}
	.st3{fill:url(#SVGID_00000006674107517562511780000002698729321856180619_);}
	.st4{fill:url(#SVGID_00000168807507339899578340000003851133733749587895_);}
	.st5{fill:url(#SVGID_00000058552926703346629260000003218551338315848615_);}
	.st6{fill:url(#SVGID_00000075133061697920779490000016196921954851316652_);}
	.st7{fill:url(#SVGID_00000089574990614183222540000007699368805081533853_);}
	.st8{fill:url(#SVGID_00000016771769310059218960000000772315613426880671_);}
	.st9{fill:url(#SVGID_00000008122612165249446680000005907420114357242023_);}
	.st10{fill:url(#SVGID_00000075125166701017481350000018445329027253441671_);}
	.st11{fill:url(#SVGID_00000100346642675736148460000005820837889712518016_);}
	.st12{fill:url(#SVGID_00000147941122392243525650000008667916908107572117_);}
	.st13{fill:url(#SVGID_00000039114029612001700870000012290943242371356065_);}
	.st14{fill:url(#SVGID_00000026880867123646706590000006428271495956847548_);}
	.st15{fill:url(#SVGID_00000134242666543201507860000013868436880203195802_);}
	.st16{fill:url(#SVGID_00000071553629792808144490000012152787862066014620_);}
	.st17{fill:url(#SVGID_00000133516152619701583280000015582837821744609940_);}
	.st18{fill:url(#SVGID_00000165233684525503530470000002748828052219001018_);}
	.st19{fill:url(#SVGID_00000141443482588684117020000008701131009884826008_);}
	.st20{fill:url(#SVGID_00000044863296150857088200000013882019277647624381_);}
</style>
<g>
	<g>
		
			<linearGradient id="SVGID_1_" gradientUnits="userSpaceOnUse" x1="48.8331" y1="490.2032" x2="48.158" y2="435.3504" gradientTransform="matrix(0.6483 0.7613 0.6339 -0.5398 -48.2483 363.5196)">
			<stop  offset="0" style="stop-color:#FFFFFF"/>
			<stop  offset="0.2015" style="stop-color:#FFFFFF"/>
			<stop  offset="0.8512" style="stop-color:#26B2EF"/>
		</linearGradient>
		<path class="st0" d="M250.2,172.9L250.2,172.9c-3.4-4.2-3-10.6,1.1-14.1l21.3-18.2c4.2-3.4,10.6-3,14.1,1.1l0,0
			c3.4,4.2,3,10.6-1.1,14.1l-21.3,18.2C260.1,177.8,253.6,177.1,250.2,172.9z"/>
		
			<linearGradient id="SVGID_00000013163384427518490750000010605802334787212682_" gradientUnits="userSpaceOnUse" x1="-120.6535" y1="251.1506" x2="-121.329" y2="196.2978" gradientTransform="matrix(-0.6483 0.7613 -0.6339 -0.5398 286.847 363.5196)">
			<stop  offset="0" style="stop-color:#FFFFFF"/>
			<stop  offset="0.2015" style="stop-color:#FFFFFF"/>
			<stop  offset="0.8512" style="stop-color:#26B2EF"/>
		</linearGradient>
		<path style="fill:url(#SVGID_00000013163384427518490750000010605802334787212682_);" d="M249.8,172.9L249.8,172.9
			c3.4-4.2,3-10.6-1.1-14.1l-21.3-18.2c-4.2-3.4-10.6-3-14.1,1.1l0,0c-3.4,4.2-3,10.6,1.1,14.1l21.3,18.2
			C239.9,177.8,246.4,177.1,249.8,172.9z"/>
	</g>
	<g>
		
			<linearGradient id="SVGID_00000181089737542664761220000002336903769302387842_" gradientUnits="userSpaceOnUse" x1="235.277" y1="346.683" x2="234.6018" y2="291.8304" gradientTransform="matrix(0.9835 -0.1808 -0.1505 -0.8188 -5.8513 481.165)">
			<stop  offset="0" style="stop-color:#FFFFFF"/>
			<stop  offset="0.2015" style="stop-color:#FFFFFF"/>
			<stop  offset="0.8512" style="stop-color:#26B2EF"/>
		</linearGradient>
		<path style="fill:url(#SVGID_00000181089737542664761220000002336903769302387842_);" d="M183.4,211.6L183.4,211.6
			c-5.3,1.1-10.6-2.7-11.8-8l-4.9-27.3c-1.1-5.3,2.7-10.6,8-11.8l0,0c5.3-1.1,10.6,2.7,11.8,8l4.9,27.3
			C192.5,205.2,188.7,210.5,183.4,211.6z"/>
		
			<linearGradient id="SVGID_00000097496861303001080470000000207419612366078109_" gradientUnits="userSpaceOnUse" x1="27.3366" y1="53.0673" x2="26.6614" y2="-1.7852" gradientTransform="matrix(0.3352 0.9422 -0.7844 0.2791 161.6963 190.9874)">
			<stop  offset="0" style="stop-color:#FFFFFF"/>
			<stop  offset="0.2015" style="stop-color:#FFFFFF"/>
			<stop  offset="0.8512" style="stop-color:#26B2EF"/>
		</linearGradient>
		<path style="fill:url(#SVGID_00000097496861303001080470000000207419612366078109_);" d="M183.4,211.6L183.4,211.6
			c-1.9-5.3-7.6-8-12.9-6.1l-26.2,9.5c-5.3,1.9-8,7.6-6.1,12.9l0,0c1.9,5.3,7.6,8,12.9,6.1l26.2-9.5
			C182.2,222.7,184.9,217,183.4,211.6z"/>
	</g>
	<g>
		
			<linearGradient id="SVGID_00000138564661219250046020000008185229413953164963_" gradientUnits="userSpaceOnUse" x1="212.3204" y1="44.134" x2="211.6453" y2="-10.7184" gradientTransform="matrix(0.3352 -0.9422 -0.7844 -0.2791 92.7532 480.8376)">
			<stop  offset="0" style="stop-color:#FFFFFF"/>
			<stop  offset="0.2015" style="stop-color:#FFFFFF"/>
			<stop  offset="0.8512" style="stop-color:#26B2EF"/>
		</linearGradient>
		<path style="fill:url(#SVGID_00000138564661219250046020000008185229413953164963_);" d="M183.4,288.4L183.4,288.4
			c-1.9,5.3-7.6,8-12.9,6.1l-26.2-9.5c-5.3-1.9-8-7.6-6.1-12.9l0,0c1.9-5.3,7.6-8,12.9-6.1l26.2,9.5
			C182.2,277.3,184.9,283.4,183.4,288.4z"/>
		
			<linearGradient id="SVGID_00000142151384028636463350000003200464654548070036_" gradientUnits="userSpaceOnUse" x1="272.0868" y1="128.9354" x2="271.4116" y2="74.0825" gradientTransform="matrix(0.9835 0.1808 -0.1505 0.8188 -74.7945 190.66)">
			<stop  offset="0" style="stop-color:#FFFFFF"/>
			<stop  offset="0.2015" style="stop-color:#FFFFFF"/>
			<stop  offset="0.8512" style="stop-color:#26B2EF"/>
		</linearGradient>
		<path style="fill:url(#SVGID_00000142151384028636463350000003200464654548070036_);" d="M183.4,288.7L183.4,288.7
			c-5.3-1.1-10.6,2.7-11.8,8l-4.9,27.3c-1.1,5.3,2.7,10.6,8,11.8l0,0c5.3,1.1,10.6-2.7,11.8-8l4.9-27.3
			C192.5,294.8,188.7,289.9,183.4,288.7z"/>
	</g>
	<g>
		
			<linearGradient id="SVGID_00000080899863477861851240000001195636152460151952_" gradientUnits="userSpaceOnUse" x1="-169.1768" y1="435.9902" x2="-169.852" y2="381.1375" gradientTransform="matrix(-0.9835 -0.1808 0.1505 -0.8188 94.6302 481.165)">
			<stop  offset="0" style="stop-color:#FFFFFF"/>
			<stop  offset="0.2015" style="stop-color:#FFFFFF"/>
			<stop  offset="0.8512" style="stop-color:#26B2EF"/>
		</linearGradient>
		<path style="fill:url(#SVGID_00000080899863477861851240000001195636152460151952_);" d="M316.6,211.6L316.6,211.6
			c5.3,1.1,10.6-2.7,11.8-8l4.9-27.3c1.1-5.3-2.7-10.6-8-11.8l0,0c-5.3-1.1-10.6,2.7-11.8,8l-4.9,27.3
			C307.5,205.2,311.3,210.5,316.6,211.6z"/>
		
			<linearGradient id="SVGID_00000092431707316370535440000000170725510795738789_" gradientUnits="userSpaceOnUse" x1="-110.5075" y1="518.4484" x2="-111.1831" y2="463.596" gradientTransform="matrix(-0.3352 0.9422 0.7844 0.2791 -72.9174 190.9874)">
			<stop  offset="0" style="stop-color:#FFFFFF"/>
			<stop  offset="0.2015" style="stop-color:#FFFFFF"/>
			<stop  offset="0.8512" style="stop-color:#26B2EF"/>
		</linearGradient>
		<path style="fill:url(#SVGID_00000092431707316370535440000000170725510795738789_);" d="M316.6,211.6L316.6,211.6
			c1.9-5.3,7.6-8,12.9-6.1l26.2,9.5c5.3,1.9,8,7.6,6.1,12.9l0,0c-1.9,5.3-7.6,8-12.9,6.1l-26.2-9.5
			C317.8,222.7,315.1,217,316.6,211.6z"/>
	</g>
	<g>
		
			<linearGradient id="SVGID_00000074431244818430522060000002078649601830405294_" gradientUnits="userSpaceOnUse" x1="74.4761" y1="509.5152" x2="73.8009" y2="454.6627" gradientTransform="matrix(-0.3352 -0.9422 0.7844 -0.2791 -3.9743 480.8376)">
			<stop  offset="0" style="stop-color:#FFFFFF"/>
			<stop  offset="0.2015" style="stop-color:#FFFFFF"/>
			<stop  offset="0.8512" style="stop-color:#26B2EF"/>
		</linearGradient>
		<path style="fill:url(#SVGID_00000074431244818430522060000002078649601830405294_);" d="M316.6,288.4L316.6,288.4
			c1.9,5.3,7.6,8,12.9,6.1l26.2-9.5c5.3-1.9,8-7.6,6.1-12.9l0,0c-1.9-5.3-7.6-8-12.9-6.1l-26.2,9.5
			C317.8,277.3,315.1,283.4,316.6,288.4z"/>
		
			<linearGradient id="SVGID_00000069368966258744627990000009493561117204955824_" gradientUnits="userSpaceOnUse" x1="-132.367" y1="218.2424" x2="-133.0422" y2="163.3899" gradientTransform="matrix(-0.9835 0.1808 0.1505 0.8188 163.5734 190.66)">
			<stop  offset="0" style="stop-color:#FFFFFF"/>
			<stop  offset="0.2015" style="stop-color:#FFFFFF"/>
			<stop  offset="0.8512" style="stop-color:#26B2EF"/>
		</linearGradient>
		<path style="fill:url(#SVGID_00000069368966258744627990000009493561117204955824_);" d="M316.6,288.7L316.6,288.7
			c5.3-1.1,10.6,2.7,11.8,8l4.9,27.3c1.1,5.3-2.7,10.6-8,11.8l0,0c-5.3,1.1-10.6-2.7-11.8-8l-4.9-27.3
			C307.5,294.8,311.3,289.9,316.6,288.7z"/>
	</g>
	<g>
		
			<linearGradient id="SVGID_00000014616004745571021210000016689447035981547392_" gradientUnits="userSpaceOnUse" x1="-27.1656" y1="-136.8876" x2="-27.8408" y2="-191.7406" gradientTransform="matrix(-0.6483 -0.7613 -0.6339 0.5398 101.4014 417.1863)">
			<stop  offset="0" style="stop-color:#FFFFFF"/>
			<stop  offset="0.2015" style="stop-color:#FFFFFF"/>
			<stop  offset="0.8512" style="stop-color:#26B2EF"/>
		</linearGradient>
		<path style="fill:url(#SVGID_00000014616004745571021210000016689447035981547392_);" d="M249.8,327.1L249.8,327.1
			c3.4,4.2,3,10.6-1.1,14.1l-21.3,18.2c-4.2,3.4-10.6,3-14.1-1.1l0,0c-3.4-4.2-3-10.6,1.1-14.1l21.3-18.2
			C239.9,322.5,246.4,322.9,249.8,327.1z"/>
		
			<linearGradient id="SVGID_00000126294903349690915760000006790609178728656815_" gradientUnits="userSpaceOnUse" x1="382.7993" y1="441.3758" x2="382.1241" y2="386.5233" gradientTransform="matrix(0.6483 -0.7613 0.6339 0.5398 -233.6939 417.1863)">
			<stop  offset="0" style="stop-color:#FFFFFF"/>
			<stop  offset="0.2015" style="stop-color:#FFFFFF"/>
			<stop  offset="0.8512" style="stop-color:#26B2EF"/>
		</linearGradient>
		<path style="fill:url(#SVGID_00000126294903349690915760000006790609178728656815_);" d="M250.2,327.1L250.2,327.1
			c-3.4,4.2-3,10.6,1.1,14.1l21.3,18.2c4.2,3.4,10.6,3,14.1-1.1l0,0c3.4-4.2,3-10.6-1.1-14.1l-21.3-18.2
			C260.1,322.5,253.6,322.9,250.2,327.1z"/>
	</g>
	
		<radialGradient id="SVGID_00000031901651302465239460000013077397199728168864_" cx="250.0088" cy="252" r="149.3797" gradientTransform="matrix(1 0 0 -1 0 502)" gradientUnits="userSpaceOnUse">
		<stop  offset="0.2479" style="stop-color:#26B2EF"/>
		<stop  offset="0.8306" style="stop-color:#FFFFFF"/>
	</radialGradient>
	<path style="fill:url(#SVGID_00000031901651302465239460000013077397199728168864_);" d="M348.9,293.7L273.4,250l75.6-43.7
		c5.7-3,7.6-10.3,4.2-15.9l0,0c-3-5.7-10.3-7.6-15.9-4.2l-75.9,43.7v-87.3c0-6.5-5.3-11.8-11.8-11.8c-6.5,0-11.8,5.3-11.8,11.8v87.3
		l-75.9-43.7c-5.7-3-12.5-1.1-15.9,4.2c-3,5.7-1.1,12.5,4.2,15.9l75.6,43.7l-74.4,43.7c-5.7,3-7.6,10.3-4.2,15.9
		c3.4,5.7,10.3,7.6,15.9,4.2l75.9-43.7v87.3c0,6.5,5.3,11.8,11.8,11.8c6.5,0,11.8-5.3,11.8-11.8v-87.3l75.9,43.7
		c5.7,3,12.5,1.1,15.9-4.2l0,0C356.5,303.9,354.6,297.1,348.9,293.7z"/>
</g>
<radialGradient id="SVGID_00000142872741225863602820000011485537295293376191_" cx="77.3523" cy="132.7456" r="27.1338" gradientTransform="matrix(0.5 -0.866 0.866 0.5 -55.1904 138.9424)" gradientUnits="userSpaceOnUse">
	<stop  offset="0" style="stop-color:#FFFFFF"/>
	<stop  offset="0" style="stop-color:#ECF8FE"/>
	<stop  offset="0" style="stop-color:#C3EAFB"/>
	<stop  offset="0" style="stop-color:#9DDCF8"/>
	<stop  offset="0" style="stop-color:#7DD1F5"/>
	<stop  offset="0" style="stop-color:#61C7F3"/>
	<stop  offset="0" style="stop-color:#4BBFF2"/>
	<stop  offset="0" style="stop-color:#3AB9F1"/>
	<stop  offset="0" style="stop-color:#2FB5F0"/>
	<stop  offset="0" style="stop-color:#28B3EF"/>
	<stop  offset="0" style="stop-color:#26B2EF"/>
	<stop  offset="1" style="stop-color:#FFFFFF"/>
</radialGradient>
<path style="fill:url(#SVGID_00000142872741225863602820000011485537295293376191_);" d="M101.7,117.6l-6,10.4l-10.4-6
	c-3.6-2.1-8.2-0.8-10.3,2.8c-2.1,3.6-0.8,8.2,2.8,10.3l10.4,6l-6,10.4c-2.1,3.6-0.8,8.2,2.8,10.3s8.2,0.8,10.3-2.8l6-10.4l10.4,6
	c3.6,2.1,8.2,0.8,10.3-2.8s0.8-8.2-2.8-10.3l-10.4-6l6-10.4c2.1-3.6,0.8-8.2-2.8-10.3S103.8,114,101.7,117.6z"/>
<radialGradient id="SVGID_00000148630393839688766890000002779723598022182809_" cx="33.8715" cy="519.2632" r="27.1338" gradientTransform="matrix(0.5 -0.866 0.866 0.5 -55.1904 138.9424)" gradientUnits="userSpaceOnUse">
	<stop  offset="0" style="stop-color:#FFFFFF"/>
	<stop  offset="0" style="stop-color:#ECF8FE"/>
	<stop  offset="0" style="stop-color:#C3EAFB"/>
	<stop  offset="0" style="stop-color:#9DDCF8"/>
	<stop  offset="0" style="stop-color:#7DD1F5"/>
	<stop  offset="0" style="stop-color:#61C7F3"/>
	<stop  offset="0" style="stop-color:#4BBFF2"/>
	<stop  offset="0" style="stop-color:#3AB9F1"/>
	<stop  offset="0" style="stop-color:#2FB5F0"/>
	<stop  offset="0" style="stop-color:#28B3EF"/>
	<stop  offset="0" style="stop-color:#26B2EF"/>
	<stop  offset="1" style="stop-color:#FFFFFF"/>
</radialGradient>
<path style="fill:url(#SVGID_00000148630393839688766890000002779723598022182809_);" d="M414.7,348.5l-6,10.4l-10.4-6
	c-3.6-2.1-8.2-0.8-10.3,2.8c-2.1,3.6-0.8,8.2,2.8,10.3l10.4,6l-6,10.4c-2.1,3.6-0.8,8.2,2.8,10.3c3.6,2.1,8.2,0.8,10.3-2.8l6-10.4
	l10.4,6c3.6,2.1,8.2,0.8,10.3-2.8c2.1-3.6,0.8-8.2-2.8-10.3l-10.4-6l6-10.4c2.1-3.6,0.8-8.2-2.8-10.3
	C421.4,343.7,416.8,344.9,414.7,348.5z"/>
<radialGradient id="SVGID_00000126318126309077107450000005120232545015179151_" cx="-113.3246" cy="278.619" r="27.1338" gradientTransform="matrix(0.5 -0.866 0.866 0.5 -55.1904 138.9424)" gradientUnits="userSpaceOnUse">
	<stop  offset="0" style="stop-color:#FFFFFF"/>
	<stop  offset="0" style="stop-color:#ECF8FE"/>
	<stop  offset="0" style="stop-color:#C3EAFB"/>
	<stop  offset="0" style="stop-color:#9DDCF8"/>
	<stop  offset="0" style="stop-color:#7DD1F5"/>
	<stop  offset="0" style="stop-color:#61C7F3"/>
	<stop  offset="0" style="stop-color:#4BBFF2"/>
	<stop  offset="0" style="stop-color:#3AB9F1"/>
	<stop  offset="0" style="stop-color:#2FB5F0"/>
	<stop  offset="0" style="stop-color:#28B3EF"/>
	<stop  offset="0" style="stop-color:#26B2EF"/>
	<stop  offset="1" style="stop-color:#FFFFFF"/>
</radialGradient>
<path style="fill:url(#SVGID_00000126318126309077107450000005120232545015179151_);" d="M132.7,355.7l-6,10.4l-10.4-6
	c-3.6-2.1-8.2-0.8-10.3,2.8c-2.1,3.6-0.8,8.2,2.8,10.3l10.4,6l-6,10.4c-2.1,3.6-0.8,8.2,2.8,10.3c3.6,2.1,8.2,0.8,10.3-2.8l6-10.4
	l10.4,6c3.6,2.1,8.2,0.8,10.3-2.8c2.1-3.6,0.8-8.2-2.8-10.3l-10.4-6l6-10.4c2.1-3.6,0.8-8.2-2.8-10.3S134.8,352,132.7,355.7z"/>
<radialGradient id="SVGID_00000000931487545476404710000002119736014673499022_" cx="224.5287" cy="372.5294" r="27.1338" gradientTransform="matrix(0.5 -0.866 0.866 0.5 -55.1904 138.9424)" gradientUnits="userSpaceOnUse">
	<stop  offset="0" style="stop-color:#FFFFFF"/>
	<stop  offset="0" style="stop-color:#ECF8FE"/>
	<stop  offset="0" style="stop-color:#C3EAFB"/>
	<stop  offset="0" style="stop-color:#9DDCF8"/>
	<stop  offset="0" style="stop-color:#7DD1F5"/>
	<stop  offset="0" style="stop-color:#61C7F3"/>
	<stop  offset="0" style="stop-color:#4BBFF2"/>
	<stop  offset="0" style="stop-color:#3AB9F1"/>
	<stop  offset="0" style="stop-color:#2FB5F0"/>
	<stop  offset="0" style="stop-color:#28B3EF"/>
	<stop  offset="0" style="stop-color:#26B2EF"/>
	<stop  offset="1" style="stop-color:#FFFFFF"/>
</radialGradient>
<path style="fill:url(#SVGID_00000000931487545476404710000002119736014673499022_);" d="M382.9,110l-6,10.4l-10.4-6
	c-3.6-2.1-8.2-0.8-10.3,2.8s-0.8,8.2,2.8,10.3l10.4,6l-6,10.4c-2.1,3.6-0.8,8.2,2.8,10.3s8.2,0.8,10.3-2.8l6-10.4l10.4,6
	c3.6,2.1,8.2,0.8,10.3-2.8s0.8-8.2-2.8-10.3l-10.4-6l6-10.4c2.1-3.6,0.8-8.2-2.8-10.3S385,106.4,382.9,110z"/>
<radialGradient id="SVGID_00000065779431915703124950000012262425242027226503_" cx="62.9379" cy="273.836" r="8.4984" gradientUnits="userSpaceOnUse">
	<stop  offset="0" style="stop-color:#FFFFFF"/>
	<stop  offset="0" style="stop-color:#ECF8FE"/>
	<stop  offset="0" style="stop-color:#C3EAFB"/>
	<stop  offset="0" style="stop-color:#9DDCF8"/>
	<stop  offset="0" style="stop-color:#7DD1F5"/>
	<stop  offset="0" style="stop-color:#61C7F3"/>
	<stop  offset="0" style="stop-color:#4BBFF2"/>
	<stop  offset="0" style="stop-color:#3AB9F1"/>
	<stop  offset="0" style="stop-color:#2FB5F0"/>
	<stop  offset="0" style="stop-color:#28B3EF"/>
	<stop  offset="0" style="stop-color:#26B2EF"/>
	<stop  offset="1" style="stop-color:#FFFFFF"/>
</radialGradient>
<circle style="fill:url(#SVGID_00000065779431915703124950000012262425242027226503_);" cx="62.9" cy="273.8" r="8.5"/>
<radialGradient id="SVGID_00000181057126947770826900000002673875312633178300_" cx="420.6076" cy="231.7108" r="11.9006" gradientUnits="userSpaceOnUse">
	<stop  offset="0" style="stop-color:#FFFFFF"/>
	<stop  offset="0" style="stop-color:#ECF8FE"/>
	<stop  offset="0" style="stop-color:#C3EAFB"/>
	<stop  offset="0" style="stop-color:#9DDCF8"/>
	<stop  offset="0" style="stop-color:#7DD1F5"/>
	<stop  offset="0" style="stop-color:#61C7F3"/>
	<stop  offset="0" style="stop-color:#4BBFF2"/>
	<stop  offset="0" style="stop-color:#3AB9F1"/>
	<stop  offset="0" style="stop-color:#2FB5F0"/>
	<stop  offset="0" style="stop-color:#28B3EF"/>
	<stop  offset="0" style="stop-color:#26B2EF"/>
	<stop  offset="1" style="stop-color:#FFFFFF"/>
</radialGradient>
<circle style="fill:url(#SVGID_00000181057126947770826900000002673875312633178300_);" cx="420.6" cy="231.7" r="11.9"/>
<radialGradient id="SVGID_00000023964942013848319960000011101313021911826099_" cx="275.9126" cy="416.9317" r="13.04" gradientUnits="userSpaceOnUse">
	<stop  offset="0" style="stop-color:#FFFFFF"/>
	<stop  offset="0" style="stop-color:#ECF8FE"/>
	<stop  offset="0" style="stop-color:#C3EAFB"/>
	<stop  offset="0" style="stop-color:#9DDCF8"/>
	<stop  offset="0" style="stop-color:#7DD1F5"/>
	<stop  offset="0" style="stop-color:#61C7F3"/>
	<stop  offset="0" style="stop-color:#4BBFF2"/>
	<stop  offset="0" style="stop-color:#3AB9F1"/>
	<stop  offset="0" style="stop-color:#2FB5F0"/>
	<stop  offset="0" style="stop-color:#28B3EF"/>
	<stop  offset="0" style="stop-color:#26B2EF"/>
	<stop  offset="1" style="stop-color:#FFFFFF"/>
</radialGradient>
<circle style="fill:url(#SVGID_00000023964942013848319960000011101313021911826099_);" cx="275.9" cy="416.9" r="13"/>
<radialGradient id="SVGID_00000104689020245298084460000010594635221876441224_" cx="246.1445" cy="74.8579" r="5.9726" gradientUnits="userSpaceOnUse">
	<stop  offset="0" style="stop-color:#FFFFFF"/>
	<stop  offset="0" style="stop-color:#ECF8FE"/>
	<stop  offset="0" style="stop-color:#C3EAFB"/>
	<stop  offset="0" style="stop-color:#9DDCF8"/>
	<stop  offset="0" style="stop-color:#7DD1F5"/>
	<stop  offset="0" style="stop-color:#61C7F3"/>
	<stop  offset="0" style="stop-color:#4BBFF2"/>
	<stop  offset="0" style="stop-color:#3AB9F1"/>
	<stop  offset="0" style="stop-color:#2FB5F0"/>
	<stop  offset="0" style="stop-color:#28B3EF"/>
	<stop  offset="0" style="stop-color:#26B2EF"/>
	<stop  offset="1" style="stop-color:#FFFFFF"/>
</radialGradient>
<circle style="fill:url(#SVGID_00000104689020245298084460000010594635221876441224_);" cx="246.1" cy="74.9" r="6"/>
</svg>
