<?xml version="1.0" encoding="utf-8"?>
<!-- Generator: Adobe Illustrator 26.0.3, SVG Export Plug-In . SVG Version: 6.00 Build 0)  -->
<svg version="1.1" id="图层_1" xmlns="http://www.w3.org/2000/svg" xmlns:xlink="http://www.w3.org/1999/xlink" x="0px" y="0px"
	 viewBox="0 0 500 500" style="enable-background:new 0 0 500 500;" xml:space="preserve">
<style type="text/css">
	.st0{fill:#D9ECFF;}
	.st1{fill:#CCD1D9;}
	.st2{fill:#8CC5FF;}
	.st3{fill:#AAB2BC;}
	.st4{fill:#66B1FF;}
	.st5{fill:#656D78;}
	.st6{fill:#409EFF;}
	.st7{fill:#434A54;}
</style>
<path class="st0" d="M163.2,415.8h-15.8c-4.4,0-7.9,3.5-7.9,7.9c0,4.4,3.5,7.9,7.9,7.9h15.8c4.4,0,7.9-3.5,7.9-7.9
	C171.1,419.3,167.5,415.8,163.2,415.8L163.2,415.8z"/>
<path class="st0" d="M194.7,384.2h-63.2c-4.4,0-7.9,3.5-7.9,7.9c0,4.4,3.5,7.9,7.9,7.9h63.2c4.4,0,7.9-3.5,7.9-7.9
	C202.6,387.7,199.1,384.2,194.7,384.2L194.7,384.2z"/>
<path class="st0" d="M186.8,360.5c0-4.4-3.5-7.9-7.9-7.9h-47.4c-4.4,0-7.9,3.5-7.9,7.9c0,4.4,3.5,7.9,7.9,7.9H179
	C183.3,368.4,186.8,364.9,186.8,360.5L186.8,360.5z"/>
<path class="st1" d="M186.8,360.5"/>
<path class="st2" d="M226.3,321H115.8c-4.4,0-7.9,3.5-7.9,7.9c0,4.4,3.5,7.9,7.9,7.9h110.5c4.4,0,7.9-3.5,7.9-7.9
	C234.2,324.6,230.7,321,226.3,321L226.3,321z"/>
<path class="st2" d="M257.9,289.5H131.6c-4.4,0-7.9,3.5-7.9,7.9c0,4.4,3.5,7.9,7.9,7.9h126.3c4.4,0,7.9-3.5,7.9-7.9
	C265.8,293,262.3,289.5,257.9,289.5L257.9,289.5z"/>
<path class="st2" d="M289.5,257.9H163.2c-4.4,0-7.9,3.5-7.9,7.9c0,4.4,3.5,7.9,7.9,7.9h126.3c4.4,0,7.9-3.5,7.9-7.9
	C297.4,261.4,293.8,257.9,289.5,257.9L289.5,257.9z"/>
<path class="st3" d="M289.5,257.9"/>
<path class="st4" d="M336.8,226.3H115.8c-4.4,0-7.9,3.5-7.9,7.9c0,4.4,3.5,7.9,7.9,7.9h221.1c4.4,0,7.9-3.5,7.9-7.9
	C344.7,229.8,341.2,226.3,336.8,226.3L336.8,226.3z"/>
<path class="st4" d="M84.2,210.5h221c4.4,0,7.9-3.5,7.9-7.9c0-4.4-3.5-7.9-7.9-7.9h-221c-4.4,0-7.9,3.5-7.9,7.9
	C76.3,207,79.9,210.5,84.2,210.5L84.2,210.5z"/>
<path class="st4" d="M336.8,163.2H115.8c-4.4,0-7.9,3.5-7.9,7.9c0,4.4,3.5,7.9,7.9,7.9h221.1c4.4,0,7.9-3.5,7.9-7.9
	C344.7,166.7,341.2,163.2,336.8,163.2L336.8,163.2z"/>
<path class="st5" d="M336.8,163.2"/>
<path class="st6" d="M384.2,147.4c4.4,0,7.9-3.5,7.9-7.9c0-4.4-3.5-7.9-7.9-7.9H131.6c-4.4,0-7.9,3.5-7.9,7.9c0,4.4,3.5,7.9,7.9,7.9
	H384.2z"/>
<path class="st6" d="M305.3,100H100c-4.4,0-7.9,3.5-7.9,7.9c0,4.4,3.5,7.9,7.9,7.9h205.3c4.4,0,7.9-3.5,7.9-7.9
	C313.2,103.5,309.6,100,305.3,100L305.3,100z"/>
<path class="st6" d="M431.6,68.4H68.4c-4.4,0-7.9,3.5-7.9,7.9c0,4.4,3.5,7.9,7.9,7.9h363.2c4.4,0,7.9-3.5,7.9-7.9
	C439.5,72,435.9,68.4,431.6,68.4L431.6,68.4z"/>
<path class="st7" d="M431.6,68.4"/>
</svg>
