<?xml version="1.0" encoding="utf-8"?>
<!-- Generator: Adobe Illustrator 26.0.3, SVG Export Plug-In . SVG Version: 6.00 Build 0)  -->
<svg version="1.1" id="图层_1" xmlns="http://www.w3.org/2000/svg" xmlns:xlink="http://www.w3.org/1999/xlink" x="0px" y="0px"
	 viewBox="0 0 500 500" style="enable-background:new 0 0 500 500;" xml:space="preserve">
<style type="text/css">
	.st0{fill:#E3E3E3;}
	.st1{fill:#F6F6F6;}
	.st2{fill:#4FC0F2;}
</style>
<path class="st0" d="M398.6,160.1c-0.1,0-0.3,0-0.4,0c-4.3-46.3-43.2-82.6-90.6-82.6c-50.3,0-91,40.8-91,91
	c0,48.6,38.1,88.3,86.1,90.9v0.1h96c27.5,0,49.8-22.3,49.8-49.8S426.1,160.1,398.6,160.1z"/>
<path class="st1" d="M342.3,185.6c-14.7-50.1-60.9-86.7-115.7-86.7c-65.8,0-119.3,52.8-120.5,118.3c-30.6,3.6-54.4,29.6-54.4,61.2
	c0,34.1,27.6,61.7,61.7,61.7h219.8c42.8,0,77.6-34.7,77.6-77.6C410.7,222.9,380.8,190.1,342.3,185.6z"/>
<path class="st2" d="M296.3,323.2h-30.5l15.3-26.4c4.7-8.1,1.9-18.5-6.2-23.2c-8.1-4.6-18.5-1.9-23.2,6.2l-15.3,26.4l-15.3-26.4
	c-5.2-7.8-15.8-9.9-23.6-4.7c-7.1,4.7-9.6,14-5.8,21.7l15.3,26.4h-30.5c-9.4,0-17,7.6-17,16.9c0,9.4,7.6,17,16.9,17c0,0,0,0,0,0H207
	l-15.3,26.4c-4.7,8.2-1.8,18.5,6.3,23.2c2.6,1.5,5.4,2.2,8.4,2.3c6.1,0,11.7-3.2,14.7-8.5l15.3-26.4l15.3,26.4
	c4.7,8.1,15.1,10.9,23.2,6.2c0,0,0,0,0,0c8.1-4.7,10.9-15.1,6.2-23.2l-15.3-26.4h30.5c9.4,0,17-7.6,16.9-17
	C313.2,330.7,305.6,323.2,296.3,323.2z"/>
<path class="st2" d="M131.8,344.8h-15.3l7.6-13.2c2.3-4.1,0.9-9.2-3.1-11.6c-4.1-2.3-9.2-0.9-11.6,3.1l-7.6,13.2l-7.6-13.2
	c-2.6-3.9-7.9-5-11.8-2.3c-3.5,2.4-4.8,7-2.9,10.8l7.6,13.2H71.9c-4.7,0-8.5,3.8-8.5,8.5c0,4.7,3.8,8.5,8.5,8.5c0,0,0,0,0,0h15.3
	L79.5,375c-2.3,4.1-0.9,9.3,3.2,11.6c1.3,0.7,2.7,1.1,4.2,1.1c3,0,5.8-1.6,7.4-4.2l7.6-13.2l7.6,13.2c2.3,4.1,7.5,5.4,11.6,3.1
	c0,0,0,0,0,0c4-2.4,5.4-7.5,3.1-11.6l-7.6-13.2h15.3c4.7,0,8.5-3.8,8.5-8.5C140.3,348.6,136.5,344.8,131.8,344.8z"/>
<path class="st2" d="M400.8,350.7h-15.3l7.6-13.2c2.3-4.1,0.9-9.2-3.1-11.6c-4.1-2.3-9.2-0.9-11.6,3.1l-7.6,13.2l-7.6-13.2
	c-2.6-3.9-7.9-5-11.8-2.3c-3.5,2.4-4.8,7-2.9,10.8l7.6,13.2h-15.3c-4.7,0-8.5,3.8-8.5,8.5s3.8,8.5,8.5,8.5c0,0,0,0,0,0h15.3
	l-7.6,13.2c-2.3,4.1-0.9,9.3,3.2,11.6c1.3,0.7,2.7,1.1,4.2,1.1c3,0,5.8-1.6,7.4-4.2l7.6-13.2l7.6,13.2c2.3,4.1,7.5,5.4,11.6,3.1
	c0,0,0,0,0,0c4-2.4,5.4-7.5,3.1-11.6l-7.6-13.2h15.3c4.7,0,8.5-3.8,8.5-8.5C409.3,354.5,405.5,350.7,400.8,350.7z"/>
<path class="st2" d="M183.3,413.7h-15.3l7.6-13.2c2.3-4.1,0.9-9.2-3.1-11.6c-4.1-2.3-9.2-0.9-11.6,3.1l-7.6,13.2l-7.6-13.2
	c-2.6-3.9-7.9-5-11.8-2.3c-3.5,2.4-4.8,7-2.9,10.8l7.6,13.2h-15.3c-4.7,0-8.5,3.8-8.5,8.5c0,4.7,3.8,8.5,8.5,8.5c0,0,0,0,0,0h15.3
	l-7.6,13.2c-2.3,4.1-0.9,9.3,3.2,11.6c1.3,0.7,2.7,1.1,4.2,1.1c3,0,5.8-1.6,7.4-4.2l7.6-13.2l7.6,13.2c2.3,4.1,7.5,5.4,11.6,3.1
	c0,0,0,0,0,0c4-2.4,5.4-7.5,3.1-11.6l-7.6-13.2h15.3c4.7,0,8.5-3.8,8.5-8.5C191.8,417.5,188,413.7,183.3,413.7z"/>
<path class="st2" d="M350.6,413.7h-15.3l7.6-13.2c2.3-4.1,0.9-9.2-3.1-11.6c-4.1-2.3-9.2-0.9-11.6,3.1l-7.6,13.2l-7.6-13.2
	c-2.6-3.9-7.9-5-11.8-2.3c-3.5,2.4-4.8,7-2.9,10.8l7.6,13.2h-15.3c-4.7,0-8.5,3.8-8.5,8.5c0,4.7,3.8,8.5,8.5,8.5c0,0,0,0,0,0H306
	l-7.6,13.2c-2.3,4.1-0.9,9.3,3.2,11.6c1.3,0.7,2.7,1.1,4.2,1.1c3,0,5.8-1.6,7.4-4.2l7.6-13.2l7.6,13.2c2.3,4.1,7.5,5.4,11.6,3.1
	c0,0,0,0,0,0c4-2.4,5.4-7.5,3.1-11.6l-7.6-13.2h15.3c4.7,0,8.5-3.8,8.5-8.5S355.3,413.7,350.6,413.7z"/>
</svg>
