<?xml version="1.0" encoding="utf-8"?>
<!-- Generator: Adobe Illustrator 26.0.3, SVG Export Plug-In . SVG Version: 6.00 Build 0)  -->
<svg version="1.1" id="图层_1" xmlns="http://www.w3.org/2000/svg" xmlns:xlink="http://www.w3.org/1999/xlink" x="0px" y="0px"
	 viewBox="0 0 500 500" style="enable-background:new 0 0 500 500;" xml:space="preserve">
<style type="text/css">
	.st0{fill:#3FA9F5;}
	.st1{fill:#62BEE2;}
</style>
<path class="st0" d="M133.7,240.6h79.9l-39.9,69.1c-5.5,10.3-1.5,23.1,8.8,28.6c9.8,5.2,21.9,1.9,27.8-7.4l39.9-69.1l39.9,69.1
	c5.8,10.1,18.7,13.5,28.8,7.7c10.1-5.8,13.6-18.7,7.8-28.9l-40-69.1h79.9c11.7,0,21.1-9.5,21.1-21.1c0-11.7-9.5-21.1-21.1-21.1
	h-79.8l39.9-69.1c5.7-10.2,2-23.1-8.2-28.8c-10-5.6-22.6-2.2-28.5,7.6l-39.9,69.1l-39.9-69.1c-6.2-9.9-19.3-12.8-29.2-6.6
	c-9.4,5.9-12.6,18-7.4,27.8l39.9,69.1h-79.9c-11.7,0-21.1,9.4-21.1,21.1C112.6,231.1,122,240.6,133.7,240.6
	C133.7,240.6,133.7,240.6,133.7,240.6z"/>
<path class="st1" d="M440.3,250L440.3,250c-11.4,0-20.8,9.3-20.8,20.8v108.2h-339V270.8c0-11.4-9.3-20.8-20.8-20.8h0
	c-11.4,0-20.8,9.3-20.8,20.8v128.9v0c0,5.7,2.3,10.9,6.1,14.7c0.5,0.5,1,0.9,1.5,1.3c1,0.8,2.1,1.6,3.3,2.2c1.8,1,3.7,1.7,5.7,2.1
	c1.3,0.3,2.7,0.4,4.2,0.4h0h380.5h0c1.4,0,2.8-0.1,4.2-0.4c2-0.4,3.9-1.1,5.7-2.1c1.2-0.6,2.3-1.4,3.3-2.2c0.5-0.4,1-0.9,1.5-1.3
	c3.8-3.8,6.1-9,6.1-14.7v0V270.8C461,259.3,451.7,250,440.3,250z"/>
</svg>
