<?xml version="1.0" encoding="utf-8"?>
<!-- Generator: Adobe Illustrator 26.0.3, SVG Export Plug-In . SVG Version: 6.00 Build 0)  -->
<svg version="1.1" id="图层_1" xmlns="http://www.w3.org/2000/svg" xmlns:xlink="http://www.w3.org/1999/xlink" x="0px" y="0px"
	 viewBox="0 0 500 500" style="enable-background:new 0 0 500 500;" xml:space="preserve">
<style type="text/css">
	.st0{fill:#8CC5FF;}
	.st1{fill:#409EFF;}
	.st2{fill:#F15A24;}
</style>
<path class="st0" d="M259.6,203.1c-10.6-1.4-20.3,6-21.7,16.6c-1.3,9.6,4.8,18.7,14.1,21.2c3.2,0.6,21.6,4.1,43.3,4.1
	c15.2,0,32-1.7,46.4-7.3c46.1-18,76.3,0.3,77.3,1c9.2,5.3,21,2.2,26.3-7c4.9-8.5,2.7-19.3-5.1-25.1c-1.9-1.3-47.1-30.3-112.5-4.8
	C307,209.8,271.5,205.4,259.6,203.1z"/>
<path class="st1" d="M440.2,286.2c-1.9-1.3-47.1-30.4-112.5-4.8c-20.7,8-56.2,3.6-68.2,1.3c-10.5-1.5-20.3,5.8-21.8,16.3
	c-1.4,9.7,4.8,18.9,14.3,21.4c3.2,0.7,21.6,4.1,43.3,4.1c15.2,0,32-1.7,46.4-7.3c46.1-18,76.3,0.3,77.3,1c8.9,5.9,20.8,3.4,26.7-5.4
	C451.5,304,449.1,292,440.2,286.2C440.2,286.2,440.2,286.2,440.2,286.2z"/>
<path class="st2" d="M412.7,356.3c-9.7,5.3-13.2,17.5-7.8,27.2c0,0,0,0,0,0c1.2,2.1,1.1,4.7-0.1,6.7c-0.9,1.6-2.2,2.4-3.8,2.4H95.9
	c-1.6,0-2.8-0.8-3.8-2.4c-1.2-2-1.3-4.5-0.1-6.6l152.6-273.8c1.9-3.4,5.8-3.4,7.7,0l14.7,26.7c5.3,9.7,17.5,13.2,27.2,7.9
	c9.7-5.3,13.2-17.5,7.9-27.2l-14.7-26.6c-8-14.6-22.6-23.3-39-23.3s-30.9,8.7-38.9,23.3L57,364.2c-8,14.5-7.8,32.2,0.6,46.5
	c8.2,13.9,22.5,22.1,38.3,22.1H401c15.8,0,30.1-8.3,38.3-22.1c8.4-14.3,8.6-32,0.6-46.5C434.6,354.5,422.4,351,412.7,356.3
	C412.7,356.3,412.7,356.3,412.7,356.3z"/>
</svg>
