<?xml version="1.0" encoding="utf-8"?>
<!-- Generator: Adobe Illustrator 26.0.3, SVG Export Plug-In . SVG Version: 6.00 Build 0)  -->
<svg version="1.1" id="图层_1" xmlns="http://www.w3.org/2000/svg" xmlns:xlink="http://www.w3.org/1999/xlink" x="0px" y="0px"
	 viewBox="0 0 500 500" style="enable-background:new 0 0 500 500;" xml:space="preserve">
<style type="text/css">
	.st0{fill:#FF7B15;}
	.st1{fill:#FB9B3B;}
	.st2{fill:#F15A24;}
	.st3{fill:#F7931E;}
	.st4{fill:#1088E2;}
	.st5{fill:#0391FF;}
	.st6{fill:#0396FF;}
	.st7{fill:#3FA9F5;}
	.st8{fill:#ABDCFF;}
</style>
<path class="st0" d="M401.6,324c-9.4,4.1-15.6,10.7-19.2,17.8c-2.8,5.4-10.9,4.8-12.6-1.1c-4.8-15.7-4.2-32.8-1.2-53.7
	c0.8-5.3-4.6-9.4-9.6-7.3c-31.6,14-39.3,45-42.1,68.8c-0.9,7.9-12.3,8.1-13.6,0.4c-0.2-1.7-0.5-3.3-0.7-4.8c-0.7-5.7-7.7-8-11.7-4
	c-9.3,9.2-15,23.7-16.4,36.3c-4.6,41.4,25.5,75.4,65.7,79.8c40.1,4.4,75.2-22.3,79.8-63.8c2.5-22.3-10.4-32.6-8.4-61.5
	C411.7,325.6,406.4,322,401.6,324z"/>
<path class="st1" d="M365.1,401.8c-2.9,1.3-4.8,3.4-6.1,5.5c-1.1,1.9-3.9,1.7-4.6-0.5c-1.5-5.1-1.3-10.6-0.4-17.3
	c0.2-1.9-1.7-3.4-3.4-2.6c-9.9,4.6-12.7,14.2-13.7,21.9c-0.4,2.8-4.5,2.8-4.8,0v-0.1c-0.2-2-2.8-2.8-4.2-1.4
	c-2.9,3.1-4.8,7.8-5.3,11.9c-1.5,13.9,8.6,25.3,22.1,26.8s25.3-7.6,26.8-21.5c0.8-7.4-3.4-10.9-2.8-20.4
	C368.6,402.4,366.7,401.1,365.1,401.8z"/>
<g>
	<path class="st2" d="M199.2,49.9L74.1,444c0.4,0.1,0.7,0.3,1.1,0.4h0c11.4,3.6,23.5-2.7,27.1-14.1L219.8,56.4L199.2,49.9z"/>
	<path class="st3" d="M178.6,43.4L61,417.3c-3.5,11,2.3,22.7,13,26.7L199.2,49.9L178.6,43.4z"/>
	<polygon class="st4" points="219.4,56.6 141.1,305.4 198.6,276.2 263.1,71.5 	"/>
	<polygon class="st5" points="263.1,71.5 198.6,276.2 258,246 308.2,86.9 	"/>
	<polygon class="st6" points="308.2,86.9 258,246 318.1,215.5 353.8,102.4 	"/>
	<polygon class="st7" points="353.8,102.4 318.1,215.5 389.6,179.2 408,120.8 	"/>
	<path class="st8" d="M428.8,127.9l-20.8-7.1l-18.4,58.4l41.3-21C444,151.6,442.6,132.6,428.8,127.9z"/>
</g>
</svg>
