<?xml version="1.0" encoding="utf-8"?>
<!-- Generator: Adobe Illustrator 26.0.3, SVG Export Plug-In . SVG Version: 6.00 Build 0)  -->
<svg version="1.1" id="图层_1" xmlns="http://www.w3.org/2000/svg" xmlns:xlink="http://www.w3.org/1999/xlink" x="0px" y="0px"
	 viewBox="0 0 500 500" style="enable-background:new 0 0 500 500;" xml:space="preserve">
<style type="text/css">
	.st0{fill:#4FC0F2;}
	.st1{fill:#E3E3E3;}
	.st2{fill:#F6F6F6;}
</style>
<polygon class="st0" points="57.6,363.6 94.8,441.9 133.5,363.6 94.8,322 "/>
<polygon class="st0" points="159.5,363.6 196.7,441.9 235.4,363.6 196.7,322 "/>
<polygon class="st0" points="261.4,363.6 298.6,441.9 337.2,363.6 298.6,322 "/>
<polygon class="st0" points="363.3,363.6 400.4,441.9 439.1,363.6 400.4,322 "/>
<path class="st1" d="M71,191c0.1,0,0.3,0,0.4,0c4.3-46.8,43.7-83.4,91.6-83.4c50.8,0,92,41.2,92,92c0,49.1-38.5,89.3-87,91.9v0.1H71
	c-27.8,0-50.3-22.5-50.3-50.3S43.2,191,71,191z"/>
<path class="st1" d="M429,191c-0.1,0-0.3,0-0.4,0c-4.3-46.8-43.7-83.4-91.6-83.4c-50.8,0-92,41.2-92,92c0,49.1,38.5,89.3,87,91.9
	v0.1h97c27.8,0,50.3-22.5,50.3-50.3S456.8,191,429,191z"/>
<path class="st2" d="M358.1,145.7c-14.8-50.6-61.6-87.6-117-87.6c-66.5,0-120.6,53.3-121.8,119.6c-31,3.6-55,29.9-55,61.9
	c0,34.4,27.9,62.3,62.3,62.3h222.2c43.3,0,78.4-35.1,78.4-78.4C427.2,183.4,397,150.3,358.1,145.7z"/>
</svg>
