<?xml version="1.0" encoding="utf-8"?>
<!-- Generator: Adobe Illustrator 26.0.3, SVG Export Plug-In . SVG Version: 6.00 Build 0)  -->
<svg version="1.1" xmlns="http://www.w3.org/2000/svg" xmlns:xlink="http://www.w3.org/1999/xlink" x="0px" y="0px"
	 viewBox="0 0 500 500" style="enable-background:new 0 0 500 500;" xml:space="preserve">
<style type="text/css">
	.st0{fill:#F15A24;}
	.st1{fill:#F7931E;}
	.st2{fill:#1088E2;}
	.st3{fill:#0391FF;}
	.st4{fill:#0396FF;}
	.st5{fill:#3FA9F5;}
	.st6{fill:#ABDCFF;}
</style>
<g>
	<path class="st0" d="M184.7,30.4l-134,422c0.4,0.1,0.8,0.3,1.2,0.4h0c12.2,3.8,25.1-2.9,29-15.1L206.8,37.4L184.7,30.4z"/>
	<path class="st1" d="M162.7,23.5L36.8,423.8c-3.7,11.8,2.5,24.3,14,28.6l134-422L162.7,23.5z"/>
	<polygon class="st2" points="206.4,37.7 122.6,304 184.1,272.8 253.2,53.6 	"/>
	<polygon class="st3" points="253.2,53.6 184.1,272.8 247.7,240.5 301.5,70 	"/>
	<polygon class="st4" points="301.5,70 247.7,240.5 312,207.8 350.2,86.6 	"/>
	<polygon class="st5" points="350.2,86.6 312,207.8 388.6,168.9 408.3,106.4 	"/>
	<path class="st6" d="M430.6,114l-22.2-7.6l-19.7,62.5l44.2-22.5C446.8,139.4,445.4,119,430.6,114z"/>
</g>
<path class="st5" d="M345,267.5c-31.3-3.8-49.8-0.5-57.7,3.3c-15.7,6-24,15.3-24,28.7c0,14.8,17.1,26.9,38.2,26.9
	c2.2,0,4.3-0.1,6.4-0.4c-11.1-2.6-15.1-13.6-15.1-17.1c0-8.2,4.9-16.5,19.2-18.9c0,0,11.5-2.9,32.5,1.5
	c29.7,8.6,38.4,18.9,46.4,34.6c10,24.9,1.5,58-14.5,76.8c-30.5,35.9-106.1,47.5-106.1,47.5c76.7-14.5,111-48.5,117.8-92.6
	c4.4-58.4-67-72.2-78.1-36.1c9.9-6.7,20.7-5.3,31.6-1.8c24.9,13.2,21.4,34.1,19.1,45.6c-5.1,25.9-24.9,51-54.1,66.3
	c-30.6,13.3-71,19.4-84.5,21.8h82.4c6.8-0.3,36.3-1.8,52.1-6.3c43.1-12.4,85.7-41.9,85.7-89.7C442.5,309.7,394.5,273.5,345,267.5
	L345,267.5z"/>
<path class="st6" d="M262.9,434.1c-9,5.5-39.8,16-39.8,16s28.5-2,51.7-9.7c20.8-6.9,30.5-14,40.3-25.1c8.8-10,17.3-40.8-14-55.5
	c-18.2-8.5-43.6-8.7-54,1.7c-12.4,12.3-2.8,23.1-2.8,23.1s3.7-9.9,15.9-11.5c3.3-0.5,15.9,0.1,22.5,4.7c5,3.5,12.9,9.7,8.4,25.5
	C287.6,415.2,278.7,424.5,262.9,434.1L262.9,434.1z"/>
</svg>
