<?xml version="1.0" encoding="utf-8"?>
<!-- Generator: Adobe Illustrator 26.0.3, SVG Export Plug-In . SVG Version: 6.00 Build 0)  -->
<svg version="1.1" id="图层_1" xmlns="http://www.w3.org/2000/svg" xmlns:xlink="http://www.w3.org/1999/xlink" x="0px" y="0px"
	 viewBox="0 0 500 500" style="enable-background:new 0 0 500 500;" xml:space="preserve">
<style type="text/css">
	.st0{fill:#4FC0F2;}
	.st1{fill:#7FC6F2;}
</style>
<path class="st0" d="M170.2,275.4c-8.3,5.2-10.8,16.2-5.6,24.5c5,7.9,15.1,10.6,23.3,6.2l44-25.4v50.8c0,9.8,7.9,17.8,17.7,17.8
	c9.8,0,17.8-7.9,17.8-17.7c0,0,0,0,0,0v-50.8l44,25.4c8.7,4.6,19.4,1.3,24-7.4c4.3-8.2,1.6-18.4-6.2-23.3l-44-25.4l44-25.4
	c8.5-4.9,11.4-15.8,6.5-24.2c-4.9-8.5-15.8-11.4-24.3-6.5l-44,25.4v-50.8c0-9.8-7.9-17.7-17.7-17.7c-9.8,0-17.7,7.9-17.7,17.7v50.8
	l-44-25.4c-8.7-4.6-19.4-1.3-24,7.4c-4.3,8.2-1.6,18.4,6.2,23.3l44,25.4L170.2,275.4z"/>
<path class="st1" d="M418.6,142.1L258.9,49.6c-5.5-3.2-12.3-3.2-17.8,0L81.4,142.1c-5.5,3.2-8.9,9.1-8.9,15.4v185
	c0,6.4,3.4,12.2,8.9,15.4l159.7,92.5c5.5,3.2,12.3,3.2,17.8,0l159.7-92.5c5.5-3.2,8.9-9.1,8.9-15.4v-185
	C427.5,151.1,424.1,145.3,418.6,142.1z M391.9,332.2L250,414.4l-141.9-82.2V167.8L250,85.6l141.9,82.2V332.2z"/>
</svg>
