<?xml version="1.0" encoding="utf-8"?>
<!-- Generator: Adobe Illustrator 26.0.3, SVG Export Plug-In . SVG Version: 6.00 Build 0)  -->
<svg version="1.1" id="图层_1" xmlns="http://www.w3.org/2000/svg" xmlns:xlink="http://www.w3.org/1999/xlink" x="0px" y="0px"
	 viewBox="0 0 500 500" style="enable-background:new 0 0 500 500;" xml:space="preserve">
<style type="text/css">
	.st0{fill:#E3E3E3;}
	.st1{fill:#F6F6F6;}
	.st2{fill:#4FC0F2;}
</style>
<g>
	<path class="st0" d="M412.5,173.2c-0.1,0-0.3,0-0.5,0c-4.7-50.5-47.1-90.1-98.9-90.1c-54.9,0-99.3,44.5-99.3,99.3
		c0,53,41.6,96.4,94,99.2v0.1h104.7c29.9,0,54.3-24.3,54.3-54.3S442.4,173.2,412.5,173.2z"/>
	<path class="st1" d="M351.1,201c-16-54.6-66.4-94.5-126.3-94.5c-71.8,0-130.2,57.6-131.6,129c-33.4,3.9-59.3,32.3-59.3,66.9
		c0,37.1,30.2,67.3,67.3,67.3H341c46.7,0,84.6-37.8,84.6-84.6C425.6,241.7,393,205.9,351.1,201z"/>
</g>
<g>
	<g>
		<path class="st2" d="M160.8,276.2c-3,0-5.9-3-5.9-5.9c3-32.6,25.2-59.3,56.3-66.7c31.1-7.4,63.7,5.9,80,34.1v-11.9
			c0-1.5,1.5-3,3-4.4c1.5-1.5,3-1.5,5.9,0c1.5,1.5,3,3,3,4.4v26.7c0,3-3,5.9-5.9,5.9h-26.7c-3,0-5.9-3-5.9-5.9c0-3,3-5.9,5.9-5.9
			h14.8c-11.9-23.7-40-38.5-68.2-32.6c-28.2,5.9-48.9,29.6-50.4,57.8C166.8,274.8,163.8,276.2,160.8,276.2L160.8,276.2z
			 M230.5,350.3c-14.8,0-28.2-4.4-41.5-11.9c-8.9-5.9-16.3-14.8-22.2-23.7v11.9c0,3-3,4.4-5.9,4.4c-3,0-4.4-1.5-4.4-4.4v-26.7
			c0-3,3-5.9,5.9-5.9H189c3,0,5.9,3,5.9,5.9c0,3-3,5.9-5.9,5.9h-14.8c13.3,25.2,41.5,38.5,69.7,34.1c28.2-4.4,48.9-29.6,50.4-57.8
			c0-3,3-4.4,5.9-4.4c3,0,4.4,3,4.4,5.9C301.6,320.7,269,350.3,230.5,350.3L230.5,350.3z M230.5,350.3"/>
		<path class="st2" d="M230.5,353.3c-14.8,0-29.6-4.4-43-13.3c-7.4-4.4-13.3-10.4-17.8-16.3v3c0,4.4-3,7.4-8.9,7.4
			c-5.9,0-7.4-3-7.4-7.4v-26.7c0-4.4,3-8.9,8.9-8.9H189c4.4,0,8.9,3,8.9,8.9c0,4.4-3,8.9-8.9,8.9h-10.4
			c13.3,20.7,38.5,32.6,63.7,28.2c26.7-5.9,45.9-28.2,48.9-54.8c0-4.4,4.4-7.4,7.4-7.4c4.4,0,8.9,4.4,8.9,8.9
			C303.1,322.2,270.5,353.3,230.5,353.3L230.5,353.3z M163.8,304.4l5.9,8.9c5.9,8.9,13.3,16.3,22.2,22.2
			c11.9,7.4,25.2,11.9,38.5,11.9c37,0,68.2-29.6,71.1-65.2c0-1.5-1.5-3-1.5-3c-1.5,0-3,1.5-3,1.5c-3,29.6-23.7,54.8-53.3,60.8
			c-29.6,5.9-59.3-8.9-72.6-35.6l-1.5-4.4H189c1.5,0,3-1.5,3-3s-1.5-3-3-3h-28.2c-1.5,3-1.5,4.4-1.5,4.4v26.7c0,1.5,1.5,1.5,3,1.5
			c1.5,0,3-1.5,3-3v-20.7H163.8z M160.8,279.2c-4.4,0-8.9-4.4-8.9-8.9c3-34.1,26.7-62.2,59.3-69.6c29.6-7.4,59.3,4.4,78.5,28.2v-3
			c0-3,1.5-5.9,4.4-7.4c3-1.5,5.9-1.5,8.9,0c3,3,4.4,4.4,4.4,7.4v26.7c0,4.4-3,8.9-8.9,8.9H272c-4.4,0-8.9-3-8.9-8.9
			c0-5.9,3-8.9,8.9-8.9h8.9c-11.9-20.7-38.5-31.1-62.2-26.7c-26.7,5.9-47.4,28.2-48.9,54.8C169.7,276.2,165.3,279.2,160.8,279.2
			L160.8,279.2z M230.5,205.1c-5.9,0-10.4,0-16.3,1.5c-29.6,7.4-51.9,32.6-54.8,63.7c0,1.5,1.5,3,1.5,3v3v-3c1.5,0,1.5-1.5,3-1.5
			c3-29.6,23.7-54.8,53.3-60.8c29.6-5.9,59.3,8.9,72.6,35.6l1.5,4.4H272c-1.5,0-3,1.5-3,3c0,1.5,1.5,3,3,3h26.7c1.5,0,3-1.5,3-3
			v-28.2c0-1.5,0-1.5-1.5-1.5h-3l-1.5,1.5v23.7l-5.9-8.9C277.9,218.4,254.2,205.1,230.5,205.1L230.5,205.1z M230.5,205.1"/>
	</g>
</g>
</svg>
