<?xml version="1.0" encoding="utf-8"?>
<!-- Generator: Adobe Illustrator 26.0.3, SVG Export Plug-In . SVG Version: 6.00 Build 0)  -->
<svg version="1.1" id="图层_1" xmlns="http://www.w3.org/2000/svg" xmlns:xlink="http://www.w3.org/1999/xlink" x="0px" y="0px"
	 viewBox="0 0 500 500" style="enable-background:new 0 0 500 500;" xml:space="preserve">
<style type="text/css">
	.st0{fill:#E3E3E3;}
	.st1{fill:#F6F6F6;}
	.st2{fill:#4FC0F2;}
	.st3{fill:#FFFFFF;}
</style>
<g>
	<path class="st0" d="M412.5,173.2c-0.1,0-0.3,0-0.5,0c-4.7-50.5-47.1-90.1-98.9-90.1c-54.9,0-99.3,44.5-99.3,99.3
		c0,53,41.6,96.4,94,99.2v0.1h104.7c29.9,0,54.3-24.3,54.3-54.3S442.4,173.2,412.5,173.2z"/>
	<path class="st1" d="M351.1,201c-16-54.6-66.4-94.5-126.3-94.5c-71.8,0-130.2,57.6-131.6,129c-33.4,3.9-59.3,32.3-59.3,66.9
		c0,37.1,30.2,67.3,67.3,67.3H341c46.7,0,84.6-37.8,84.6-84.6C425.6,241.7,393,205.9,351.1,201z"/>
</g>
<path class="st2" d="M353.6,358.7c0-9.7-2.5-18.5-7.2-26.2c1.4-2.2,1.9-5,1.9-7.7c0-9.1-7.2-16.3-16.3-16.3c-3.3,0-6.3,1.1-8.8,2.8
	c-6.9-3.3-14.3-5-22.3-5c-29.2,0-52.7,23.7-52.7,52.7c-0.3,29,23.4,52.4,52.4,52.4c3.9,0,7.4-0.3,11-1.1c4.4,4.7,10.5,7.4,17.4,7.4
	c13.5,0,24.3-10.8,24.3-24.3c0-5.2-1.7-9.9-4.4-13.8C351.9,373.4,353.6,366.2,353.6,358.7L353.6,358.7z"/>
<path class="st3" d="M331.1,394c-4,0-7.1-3.4-7.1-7.1c0-1,1-2,2-2c1,0,2,1,2,2c0,1.7,1.3,3,3,3c1.7,0,3-1.3,3-3c0-1.7-1.3-3-3-3
	c-1,0-2-1-2-2c0-1,1-2,2-2c1.7,0,3-1.3,3-3c0-1.7-1.3-3-3-3c-1.7,0-3,1.3-3,3c0,1-1,2-2,2c-1,0-2-1-2-2c0-4,3.4-7.1,7.1-7.1
	c3.7,0,7.1,3.4,7.1,7.1c0,2-0.7,3.7-2,5c1.3,1.3,2,3,2,5C338.2,391,335.1,394,331.1,394L331.1,394z"/>
<path class="st3" d="M300.9,342.2c-11,0-19.8,8.9-19.8,19.8s8.9,19.8,19.8,19.8s19.8-8.9,19.8-19.8S311.8,342.2,300.9,342.2z
	 M300.9,372.8c-5.9,0-10.7-4.8-10.7-10.7s4.8-10.7,10.7-10.7s10.7,4.8,10.7,10.7S306.8,372.8,300.9,372.8z"/>
</svg>
