<?xml version="1.0" encoding="utf-8"?>
<!-- Generator: Adobe Illustrator 26.0.3, SVG Export Plug-In . SVG Version: 6.00 Build 0)  -->
<svg version="1.1" id="图层_1" xmlns="http://www.w3.org/2000/svg" xmlns:xlink="http://www.w3.org/1999/xlink" x="0px" y="0px"
	 viewBox="0 0 500 500" style="enable-background:new 0 0 500 500;" xml:space="preserve">
<style type="text/css">
	.st0{fill:#E3E3E3;}
	.st1{fill:#F6F6F6;}
	.st2{fill-rule:evenodd;clip-rule:evenodd;fill:#F7AD44;}
</style>
<path class="st0" d="M72.1,199.9c0.1,0,0.3,0,0.4,0c4.3-46.8,43.7-83.4,91.6-83.4c50.8,0,92,41.2,92,92c0,49.1-38.5,89.3-87,91.9
	v0.1h-97c-27.8,0-50.3-22.5-50.3-50.3S44.3,199.9,72.1,199.9z"/>
<path class="st0" d="M430.1,199.9c-0.1,0-0.3,0-0.4,0c-4.3-46.8-43.7-83.4-91.6-83.4c-50.8,0-92,41.2-92,92
	c0,49.1,38.5,89.3,87,91.9v0.1h97c27.8,0,50.3-22.5,50.3-50.3S457.9,199.9,430.1,199.9z"/>
<path class="st1" d="M359.2,154.6c-14.8-50.6-61.6-87.6-117-87.6c-66.5,0-120.6,53.3-121.8,119.6c-31,3.6-55,30-55,61.9
	c0,34.4,27.9,62.3,62.3,62.3h222.2c43.3,0,78.4-35.1,78.4-78.4C428.3,192.3,398.1,159.2,359.2,154.6z"/>
<polygon class="st2" points="245.3,293.6 313.6,293.6 211.1,432.4 211.1,339.7 152.4,339.7 278.8,168.6 "/>
<polygon class="st2" points="102.5,331.4 139,331.4 84.2,405.5 84.2,356 52.9,356 120.4,264.7 "/>
<polygon class="st2" points="376.6,338.1 413.1,338.1 358.4,412.2 358.4,362.7 327.1,362.7 394.5,271.4 "/>
</svg>
