<?xml version="1.0" encoding="utf-8"?>
<!-- Generator: Adobe Illustrator 26.0.3, SVG Export Plug-In . SVG Version: 6.00 Build 0)  -->
<svg version="1.1" xmlns="http://www.w3.org/2000/svg" xmlns:xlink="http://www.w3.org/1999/xlink" x="0px" y="0px"
	 viewBox="0 0 500 500" style="enable-background:new 0 0 500 500;" xml:space="preserve">
<style type="text/css">
	.st0{fill:#FBB03B;}
	.st1{fill:#79BBFF;}
	.st2{fill:#F15A24;}
	.st3{fill:#409EFF;}
	.st4{fill:#8CC5FF;}
</style>
<path class="st0" d="M134.2,118.1h-1.8c-6.6,0-12-5.4-12-12V76.6c0-6.6,5.4-12,12-12h1.8c6.6,0,12,5.4,12,12v29.5
	C146.2,112.7,140.8,118.1,134.2,118.1z"/>
<path class="st0" d="M362,118.1L362,118.1c-7.6,0-13.8-6.2-13.8-13.8V76.6c0-6.6,5.4-12,12-12h0c7.6,0,13.8,6.2,13.8,13.8v27.7
	C374,112.7,368.6,118.1,362,118.1z"/>
<rect x="89.3" y="132.5" class="st1" width="321.3" height="38.3"/>
<path class="st2" d="M379.1,276.1c-52.1,0-94.3,42.3-94.2,94.4c0,0,0,0,0,0c0,52.1,42.2,94.4,94.2,94.4s94.2-42.3,94.2-94.4
	C473.4,318.5,431.2,276.2,379.1,276.1C379.1,276.1,379.1,276.1,379.1,276.1z M379.1,316.2c7.2-0.2,13.2,1.5,16.9,3l-64.4,77.1
	c-4.5-7.8-6.9-16.7-6.8-25.7C325.6,342.4,352.8,316.8,379.1,316.2z M379.1,424.9c-5.8,0.1-11.5-0.9-16.9-3l64.4-77.1
	c6.2,11.2,6.9,20.6,6.8,25.7C432.7,398.7,405.5,424.3,379.1,424.9z"/>
<path class="st3" d="M278.9,370.6c0-55.3,44.9-100.2,100.2-100.2c28,0,53.3,11.5,71.5,30V104.2H49.4v321h245.8
	C284.9,409.5,278.9,390.8,278.9,370.6z"/>
<rect x="84.5" y="132.5" class="st4" width="336.6" height="48.3"/>
<rect x="84.5" y="207.6" class="st4" width="48.3" height="48.3"/>
<rect x="151.6" y="207.6" class="st4" width="48.3" height="48.3"/>
<rect x="84.5" y="276.1" class="st4" width="48.3" height="48.3"/>
</svg>
