<?xml version="1.0" encoding="utf-8"?>
<!-- Generator: Adobe Illustrator 26.0.3, SVG Export Plug-In . SVG Version: 6.00 Build 0)  -->
<svg version="1.1" id="图层_1" xmlns="http://www.w3.org/2000/svg" xmlns:xlink="http://www.w3.org/1999/xlink" x="0px" y="0px"
	 viewBox="0 0 500 500" style="enable-background:new 0 0 500 500;" xml:space="preserve">
<style type="text/css">
	.st0{fill:#E99311;}
	.st1{fill:#E3E3E3;}
	.st2{fill:#F6F6F6;}
	.st3{fill:#4FC0F2;}
</style>
<path class="st0" d="M449.4,239.9L449.4,239.9c2.7,0.6,5.4-1.4,5.6-4.2c6.8-93.1-55.3-176-140.4-193.6
	c-85.2-17.6-178,33.3-201.2,114.6c-25.6,89.7,24.7,139.4,31.3,148.5c-48.9-10.5-96.1-79.1-94.1-133.2h0c-2.7-0.6-5.4,1.4-5.6,4.2
	c-6.7,88.5,46,166.1,124.7,188.8c-0.3,0,21.4,4.6,21.1,4.6l20.3,1.5c0,0,56.6,4.5,115.4-33.9c-0.3,0-0.7,0-1,0
	c27.6-20.4,49.6-48,60.2-81.1c27.1-83.9-23.6-140.3-30.1-149.3C407.7,117.7,451.5,185.9,449.4,239.9z M290.6,207.9
	c-2.4,23.6-24.1,40-47.2,36.3c-0.9-0.2-1.8-0.3-2.7-0.5c-21.9-5.2-35.5-27.1-30.3-49c5.1-21.6,26.7-35.4,48.7-30.4
	C278.9,168.6,292.6,187.6,290.6,207.9z"/>
<path class="st1" d="M411.3,276.2c-0.1,0-0.2,0-0.2,0c-2.4-25.6-23.8-45.6-50-45.6c-27.8,0-50.2,22.5-50.2,50.2
	c0,26.8,21,48.7,47.5,50.2v0.1h53c15.1,0,27.5-12.3,27.5-27.5C438.7,288.6,426.4,276.2,411.3,276.2z"/>
<path class="st2" d="M380.2,290.3c-8.1-27.6-33.6-47.8-63.9-47.8c-36.3,0-65.9,29.1-66.6,65.3c-16.9,2-30,16.4-30,33.8
	c0,18.8,15.3,34.1,34.1,34.1h121.3c23.6,0,42.8-19.1,42.8-42.8C417.9,310.9,401.4,292.8,380.2,290.3z"/>
<path class="st3" d="M253.4,420.7l10.6-25.9c1.6-4,6.2-5.9,10.2-4.3h0c4,1.6,5.9,6.2,4.3,10.2l-10.6,25.9c-1.6,4-6.2,5.9-10.2,4.3h0
	C253.7,429.2,251.8,424.7,253.4,420.7z"/>
<path class="st3" d="M323.2,435.2l16.5-40.4c1.6-4,6.2-5.9,10.2-4.3h0c4,1.6,5.9,6.2,4.3,10.2l-16.5,40.4c-1.6,4-6.2,5.9-10.2,4.3
	l0,0C323.5,443.8,321.6,439.2,323.2,435.2z"/>
<path class="st3" d="M362.6,420.7l10.6-25.9c1.6-4,6.2-5.9,10.2-4.3h0c4,1.6,5.9,6.2,4.3,10.2L377,426.6c-1.6,4-6.2,5.9-10.2,4.3h0
	C362.9,429.2,361,424.7,362.6,420.7z"/>
<g>
	<path class="st3" d="M293.9,420.7l10.6-25.9c1.6-4,6.2-5.9,10.2-4.3l0,0c4,1.6,5.9,6.2,4.3,10.2l-10.6,25.9
		c-1.6,4-6.2,5.9-10.2,4.3l0,0C294.2,429.2,292.3,424.7,293.9,420.7z"/>
	<path class="st3" d="M285.7,440.9L285.7,440.9c1.6-4,6.2-5.9,10.2-4.3v0c4,1.6,5.9,6.2,4.3,10.2h0c-1.6,4-6.2,5.9-10.2,4.3v0
		C286,449.5,284.1,444.9,285.7,440.9z"/>
</g>
</svg>
