<?xml version="1.0" encoding="utf-8"?>
<!-- Generator: Adobe Illustrator 26.0.3, SVG Export Plug-In . SVG Version: 6.00 Build 0)  -->
<svg version="1.1" id="图层_1" xmlns="http://www.w3.org/2000/svg" xmlns:xlink="http://www.w3.org/1999/xlink" x="0px" y="0px"
	 viewBox="0 0 500 500" style="enable-background:new 0 0 500 500;" xml:space="preserve">
<style type="text/css">
	.st0{fill:#F15A24;}
	.st1{fill:#F7931E;}
	.st2{fill:#1088E2;}
	.st3{fill:#0391FF;}
	.st4{fill:#0396FF;}
	.st5{fill:#3FA9F5;}
	.st6{fill:#ABDCFF;}
	.st7{fill:#409EFF;}
	.st8{fill:#79BBFF;}
	.st9{fill:#E3E3E3;}
	.st10{fill:#F6F6F6;}
	.st11{fill-rule:evenodd;clip-rule:evenodd;fill:#F7AD44;}
</style>
<g>
	<path class="st0" d="M141.7,55.8L45.6,358.7c0.3,0.1,0.5,0.2,0.8,0.3h0c8.7,2.7,18-2.1,20.8-10.8l90.4-287.4L141.7,55.8z"/>
	<path class="st1" d="M125.9,50.8L35.5,338.2c-2.7,8.5,1.8,17.5,10,20.5l96.2-302.9L125.9,50.8z"/>
	<polygon class="st2" points="157.3,61 97.1,252.2 141.3,229.8 190.9,72.4 	"/>
	<polygon class="st3" points="190.9,72.4 141.3,229.8 186.9,206.6 225.5,84.2 	"/>
	<polygon class="st4" points="225.5,84.2 186.9,206.6 233.1,183.1 260.5,96.2 	"/>
	<polygon class="st5" points="260.5,96.2 233.1,183.1 288.1,155.2 302.2,110.4 	"/>
	<path class="st6" d="M318.2,115.8l-16-5.4l-14.1,44.8l31.8-16.1C329.8,134,328.8,119.4,318.2,115.8z"/>
</g>
<path class="st7" d="M465.7,324.3c-4-2.2-99.7-55-241.9-7.5c-65.6,22-173.5,3.9-174.6,3.7c-12.3-2-24,6.3-26.3,18.6
	c-2.1,12.4,6.2,24.1,18.6,26.3c3,0.5,46.4,7.8,97.2,7.8c33.1,0,69.3-3.1,99.5-13.2c121.9-40.7,201.8,2.2,205.1,4
	c10.9,6.2,24.7,2.4,30.9-8.5c0,0,0-0.1,0.1-0.1C480.5,344.4,476.7,330.6,465.7,324.3C465.8,324.4,465.8,324.4,465.7,324.3z"/>
<path class="st8" d="M465.7,400.4c-4-2.2-99.7-55-241.9-7.5c-65.6,22-173.5,3.9-174.6,3.7c-12.3-2-24,6.3-26.3,18.6
	c-2.1,12.4,6.2,24.1,18.6,26.3c3,0.5,46.4,7.8,97.2,7.8c33.1,0,69.3-3.1,99.5-13.2c121.9-40.7,201.8,2.2,205.1,4
	c10.9,6.2,24.7,2.4,30.9-8.5c0,0,0-0.1,0.1-0.1C480.5,420.5,476.7,406.6,465.7,400.4C465.8,400.4,465.8,400.4,465.7,400.4z"/>
<path class="st9" d="M282.8,213.5c0.1,0,0.1,0,0.2,0c2-22,20.5-39.2,43-39.2c23.9,0,43.2,19.3,43.2,43.2c0,23.1-18.1,41.9-40.9,43.1
	v0.1h-45.5c-13,0-23.6-10.6-23.6-23.6C259.2,224,269.8,213.5,282.8,213.5z"/>
<path class="st9" d="M450.9,213.5c-0.1,0-0.1,0-0.2,0c-2-22-20.5-39.2-43-39.2c-23.9,0-43.2,19.3-43.2,43.2
	c0,23.1,18.1,41.9,40.9,43.1v0.1h45.5c13,0,23.6-10.6,23.6-23.6C474.5,224,463.9,213.5,450.9,213.5z"/>
<path class="st10" d="M417.6,192.2c-7-23.8-28.9-41.1-54.9-41.1c-31.2,0-56.6,25-57.2,56.1c-14.5,1.7-25.8,14.1-25.8,29.1
	c0,16.2,13.1,29.3,29.3,29.3h104.3c20.3,0,36.8-16.5,36.8-36.8C450,209.9,435.8,194.4,417.6,192.2z"/>
<polygon class="st11" points="364.1,257.5 396.2,257.5 348,322.6 348,279.1 320.5,279.1 379.8,198.8 "/>
<polygon class="st11" points="297.1,275.2 314.2,275.2 288.5,310 288.5,286.8 273.8,286.8 305.5,243.9 "/>
<polygon class="st11" points="425.8,278.3 442.9,278.3 417.2,313.1 417.2,289.9 402.5,289.9 434.2,247 "/>
</svg>
