<?xml version="1.0" encoding="utf-8"?>
<!-- Generator: Adobe Illustrator 26.0.3, SVG Export Plug-In . SVG Version: 6.00 Build 0)  -->
<svg version="1.1" id="图层_1" xmlns="http://www.w3.org/2000/svg" xmlns:xlink="http://www.w3.org/1999/xlink" x="0px" y="0px"
	 viewBox="0 0 500 500" style="enable-background:new 0 0 500 500;" xml:space="preserve">
<style type="text/css">
	.st0{fill:#409EFF;}
	.st1{fill:#79BBFF;}
	.st2{fill:#E3E3E3;}
	.st3{fill:#F6F6F6;}
	.st4{fill-rule:evenodd;clip-rule:evenodd;fill:#F7AD44;}
</style>
<path class="st0" d="M465.7,340.9c-4-2.2-99.7-55-241.9-7.5c-65.6,22-173.5,3.9-174.6,3.7c-12.3-2-24,6.3-26.3,18.6
	c-2.1,12.4,6.2,24.1,18.6,26.3c3,0.5,46.4,7.8,97.2,7.8c33.1,0,69.3-3.1,99.5-13.2c121.9-40.7,201.8,2.2,205.1,4
	c10.9,6.2,24.7,2.4,30.9-8.5c0,0,0-0.1,0.1-0.1C480.5,361,476.7,347.1,465.7,340.9C465.8,340.9,465.8,340.9,465.7,340.9z"/>
<path class="st1" d="M465.7,416.9c-4-2.2-99.7-55-241.9-7.5c-65.6,22-173.5,3.9-174.6,3.7c-12.3-2-24,6.3-26.3,18.6
	c-2.1,12.4,6.2,24.1,18.6,26.3c3,0.5,46.4,7.8,97.2,7.8c33.1,0,69.3-3.1,99.5-13.2c121.9-40.7,201.8,2.2,205.1,4
	c10.9,6.2,24.7,2.4,30.9-8.5c0,0,0-0.1,0.1-0.1C480.5,437,476.7,423.2,465.7,416.9C465.8,417,465.8,416.9,465.7,416.9z"/>
<path class="st2" d="M103.5,151.8c0.1,0,0.2,0,0.4,0c3.8-41.4,38.6-73.8,81-73.8c44.9,0,81.3,36.4,81.3,81.3
	c0,43.4-34.1,78.9-76.9,81.2v0.1h-85.8c-24.6,0-44.5-19.9-44.5-44.5S78.9,151.8,103.5,151.8z"/>
<path class="st2" d="M420,151.8c-0.1,0-0.2,0-0.4,0c-3.8-41.4-38.6-73.8-81-73.8c-44.9,0-81.3,36.4-81.3,81.3
	c0,43.4,34.1,78.9,76.9,81.2v0.1H420c24.6,0,44.5-19.9,44.5-44.5S444.5,151.8,420,151.8z"/>
<path class="st3" d="M357.3,111.7C344.2,67,302.8,34.3,253.9,34.3C195,34.3,147.2,81.4,146.1,140c-27.4,3.2-48.6,26.5-48.6,54.7
	c0,30.4,24.7,55.1,55.1,55.1h196.4c38.3,0,69.3-31,69.3-69.3C418.4,145,391.7,115.8,357.3,111.7z"/>
<polygon class="st4" points="256.6,234.6 317,234.6 226.3,357.3 226.3,275.3 174.5,275.3 286.2,124.1 "/>
<polygon class="st4" points="130.3,268 162.6,268 114.2,333.5 114.2,289.8 86.5,289.8 146.2,209.1 "/>
<polygon class="st4" points="372.7,273.9 404.9,273.9 356.6,339.4 356.6,295.7 328.9,295.7 388.5,214.9 "/>
</svg>
