<?xml version="1.0" encoding="utf-8"?>
<!-- Generator: Adobe Illustrator 26.0.3, SVG Export Plug-In . SVG Version: 6.00 Build 0)  -->
<svg version="1.1" id="图层_1" xmlns="http://www.w3.org/2000/svg" xmlns:xlink="http://www.w3.org/1999/xlink" x="0px" y="0px"
	 viewBox="0 0 500 500" style="enable-background:new 0 0 500 500;" xml:space="preserve">
<style type="text/css">
	.st0{fill:#409EFF;}
	.st1{fill:#8CC5FF;}
	.st2{fill:#F56C6C;}
</style>
<path class="st0" d="M325.3,426.4c-77.5-13.4-143.2-53.6-203.5-99.7c-2.1-1.6-5.2-1.3-6.9,0.7l-18.5,22c-1.8,2.2-1.5,5.4,0.6,7.2
	c0.2,0.1,0.3,0.2,0.5,0.4c65.9,42.4,145.1,63.6,227.6,71.1C325.1,428,325.3,426.4,325.3,426.4z"/>
<path class="st1" d="M162.4,409.6c-2.3-1-5.1,0-6.3,2.2l-9.6,17.2c-1.4,2.4-0.5,5.5,1.9,6.9c0.3,0.2,0.7,0.3,1,0.4
	c81.1,24.4,165.3,37.3,250,38.2l-0.1-2.1C324.5,468.4,240.6,442,162.4,409.6z"/>
<path class="st2" d="M116.7,128c20.6,0.6,37.7-15.6,38.3-36.2S139.4,54,118.8,53.4c-0.7,0-1.4,0-2.1,0C96.1,54,79.9,71.2,80.5,91.8
	C81,111.5,96.9,127.4,116.7,128z"/>
<path class="st2" d="M442.8,186.3l-123.3,9.9c-13.8,1.1-27.2,4.9-39.5,11.2l-48,24.4l-32.9-90.8c41.5-28.2,73.5-54,86.2-95.7
	c2.5-8.1-2-16.6-10.1-19.1c0,0,0,0,0,0c-8-2.5-16.5,1.9-19,9.8c0,0.1-0.1,0.2-0.1,0.3c-11.7,37.9-44.7,59.9-94.6,93
	c-17.1,11.4-35.9,23.8-55.8,38.4C36.2,218.6,36.5,287.6,46.4,317c2.7,8,11.3,12.3,19.3,9.6c8-2.7,12.4-11.3,9.7-19.3
	c-0.8-2.5-17.9-58.4,38.3-106.7l50.3,89.6c8.4,14.9,22.8,25.3,39.5,28.7l76.2,15.2c13.9,2.8,26.5,10.2,35.6,21.1l66.1,78.8
	c3.5,4.2,9.1,6,14.4,4.7l0.9-0.2c7.7-1.9,12.4-9.6,10.6-17.3c-0.3-1.1-0.7-2.2-1.2-3.3l-60.7-117c-5.4-10.3-14.7-17.9-25.9-21.1
	l-25.1-7l9.5-7.9c11.1-9.2,24-16,37.8-20L448,214.5c7.6-2.2,12-10.2,9.8-17.8C455.9,190.1,449.6,185.8,442.8,186.3z"/>
</svg>
