<?xml version="1.0" encoding="utf-8"?>
<!-- Generator: Adobe Illustrator 26.0.3, SVG Export Plug-In . SVG Version: 6.00 Build 0)  -->
<svg version="1.1" id="图层_1" xmlns="http://www.w3.org/2000/svg" xmlns:xlink="http://www.w3.org/1999/xlink" x="0px" y="0px"
	 viewBox="0 0 500 500" style="enable-background:new 0 0 500 500;" xml:space="preserve">
<style type="text/css">
	.st0{fill:#FF6464;}
	.st1{fill-rule:evenodd;clip-rule:evenodd;fill:#707070;}
	.st2{fill:#FF7B15;}
	.st3{fill:#FB9B3B;}
</style>
<path id="Layer_00000134940331101932734760000003625063363348333955_" class="st0" d="M241.1,347.6V210.8c0-4.9-4-8.9-8.9-8.9
	s-8.9,4-8.9,8.9v136.8c-8.1,3.4-13.9,11.5-13.9,21c0,12.6,10.2,22.8,22.8,22.8c12.6,0,22.8-10.2,22.8-22.8
	C255.1,359.1,249.3,351,241.1,347.6z"/>
<path class="st1" d="M272,314.7V100.5c0-18.8-15.2-34-34-34h-11.4c-18.8,0-34,15.2-34,34v214.2c-16,12.1-26.3,31.2-26.3,52.8
	c0,36.4,29.6,66,66,66s66-29.6,66-66C298.3,346,288,326.9,272,314.7z M232.2,418.8c-28.3,0-51.2-22.9-51.2-51.2
	c0-12.4,4.4-23.7,11.7-32.6c4-4.9,9-9,14.7-12.1V100.5c0-10.7,8.6-19.2,19.2-19.2H238c10.7,0,19.2,8.6,19.2,19.2v11.5h-13.3
	c-2.1,0-3.9,1.8-3.9,3.8c0,2.1,1.8,3.9,3.9,3.9h13.3v20.9h-13.3c-2.1,0-3.9,1.8-3.9,3.8c0,2.1,1.8,3.8,3.9,3.8h13.3v20.9h-12.9
	c-2.1,0-3.8,1.8-3.8,3.9c0,2.1,1.8,3.8,3.8,3.8h12.9v145.8c5.6,3.1,10.5,7.3,14.7,12.1c7.3,8.9,11.7,20.3,11.7,32.6
	C283.5,395.9,260.5,418.8,232.2,418.8z"/>
<path class="st2" d="M415.7,172.3c-8,3.5-13.2,9.1-16.3,15.1c-2.4,4.6-9.2,4.1-10.7-0.9c-4.1-13.3-3.6-27.8-1-45.5
	c0.7-4.5-3.9-8-8.1-6.2c-26.8,11.9-33.3,38.1-35.7,58.3c-0.8,6.7-10.4,6.9-11.5,0.3c-0.2-1.4-0.4-2.8-0.6-4.1
	c-0.6-4.8-6.5-6.8-9.9-3.4c-7.9,7.8-12.7,20.1-13.9,30.8c-3.9,35.1,21.6,63.9,55.7,67.6c34,3.7,63.7-18.9,67.6-54.1
	c2.1-18.9-8.8-27.6-7.1-52.1C424.2,173.7,419.7,170.6,415.7,172.3z"/>
<path class="st3" d="M384.7,238.3c-2.5,1.1-4.1,2.9-5.2,4.7c-0.9,1.6-3.3,1.4-3.9-0.4c-1.3-4.3-1.1-9-0.3-14.7
	c0.2-1.6-1.4-2.9-2.9-2.2c-8.4,3.9-10.8,12-11.6,18.6c-0.3,2.4-3.8,2.4-4.1,0c0,0,0-0.1,0-0.1c-0.2-1.7-2.4-2.4-3.6-1.2
	c-2.5,2.6-4.1,6.6-4.5,10.1c-1.3,11.8,7.3,21.4,18.7,22.7c11.4,1.3,21.4-6.4,22.7-18.2c0.7-6.3-2.9-9.2-2.4-17.3
	C387.7,238.8,386.1,237.7,384.7,238.3z"/>
</svg>
