<?xml version="1.0" encoding="utf-8"?>
<!-- Generator: Adobe Illustrator 26.0.3, SVG Export Plug-In . SVG Version: 6.00 Build 0)  -->
<svg version="1.1" xmlns="http://www.w3.org/2000/svg" xmlns:xlink="http://www.w3.org/1999/xlink" x="0px" y="0px"
	 viewBox="0 0 500 500" style="enable-background:new 0 0 500 500;" xml:space="preserve">
<style type="text/css">
	.st0{fill:#66B28A;}
	.st1{fill:#FF7B15;}
	.st2{fill:#FB9B3B;}
</style>
<path class="st0" d="M380.1,318.7c-18.9,0-31.2-2.8-45.6-11.5c-2.7-1.7-6-0.5-7.5,2.8c-6,12.9-11.6,26.8-16.5,41.1
	c-4.1,12.2-18.7,9.6-20-3.5c-3.4-33.1-8.8-66-16.1-98.2c-15.7-69.9-53.2-138.1-121.7-189.8c-5.1-3.8-10.9,3.3-7.9,9.6
	C173.8,130.8,186,195,193,262.1c2.6,24.6,4,50.2,4.1,75.4c0.1,20.6-22.3,27.1-29.6,8.6c-0.1-0.3-0.2-0.6-0.4-0.9
	c-14.7-36.7-37.2-71.3-69.5-100c-4.7-4.2-10.8,1.9-8.6,8.5c14.3,43.1,23.5,81.1,27.7,114.2c4.3,34.6,2,66.1-7,94.5h182v0.1h119.7
	c-19.2-45.4-8-111.3-2.4-138c1.1-5.1-2.5-9.8-6.7-8.7C395,317.6,387.6,318.6,380.1,318.7z"/>
<path class="st1" d="M442.9,153.5c-9.9,4.3-16.5,11.4-20.3,18.7c-3,5.7-11.4,5.1-13.4-1.1c-5.2-16.5-4.5-34.6-1.3-56.7
	c0.8-5.6-4.9-10-10.1-7.7c-33.3,14.8-41.5,47.4-44.4,72.6c-1,8.3-13,8.6-14.4,0.4c-0.3-1.8-0.5-3.5-0.7-5.2c-0.7-6-8-8.5-12.4-4.3
	c-9.8,9.7-15.9,25-17.3,38.4c-4.8,43.7,26.9,79.5,69.3,84.1s79.3-23.6,84.1-67.4c2.6-23.5-11-34.4-8.9-64.9
	C453.4,155.2,447.9,151.3,442.9,153.5z"/>
<path class="st2" d="M404.3,235.6c-3.1,1.4-5.1,3.6-6.4,5.9c-1.1,2.1-4.1,1.8-4.8-0.5c-1.6-5.3-1.3-11.2-0.3-18.3
	c0.3-2-1.8-3.6-3.6-2.7c-10.5,4.8-13.4,14.9-14.5,23.1c-0.4,3-4.8,3-5.2,0c0-0.1,0-0.1,0-0.2c-0.3-2.2-2.9-3-4.4-1.5
	c-3.1,3.3-5.1,8.2-5.6,12.6c-1.6,14.7,9,26.7,23.3,28.3c14.2,1.6,26.6-7.9,28.3-22.6c0.9-7.8-3.6-11.5-3-21.6
	C408.1,236.2,406.1,234.8,404.3,235.6z"/>
</svg>
