<?xml version="1.0" encoding="utf-8"?>
<!-- Generator: Adobe Illustrator 26.0.3, SVG Export Plug-In . SVG Version: 6.00 Build 0)  -->
<svg version="1.1" xmlns="http://www.w3.org/2000/svg" xmlns:xlink="http://www.w3.org/1999/xlink" x="0px" y="0px"
	 viewBox="0 0 500 500" enable-background="new 0 0 500 500" xml:space="preserve">
<rect x="99.5" y="99.5" transform="matrix(0.7071 -0.7071 0.7071 0.7071 -103.3473 249.4976)" fill="#FFB55A" width="300" height="300"/>
<rect x="99.5" y="99.5" fill="#FFB55A" width="300" height="300"/>
<circle fill="#FFCF00" cx="249.1" cy="249.3" r="150"/>
<path fill="#F6F6F6" d="M192.4,263.7c-6.1-20.9-25.3-36-48.1-36c-27.4,0-49.6,22-50.2,49.2c-12.8,1.5-22.7,12.3-22.7,25.5
	c0,14.2,11.5,25.7,25.7,25.7h91.5c17.8,0,32.3-14.4,32.3-32.3C220.8,279.2,208.4,265.6,192.4,263.7z"/>
<path fill="#F6F6F6" d="M415.5,171.1c-6.8-23-27.9-39.8-53.1-39.8c-30.3,0-54.8,24.3-55.4,54.3c-14.1,1.7-25,13.6-25,28.1
	c0,15.7,12.7,28.3,28.3,28.3h101c19.7,0,35.6-15.9,35.6-35.6C446.9,188.1,433.1,173.1,415.5,171.1z"/>
</svg>
