<?xml version="1.0" encoding="utf-8"?>
<!-- Generator: Adobe Illustrator 26.0.3, SVG Export Plug-In . SVG Version: 6.00 Build 0)  -->
<svg version="1.1" xmlns="http://www.w3.org/2000/svg" xmlns:xlink="http://www.w3.org/1999/xlink" x="0px" y="0px"
	 viewBox="0 0 500 500" style="enable-background:new 0 0 500 500;" xml:space="preserve">
<style type="text/css">
	.st0{fill:#FFB55A;}
	.st1{fill:#FFCF00;}
	.st2{fill:#F6F6F6;}
</style>
<g>
	<polygon class="st0" points="51.4,257.7 243.3,50.3 450.7,242.3 258.7,449.7 	"/>
	<rect x="110" y="109" class="st0" width="282.4" height="282.4"/>
	<circle class="st1" cx="251.2" cy="250.2" r="141.6"/>
</g>
<path class="st2" d="M203.2,278.9c-8.1-27.6-33.5-47.7-63.7-47.7c-36.3,0-65.7,29.1-66.4,65.1c-16.9,2-30,16.3-30,33.7
	c0,18.8,15.2,34,34,34h121.1c23.6,0,42.7-19.1,42.7-42.7C240.8,299.4,224.4,281.4,203.2,278.9z"/>
<path class="st2" d="M419.2,164.9c-8.1-27.6-33.5-47.7-63.7-47.7c-36.3,0-65.7,29.1-66.4,65.1c-16.9,2-30,16.3-30,33.7
	c0,18.8,15.2,34,34,34h121.1c23.6,0,42.7-19.1,42.7-42.7C456.9,185.4,440.4,167.4,419.2,164.9z"/>
</svg>
