<?xml version="1.0" encoding="utf-8"?>
<!-- Generator: Adobe Illustrator 26.0.3, SVG Export Plug-In . SVG Version: 6.00 Build 0)  -->
<svg version="1.1" xmlns="http://www.w3.org/2000/svg" xmlns:xlink="http://www.w3.org/1999/xlink" x="0px" y="0px"
	 viewBox="0 0 500 500" enable-background="new 0 0 500 500" xml:space="preserve">
<path fill-rule="evenodd" clip-rule="evenodd" fill="#FFB55A" d="M420.8,278.9c-95.4,0-172.7-77.3-172.7-172.7
	c0-17.9,2.7-35,7.7-51.2c0.5-1.6-0.9-3.3-2.7-3.1c-78.6,14.6-138.4,82.4-140.8,164.8c-2.7,98.6,78.2,180.1,177,177.6
	c72.9-1.8,134.6-48.7,158.1-114c0.5-1.6-0.7-3.5-2.6-3.1C437.1,278.4,429,278.9,420.8,278.9z"/>
<path fill="#F6F6F6" d="M368.6,280c-15.9-54.4-66.2-94.2-125.8-94.2c-71.6,0-129.8,57.3-131.1,128.7c-33.3,3.9-59.2,32.2-59.2,66.6
	c0,37,30,67,67,67h239.1c46.5,0,84.3-37.8,84.3-84.3C443,320.5,410.5,285,368.6,280z"/>
</svg>
