<?xml version="1.0" encoding="utf-8"?>
<!-- Generator: Adobe Illustrator 26.0.3, SVG Export Plug-In . SVG Version: 6.00 Build 0)  -->
<svg version="1.1" xmlns="http://www.w3.org/2000/svg" xmlns:xlink="http://www.w3.org/1999/xlink" x="0px" y="0px"
	 viewBox="0 0 500 500" enable-background="new 0 0 500 500" xml:space="preserve">
<path fill="#E3E3E3" d="M401.8,194.2c-0.1,0-0.3,0-0.4,0c-4.4-47.3-44.2-84.4-92.6-84.4c-51.4,0-93,41.7-93,93
	c0,49.7,38.9,90.3,88,92.9v0.1h98.1c28.1,0,50.9-22.8,50.9-50.9S429.9,194.2,401.8,194.2z"/>
<g>
	<polygon fill="#FFB55A" points="55,156.2 158.7,44.2 270.6,147.9 167,259.8 	"/>
	<rect x="86.6" y="75.8" fill="#FFB55A" width="152.6" height="152.6"/>
	<ellipse fill="#FFCF00" cx="162.9" cy="151.9" rx="76.4" ry="76.4"/>
</g>
<path fill="#F6F6F6" d="M344.2,220.2c-15-51.2-62.2-88.6-118.3-88.6c-67.3,0-121.9,54-123.2,120.9c-31.3,3.7-55.6,30.3-55.6,62.6
	c0,34.9,28.2,63.1,63.1,63.1h224.7c43.7,0,79.3-35.5,79.3-79.3C414.1,258.3,383.6,224.8,344.2,220.2z"/>
<g>
	<path fill="#4FC0F2" d="M174.9,427.5l10.6-25.9c2.8-6.9,10.7-10.2,17.6-7.4l0,0c6.9,2.8,10.2,10.7,7.4,17.6l-10.6,25.9
		c-2.8,6.9-10.7,10.2-17.6,7.4l0,0C175.4,442.1,172.1,434.4,174.9,427.5z"/>
	<path fill="#4FC0F2" d="M243.3,446.2l18.3-44.8c2.8-6.9,10.7-10.2,17.6-7.4l0,0c6.9,2.8,10.2,10.7,7.4,17.6l-18.3,44.8
		c-2.8,6.9-10.7,10.2-17.6,7.4l0,0C243.8,461,240.5,453.1,243.3,446.2z"/>
</g>
</svg>
