<?xml version="1.0" encoding="utf-8"?>
<!-- Generator: Adobe Illustrator 26.0.3, SVG Export Plug-In . SVG Version: 6.00 Build 0)  -->
<svg version="1.1" xmlns="http://www.w3.org/2000/svg" xmlns:xlink="http://www.w3.org/1999/xlink" x="0px" y="0px"
	 viewBox="0 0 500 500" style="enable-background:new 0 0 500 500;" xml:space="preserve">
<style type="text/css">
	.st0{fill:#E3E3E3;}
	.st1{fill:#FFB55A;}
	.st2{fill:#FFCF00;}
	.st3{fill:#F6F6F6;}
	.st4{fill:#4FC0F2;}
</style>
<path class="st0" d="M398.6,163.8c-0.1,0-0.3,0-0.4,0c-4.3-46.3-43.2-82.6-90.6-82.6c-50.3,0-91,40.8-91,91
	c0,48.6,38.1,88.3,86.1,90.9v0.1h96c27.5,0,49.8-22.3,49.8-49.8S426.1,163.8,398.6,163.8z"/>
<polygon class="st1" points="90,138.6 155,68.4 225.1,133.4 160.2,203.5 "/>
<rect x="109.8" y="88.2" class="st1" width="95.6" height="95.6"/>
<ellipse transform="matrix(8.248048e-02 -0.9966 0.9966 8.248048e-02 9.0618 281.7734)" class="st2" cx="157.6" cy="136" rx="47.9" ry="47.9"/>
<path class="st3" d="M342.3,189.3c-14.7-50.1-60.9-86.7-115.7-86.7c-65.8,0-119.3,52.8-120.5,118.3c-30.6,3.6-54.4,29.6-54.4,61.2
	c0,34.1,27.6,61.7,61.7,61.7h219.8c42.8,0,77.6-34.7,77.6-77.6C410.7,226.5,380.8,193.8,342.3,189.3z"/>
<g>
	<path class="st4" d="M194.2,394.2l10.6-25.9c2.8-6.9,10.7-10.2,17.6-7.4l0,0c6.9,2.8,10.2,10.7,7.4,17.6l-10.6,25.9
		c-2.8,6.9-10.7,10.2-17.6,7.4h0C194.7,408.9,191.4,401.1,194.2,394.2z"/>
	<path class="st4" d="M262.6,413l18.3-44.8c2.8-6.9,10.7-10.2,17.6-7.4v0c6.9,2.8,10.2,10.7,7.4,17.6l-18.3,44.8
		c-2.8,6.9-10.7,10.2-17.6,7.4v0C263.1,427.8,259.8,419.9,262.6,413z"/>
</g>
</svg>
