<?xml version="1.0" encoding="utf-8"?>
<!-- Generator: Adobe Illustrator 26.0.3, SVG Export Plug-In . SVG Version: 6.00 Build 0)  -->
<svg version="1.1" xmlns="http://www.w3.org/2000/svg" xmlns:xlink="http://www.w3.org/1999/xlink" x="0px" y="0px"
	 viewBox="0 0 500 500" enable-background="new 0 0 500 500" xml:space="preserve">
<path fill="#E3E3E3" d="M400.2,159.1c-0.1,0-0.3,0-0.4,0c-4.3-46.8-43.7-83.4-91.6-83.4c-50.8,0-92,41.2-92,92
	c0,49.1,38.5,89.3,87,91.9v0.1h97c27.8,0,50.3-22.5,50.3-50.3S428,159.1,400.2,159.1z"/>
<path fill="#F6F6F6" d="M343.3,184.8c-14.8-50.6-61.6-87.6-117-87.6c-66.5,0-120.6,53.3-121.8,119.6c-31,3.6-55,29.9-55,61.9
	c0,34.4,27.9,62.3,62.3,62.3H334c43.3,0,78.4-35.1,78.4-78.4C412.4,222.5,382.2,189.4,343.3,184.8z"/>
<polygon fill-rule="evenodd" clip-rule="evenodd" fill="#F7AD44" points="232.7,328.2 280.1,328.2 209.1,424.4 209.1,360.1 
	168.4,360.1 256,241.6 "/>
<path fill="#4FC0F2" d="M118.5,384.9l9.1-22.3c2.8-6.9,10.7-10.2,17.6-7.4l0,0c6.9,2.8,10.2,10.7,7.4,17.6l-9.1,22.3
	c-2.8,6.9-10.7,10.2-17.6,7.4l0,0C119,399.7,115.7,391.8,118.5,384.9z"/>
<path fill="#E3E3E3" d="M283,402.8L283,402.8c2.8-6.9,10.7-10.2,17.6-7.4l0,0c6.9,2.8,10.2,10.7,7.4,17.6l0,0
	c-2.8,6.9-10.7,10.2-17.6,7.4l0,0C283.5,417.5,280.2,409.7,283,402.8z"/>
<path fill="#E3E3E3" d="M299.4,362.6L299.4,362.6c2.8-6.9,10.7-10.2,17.6-7.4l0,0c6.9,2.8,10.2,10.7,7.4,17.6l0,0
	c-2.8,6.9-10.7,10.2-17.6,7.4l0,0C299.9,377.4,296.6,369.5,299.4,362.6z"/>
</svg>
