<?xml version="1.0" encoding="utf-8"?>
<!-- Generator: Adobe Illustrator 26.0.3, SVG Export Plug-In . SVG Version: 6.00 Build 0)  -->
<svg version="1.1" xmlns="http://www.w3.org/2000/svg" xmlns:xlink="http://www.w3.org/1999/xlink" x="0px" y="0px"
	 viewBox="0 0 500 500" style="enable-background:new 0 0 500 500;" xml:space="preserve">
<style type="text/css">
	.st0{fill:#4FC0F2;}
	.st1{fill:#F6F6F6;}
</style>
<path class="st0" d="M142.3,407.2l24.2-59.4c1.2-2.9,4.4-4.2,7.3-3.1h0c2.9,1.2,4.2,4.4,3.1,7.3l-24.2,59.4
	c-1.2,2.9-4.4,4.2-7.3,3.1h0C142.5,413.3,141.1,410.1,142.3,407.2z"/>
<path class="st0" d="M232.4,407.2l24.2-59.4c1.2-2.9,4.4-4.2,7.3-3.1h0c2.9,1.2,4.2,4.4,3.1,7.3l-24.2,59.4
	c-1.2,2.9-4.4,4.2-7.3,3.1l0,0C232.6,413.3,231.2,410.1,232.4,407.2z"/>
<path class="st0" d="M322.5,407.2l24.2-59.4c1.2-2.9,4.4-4.2,7.3-3.1l0,0c2.9,1.2,4.2,4.4,3.1,7.3l-24.2,59.4
	c-1.2,2.9-4.4,4.2-7.3,3.1l0,0C322.7,413.3,321.3,410.1,322.5,407.2z"/>
<path class="st1" d="M362.3,172.7c-14.8-50.6-61.6-87.6-117-87.6c-66.5,0-120.6,53.3-121.8,119.6c-31,3.6-55,30-55,61.9
	c0,34.4,27.9,62.3,62.3,62.3h222.2c43.3,0,78.4-35.1,78.4-78.4C431.4,210.3,401.3,177.2,362.3,172.7z"/>
</svg>
