<?xml version="1.0" encoding="utf-8"?>
<!-- Generator: Adobe Illustrator 26.0.3, SVG Export Plug-In . SVG Version: 6.00 Build 0)  -->
<svg version="1.1" xmlns="http://www.w3.org/2000/svg" xmlns:xlink="http://www.w3.org/1999/xlink" x="0px" y="0px"
	 viewBox="0 0 500 500" style="enable-background:new 0 0 500 500;" xml:space="preserve">
<style type="text/css">
	.st0{fill:#E3E3E3;}
	.st1{fill:#F6F6F6;}
	.st2{fill:#4FC0F2;}
</style>
<path class="st0" d="M391.8,146.3c-0.1,0-0.3,0-0.4,0c-4.1-44.2-41.2-78.8-86.5-78.8c-48,0-86.9,38.9-86.9,86.9
	c0,46.4,36.4,84.3,82.2,86.8v0.1h91.6c26.2,0,47.5-21.3,47.5-47.5S418,146.3,391.8,146.3z"/>
<path class="st1" d="M338.1,170.6c-14-47.8-58.1-82.7-110.5-82.7c-62.8,0-113.9,50.4-115.1,112.9c-29.2,3.4-51.9,28.3-51.9,58.5
	c0,32.5,26.4,58.9,58.9,58.9h209.8c40.9,0,74-33.1,74-74C403.3,206.2,374.8,174.9,338.1,170.6z"/>
<path class="st2" d="M154.1,388.7l18.3-44.8c2.8-6.9,10.7-10.2,17.6-7.4h0c6.9,2.8,10.2,10.7,7.4,17.6l-18.3,44.8
	c-2.8,6.9-10.7,10.2-17.6,7.4h0C154.6,403.5,151.3,395.6,154.1,388.7z"/>
<path class="st2" d="M222.9,413.9l28.5-69.9c2.8-6.9,10.7-10.2,17.6-7.4h0c6.9,2.8,10.2,10.7,7.4,17.6l-28.5,69.9
	c-2.8,6.9-10.7,10.2-17.6,7.4h0C223.4,428.7,220.1,420.8,222.9,413.9z"/>
<path class="st2" d="M302,388.7l18.3-44.8c2.8-6.9,10.7-10.2,17.6-7.4h0c6.9,2.8,10.2,10.7,7.4,17.6L327,398.9
	c-2.8,6.9-10.7,10.2-17.6,7.4h0C302.5,403.5,299.2,395.6,302,388.7z"/>
</svg>
