<?xml version="1.0" encoding="utf-8"?>
<!-- Generator: Adobe Illustrator 26.0.3, SVG Export Plug-In . SVG Version: 6.00 Build 0)  -->
<svg version="1.1" xmlns="http://www.w3.org/2000/svg" xmlns:xlink="http://www.w3.org/1999/xlink" x="0px" y="0px"
	 viewBox="0 0 500 500" style="enable-background:new 0 0 500 500;" xml:space="preserve">
<style type="text/css">
	.st0{fill:#E3E3E3;}
	.st1{fill:#F6F6F6;}
	.st2{fill:#4FC0F2;}
</style>
<path class="st0" d="M401.3,146.6c-0.1,0-0.3,0-0.4,0c-4.4-47.3-44.2-84.4-92.6-84.4c-51.4,0-93,41.7-93,93
	c0,49.7,38.9,90.3,88,92.9v0.1h98.1c28.1,0,50.9-22.8,50.9-50.9S429.4,146.6,401.3,146.6z"/>
<path class="st1" d="M343.8,172.6c-15-51.2-62.2-88.6-118.3-88.6c-67.3,0-121.9,54-123.2,120.9c-31.3,3.7-55.6,30.3-55.6,62.6
	c0,34.9,28.2,63.1,63.1,63.1h224.7c43.7,0,79.3-35.5,79.3-79.3C413.6,210.7,383.1,177.2,343.8,172.6z"/>
<path class="st2" d="M110,382.7l10.6-25.9c2.8-6.9,10.7-10.2,17.6-7.4l0,0c6.9,2.8,10.2,10.7,7.4,17.6L135,392.9
	c-2.8,6.9-10.7,10.2-17.6,7.4l0,0C110.5,397.3,107.3,389.6,110,382.7z"/>
<path class="st2" d="M174.8,385.5l10.6-25.9c2.8-6.9,10.7-10.2,17.6-7.4l0,0c6.9,2.8,10.2,10.7,7.4,17.6l-10.6,25.9
	c-2.8,6.9-10.7,10.2-17.6,7.4l0,0C175.3,400.1,172.1,392.4,174.8,385.5z"/>
<path class="st2" d="M235.7,404.4l18.3-44.8c2.8-6.9,10.7-10.2,17.6-7.4l0,0c6.9,2.8,10.2,10.7,7.4,17.6l-18.3,44.8
	c-2.8,6.9-10.7,10.2-17.6,7.4l0,0C236.2,419.2,232.9,411.3,235.7,404.4z"/>
<circle class="st2" cx="173.9" cy="423.9" r="12.9"/>
<path class="st2" d="M304.3,385.5l10.6-25.9c2.8-6.9,10.7-10.2,17.6-7.4l0,0c6.9,2.8,10.2,10.7,7.4,17.6l-10.6,25.9
	c-2.8,6.9-10.7,10.2-17.6,7.4l0,0C304.8,400.1,301.6,392.4,304.3,385.5z"/>
</svg>
