<?xml version="1.0" encoding="utf-8"?>
<!-- Generator: Adobe Illustrator 26.0.3, SVG Export Plug-In . SVG Version: 6.00 Build 0)  -->
<svg version="1.1" xmlns="http://www.w3.org/2000/svg" xmlns:xlink="http://www.w3.org/1999/xlink" x="0px" y="0px"
	 viewBox="0 0 500 500" style="enable-background:new 0 0 500 500;" xml:space="preserve">
<style type="text/css">
	.st0{fill:#4FC0F2;}
	.st1{fill:#E3E3E3;}
	.st2{fill:#F6F6F6;}
</style>
<path class="st0" d="M209,425.6l28.5-69.9c2.8-6.9,10.7-10.2,17.6-7.4l0,0c6.9,2.8,10.2,10.7,7.4,17.6L234,435.8
	c-2.8,6.9-10.7,10.2-17.6,7.4l0,0C209.5,440.4,206.2,432.5,209,425.6z"/>
<path class="st0" d="M279.7,400.5l18.3-44.8c2.8-6.9,10.7-10.2,17.6-7.4l0,0c6.9,2.8,10.2,10.7,7.4,17.6l-18.3,44.8
	c-2.8,6.9-10.7,10.2-17.6,7.4l0,0C280.2,415.3,276.9,407.4,279.7,400.5z"/>
<path class="st0" d="M87.8,376.5l8.5-20.8c2.8-6.9,10.7-10.2,17.6-7.4l0,0c6.9,2.8,10.2,10.7,7.4,17.6l-8.5,20.8
	c-2.8,6.9-10.7,10.2-17.6,7.4l0,0C88.3,391.3,85,383.4,87.8,376.5z"/>
<path class="st0" d="M350.2,376.5l8.5-20.8c2.8-6.9,10.7-10.2,17.6-7.4l0,0c6.9,2.8,10.2,10.7,7.4,17.6l-8.5,20.8
	c-2.8,6.9-10.7,10.2-17.6,7.4l0,0C350.7,391.3,347.4,383.4,350.2,376.5z"/>
<g>
	<path class="st0" d="M154.9,400.5l18.3-44.8c2.8-6.9,10.7-10.2,17.6-7.4l0,0c6.9,2.8,10.2,10.7,7.4,17.6l-18.3,44.8
		c-2.8,6.9-10.7,10.2-17.6,7.4l0,0C155.4,415.3,152.1,407.4,154.9,400.5z"/>
	<path class="st0" d="M141.8,432.6L141.8,432.6c2.4-7.1,10.1-10.8,17.1-8.4l0,0c7.1,2.4,10.8,10.1,8.4,17.1l0,0
		c-2.4,7.1-10.1,10.8-17.1,8.4l0,0C143.2,447.3,139.4,439.6,141.8,432.6z"/>
</g>
<path class="st1" d="M401.3,146.3c-0.1,0-0.3,0-0.4,0c-4.4-47.3-44.2-84.4-92.6-84.4c-51.4,0-93,41.7-93,93
	c0,49.7,38.9,90.3,88,92.9v0.1h98.1c28.1,0,50.9-22.8,50.9-50.9S429.4,146.3,401.3,146.3z"/>
<path class="st2" d="M343.8,172.3c-15-51.2-62.2-88.6-118.3-88.6c-67.3,0-121.9,54-123.2,120.9c-31.3,3.7-55.6,30.3-55.6,62.6
	c0,34.9,28.2,63.1,63.1,63.1h224.7c43.7,0,79.3-35.5,79.3-79.3C413.6,210.4,383.1,176.9,343.8,172.3z"/>
</svg>
