<?xml version="1.0" encoding="utf-8"?>
<!-- Generator: Adobe Illustrator 26.0.3, SVG Export Plug-In . SVG Version: 6.00 Build 0)  -->
<svg version="1.1" xmlns="http://www.w3.org/2000/svg" xmlns:xlink="http://www.w3.org/1999/xlink" x="0px" y="0px"
	 viewBox="0 0 500 500" style="enable-background:new 0 0 500 500;" xml:space="preserve">
<style type="text/css">
	.st0{fill:#4FC0F2;}
	.st1{fill:#E3E3E3;}
	.st2{fill:#F6F6F6;}
</style>
<polygon class="st0" points="147.7,345 130.4,389.9 147.7,434.8 164.9,389.9 "/>
<polygon class="st0" points="215.9,345 198.6,389.9 215.9,434.8 233.2,389.9 "/>
<polygon class="st0" points="284.1,345 266.8,389.9 284.1,434.8 301.4,389.9 "/>
<polygon class="st0" points="352.3,345 335.1,389.9 352.3,434.8 369.6,389.9 "/>
<path class="st1" d="M391.8,144c-0.1,0-0.3,0-0.4,0c-4.1-44.2-41.2-78.8-86.5-78.8c-48,0-86.9,38.9-86.9,86.9
	c0,46.4,36.4,84.3,82.2,86.8v0.1h91.6c26.2,0,47.5-21.3,47.5-47.5S418,144,391.8,144z"/>
<path class="st2" d="M338.1,168.3c-14-47.8-58.1-82.7-110.5-82.7c-62.8,0-113.9,50.4-115.1,112.9c-29.2,3.4-51.9,28.3-51.9,58.5
	c0,32.5,26.4,58.9,58.9,58.9h209.8c40.9,0,74-33.1,74-74C403.3,203.9,374.8,172.6,338.1,168.3z"/>
</svg>
