<?xml version="1.0" encoding="utf-8"?>
<!-- Generator: Adobe Illustrator 26.0.3, SVG Export Plug-In . SVG Version: 6.00 Build 0)  -->
<svg version="1.1" xmlns="http://www.w3.org/2000/svg" xmlns:xlink="http://www.w3.org/1999/xlink" x="0px" y="0px"
	 viewBox="0 0 500 500" style="enable-background:new 0 0 500 500;" xml:space="preserve">
<style type="text/css">
	.st0{fill:#E3E3E3;}
	.st1{fill:#F6F6F6;}
	.st2{fill:#E6E6E6;}
	.st3{fill:#4FC0F2;}
</style>
<path class="st0" d="M391.8,161.6c-0.1,0-0.3,0-0.4,0c-4.1-44.2-41.2-78.8-86.5-78.8c-48,0-86.9,38.9-86.9,86.9
	c0,46.4,36.4,84.3,82.2,86.8v0.1h91.6c26.2,0,47.5-21.3,47.5-47.5S418,161.6,391.8,161.6z"/>
<path class="st1" d="M338.1,185.9c-14-47.8-58.1-82.7-110.5-82.7c-62.8,0-113.9,50.4-115.1,112.9c-29.2,3.4-51.9,28.3-51.9,58.5
	c0,32.5,26.4,58.9,58.9,58.9h209.8c40.9,0,74-33.1,74-74C403.3,221.5,374.8,190.2,338.1,185.9z"/>
<path class="st2" d="M227.4,415.7L227.4,415.7c-4-1.8-5.8-6.4-4-10.4l23.4-53c1.8-4,6.4-5.8,10.4-4l0,0c4,1.8,5.8,6.4,4,10.4
	l-23.4,53C236.1,415.6,231.4,417.4,227.4,415.7z"/>
<path class="st3" d="M155.3,390.5c0,8.5,6.7,15.4,15.1,15.4c8.3,0,15.1-6.9,15.1-15.4S170.4,358,170.4,358S155.3,381.9,155.3,390.5z
	"/>
<path class="st3" d="M292.1,394.5c0,12.6,10,22.7,22.2,22.7s22.2-10.2,22.2-22.7c0-12.6-22.2-47.9-22.2-47.9
	S292.1,381.9,292.1,394.5z"/>
</svg>
