<?xml version="1.0" encoding="utf-8"?>
<!-- Generator: Adobe Illustrator 26.0.3, SVG Export Plug-In . SVG Version: 6.00 Build 0)  -->
<svg version="1.1" xmlns="http://www.w3.org/2000/svg" xmlns:xlink="http://www.w3.org/1999/xlink" x="0px" y="0px"
	 viewBox="0 0 500 500" style="enable-background:new 0 0 500 500;" xml:space="preserve">
<style type="text/css">
	.st0{fill:#E6E6E6;}
	.st1{fill:#4FC0F2;}
	.st2{fill:#E3E3E3;}
	.st3{fill:#F6F6F6;}
</style>
<path class="st0" d="M218.7,422.7L218.7,422.7c-4-1.8-5.8-6.4-4-10.4l23.4-53c1.8-4,6.4-5.8,10.4-4l0,0c4,1.8,5.8,6.4,4,10.4
	l-23.4,53C227.4,422.6,222.7,424.4,218.7,422.7z"/>
<path class="st1" d="M134.1,388.9l10.6-25.9c2.8-6.9,10.7-10.2,17.6-7.4l0,0c6.9,2.8,10.2,10.7,7.4,17.6l-10.6,25.9
	c-2.8,6.9-10.7,10.2-17.6,7.4l0,0C134.6,403.5,131.4,395.8,134.1,388.9z"/>
<path class="st1" d="M293.6,407.8l18.3-44.8c2.8-6.9,10.7-10.2,17.6-7.4l0,0c6.9,2.8,10.2,10.7,7.4,17.6L318.6,418
	c-2.8,6.9-10.7,10.2-17.6,7.4l0,0C294.1,422.6,290.8,414.7,293.6,407.8z"/>
<path class="st2" d="M401.3,146.6c-0.1,0-0.3,0-0.4,0c-4.4-47.3-44.2-84.4-92.6-84.4c-51.4,0-93,41.7-93,93
	c0,49.7,38.9,90.3,88,92.9v0.1h98.1c28.1,0,50.9-22.8,50.9-50.9S429.4,146.6,401.3,146.6z"/>
<path class="st3" d="M343.8,172.6c-15-51.2-62.2-88.6-118.3-88.6c-67.3,0-121.9,54-123.2,120.9c-31.3,3.7-55.6,30.3-55.6,62.6
	c0,34.9,28.2,63.1,63.1,63.1h224.7c43.7,0,79.3-35.5,79.3-79.3C413.6,210.7,383.1,177.2,343.8,172.6z"/>
</svg>
