<?xml version="1.0" encoding="utf-8"?>
<!-- Generator: Adobe Illustrator 26.0.3, SVG Export Plug-In . SVG Version: 6.00 Build 0)  -->
<svg version="1.1" xmlns="http://www.w3.org/2000/svg" xmlns:xlink="http://www.w3.org/1999/xlink" x="0px" y="0px"
	 viewBox="0 0 500 500" style="enable-background:new 0 0 500 500;" xml:space="preserve">
<style type="text/css">
	.st0{fill:#E6E6E6;}
	.st1{fill:#E3E3E3;}
	.st2{fill:#F6F6F6;}
	.st3{fill:#4FC0F2;}
</style>
<path class="st0" d="M182.3,418.5L182.3,418.5c-4-1.8-5.8-6.4-4-10.4l23.4-53c1.8-4,6.4-5.8,10.4-4l0,0c4,1.8,5.8,6.4,4,10.4
	l-23.4,53C190.9,418.5,186.3,420.3,182.3,418.5z"/>
<path class="st1" d="M401.3,146.6c-0.1,0-0.3,0-0.4,0c-4.4-47.3-44.2-84.4-92.6-84.4c-51.4,0-93,41.7-93,93
	c0,49.7,38.9,90.3,88,92.9v0.1h98.1c28.1,0,50.9-22.8,50.9-50.9S429.4,146.6,401.3,146.6z"/>
<path class="st2" d="M343.8,172.6c-15-51.2-62.2-88.6-118.3-88.6c-67.3,0-121.9,54-123.2,120.9c-31.3,3.7-55.6,30.3-55.6,62.6
	c0,34.9,28.2,63.1,63.1,63.1h224.7c43.7,0,79.3-35.5,79.3-79.3C413.6,210.7,383.1,177.2,343.8,172.6z"/>
<path class="st3" d="M117.2,384.7l10.6-25.9c2.8-6.9,10.7-10.2,17.6-7.4l0,0c6.9,2.8,10.2,10.7,7.4,17.6l-10.6,25.9
	c-2.8,6.9-10.7,10.2-17.6,7.4l0,0C117.7,399.3,114.5,391.6,117.2,384.7z"/>
<path class="st3" d="M237.8,403.6l18.3-44.8c2.8-6.9,10.7-10.2,17.6-7.4l0,0c6.9,2.8,10.2,10.7,7.4,17.6l-18.3,44.8
	c-2.8,6.9-10.7,10.2-17.6,7.4l0,0C238.3,418.4,235,410.5,237.8,403.6z"/>
<path class="st3" d="M300,403.6l18.3-44.8c2.8-6.9,10.7-10.2,17.6-7.4l0,0c6.9,2.8,10.2,10.7,7.4,17.6L325,413.8
	c-2.8,6.9-10.7,10.2-17.6,7.4l0,0C300.5,418.4,297.2,410.5,300,403.6z"/>
</svg>
