<?xml version="1.0" encoding="utf-8"?>
<!-- Generator: Adobe Illustrator 26.0.3, SVG Export Plug-In . SVG Version: 6.00 Build 0)  -->
<svg version="1.1" xmlns="http://www.w3.org/2000/svg" xmlns:xlink="http://www.w3.org/1999/xlink" x="0px" y="0px"
	 viewBox="0 0 500 500" style="enable-background:new 0 0 500 500;" xml:space="preserve">
<style type="text/css">
	.st0{fill:#E3E3E3;}
	.st1{fill:#F6F6F6;}
	.st2{fill:#4FC0F2;}
</style>
<path class="st0" d="M401.8,157.6c-0.1,0-0.3,0-0.4,0c-4.4-47.3-44.2-84.4-92.6-84.4c-51.4,0-93,41.7-93,93
	c0,49.7,38.9,90.3,88,92.9v0.1h98.1c28.1,0,50.9-22.8,50.9-50.9S429.9,157.6,401.8,157.6z"/>
<path class="st1" d="M344.3,183.6C329.3,132.4,282.1,95,226,95c-67.3,0-121.9,54-123.2,120.9c-31.3,3.7-55.6,30.3-55.6,62.6
	c0,34.9,28.2,63.1,63.1,63.1H335c43.7,0,79.3-35.5,79.3-79.3C414.1,221.7,383.6,188.2,344.3,183.6z"/>
<path class="st2" d="M159.3,410L159.3,410c-7.4,0-13.5-6.1-13.5-13.5V367c0-7.4,6.1-13.5,13.5-13.5h0c7.4,0,13.5,6.1,13.5,13.5v29.5
	C172.8,404,166.8,410,159.3,410z"/>
<path class="st2" d="M219.2,427.3L219.2,427.3c-7.4,0-13.5-6.1-13.5-13.5V367c0-7.4,6.1-13.5,13.5-13.5h0c7.4,0,13.5,6.1,13.5,13.5
	v46.8C232.7,421.3,226.6,427.3,219.2,427.3z"/>
<path class="st2" d="M279.1,398.9L279.1,398.9c-7.4,0-13.5-6.1-13.5-13.5V367c0-7.4,6.1-13.5,13.5-13.5h0c7.4,0,13.5,6.1,13.5,13.5
	v18.4C292.6,392.8,286.5,398.9,279.1,398.9z"/>
<path class="st2" d="M338.9,416L338.9,416c-7.4,0-13.5-6.1-13.5-13.5V367c0-7.4,6.1-13.5,13.5-13.5h0c7.4,0,13.5,6.1,13.5,13.5v35.5
	C352.5,409.9,346.4,416,338.9,416z"/>
<circle class="st2" cx="279.1" cy="421" r="12.9"/>
<circle class="st2" cx="158.8" cy="433.9" r="12.9"/>
<path class="st2" d="M99.5,390.9L99.5,390.9c-7.4,0-13.5-6.1-13.5-13.5l0-10.4c0-7.4,6.1-13.5,13.5-13.5h0c7.4,0,13.5,6.1,13.5,13.5
	l0,10.4C113,384.9,106.9,390.9,99.5,390.9z"/>
</svg>
