<?xml version="1.0" encoding="utf-8"?>
<!-- Generator: Adobe Illustrator 26.0.3, SVG Export Plug-In . SVG Version: 6.00 Build 0)  -->
<svg version="1.1" xmlns="http://www.w3.org/2000/svg" xmlns:xlink="http://www.w3.org/1999/xlink" x="0px" y="0px"
	 viewBox="0 0 500 500" style="enable-background:new 0 0 500 500;" xml:space="preserve">
<style type="text/css">
	.st0{fill:#E3E3E3;}
	.st1{fill-rule:evenodd;clip-rule:evenodd;fill:#FFB55A;}
	.st2{fill:#F6F6F6;}
	.st3{fill:#4FC0F2;}
</style>
<g>
	<path class="st0" d="M400.2,186.3c-0.1,0-0.3,0-0.4,0c-4.3-46.8-43.7-83.4-91.6-83.4c-50.8,0-92,41.2-92,92
		c0,49.1,38.5,89.3,87,91.9v0.1h97c27.8,0,50.3-22.5,50.3-50.3C450.5,208.9,428,186.3,400.2,186.3z"/>
	<path class="st1" d="M353.1,150.5c-44.5,0-80.5-36-80.5-80.5c0-8.3,1.3-16.3,3.6-23.9c0.2-0.8-0.4-1.6-1.3-1.4
		c-36.6,6.8-64.6,38.5-65.6,76.8c-1.3,46,36.5,84,82.5,82.8c34-0.8,62.7-22.7,73.7-53.1c0.3-0.8-0.4-1.6-1.2-1.5
		C360.7,150.2,356.9,150.5,353.1,150.5z"/>
	<path class="st2" d="M343.3,212.1c-14.8-50.6-61.6-87.6-117-87.6c-66.5,0-120.6,53.3-121.8,119.6c-31,3.6-55,30-55,61.9
		c0,34.4,27.9,62.3,62.3,62.3H334c43.3,0,78.4-35.1,78.4-78.4C412.4,249.8,382.2,216.7,343.3,212.1z"/>
</g>
<g>
	<path class="st3" d="M175,422.9l10.6-25.9c2.8-6.9,10.7-10.2,17.6-7.4l0,0c6.9,2.8,10.2,10.7,7.4,17.6L200,433.1
		c-2.8,6.9-10.7,10.2-17.6,7.4h0C175.5,437.6,172.2,429.8,175,422.9z"/>
	<path class="st3" d="M243.4,441.7l18.3-44.8c2.8-6.9,10.7-10.2,17.6-7.4v0c6.9,2.8,10.2,10.7,7.4,17.6l-18.3,44.8
		c-2.8,6.9-10.7,10.2-17.6,7.4l0,0C243.9,456.5,240.6,448.6,243.4,441.7z"/>
</g>
</svg>
