<?xml version="1.0" encoding="utf-8"?>
<!-- Generator: Adobe Illustrator 26.0.3, SVG Export Plug-In . SVG Version: 6.00 Build 0)  -->
<svg version="1.1" id="图层_1" xmlns="http://www.w3.org/2000/svg" xmlns:xlink="http://www.w3.org/1999/xlink" x="0px" y="0px"
	 viewBox="0 0 500 500" style="enable-background:new 0 0 500 500;" xml:space="preserve">
<style type="text/css">
	.st0{fill:#E3E3E3;}
	.st1{fill:#F6F6F6;}
	.st2{fill:#4FC0F2;}
</style>
<path class="st0" d="M398.6,163.2c-0.1,0-0.3,0-0.4,0c-4.3-46.3-43.2-82.6-90.6-82.6c-50.3,0-91,40.8-91,91
	c0,48.6,38.1,88.3,86.1,90.9v0.1h96c27.5,0,49.8-22.3,49.8-49.8S426.1,163.2,398.6,163.2z"/>
<path class="st1" d="M342.3,188.7c-14.7-50.1-60.9-86.7-115.7-86.7c-65.8,0-119.3,52.8-120.5,118.3c-30.6,3.6-54.4,29.6-54.4,61.2
	c0,34.1,27.6,61.7,61.7,61.7h219.8c42.8,0,77.6-34.7,77.6-77.6C410.7,226,380.8,193.2,342.3,188.7z"/>
<g>
	<g>
		<path class="st2" d="M250,379.7L250,379.7c-0.7-0.9-0.6-2.1,0.2-2.9l4.3-3.7c0.9-0.7,2.1-0.6,2.9,0.2l0,0c0.7,0.9,0.6,2.1-0.2,2.9
			l-4.3,3.7C252,380.6,250.8,380.5,250,379.7z"/>
		<path class="st2" d="M250,379.7L250,379.7c0.7-0.9,0.6-2.1-0.2-2.9l-4.3-3.7c-0.9-0.7-2.1-0.6-2.9,0.2v0c-0.7,0.9-0.6,2.1,0.2,2.9
			l4.3,3.7C248,380.6,249.2,380.5,250,379.7z"/>
	</g>
	<g>
		<path class="st2" d="M236.5,387.4L236.5,387.4c-1.1,0.2-2.2-0.5-2.4-1.6l-1-5.5c-0.2-1.1,0.5-2.2,1.6-2.4l0,0
			c1.1-0.2,2.2,0.5,2.4,1.6l1,5.5C238.4,386.2,237.6,387.2,236.5,387.4z"/>
		<path class="st2" d="M236.5,387.5L236.5,387.5c-0.4-1.1-1.5-1.6-2.6-1.2l-5.3,1.9c-1.1,0.4-1.6,1.5-1.2,2.6l0,0
			c0.4,1.1,1.5,1.6,2.6,1.2l5.3-1.9C236.3,389.7,236.9,388.5,236.5,387.5z"/>
	</g>
	<g>
		<path class="st2" d="M236.5,403L236.5,403c-0.4,1.1-1.5,1.6-2.6,1.2l-5.3-1.9c-1.1-0.4-1.6-1.5-1.2-2.6l0,0
			c0.4-1.1,1.5-1.6,2.6-1.2l5.3,1.9C236.3,400.8,236.9,401.9,236.5,403z"/>
		<path class="st2" d="M236.5,403L236.5,403c-1.1-0.2-2.2,0.5-2.4,1.6l-1,5.5c-0.2,1.1,0.5,2.2,1.6,2.4l0,0c1.1,0.2,2.2-0.5,2.4-1.6
			l1-5.5C238.4,404.3,237.6,403.3,236.5,403z"/>
	</g>
	<g>
		<path class="st2" d="M263.5,387.4L263.5,387.4c1.1,0.2,2.2-0.5,2.4-1.6l1-5.5c0.2-1.1-0.5-2.2-1.6-2.4l0,0
			c-1.1-0.2-2.2,0.5-2.4,1.6l-1,5.5C261.6,386.2,262.4,387.2,263.5,387.4z"/>
		<path class="st2" d="M263.5,387.5L263.5,387.5c0.4-1.1,1.5-1.6,2.6-1.2l5.3,1.9c1.1,0.4,1.6,1.5,1.2,2.6l0,0
			c-0.4,1.1-1.5,1.6-2.6,1.2l-5.3-1.9C263.7,389.7,263.1,388.5,263.5,387.5z"/>
	</g>
	<g>
		<path class="st2" d="M263.5,403L263.5,403c0.4,1.1,1.5,1.6,2.6,1.2l5.3-1.9c1.1-0.4,1.6-1.5,1.2-2.6l0,0c-0.4-1.1-1.5-1.6-2.6-1.2
			l-5.3,1.9C263.7,400.8,263.1,401.9,263.5,403z"/>
		<path class="st2" d="M263.5,403L263.5,403c1.1-0.2,2.2,0.5,2.4,1.6l1,5.5c0.2,1.1-0.5,2.2-1.6,2.4l0,0c-1.1,0.2-2.2-0.5-2.4-1.6
			l-1-5.5C261.6,404.3,262.4,403.3,263.5,403z"/>
	</g>
	<g>
		<path class="st2" d="M250,410.8L250,410.8c0.7,0.9,0.6,2.1-0.2,2.9l-4.3,3.7c-0.9,0.7-2.1,0.6-2.9-0.2l0,0
			c-0.7-0.9-0.6-2.1,0.2-2.9l4.3-3.7C248,409.9,249.2,410,250,410.8z"/>
		<path class="st2" d="M250,410.8L250,410.8c-0.7,0.9-0.6,2.1,0.2,2.9l4.3,3.7c0.9,0.7,2.1,0.6,2.9-0.2h0c0.7-0.9,0.6-2.1-0.2-2.9
			l-4.3-3.7C252,409.9,250.8,410,250,410.8z"/>
	</g>
	<path class="st2" d="M270,404.1l-15.3-8.8l15.3-8.8c1.1-0.6,1.5-2.1,0.9-3.2h0c-0.6-1.1-2.1-1.5-3.2-0.9l-15.3,8.8v-17.7
		c0-1.3-1-2.3-2.3-2.3c-1.3,0-2.3,1-2.3,2.3v17.7l-15.3-8.8c-1.1-0.6-2.6-0.3-3.2,0.9c-0.6,1.1-0.3,2.6,0.9,3.2l15.3,8.8l-15.3,8.8
		c-1.1,0.6-1.5,2.1-0.9,3.2c0.6,1.1,2.1,1.5,3.2,0.9l15.3-8.8V417c0,1.3,1,2.3,2.3,2.3c1.3,0,2.3-1,2.3-2.3v-17.7l15.3,8.8
		c1.1,0.6,2.6,0.3,3.2-0.9h0C271.5,406.2,271.1,404.7,270,404.1z"/>
</g>
</svg>
