<?xml version="1.0" encoding="utf-8"?>
<!-- Generator: Adobe Illustrator 26.0.3, SVG Export Plug-In . SVG Version: 6.00 Build 0)  -->
<svg version="1.1" xmlns="http://www.w3.org/2000/svg" xmlns:xlink="http://www.w3.org/1999/xlink" x="0px" y="0px"
	 viewBox="0 0 500 500" style="enable-background:new 0 0 500 500;" xml:space="preserve">
<style type="text/css">
	.st0{fill:#E3E3E3;}
	.st1{fill:#F6F6F6;}
	.st2{fill:#4FC0F2;}
</style>
<path class="st0" d="M391.8,159.9c-0.1,0-0.3,0-0.4,0c-4.1-44.2-41.2-78.8-86.5-78.8c-48,0-86.9,38.9-86.9,86.9
	c0,46.4,36.4,84.3,82.2,86.8v0.1h91.6c26.2,0,47.5-21.3,47.5-47.5S418,159.9,391.8,159.9z"/>
<path class="st1" d="M338.1,184.2c-14-47.8-58.1-82.7-110.5-82.7c-62.8,0-113.9,50.4-115.1,112.9c-29.2,3.4-51.9,28.3-51.9,58.5
	c0,32.5,26.4,58.9,58.9,58.9h209.8c40.9,0,74-33.1,74-74C403.3,219.8,374.8,188.5,338.1,184.2z"/>
<g>
	<g>
		<path class="st2" d="M138.4,366.2L138.4,366.2c-0.9-1.1-0.8-2.8,0.3-3.7l5.6-4.8c1.1-0.9,2.8-0.8,3.7,0.3l0,0
			c0.9,1.1,0.8,2.8-0.3,3.7l-5.6,4.8C141,367.5,139.4,367.3,138.4,366.2z"/>
		<path class="st2" d="M138.3,366.2L138.3,366.2c0.9-1.1,0.8-2.8-0.3-3.7l-5.6-4.8c-1.1-0.9-2.8-0.8-3.7,0.3l0,0
			c-0.9,1.1-0.8,2.8,0.3,3.7l5.6,4.8C135.7,367.5,137.4,367.3,138.3,366.2z"/>
	</g>
	<g>
		<path class="st2" d="M120.8,376.3L120.8,376.3c-1.4,0.3-2.8-0.7-3.1-2.1l-1.3-7.2c-0.3-1.4,0.7-2.8,2.1-3.1h0
			c1.4-0.3,2.8,0.7,3.1,2.1l1.3,7.2C123.2,374.7,122.3,376.1,120.8,376.3z"/>
		<path class="st2" d="M120.8,376.4L120.8,376.4c-0.5-1.4-2-2.1-3.4-1.6l-6.9,2.5c-1.4,0.5-2.1,2-1.6,3.4l0,0c0.5,1.4,2,2.1,3.4,1.6
			l6.9-2.5C120.6,379.3,121.3,377.8,120.8,376.4z"/>
	</g>
	<g>
		<path class="st2" d="M120.8,396.6L120.8,396.6c-0.5,1.4-2,2.1-3.4,1.6l-6.9-2.5c-1.4-0.5-2.1-2-1.6-3.4l0,0c0.5-1.4,2-2.1,3.4-1.6
			l6.9,2.5C120.6,393.7,121.3,395.2,120.8,396.6z"/>
		<path class="st2" d="M120.8,396.7L120.8,396.7c-1.4-0.3-2.8,0.7-3.1,2.1l-1.3,7.2c-0.3,1.4,0.7,2.8,2.1,3.1h0
			c1.4,0.3,2.8-0.7,3.1-2.1l1.3-7.2C123.2,398.3,122.3,396.9,120.8,396.7z"/>
	</g>
	<g>
		<path class="st2" d="M155.9,376.3L155.9,376.3c1.4,0.3,2.8-0.7,3.1-2.1l1.3-7.2c0.3-1.4-0.7-2.8-2.1-3.1l0,0
			c-1.4-0.3-2.8,0.7-3.1,2.1l-1.3,7.2C153.6,374.7,154.5,376.1,155.9,376.3z"/>
		<path class="st2" d="M156,376.4L156,376.4c0.5-1.4,2-2.1,3.4-1.6l6.9,2.5c1.4,0.5,2.1,2,1.6,3.4h0c-0.5,1.4-2,2.1-3.4,1.6
			l-6.9-2.5C156.2,379.3,155.5,377.8,156,376.4z"/>
	</g>
	<g>
		<path class="st2" d="M156,396.6L156,396.6c0.5,1.4,2,2.1,3.4,1.6l6.9-2.5c1.4-0.5,2.1-2,1.6-3.4h0c-0.5-1.4-2-2.1-3.4-1.6
			l-6.9,2.5C156.2,393.7,155.5,395.2,156,396.6z"/>
		<path class="st2" d="M155.9,396.7L155.9,396.7c1.4-0.3,2.8,0.7,3.1,2.1l1.3,7.2c0.3,1.4-0.7,2.8-2.1,3.1l0,0
			c-1.4,0.3-2.8-0.7-3.1-2.1l-1.3-7.2C153.6,398.3,154.5,396.9,155.9,396.7z"/>
	</g>
	<g>
		<path class="st2" d="M138.3,406.8L138.3,406.8c0.9,1.1,0.8,2.8-0.3,3.7l-5.6,4.8c-1.1,0.9-2.8,0.8-3.7-0.3l0,0
			c-0.9-1.1-0.8-2.8,0.3-3.7l5.6-4.8C135.7,405.5,137.4,405.7,138.3,406.8z"/>
		<path class="st2" d="M138.4,406.8L138.4,406.8c-0.9,1.1-0.8,2.8,0.3,3.7l5.6,4.8c1.1,0.9,2.8,0.8,3.7-0.3l0,0
			c0.9-1.1,0.8-2.8-0.3-3.7l-5.6-4.8C141,405.5,139.4,405.7,138.4,406.8z"/>
	</g>
	<path class="st2" d="M164.4,398l-19.9-11.5l19.9-11.5c1.5-0.8,2-2.7,1.1-4.2h0c-0.8-1.5-2.7-2-4.2-1.1l-20,11.5v-23
		c0-1.7-1.4-3.1-3.1-3.1c-1.7,0-3.1,1.4-3.1,3.1v23l-20-11.5c-1.5-0.8-3.3-0.3-4.2,1.1c-0.8,1.5-0.3,3.3,1.1,4.2l19.9,11.5
		L112.3,398c-1.5,0.8-2,2.7-1.1,4.2s2.7,2,4.2,1.1l20-11.5v23c0,1.7,1.4,3.1,3.1,3.1c1.7,0,3.1-1.4,3.1-3.1v-23l20,11.5
		c1.5,0.8,3.3,0.3,4.2-1.1h0C166.4,400.7,165.9,398.9,164.4,398z"/>
</g>
<g>
	<g>
		<path class="st2" d="M240.5,367.3L240.5,367.3c-0.9-1.1-0.8-2.8,0.3-3.7l5.6-4.8c1.1-0.9,2.8-0.8,3.7,0.3v0
			c0.9,1.1,0.8,2.8-0.3,3.7l-5.6,4.8C243.1,368.5,241.5,368.4,240.5,367.3z"/>
		<path class="st2" d="M240.4,367.3L240.4,367.3c0.9-1.1,0.8-2.8-0.3-3.7l-5.6-4.8c-1.1-0.9-2.8-0.8-3.7,0.3v0
			c-0.9,1.1-0.8,2.8,0.3,3.7l5.6,4.8C237.8,368.5,239.5,368.4,240.4,367.3z"/>
	</g>
	<g>
		<path class="st2" d="M222.9,377.4L222.9,377.4c-1.4,0.3-2.8-0.7-3.1-2.1l-1.3-7.2c-0.3-1.4,0.7-2.8,2.1-3.1h0
			c1.4-0.3,2.8,0.7,3.1,2.1l1.3,7.2C225.3,375.8,224.3,377.1,222.9,377.4z"/>
		<path class="st2" d="M222.9,377.5L222.9,377.5c-0.5-1.4-2-2.1-3.4-1.6l-6.9,2.5c-1.4,0.5-2.1,2-1.6,3.4l0,0c0.5,1.4,2,2.1,3.4,1.6
			l6.9-2.5C222.6,380.4,223.4,378.8,222.9,377.5z"/>
	</g>
	<g>
		<path class="st2" d="M222.9,397.7L222.9,397.7c-0.5,1.4-2,2.1-3.4,1.6l-6.9-2.5c-1.4-0.5-2.1-2-1.6-3.4l0,0c0.5-1.4,2-2.1,3.4-1.6
			l6.9,2.5C222.6,394.8,223.4,396.3,222.9,397.7z"/>
		<path class="st2" d="M222.9,397.7L222.9,397.7c-1.4-0.3-2.8,0.7-3.1,2.1l-1.3,7.2c-0.3,1.4,0.7,2.8,2.1,3.1l0,0
			c1.4,0.3,2.8-0.7,3.1-2.1l1.3-7.2C225.3,399.4,224.3,398,222.9,397.7z"/>
	</g>
	<g>
		<path class="st2" d="M258,377.4L258,377.4c1.4,0.3,2.8-0.7,3.1-2.1l1.3-7.2c0.3-1.4-0.7-2.8-2.1-3.1h0c-1.4-0.3-2.8,0.7-3.1,2.1
			l-1.3,7.2C255.6,375.8,256.6,377.1,258,377.4z"/>
		<path class="st2" d="M258.1,377.5L258.1,377.5c0.5-1.4,2-2.1,3.4-1.6l6.9,2.5c1.4,0.5,2.1,2,1.6,3.4l0,0c-0.5,1.4-2,2.1-3.4,1.6
			l-6.9-2.5C258.3,380.4,257.6,378.8,258.1,377.5z"/>
	</g>
	<g>
		<path class="st2" d="M258.1,397.7L258.1,397.7c0.5,1.4,2,2.1,3.4,1.6l6.9-2.5c1.4-0.5,2.1-2,1.6-3.4l0,0c-0.5-1.4-2-2.1-3.4-1.6
			l-6.9,2.5C258.3,394.8,257.6,396.3,258.1,397.7z"/>
		<path class="st2" d="M258,397.7L258,397.7c1.4-0.3,2.8,0.7,3.1,2.1l1.3,7.2c0.3,1.4-0.7,2.8-2.1,3.1h0c-1.4,0.3-2.8-0.7-3.1-2.1
			l-1.3-7.2C255.6,399.4,256.6,398,258,397.7z"/>
	</g>
	<g>
		<path class="st2" d="M240.4,407.9L240.4,407.9c0.9,1.1,0.8,2.8-0.3,3.7l-5.6,4.8c-1.1,0.9-2.8,0.8-3.7-0.3l0,0
			c-0.9-1.1-0.8-2.8,0.3-3.7l5.6-4.8C237.8,406.6,239.5,406.8,240.4,407.9z"/>
		<path class="st2" d="M240.5,407.9L240.5,407.9c-0.9,1.1-0.8,2.8,0.3,3.7l5.6,4.8c1.1,0.9,2.8,0.8,3.7-0.3l0,0
			c0.9-1.1,0.8-2.8-0.3-3.7l-5.6-4.8C243.1,406.6,241.5,406.8,240.5,407.9z"/>
	</g>
	<path class="st2" d="M266.5,399.1l-19.9-11.5l19.9-11.5c1.5-0.8,2-2.7,1.1-4.2h0c-0.8-1.5-2.7-2-4.2-1.1l-20,11.5v-23
		c0-1.7-1.4-3.1-3.1-3.1c-1.7,0-3.1,1.4-3.1,3.1v23l-20-11.5c-1.5-0.8-3.3-0.3-4.2,1.1c-0.8,1.5-0.3,3.3,1.1,4.2l19.9,11.5
		l-19.9,11.5c-1.5,0.8-2,2.7-1.1,4.2s2.7,2,4.2,1.1l20-11.5v23c0,1.7,1.4,3.1,3.1,3.1c1.7,0,3.1-1.4,3.1-3.1v-23l20,11.5
		c1.5,0.8,3.3,0.3,4.2-1.1h0C268.5,401.8,268,399.9,266.5,399.1z"/>
</g>
<g>
	<g>
		<path class="st2" d="M342.6,366.2L342.6,366.2c-0.9-1.1-0.8-2.8,0.3-3.7l5.6-4.8c1.1-0.9,2.8-0.8,3.7,0.3l0,0
			c0.9,1.1,0.8,2.8-0.3,3.7l-5.6,4.8C345.2,367.5,343.5,367.4,342.6,366.2z"/>
		<path class="st2" d="M342.5,366.2L342.5,366.2c0.9-1.1,0.8-2.8-0.3-3.7l-5.6-4.8c-1.1-0.9-2.8-0.8-3.7,0.3h0
			c-0.9,1.1-0.8,2.8,0.3,3.7l5.6,4.8C339.9,367.5,341.6,367.4,342.5,366.2z"/>
	</g>
	<g>
		<path class="st2" d="M325,376.4L325,376.4c-1.4,0.3-2.8-0.7-3.1-2.1l-1.3-7.2c-0.3-1.4,0.7-2.8,2.1-3.1l0,0
			c1.4-0.3,2.8,0.7,3.1,2.1l1.3,7.2C327.4,374.7,326.4,376.1,325,376.4z"/>
		<path class="st2" d="M325,376.4L325,376.4c-0.5-1.4-2-2.1-3.4-1.6l-6.9,2.5c-1.4,0.5-2.1,2-1.6,3.4l0,0c0.5,1.4,2,2.1,3.4,1.6
			l6.9-2.5C324.7,379.3,325.5,377.8,325,376.4z"/>
	</g>
	<g>
		<path class="st2" d="M325,396.6L325,396.6c-0.5,1.4-2,2.1-3.4,1.6l-6.9-2.5c-1.4-0.5-2.1-2-1.6-3.4l0,0c0.5-1.4,2-2.1,3.4-1.6
			l6.9,2.5C324.7,393.8,325.5,395.3,325,396.6z"/>
		<path class="st2" d="M325,396.7L325,396.7c-1.4-0.3-2.8,0.7-3.1,2.1l-1.3,7.2c-0.3,1.4,0.7,2.8,2.1,3.1l0,0
			c1.4,0.3,2.8-0.7,3.1-2.1l1.3-7.2C327.4,398.3,326.4,397,325,396.7z"/>
	</g>
	<g>
		<path class="st2" d="M360.1,376.4L360.1,376.4c1.4,0.3,2.8-0.7,3.1-2.1l1.3-7.2c0.3-1.4-0.7-2.8-2.1-3.1h0
			c-1.4-0.3-2.8,0.7-3.1,2.1l-1.3,7.2C357.7,374.7,358.7,376.1,360.1,376.4z"/>
		<path class="st2" d="M360.2,376.4L360.2,376.4c0.5-1.4,2-2.1,3.4-1.6l6.9,2.5c1.4,0.5,2.1,2,1.6,3.4l0,0c-0.5,1.4-2,2.1-3.4,1.6
			l-6.9-2.5C360.4,379.3,359.7,377.8,360.2,376.4z"/>
	</g>
	<g>
		<path class="st2" d="M360.2,396.6L360.2,396.6c0.5,1.4,2,2.1,3.4,1.6l6.9-2.5c1.4-0.5,2.1-2,1.6-3.4l0,0c-0.5-1.4-2-2.1-3.4-1.6
			l-6.9,2.5C360.4,393.8,359.7,395.3,360.2,396.6z"/>
		<path class="st2" d="M360.1,396.7L360.1,396.7c1.4-0.3,2.8,0.7,3.1,2.1l1.3,7.2c0.3,1.4-0.7,2.8-2.1,3.1h0
			c-1.4,0.3-2.8-0.7-3.1-2.1l-1.3-7.2C357.7,398.3,358.7,397,360.1,396.7z"/>
	</g>
	<g>
		<path class="st2" d="M342.5,406.8L342.5,406.8c0.9,1.1,0.8,2.8-0.3,3.7l-5.6,4.8c-1.1,0.9-2.8,0.8-3.7-0.3h0
			c-0.9-1.1-0.8-2.8,0.3-3.7l5.6-4.8C339.9,405.6,341.6,405.7,342.5,406.8z"/>
		<path class="st2" d="M342.6,406.8L342.6,406.8c-0.9,1.1-0.8,2.8,0.3,3.7l5.6,4.8c1.1,0.9,2.8,0.8,3.7-0.3l0,0
			c0.9-1.1,0.8-2.8-0.3-3.7l-5.6-4.8C345.2,405.6,343.5,405.7,342.6,406.8z"/>
	</g>
	<path class="st2" d="M368.6,398l-19.9-11.5l19.9-11.5c1.5-0.8,2-2.7,1.1-4.2h0c-0.8-1.5-2.7-2-4.2-1.1l-20,11.5v-23
		c0-1.7-1.4-3.1-3.1-3.1c-1.7,0-3.1,1.4-3.1,3.1v23l-20-11.5c-1.5-0.8-3.3-0.3-4.2,1.1c-0.8,1.5-0.3,3.3,1.1,4.2l19.9,11.5
		L316.5,398c-1.5,0.8-2,2.7-1.1,4.2s2.7,2,4.2,1.1l20-11.5v23c0,1.7,1.4,3.1,3.1,3.1c1.7,0,3.1-1.4,3.1-3.1v-23l20,11.5
		c1.5,0.8,3.3,0.3,4.2-1.1h0C370.6,400.8,370.1,398.9,368.6,398z"/>
</g>
</svg>
