<?xml version="1.0" encoding="utf-8"?>
<!-- Generator: Adobe Illustrator 26.0.3, SVG Export Plug-In . SVG Version: 6.00 Build 0)  -->
<svg version="1.1" id="图层_1" xmlns="http://www.w3.org/2000/svg" xmlns:xlink="http://www.w3.org/1999/xlink" x="0px" y="0px"
	 viewBox="0 0 500 500" style="enable-background:new 0 0 500 500;" xml:space="preserve">
<style type="text/css">
	.st0{fill:#E3E3E3;}
	.st1{fill:#F6F6F6;}
	.st2{fill:#4FC0F2;}
</style>
<path class="st0" d="M398.6,160.1c-0.1,0-0.3,0-0.4,0c-4.3-46.3-43.2-82.6-90.6-82.6c-50.3,0-91,40.8-91,91
	c0,48.6,38.1,88.3,86.1,90.9v0.1h96c27.5,0,49.8-22.3,49.8-49.8S426.1,160.1,398.6,160.1z"/>
<path class="st1" d="M342.3,185.6c-14.7-50.1-60.9-86.7-115.7-86.7c-65.8,0-119.3,52.8-120.5,118.3c-30.6,3.6-54.4,29.6-54.4,61.2
	c0,34.1,27.6,61.7,61.7,61.7h219.8c42.8,0,77.6-34.7,77.6-77.6C410.7,222.9,380.8,190.1,342.3,185.6z"/>
<g>
	<g>
		<path class="st2" d="M110.7,370.8L110.7,370.8c-0.9-1.1-0.8-2.8,0.3-3.7l5.6-4.8c1.1-0.9,2.8-0.8,3.7,0.3l0,0
			c0.9,1.1,0.8,2.8-0.3,3.7l-5.6,4.8C113.3,372,111.7,371.9,110.7,370.8z"/>
		<path class="st2" d="M110.6,370.8L110.6,370.8c0.9-1.1,0.8-2.8-0.3-3.7l-5.6-4.8c-1.1-0.9-2.8-0.8-3.7,0.3l0,0
			c-0.9,1.1-0.8,2.8,0.3,3.7l5.6,4.8C108,372,109.7,371.9,110.6,370.8z"/>
	</g>
	<g>
		<path class="st2" d="M93.1,380.9L93.1,380.9c-1.4,0.3-2.8-0.7-3.1-2.1l-1.3-7.2c-0.3-1.4,0.7-2.8,2.1-3.1l0,0
			c1.4-0.3,2.8,0.7,3.1,2.1l1.3,7.2C95.5,379.2,94.5,380.6,93.1,380.9z"/>
		<path class="st2" d="M93.1,380.9L93.1,380.9c-0.5-1.4-2-2.1-3.4-1.6l-6.9,2.5c-1.4,0.5-2.1,2-1.6,3.4l0,0c0.5,1.4,2,2.1,3.4,1.6
			l6.9-2.5C92.8,383.8,93.6,382.3,93.1,380.9z"/>
	</g>
	<g>
		<path class="st2" d="M93.1,401.2L93.1,401.2c-0.5,1.4-2,2.1-3.4,1.6l-6.9-2.5c-1.4-0.5-2.1-2-1.6-3.4l0,0c0.5-1.4,2-2.1,3.4-1.6
			l6.9,2.5C92.8,398.3,93.6,399.8,93.1,401.2z"/>
		<path class="st2" d="M93.1,401.2L93.1,401.2c-1.4-0.3-2.8,0.7-3.1,2.1l-1.3,7.2c-0.3,1.4,0.7,2.8,2.1,3.1l0,0
			c1.4,0.3,2.8-0.7,3.1-2.1l1.3-7.2C95.5,402.9,94.5,401.5,93.1,401.2z"/>
	</g>
	<g>
		<path class="st2" d="M128.2,380.9L128.2,380.9c1.4,0.3,2.8-0.7,3.1-2.1l1.3-7.2c0.3-1.4-0.7-2.8-2.1-3.1h0
			c-1.4-0.3-2.8,0.7-3.1,2.1l-1.3,7.2C125.8,379.2,126.8,380.6,128.2,380.9z"/>
		<path class="st2" d="M128.3,380.9L128.3,380.9c0.5-1.4,2-2.1,3.4-1.6l6.9,2.5c1.4,0.5,2.1,2,1.6,3.4l0,0c-0.5,1.4-2,2.1-3.4,1.6
			l-6.9-2.5C128.5,383.8,127.8,382.3,128.3,380.9z"/>
	</g>
	<g>
		<path class="st2" d="M128.3,401.2L128.3,401.2c0.5,1.4,2,2.1,3.4,1.6l6.9-2.5c1.4-0.5,2.1-2,1.6-3.4v0c-0.5-1.4-2-2.1-3.4-1.6
			l-6.9,2.5C128.5,398.3,127.8,399.8,128.3,401.2z"/>
		<path class="st2" d="M128.2,401.2L128.2,401.2c1.4-0.3,2.8,0.7,3.1,2.1l1.3,7.2c0.3,1.4-0.7,2.8-2.1,3.1h0
			c-1.4,0.3-2.8-0.7-3.1-2.1l-1.3-7.2C125.8,402.9,126.8,401.5,128.2,401.2z"/>
	</g>
	<g>
		<path class="st2" d="M110.6,411.4L110.6,411.4c0.9,1.1,0.8,2.8-0.3,3.7l-5.6,4.8c-1.1,0.9-2.8,0.8-3.7-0.3l0,0
			c-0.9-1.1-0.8-2.8,0.3-3.7l5.6-4.8C108,410.1,109.7,410.2,110.6,411.4z"/>
		<path class="st2" d="M110.7,411.4L110.7,411.4c-0.9,1.1-0.8,2.8,0.3,3.7l5.6,4.8c1.1,0.9,2.8,0.8,3.7-0.3l0,0
			c0.9-1.1,0.8-2.8-0.3-3.7l-5.6-4.8C113.3,410.1,111.7,410.2,110.7,411.4z"/>
	</g>
	<path class="st2" d="M136.7,402.6l-19.9-11.5l19.9-11.5c1.5-0.8,2-2.7,1.1-4.2h0c-0.8-1.5-2.7-2-4.2-1.1l-20,11.5v-23
		c0-1.7-1.4-3.1-3.1-3.1c-1.7,0-3.1,1.4-3.1,3.1v23l-20-11.5c-1.5-0.8-3.3-0.3-4.2,1.1c-0.8,1.5-0.3,3.3,1.1,4.2l19.9,11.5
		l-19.9,11.5c-1.5,0.8-2,2.7-1.1,4.2s2.7,2,4.2,1.1l20-11.5v23c0,1.7,1.4,3.1,3.1,3.1c1.7,0,3.1-1.4,3.1-3.1v-23l20,11.5
		c1.5,0.8,3.3,0.3,4.2-1.1h0C138.7,405.3,138.2,403.4,136.7,402.6z"/>
</g>
<g>
	<g>
		<path class="st2" d="M202.4,370.8L202.4,370.8c-0.9-1.1-0.8-2.8,0.3-3.7l5.6-4.8c1.1-0.9,2.8-0.8,3.7,0.3l0,0
			c0.9,1.1,0.8,2.8-0.3,3.7l-5.6,4.8C205,372,203.4,371.9,202.4,370.8z"/>
		<path class="st2" d="M202.4,370.8L202.4,370.8c0.9-1.1,0.8-2.8-0.3-3.7l-5.6-4.8c-1.1-0.9-2.8-0.8-3.7,0.3l0,0
			c-0.9,1.1-0.8,2.8,0.3,3.7l5.6,4.8C199.7,372,201.4,371.9,202.4,370.8z"/>
	</g>
	<g>
		<path class="st2" d="M184.8,380.9L184.8,380.9c-1.4,0.3-2.8-0.7-3.1-2.1l-1.3-7.2c-0.3-1.4,0.7-2.8,2.1-3.1l0,0
			c1.4-0.3,2.8,0.7,3.1,2.1l1.3,7.2C187.2,379.2,186.3,380.6,184.8,380.9z"/>
		<path class="st2" d="M184.8,380.9L184.8,380.9c-0.5-1.4-2-2.1-3.4-1.6l-6.9,2.5c-1.4,0.5-2.1,2-1.6,3.4l0,0c0.5,1.4,2,2.1,3.4,1.6
			l6.9-2.5C184.6,383.8,185.3,382.3,184.8,380.9z"/>
	</g>
	<g>
		<path class="st2" d="M184.8,401.2L184.8,401.2c-0.5,1.4-2,2.1-3.4,1.6l-6.9-2.5c-1.4-0.5-2.1-2-1.6-3.4l0,0c0.5-1.4,2-2.1,3.4-1.6
			l6.9,2.5C184.6,398.3,185.3,399.8,184.8,401.2z"/>
		<path class="st2" d="M184.8,401.2L184.8,401.2c-1.4-0.3-2.8,0.7-3.1,2.1l-1.3,7.2c-0.3,1.4,0.7,2.8,2.1,3.1l0,0
			c1.4,0.3,2.8-0.7,3.1-2.1l1.3-7.2C187.2,402.9,186.3,401.5,184.8,401.2z"/>
	</g>
	<g>
		<path class="st2" d="M220,380.9L220,380.9c1.4,0.3,2.8-0.7,3.1-2.1l1.3-7.2c0.3-1.4-0.7-2.8-2.1-3.1h0c-1.4-0.3-2.8,0.7-3.1,2.1
			l-1.3,7.2C217.6,379.2,218.5,380.6,220,380.9z"/>
		<path class="st2" d="M220,380.9L220,380.9c0.5-1.4,2-2.1,3.4-1.6l6.9,2.5c1.4,0.5,2.1,2,1.6,3.4l0,0c-0.5,1.4-2,2.1-3.4,1.6
			l-6.9-2.5C220.2,383.8,219.5,382.3,220,380.9z"/>
	</g>
	<g>
		<path class="st2" d="M220,401.2L220,401.2c0.5,1.4,2,2.1,3.4,1.6l6.9-2.5c1.4-0.5,2.1-2,1.6-3.4v0c-0.5-1.4-2-2.1-3.4-1.6
			l-6.9,2.5C220.2,398.3,219.5,399.8,220,401.2z"/>
		<path class="st2" d="M220,401.2L220,401.2c1.4-0.3,2.8,0.7,3.1,2.1l1.3,7.2c0.3,1.4-0.7,2.8-2.1,3.1h0c-1.4,0.3-2.8-0.7-3.1-2.1
			l-1.3-7.2C217.6,402.9,218.5,401.5,220,401.2z"/>
	</g>
	<g>
		<path class="st2" d="M202.4,411.4L202.4,411.4c0.9,1.1,0.8,2.8-0.3,3.7l-5.6,4.8c-1.1,0.9-2.8,0.8-3.7-0.3l0,0
			c-0.9-1.1-0.8-2.8,0.3-3.7l5.6-4.8C199.7,410.1,201.4,410.2,202.4,411.4z"/>
		<path class="st2" d="M202.4,411.4L202.4,411.4c-0.9,1.1-0.8,2.8,0.3,3.7l5.6,4.8c1.1,0.9,2.8,0.8,3.7-0.3l0,0
			c0.9-1.1,0.8-2.8-0.3-3.7l-5.6-4.8C205,410.1,203.4,410.2,202.4,411.4z"/>
	</g>
	<path class="st2" d="M228.4,402.6l-19.9-11.5l19.9-11.5c1.5-0.8,2-2.7,1.1-4.2h0c-0.8-1.5-2.7-2-4.2-1.1l-20,11.5v-23
		c0-1.7-1.4-3.1-3.1-3.1c-1.7,0-3.1,1.4-3.1,3.1v23l-20-11.5c-1.5-0.8-3.3-0.3-4.2,1.1c-0.8,1.5-0.3,3.3,1.1,4.2l19.9,11.5
		l-19.9,11.5c-1.5,0.8-2,2.7-1.1,4.2s2.7,2,4.2,1.1l20-11.5v23c0,1.7,1.4,3.1,3.1,3.1c1.7,0,3.1-1.4,3.1-3.1v-23l20,11.5
		c1.5,0.8,3.3,0.3,4.2-1.1h0C230.4,405.3,229.9,403.4,228.4,402.6z"/>
</g>
<g>
	<g>
		<path class="st2" d="M294.1,370.8L294.1,370.8c-0.9-1.1-0.8-2.8,0.3-3.7l5.6-4.8c1.1-0.9,2.8-0.8,3.7,0.3l0,0
			c0.9,1.1,0.8,2.8-0.3,3.7l-5.6,4.8C296.8,372,295.1,371.9,294.1,370.8z"/>
		<path class="st2" d="M294.1,370.8L294.1,370.8c0.9-1.1,0.8-2.8-0.3-3.7l-5.6-4.8c-1.1-0.9-2.8-0.8-3.7,0.3l0,0
			c-0.9,1.1-0.8,2.8,0.3,3.7l5.6,4.8C291.4,372,293.1,371.9,294.1,370.8z"/>
	</g>
	<g>
		<path class="st2" d="M276.5,380.9L276.5,380.9c-1.4,0.3-2.8-0.7-3.1-2.1l-1.3-7.2c-0.3-1.4,0.7-2.8,2.1-3.1l0,0
			c1.4-0.3,2.8,0.7,3.1,2.1l1.3,7.2C278.9,379.2,278,380.6,276.5,380.9z"/>
		<path class="st2" d="M276.5,380.9L276.5,380.9c-0.5-1.4-2-2.1-3.4-1.6l-6.9,2.5c-1.4,0.5-2.1,2-1.6,3.4l0,0c0.5,1.4,2,2.1,3.4,1.6
			l6.9-2.5C276.3,383.8,277,382.3,276.5,380.9z"/>
	</g>
	<g>
		<path class="st2" d="M276.5,401.2L276.5,401.2c-0.5,1.4-2,2.1-3.4,1.6l-6.9-2.5c-1.4-0.5-2.1-2-1.6-3.4l0,0c0.5-1.4,2-2.1,3.4-1.6
			l6.9,2.5C276.3,398.3,277,399.8,276.5,401.2z"/>
		<path class="st2" d="M276.5,401.2L276.5,401.2c-1.4-0.3-2.8,0.7-3.1,2.1l-1.3,7.2c-0.3,1.4,0.7,2.8,2.1,3.1l0,0
			c1.4,0.3,2.8-0.7,3.1-2.1l1.3-7.2C278.9,402.9,278,401.5,276.5,401.2z"/>
	</g>
	<g>
		<path class="st2" d="M311.7,380.9L311.7,380.9c1.4,0.3,2.8-0.7,3.1-2.1l1.3-7.2c0.3-1.4-0.7-2.8-2.1-3.1l0,0
			c-1.4-0.3-2.8,0.7-3.1,2.1l-1.3,7.2C309.3,379.2,310.2,380.6,311.7,380.9z"/>
		<path class="st2" d="M311.7,380.9L311.7,380.9c0.5-1.4,2-2.1,3.4-1.6l6.9,2.5c1.4,0.5,2.1,2,1.6,3.4l0,0c-0.5,1.4-2,2.1-3.4,1.6
			l-6.9-2.5C311.9,383.8,311.2,382.3,311.7,380.9z"/>
	</g>
	<g>
		<path class="st2" d="M311.7,401.2L311.7,401.2c0.5,1.4,2,2.1,3.4,1.6l6.9-2.5c1.4-0.5,2.1-2,1.6-3.4v0c-0.5-1.4-2-2.1-3.4-1.6
			l-6.9,2.5C311.9,398.3,311.2,399.8,311.7,401.2z"/>
		<path class="st2" d="M311.7,401.2L311.7,401.2c1.4-0.3,2.8,0.7,3.1,2.1l1.3,7.2c0.3,1.4-0.7,2.8-2.1,3.1l0,0
			c-1.4,0.3-2.8-0.7-3.1-2.1l-1.3-7.2C309.3,402.9,310.2,401.5,311.7,401.2z"/>
	</g>
	<g>
		<path class="st2" d="M294.1,411.4L294.1,411.4c0.9,1.1,0.8,2.8-0.3,3.7l-5.6,4.8c-1.1,0.9-2.8,0.8-3.7-0.3l0,0
			c-0.9-1.1-0.8-2.8,0.3-3.7l5.6-4.8C291.4,410.1,293.1,410.2,294.1,411.4z"/>
		<path class="st2" d="M294.1,411.4L294.1,411.4c-0.9,1.1-0.8,2.8,0.3,3.7l5.6,4.8c1.1,0.9,2.8,0.8,3.7-0.3l0,0
			c0.9-1.1,0.8-2.8-0.3-3.7l-5.6-4.8C296.8,410.1,295.1,410.2,294.1,411.4z"/>
	</g>
	<path class="st2" d="M320.2,402.6l-19.9-11.5l19.9-11.5c1.5-0.8,2-2.7,1.1-4.2h0c-0.8-1.5-2.7-2-4.2-1.1l-20,11.5v-23
		c0-1.7-1.4-3.1-3.1-3.1c-1.7,0-3.1,1.4-3.1,3.1v23l-20-11.5c-1.5-0.8-3.3-0.3-4.2,1.1c-0.8,1.5-0.3,3.3,1.1,4.2l19.9,11.5
		L268,402.6c-1.5,0.8-2,2.7-1.1,4.2s2.7,2,4.2,1.1l20-11.5v23c0,1.7,1.4,3.1,3.1,3.1c1.7,0,3.1-1.4,3.1-3.1v-23l20,11.5
		c1.5,0.8,3.3,0.3,4.2-1.1h0C322.1,405.3,321.6,403.4,320.2,402.6z"/>
</g>
<g>
	<g>
		<path class="st2" d="M385.8,370.8L385.8,370.8c-0.9-1.1-0.8-2.8,0.3-3.7l5.6-4.8c1.1-0.9,2.8-0.8,3.7,0.3l0,0
			c0.9,1.1,0.8,2.8-0.3,3.7l-5.6,4.8C388.5,372,386.8,371.9,385.8,370.8z"/>
		<path class="st2" d="M385.8,370.8L385.8,370.8c0.9-1.1,0.8-2.8-0.3-3.7l-5.6-4.8c-1.1-0.9-2.8-0.8-3.7,0.3l0,0
			c-0.9,1.1-0.8,2.8,0.3,3.7l5.6,4.8C383.2,372,384.8,371.9,385.8,370.8z"/>
	</g>
	<g>
		<path class="st2" d="M368.2,380.9L368.2,380.9c-1.4,0.3-2.8-0.7-3.1-2.1l-1.3-7.2c-0.3-1.4,0.7-2.8,2.1-3.1l0,0
			c1.4-0.3,2.8,0.7,3.1,2.1l1.3,7.2C370.6,379.2,369.7,380.6,368.2,380.9z"/>
		<path class="st2" d="M368.2,380.9L368.2,380.9c-0.5-1.4-2-2.1-3.4-1.6l-6.9,2.5c-1.4,0.5-2.1,2-1.6,3.4l0,0c0.5,1.4,2,2.1,3.4,1.6
			l6.9-2.5C368,383.8,368.7,382.3,368.2,380.9z"/>
	</g>
	<g>
		<path class="st2" d="M368.2,401.2L368.2,401.2c-0.5,1.4-2,2.1-3.4,1.6l-6.9-2.5c-1.4-0.5-2.1-2-1.6-3.4l0,0c0.5-1.4,2-2.1,3.4-1.6
			l6.9,2.5C368,398.3,368.7,399.8,368.2,401.2z"/>
		<path class="st2" d="M368.2,401.2L368.2,401.2c-1.4-0.3-2.8,0.7-3.1,2.1l-1.3,7.2c-0.3,1.4,0.7,2.8,2.1,3.1l0,0
			c1.4,0.3,2.8-0.7,3.1-2.1l1.3-7.2C370.6,402.9,369.7,401.5,368.2,401.2z"/>
	</g>
	<g>
		<path class="st2" d="M403.4,380.9L403.4,380.9c1.4,0.3,2.8-0.7,3.1-2.1l1.3-7.2c0.3-1.4-0.7-2.8-2.1-3.1l0,0
			c-1.4-0.3-2.8,0.7-3.1,2.1l-1.3,7.2C401,379.2,401.9,380.6,403.4,380.9z"/>
		<path class="st2" d="M403.4,380.9L403.4,380.9c0.5-1.4,2-2.1,3.4-1.6l6.9,2.5c1.4,0.5,2.1,2,1.6,3.4l0,0c-0.5,1.4-2,2.1-3.4,1.6
			l-6.9-2.5C403.6,383.8,402.9,382.3,403.4,380.9z"/>
	</g>
	<g>
		<path class="st2" d="M403.4,401.2L403.4,401.2c0.5,1.4,2,2.1,3.4,1.6l6.9-2.5c1.4-0.5,2.1-2,1.6-3.4v0c-0.5-1.4-2-2.1-3.4-1.6
			l-6.9,2.5C403.6,398.3,402.9,399.8,403.4,401.2z"/>
		<path class="st2" d="M403.4,401.2L403.4,401.2c1.4-0.3,2.8,0.7,3.1,2.1l1.3,7.2c0.3,1.4-0.7,2.8-2.1,3.1l0,0
			c-1.4,0.3-2.8-0.7-3.1-2.1l-1.3-7.2C401,402.9,401.9,401.5,403.4,401.2z"/>
	</g>
	<g>
		<path class="st2" d="M385.8,411.4L385.8,411.4c0.9,1.1,0.8,2.8-0.3,3.7l-5.6,4.8c-1.1,0.9-2.8,0.8-3.7-0.3l0,0
			c-0.9-1.1-0.8-2.8,0.3-3.7l5.6-4.8C383.2,410.1,384.8,410.2,385.8,411.4z"/>
		<path class="st2" d="M385.8,411.4L385.8,411.4c-0.9,1.1-0.8,2.8,0.3,3.7l5.6,4.8c1.1,0.9,2.8,0.8,3.7-0.3l0,0
			c0.9-1.1,0.8-2.8-0.3-3.7l-5.6-4.8C388.5,410.1,386.8,410.2,385.8,411.4z"/>
	</g>
	<path class="st2" d="M411.9,402.6l-19.9-11.5l19.9-11.5c1.5-0.8,2-2.7,1.1-4.2h0c-0.8-1.5-2.7-2-4.2-1.1l-20,11.5v-23
		c0-1.7-1.4-3.1-3.1-3.1c-1.7,0-3.1,1.4-3.1,3.1v23l-20-11.5c-1.5-0.8-3.3-0.3-4.2,1.1c-0.8,1.5-0.3,3.3,1.1,4.2l19.9,11.5
		l-19.9,11.5c-1.5,0.8-2,2.7-1.1,4.2s2.7,2,4.2,1.1l20-11.5v23c0,1.7,1.4,3.1,3.1,3.1c1.7,0,3.1-1.4,3.1-3.1v-23l20,11.5
		c1.5,0.8,3.3,0.3,4.2-1.1h0C413.8,405.3,413.3,403.4,411.9,402.6z"/>
</g>
</svg>
