<?xml version="1.0" encoding="utf-8"?>
<!-- Generator: Adobe Illustrator 26.0.3, SVG Export Plug-In . SVG Version: 6.00 Build 0)  -->
<svg version="1.1" xmlns="http://www.w3.org/2000/svg" xmlns:xlink="http://www.w3.org/1999/xlink" x="0px" y="0px"
	 viewBox="0 0 500 500" style="enable-background:new 0 0 500 500;" xml:space="preserve">
<style type="text/css">
	.st0{fill:#E3E3E3;}
	.st1{fill:#FFB55A;}
	.st2{fill:#FFCF00;}
	.st3{fill:#F6F6F6;}
	.st4{fill:#4FC0F2;}
</style>
<path class="st0" d="M401.3,188.3c-0.1,0-0.3,0-0.4,0c-4.4-47.3-44.2-84.4-92.6-84.4c-51.4,0-93,41.7-93,93
	c0,49.7,38.9,90.3,88,92.9v0.1h98.1c28.1,0,50.9-22.8,50.9-50.9S429.4,188.3,401.3,188.3z"/>
<g>
	<polygon class="st1" points="54.5,150.3 158.2,38.3 270.1,142 166.6,253.9 	"/>
	<rect x="86.1" y="69.9" class="st1" width="152.6" height="152.6"/>
	<ellipse class="st2" cx="162.4" cy="146" rx="76.4" ry="76.4"/>
</g>
<path class="st3" d="M343.8,214.3c-15-51.2-62.2-88.6-118.3-88.6c-67.3,0-121.9,54-123.2,120.9c-31.3,3.7-55.6,30.3-55.6,62.6
	c0,34.9,28.2,63.1,63.1,63.1h224.7c43.7,0,79.3-35.5,79.3-79.3C413.6,252.4,383.1,218.9,343.8,214.3z"/>
<path class="st4" d="M144.6,421.6l10.6-25.9c2.8-6.9,10.7-10.2,17.6-7.4l0,0c6.9,2.8,10.2,10.7,7.4,17.6l-10.6,25.9
	c-2.8,6.9-10.7,10.2-17.6,7.4l0,0C145.1,436.2,141.9,428.5,144.6,421.6z"/>
<circle class="st0" cx="270.1" cy="417.6" r="22.6"/>
<circle class="st0" cx="341.9" cy="417.6" r="12.6"/>
</svg>
