<?xml version="1.0" encoding="utf-8"?>
<!-- Generator: Adobe Illustrator 26.0.3, SVG Export Plug-In . SVG Version: 6.00 Build 0)  -->
<svg version="1.1" xmlns="http://www.w3.org/2000/svg" xmlns:xlink="http://www.w3.org/1999/xlink" x="0px" y="0px"
	 viewBox="0 0 500 500" style="enable-background:new 0 0 500 500;" xml:space="preserve">
<style type="text/css">
	.st0{fill:#E3E3E3;}
	.st1{fill:#FFB55A;}
	.st2{fill:#FFCF00;}
	.st3{fill:#F6F6F6;}
</style>
<path class="st0" d="M401.3,197.6c-0.1,0-0.3,0-0.4,0c-4.4-47.3-44.2-84.4-92.6-84.4c-51.4,0-93,41.7-93,93
	c0,49.7,38.9,90.3,88,92.9v0.1h98.1c28.1,0,50.9-22.8,50.9-50.9S429.4,197.6,401.3,197.6z"/>
<g>
	<polygon class="st1" points="54.5,159.6 158.2,47.6 270.1,151.3 166.6,263.2 	"/>
	<rect x="86.1" y="79.2" class="st1" width="152.6" height="152.6"/>
	<ellipse class="st2" cx="162.4" cy="155.3" rx="76.4" ry="76.4"/>
</g>
<path class="st3" d="M343.8,223.6c-15-51.2-62.2-88.6-118.3-88.6c-67.3,0-121.9,54-123.2,120.9c-31.3,3.7-55.6,30.3-55.6,62.6
	c0,34.9,28.2,63.1,63.1,63.1h224.7c43.7,0,79.3-35.5,79.3-79.3C413.6,261.7,383.1,228.2,343.8,223.6z"/>
<circle class="st0" cx="236.9" cy="426.9" r="22.6"/>
<circle class="st0" cx="139.9" cy="426.9" r="22.6"/>
<circle class="st0" cx="333.8" cy="426.9" r="22.6"/>
</svg>
