<?xml version="1.0" encoding="utf-8"?>
<!-- Generator: Adobe Illustrator 26.0.3, SVG Export Plug-In . SVG Version: 6.00 Build 0)  -->
<svg version="1.1" xmlns="http://www.w3.org/2000/svg" xmlns:xlink="http://www.w3.org/1999/xlink" x="0px" y="0px"
	 viewBox="0 0 500 500" style="enable-background:new 0 0 500 500;" xml:space="preserve">
<style type="text/css">
	.st0{fill:#E3E3E3;}
	.st1{fill:#FFB55A;}
	.st2{fill:#FFCF00;}
	.st3{fill:#F6F6F6;}
	.st4{fill:#4FC0F2;}
</style>
<path class="st0" d="M398.6,160c-0.1,0-0.3,0-0.4,0c-4.3-46.3-43.2-82.6-90.6-82.6c-50.3,0-91,40.8-91,91
	c0,48.6,38.1,88.3,86.1,90.9v0.1h96c27.5,0,49.8-22.3,49.8-49.8S426.1,160,398.6,160z"/>
<polygon class="st1" points="90,134.8 155,64.6 225.1,129.6 160.2,199.8 "/>
<rect x="109.8" y="84.4" class="st1" width="95.6" height="95.6"/>
<ellipse transform="matrix(8.248049e-02 -0.9966 0.9966 8.248049e-02 12.8203 278.3131)" class="st2" cx="157.6" cy="132.2" rx="47.9" ry="47.9"/>
<path class="st3" d="M342.3,185.5c-14.7-50.1-60.9-86.7-115.7-86.7c-65.8,0-119.3,52.8-120.5,118.3c-30.6,3.6-54.4,29.6-54.4,61.2
	c0,34.1,27.6,61.7,61.7,61.7h219.8c42.8,0,77.6-34.7,77.6-77.6C410.7,222.8,380.8,190,342.3,185.5z"/>
<g>
	<g>
		<path class="st4" d="M346.3,383.7L346.3,383.7c-0.9-1.1-0.8-2.8,0.3-3.7l5.6-4.8c1.1-0.9,2.8-0.8,3.7,0.3l0,0
			c0.9,1.1,0.8,2.8-0.3,3.7L350,384C348.9,385,347.2,384.8,346.3,383.7z"/>
		<path class="st4" d="M346.2,383.7L346.2,383.7c0.9-1.1,0.8-2.8-0.3-3.7l-5.6-4.8c-1.1-0.9-2.8-0.8-3.7,0.3l0,0
			c-0.9,1.1-0.8,2.8,0.3,3.7l5.6,4.8C343.6,385,345.2,384.8,346.2,383.7z"/>
	</g>
	<g>
		<path class="st4" d="M328.7,393.8L328.7,393.8c-1.4,0.3-2.8-0.7-3.1-2.1l-1.3-7.2c-0.3-1.4,0.7-2.8,2.1-3.1l0,0
			c1.4-0.3,2.8,0.7,3.1,2.1l1.3,7.2C331,392.2,330.1,393.6,328.7,393.8z"/>
		<path class="st4" d="M328.6,393.9L328.6,393.9c-0.5-1.4-2-2.1-3.4-1.6l-6.9,2.5c-1.4,0.5-2.1,2-1.6,3.4l0,0c0.5,1.4,2,2.1,3.4,1.6
			l6.9-2.5C328.4,396.8,329.1,395.3,328.6,393.9z"/>
	</g>
	<g>
		<path class="st4" d="M328.6,414.1L328.6,414.1c-0.5,1.4-2,2.1-3.4,1.6l-6.9-2.5c-1.4-0.5-2.1-2-1.6-3.4l0,0c0.5-1.4,2-2.1,3.4-1.6
			l6.9,2.5C328.4,411.2,329.1,412.7,328.6,414.1z"/>
		<path class="st4" d="M328.7,414.2L328.7,414.2c-1.4-0.3-2.8,0.7-3.1,2.1l-1.3,7.2c-0.3,1.4,0.7,2.8,2.1,3.1l0,0
			c1.4,0.3,2.8-0.7,3.1-2.1l1.3-7.2C331,415.8,330.1,414.4,328.7,414.2z"/>
	</g>
	<g>
		<path class="st4" d="M363.8,393.8L363.8,393.8c1.4,0.3,2.8-0.7,3.1-2.1l1.3-7.2c0.3-1.4-0.7-2.8-2.1-3.1l0,0
			c-1.4-0.3-2.8,0.7-3.1,2.1l-1.3,7.2C361.4,392.2,362.3,393.6,363.8,393.8z"/>
		<path class="st4" d="M363.8,393.9L363.8,393.9c0.5-1.4,2-2.1,3.4-1.6l6.9,2.5c1.4,0.5,2.1,2,1.6,3.4l0,0c-0.5,1.4-2,2.1-3.4,1.6
			l-6.9-2.5C364,396.8,363.3,395.3,363.8,393.9z"/>
	</g>
	<g>
		<path class="st4" d="M363.8,414.1L363.8,414.1c0.5,1.4,2,2.1,3.4,1.6l6.9-2.5c1.4-0.5,2.1-2,1.6-3.4l0,0c-0.5-1.4-2-2.1-3.4-1.6
			l-6.9,2.5C364,411.2,363.3,412.7,363.8,414.1z"/>
		<path class="st4" d="M363.8,414.2L363.8,414.2c1.4-0.3,2.8,0.7,3.1,2.1l1.3,7.2c0.3,1.4-0.7,2.8-2.1,3.1l0,0
			c-1.4,0.3-2.8-0.7-3.1-2.1l-1.3-7.2C361.4,415.8,362.3,414.4,363.8,414.2z"/>
	</g>
	<g>
		<path class="st4" d="M346.2,424.3L346.2,424.3c0.9,1.1,0.8,2.8-0.3,3.7l-5.6,4.8c-1.1,0.9-2.8,0.8-3.7-0.3l0,0
			c-0.9-1.1-0.8-2.8,0.3-3.7l5.6-4.8C343.6,423.1,345.2,423.2,346.2,424.3z"/>
		<path class="st4" d="M346.3,424.3L346.3,424.3c-0.9,1.1-0.8,2.8,0.3,3.7l5.6,4.8c1.1,0.9,2.8,0.8,3.7-0.3l0,0
			c0.9-1.1,0.8-2.8-0.3-3.7L350,424C348.9,423.1,347.2,423.2,346.3,424.3z"/>
	</g>
	<path class="st4" d="M372.3,415.5L352.3,404l19.9-11.5c1.5-0.8,2-2.7,1.1-4.2h0c-0.8-1.5-2.7-2-4.2-1.1l-20,11.5v-23
		c0-1.7-1.4-3.1-3.1-3.1c-1.7,0-3.1,1.4-3.1,3.1v23l-20-11.5c-1.5-0.8-3.3-0.3-4.2,1.1c-0.8,1.5-0.3,3.3,1.1,4.2l19.9,11.5
		l-19.9,11.5c-1.5,0.8-2,2.7-1.1,4.2s2.7,2,4.2,1.1l20-11.5v23c0,1.7,1.4,3.1,3.1,3.1c1.7,0,3.1-1.4,3.1-3.1v-23l20,11.5
		c1.5,0.8,3.3,0.3,4.2-1.1h0C374.2,418.2,373.7,416.4,372.3,415.5z"/>
</g>
<g>
	<g>
		<path class="st4" d="M153.8,383.7L153.8,383.7c-0.9-1.1-0.8-2.8,0.3-3.7l5.6-4.8c1.1-0.9,2.8-0.8,3.7,0.3l0,0
			c0.9,1.1,0.8,2.8-0.3,3.7l-5.6,4.8C156.4,385,154.8,384.8,153.8,383.7z"/>
		<path class="st4" d="M153.7,383.7L153.7,383.7c0.9-1.1,0.8-2.8-0.3-3.7l-5.6-4.8c-1.1-0.9-2.8-0.8-3.7,0.3h0
			c-0.9,1.1-0.8,2.8,0.3,3.7l5.6,4.8C151.1,385,152.8,384.8,153.7,383.7z"/>
	</g>
	<g>
		<path class="st4" d="M136.2,393.8L136.2,393.8c-1.4,0.3-2.8-0.7-3.1-2.1l-1.3-7.2c-0.3-1.4,0.7-2.8,2.1-3.1l0,0
			c1.4-0.3,2.8,0.7,3.1,2.1l1.3,7.2C138.6,392.2,137.7,393.6,136.2,393.8z"/>
		<path class="st4" d="M136.2,393.9L136.2,393.9c-0.5-1.4-2-2.1-3.4-1.6l-6.9,2.5c-1.4,0.5-2.1,2-1.6,3.4h0c0.5,1.4,2,2.1,3.4,1.6
			l6.9-2.5C136,396.8,136.7,395.3,136.2,393.9z"/>
	</g>
	<g>
		<path class="st4" d="M136.2,414.1L136.2,414.1c-0.5,1.4-2,2.1-3.4,1.6l-6.9-2.5c-1.4-0.5-2.1-2-1.6-3.4h0c0.5-1.4,2-2.1,3.4-1.6
			l6.9,2.5C136,411.2,136.7,412.7,136.2,414.1z"/>
		<path class="st4" d="M136.2,414.2L136.2,414.2c-1.4-0.3-2.8,0.7-3.1,2.1l-1.3,7.2c-0.3,1.4,0.7,2.8,2.1,3.1l0,0
			c1.4,0.3,2.8-0.7,3.1-2.1l1.3-7.2C138.6,415.8,137.7,414.4,136.2,414.2z"/>
	</g>
	<g>
		<path class="st4" d="M171.3,393.8L171.3,393.8c1.4,0.3,2.8-0.7,3.1-2.1l1.3-7.2c0.3-1.4-0.7-2.8-2.1-3.1h0
			c-1.4-0.3-2.8,0.7-3.1,2.1l-1.3,7.2C169,392.2,169.9,393.6,171.3,393.8z"/>
		<path class="st4" d="M171.4,393.9L171.4,393.9c0.5-1.4,2-2.1,3.4-1.6l6.9,2.5c1.4,0.5,2.1,2,1.6,3.4l0,0c-0.5,1.4-2,2.1-3.4,1.6
			l-6.9-2.5C171.6,396.8,170.9,395.3,171.4,393.9z"/>
	</g>
	<g>
		<path class="st4" d="M171.4,414.1L171.4,414.1c0.5,1.4,2,2.1,3.4,1.6l6.9-2.5c1.4-0.5,2.1-2,1.6-3.4l0,0c-0.5-1.4-2-2.1-3.4-1.6
			l-6.9,2.5C171.6,411.2,170.9,412.7,171.4,414.1z"/>
		<path class="st4" d="M171.3,414.2L171.3,414.2c1.4-0.3,2.8,0.7,3.1,2.1l1.3,7.2c0.3,1.4-0.7,2.8-2.1,3.1h0
			c-1.4,0.3-2.8-0.7-3.1-2.1l-1.3-7.2C169,415.8,169.9,414.4,171.3,414.2z"/>
	</g>
	<g>
		<path class="st4" d="M153.7,424.3L153.7,424.3c0.9,1.1,0.8,2.8-0.3,3.7l-5.6,4.8c-1.1,0.9-2.8,0.8-3.7-0.3h0
			c-0.9-1.1-0.8-2.8,0.3-3.7l5.6-4.8C151.1,423.1,152.8,423.2,153.7,424.3z"/>
		<path class="st4" d="M153.8,424.3L153.8,424.3c-0.9,1.1-0.8,2.8,0.3,3.7l5.6,4.8c1.1,0.9,2.8,0.8,3.7-0.3l0,0
			c0.9-1.1,0.8-2.8-0.3-3.7l-5.6-4.8C156.4,423.1,154.8,423.2,153.8,424.3z"/>
	</g>
	<path class="st4" d="M179.8,415.5L159.9,404l19.9-11.5c1.5-0.8,2-2.7,1.1-4.2h0c-0.8-1.5-2.7-2-4.2-1.1l-20,11.5v-23
		c0-1.7-1.4-3.1-3.1-3.1c-1.7,0-3.1,1.4-3.1,3.1v23l-20-11.5c-1.5-0.8-3.3-0.3-4.2,1.1c-0.8,1.5-0.3,3.3,1.1,4.2l19.9,11.5
		l-19.9,11.5c-1.5,0.8-2,2.7-1.1,4.2s2.7,2,4.2,1.1l20-11.5v23c0,1.7,1.4,3.1,3.1,3.1c1.7,0,3.1-1.4,3.1-3.1v-23l20,11.5
		c1.5,0.8,3.3,0.3,4.2-1.1h0C181.8,418.2,181.3,416.4,179.8,415.5z"/>
</g>
<g>
	<g>
		<path class="st4" d="M250,383.7L250,383.7c-0.9-1.1-0.8-2.8,0.3-3.7l5.6-4.8c1.1-0.9,2.8-0.8,3.7,0.3l0,0c0.9,1.1,0.8,2.8-0.3,3.7
			l-5.6,4.8C252.7,385,251,384.8,250,383.7z"/>
		<path class="st4" d="M250,383.7L250,383.7c0.9-1.1,0.8-2.8-0.3-3.7l-5.6-4.8c-1.1-0.9-2.8-0.8-3.7,0.3l0,0
			c-0.9,1.1-0.8,2.8,0.3,3.7l5.6,4.8C247.3,385,249,384.8,250,383.7z"/>
	</g>
	<g>
		<path class="st4" d="M232.4,393.8L232.4,393.8c-1.4,0.3-2.8-0.7-3.1-2.1l-1.3-7.2c-0.3-1.4,0.7-2.8,2.1-3.1l0,0
			c1.4-0.3,2.8,0.7,3.1,2.1l1.3,7.2C234.8,392.2,233.9,393.6,232.4,393.8z"/>
		<path class="st4" d="M232.4,393.9L232.4,393.9c-0.5-1.4-2-2.1-3.4-1.6l-6.9,2.5c-1.4,0.5-2.1,2-1.6,3.4l0,0c0.5,1.4,2,2.1,3.4,1.6
			l6.9-2.5C232.2,396.8,232.9,395.3,232.4,393.9z"/>
	</g>
	<g>
		<path class="st4" d="M232.4,414.1L232.4,414.1c-0.5,1.4-2,2.1-3.4,1.6l-6.9-2.5c-1.4-0.5-2.1-2-1.6-3.4l0,0c0.5-1.4,2-2.1,3.4-1.6
			l6.9,2.5C232.2,411.2,232.9,412.7,232.4,414.1z"/>
		<path class="st4" d="M232.4,414.2L232.4,414.2c-1.4-0.3-2.8,0.7-3.1,2.1l-1.3,7.2c-0.3,1.4,0.7,2.8,2.1,3.1l0,0
			c1.4,0.3,2.8-0.7,3.1-2.1l1.3-7.2C234.8,415.8,233.9,414.4,232.4,414.2z"/>
	</g>
	<g>
		<path class="st4" d="M267.6,393.8L267.6,393.8c1.4,0.3,2.8-0.7,3.1-2.1l1.3-7.2c0.3-1.4-0.7-2.8-2.1-3.1l0,0
			c-1.4-0.3-2.8,0.7-3.1,2.1l-1.3,7.2C265.2,392.2,266.1,393.6,267.6,393.8z"/>
		<path class="st4" d="M267.6,393.9L267.6,393.9c0.5-1.4,2-2.1,3.4-1.6l6.9,2.5c1.4,0.5,2.1,2,1.6,3.4l0,0c-0.5,1.4-2,2.1-3.4,1.6
			l-6.9-2.5C267.8,396.8,267.1,395.3,267.6,393.9z"/>
	</g>
	<g>
		<path class="st4" d="M267.6,414.1L267.6,414.1c0.5,1.4,2,2.1,3.4,1.6l6.9-2.5c1.4-0.5,2.1-2,1.6-3.4l0,0c-0.5-1.4-2-2.1-3.4-1.6
			l-6.9,2.5C267.8,411.2,267.1,412.7,267.6,414.1z"/>
		<path class="st4" d="M267.6,414.2L267.6,414.2c1.4-0.3,2.8,0.7,3.1,2.1l1.3,7.2c0.3,1.4-0.7,2.8-2.1,3.1l0,0
			c-1.4,0.3-2.8-0.7-3.1-2.1l-1.3-7.2C265.2,415.8,266.1,414.4,267.6,414.2z"/>
	</g>
	<g>
		<path class="st4" d="M250,424.3L250,424.3c0.9,1.1,0.8,2.8-0.3,3.7l-5.6,4.8c-1.1,0.9-2.8,0.8-3.7-0.3l0,0
			c-0.9-1.1-0.8-2.8,0.3-3.7l5.6-4.8C247.3,423.1,249,423.2,250,424.3z"/>
		<path class="st4" d="M250,424.3L250,424.3c-0.9,1.1-0.8,2.8,0.3,3.7l5.6,4.8c1.1,0.9,2.8,0.8,3.7-0.3l0,0c0.9-1.1,0.8-2.8-0.3-3.7
			l-5.6-4.8C252.7,423.1,251,423.2,250,424.3z"/>
	</g>
	<path class="st4" d="M276.1,415.5L256.1,404l19.9-11.5c1.5-0.8,2-2.7,1.1-4.2h0c-0.8-1.5-2.7-2-4.2-1.1l-20,11.5v-23
		c0-1.7-1.4-3.1-3.1-3.1c-1.7,0-3.1,1.4-3.1,3.1v23l-20-11.5c-1.5-0.8-3.3-0.3-4.2,1.1c-0.8,1.5-0.3,3.3,1.1,4.2l19.9,11.5
		l-19.9,11.5c-1.5,0.8-2,2.7-1.1,4.2s2.7,2,4.2,1.1l20-11.5v23c0,1.7,1.4,3.1,3.1,3.1c1.7,0,3.1-1.4,3.1-3.1v-23l20,11.5
		c1.5,0.8,3.3,0.3,4.2-1.1h0C278,418.2,277.5,416.4,276.1,415.5z"/>
</g>
</svg>
