<?xml version="1.0" encoding="utf-8"?>
<!-- Generator: Adobe Illustrator 26.0.3, SVG Export Plug-In . SVG Version: 6.00 Build 0)  -->
<svg version="1.1" xmlns="http://www.w3.org/2000/svg" xmlns:xlink="http://www.w3.org/1999/xlink" x="0px" y="0px"
	 viewBox="0 0 500 500" style="enable-background:new 0 0 500 500;" xml:space="preserve">
<style type="text/css">
	.st0{fill:#E3E3E3;}
	.st1{fill:#F6F6F6;}
	.st2{fill:#E6E6E6;}
</style>
<path class="st0" d="M401.8,152.3c-0.1,0-0.3,0-0.4,0c-4.4-47.3-44.2-84.4-92.6-84.4c-51.4,0-93,41.7-93,93
	c0,49.7,38.9,90.3,88,92.9v0.1h98.1c28.1,0,50.9-22.8,50.9-50.9S429.9,152.3,401.8,152.3z"/>
<path class="st1" d="M344.3,178.3c-15-51.2-62.2-88.6-118.3-88.6c-67.3,0-121.9,54-123.2,120.9c-31.3,3.7-55.6,30.3-55.6,62.6
	c0,34.9,28.2,63.1,63.1,63.1H335c43.7,0,79.3-35.5,79.3-79.3C414.1,216.4,383.6,182.9,344.3,178.3z"/>
<path class="st2" d="M218.1,415L218.1,415c-4-1.8-5.8-6.4-4-10.4l23.4-53c1.8-4,6.4-5.8,10.4-4l0,0c4,1.8,5.8,6.4,4,10.4l-23.4,53
	C226.8,415,222.1,416.8,218.1,415z"/>
<circle class="st0" cx="304.7" cy="381.3" r="22.6"/>
<circle class="st0" cx="161.3" cy="381.3" r="15.9"/>
<circle class="st0" cx="89.6" cy="381.3" r="15.9"/>
<circle class="st0" cx="376.4" cy="381.3" r="22.6"/>
</svg>
