<?xml version="1.0" encoding="utf-8"?>
<!-- Generator: Adobe Illustrator 26.0.3, SVG Export Plug-In . SVG Version: 6.00 Build 0)  -->
<svg version="1.1" id="图层_1" xmlns="http://www.w3.org/2000/svg" xmlns:xlink="http://www.w3.org/1999/xlink" x="0px" y="0px"
	 viewBox="0 0 500 500" style="enable-background:new 0 0 500 500;" xml:space="preserve">
<style type="text/css">
	.st0{fill:#E3E3E3;}
	.st1{fill-rule:evenodd;clip-rule:evenodd;fill:#FFB55A;}
	.st2{fill:#F6F6F6;}
	.st3{fill:#4FC0F2;}
</style>
<path class="st0" d="M400.2,185c-0.1,0-0.3,0-0.4,0c-4.3-46.8-43.7-83.4-91.6-83.4c-50.8,0-92,41.2-92,92c0,49.1,38.5,89.3,87,91.9
	v0.1h97c27.8,0,50.3-22.5,50.3-50.3S428,185,400.2,185z"/>
<path class="st1" d="M353.1,149.1c-44.5,0-80.5-36-80.5-80.5c0-8.3,1.3-16.3,3.6-23.9c0.2-0.8-0.4-1.6-1.3-1.4
	c-36.6,6.8-64.6,38.5-65.6,76.8c-1.3,46,36.5,84,82.5,82.8c34-0.8,62.7-22.7,73.7-53.1c0.3-0.8-0.4-1.6-1.2-1.5
	C360.7,148.8,356.9,149.1,353.1,149.1z"/>
<path class="st2" d="M343.3,210.8c-14.8-50.6-61.6-87.6-117-87.6c-66.5,0-120.6,53.3-121.8,119.6c-31,3.6-55,29.9-55,61.9
	c0,34.4,27.9,62.3,62.3,62.3H334c43.3,0,78.4-35.1,78.4-78.4C412.4,248.4,382.2,215.3,343.3,210.8z"/>
<g>
	<g>
		<path class="st3" d="M346.3,405.1L346.3,405.1c-0.9-1.1-0.8-2.8,0.3-3.7l5.6-4.8c1.1-0.9,2.8-0.8,3.7,0.3l0,0
			c0.9,1.1,0.8,2.8-0.3,3.7l-5.6,4.8C348.9,406.3,347.2,406.2,346.3,405.1z"/>
		<path class="st3" d="M346.2,405.1L346.2,405.1c0.9-1.1,0.8-2.8-0.3-3.7l-5.6-4.8c-1.1-0.9-2.8-0.8-3.7,0.3l0,0
			c-0.9,1.1-0.8,2.8,0.3,3.7l5.6,4.8C343.6,406.3,345.2,406.2,346.2,405.1z"/>
	</g>
	<g>
		<path class="st3" d="M328.7,415.2L328.7,415.2c-1.4,0.3-2.8-0.7-3.1-2.1l-1.3-7.2c-0.3-1.4,0.7-2.8,2.1-3.1l0,0
			c1.4-0.3,2.8,0.7,3.1,2.1l1.3,7.2C331,413.5,330.1,414.9,328.7,415.2z"/>
		<path class="st3" d="M328.6,415.2L328.6,415.2c-0.5-1.4-2-2.1-3.4-1.6l-6.9,2.5c-1.4,0.5-2.1,2-1.6,3.4l0,0c0.5,1.4,2,2.1,3.4,1.6
			l6.9-2.5C328.4,418.1,329.1,416.6,328.6,415.2z"/>
	</g>
	<g>
		<path class="st3" d="M328.6,435.5L328.6,435.5c-0.5,1.4-2,2.1-3.4,1.6l-6.9-2.5c-1.4-0.5-2.1-2-1.6-3.4l0,0c0.5-1.4,2-2.1,3.4-1.6
			l6.9,2.5C328.4,432.6,329.1,434.1,328.6,435.5z"/>
		<path class="st3" d="M328.7,435.5L328.7,435.5c-1.4-0.3-2.8,0.7-3.1,2.1l-1.3,7.2c-0.3,1.4,0.7,2.8,2.1,3.1l0,0
			c1.4,0.3,2.8-0.7,3.1-2.1l1.3-7.2C331,437.2,330.1,435.8,328.7,435.5z"/>
	</g>
	<g>
		<path class="st3" d="M363.8,415.2L363.8,415.2c1.4,0.3,2.8-0.7,3.1-2.1l1.3-7.2c0.3-1.4-0.7-2.8-2.1-3.1l0,0
			c-1.4-0.3-2.8,0.7-3.1,2.1l-1.3,7.2C361.4,413.5,362.3,414.9,363.8,415.2z"/>
		<path class="st3" d="M363.8,415.2L363.8,415.2c0.5-1.4,2-2.1,3.4-1.6l6.9,2.5c1.4,0.5,2.1,2,1.6,3.4l0,0c-0.5,1.4-2,2.1-3.4,1.6
			l-6.9-2.5C364,418.1,363.3,416.6,363.8,415.2z"/>
	</g>
	<g>
		<path class="st3" d="M363.8,435.5L363.8,435.5c0.5,1.4,2,2.1,3.4,1.6l6.9-2.5c1.4-0.5,2.1-2,1.6-3.4l0,0c-0.5-1.4-2-2.1-3.4-1.6
			l-6.9,2.5C364,432.6,363.3,434.1,363.8,435.5z"/>
		<path class="st3" d="M363.8,435.5L363.8,435.5c1.4-0.3,2.8,0.7,3.1,2.1l1.3,7.2c0.3,1.4-0.7,2.8-2.1,3.1l0,0
			c-1.4,0.3-2.8-0.7-3.1-2.1l-1.3-7.2C361.4,437.2,362.3,435.8,363.8,435.5z"/>
	</g>
	<g>
		<path class="st3" d="M346.2,445.6L346.2,445.6c0.9,1.1,0.8,2.8-0.3,3.7l-5.6,4.8c-1.1,0.9-2.8,0.8-3.7-0.3l0,0
			c-0.9-1.1-0.8-2.8,0.3-3.7l5.6-4.8C343.6,444.4,345.2,444.5,346.2,445.6z"/>
		<path class="st3" d="M346.3,445.6L346.3,445.6c-0.9,1.1-0.8,2.8,0.3,3.7l5.6,4.8c1.1,0.9,2.8,0.8,3.7-0.3l0,0
			c0.9-1.1,0.8-2.8-0.3-3.7l-5.6-4.8C348.9,444.4,347.2,444.5,346.3,445.6z"/>
	</g>
	<path class="st3" d="M372.3,436.9l-19.9-11.5l19.9-11.5c1.5-0.8,2-2.7,1.1-4.2h0c-0.8-1.5-2.7-2-4.2-1.1l-20,11.5v-23
		c0-1.7-1.4-3.1-3.1-3.1c-1.7,0-3.1,1.4-3.1,3.1v23l-20-11.5c-1.5-0.8-3.3-0.3-4.2,1.1c-0.8,1.5-0.3,3.3,1.1,4.2l19.9,11.5
		l-19.9,11.5c-1.5,0.8-2,2.7-1.1,4.2s2.7,2,4.2,1.1l20-11.5v23c0,1.7,1.4,3.1,3.1,3.1c1.7,0,3.1-1.4,3.1-3.1v-23l20,11.5
		c1.5,0.8,3.3,0.3,4.2-1.1h0C374.2,439.6,373.7,437.7,372.3,436.9z"/>
</g>
<g>
	<g>
		<path class="st3" d="M153.8,405.1L153.8,405.1c-0.9-1.1-0.8-2.8,0.3-3.7l5.6-4.8c1.1-0.9,2.8-0.8,3.7,0.3l0,0
			c0.9,1.1,0.8,2.8-0.3,3.7l-5.6,4.8C156.4,406.3,154.8,406.2,153.8,405.1z"/>
		<path class="st3" d="M153.7,405.1L153.7,405.1c0.9-1.1,0.8-2.8-0.3-3.7l-5.6-4.8c-1.1-0.9-2.8-0.8-3.7,0.3h0
			c-0.9,1.1-0.8,2.8,0.3,3.7l5.6,4.8C151.1,406.3,152.8,406.2,153.7,405.1z"/>
	</g>
	<g>
		<path class="st3" d="M136.2,415.2L136.2,415.2c-1.4,0.3-2.8-0.7-3.1-2.1l-1.3-7.2c-0.3-1.4,0.7-2.8,2.1-3.1l0,0
			c1.4-0.3,2.8,0.7,3.1,2.1l1.3,7.2C138.6,413.5,137.7,414.9,136.2,415.2z"/>
		<path class="st3" d="M136.2,415.2L136.2,415.2c-0.5-1.4-2-2.1-3.4-1.6l-6.9,2.5c-1.4,0.5-2.1,2-1.6,3.4h0c0.5,1.4,2,2.1,3.4,1.6
			l6.9-2.5C136,418.1,136.7,416.6,136.2,415.2z"/>
	</g>
	<g>
		<path class="st3" d="M136.2,435.5L136.2,435.5c-0.5,1.4-2,2.1-3.4,1.6l-6.9-2.5c-1.4-0.5-2.1-2-1.6-3.4h0c0.5-1.4,2-2.1,3.4-1.6
			l6.9,2.5C136,432.6,136.7,434.1,136.2,435.5z"/>
		<path class="st3" d="M136.2,435.5L136.2,435.5c-1.4-0.3-2.8,0.7-3.1,2.1l-1.3,7.2c-0.3,1.4,0.7,2.8,2.1,3.1l0,0
			c1.4,0.3,2.8-0.7,3.1-2.1l1.3-7.2C138.6,437.2,137.7,435.8,136.2,435.5z"/>
	</g>
	<g>
		<path class="st3" d="M171.3,415.2L171.3,415.2c1.4,0.3,2.8-0.7,3.1-2.1l1.3-7.2c0.3-1.4-0.7-2.8-2.1-3.1h0
			c-1.4-0.3-2.8,0.7-3.1,2.1l-1.3,7.2C169,413.5,169.9,414.9,171.3,415.2z"/>
		<path class="st3" d="M171.4,415.2L171.4,415.2c0.5-1.4,2-2.1,3.4-1.6l6.9,2.5c1.4,0.5,2.1,2,1.6,3.4l0,0c-0.5,1.4-2,2.1-3.4,1.6
			l-6.9-2.5C171.6,418.1,170.9,416.6,171.4,415.2z"/>
	</g>
	<g>
		<path class="st3" d="M171.4,435.5L171.4,435.5c0.5,1.4,2,2.1,3.4,1.6l6.9-2.5c1.4-0.5,2.1-2,1.6-3.4l0,0c-0.5-1.4-2-2.1-3.4-1.6
			l-6.9,2.5C171.6,432.6,170.9,434.1,171.4,435.5z"/>
		<path class="st3" d="M171.3,435.5L171.3,435.5c1.4-0.3,2.8,0.7,3.1,2.1l1.3,7.2c0.3,1.4-0.7,2.8-2.1,3.1h0
			c-1.4,0.3-2.8-0.7-3.1-2.1l-1.3-7.2C169,437.2,169.9,435.8,171.3,435.5z"/>
	</g>
	<g>
		<path class="st3" d="M153.7,445.6L153.7,445.6c0.9,1.1,0.8,2.8-0.3,3.7l-5.6,4.8c-1.1,0.9-2.8,0.8-3.7-0.3h0
			c-0.9-1.1-0.8-2.8,0.3-3.7l5.6-4.8C151.1,444.4,152.8,444.5,153.7,445.6z"/>
		<path class="st3" d="M153.8,445.6L153.8,445.6c-0.9,1.1-0.8,2.8,0.3,3.7l5.6,4.8c1.1,0.9,2.8,0.8,3.7-0.3l0,0
			c0.9-1.1,0.8-2.8-0.3-3.7l-5.6-4.8C156.4,444.4,154.8,444.5,153.8,445.6z"/>
	</g>
	<path class="st3" d="M179.8,436.9l-19.9-11.5l19.9-11.5c1.5-0.8,2-2.7,1.1-4.2h0c-0.8-1.5-2.7-2-4.2-1.1l-20,11.5v-23
		c0-1.7-1.4-3.1-3.1-3.1c-1.7,0-3.1,1.4-3.1,3.1v23l-20-11.5c-1.5-0.8-3.3-0.3-4.2,1.1c-0.8,1.5-0.3,3.3,1.1,4.2l19.9,11.5
		l-19.9,11.5c-1.5,0.8-2,2.7-1.1,4.2s2.7,2,4.2,1.1l20-11.5v23c0,1.7,1.4,3.1,3.1,3.1c1.7,0,3.1-1.4,3.1-3.1v-23l20,11.5
		c1.5,0.8,3.3,0.3,4.2-1.1h0C181.8,439.6,181.3,437.7,179.8,436.9z"/>
</g>
<g>
	<g>
		<path class="st3" d="M250,405.1L250,405.1c-0.9-1.1-0.8-2.8,0.3-3.7l5.6-4.8c1.1-0.9,2.8-0.8,3.7,0.3l0,0c0.9,1.1,0.8,2.8-0.3,3.7
			l-5.6,4.8C252.7,406.3,251,406.2,250,405.1z"/>
		<path class="st3" d="M250,405.1L250,405.1c0.9-1.1,0.8-2.8-0.3-3.7l-5.6-4.8c-1.1-0.9-2.8-0.8-3.7,0.3l0,0
			c-0.9,1.1-0.8,2.8,0.3,3.7l5.6,4.8C247.3,406.3,249,406.2,250,405.1z"/>
	</g>
	<g>
		<path class="st3" d="M232.4,415.2L232.4,415.2c-1.4,0.3-2.8-0.7-3.1-2.1l-1.3-7.2c-0.3-1.4,0.7-2.8,2.1-3.1l0,0
			c1.4-0.3,2.8,0.7,3.1,2.1l1.3,7.2C234.8,413.5,233.9,414.9,232.4,415.2z"/>
		<path class="st3" d="M232.4,415.2L232.4,415.2c-0.5-1.4-2-2.1-3.4-1.6l-6.9,2.5c-1.4,0.5-2.1,2-1.6,3.4l0,0c0.5,1.4,2,2.1,3.4,1.6
			l6.9-2.5C232.2,418.1,232.9,416.6,232.4,415.2z"/>
	</g>
	<g>
		<path class="st3" d="M232.4,435.5L232.4,435.5c-0.5,1.4-2,2.1-3.4,1.6l-6.9-2.5c-1.4-0.5-2.1-2-1.6-3.4l0,0c0.5-1.4,2-2.1,3.4-1.6
			l6.9,2.5C232.2,432.6,232.9,434.1,232.4,435.5z"/>
		<path class="st3" d="M232.4,435.5L232.4,435.5c-1.4-0.3-2.8,0.7-3.1,2.1l-1.3,7.2c-0.3,1.4,0.7,2.8,2.1,3.1l0,0
			c1.4,0.3,2.8-0.7,3.1-2.1l1.3-7.2C234.8,437.2,233.9,435.8,232.4,435.5z"/>
	</g>
	<g>
		<path class="st3" d="M267.6,415.2L267.6,415.2c1.4,0.3,2.8-0.7,3.1-2.1l1.3-7.2c0.3-1.4-0.7-2.8-2.1-3.1l0,0
			c-1.4-0.3-2.8,0.7-3.1,2.1l-1.3,7.2C265.2,413.5,266.1,414.9,267.6,415.2z"/>
		<path class="st3" d="M267.6,415.2L267.6,415.2c0.5-1.4,2-2.1,3.4-1.6l6.9,2.5c1.4,0.5,2.1,2,1.6,3.4l0,0c-0.5,1.4-2,2.1-3.4,1.6
			l-6.9-2.5C267.8,418.1,267.1,416.6,267.6,415.2z"/>
	</g>
	<g>
		<path class="st3" d="M267.6,435.5L267.6,435.5c0.5,1.4,2,2.1,3.4,1.6l6.9-2.5c1.4-0.5,2.1-2,1.6-3.4l0,0c-0.5-1.4-2-2.1-3.4-1.6
			l-6.9,2.5C267.8,432.6,267.1,434.1,267.6,435.5z"/>
		<path class="st3" d="M267.6,435.5L267.6,435.5c1.4-0.3,2.8,0.7,3.1,2.1l1.3,7.2c0.3,1.4-0.7,2.8-2.1,3.1l0,0
			c-1.4,0.3-2.8-0.7-3.1-2.1l-1.3-7.2C265.2,437.2,266.1,435.8,267.6,435.5z"/>
	</g>
	<g>
		<path class="st3" d="M250,445.6L250,445.6c0.9,1.1,0.8,2.8-0.3,3.7l-5.6,4.8c-1.1,0.9-2.8,0.8-3.7-0.3l0,0
			c-0.9-1.1-0.8-2.8,0.3-3.7l5.6-4.8C247.3,444.4,249,444.5,250,445.6z"/>
		<path class="st3" d="M250,445.6L250,445.6c-0.9,1.1-0.8,2.8,0.3,3.7l5.6,4.8c1.1,0.9,2.8,0.8,3.7-0.3l0,0c0.9-1.1,0.8-2.8-0.3-3.7
			l-5.6-4.8C252.7,444.4,251,444.5,250,445.6z"/>
	</g>
	<path class="st3" d="M276.1,436.9l-19.9-11.5l19.9-11.5c1.5-0.8,2-2.7,1.1-4.2h0c-0.8-1.5-2.7-2-4.2-1.1l-20,11.5v-23
		c0-1.7-1.4-3.1-3.1-3.1c-1.7,0-3.1,1.4-3.1,3.1v23l-20-11.5c-1.5-0.8-3.3-0.3-4.2,1.1c-0.8,1.5-0.3,3.3,1.1,4.2l19.9,11.5
		l-19.9,11.5c-1.5,0.8-2,2.7-1.1,4.2s2.7,2,4.2,1.1l20-11.5v23c0,1.7,1.4,3.1,3.1,3.1c1.7,0,3.1-1.4,3.1-3.1v-23l20,11.5
		c1.5,0.8,3.3,0.3,4.2-1.1h0C278,439.6,277.5,437.7,276.1,436.9z"/>
</g>
</svg>
