<?xml version="1.0" encoding="utf-8"?>
<!-- Generator: Adobe Illustrator 26.0.3, SVG Export Plug-In . SVG Version: 6.00 Build 0)  -->
<svg version="1.1" xmlns="http://www.w3.org/2000/svg" xmlns:xlink="http://www.w3.org/1999/xlink" x="0px" y="0px"
	 viewBox="0 0 500 500" style="enable-background:new 0 0 500 500;" xml:space="preserve">
<style type="text/css">
	.st0{fill:#E3E3E3;}
	.st1{fill:#F6F6F6;}
</style>
<path class="st0" d="M401.3,151c-0.1,0-0.3,0-0.4,0c-4.4-47.3-44.2-84.4-92.6-84.4c-51.4,0-93,41.7-93,93c0,49.7,38.9,90.3,88,92.9
	v0.1h98.1c28.1,0,50.9-22.8,50.9-50.9S429.4,151,401.3,151z"/>
<path class="st1" d="M343.8,177c-15-51.2-62.2-88.6-118.3-88.6c-67.3,0-121.9,54-123.2,120.9C71,213,46.7,239.6,46.7,271.9
	c0,34.9,28.2,63.1,63.1,63.1h224.7c43.7,0,79.3-35.5,79.3-79.3C413.6,215.1,383.1,181.6,343.8,177z"/>
<circle class="st0" cx="151.5" cy="382.5" r="22.6"/>
<circle class="st0" cx="321.5" cy="382.5" r="22.6"/>
<circle class="st0" cx="230.2" cy="418" r="12.9"/>
</svg>
