<?xml version="1.0" encoding="utf-8"?>
<!-- Generator: Adobe Illustrator 26.0.3, SVG Export Plug-In . SVG Version: 6.00 Build 0)  -->
<svg version="1.1" xmlns="http://www.w3.org/2000/svg" xmlns:xlink="http://www.w3.org/1999/xlink" x="0px" y="0px"
	 viewBox="0 0 500 500" style="enable-background:new 0 0 500 500;" xml:space="preserve">
<style type="text/css">
	.st0{fill:#FFC107;}
	.st1{fill:#FFA000;}
</style>
<path class="st0" d="M416,130.9H84c-12.1,0-22-9.9-22-22v0c0-12.1,9.9-22,22-22h332c12.1,0,22,9.9,22,22v0
	C438,121,428.1,130.9,416,130.9z"/>
<path class="st0" d="M362.5,201.4H151c-12.1,0-22-9.9-22-22v0c0-12.1,9.9-22,22-22h211.5c12.1,0,22,9.9,22,22v0
	C384.5,191.5,374.6,201.4,362.5,201.4z"/>
<path class="st0" d="M323,272H164c-12.1,0-22-9.9-22-22v0c0-12.1,9.9-22,22-22h159c12.1,0,22,9.9,22,22v0
	C345,262.1,335.1,272,323,272z"/>
<path class="st0" d="M261,342.6h-82c-12.1,0-22-9.9-22-22v0c0-12.1,9.9-22,22-22h82c12.1,0,22,9.9,22,22v0
	C283,332.7,273.1,342.6,261,342.6z"/>
<path class="st1" d="M120,342.6L120,342.6c-12.1,0-22-9.9-22-22v0c0-12.1,9.9-22,22-22h0c12.1,0,22,9.9,22,22v0
	C142,332.7,132.1,342.6,120,342.6z"/>
<path class="st1" d="M384.5,272L384.5,272c-12.1,0-22-9.9-22-22v0c0-12.1,9.9-22,22-22h0c12.1,0,22,9.9,22,22v0
	C406.5,262.1,396.6,272,384.5,272z"/>
<path class="st1" d="M84,201.4L84,201.4c-12.1,0-22-9.9-22-22v0c0-12.1,9.9-22,22-22h0c12.1,0,22,9.9,22,22v0
	C106,191.5,96.1,201.4,84,201.4z"/>
<path class="st0" d="M296.5,413.1h-31c-12.1,0-22-9.9-22-22v0c0-12.1,9.9-22,22-22h31c12.1,0,22,9.9,22,22v0
	C318.5,403.2,308.6,413.1,296.5,413.1z"/>
</svg>
