<?xml version="1.0" encoding="utf-8"?>
<!-- Generator: Adobe Illustrator 26.0.3, SVG Export Plug-In . SVG Version: 6.00 Build 0)  -->
<svg version="1.1" xmlns="http://www.w3.org/2000/svg" xmlns:xlink="http://www.w3.org/1999/xlink" x="0px" y="0px"
	 viewBox="0 0 500 500" style="enable-background:new 0 0 500 500;" xml:space="preserve">
<style type="text/css">
	.st0{fill:#F6F6F6;}
	.st1{fill:#E6E6E6;}
</style>
<path class="st0" d="M343.5,169.5c-12.3-42.1-51.2-72.8-97.3-72.8c-55.4,0-100.4,44.3-101.3,99.5c-25.7,3-45.8,24.9-45.8,51.5
	c0,28.6,23.2,51.8,51.8,51.8h184.9c36,0,65.2-29.2,65.2-65.2C401,200.9,375.8,173.4,343.5,169.5z"/>
<path class="st1" d="M288.8,334.1H131.6c-6.9,0-12.6-5.7-12.6-12.6v0c0-6.9,5.7-12.6,12.6-12.6h157.2c6.9,0,12.6,5.7,12.6,12.6v0
	C301.4,328.5,295.8,334.1,288.8,334.1z"/>
<path class="st1" d="M368.4,368.7H211.2c-6.9,0-12.6-5.7-12.6-12.6v0c0-6.9,5.7-12.6,12.6-12.6h157.2c6.9,0,12.6,5.7,12.6,12.6v0
	C381,363.1,375.3,368.7,368.4,368.7z"/>
<path class="st1" d="M302.4,403.3H145.1c-6.9,0-12.6-5.7-12.6-12.6v0c0-6.9,5.7-12.6,12.6-12.6h157.2c6.9,0,12.6,5.7,12.6,12.6v0
	C314.9,397.6,309.3,403.3,302.4,403.3z"/>
</svg>
