<?xml version="1.0" encoding="utf-8"?>
<!-- Generator: Adobe Illustrator 26.0.3, SVG Export Plug-In . SVG Version: 6.00 Build 0)  -->
<svg version="1.1" xmlns="http://www.w3.org/2000/svg" xmlns:xlink="http://www.w3.org/1999/xlink" x="0px" y="0px"
	 viewBox="0 0 500 500" style="enable-background:new 0 0 500 500;" xml:space="preserve">
<style type="text/css">
	.st0{fill:#F6F6F6;}
	.st1{fill:#E6E6E6;}
</style>
<path class="st0" d="M364.2,175.8c-15.1-51.6-62.7-89.3-119.3-89.3c-67.9,0-123.1,54.4-124.4,122c-31.6,3.7-56.1,30.5-56.1,63.1
	c0,35.1,28.4,63.5,63.5,63.5h226.7c44.2,0,80-35.8,80-80C434.7,214.4,403.9,180.4,364.2,175.8z"/>
<path class="st1" d="M186.8,193.5H83.2c-6.9,0-12.6-5.7-12.6-12.6l0,0c0-6.9,5.7-12.6,12.6-12.6h103.6c6.9,0,12.6,5.7,12.6,12.6l0,0
	C199.4,187.8,193.7,193.5,186.8,193.5z"/>
<path class="st1" d="M245.8,195.8h-20.6c-6.9,0-12.6-5.7-12.6-12.6l0,0c0-6.9,5.7-12.6,12.6-12.6h20.6c6.9,0,12.6,5.7,12.6,12.6l0,0
	C258.4,190.2,252.7,195.8,245.8,195.8z"/>
<path class="st1" d="M377.3,379H220.1c-6.9,0-12.6-5.7-12.6-12.6l0,0c0-6.9,5.7-12.6,12.6-12.6h157.2c6.9,0,12.6,5.7,12.6,12.6l0,0
	C389.9,373.4,384.2,379,377.3,379z"/>
<path class="st1" d="M286.1,413.6H128.9c-6.9,0-12.6-5.7-12.6-12.6l0,0c0-6.9,5.7-12.6,12.6-12.6h157.2c6.9,0,12.6,5.7,12.6,12.6
	l0,0C298.7,407.9,293,413.6,286.1,413.6z"/>
<path class="st1" d="M343.3,413.6h-20.6c-6.9,0-12.6-5.7-12.6-12.6l0,0c0-6.9,5.7-12.6,12.6-12.6h20.6c6.9,0,12.6,5.7,12.6,12.6l0,0
	C355.9,408,350.2,413.6,343.3,413.6z"/>
<path class="st1" d="M184.5,379h-20.6c-6.9,0-12.6-5.7-12.6-12.6l0,0c0-6.9,5.7-12.6,12.6-12.6h20.6c6.9,0,12.6,5.7,12.6,12.6l0,0
	C197.1,373.4,191.4,379,184.5,379z"/>
</svg>
