<?xml version="1.0" encoding="utf-8"?>
<!-- Generator: Adobe Illustrator 26.0.3, SVG Export Plug-In . SVG Version: 6.00 Build 0)  -->
<svg version="1.1" xmlns="http://www.w3.org/2000/svg" xmlns:xlink="http://www.w3.org/1999/xlink" x="0px" y="0px"
	 viewBox="0 0 500 500" style="enable-background:new 0 0 500 500;" xml:space="preserve">
<style type="text/css">
	.st0{fill-rule:evenodd;clip-rule:evenodd;fill:#CFD8DC;}
	.st1{fill:#90A4AE;}
	.st2{fill-rule:evenodd;clip-rule:evenodd;fill:#FF485E;}
	.st3{fill-rule:evenodd;clip-rule:evenodd;fill:#D82356;}
</style>
<path class="st0" d="M283.7,291.1V103.4c0-21.8-17.8-39.6-39.6-39.6h0c-22.9,0-41.6,18.7-41.6,41.6v185.8
	c-27.2,14.5-45.6,43.1-45.6,76.1c0,47.6,38.6,86.2,86.2,86.2c47.6,0,86.2-38.6,86.2-86.2C329.4,334.2,310.9,305.6,283.7,291.1z"/>
<path class="st1" d="M283.5,133h-28.6c-2.7,0-4.9-2.2-4.9-4.9l0,0c0-2.7,2.2-4.9,4.9-4.9h28.6V133z"/>
<path class="st2" d="M266.1,314.7V250H222c-1.1,0-2,0.9-2,2v62.8c-20.2,8.9-34.2,29-34.2,52.4c0,31.6,25.6,57.3,57.3,57.3
	c31.6,0,57.3-25.6,57.3-57.3C300.3,343.8,286.2,323.6,266.1,314.7z"/>
<path class="st1" d="M283.5,192.7h-28.6c-2.7,0-4.9-2.2-4.9-4.9v0c0-2.7,2.2-4.9,4.9-4.9h28.6V192.7z"/>
<path class="st3" d="M266.1,314.7V250h-12.8v64.7c20.2,8.9,34.2,29,34.2,52.4c0,29.5-22.2,53.7-50.9,56.9c2.1,0.2,4.2,0.4,6.4,0.4
	c31.6,0,57.3-25.6,57.3-57.3C300.3,343.8,286.2,323.6,266.1,314.7z"/>
<path class="st1" d="M283.5,152.9h-16.1c-2.7,0-4.9-2.2-4.9-4.9v0c0-2.7,2.2-4.9,4.9-4.9h16.1V152.9z"/>
<path class="st1" d="M283.5,172.8h-16.1c-2.7,0-4.9-2.2-4.9-4.9l0,0c0-2.7,2.2-4.9,4.9-4.9h16.1V172.8z"/>
<path class="st1" d="M283.5,212.6h-16.1c-2.7,0-4.9-2.2-4.9-4.9v0c0-2.7,2.2-4.9,4.9-4.9h16.1V212.6z"/>
<path class="st1" d="M283.5,232.6h-16.1c-2.7,0-4.9-2.2-4.9-4.9l0,0c0-2.7,2.2-4.9,4.9-4.9h16.1V232.6z"/>
<path class="st0" d="M362.6,133h-37.9c-5.1,0-9.2-4.1-9.2-9.2v0c0-5.1,4.1-9.2,9.2-9.2h37.9c5.1,0,9.2,4.1,9.2,9.2v0
	C371.8,128.9,367.7,133,362.6,133z"/>
<path class="st0" d="M352.8,104.9v37.9c0,5.1-4.1,9.2-9.2,9.2h0c-5.1,0-9.2-4.1-9.2-9.2v-37.9c0-5.1,4.1-9.2,9.2-9.2h0
	C348.7,95.7,352.8,99.8,352.8,104.9z"/>
</svg>
