<?xml version="1.0" encoding="utf-8"?>
<!-- Generator: Adobe Illustrator 26.0.3, SVG Export Plug-In . SVG Version: 6.00 Build 0)  -->
<svg version="1.1" xmlns="http://www.w3.org/2000/svg" xmlns:xlink="http://www.w3.org/1999/xlink" x="0px" y="0px"
	 viewBox="0 0 500 500" style="enable-background:new 0 0 500 500;" xml:space="preserve">
<style type="text/css">
	.st0{fill:#FF6464;}
	.st1{fill-rule:evenodd;clip-rule:evenodd;fill:#707070;}
	.st2{fill:#707070;}
</style>
<path id="Layer_00000134940331101932734760000003625063363348333955_" class="st0" d="M241,347.6V210.8c0-4.9-4-8.9-8.9-8.9
	s-8.9,4-8.9,8.9v136.8c-8.1,3.4-13.9,11.5-13.9,21c0,12.6,10.2,22.8,22.8,22.8s22.8-10.2,22.8-22.8C254.9,359.1,249.2,351,241,347.6
	z"/>
<path class="st1" d="M271.9,314.7V100.5c0-18.8-15.2-34-34-34h-11.4c-18.8,0-34,15.2-34,34v214.2c-16,12.1-26.3,31.2-26.3,52.8
	c0,36.4,29.6,66,66,66s66-29.6,66-66C298.2,345.9,287.9,326.8,271.9,314.7z M232.1,418.7c-28.3,0-51.2-22.9-51.2-51.2
	c0-12.4,4.4-23.7,11.7-32.6c4-4.9,9-9,14.7-12.1V100.5c0-10.7,8.6-19.2,19.2-19.2h11.4c10.7,0,19.2,8.6,19.2,19.2V112h-13.3
	c-2.1,0-3.9,1.8-3.9,3.8c0,2.1,1.8,3.9,3.9,3.9h13.3v20.9h-13.3c-2.1,0-3.9,1.8-3.9,3.8c0,2.1,1.8,3.8,3.9,3.8h13.3v20.9h-12.9
	c-2.1,0-3.8,1.8-3.8,3.9c0,2.1,1.8,3.8,3.8,3.8h12.9v145.8c5.6,3.1,10.5,7.3,14.7,12.1c7.3,8.9,11.7,20.3,11.7,32.6
	C283.4,395.8,260.3,418.7,232.1,418.7z"/>
<path id="形状_1_00000042699822316602100400000015112746886881744018_" class="st2" d="M292.9,105.3h36.8c2.1,0,3.9,1.7,3.9,3.9
	v4.6c0,2.1-1.7,3.9-3.9,3.9h-36.8c-2.1,0-3.9-1.7-3.9-3.9v-4.6C289.1,107,290.8,105.3,292.9,105.3z"/>
<path id="形状_1_00000134948746520138197680000008760973766172937091_" class="st2" d="M293.2,105.1h36.8c2.1,0,3.9,1.7,3.9,3.9
	v4.6c0,2.1-1.7,3.9-3.9,3.9h-36.8c-2.1,0-3.9-1.7-3.9-3.9v-4.6C289.4,106.8,291.1,105.1,293.2,105.1z"/>
<path id="形状_1_00000041281907571917778400000004906923414509739935_" class="st2" d="M305.5,129.7V92.8c0-2.1,1.7-3.9,3.9-3.9
	h4.6c2.1,0,3.9,1.7,3.9,3.9v36.8c0,2.1-1.7,3.9-3.9,3.9h-4.6C307.2,133.5,305.5,131.8,305.5,129.7z"/>
</svg>
