<?xml version="1.0" encoding="utf-8"?>
<!-- Generator: Adobe Illustrator 26.0.3, SVG Export Plug-In . SVG Version: 6.00 Build 0)  -->
<svg version="1.1" xmlns="http://www.w3.org/2000/svg" xmlns:xlink="http://www.w3.org/1999/xlink" x="0px" y="0px"
	 viewBox="0 0 500 500" style="enable-background:new 0 0 500 500;" xml:space="preserve">
<style type="text/css">
	.st0{fill:#E3E3E3;}
	.st1{fill:#F6F6F6;}
	.st2{fill:#909090;}
</style>
<path class="st0" d="M407.8,199.8c-0.1,0-0.3,0-0.4,0c-4.6-49.6-46.3-88.4-97.1-88.4c-53.9,0-97.5,43.7-97.5,97.5
	c0,52.1,40.8,94.6,92.2,97.4v0.1h102.8c29.4,0,53.3-23.9,53.3-53.3C461.1,223.6,437.3,199.8,407.8,199.8z"/>
<path class="st1" d="M350.2,223.1c-15.7-53.6-65.2-92.8-124-92.8c-70.5,0-127.8,56.5-129.1,126.7c-32.8,3.9-58.3,31.7-58.3,65.6
	c0,36.5,29.6,66.1,66.1,66.1h235.5c45.9,0,83.1-37.2,83.1-83.1C423.5,263,391.5,228,350.2,223.1z"/>
<path class="st2" d="M181.3,346.8c-2.2,0-4.3-1.2-5.3-3.2l-25.5-49.1L136.7,341c-0.9,3.2-4.3,5-7.4,4.1c-3.2-0.9-5-4.3-4.1-7.4
	l17.9-60.8c0.7-2.3,2.7-4,5.2-4.3c2.4-0.2,4.8,1,5.9,3.2l25.1,48.3l11.6-46.9c0.8-3.2,4-5.2,7.3-4.4c3.2,0.8,5.2,4,4.4,7.3
	l-15.4,62.4c-0.6,2.4-2.6,4.2-5.1,4.5C181.7,346.8,181.5,346.8,181.3,346.8z"/>
<path class="st2" d="M217.5,346.8c-0.6,0-1.2-0.1-1.8-0.3c-3.2-1-4.9-4.4-3.9-7.5l20.1-63.6c1-3.2,4.4-4.9,7.5-3.9
	c3.2,1,4.9,4.4,3.9,7.5l-20.1,63.6C222.4,345.2,220.1,346.8,217.5,346.8z"/>
<path class="st2" d="M315.9,346.8c-2.3,0-4.6-1.4-5.5-3.7l-21.1-50l-23.6,50.2c-1.4,3-5,4.3-8,2.9c-3-1.4-4.3-5-2.9-8l29.4-62.4
	c1-2.1,3.2-3.5,5.5-3.4c2.4,0,4.5,1.5,5.4,3.7l26.4,62.4c1.3,3.1-0.1,6.6-3.2,7.9C317.5,346.7,316.7,346.8,315.9,346.8z"/>
<g>
	<line class="st2" x1="276.1" y1="315.3" x2="289.5" y2="315.3"/>
	<path class="st2" d="M289.5,321.3h-13.4c-3.3,0-6-2.7-6-6s2.7-6,6-6h13.4c3.3,0,6,2.7,6,6S292.8,321.3,289.5,321.3z"/>
</g>
</svg>
