<?xml version="1.0" encoding="utf-8"?>
<!-- Generator: Adobe Illustrator 26.0.3, SVG Export Plug-In . SVG Version: 6.00 Build 0)  -->
<svg version="1.1" xmlns="http://www.w3.org/2000/svg" xmlns:xlink="http://www.w3.org/1999/xlink" x="0px" y="0px"
	 viewBox="0 0 500 500" style="enable-background:new 0 0 500 500;" xml:space="preserve">
<style type="text/css">
	.st0{fill:#E3E3E3;}
	.st1{fill:#FFB55A;}
	.st2{fill:#FFCF00;}
	.st3{fill:#F6F6F6;}
</style>
<path class="st0" d="M426.7,211.7c-0.2,0-0.3,0-0.5,0c-5.1-55.1-51.4-98.2-107.8-98.2c-59.8,0-108.2,48.5-108.2,108.2
	c0,57.8,45.3,105,102.4,108.1v0.2h114.1c32.7,0,59.2-26.5,59.2-59.2S459.4,211.7,426.7,211.7z"/>
<g>
	<polygon class="st1" points="22.5,188.6 138.8,63 264.4,179.3 148.1,304.8 	"/>
	<rect x="57.9" y="98.4" class="st1" width="171" height="171"/>
	<circle class="st2" cx="143.5" cy="183.9" r="85.7"/>
</g>
<path class="st3" d="M359.8,242c-17.4-59.5-72.4-103-137.6-103c-78.3,0-141.9,62.7-143.3,140.7c-36.4,4.3-64.7,35.2-64.7,72.8
	c0,40.5,32.8,73.3,73.3,73.3h261.4c50.9,0,92.2-41.3,92.2-92.2C441.1,286.3,405.6,247.4,359.8,242z"/>
</svg>
