<?xml version="1.0" encoding="utf-8"?>
<!-- Generator: Adobe Illustrator 26.0.3, SVG Export Plug-In . SVG Version: 6.00 Build 0)  -->
<svg version="1.1" xmlns="http://www.w3.org/2000/svg" xmlns:xlink="http://www.w3.org/1999/xlink" x="0px" y="0px"
	 viewBox="0 0 500 500" style="enable-background:new 0 0 500 500;" xml:space="preserve">
<style type="text/css">
	.st0{fill-rule:evenodd;clip-rule:evenodd;fill:#FFB55A;}
	.st1{fill:#F6F6F6;}
</style>
<path class="st0" d="M371,218.2c-52.3,0-94.7-42.4-94.7-94.7c0-9.8,1.5-19.2,4.2-28.1c0.3-0.9-0.5-1.8-1.5-1.7
	c-43.1,8-75.9,45.2-77.2,90.4c-1.5,54.1,42.9,98.8,97.1,97.4c40-1,73.8-26.7,86.7-62.5c0.3-0.9-0.4-1.9-1.4-1.7
	C379.9,217.9,375.5,218.2,371,218.2z"/>
<path class="st1" d="M348.5,269.4c-13-44.4-54-76.8-102.6-76.8c-58.4,0-105.7,46.8-106.8,104.8c-27.2,3.2-48.2,26.3-48.2,54.3
	c0,30.2,24.5,54.7,54.7,54.7h194.8c38,0,68.7-30.8,68.7-68.7C409.1,302.4,382.6,273.4,348.5,269.4z"/>
</svg>
