<?xml version="1.0" encoding="utf-8"?>
<!-- Generator: Adobe Illustrator 26.0.3, SVG Export Plug-In . SVG Version: 6.00 Build 0)  -->
<svg version="1.1" xmlns="http://www.w3.org/2000/svg" xmlns:xlink="http://www.w3.org/1999/xlink" x="0px" y="0px"
	 viewBox="0 0 500 500" style="enable-background:new 0 0 500 500;" xml:space="preserve">
<style type="text/css">
	.st0{fill-rule:evenodd;clip-rule:evenodd;fill:#FFB55A;}
	.st1{fill:#F6F6F6;}
	.st2{fill:#FFB55A;}
</style>
<path class="st0" d="M447.2,316.9c-114.4,0-207.2-92.8-207.2-207.2c0-21.4,3.3-42.1,9.3-61.5c0.6-2-1.1-4-3.2-3.6
	c-94.3,17.6-166.1,99-169,197.7C73.7,360.7,171,458.3,289.4,455.4c87.4-2.2,161.4-58.5,189.7-136.7c0.7-2-1-4.1-3.1-3.8
	C466.6,316.2,457,316.9,447.2,316.9z"/>
<path class="st1" d="M260.3,304.7c-11.1-38-46.2-65.8-87.8-65.8c-50,0-90.6,40-91.5,89.8c-23.3,2.7-41.3,22.5-41.3,46.5
	c0,25.9,21,46.8,46.8,46.8h166.8c32.5,0,58.9-26.4,58.9-58.9C312.2,333,289.5,308.1,260.3,304.7z"/>
<polygon class="st2" points="371.1,111.1 380.3,129.7 400.8,132.7 386,147.2 389.5,167.6 371.1,158 352.7,167.6 356.2,147.2 
	341.3,132.7 361.9,129.7 "/>
</svg>
