<?xml version="1.0" encoding="utf-8"?>
<!-- Generator: Adobe Illustrator 26.0.3, SVG Export Plug-In . SVG Version: 6.00 Build 0)  -->
<svg version="1.1" id="图层_1" xmlns="http://www.w3.org/2000/svg" xmlns:xlink="http://www.w3.org/1999/xlink" x="0px" y="0px"
	 viewBox="0 0 500 500" style="enable-background:new 0 0 500 500;" xml:space="preserve">
<style type="text/css">
	.st0{clip-path:url(#SVGID_00000033353155484695955050000012997579017488118193_);fill:#FCD063;}
	.st1{fill:#F7B84E;}
	.st2{fill:#C98E3F;}
	.st3{fill:#AB7934;}
</style>
<g>
	<g>
		<defs>
			<rect id="SVGID_1_" x="25" y="25" width="450" height="450"/>
		</defs>
		<clipPath id="SVGID_00000171713492556432832970000003660740652220842417_">
			<use xlink:href="#SVGID_1_"  style="overflow:visible;"/>
		</clipPath>
		<path style="clip-path:url(#SVGID_00000171713492556432832970000003660740652220842417_);fill:#FCD063;" d="M24.9,249.9
			c0,124,100.7,224.6,224.8,224.6c124.2,0,224.8-100.5,224.8-224.6c0-124-100.7-224.6-224.8-224.6C125.6,25.3,24.9,125.8,24.9,249.9
			L24.9,249.9z M24.9,249.9"/>
	</g>
	<path class="st1" d="M394,77.7c32.7,39,52.5,89.2,52.5,144.1c0,124-100.7,224.6-224.8,224.6c-54.9,0-105.2-19.7-144.3-52.4
		c41.2,49.2,103.1,80.5,172.4,80.5c124.2,0,224.8-100.6,224.8-224.6C474.6,180.7,443.2,118.9,394,77.7L394,77.7z M394,77.7"/>
	<path class="st2" d="M95.2,221.8c0,15.5,12.6,28.1,28.1,28.1c15.5,0,28.1-12.6,28.1-28.1c0-15.5-12.6-28.1-28.1-28.1
		C107.8,193.7,95.2,206.3,95.2,221.8L95.2,221.8z M95.2,221.8"/>
	<path class="st3" d="M123.3,207.8c13.1,0,24,9,27.1,21.1c0.6-2.3,1-4.6,1-7c0-15.5-12.6-28.1-28.1-28.1
		c-15.5,0-28.1,12.6-28.1,28.1c0,2.4,0.4,4.8,1,7C99.3,216.7,110.2,207.8,123.3,207.8L123.3,207.8z M123.3,207.8"/>
	<path class="st2" d="M348.1,221.8c0,15.5,12.6,28.1,28.1,28.1c15.5,0,28.1-12.6,28.1-28.1c0-15.5-12.6-28.1-28.1-28.1
		C360.7,193.7,348.1,206.3,348.1,221.8L348.1,221.8z M348.1,221.8"/>
	<path class="st3" d="M376.2,207.8c13.1,0,24,9,27.1,21.1c0.6-2.3,1-4.6,1-7c0-15.5-12.6-28.1-28.1-28.1
		c-15.5,0-28.1,12.6-28.1,28.1c0,2.4,0.4,4.8,1,7C352.3,216.7,363.1,207.8,376.2,207.8L376.2,207.8z M376.2,207.8"/>
	<path class="st1" d="M362.2,285c0,11.6,9.4,21.1,21.1,21.1c11.6,0,21.1-9.4,21.1-21.1c0-11.6-9.4-21.1-21.1-21.1
		C371.6,263.9,362.2,273.3,362.2,285L362.2,285z M362.2,285"/>
	<path class="st1" d="M95.2,285c0,11.6,9.4,21.1,21.1,21.1c11.6,0,21.1-9.4,21.1-21.1c0-11.6-9.4-21.1-21.1-21.1
		C104.6,263.9,95.2,273.3,95.2,285L95.2,285z M95.2,285"/>
	<path class="st2" d="M320,299c0,11.6-9.5,21.1-21.1,21.1h-98.4c-11.6,0-21.1-9.5-21.1-21.1s9.5-21.1,21.1-21.1h98.4
		C310.5,277.9,320,287.4,320,299L320,299z M320,299"/>
	<path class="st3" d="M180.8,292h137.9c-2.9-8.1-10.7-14-19.8-14h-98.4C191.5,277.9,183.7,283.8,180.8,292L180.8,292z M180.8,292"/>
</g>
</svg>
