<?xml version="1.0" encoding="utf-8"?>
<!-- Generator: Adobe Illustrator 26.0.3, SVG Export Plug-In . SVG Version: 6.00 Build 0)  -->
<svg version="1.1" xmlns="http://www.w3.org/2000/svg" xmlns:xlink="http://www.w3.org/1999/xlink" x="0px" y="0px"
	 viewBox="0 0 500 500" style="enable-background:new 0 0 500 500;" xml:space="preserve">
<style type="text/css">
	.st0{fill:#E3E3E3;}
	.st1{fill:#F6F6F6;}
	.st2{fill-rule:evenodd;clip-rule:evenodd;fill:#F7AD44;}
	.st3{fill:#4FC0F2;}
</style>
<path class="st0" d="M400.2,158.3c-0.1,0-0.3,0-0.4,0c-4.3-46.8-43.7-83.4-91.6-83.4c-50.8,0-92,41.2-92,92
	c0,49.1,38.5,89.3,87,91.9v0.1h97c27.8,0,50.3-22.5,50.3-50.3S428,158.3,400.2,158.3z"/>
<path class="st1" d="M343.3,184c-14.8-50.6-61.6-87.6-117-87.6c-66.5,0-120.6,53.3-121.8,119.6c-31,3.6-55,30-55,61.9
	c0,34.4,27.9,62.3,62.3,62.3H334c43.3,0,78.4-35.1,78.4-78.4C412.4,221.7,382.2,188.6,343.3,184z"/>
<polygon class="st2" points="232.7,327.4 280.1,327.4 209.1,423.6 209.1,359.3 168.4,359.3 256,240.8 "/>
<path class="st3" d="M59.7,384.1l9.1-22.3c2.8-6.9,10.7-10.2,17.6-7.4h0c6.9,2.8,10.2,10.7,7.4,17.6l-9.1,22.3
	c-2.8,6.9-10.7,10.2-17.6,7.4l0,0C60.2,398.9,56.9,391,59.7,384.1z"/>
<path class="st3" d="M106.5,406.6l18.3-44.8c2.8-6.9,10.7-10.2,17.6-7.4h0c6.9,2.8,10.2,10.7,7.4,17.6l-18.3,44.8
	c-2.8,6.9-10.7,10.2-17.6,7.4h0C107,421.4,103.7,413.5,106.5,406.6z"/>
<path class="st3" d="M347.8,384.1l9.1-22.3c2.8-6.9,10.7-10.2,17.6-7.4h0c6.9,2.8,10.2,10.7,7.4,17.6l-9.1,22.3
	c-2.8,6.9-10.7,10.2-17.6,7.4v0C348.3,398.9,345,391,347.8,384.1z"/>
<path class="st3" d="M281.1,406.6l18.3-44.8c2.8-6.9,10.7-10.2,17.6-7.4h0c6.9,2.8,10.2,10.7,7.4,17.6l-18.3,44.8
	c-2.8,6.9-10.7,10.2-17.6,7.4h0C281.6,421.4,278.3,413.5,281.1,406.6z"/>
</svg>
