<?xml version="1.0" encoding="utf-8"?>
<!-- Generator: Adobe Illustrator 26.0.3, SVG Export Plug-In . SVG Version: 6.00 Build 0)  -->
<svg version="1.1" id="图层_1" xmlns="http://www.w3.org/2000/svg" xmlns:xlink="http://www.w3.org/1999/xlink" x="0px" y="0px"
	 viewBox="0 0 500 500" style="enable-background:new 0 0 500 500;" xml:space="preserve">
<style type="text/css">
	.st0{fill:#E3E3E3;}
	.st1{fill:#F6F6F6;}
	.st2{fill:#4FC0F2;}
</style>
<path class="st0" d="M392.2,145.9c-0.1,0-0.3,0-0.4,0c-4.1-44.2-41.2-78.8-86.5-78.8c-48,0-86.9,38.9-86.9,86.9
	c0,46.4,36.4,84.3,82.2,86.8v0.1h91.6c26.2,0,47.5-21.3,47.5-47.5S418.4,145.9,392.2,145.9z"/>
<path class="st1" d="M338.5,170.2c-14-47.8-58.1-82.7-110.5-82.7c-62.8,0-113.9,50.4-115.1,112.9C83.7,203.8,61,228.7,61,258.9
	c0,32.5,26.4,58.9,58.9,58.9h209.8c40.9,0,74-33.1,74-74C403.7,205.8,375.2,174.5,338.5,170.2z"/>
<path class="st2" d="M155.6,374.8c0,8.5,6.7,15.4,15.1,15.4c8.3,0,15.1-6.9,15.1-15.4c0-8.5-15.1-32.4-15.1-32.4
	S155.6,366.3,155.6,374.8z"/>
<path class="st2" d="M277.3,375c0,8.5,6.7,15.4,15.1,15.4c8.3,0,15.1-6.9,15.1-15.4s-15.1-32.4-15.1-32.4S277.3,366.5,277.3,375z"/>
</svg>
