<?xml version="1.0" encoding="utf-8"?>
<!-- Generator: Adobe Illustrator 26.0.3, SVG Export Plug-In . SVG Version: 6.00 Build 0)  -->
<svg version="1.1" xmlns="http://www.w3.org/2000/svg" xmlns:xlink="http://www.w3.org/1999/xlink" x="0px" y="0px"
	 viewBox="0 0 500 500" style="enable-background:new 0 0 500 500;" xml:space="preserve">
<style type="text/css">
	.st0{fill:#E3E3E3;}
	.st1{fill:#F6F6F6;}
	.st2{fill:#4FC0F2;}
</style>
<path class="st0" d="M400.2,138.9c-0.1,0-0.3,0-0.4,0c-4.3-46.8-43.7-83.4-91.6-83.4c-50.8,0-92,41.2-92,92
	c0,49.1,38.5,89.3,87,91.9v0.1h97c27.8,0,50.3-22.5,50.3-50.3S428,138.9,400.2,138.9z"/>
<path class="st1" d="M343.3,164.7c-14.8-50.6-61.6-87.6-117-87.6c-66.5,0-120.6,53.3-121.8,119.6c-31,3.6-55,30-55,61.9
	c0,34.4,27.9,62.3,62.3,62.3H334c43.3,0,78.4-35.1,78.4-78.4C412.4,202.4,382.2,169.3,343.3,164.7z"/>
<path class="st2" d="M153.1,399.2v-48.4c0-7.5,6-13.5,13.5-13.5h0c7.5,0,13.5,6,13.5,13.5v48.4c0,7.5-6,13.5-13.5,13.5h0
	C159.1,412.7,153.1,406.6,153.1,399.2z"/>
<path class="st2" d="M208.7,431v-80.2c0-7.5,6-13.5,13.5-13.5h0c7.5,0,13.5,6,13.5,13.5V431c0,7.5-6,13.5-13.5,13.5h0
	C214.7,444.5,208.7,438.5,208.7,431z"/>
<path class="st2" d="M264.3,431v-80.2c0-7.5,6-13.5,13.5-13.5h0c7.5,0,13.5,6,13.5,13.5V431c0,7.5-6,13.5-13.5,13.5h0
	C270.4,444.5,264.3,438.5,264.3,431z"/>
<path class="st2" d="M320,399.2v-48.4c0-7.5,6-13.5,13.5-13.5l0,0c7.5,0,13.5,6,13.5,13.5v48.4c0,7.5-6,13.5-13.5,13.5l0,0
	C326,412.7,320,406.6,320,399.2z"/>
<path class="st2" d="M97.4,377.2v-26.4c0-7.5,6-13.5,13.5-13.5h0c7.5,0,13.5,6,13.5,13.5v26.4c0,7.5-6,13.5-13.5,13.5h0
	C103.5,390.7,97.4,384.7,97.4,377.2z"/>
<path class="st2" d="M375.6,377.2v-26.4c0-7.5,6-13.5,13.5-13.5h0c7.5,0,13.5,6,13.5,13.5v26.4c0,7.5-6,13.5-13.5,13.5h0
	C381.6,390.7,375.6,384.7,375.6,377.2z"/>
</svg>
