<?xml version="1.0" encoding="utf-8"?>
<!-- Generator: Adobe Illustrator 26.0.3, SVG Export Plug-In . SVG Version: 6.00 Build 0)  -->
<svg version="1.1" xmlns="http://www.w3.org/2000/svg" xmlns:xlink="http://www.w3.org/1999/xlink" x="0px" y="0px"
	 viewBox="0 0 500 500" style="enable-background:new 0 0 500 500;" xml:space="preserve">
<style type="text/css">
	.st0{fill:#E3E3E3;}
	.st1{fill:#F6F6F6;}
	.st2{fill:#4FC0F2;}
</style>
<path class="st0" d="M391.8,144.4c-0.1,0-0.3,0-0.4,0c-4.1-44.2-41.2-78.8-86.5-78.8c-48,0-86.9,38.9-86.9,86.9
	c0,46.4,36.4,84.3,82.2,86.8v0.1h91.6c26.2,0,47.5-21.3,47.5-47.5S418,144.4,391.8,144.4z"/>
<path class="st1" d="M338.1,168.7C324.1,120.9,280,86,227.6,86c-62.8,0-113.9,50.4-115.1,112.9c-29.2,3.4-51.9,28.3-51.9,58.5
	c0,32.5,26.4,58.9,58.9,58.9h209.8c40.9,0,74-33.1,74-74C403.3,204.3,374.8,173,338.1,168.7z"/>
<path class="st2" d="M221,409.6l28.5-69.9c2.8-6.9,10.7-10.2,17.6-7.4v0c6.9,2.8,10.2,10.7,7.4,17.6L246,419.8
	c-2.8,6.9-10.7,10.2-17.6,7.4h0C221.5,424.4,218.2,416.5,221,409.6z"/>
<path class="st2" d="M291.7,384.5l18.3-44.8c2.8-6.9,10.7-10.2,17.6-7.4l0,0c6.9,2.8,10.2,10.7,7.4,17.6l-18.3,44.8
	c-2.8,6.9-10.7,10.2-17.6,7.4l0,0C292.2,399.3,288.9,391.4,291.7,384.5z"/>
<path class="st2" d="M99.8,360.5l8.5-20.8c2.8-6.9,10.7-10.2,17.6-7.4l0,0c6.9,2.8,10.2,10.7,7.4,17.6l-8.5,20.8
	c-2.8,6.9-10.7,10.2-17.6,7.4h0C100.3,375.3,97,367.4,99.8,360.5z"/>
<path class="st2" d="M362.2,360.5l8.5-20.8c2.8-6.9,10.7-10.2,17.6-7.4l0,0c6.9,2.8,10.2,10.7,7.4,17.6l-8.5,20.8
	c-2.8,6.9-10.7,10.2-17.6,7.4h0C362.7,375.3,359.4,367.4,362.2,360.5z"/>
<g>
	<path class="st2" d="M166.9,384.5l18.3-44.8c2.8-6.9,10.7-10.2,17.6-7.4l0,0c6.9,2.8,10.2,10.7,7.4,17.6l-18.3,44.8
		c-2.8,6.9-10.7,10.2-17.6,7.4l0,0C167.4,399.3,164.1,391.4,166.9,384.5z"/>
	<path class="st2" d="M153.8,416.6L153.8,416.6c2.4-7.1,10.1-10.8,17.1-8.4l0,0c7.1,2.4,10.8,10.1,8.4,17.1v0
		c-2.4,7.1-10.1,10.8-17.1,8.4h0C155.2,431.3,151.4,423.6,153.8,416.6z"/>
</g>
</svg>
