<?xml version="1.0" encoding="utf-8"?>
<!-- Generator: Adobe Illustrator 26.0.3, SVG Export Plug-In . SVG Version: 6.00 Build 0)  -->
<svg version="1.1" xmlns="http://www.w3.org/2000/svg" xmlns:xlink="http://www.w3.org/1999/xlink" x="0px" y="0px"
	 viewBox="0 0 500 500" style="enable-background:new 0 0 500 500;" xml:space="preserve">
<style type="text/css">
	.st0{fill:#E3E3E3;}
	.st1{fill:#F6F6F6;}
	.st2{fill:#4FC0F2;}
</style>
<path class="st0" d="M391.8,124.7c-0.1,0-0.3,0-0.4,0c-4.1-44.2-41.2-78.8-86.5-78.8c-48,0-86.9,38.9-86.9,86.9
	c0,46.4,36.4,84.3,82.2,86.8v0.1h91.6c26.2,0,47.5-21.3,47.5-47.5S418,124.7,391.8,124.7z"/>
<path class="st1" d="M338.1,149c-14-47.8-58.1-82.7-110.5-82.7c-62.8,0-113.9,50.4-115.1,112.9c-29.2,3.4-51.9,28.3-51.9,58.5
	c0,32.5,26.4,58.9,58.9,58.9h209.8c40.9,0,74-33.1,74-74C403.3,184.6,374.8,153.3,338.1,149z"/>
<path class="st2" d="M150.8,366c0,13-10.5,23.5-23.5,23.5S103.9,379,103.9,366s23.5-49.5,23.5-49.5S150.8,353.1,150.8,366z"/>
<path class="st2" d="M396.1,370.4c0,13-10.5,23.5-23.5,23.5s-23.5-10.5-23.5-23.5s23.5-49.5,23.5-49.5S396.1,357.4,396.1,370.4z"/>
<path class="st2" d="M350.1,440.4c0,7.6-6.2,13.8-13.8,13.8c-7.6,0-13.8-6.2-13.8-13.8s13.8-29,13.8-29S350.1,432.8,350.1,440.4z"/>
<path class="st2" d="M168.1,433.4c0,7.6-6.2,13.8-13.8,13.8c-7.6,0-13.8-6.2-13.8-13.8c0-7.6,13.8-29,13.8-29
	S168.1,425.8,168.1,433.4z"/>
<g>
	<path class="st2" d="M183.8,404.8L183.8,404.8c0-7.5,6-13.5,13.5-13.5h0c7.5,0,13.5,6,13.5,13.5v0c0,7.5-6,13.5-13.5,13.5h0
		C189.9,418.3,183.8,412.2,183.8,404.8z"/>
	<path class="st2" d="M183.8,371.2v-48.4c0-7.5,6-13.5,13.5-13.5h0c7.5,0,13.5,6,13.5,13.5v48.4c0,7.5-6,13.5-13.5,13.5h0
		C189.9,384.7,183.8,378.6,183.8,371.2z"/>
</g>
<path class="st2" d="M239.7,422.1v-99.3c0-7.5,6-13.5,13.5-13.5h0c7.5,0,13.5,6,13.5,13.5v99.3c0,7.5-6,13.5-13.5,13.5h0
	C245.8,435.6,239.7,429.6,239.7,422.1z"/>
<path class="st2" d="M295.6,388.7v-67.8c0-7.5,6-13.5,13.5-13.5h0c7.5,0,13.5,6,13.5,13.5v67.8c0,7.5-6,13.5-13.5,13.5h0
	C301.7,402.2,295.6,396.2,295.6,388.7z"/>
</svg>
