<?xml version="1.0" encoding="utf-8"?>
<!-- Generator: Adobe Illustrator 26.0.3, SVG Export Plug-In . SVG Version: 6.00 Build 0)  -->
<svg version="1.1" xmlns="http://www.w3.org/2000/svg" xmlns:xlink="http://www.w3.org/1999/xlink" x="0px" y="0px"
	 viewBox="0 0 500 500" style="enable-background:new 0 0 500 500;" xml:space="preserve">
<style type="text/css">
	.st0{fill:#4FC0F2;}
</style>
<path class="st0" d="M112.8,235.7c0,10.8-8.8,19.6-19.6,19.6s-19.6-8.8-19.6-19.6s19.6-41.3,19.6-41.3S112.8,224.8,112.8,235.7z"/>
<path class="st0" d="M334.6,296.7c0,46.7-37.9,84.6-84.6,84.6s-84.6-37.9-84.6-84.6s84.6-178,84.6-178S334.6,250,334.6,296.7z"/>
<path class="st0" d="M420.2,345.6c0,10.8-8.8,19.6-19.6,19.6s-19.6-8.8-19.6-19.6s19.6-41.3,19.6-41.3S420.2,334.7,420.2,345.6z"/>
<circle class="st0" cx="338.1" cy="135.1" r="13.2"/>
<circle class="st0" cx="388.8" cy="227.3" r="7.7"/>
<circle class="st0" cx="131.5" cy="343.5" r="13.2"/>
</svg>
