<?xml version="1.0" encoding="utf-8"?>
<!-- Generator: Adobe Illustrator 26.0.3, SVG Export Plug-In . SVG Version: 6.00 Build 0)  -->
<svg version="1.1" id="图层_1" xmlns="http://www.w3.org/2000/svg" xmlns:xlink="http://www.w3.org/1999/xlink" x="0px" y="0px"
	 viewBox="0 0 500 500" style="enable-background:new 0 0 500 500;" xml:space="preserve">
<style type="text/css">
	.st0{fill:#F6F6F6;}
	.st1{fill:#4FC0F2;}
</style>
<path class="st0" d="M78.6,266.2c0,32.5,26.4,58.9,58.9,58.9h209.8c40.9,0,74-33.1,74-74c0-38-28.5-69.3-65.2-73.6
	c-14-47.8-58.1-82.7-110.5-82.7c-62.8,0-113.9,50.4-115.1,112.9C101.3,211.1,78.6,236,78.6,266.2"/>
<path class="st1" d="M180.6,382.3c0,8.5,6.7,15.4,15.1,15.4s15.1-6.9,15.1-15.4s-15.1-32.4-15.1-32.4S180.6,373.8,180.6,382.3z"/>
<g>
	<g>
		<path class="st1" d="M297.3,353.5L297.3,353.5c-0.9-1.1-0.8-2.8,0.3-3.7l5.6-4.8c1.1-0.9,2.8-0.8,3.7,0.3l0,0
			c0.9,1.1,0.8,2.8-0.3,3.7l-5.6,4.8C299.9,354.7,298.2,354.6,297.3,353.5z"/>
		<path class="st1" d="M297.2,353.5L297.2,353.5c0.9-1.1,0.8-2.8-0.3-3.7l-5.6-4.8c-1.1-0.9-2.8-0.8-3.7,0.3l0,0
			c-0.9,1.1-0.8,2.8,0.3,3.7l5.6,4.8C294.6,354.7,296.3,354.6,297.2,353.5z"/>
	</g>
	<g>
		<path class="st1" d="M279.7,363.6L279.7,363.6c-1.4,0.3-2.8-0.7-3.1-2.1l-1.3-7.2c-0.3-1.4,0.7-2.8,2.1-3.1l0,0
			c1.4-0.3,2.8,0.7,3.1,2.1l1.3,7.2C282.1,361.9,281.1,363.3,279.7,363.6z"/>
		<path class="st1" d="M279.7,363.6L279.7,363.6c-0.5-1.4-2-2.1-3.4-1.6l-6.9,2.5c-1.4,0.5-2.1,2-1.6,3.4l0,0c0.5,1.4,2,2.1,3.4,1.6
			l6.9-2.5C279.4,366.5,280.2,365,279.7,363.6z"/>
	</g>
	<g>
		<path class="st1" d="M279.7,383.9L279.7,383.9c-0.5,1.4-2,2.1-3.4,1.6l-6.9-2.5c-1.4-0.5-2.1-2-1.6-3.4l0,0c0.5-1.4,2-2.1,3.4-1.6
			l6.9,2.5C279.4,381,280.2,382.5,279.7,383.9z"/>
		<path class="st1" d="M279.7,383.9L279.7,383.9c-1.4-0.3-2.8,0.7-3.1,2.1l-1.3,7.2c-0.3,1.4,0.7,2.8,2.1,3.1l0,0
			c1.4,0.3,2.8-0.7,3.1-2.1l1.3-7.2C282.1,385.6,281.1,384.2,279.7,383.9z"/>
	</g>
	<g>
		<path class="st1" d="M314.8,363.6L314.8,363.6c1.4,0.3,2.8-0.7,3.1-2.1l1.3-7.2c0.3-1.4-0.7-2.8-2.1-3.1l0,0
			c-1.4-0.3-2.8,0.7-3.1,2.1l-1.3,7.2C312.4,361.9,313.4,363.3,314.8,363.6z"/>
		<path class="st1" d="M314.9,363.6L314.9,363.6c0.5-1.4,2-2.1,3.4-1.6l6.9,2.5c1.4,0.5,2.1,2,1.6,3.4l0,0c-0.5,1.4-2,2.1-3.4,1.6
			l-6.9-2.5C315.1,366.5,314.4,365,314.9,363.6z"/>
	</g>
	<g>
		<path class="st1" d="M314.9,383.9L314.9,383.9c0.5,1.4,2,2.1,3.4,1.6l6.9-2.5c1.4-0.5,2.1-2,1.6-3.4l0,0c-0.5-1.4-2-2.1-3.4-1.6
			l-6.9,2.5C315.1,381,314.4,382.5,314.9,383.9z"/>
		<path class="st1" d="M314.8,383.9L314.8,383.9c1.4-0.3,2.8,0.7,3.1,2.1l1.3,7.2c0.3,1.4-0.7,2.8-2.1,3.1l0,0
			c-1.4,0.3-2.8-0.7-3.1-2.1l-1.3-7.2C312.4,385.6,313.4,384.2,314.8,383.9z"/>
	</g>
	<g>
		<path class="st1" d="M297.2,394.1L297.2,394.1c0.9,1.1,0.8,2.8-0.3,3.7l-5.6,4.8c-1.1,0.9-2.8,0.8-3.7-0.3l0,0
			c-0.9-1.1-0.8-2.8,0.3-3.7l5.6-4.8C294.6,392.8,296.3,392.9,297.2,394.1z"/>
		<path class="st1" d="M297.3,394.1L297.3,394.1c-0.9,1.1-0.8,2.8,0.3,3.7l5.6,4.8c1.1,0.9,2.8,0.8,3.7-0.3l0,0
			c0.9-1.1,0.8-2.8-0.3-3.7l-5.6-4.8C299.9,392.8,298.2,392.9,297.3,394.1z"/>
	</g>
	<path class="st1" d="M323.3,385.3l-19.9-11.5l19.9-11.5c1.5-0.8,2-2.7,1.1-4.2h0c-0.8-1.5-2.7-2-4.2-1.1l-20,11.5v-23
		c0-1.7-1.4-3.1-3.1-3.1c-1.7,0-3.1,1.4-3.1,3.1v23l-20-11.5c-1.5-0.8-3.3-0.3-4.2,1.1c-0.8,1.5-0.3,3.3,1.1,4.2l19.9,11.5
		l-19.9,11.5c-1.5,0.8-2,2.7-1.1,4.2s2.7,2,4.2,1.1l20-11.5v23c0,1.7,1.4,3.1,3.1,3.1c1.7,0,3.1-1.4,3.1-3.1v-23l20,11.5
		c1.5,0.8,3.3,0.3,4.2-1.1h0C325.3,388,324.8,386.1,323.3,385.3z"/>
</g>
</svg>
