<?xml version="1.0" encoding="utf-8"?>
<!-- Generator: Adobe Illustrator 26.0.3, SVG Export Plug-In . SVG Version: 6.00 Build 0)  -->
<svg version="1.1" xmlns="http://www.w3.org/2000/svg" xmlns:xlink="http://www.w3.org/1999/xlink" x="0px" y="0px"
	 viewBox="0 0 500 500" style="enable-background:new 0 0 500 500;" xml:space="preserve">
<style type="text/css">
	.st0{fill:#4FC0F2;}
</style>
<path class="st0" d="M217.3,238.5c0,8.5,6.7,15.4,15.1,15.4c8.3,0,15.1-6.9,15.1-15.4c0-8.5-15.1-32.4-15.1-32.4
	S217.3,230,217.3,238.5z"/>
<g>
	<g>
		<path class="st0" d="M334,209.7L334,209.7c-0.9-1.1-0.8-2.8,0.3-3.7l5.6-4.8c1.1-0.9,2.8-0.8,3.7,0.3l0,0c0.9,1.1,0.8,2.8-0.3,3.7
			l-5.6,4.8C336.6,211,335,210.8,334,209.7z"/>
		<path class="st0" d="M334,209.7L334,209.7c0.9-1.1,0.8-2.8-0.3-3.7l-5.6-4.8c-1.1-0.9-2.8-0.8-3.7,0.3l0,0
			c-0.9,1.1-0.8,2.8,0.3,3.7l5.6,4.8C331.3,211,333,210.8,334,209.7z"/>
	</g>
	<g>
		<path class="st0" d="M316.4,219.8L316.4,219.8c-1.4,0.3-2.8-0.7-3.1-2.1l-1.3-7.2c-0.3-1.4,0.7-2.8,2.1-3.1l0,0
			c1.4-0.3,2.8,0.7,3.1,2.1l1.3,7.2C318.8,218.2,317.9,219.6,316.4,219.8z"/>
		<path class="st0" d="M316.4,219.9L316.4,219.9c-0.5-1.4-2-2.1-3.4-1.6l-6.9,2.5c-1.4,0.5-2.1,2-1.6,3.4l0,0c0.5,1.4,2,2.1,3.4,1.6
			l6.9-2.5C316.2,222.8,316.9,221.3,316.4,219.9z"/>
	</g>
	<g>
		<path class="st0" d="M316.4,240.1L316.4,240.1c-0.5,1.4-2,2.1-3.4,1.6l-6.9-2.5c-1.4-0.5-2.1-2-1.6-3.4l0,0c0.5-1.4,2-2.1,3.4-1.6
			l6.9,2.5C316.2,237.2,316.9,238.7,316.4,240.1z"/>
		<path class="st0" d="M316.4,240.2L316.4,240.2c-1.4-0.3-2.8,0.7-3.1,2.1l-1.3,7.2c-0.3,1.4,0.7,2.8,2.1,3.1l0,0
			c1.4,0.3,2.8-0.7,3.1-2.1l1.3-7.2C318.8,241.8,317.9,240.4,316.4,240.2z"/>
	</g>
	<g>
		<path class="st0" d="M351.6,219.8L351.6,219.8c1.4,0.3,2.8-0.7,3.1-2.1l1.3-7.2c0.3-1.4-0.7-2.8-2.1-3.1l0,0
			c-1.4-0.3-2.8,0.7-3.1,2.1l-1.3,7.2C349.2,218.2,350.1,219.6,351.6,219.8z"/>
		<path class="st0" d="M351.6,219.9L351.6,219.9c0.5-1.4,2-2.1,3.4-1.6l6.9,2.5c1.4,0.5,2.1,2,1.6,3.4l0,0c-0.5,1.4-2,2.1-3.4,1.6
			l-6.9-2.5C351.8,222.8,351.1,221.3,351.6,219.9z"/>
	</g>
	<g>
		<path class="st0" d="M351.6,240.1L351.6,240.1c0.5,1.4,2,2.1,3.4,1.6l6.9-2.5c1.4-0.5,2.1-2,1.6-3.4l0,0c-0.5-1.4-2-2.1-3.4-1.6
			l-6.9,2.5C351.8,237.2,351.1,238.7,351.6,240.1z"/>
		<path class="st0" d="M351.6,240.2L351.6,240.2c1.4-0.3,2.8,0.7,3.1,2.1l1.3,7.2c0.3,1.4-0.7,2.8-2.1,3.1l0,0
			c-1.4,0.3-2.8-0.7-3.1-2.1l-1.3-7.2C349.2,241.8,350.1,240.4,351.6,240.2z"/>
	</g>
	<g>
		<path class="st0" d="M334,250.3L334,250.3c0.9,1.1,0.8,2.8-0.3,3.7l-5.6,4.8c-1.1,0.9-2.8,0.8-3.7-0.3v0c-0.9-1.1-0.8-2.8,0.3-3.7
			l5.6-4.8C331.3,249,333,249.2,334,250.3z"/>
		<path class="st0" d="M334,250.3L334,250.3c-0.9,1.1-0.8,2.8,0.3,3.7l5.6,4.8c1.1,0.9,2.8,0.8,3.7-0.3v0c0.9-1.1,0.8-2.8-0.3-3.7
			l-5.6-4.8C336.6,249,335,249.2,334,250.3z"/>
	</g>
	<path class="st0" d="M360.1,241.5L340.1,230l19.9-11.5c1.5-0.8,2-2.7,1.1-4.2h0c-0.8-1.5-2.7-2-4.2-1.1l-20,11.5v-23
		c0-1.7-1.4-3.1-3.1-3.1c-1.7,0-3.1,1.4-3.1,3.1v23l-20-11.5c-1.5-0.8-3.3-0.3-4.2,1.1c-0.8,1.5-0.3,3.3,1.1,4.2l19.9,11.5
		l-19.9,11.5c-1.5,0.8-2,2.7-1.1,4.2s2.7,2,4.2,1.1l20-11.5v23c0,1.7,1.4,3.1,3.1,3.1c1.7,0,3.1-1.4,3.1-3.1v-23l20,11.5
		c1.5,0.8,3.3,0.3,4.2-1.1h0C362,244.2,361.5,242.4,360.1,241.5z"/>
</g>
<path class="st0" d="M336,310.3c0,4.7,3.7,8.6,8.4,8.6s8.4-3.8,8.4-8.6s-8.4-18-8.4-18S336,305.5,336,310.3z"/>
<circle class="st0" cx="239.2" cy="137.9" r="8.3"/>
<g>
	<g>
		<path class="st0" d="M158.9,164.3L158.9,164.3c-0.7-0.8-0.6-2.1,0.2-2.8l4.3-3.6c0.8-0.7,2.1-0.6,2.8,0.2l0,0
			c0.7,0.8,0.6,2.1-0.2,2.8l-4.3,3.6C160.9,165.2,159.7,165.1,158.9,164.3z"/>
		<path class="st0" d="M158.9,164.3L158.9,164.3c0.7-0.8,0.6-2.1-0.2-2.8l-4.3-3.6c-0.8-0.7-2.1-0.6-2.8,0.2h0
			c-0.7,0.8-0.6,2.1,0.2,2.8l4.3,3.6C156.9,165.2,158.2,165.1,158.9,164.3z"/>
	</g>
	<g>
		<path class="st0" d="M145.5,172L145.5,172c-1.1,0.2-2.1-0.5-2.4-1.6l-1-5.5c-0.2-1.1,0.5-2.1,1.6-2.4l0,0c1.1-0.2,2.1,0.5,2.4,1.6
			l1,5.5C147.4,170.7,146.6,171.8,145.5,172z"/>
		<path class="st0" d="M145.5,172L145.5,172c-0.4-1.1-1.5-1.6-2.6-1.2l-5.3,1.9c-1.1,0.4-1.6,1.5-1.2,2.6l0,0
			c0.4,1.1,1.5,1.6,2.6,1.2l5.3-1.9C145.4,174.2,145.9,173.1,145.5,172z"/>
	</g>
	<g>
		<path class="st0" d="M145.5,187.4L145.5,187.4c-0.4,1.1-1.5,1.6-2.6,1.2l-5.3-1.9c-1.1-0.4-1.6-1.5-1.2-2.6l0,0
			c0.4-1.1,1.5-1.6,2.6-1.2l5.3,1.9C145.4,185.2,145.9,186.4,145.5,187.4z"/>
		<path class="st0" d="M145.5,187.4L145.5,187.4c-1.1-0.2-2.1,0.5-2.4,1.6l-1,5.5c-0.2,1.1,0.5,2.1,1.6,2.4l0,0
			c1.1,0.2,2.1-0.5,2.4-1.6l1-5.5C147.4,188.7,146.6,187.6,145.5,187.4z"/>
	</g>
	<g>
		<path class="st0" d="M172.3,172L172.3,172c1.1,0.2,2.1-0.5,2.4-1.6l1-5.5c0.2-1.1-0.5-2.1-1.6-2.4h0c-1.1-0.2-2.1,0.5-2.4,1.6
			l-1,5.5C170.5,170.7,171.2,171.8,172.3,172z"/>
		<path class="st0" d="M172.3,172L172.3,172c0.4-1.1,1.5-1.6,2.6-1.2l5.3,1.9c1.1,0.4,1.6,1.5,1.2,2.6l0,0c-0.4,1.1-1.5,1.6-2.6,1.2
			l-5.3-1.9C172.5,174.2,171.9,173.1,172.3,172z"/>
	</g>
	<g>
		<path class="st0" d="M172.3,187.4L172.3,187.4c0.4,1.1,1.5,1.6,2.6,1.2l5.3-1.9c1.1-0.4,1.6-1.5,1.2-2.6v0
			c-0.4-1.1-1.5-1.6-2.6-1.2l-5.3,1.9C172.5,185.2,171.9,186.4,172.3,187.4z"/>
		<path class="st0" d="M172.3,187.4L172.3,187.4c1.1-0.2,2.1,0.5,2.4,1.6l1,5.5c0.2,1.1-0.5,2.1-1.6,2.4l0,0
			c-1.1,0.2-2.1-0.5-2.4-1.6l-1-5.5C170.5,188.7,171.2,187.6,172.3,187.4z"/>
	</g>
	<g>
		<path class="st0" d="M158.9,195.1L158.9,195.1c0.7,0.8,0.6,2.1-0.2,2.8l-4.3,3.6c-0.8,0.7-2.1,0.6-2.8-0.2l0,0
			c-0.7-0.8-0.6-2.1,0.2-2.8l4.3-3.6C156.9,194.2,158.2,194.3,158.9,195.1z"/>
		<path class="st0" d="M158.9,195.1L158.9,195.1c-0.7,0.8-0.6,2.1,0.2,2.8l4.3,3.6c0.8,0.7,2.1,0.6,2.8-0.2v0
			c0.7-0.8,0.6-2.1-0.2-2.8l-4.3-3.6C160.9,194.2,159.7,194.3,158.9,195.1z"/>
	</g>
	<path class="st0" d="M178.8,188.5l-15.2-8.8l15.2-8.8c1.1-0.6,1.5-2.1,0.9-3.2h0c-0.6-1.1-2.1-1.5-3.2-0.9l-15.2,8.8v-17.5
		c0-1.3-1-2.3-2.3-2.3c-1.3,0-2.3,1-2.3,2.3v17.5l-15.2-8.8c-1.1-0.6-2.5-0.3-3.2,0.9c-0.6,1.1-0.3,2.5,0.9,3.2l15.2,8.8l-15.2,8.8
		c-1.1,0.6-1.5,2.1-0.9,3.2c0.6,1.1,2.1,1.5,3.2,0.9l15.2-8.8v17.5c0,1.3,1,2.3,2.3,2.3c1.3,0,2.3-1,2.3-2.3v-17.5l15.2,8.8
		c1.1,0.6,2.5,0.3,3.2-0.9h0C180.2,190.5,179.9,189.1,178.8,188.5z"/>
</g>
<path class="st0" d="M143.9,293.6c0,10.3,8.1,18.6,18.2,18.6s18.2-8.3,18.2-18.6s-18.2-39.2-18.2-39.2S143.9,283.3,143.9,293.6z"/>
<g>
	<g>
		<g>
			<path class="st0" d="M267.7,302.8L267.7,302.8c-1.2-1.5-1.1-3.6,0.4-4.9l7.3-6.2c1.5-1.2,3.6-1.1,4.9,0.4l0,0
				c1.2,1.5,1.1,3.6-0.4,4.9l-7.3,6.2C271.1,304.4,268.9,304.2,267.7,302.8z"/>
			<path class="st0" d="M267.6,302.8L267.6,302.8c1.2-1.5,1.1-3.6-0.4-4.9l-7.3-6.2c-1.5-1.2-3.6-1.1-4.9,0.4l0,0
				c-1.2,1.5-1.1,3.6,0.4,4.9l7.3,6.2C264.2,304.4,266.3,304.2,267.6,302.8z"/>
		</g>
		<g>
			<path class="st0" d="M244.7,316L244.7,316c-1.9,0.3-3.7-0.9-4-2.8l-1.7-9.4c-0.3-1.9,0.9-3.7,2.8-4l0,0c1.9-0.3,3.7,0.9,4,2.8
				l1.7,9.4C247.8,313.8,246.5,315.6,244.7,316z"/>
			<path class="st0" d="M244.9,316.8l-0.5-1.5c-0.5-1.4-2-2.1-3.4-1.6l-10.6,3.8c-1.4,0.5-2.1,2-1.6,3.4l0.5,1.5
				c0.5,1.4,2,2.1,3.4,1.6l10.6-3.8C244.7,319.7,245.4,318.2,244.9,316.8z"/>
		</g>
		<g>
			<path class="st0" d="M244.6,342.5L244.6,342.5c-0.6,1.8-2.6,2.7-4.4,2.1l-9-3.2c-1.8-0.6-2.7-2.6-2.1-4.4l0,0
				c0.6-1.8,2.6-2.7,4.4-2.1l9,3.2C244.3,338.7,245.3,340.7,244.6,342.5z"/>
			<path class="st0" d="M244.7,342.6L244.7,342.6c-1.9-0.3-3.7,0.9-4,2.8l-1.7,9.4c-0.3,1.9,0.9,3.7,2.8,4l0,0
				c1.9,0.3,3.7-0.9,4-2.8l1.7-9.4C247.8,344.7,246.5,342.9,244.7,342.6z"/>
		</g>
		<g>
			<path class="st0" d="M290.6,316L290.6,316c1.9,0.3,3.7-0.9,4-2.8l1.7-9.4c0.3-1.9-0.9-3.7-2.8-4l0,0c-1.9-0.3-3.7,0.9-4,2.8
				l-1.7,9.4C287.5,313.8,288.7,315.6,290.6,316z"/>
			<path class="st0" d="M290.6,316.1L290.6,316.1c0.6-1.8,2.6-2.7,4.4-2.1l9,3.2c1.8,0.6,2.7,2.6,2.1,4.4l0,0
				c-0.6,1.8-2.6,2.7-4.4,2.1l-9-3.2C290.9,319.8,290,317.9,290.6,316.1z"/>
		</g>
		<g>
			<path class="st0" d="M290.4,341.8l0.5,1.5c0.5,1.4,2,2.1,3.4,1.6l10.6-3.8c1.4-0.5,2.1-2,1.6-3.4l-0.5-1.5
				c-0.5-1.4-2-2.1-3.4-1.6l-10.6,3.8C290.6,338.9,289.9,340.4,290.4,341.8z"/>
			<path class="st0" d="M289.8,342.7l1.6-0.3c1.4-0.3,2.8,0.7,3.1,2.1l2,11c0.3,1.4-0.7,2.8-2.1,3.1l-1.6,0.3
				c-1.4,0.3-2.8-0.7-3.1-2.1l-2-11C287.4,344.4,288.4,343,289.8,342.7z"/>
		</g>
		<g>
			<path class="st0" d="M267.6,355.8L267.6,355.8c1.2,1.5,1.1,3.6-0.4,4.9l-7.3,6.2c-1.5,1.2-3.6,1.1-4.9-0.4h0
				c-1.2-1.5-1.1-3.6,0.4-4.9l7.3-6.2C264.2,354.2,266.3,354.4,267.6,355.8z"/>
			<path class="st0" d="M267.7,355.8L267.7,355.8c-1.2,1.5-1.1,3.6,0.4,4.9l7.3,6.2c1.5,1.2,3.6,1.1,4.9-0.4l0,0
				c1.2-1.5,1.1-3.6-0.4-4.9l-7.3-6.2C271.1,354.2,268.9,354.4,267.7,355.8z"/>
		</g>
	</g>
	<path class="st0" d="M302.9,343.9l-27-15.6l27-15.6c2-1.1,2.7-3.7,1.5-5.6h0c-1.1-2-3.7-2.7-5.6-1.5l-27,15.6v-31.2
		c0-2.3-1.9-4.1-4.1-4.1c-2.3,0-4.1,1.9-4.1,4.1v31.2l-27-15.6c-2-1.1-4.5-0.5-5.6,1.5c-1.1,2-0.5,4.5,1.5,5.6l27,15.6l-27,15.6
		c-2,1.1-2.7,3.7-1.5,5.6s3.7,2.7,5.6,1.5l27-15.6v31.2c0,2.3,1.9,4.1,4.1,4.1c2.3,0,4.1-1.9,4.1-4.1v-31.2l27,15.6
		c2,1.1,4.5,0.5,5.6-1.5h0C305.6,347.5,304.9,345,302.9,343.9z"/>
</g>
</svg>
