<?xml version="1.0" encoding="utf-8"?>
<!-- Generator: Adobe Illustrator 26.0.3, SVG Export Plug-In . SVG Version: 6.00 Build 0)  -->
<svg version="1.1" xmlns="http://www.w3.org/2000/svg" xmlns:xlink="http://www.w3.org/1999/xlink" x="0px" y="0px"
	 viewBox="0 0 500 500" style="enable-background:new 0 0 500 500;" xml:space="preserve">
<style type="text/css">
	.st0{fill:#4FC0F2;}
	.st1{fill:#E3E3E3;}
	.st2{fill:#FFB55A;}
	.st3{fill:#FFCF00;}
	.st4{fill:#F6F6F6;}
</style>
<path class="st0" d="M164.9,414.5l18.7-45.8c2.7-6.6,10.2-9.8,16.9-7.1l0,0c6.6,2.7,9.8,10.2,7.1,16.9l-18.7,45.8
	c-2.7,6.6-10.2,9.8-16.9,7.1l0,0C165.4,428.7,162.2,421.2,164.9,414.5z"/>
<g>
	<g>
		<path class="st0" d="M307.6,376.2L307.6,376.2c-0.9-1.1-0.8-2.8,0.3-3.7l5.6-4.8c1.1-0.9,2.8-0.8,3.7,0.3l0,0
			c0.9,1.1,0.8,2.8-0.3,3.7l-5.6,4.8C310.2,377.5,308.6,377.3,307.6,376.2z"/>
		<path class="st0" d="M307.5,376.2L307.5,376.2c0.9-1.1,0.8-2.8-0.3-3.7l-5.6-4.8c-1.1-0.9-2.8-0.8-3.7,0.3l0,0
			c-0.9,1.1-0.8,2.8,0.3,3.7l5.6,4.8C304.9,377.5,306.6,377.3,307.5,376.2z"/>
	</g>
	<g>
		<path class="st0" d="M290,386.4L290,386.4c-1.4,0.3-2.8-0.7-3.1-2.1l-1.3-7.2c-0.3-1.4,0.7-2.8,2.1-3.1l0,0
			c1.4-0.3,2.8,0.7,3.1,2.1l1.3,7.2C292.4,384.7,291.4,386.1,290,386.4z"/>
		<path class="st0" d="M290,386.4L290,386.4c-0.5-1.4-2-2.1-3.4-1.6l-6.9,2.5c-1.4,0.5-2.1,2-1.6,3.4h0c0.5,1.4,2,2.1,3.4,1.6
			l6.9-2.5C289.7,389.3,290.5,387.8,290,386.4z"/>
	</g>
	<g>
		<path class="st0" d="M290,406.6L290,406.6c-0.5,1.4-2,2.1-3.4,1.6l-6.9-2.5c-1.4-0.5-2.1-2-1.6-3.4h0c0.5-1.4,2-2.1,3.4-1.6
			l6.9,2.5C289.7,403.7,290.5,405.3,290,406.6z"/>
		<path class="st0" d="M290,406.7L290,406.7c-1.4-0.3-2.8,0.7-3.1,2.1l-1.3,7.2c-0.3,1.4,0.7,2.8,2.1,3.1l0,0
			c1.4,0.3,2.8-0.7,3.1-2.1l1.3-7.2C292.4,408.3,291.4,407,290,406.7z"/>
	</g>
	<g>
		<path class="st0" d="M325.1,386.4L325.1,386.4c1.4,0.3,2.8-0.7,3.1-2.1l1.3-7.2c0.3-1.4-0.7-2.8-2.1-3.1h0
			c-1.4-0.3-2.8,0.7-3.1,2.1l-1.3,7.2C322.7,384.7,323.7,386.1,325.1,386.4z"/>
		<path class="st0" d="M325.2,386.4L325.2,386.4c0.5-1.4,2-2.1,3.4-1.6l6.9,2.5c1.4,0.5,2.1,2,1.6,3.4l0,0c-0.5,1.4-2,2.1-3.4,1.6
			l-6.9-2.5C325.4,389.3,324.7,387.8,325.2,386.4z"/>
	</g>
	<g>
		<path class="st0" d="M325.2,406.6L325.2,406.6c0.5,1.4,2,2.1,3.4,1.6l6.9-2.5c1.4-0.5,2.1-2,1.6-3.4l0,0c-0.5-1.4-2-2.1-3.4-1.6
			l-6.9,2.5C325.4,403.7,324.7,405.3,325.2,406.6z"/>
		<path class="st0" d="M325.1,406.7L325.1,406.7c1.4-0.3,2.8,0.7,3.1,2.1l1.3,7.2c0.3,1.4-0.7,2.8-2.1,3.1h0
			c-1.4,0.3-2.8-0.7-3.1-2.1l-1.3-7.2C322.7,408.3,323.7,407,325.1,406.7z"/>
	</g>
	<g>
		<path class="st0" d="M307.5,416.8L307.5,416.8c0.9,1.1,0.8,2.8-0.3,3.7l-5.6,4.8c-1.1,0.9-2.8,0.8-3.7-0.3l0,0
			c-0.9-1.1-0.8-2.8,0.3-3.7l5.6-4.8C304.9,415.6,306.6,415.7,307.5,416.8z"/>
		<path class="st0" d="M307.6,416.8L307.6,416.8c-0.9,1.1-0.8,2.8,0.3,3.7l5.6,4.8c1.1,0.9,2.8,0.8,3.7-0.3l0,0
			c0.9-1.1,0.8-2.8-0.3-3.7l-5.6-4.8C310.2,415.6,308.6,415.7,307.6,416.8z"/>
	</g>
	<path class="st0" d="M333.6,408l-19.9-11.5l19.9-11.5c1.5-0.8,2-2.7,1.1-4.2h0c-0.8-1.5-2.7-2-4.2-1.1l-20,11.5v-23
		c0-1.7-1.4-3.1-3.1-3.1c-1.7,0-3.1,1.4-3.1,3.1v23l-20-11.5c-1.5-0.8-3.3-0.3-4.2,1.1c-0.8,1.5-0.3,3.3,1.1,4.2l19.9,11.5
		L281.5,408c-1.5,0.8-2,2.7-1.1,4.2s2.7,2,4.2,1.1l20-11.5v23c0,1.7,1.4,3.1,3.1,3.1c1.7,0,3.1-1.4,3.1-3.1v-23l20,11.5
		c1.5,0.8,3.3,0.3,4.2-1.1h0C335.6,410.7,335.1,408.9,333.6,408z"/>
</g>
<path class="st1" d="M401.4,151.8c-0.1,0-0.3,0-0.4,0c-4.3-46.3-43.2-82.6-90.6-82.6c-50.3,0-91,40.8-91,91
	c0,48.6,38.1,88.3,86.1,90.9v0.1h96c27.5,0,49.8-22.3,49.8-49.8S428.9,151.8,401.4,151.8z"/>
<polygon class="st2" points="92.8,126.6 157.8,56.4 228,121.4 163,191.5 "/>
<rect x="112.6" y="76.2" class="st2" width="95.6" height="95.6"/>
<ellipse transform="matrix(8.248049e-02 -0.9966 0.9966 8.248049e-02 23.624 273.601)" class="st3" cx="160.4" cy="124" rx="47.9" ry="47.9"/>
<path class="st4" d="M345.2,177.3c-14.7-50.1-60.9-86.7-115.7-86.7c-65.8,0-119.3,52.8-120.5,118.3c-30.6,3.6-54.4,29.6-54.4,61.2
	c0,34.1,27.6,61.7,61.7,61.7H336c42.8,0,77.6-34.7,77.6-77.6C413.5,214.5,383.7,181.8,345.2,177.3z"/>
</svg>
