<?xml version="1.0" encoding="utf-8"?>
<!-- Generator: Adobe Illustrator 26.0.3, SVG Export Plug-In . SVG Version: 6.00 Build 0)  -->
<svg version="1.1" xmlns="http://www.w3.org/2000/svg" xmlns:xlink="http://www.w3.org/1999/xlink" x="0px" y="0px"
	 viewBox="0 0 500 500" style="enable-background:new 0 0 500 500;" xml:space="preserve">
<style type="text/css">
	.st0{fill:#E3E3E3;}
	.st1{fill:#F6F6F6;}
	.st2{fill:#E6E6E6;}
	.st3{fill:#4FC0F2;}
</style>
<path class="st0" d="M398.6,158.1c-0.1,0-0.3,0-0.4,0c-4.3-46.3-43.2-82.6-90.6-82.6c-50.3,0-91,40.8-91,91
	c0,48.6,38.1,88.3,86.1,90.9v0.1h96c27.5,0,49.8-22.3,49.8-49.8S426.1,158.1,398.6,158.1z"/>
<path class="st1" d="M342.3,183.5c-14.7-50.1-60.9-86.7-115.7-86.7c-65.8,0-119.3,52.8-120.5,118.3c-30.6,3.6-54.4,29.6-54.4,61.2
	c0,34.1,27.6,61.7,61.7,61.7h219.8c42.8,0,77.6-34.7,77.6-77.6C410.7,220.8,380.8,188.1,342.3,183.5z"/>
<path class="st2" d="M231.6,423.8L231.6,423.8c-4-1.8-5.8-6.4-4-10.4l23.4-53c1.8-4,6.4-5.8,10.4-4l0,0c4,1.8,5.8,6.4,4,10.4
	l-23.4,53C240.3,423.8,235.6,425.6,231.6,423.8z"/>
<g>
	<g>
		<path class="st3" d="M329.5,369.8L329.5,369.8c-0.9-1.1-0.8-2.8,0.3-3.7l5.6-4.8c1.1-0.9,2.8-0.8,3.7,0.3l0,0
			c0.9,1.1,0.8,2.8-0.3,3.7l-5.6,4.8C332.2,371,330.5,370.9,329.5,369.8z"/>
		<path class="st3" d="M329.5,369.8L329.5,369.8c0.9-1.1,0.8-2.8-0.3-3.7l-5.6-4.8c-1.1-0.9-2.8-0.8-3.7,0.3l0,0
			c-0.9,1.1-0.8,2.8,0.3,3.7l5.6,4.8C326.9,371,328.5,370.9,329.5,369.8z"/>
	</g>
	<g>
		<path class="st3" d="M311.9,379.9L311.9,379.9c-1.4,0.3-2.8-0.7-3.1-2.1l-1.3-7.2c-0.3-1.4,0.7-2.8,2.1-3.1l0,0
			c1.4-0.3,2.8,0.7,3.1,2.1l1.3,7.2C314.3,378.3,313.4,379.6,311.9,379.9z"/>
		<path class="st3" d="M311.9,380L311.9,380c-0.5-1.4-2-2.1-3.4-1.6l-6.9,2.5c-1.4,0.5-2.1,2-1.6,3.4l0,0c0.5,1.4,2,2.1,3.4,1.6
			l6.9-2.5C311.7,382.9,312.4,381.3,311.9,380z"/>
	</g>
	<g>
		<path class="st3" d="M311.9,400.2L311.9,400.2c-0.5,1.4-2,2.1-3.4,1.6l-6.9-2.5c-1.4-0.5-2.1-2-1.6-3.4l0,0c0.5-1.4,2-2.1,3.4-1.6
			l6.9,2.5C311.7,397.3,312.4,398.8,311.9,400.2z"/>
		<path class="st3" d="M311.9,400.3L311.9,400.3c-1.4-0.3-2.8,0.7-3.1,2.1l-1.3,7.2c-0.3,1.4,0.7,2.8,2.1,3.1l0,0
			c1.4,0.3,2.8-0.7,3.1-2.1l1.3-7.2C314.3,401.9,313.4,400.5,311.9,400.3z"/>
	</g>
	<g>
		<path class="st3" d="M347.1,379.9L347.1,379.9c1.4,0.3,2.8-0.7,3.1-2.1l1.3-7.2c0.3-1.4-0.7-2.8-2.1-3.1l0,0
			c-1.4-0.3-2.8,0.7-3.1,2.1l-1.3,7.2C344.7,378.3,345.6,379.6,347.1,379.9z"/>
		<path class="st3" d="M347.1,380L347.1,380c0.5-1.4,2-2.1,3.4-1.6l6.9,2.5c1.4,0.5,2.1,2,1.6,3.4l0,0c-0.5,1.4-2,2.1-3.4,1.6
			l-6.9-2.5C347.3,382.9,346.6,381.3,347.1,380z"/>
	</g>
	<g>
		<path class="st3" d="M347.1,400.2L347.1,400.2c0.5,1.4,2,2.1,3.4,1.6l6.9-2.5c1.4-0.5,2.1-2,1.6-3.4l0,0c-0.5-1.4-2-2.1-3.4-1.6
			l-6.9,2.5C347.3,397.3,346.6,398.8,347.1,400.2z"/>
		<path class="st3" d="M347.1,400.3L347.1,400.3c1.4-0.3,2.8,0.7,3.1,2.1l1.3,7.2c0.3,1.4-0.7,2.8-2.1,3.1l0,0
			c-1.4,0.3-2.8-0.7-3.1-2.1l-1.3-7.2C344.7,401.9,345.6,400.5,347.1,400.3z"/>
	</g>
	<g>
		<path class="st3" d="M329.5,410.4L329.5,410.4c0.9,1.1,0.8,2.8-0.3,3.7l-5.6,4.8c-1.1,0.9-2.8,0.8-3.7-0.3l0,0
			c-0.9-1.1-0.8-2.8,0.3-3.7l5.6-4.8C326.9,409.1,328.5,409.3,329.5,410.4z"/>
		<path class="st3" d="M329.5,410.4L329.5,410.4c-0.9,1.1-0.8,2.8,0.3,3.7l5.6,4.8c1.1,0.9,2.8,0.8,3.7-0.3l0,0
			c0.9-1.1,0.8-2.8-0.3-3.7l-5.6-4.8C332.2,409.1,330.5,409.3,329.5,410.4z"/>
	</g>
	<path class="st3" d="M355.6,401.6l-19.9-11.5l19.9-11.5c1.5-0.8,2-2.7,1.1-4.2h0c-0.8-1.5-2.7-2-4.2-1.1l-20,11.5v-23
		c0-1.7-1.4-3.1-3.1-3.1c-1.7,0-3.1,1.4-3.1,3.1v23l-20-11.5c-1.5-0.8-3.3-0.3-4.2,1.1c-0.8,1.5-0.3,3.3,1.1,4.2l19.9,11.5
		l-19.9,11.5c-1.5,0.8-2,2.7-1.1,4.2s2.7,2,4.2,1.1l20-11.5v23c0,1.7,1.4,3.1,3.1,3.1c1.7,0,3.1-1.4,3.1-3.1v-23l20,11.5
		c1.5,0.8,3.3,0.3,4.2-1.1h0C357.5,404.3,357,402.4,355.6,401.6z"/>
</g>
<g>
	<g>
		<path class="st3" d="M163.6,374.5L163.6,374.5c-0.7-0.9-0.6-2.1,0.2-2.9l4.3-3.7c0.9-0.7,2.1-0.6,2.9,0.2l0,0
			c0.7,0.9,0.6,2.1-0.2,2.9l-4.3,3.7C165.6,375.5,164.3,375.4,163.6,374.5z"/>
		<path class="st3" d="M163.6,374.5L163.6,374.5c0.7-0.9,0.6-2.1-0.2-2.9l-4.3-3.7c-0.9-0.7-2.1-0.6-2.9,0.2l0,0
			c-0.7,0.9-0.6,2.1,0.2,2.9l4.3,3.7C161.6,375.5,162.8,375.4,163.6,374.5z"/>
	</g>
	<g>
		<path class="st3" d="M150.1,382.3L150.1,382.3c-1.1,0.2-2.2-0.5-2.4-1.6l-1-5.5c-0.2-1.1,0.5-2.2,1.6-2.4h0
			c1.1-0.2,2.2,0.5,2.4,1.6l1,5.5C151.9,381,151.2,382.1,150.1,382.3z"/>
		<path class="st3" d="M150.1,382.3L150.1,382.3c-0.4-1.1-1.5-1.6-2.6-1.2l-5.3,1.9c-1.1,0.4-1.6,1.5-1.2,2.6l0,0
			c0.4,1.1,1.5,1.6,2.6,1.2l5.3-1.9C149.9,384.5,150.5,383.4,150.1,382.3z"/>
	</g>
	<g>
		<path class="st3" d="M150.1,397.9L150.1,397.9c-0.4,1.1-1.5,1.6-2.6,1.2l-5.3-1.9c-1.1-0.4-1.6-1.5-1.2-2.6l0,0
			c0.4-1.1,1.5-1.6,2.6-1.2l5.3,1.9C149.9,395.6,150.5,396.8,150.1,397.9z"/>
		<path class="st3" d="M150.1,397.9L150.1,397.9c-1.1-0.2-2.2,0.5-2.4,1.6l-1,5.5c-0.2,1.1,0.5,2.2,1.6,2.4h0
			c1.1,0.2,2.2-0.5,2.4-1.6l1-5.5C151.9,399.2,151.2,398.1,150.1,397.9z"/>
	</g>
	<g>
		<path class="st3" d="M177.1,382.3L177.1,382.3c1.1,0.2,2.2-0.5,2.4-1.6l1-5.5c0.2-1.1-0.5-2.2-1.6-2.4l0,0
			c-1.1-0.2-2.2,0.5-2.4,1.6l-1,5.5C175.2,381,176,382.1,177.1,382.3z"/>
		<path class="st3" d="M177.1,382.3L177.1,382.3c0.4-1.1,1.5-1.6,2.6-1.2l5.3,1.9c1.1,0.4,1.6,1.5,1.2,2.6l0,0
			c-0.4,1.1-1.5,1.6-2.6,1.2l-5.3-1.9C177.3,384.5,176.7,383.4,177.1,382.3z"/>
	</g>
	<g>
		<path class="st3" d="M177.1,397.9L177.1,397.9c0.4,1.1,1.5,1.6,2.6,1.2l5.3-1.9c1.1-0.4,1.6-1.5,1.2-2.6l0,0
			c-0.4-1.1-1.5-1.6-2.6-1.2l-5.3,1.9C177.3,395.6,176.7,396.8,177.1,397.9z"/>
		<path class="st3" d="M177.1,397.9L177.1,397.9c1.1-0.2,2.2,0.5,2.4,1.6l1,5.5c0.2,1.1-0.5,2.2-1.6,2.4l0,0
			c-1.1,0.2-2.2-0.5-2.4-1.6l-1-5.5C175.2,399.2,176,398.1,177.1,397.9z"/>
	</g>
	<g>
		<path class="st3" d="M163.6,405.7L163.6,405.7c0.7,0.9,0.6,2.1-0.2,2.9l-4.3,3.7c-0.9,0.7-2.1,0.6-2.9-0.2l0,0
			c-0.7-0.9-0.6-2.1,0.2-2.9l4.3-3.7C161.6,404.7,162.8,404.8,163.6,405.7z"/>
		<path class="st3" d="M163.6,405.7L163.6,405.7c-0.7,0.9-0.6,2.1,0.2,2.9l4.3,3.7c0.9,0.7,2.1,0.6,2.9-0.2l0,0
			c0.7-0.9,0.6-2.1-0.2-2.9l-4.3-3.7C165.6,404.7,164.3,404.8,163.6,405.7z"/>
	</g>
	<path class="st3" d="M183.6,398.9l-15.3-8.8l15.3-8.8c1.1-0.6,1.5-2.1,0.9-3.2h0c-0.6-1.1-2.1-1.5-3.2-0.9l-15.3,8.8v-17.7
		c0-1.3-1-2.3-2.3-2.3c-1.3,0-2.3,1-2.3,2.3V386l-15.3-8.8c-1.1-0.6-2.6-0.3-3.2,0.9c-0.6,1.1-0.3,2.6,0.9,3.2l15.3,8.8l-15.3,8.8
		c-1.1,0.6-1.5,2.1-0.9,3.2c0.6,1.1,2.1,1.5,3.2,0.9l15.3-8.8v17.7c0,1.3,1,2.3,2.3,2.3c1.3,0,2.3-1,2.3-2.3v-17.7l15.3,8.8
		c1.1,0.6,2.6,0.3,3.2-0.9h0C185.1,401,184.7,399.6,183.6,398.9z"/>
</g>
</svg>
