<?xml version="1.0" encoding="utf-8"?>
<!-- Generator: Adobe Illustrator 26.0.3, SVG Export Plug-In . SVG Version: 6.00 Build 0)  -->
<svg version="1.1" xmlns="http://www.w3.org/2000/svg" xmlns:xlink="http://www.w3.org/1999/xlink" x="0px" y="0px"
	 viewBox="0 0 500 500" style="enable-background:new 0 0 500 500;" xml:space="preserve">
<style type="text/css">
	.st0{fill:#E3E3E3;}
	.st1{fill:#F6F6F6;}
	.st2{fill:#4FC0F2;}
</style>
<path class="st0" d="M391.8,161c-0.1,0-0.3,0-0.4,0c-4.1-44.2-41.2-78.8-86.5-78.8c-48,0-86.9,38.9-86.9,86.9
	c0,46.4,36.4,84.3,82.2,86.8v0.1h91.6c26.2,0,47.5-21.3,47.5-47.5S418.1,161,391.8,161z"/>
<path class="st1" d="M338.1,185.3c-14-47.8-58.1-82.7-110.5-82.7c-62.8,0-113.9,50.4-115.1,112.9c-29.2,3.4-51.9,28.3-51.9,58.5
	c0,32.5,26.4,58.9,58.9,58.9h209.8c40.9,0,74-33.1,74-74C403.4,220.9,374.9,189.6,338.1,185.3z"/>
<path class="st0" d="M193.3,417.1L193.3,417.1c-4-1.8-5.8-6.4-4-10.4l23.4-53c1.8-4,6.4-5.8,10.4-4h0c4,1.8,5.8,6.4,4,10.4l-23.4,53
	C201.9,417.1,197.3,418.9,193.3,417.1z"/>
<g>
	<g>
		<path class="st2" d="M132.6,363.1L132.6,363.1c-0.9-1.1-0.8-2.8,0.3-3.7l5.6-4.8c1.1-0.9,2.8-0.8,3.7,0.3l0,0
			c0.9,1.1,0.8,2.8-0.3,3.7l-5.6,4.8C135.3,364.4,133.6,364.2,132.6,363.1z"/>
		<path class="st2" d="M132.6,363.1L132.6,363.1c0.9-1.1,0.8-2.8-0.3-3.7l-5.6-4.8c-1.1-0.9-2.8-0.8-3.7,0.3l0,0
			c-0.9,1.1-0.8,2.8,0.3,3.7l5.6,4.8C130,364.4,131.6,364.2,132.6,363.1z"/>
	</g>
	<g>
		<path class="st2" d="M115,373.3L115,373.3c-1.4,0.3-2.8-0.7-3.1-2.1l-1.3-7.2c-0.3-1.4,0.7-2.8,2.1-3.1h0c1.4-0.3,2.8,0.7,3.1,2.1
			l1.3,7.2C117.4,371.6,116.5,373,115,373.3z"/>
		<path class="st2" d="M115,373.3L115,373.3c-0.5-1.4-2-2.1-3.4-1.6l-6.9,2.5c-1.4,0.5-2.1,2-1.6,3.4l0,0c0.5,1.4,2,2.1,3.4,1.6
			l6.9-2.5C114.8,376.2,115.5,374.7,115,373.3z"/>
	</g>
	<g>
		<path class="st2" d="M115,393.5L115,393.5c-0.5,1.4-2,2.1-3.4,1.6l-6.9-2.5c-1.4-0.5-2.1-2-1.6-3.4l0,0c0.5-1.4,2-2.1,3.4-1.6
			l6.9,2.5C114.8,390.6,115.5,392.2,115,393.5z"/>
		<path class="st2" d="M115,393.6L115,393.6c-1.4-0.3-2.8,0.7-3.1,2.1l-1.3,7.2c-0.3,1.4,0.7,2.8,2.1,3.1h0c1.4,0.3,2.8-0.7,3.1-2.1
			l1.3-7.2C117.4,395.2,116.5,393.9,115,393.6z"/>
	</g>
	<g>
		<path class="st2" d="M150.2,373.3L150.2,373.3c1.4,0.3,2.8-0.7,3.1-2.1l1.3-7.2c0.3-1.4-0.7-2.8-2.1-3.1l0,0
			c-1.4-0.3-2.8,0.7-3.1,2.1l-1.3,7.2C147.8,371.6,148.7,373,150.2,373.3z"/>
		<path class="st2" d="M150.2,373.3L150.2,373.3c0.5-1.4,2-2.1,3.4-1.6l6.9,2.5c1.4,0.5,2.1,2,1.6,3.4l0,0c-0.5,1.4-2,2.1-3.4,1.6
			l-6.9-2.5C150.4,376.2,149.7,374.7,150.2,373.3z"/>
	</g>
	<g>
		<path class="st2" d="M150.2,393.5L150.2,393.5c0.5,1.4,2,2.1,3.4,1.6l6.9-2.5c1.4-0.5,2.1-2,1.6-3.4l0,0c-0.5-1.4-2-2.1-3.4-1.6
			l-6.9,2.5C150.4,390.6,149.7,392.2,150.2,393.5z"/>
		<path class="st2" d="M150.2,393.6L150.2,393.6c1.4-0.3,2.8,0.7,3.1,2.1l1.3,7.2c0.3,1.4-0.7,2.8-2.1,3.1h0
			c-1.4,0.3-2.8-0.7-3.1-2.1l-1.3-7.2C147.8,395.2,148.7,393.9,150.2,393.6z"/>
	</g>
	<g>
		<path class="st2" d="M132.6,403.7L132.6,403.7c0.9,1.1,0.8,2.8-0.3,3.7l-5.6,4.8c-1.1,0.9-2.8,0.8-3.7-0.3l0,0
			c-0.9-1.1-0.8-2.8,0.3-3.7l5.6-4.8C130,402.5,131.6,402.6,132.6,403.7z"/>
		<path class="st2" d="M132.6,403.7L132.6,403.7c-0.9,1.1-0.8,2.8,0.3,3.7l5.6,4.8c1.1,0.9,2.8,0.8,3.7-0.3l0,0
			c0.9-1.1,0.8-2.8-0.3-3.7l-5.6-4.8C135.3,402.5,133.6,402.6,132.6,403.7z"/>
	</g>
	<path class="st2" d="M158.7,394.9l-19.9-11.5l19.9-11.5c1.5-0.8,2-2.7,1.1-4.2h0c-0.8-1.5-2.7-2-4.2-1.1l-20,11.5v-23
		c0-1.7-1.4-3.1-3.1-3.1c-1.7,0-3.1,1.4-3.1,3.1v23l-20-11.5c-1.5-0.8-3.3-0.3-4.2,1.1c-0.8,1.5-0.3,3.3,1.1,4.2l19.9,11.5
		l-19.9,11.5c-1.5,0.8-2,2.7-1.1,4.2s2.7,2,4.2,1.1l20-11.5v23c0,1.7,1.4,3.1,3.1,3.1c1.7,0,3.1-1.4,3.1-3.1v-23l20,11.5
		c1.5,0.8,3.3,0.3,4.2-1.1h0C160.6,397.6,160.1,395.8,158.7,394.9z"/>
</g>
<g>
	<g>
		<path class="st2" d="M288.1,363.1L288.1,363.1c-0.9-1.1-0.8-2.8,0.3-3.7l5.6-4.8c1.1-0.9,2.8-0.8,3.7,0.3h0
			c0.9,1.1,0.8,2.8-0.3,3.7l-5.6,4.8C290.8,364.4,289.1,364.2,288.1,363.1z"/>
		<path class="st2" d="M288.1,363.1L288.1,363.1c0.9-1.1,0.8-2.8-0.3-3.7l-5.6-4.8c-1.1-0.9-2.8-0.8-3.7,0.3l0,0
			c-0.9,1.1-0.8,2.8,0.3,3.7l5.6,4.8C285.4,364.4,287.1,364.2,288.1,363.1z"/>
	</g>
	<g>
		<path class="st2" d="M270.5,373.2L270.5,373.2c-1.4,0.3-2.8-0.7-3.1-2.1l-1.3-7.2c-0.3-1.4,0.7-2.8,2.1-3.1h0
			c1.4-0.3,2.8,0.7,3.1,2.1l1.3,7.2C272.9,371.6,272,373,270.5,373.2z"/>
		<path class="st2" d="M270.5,373.3L270.5,373.3c-0.5-1.4-2-2.1-3.4-1.6l-6.9,2.5c-1.4,0.5-2.1,2-1.6,3.4l0,0c0.5,1.4,2,2.1,3.4,1.6
			l6.9-2.5C270.3,376.2,271,374.7,270.5,373.3z"/>
	</g>
	<g>
		<path class="st2" d="M270.5,393.5L270.5,393.5c-0.5,1.4-2,2.1-3.4,1.6l-6.9-2.5c-1.4-0.5-2.1-2-1.6-3.4l0,0c0.5-1.4,2-2.1,3.4-1.6
			l6.9,2.5C270.3,390.6,271,392.2,270.5,393.5z"/>
		<path class="st2" d="M270.5,393.6L270.5,393.6c-1.4-0.3-2.8,0.7-3.1,2.1l-1.3,7.2c-0.3,1.4,0.7,2.8,2.1,3.1h0
			c1.4,0.3,2.8-0.7,3.1-2.1l1.3-7.2C272.9,395.2,272,393.8,270.5,393.6z"/>
	</g>
	<g>
		<path class="st2" d="M305.7,373.2L305.7,373.2c1.4,0.3,2.8-0.7,3.1-2.1l1.3-7.2c0.3-1.4-0.7-2.8-2.1-3.1l0,0
			c-1.4-0.3-2.8,0.7-3.1,2.1l-1.3,7.2C303.3,371.6,304.2,373,305.7,373.2z"/>
		<path class="st2" d="M305.7,373.3L305.7,373.3c0.5-1.4,2-2.1,3.4-1.6l6.9,2.5c1.4,0.5,2.1,2,1.6,3.4l0,0c-0.5,1.4-2,2.1-3.4,1.6
			l-6.9-2.5C305.9,376.2,305.2,374.7,305.7,373.3z"/>
	</g>
	<g>
		<path class="st2" d="M305.7,393.5L305.7,393.5c0.5,1.4,2,2.1,3.4,1.6l6.9-2.5c1.4-0.5,2.1-2,1.6-3.4l0,0c-0.5-1.4-2-2.1-3.4-1.6
			l-6.9,2.5C305.9,390.6,305.2,392.2,305.7,393.5z"/>
		<path class="st2" d="M305.7,393.6L305.7,393.6c1.4-0.3,2.8,0.7,3.1,2.1l1.3,7.2c0.3,1.4-0.7,2.8-2.1,3.1l0,0
			c-1.4,0.3-2.8-0.7-3.1-2.1l-1.3-7.2C303.3,395.2,304.2,393.8,305.7,393.6z"/>
	</g>
	<g>
		<path class="st2" d="M288.1,403.7L288.1,403.7c0.9,1.1,0.8,2.8-0.3,3.7l-5.6,4.8c-1.1,0.9-2.8,0.8-3.7-0.3v0
			c-0.9-1.1-0.8-2.8,0.3-3.7l5.6-4.8C285.4,402.5,287.1,402.6,288.1,403.7z"/>
		<path class="st2" d="M288.1,403.7L288.1,403.7c-0.9,1.1-0.8,2.8,0.3,3.7l5.6,4.8c1.1,0.9,2.8,0.8,3.7-0.3l0,0
			c0.9-1.1,0.8-2.8-0.3-3.7l-5.6-4.8C290.8,402.5,289.1,402.6,288.1,403.7z"/>
	</g>
	<path class="st2" d="M314.2,394.9l-19.9-11.5l19.9-11.5c1.5-0.8,2-2.7,1.1-4.2h0c-0.8-1.5-2.7-2-4.2-1.1l-20,11.5v-23
		c0-1.7-1.4-3.1-3.1-3.1c-1.7,0-3.1,1.4-3.1,3.1v23l-20-11.5c-1.5-0.8-3.3-0.3-4.2,1.1c-0.8,1.5-0.3,3.3,1.1,4.2l19.9,11.5
		L262,394.9c-1.5,0.8-2,2.7-1.1,4.2s2.7,2,4.2,1.1l20-11.5v23c0,1.7,1.4,3.1,3.1,3.1c1.7,0,3.1-1.4,3.1-3.1v-23l20,11.5
		c1.5,0.8,3.3,0.3,4.2-1.1h0C316.1,397.6,315.6,395.8,314.2,394.9z"/>
</g>
<g>
	<g>
		<path class="st2" d="M370.7,363.1L370.7,363.1c-0.9-1.1-0.8-2.8,0.3-3.7l5.6-4.8c1.1-0.9,2.8-0.8,3.7,0.3l0,0
			c0.9,1.1,0.8,2.8-0.3,3.7l-5.6,4.8C373.3,364.4,371.6,364.2,370.7,363.1z"/>
		<path class="st2" d="M370.6,363.1L370.6,363.1c0.9-1.1,0.8-2.8-0.3-3.7l-5.6-4.8c-1.1-0.9-2.8-0.8-3.7,0.3l0,0
			c-0.9,1.1-0.8,2.8,0.3,3.7l5.6,4.8C368,364.4,369.7,364.2,370.6,363.1z"/>
	</g>
	<g>
		<path class="st2" d="M353.1,373.2L353.1,373.2c-1.4,0.3-2.8-0.7-3.1-2.1l-1.3-7.2c-0.3-1.4,0.7-2.8,2.1-3.1l0,0
			c1.4-0.3,2.8,0.7,3.1,2.1l1.3,7.2C355.5,371.6,354.5,373,353.1,373.2z"/>
		<path class="st2" d="M353.1,373.3L353.1,373.3c-0.5-1.4-2-2.1-3.4-1.6l-6.9,2.5c-1.4,0.5-2.1,2-1.6,3.4l0,0c0.5,1.4,2,2.1,3.4,1.6
			l6.9-2.5C352.8,376.2,353.5,374.7,353.1,373.3z"/>
	</g>
	<g>
		<path class="st2" d="M353.1,393.5L353.1,393.5c-0.5,1.4-2,2.1-3.4,1.6l-6.9-2.5c-1.4-0.5-2.1-2-1.6-3.4l0,0c0.5-1.4,2-2.1,3.4-1.6
			l6.9,2.5C352.8,390.6,353.5,392.2,353.1,393.5z"/>
		<path class="st2" d="M353.1,393.6L353.1,393.6c-1.4-0.3-2.8,0.7-3.1,2.1l-1.3,7.2c-0.3,1.4,0.7,2.8,2.1,3.1l0,0
			c1.4,0.3,2.8-0.7,3.1-2.1l1.3-7.2C355.5,395.2,354.5,393.8,353.1,393.6z"/>
	</g>
	<g>
		<path class="st2" d="M388.2,373.2L388.2,373.2c1.4,0.3,2.8-0.7,3.1-2.1l1.3-7.2c0.3-1.4-0.7-2.8-2.1-3.1l0,0
			c-1.4-0.3-2.8,0.7-3.1,2.1l-1.3,7.2C385.8,371.6,386.8,373,388.2,373.2z"/>
		<path class="st2" d="M388.2,373.3L388.2,373.3c0.5-1.4,2-2.1,3.4-1.6l6.9,2.5c1.4,0.5,2.1,2,1.6,3.4l0,0c-0.5,1.4-2,2.1-3.4,1.6
			l-6.9-2.5C388.5,376.2,387.8,374.7,388.2,373.3z"/>
	</g>
	<g>
		<path class="st2" d="M388.2,393.5L388.2,393.5c0.5,1.4,2,2.1,3.4,1.6l6.9-2.5c1.4-0.5,2.1-2,1.6-3.4l0,0c-0.5-1.4-2-2.1-3.4-1.6
			l-6.9,2.5C388.5,390.6,387.8,392.2,388.2,393.5z"/>
		<path class="st2" d="M388.2,393.6L388.2,393.6c1.4-0.3,2.8,0.7,3.1,2.1l1.3,7.2c0.3,1.4-0.7,2.8-2.1,3.1l0,0
			c-1.4,0.3-2.8-0.7-3.1-2.1l-1.3-7.2C385.8,395.2,386.8,393.8,388.2,393.6z"/>
	</g>
	<g>
		<path class="st2" d="M370.6,403.7L370.6,403.7c0.9,1.1,0.8,2.8-0.3,3.7l-5.6,4.8c-1.1,0.9-2.8,0.8-3.7-0.3v0
			c-0.9-1.1-0.8-2.8,0.3-3.7l5.6-4.8C368,402.5,369.7,402.6,370.6,403.7z"/>
		<path class="st2" d="M370.7,403.7L370.7,403.7c-0.9,1.1-0.8,2.8,0.3,3.7l5.6,4.8c1.1,0.9,2.8,0.8,3.7-0.3v0
			c0.9-1.1,0.8-2.8-0.3-3.7l-5.6-4.8C373.3,402.5,371.6,402.6,370.7,403.7z"/>
	</g>
	<path class="st2" d="M396.7,394.9l-19.9-11.5l19.9-11.5c1.5-0.8,2-2.7,1.1-4.2h0c-0.8-1.5-2.7-2-4.2-1.1l-20,11.5v-23
		c0-1.7-1.4-3.1-3.1-3.1c-1.7,0-3.1,1.4-3.1,3.1v23l-20-11.5c-1.5-0.8-3.3-0.3-4.2,1.1c-0.8,1.5-0.3,3.3,1.1,4.2l19.9,11.5
		l-19.9,11.5c-1.5,0.8-2,2.7-1.1,4.2s2.7,2,4.2,1.1l20-11.5v23c0,1.7,1.4,3.1,3.1,3.1c1.7,0,3.1-1.4,3.1-3.1v-23l20,11.5
		c1.5,0.8,3.3,0.3,4.2-1.1h0C398.7,397.6,398.2,395.8,396.7,394.9z"/>
</g>
</svg>
