<?xml version="1.0" encoding="utf-8"?>
<!-- Generator: Adobe Illustrator 26.0.3, SVG Export Plug-In . SVG Version: 6.00 Build 0)  -->
<svg version="1.1" id="图层_1" xmlns="http://www.w3.org/2000/svg" xmlns:xlink="http://www.w3.org/1999/xlink" x="0px" y="0px"
	 viewBox="0 0 500 500" style="enable-background:new 0 0 500 500;" xml:space="preserve">
<style type="text/css">
	.st0{fill:#E3E3E3;}
	.st1{fill:#F6F6F6;}
	.st2{fill:#E6E6E6;}
	.st3{fill:#4FC0F2;}
</style>
<path class="st0" d="M391.8,160.9c-0.1,0-0.3,0-0.4,0c-4.1-44.2-41.2-78.8-86.5-78.8c-48,0-86.9,38.9-86.9,86.9
	c0,46.4,36.4,84.3,82.2,86.8v0.1h91.6c26.2,0,47.5-21.3,47.5-47.5S418.1,160.9,391.8,160.9z"/>
<path class="st1" d="M338.1,185.3c-14-47.8-58.1-82.7-110.5-82.7c-62.8,0-113.9,50.4-115.1,112.9c-29.2,3.4-51.9,28.3-51.9,58.5
	c0,32.5,26.4,58.9,58.9,58.9h209.8c40.9,0,74-33.1,74-74C403.4,220.9,374.9,189.6,338.1,185.3z"/>
<path class="st2" d="M213.6,415.8L213.6,415.8c-4-1.8-5.8-6.4-4-10.4l23.4-53c1.8-4,6.4-5.8,10.4-4l0,0c4,1.8,5.8,6.4,4,10.4
	l-23.4,53C222.3,415.7,217.6,417.5,213.6,415.8z"/>
<g>
	<g>
		<path class="st3" d="M296.3,361.8L296.3,361.8c-0.9-1.1-0.8-2.8,0.3-3.7l5.6-4.8c1.1-0.9,2.8-0.8,3.7,0.3l0,0
			c0.9,1.1,0.8,2.8-0.3,3.7l-5.6,4.8C298.9,363,297.2,362.9,296.3,361.8z"/>
		<path class="st3" d="M296.2,361.8L296.2,361.8c0.9-1.1,0.8-2.8-0.3-3.7l-5.6-4.8c-1.1-0.9-2.8-0.8-3.7,0.3h0
			c-0.9,1.1-0.8,2.8,0.3,3.7l5.6,4.8C293.6,363,295.3,362.9,296.2,361.8z"/>
	</g>
	<g>
		<path class="st3" d="M278.7,371.9L278.7,371.9c-1.4,0.3-2.8-0.7-3.1-2.1l-1.3-7.2c-0.3-1.4,0.7-2.8,2.1-3.1l0,0
			c1.4-0.3,2.8,0.7,3.1,2.1l1.3,7.2C281.1,370.2,280.1,371.6,278.7,371.9z"/>
		<path class="st3" d="M278.6,371.9L278.6,371.9c-0.5-1.4-2-2.1-3.4-1.6l-6.9,2.5c-1.4,0.5-2.1,2-1.6,3.4l0,0c0.5,1.4,2,2.1,3.4,1.6
			l6.9-2.5C278.4,374.8,279.1,373.3,278.6,371.9z"/>
	</g>
	<g>
		<path class="st3" d="M278.6,392.2L278.6,392.2c-0.5,1.4-2,2.1-3.4,1.6l-6.9-2.5c-1.4-0.5-2.1-2-1.6-3.4l0,0c0.5-1.4,2-2.1,3.4-1.6
			l6.9,2.5C278.4,389.3,279.1,390.8,278.6,392.2z"/>
		<path class="st3" d="M278.7,392.2L278.7,392.2c-1.4-0.3-2.8,0.7-3.1,2.1l-1.3,7.2c-0.3,1.4,0.7,2.8,2.1,3.1l0,0
			c1.4,0.3,2.8-0.7,3.1-2.1l1.3-7.2C281.1,393.9,280.1,392.5,278.7,392.2z"/>
	</g>
	<g>
		<path class="st3" d="M313.8,371.9L313.8,371.9c1.4,0.3,2.8-0.7,3.1-2.1l1.3-7.2c0.3-1.4-0.7-2.8-2.1-3.1h0
			c-1.4-0.3-2.8,0.7-3.1,2.1l-1.3,7.2C311.4,370.2,312.4,371.6,313.8,371.9z"/>
		<path class="st3" d="M313.8,371.9L313.8,371.9c0.5-1.4,2-2.1,3.4-1.6l6.9,2.5c1.4,0.5,2.1,2,1.6,3.4l0,0c-0.5,1.4-2,2.1-3.4,1.6
			l-6.9-2.5C314.1,374.8,313.3,373.3,313.8,371.9z"/>
	</g>
	<g>
		<path class="st3" d="M313.8,392.2L313.8,392.2c0.5,1.4,2,2.1,3.4,1.6l6.9-2.5c1.4-0.5,2.1-2,1.6-3.4l0,0c-0.5-1.4-2-2.1-3.4-1.6
			l-6.9,2.5C314.1,389.3,313.3,390.8,313.8,392.2z"/>
		<path class="st3" d="M313.8,392.2L313.8,392.2c1.4-0.3,2.8,0.7,3.1,2.1l1.3,7.2c0.3,1.4-0.7,2.8-2.1,3.1h0
			c-1.4,0.3-2.8-0.7-3.1-2.1l-1.3-7.2C311.4,393.9,312.4,392.5,313.8,392.2z"/>
	</g>
	<g>
		<path class="st3" d="M296.2,402.4L296.2,402.4c0.9,1.1,0.8,2.8-0.3,3.7l-5.6,4.8c-1.1,0.9-2.8,0.8-3.7-0.3h0
			c-0.9-1.1-0.8-2.8,0.3-3.7l5.6-4.8C293.6,401.1,295.3,401.2,296.2,402.4z"/>
		<path class="st3" d="M296.3,402.4L296.3,402.4c-0.9,1.1-0.8,2.8,0.3,3.7l5.6,4.8c1.1,0.9,2.8,0.8,3.7-0.3l0,0
			c0.9-1.1,0.8-2.8-0.3-3.7l-5.6-4.8C298.9,401.1,297.2,401.2,296.3,402.4z"/>
	</g>
	<path class="st3" d="M322.3,393.6l-19.9-11.5l19.9-11.5c1.5-0.8,2-2.7,1.1-4.2h0c-0.8-1.5-2.7-2-4.2-1.1l-20,11.5v-23
		c0-1.7-1.4-3.1-3.1-3.1c-1.7,0-3.1,1.4-3.1,3.1v23l-20-11.5c-1.5-0.8-3.3-0.3-4.2,1.1c-0.8,1.5-0.3,3.3,1.1,4.2l19.9,11.5
		l-19.9,11.5c-1.5,0.8-2,2.7-1.1,4.2s2.7,2,4.2,1.1l20-11.5v23c0,1.7,1.4,3.1,3.1,3.1c1.7,0,3.1-1.4,3.1-3.1v-23l20,11.5
		c1.5,0.8,3.3,0.3,4.2-1.1h0C324.3,396.3,323.8,394.4,322.3,393.6z"/>
</g>
<g>
	<g>
		<path class="st3" d="M373.8,361.8L373.8,361.8c-0.9-1.1-0.8-2.8,0.3-3.7l5.6-4.8c1.1-0.9,2.8-0.8,3.7,0.3l0,0
			c0.9,1.1,0.8,2.8-0.3,3.7l-5.6,4.8C376.4,363,374.7,362.9,373.8,361.8z"/>
		<path class="st3" d="M373.7,361.8L373.7,361.8c0.9-1.1,0.8-2.8-0.3-3.7l-5.6-4.8c-1.1-0.9-2.8-0.8-3.7,0.3l0,0
			c-0.9,1.1-0.8,2.8,0.3,3.7l5.6,4.8C371.1,363,372.8,362.9,373.7,361.8z"/>
	</g>
	<g>
		<path class="st3" d="M356.2,371.9L356.2,371.9c-1.4,0.3-2.8-0.7-3.1-2.1l-1.3-7.2c-0.3-1.4,0.7-2.8,2.1-3.1h0
			c1.4-0.3,2.8,0.7,3.1,2.1l1.3,7.2C358.6,370.2,357.6,371.6,356.2,371.9z"/>
		<path class="st3" d="M356.1,371.9L356.1,371.9c-0.5-1.4-2-2.1-3.4-1.6l-6.9,2.5c-1.4,0.5-2.1,2-1.6,3.4l0,0c0.5,1.4,2,2.1,3.4,1.6
			l6.9-2.5C355.9,374.8,356.6,373.3,356.1,371.9z"/>
	</g>
	<g>
		<path class="st3" d="M356.1,392.2L356.1,392.2c-0.5,1.4-2,2.1-3.4,1.6l-6.9-2.5c-1.4-0.5-2.1-2-1.6-3.4l0,0c0.5-1.4,2-2.1,3.4-1.6
			l6.9,2.5C355.9,389.3,356.6,390.8,356.1,392.2z"/>
		<path class="st3" d="M356.2,392.2L356.2,392.2c-1.4-0.3-2.8,0.7-3.1,2.1l-1.3,7.2c-0.3,1.4,0.7,2.8,2.1,3.1h0
			c1.4,0.3,2.8-0.7,3.1-2.1l1.3-7.2C358.6,393.9,357.6,392.5,356.2,392.2z"/>
	</g>
	<g>
		<path class="st3" d="M391.3,371.9L391.3,371.9c1.4,0.3,2.8-0.7,3.1-2.1l1.3-7.2c0.3-1.4-0.7-2.8-2.1-3.1l0,0
			c-1.4-0.3-2.8,0.7-3.1,2.1l-1.3,7.2C388.9,370.2,389.9,371.6,391.3,371.9z"/>
		<path class="st3" d="M391.3,371.9L391.3,371.9c0.5-1.4,2-2.1,3.4-1.6l6.9,2.5c1.4,0.5,2.1,2,1.6,3.4l0,0c-0.5,1.4-2,2.1-3.4,1.6
			l-6.9-2.5C391.6,374.8,390.8,373.3,391.3,371.9z"/>
	</g>
	<g>
		<path class="st3" d="M391.3,392.2L391.3,392.2c0.5,1.4,2,2.1,3.4,1.6l6.9-2.5c1.4-0.5,2.1-2,1.6-3.4l0,0c-0.5-1.4-2-2.1-3.4-1.6
			l-6.9,2.5C391.6,389.3,390.8,390.8,391.3,392.2z"/>
		<path class="st3" d="M391.3,392.2L391.3,392.2c1.4-0.3,2.8,0.7,3.1,2.1l1.3,7.2c0.3,1.4-0.7,2.8-2.1,3.1l0,0
			c-1.4,0.3-2.8-0.7-3.1-2.1l-1.3-7.2C388.9,393.9,389.9,392.5,391.3,392.2z"/>
	</g>
	<g>
		<path class="st3" d="M373.7,402.4L373.7,402.4c0.9,1.1,0.8,2.8-0.3,3.7l-5.6,4.8c-1.1,0.9-2.8,0.8-3.7-0.3l0,0
			c-0.9-1.1-0.8-2.8,0.3-3.7l5.6-4.8C371.1,401.1,372.8,401.2,373.7,402.4z"/>
		<path class="st3" d="M373.8,402.4L373.8,402.4c-0.9,1.1-0.8,2.8,0.3,3.7l5.6,4.8c1.1,0.9,2.8,0.8,3.7-0.3l0,0
			c0.9-1.1,0.8-2.8-0.3-3.7l-5.6-4.8C376.4,401.1,374.7,401.2,373.8,402.4z"/>
	</g>
	<path class="st3" d="M399.8,393.6l-19.9-11.5l19.9-11.5c1.5-0.8,2-2.7,1.1-4.2h0c-0.8-1.5-2.7-2-4.2-1.1l-20,11.5v-23
		c0-1.7-1.4-3.1-3.1-3.1c-1.7,0-3.1,1.4-3.1,3.1v23l-20-11.5c-1.5-0.8-3.3-0.3-4.2,1.1c-0.8,1.5-0.3,3.3,1.1,4.2l19.9,11.5
		l-19.9,11.5c-1.5,0.8-2,2.7-1.1,4.2s2.7,2,4.2,1.1l20-11.5v23c0,1.7,1.4,3.1,3.1,3.1c1.7,0,3.1-1.4,3.1-3.1v-23l20,11.5
		c1.5,0.8,3.3,0.3,4.2-1.1h0C401.8,396.3,401.3,394.4,399.8,393.6z"/>
</g>
<g>
	<g>
		<path class="st3" d="M100.7,366.2L100.7,366.2c-0.7-0.9-0.6-2.2,0.2-2.9l4.4-3.7c0.9-0.7,2.2-0.6,2.9,0.2l0,0
			c0.7,0.9,0.6,2.2-0.2,2.9l-4.4,3.7C102.7,367.2,101.4,367,100.7,366.2z"/>
		<path class="st3" d="M100.6,366.2L100.6,366.2c0.7-0.9,0.6-2.2-0.2-2.9l-4.4-3.7c-0.9-0.7-2.2-0.6-2.9,0.2l0,0
			c-0.7,0.9-0.6,2.2,0.2,2.9l4.4,3.7C98.6,367.2,99.9,367,100.6,366.2z"/>
	</g>
	<g>
		<path class="st3" d="M86.9,374.1L86.9,374.1c-1.1,0.2-2.2-0.5-2.4-1.7l-1-5.6c-0.2-1.1,0.5-2.2,1.7-2.4h0c1.1-0.2,2.2,0.5,2.4,1.7
			l1,5.6C88.8,372.8,88,373.9,86.9,374.1z"/>
		<path class="st3" d="M86.9,374.1L86.9,374.1c-0.4-1.1-1.6-1.6-2.7-1.3l-5.4,1.9c-1.1,0.4-1.6,1.6-1.3,2.7l0,0
			c0.4,1.1,1.6,1.6,2.7,1.3l5.4-1.9C86.7,376.4,87.3,375.2,86.9,374.1z"/>
	</g>
	<g>
		<path class="st3" d="M86.9,390L86.9,390c-0.4,1.1-1.6,1.6-2.7,1.3l-5.4-1.9c-1.1-0.4-1.6-1.6-1.3-2.7l0,0c0.4-1.1,1.6-1.6,2.7-1.3
			l5.4,1.9C86.7,387.7,87.3,388.9,86.9,390z"/>
		<path class="st3" d="M86.9,390L86.9,390c-1.1-0.2-2.2,0.5-2.4,1.7l-1,5.6c-0.2,1.1,0.5,2.2,1.7,2.4h0c1.1,0.2,2.2-0.5,2.4-1.7
			l1-5.6C88.8,391.3,88,390.2,86.9,390z"/>
	</g>
	<g>
		<path class="st3" d="M114.4,374.1L114.4,374.1c1.1,0.2,2.2-0.5,2.4-1.7l1-5.6c0.2-1.1-0.5-2.2-1.7-2.4l0,0
			c-1.1-0.2-2.2,0.5-2.4,1.7l-1,5.6C112.5,372.8,113.3,373.9,114.4,374.1z"/>
		<path class="st3" d="M114.4,374.1L114.4,374.1c0.4-1.1,1.6-1.6,2.7-1.3l5.4,1.9c1.1,0.4,1.6,1.6,1.3,2.7l0,0
			c-0.4,1.1-1.6,1.6-2.7,1.3l-5.4-1.9C114.6,376.4,114.1,375.2,114.4,374.1z"/>
	</g>
	<g>
		<path class="st3" d="M114.4,390L114.4,390c0.4,1.1,1.6,1.6,2.7,1.3l5.4-1.9c1.1-0.4,1.6-1.6,1.3-2.7l0,0c-0.4-1.1-1.6-1.6-2.7-1.3
			l-5.4,1.9C114.6,387.7,114.1,388.9,114.4,390z"/>
		<path class="st3" d="M114.4,390L114.4,390c1.1-0.2,2.2,0.5,2.4,1.7l1,5.6c0.2,1.1-0.5,2.2-1.7,2.4l0,0c-1.1,0.2-2.2-0.5-2.4-1.7
			l-1-5.6C112.5,391.3,113.3,390.2,114.4,390z"/>
	</g>
	<g>
		<path class="st3" d="M100.6,397.9L100.6,397.9c0.7,0.9,0.6,2.2-0.2,2.9l-4.4,3.7c-0.9,0.7-2.2,0.6-2.9-0.2v0
			c-0.7-0.9-0.6-2.2,0.2-2.9l4.4-3.7C98.6,397,99.9,397.1,100.6,397.9z"/>
		<path class="st3" d="M100.7,397.9L100.7,397.9c-0.7,0.9-0.6,2.2,0.2,2.9l4.4,3.7c0.9,0.7,2.2,0.6,2.9-0.2v0
			c0.7-0.9,0.6-2.2-0.2-2.9l-4.4-3.7C102.7,397,101.4,397.1,100.7,397.9z"/>
	</g>
	<path class="st3" d="M121.1,391.1l-15.6-9l15.6-9c1.1-0.7,1.5-2.1,0.9-3.3h0c-0.7-1.1-2.1-1.5-3.3-0.9l-15.6,9v-18
		c0-1.3-1.1-2.4-2.4-2.4c-1.3,0-2.4,1.1-2.4,2.4v18l-15.6-9c-1.1-0.7-2.6-0.3-3.3,0.9c-0.7,1.1-0.3,2.6,0.9,3.3l15.6,9l-15.6,9
		c-1.1,0.7-1.5,2.1-0.9,3.3s2.1,1.5,3.3,0.9l15.6-9v18c0,1.3,1.1,2.4,2.4,2.4c1.3,0,2.4-1.1,2.4-2.4v-18l15.6,9
		c1.1,0.7,2.6,0.3,3.3-0.9h0C122.6,393.2,122.2,391.7,121.1,391.1z"/>
</g>
<g>
	<g>
		<path class="st3" d="M169.4,366.2L169.4,366.2c-0.7-0.9-0.6-2.2,0.2-2.9l4.4-3.7c0.9-0.7,2.2-0.6,2.9,0.2l0,0
			c0.7,0.9,0.6,2.2-0.2,2.9l-4.4,3.7C171.4,367.2,170.1,367,169.4,366.2z"/>
		<path class="st3" d="M169.3,366.2L169.3,366.2c0.7-0.9,0.6-2.2-0.2-2.9l-4.4-3.7c-0.9-0.7-2.2-0.6-2.9,0.2l0,0
			c-0.7,0.9-0.6,2.2,0.2,2.9l4.4,3.7C167.3,367.2,168.6,367,169.3,366.2z"/>
	</g>
	<g>
		<path class="st3" d="M155.6,374.1L155.6,374.1c-1.1,0.2-2.2-0.5-2.4-1.7l-1-5.6c-0.2-1.1,0.5-2.2,1.7-2.4l0,0
			c1.1-0.2,2.2,0.5,2.4,1.7l1,5.6C157.5,372.8,156.7,373.9,155.6,374.1z"/>
		<path class="st3" d="M155.6,374.1L155.6,374.1c-0.4-1.1-1.6-1.6-2.7-1.3l-5.4,1.9c-1.1,0.4-1.6,1.6-1.3,2.7l0,0
			c0.4,1.1,1.6,1.6,2.7,1.3l5.4-1.9C155.4,376.4,156,375.2,155.6,374.1z"/>
	</g>
	<g>
		<path class="st3" d="M155.6,390L155.6,390c-0.4,1.1-1.6,1.6-2.7,1.3l-5.4-1.9c-1.1-0.4-1.6-1.6-1.3-2.7l0,0
			c0.4-1.1,1.6-1.6,2.7-1.3l5.4,1.9C155.4,387.7,156,388.9,155.6,390z"/>
		<path class="st3" d="M155.6,390L155.6,390c-1.1-0.2-2.2,0.5-2.4,1.7l-1,5.6c-0.2,1.1,0.5,2.2,1.7,2.4l0,0c1.1,0.2,2.2-0.5,2.4-1.7
			l1-5.6C157.5,391.3,156.7,390.2,155.6,390z"/>
	</g>
	<g>
		<path class="st3" d="M183.1,374.1L183.1,374.1c1.1,0.2,2.2-0.5,2.4-1.7l1-5.6c0.2-1.1-0.5-2.2-1.7-2.4l0,0
			c-1.1-0.2-2.2,0.5-2.4,1.7l-1,5.6C181.2,372.8,182,373.9,183.1,374.1z"/>
		<path class="st3" d="M183.1,374.1L183.1,374.1c0.4-1.1,1.6-1.6,2.7-1.3l5.4,1.9c1.1,0.4,1.6,1.6,1.3,2.7h0
			c-0.4,1.1-1.6,1.6-2.7,1.3l-5.4-1.9C183.3,376.4,182.7,375.2,183.1,374.1z"/>
	</g>
	<g>
		<path class="st3" d="M183.1,390L183.1,390c0.4,1.1,1.6,1.6,2.7,1.3l5.4-1.9c1.1-0.4,1.6-1.6,1.3-2.7l0,0c-0.4-1.1-1.6-1.6-2.7-1.3
			l-5.4,1.9C183.3,387.7,182.7,388.9,183.1,390z"/>
		<path class="st3" d="M183.1,390L183.1,390c1.1-0.2,2.2,0.5,2.4,1.7l1,5.6c0.2,1.1-0.5,2.2-1.7,2.4l0,0c-1.1,0.2-2.2-0.5-2.4-1.7
			l-1-5.6C181.2,391.3,182,390.2,183.1,390z"/>
	</g>
	<g>
		<path class="st3" d="M169.3,397.9L169.3,397.9c0.7,0.9,0.6,2.2-0.2,2.9l-4.4,3.7c-0.9,0.7-2.2,0.6-2.9-0.2v0
			c-0.7-0.9-0.6-2.2,0.2-2.9l4.4-3.7C167.3,397,168.6,397.1,169.3,397.9z"/>
		<path class="st3" d="M169.4,397.9L169.4,397.9c-0.7,0.9-0.6,2.2,0.2,2.9l4.4,3.7c0.9,0.7,2.2,0.6,2.9-0.2v0
			c0.7-0.9,0.6-2.2-0.2-2.9l-4.4-3.7C171.4,397,170.1,397.1,169.4,397.9z"/>
	</g>
	<path class="st3" d="M189.7,391.1l-15.6-9l15.6-9c1.1-0.7,1.5-2.1,0.9-3.3h0c-0.7-1.1-2.1-1.5-3.3-0.9l-15.6,9v-18
		c0-1.3-1.1-2.4-2.4-2.4c-1.3,0-2.4,1.1-2.4,2.4v18l-15.6-9c-1.1-0.7-2.6-0.3-3.3,0.9c-0.7,1.1-0.3,2.6,0.9,3.3l15.6,9l-15.6,9
		c-1.1,0.7-1.5,2.1-0.9,3.3s2.1,1.5,3.3,0.9l15.6-9v18c0,1.3,1.1,2.4,2.4,2.4c1.3,0,2.4-1.1,2.4-2.4v-18l15.6,9
		c1.1,0.7,2.6,0.3,3.3-0.9h0C191.3,393.2,190.9,391.7,189.7,391.1z"/>
</g>
</svg>
