<?xml version="1.0" encoding="utf-8"?>
<!-- Generator: Adobe Illustrator 26.0.3, SVG Export Plug-In . SVG Version: 6.00 Build 0)  -->
<svg version="1.1" id="图层_1" xmlns="http://www.w3.org/2000/svg" xmlns:xlink="http://www.w3.org/1999/xlink" x="0px" y="0px"
	 viewBox="0 0 500 500" style="enable-background:new 0 0 500 500;" xml:space="preserve">
<style type="text/css">
	.st0{fill:#E3E3E3;}
	.st1{fill-rule:evenodd;clip-rule:evenodd;fill:#FFB55A;}
	.st2{fill:#F6F6F6;}
	.st3{fill:#4FC0F2;}
</style>
<path class="st0" d="M401.1,180.8c-0.1,0-0.3,0-0.4,0c-4.4-47.1-43.9-84-92.2-84c-51.1,0-92.6,41.5-92.6,92.6
	c0,49.4,38.8,89.8,87.6,92.4v0.1h97.6c28,0,50.6-22.7,50.6-50.6S429.1,180.8,401.1,180.8z"/>
<path class="st1" d="M353.8,144.7c-44.7,0-81-36.3-81-81c0-8.4,1.3-16.4,3.6-24c0.2-0.8-0.4-1.6-1.3-1.4
	c-36.9,6.9-65,38.7-66.1,77.3c-1.3,46.3,36.7,84.5,83,83.3c34.2-0.8,63.1-22.9,74.2-53.5c0.3-0.8-0.4-1.6-1.2-1.5
	C361.4,144.5,357.6,144.7,353.8,144.7z"/>
<path class="st2" d="M343.9,206.8c-14.9-50.9-61.9-88.1-117.7-88.1c-67,0-121.3,53.7-122.6,120.3c-31.2,3.7-55.3,30.1-55.3,62.3
	c0,34.6,28.1,62.7,62.7,62.7h223.6c43.6,0,78.9-35.3,78.9-78.9C413.4,244.7,383.1,211.4,343.9,206.8z"/>
<path class="st3" d="M164.3,443.9l18.7-45.8c2.7-6.6,10.2-9.8,16.9-7.1h0c6.6,2.7,9.8,10.2,7.1,16.9l-18.7,45.8
	c-2.7,6.6-10.2,9.8-16.9,7.1h0C164.8,458.1,161.6,450.5,164.3,443.9z"/>
<g>
	<g>
		<path class="st3" d="M307,405.6L307,405.6c-0.9-1.1-0.8-2.8,0.3-3.7l5.6-4.8c1.1-0.9,2.8-0.8,3.7,0.3v0c0.9,1.1,0.8,2.8-0.3,3.7
			l-5.6,4.8C309.6,406.9,308,406.7,307,405.6z"/>
		<path class="st3" d="M307,405.6L307,405.6c0.9-1.1,0.8-2.8-0.3-3.7l-5.6-4.8c-1.1-0.9-2.8-0.8-3.7,0.3l0,0
			c-0.9,1.1-0.8,2.8,0.3,3.7l5.6,4.8C304.3,406.9,306,406.7,307,405.6z"/>
	</g>
	<g>
		<path class="st3" d="M289.4,415.7L289.4,415.7c-1.4,0.3-2.8-0.7-3.1-2.1l-1.3-7.2c-0.3-1.4,0.7-2.8,2.1-3.1l0,0
			c1.4-0.3,2.8,0.7,3.1,2.1l1.3,7.2C291.8,414.1,290.9,415.5,289.4,415.7z"/>
		<path class="st3" d="M289.4,415.8L289.4,415.8c-0.5-1.4-2-2.1-3.4-1.6l-6.9,2.5c-1.4,0.5-2.1,2-1.6,3.4l0,0c0.5,1.4,2,2.1,3.4,1.6
			l6.9-2.5C289.2,418.7,289.9,417.2,289.4,415.8z"/>
	</g>
	<g>
		<path class="st3" d="M289.4,436L289.4,436c-0.5,1.4-2,2.1-3.4,1.6l-6.9-2.5c-1.4-0.5-2.1-2-1.6-3.4l0,0c0.5-1.4,2-2.1,3.4-1.6
			l6.9,2.5C289.2,433.1,289.9,434.7,289.4,436z"/>
		<path class="st3" d="M289.4,436.1L289.4,436.1c-1.4-0.3-2.8,0.7-3.1,2.1l-1.3,7.2c-0.3,1.4,0.7,2.8,2.1,3.1l0,0
			c1.4,0.3,2.8-0.7,3.1-2.1l1.3-7.2C291.8,437.7,290.9,436.3,289.4,436.1z"/>
	</g>
	<g>
		<path class="st3" d="M324.6,415.7L324.6,415.7c1.4,0.3,2.8-0.7,3.1-2.1l1.3-7.2c0.3-1.4-0.7-2.8-2.1-3.1h0
			c-1.4-0.3-2.8,0.7-3.1,2.1l-1.3,7.2C322.2,414.1,323.1,415.5,324.6,415.7z"/>
		<path class="st3" d="M324.6,415.8L324.6,415.8c0.5-1.4,2-2.1,3.4-1.6l6.9,2.5c1.4,0.5,2.1,2,1.6,3.4l0,0c-0.5,1.4-2,2.1-3.4,1.6
			l-6.9-2.5C324.8,418.7,324.1,417.2,324.6,415.8z"/>
	</g>
	<g>
		<path class="st3" d="M324.6,436L324.6,436c0.5,1.4,2,2.1,3.4,1.6l6.9-2.5c1.4-0.5,2.1-2,1.6-3.4l0,0c-0.5-1.4-2-2.1-3.4-1.6
			l-6.9,2.5C324.8,433.1,324.1,434.7,324.6,436z"/>
		<path class="st3" d="M324.6,436.1L324.6,436.1c1.4-0.3,2.8,0.7,3.1,2.1l1.3,7.2c0.3,1.4-0.7,2.8-2.1,3.1h0
			c-1.4,0.3-2.8-0.7-3.1-2.1l-1.3-7.2C322.2,437.7,323.1,436.3,324.6,436.1z"/>
	</g>
	<g>
		<path class="st3" d="M307,446.2L307,446.2c0.9,1.1,0.8,2.8-0.3,3.7l-5.6,4.8c-1.1,0.9-2.8,0.8-3.7-0.3h0c-0.9-1.1-0.8-2.8,0.3-3.7
			l5.6-4.8C304.3,445,306,445.1,307,446.2z"/>
		<path class="st3" d="M307,446.2L307,446.2c-0.9,1.1-0.8,2.8,0.3,3.7l5.6,4.8c1.1,0.9,2.8,0.8,3.7-0.3l0,0c0.9-1.1,0.8-2.8-0.3-3.7
			l-5.6-4.8C309.6,445,308,445.1,307,446.2z"/>
	</g>
	<path class="st3" d="M333,437.4l-19.9-11.5l19.9-11.5c1.5-0.8,2-2.7,1.1-4.2h0c-0.8-1.5-2.7-2-4.2-1.1l-20,11.5v-23
		c0-1.7-1.4-3.1-3.1-3.1c-1.7,0-3.1,1.4-3.1,3.1v23l-20-11.5c-1.5-0.8-3.3-0.3-4.2,1.1c-0.8,1.5-0.3,3.3,1.1,4.2l19.9,11.5
		l-19.9,11.5c-1.5,0.8-2,2.7-1.1,4.2s2.7,2,4.2,1.1l20-11.5v23c0,1.7,1.4,3.1,3.1,3.1c1.7,0,3.1-1.4,3.1-3.1v-23l20,11.5
		c1.5,0.8,3.3,0.3,4.2-1.1h0C335,440.1,334.5,438.3,333,437.4z"/>
</g>
</svg>
