<?xml version="1.0" encoding="utf-8"?>
<!-- Generator: Adobe Illustrator 26.0.3, SVG Export Plug-In . SVG Version: 6.00 Build 0)  -->
<svg version="1.1" id="图层_1" xmlns="http://www.w3.org/2000/svg" xmlns:xlink="http://www.w3.org/1999/xlink" x="0px" y="0px"
	 viewBox="0 0 500 500" style="enable-background:new 0 0 500 500;" xml:space="preserve">
<style type="text/css">
	.st0{clip-path:url(#SVGID_00000029762479478258160680000014936797202746091946_);fill:#FCD063;}
	.st1{fill:#F7B84E;}
	.st2{fill:#C98E3F;}
	.st3{fill:#AB7934;}
</style>
<g>
	<g>
		<defs>
			<rect id="SVGID_1_" x="24.9" y="25.4" width="450" height="450"/>
		</defs>
		<clipPath id="SVGID_00000001637698859630781550000006557637201007797893_">
			<use xlink:href="#SVGID_1_"  style="overflow:visible;"/>
		</clipPath>
		<path style="clip-path:url(#SVGID_00000001637698859630781550000006557637201007797893_);fill:#FCD063;" d="M24.9,250.2
			c0,124,100.7,224.6,224.8,224.6c124.2,0,224.8-100.5,224.8-224.6c0-124-100.7-224.6-224.8-224.6C125.5,25.6,24.9,126.2,24.9,250.2
			L24.9,250.2z M24.9,250.2"/>
	</g>
	<path class="st1" d="M393.9,78.1c32.7,39,52.5,89.2,52.5,144.1c0,124-100.7,224.6-224.8,224.6c-54.9,0-105.2-19.7-144.3-52.4
		c41.2,49.2,103.1,80.5,172.4,80.5c124.2,0,224.8-100.6,224.8-224.6C474.5,181.1,443.2,119.3,393.9,78.1L393.9,78.1z M393.9,78.1"/>
	<path class="st2" d="M173,362.5h153.3c4.2,0,7.7-3.1,7.7-7c0-42.6-37.8-77.2-84.3-77.2c-46.5,0-84.3,34.6-84.3,77.2
		C165.4,359.4,168.8,362.5,173,362.5L173,362.5z M173,362.5"/>
	<path class="st3" d="M249.7,292.3c42.4,0,77.6,28.9,83.4,66.4c0.5-1,0.9-2,0.9-3.2c0-42.6-37.8-77.2-84.3-77.2
		c-46.5,0-84.3,34.6-84.3,77.2c0,1.2,0.4,2.2,0.9,3.2C172.1,321.3,207.2,292.3,249.7,292.3L249.7,292.3z M249.7,292.3"/>
	<path class="st2" d="M199.3,208.1l18.2-18.1c5.5-5.5,5.5-14.4,0-19.8c-5.5-5.5-14.4-5.5-19.9,0l-18.2,18.1l-18.2-18.1
		c-5.5-5.5-14.4-5.5-19.9,0c-5.5,5.5-5.5,14.4,0,19.8l18.2,18.1l-18.2,18.1c-5.5,5.5-5.5,14.4,0,19.8c2.7,2.7,6.3,4.1,9.9,4.1
		c3.6,0,7.2-1.4,9.9-4.1l18.2-18.1l18.2,18.1c2.7,2.7,6.3,4.1,9.9,4.1c3.6,0,7.2-1.4,9.9-4.1c5.5-5.5,5.5-14.4,0-19.8L199.3,208.1z
		 M199.3,208.1"/>
	<path class="st3" d="M141.4,184.2c5.5-5.5,14.4-5.5,19.9,0l18.2,18.1l18.2-18.1c5.5-5.5,14.4-5.5,19.9,0c0.9,0.9,1.3,1.9,1.9,2.9
		c3.2-5.4,2.7-12.3-1.9-16.9c-5.5-5.5-14.4-5.5-19.9,0l-18.2,18.1l-18.2-18.1c-5.5-5.5-14.4-5.5-19.9,0c-4.6,4.6-5.1,11.6-1.9,16.9
		C140,186.1,140.5,185,141.4,184.2L141.4,184.2z M141.4,240.3l18.2-18.1v-14l-18.2,18.1c-4.6,4.6-5.1,11.6-1.9,16.9
		C140,242.2,140.5,241.2,141.4,240.3L141.4,240.3z M199.3,208.1v14l18.2,18.1c0.9,0.9,1.3,1.9,1.9,2.9c3.2-5.4,2.7-12.3-1.9-16.9
		L199.3,208.1z M199.3,208.1"/>
	<path class="st2" d="M339.8,208.1L358,190c5.5-5.5,5.5-14.4,0-19.8c-5.5-5.5-14.4-5.5-19.9,0l-18.2,18.1l-18.2-18.1
		c-5.5-5.5-14.4-5.5-19.9,0c-5.5,5.5-5.5,14.4,0,19.8l18.2,18.1l-18.2,18.1c-5.5,5.5-5.5,14.4,0,19.8c2.7,2.7,6.3,4.1,9.9,4.1
		c3.6,0,7.2-1.4,9.9-4.1l18.2-18.1l18.2,18.1c2.7,2.7,6.3,4.1,9.9,4.1c3.6,0,7.2-1.4,9.9-4.1c5.5-5.5,5.5-14.4,0-19.8L339.8,208.1z
		 M339.8,208.1"/>
	<path class="st3" d="M282.1,184.2c5.5-5.5,14.4-5.5,19.9,0l18.2,18.1l18.2-18.1c5.5-5.5,14.4-5.5,19.9,0c0.9,0.9,1.3,1.9,1.9,2.9
		c3.2-5.4,2.7-12.3-1.9-16.9c-5.5-5.5-14.4-5.5-19.9,0l-18.2,18.1l-18.2-18.1c-5.5-5.5-14.4-5.5-19.9,0c-4.6,4.6-5.1,11.6-1.9,16.9
		C280.7,186.1,281.2,185,282.1,184.2L282.1,184.2z M282.1,240.3l18.2-18.1l-0.2-14l-18,18.1c-4.6,4.6-5.1,11.6-1.9,16.9
		C280.7,242.2,281.2,241.2,282.1,240.3L282.1,240.3z M339.8,208.1l0.2,14l18.2,18.1c0.9,0.9,1.3,1.9,1.9,2.9
		c3.2-5.4,2.7-12.3-1.9-16.9L339.8,208.1z M339.8,208.1"/>
</g>
</svg>
